<svg viewBox="0 0 1584.5999755859375 400" xmlns="http://www.w3.org/2000/svg"><g><g><g><g><g><line x1="53.1875" y1="365.080153781262" x2="48.1875" y2="365.080153781262" style="visibility: inherit;" fill="rgb(0, 0, 0)" stroke="rgb(204, 204, 204)" stroke-width="1px"></line><line x1="53.1875" y1="330.0000996285433" x2="48.1875" y2="330.0000996285433" style="visibility: inherit;" fill="rgb(0, 0, 0)" stroke="rgb(204, 204, 204)" stroke-width="1px"></line><line x1="53.1875" y1="294.9200454758246" x2="48.1875" y2="294.9200454758246" style="visibility: inherit;" fill="rgb(0, 0, 0)" stroke="rgb(204, 204, 204)" stroke-width="1px"></line><line x1="53.1875" y1="259.83999132310595" x2="48.1875" y2="259.83999132310595" style="visibility: inherit;" fill="rgb(0, 0, 0)" stroke="rgb(204, 204, 204)" stroke-width="1px"></line><line x1="53.1875" y1="224.75993717038725" x2="48.1875" y2="224.75993717038725" style="visibility: inherit;" fill="rgb(0, 0, 0)" stroke="rgb(204, 204, 204)" stroke-width="1px"></line><line x1="53.1875" y1="189.67988301766857" x2="48.1875" y2="189.67988301766857" style="visibility: inherit;" fill="rgb(0, 0, 0)" stroke="rgb(204, 204, 204)" stroke-width="1px"></line><line x1="53.1875" y1="154.59982886494993" x2="48.1875" y2="154.59982886494993" style="visibility: inherit;" fill="rgb(0, 0, 0)" stroke="rgb(204, 204, 204)" stroke-width="1px"></line><line x1="53.1875" y1="119.51977471223123" x2="48.1875" y2="119.51977471223123" style="visibility: inherit;" fill="rgb(0, 0, 0)" stroke="rgb(204, 204, 204)" stroke-width="1px"></line><line x1="53.1875" y1="84.43972055951252" x2="48.1875" y2="84.43972055951252" style="visibility: inherit;" fill="rgb(0, 0, 0)" stroke="rgb(204, 204, 204)" stroke-width="1px"></line><line x1="53.1875" y1="49.359666406793814" x2="48.1875" y2="49.359666406793814" style="visibility: inherit;" fill="rgb(0, 0, 0)" stroke="rgb(204, 204, 204)" stroke-width="1px"></line><line x1="53.1875" y1="14.279612254075158" x2="48.1875" y2="14.279612254075158" style="visibility: inherit;" fill="rgb(0, 0, 0)" stroke="rgb(204, 204, 204)" stroke-width="1px"></line></g><g transform="translate(43.1875, 0)"><text x="0" y="365.080153781262" dx="0em" dy="0.3em" style="text-anchor: end; visibility: inherit; font-family: Roboto, sans-serif; font-size: 12px; font-weight: 200;" fill="rgb(33, 33, 33)" stroke="none" stroke-width="1px">0</text><text x="0" y="330.0000996285433" dx="0em" dy="0.3em" style="text-anchor: end; visibility: inherit; font-family: Roboto, sans-serif; font-size: 12px; font-weight: 200;" fill="rgb(33, 33, 33)" stroke="none" stroke-width="1px">0.05</text><text x="0" y="294.9200454758246" dx="0em" dy="0.3em" style="text-anchor: end; visibility: inherit; font-family: Roboto, sans-serif; font-size: 12px; font-weight: 200;" fill="rgb(33, 33, 33)" stroke="none" stroke-width="1px">0.1</text><text x="0" y="259.83999132310595" dx="0em" dy="0.3em" style="text-anchor: end; visibility: inherit; font-family: Roboto, sans-serif; font-size: 12px; font-weight: 200;" fill="rgb(33, 33, 33)" stroke="none" stroke-width="1px">0.15</text><text x="0" y="224.75993717038725" dx="0em" dy="0.3em" style="text-anchor: end; visibility: inherit; font-family: Roboto, sans-serif; font-size: 12px; font-weight: 200;" fill="rgb(33, 33, 33)" stroke="none" stroke-width="1px">0.2</text><text x="0" y="189.67988301766857" dx="0em" dy="0.3em" style="text-anchor: end; visibility: inherit; font-family: Roboto, sans-serif; font-size: 12px; font-weight: 200;" fill="rgb(33, 33, 33)" stroke="none" stroke-width="1px">0.25</text><text x="0" y="154.59982886494993" dx="0em" dy="0.3em" style="text-anchor: end; visibility: inherit; font-family: Roboto, sans-serif; font-size: 12px; font-weight: 200;" fill="rgb(33, 33, 33)" stroke="none" stroke-width="1px">0.3</text><text x="0" y="119.51977471223123" dx="0em" dy="0.3em" style="text-anchor: end; visibility: inherit; font-family: Roboto, sans-serif; font-size: 12px; font-weight: 200;" fill="rgb(33, 33, 33)" stroke="none" stroke-width="1px">0.35</text><text x="0" y="84.43972055951252" dx="0em" dy="0.3em" style="text-anchor: end; visibility: inherit; font-family: Roboto, sans-serif; font-size: 12px; font-weight: 200;" fill="rgb(33, 33, 33)" stroke="none" stroke-width="1px">0.4</text><text x="0" y="49.359666406793814" dx="0em" dy="0.3em" style="text-anchor: end; visibility: inherit; font-family: Roboto, sans-serif; font-size: 12px; font-weight: 200;" fill="rgb(33, 33, 33)" stroke="none" stroke-width="1px">0.45</text><text x="0" y="14.279612254075158" dx="0em" dy="0.3em" style="text-anchor: end; visibility: inherit; font-family: Roboto, sans-serif; font-size: 12px; font-weight: 200;" fill="rgb(33, 33, 33)" stroke="none" stroke-width="1px">0.5</text></g><line x1="53.1875" y1="0" x2="53.1875" y2="376" fill="rgb(0, 0, 0)" stroke="rgb(204, 204, 204)" stroke-width="1px"></line></g></g><g transform="translate(53, 0)" clip-path="url(#clip_0)"><clipPath id="clip_0"><rect width="1531" height="376"></rect></clipPath><g><g><g><line x1="8.619990495108595" y1="0" x2="8.619990495108595" y2="376" fill="rgb(0, 0, 0)" stroke="rgb(66, 66, 66)" stroke-width="1px" opacity="0.25"></line><line x1="124.60025579697125" y1="0" x2="124.60025579697125" y2="376" fill="rgb(0, 0, 0)" stroke="rgb(66, 66, 66)" stroke-width="1px" opacity="0.25"></line><line x1="240.58052109883388" y1="0" x2="240.58052109883388" y2="376" fill="rgb(0, 0, 0)" stroke="rgb(66, 66, 66)" stroke-width="1px" opacity="0.25"></line><line x1="356.56078640069654" y1="0" x2="356.56078640069654" y2="376" fill="rgb(0, 0, 0)" stroke="rgb(66, 66, 66)" stroke-width="1px" opacity="0.25"></line><line x1="472.5410517025592" y1="0" x2="472.5410517025592" y2="376" fill="rgb(0, 0, 0)" stroke="rgb(66, 66, 66)" stroke-width="1px" opacity="0.25"></line><line x1="588.5213170044218" y1="0" x2="588.5213170044218" y2="376" fill="rgb(0, 0, 0)" stroke="rgb(66, 66, 66)" stroke-width="1px" opacity="0.25"></line><line x1="704.5015823062845" y1="0" x2="704.5015823062845" y2="376" fill="rgb(0, 0, 0)" stroke="rgb(66, 66, 66)" stroke-width="1px" opacity="0.25"></line><line x1="820.4818476081471" y1="0" x2="820.4818476081471" y2="376" fill="rgb(0, 0, 0)" stroke="rgb(66, 66, 66)" stroke-width="1px" opacity="0.25"></line><line x1="936.4621129100098" y1="0" x2="936.4621129100098" y2="376" fill="rgb(0, 0, 0)" stroke="rgb(66, 66, 66)" stroke-width="1px" opacity="0.25"></line><line x1="1052.4423782118722" y1="0" x2="1052.4423782118722" y2="376" fill="rgb(0, 0, 0)" stroke="rgb(66, 66, 66)" stroke-width="1px" opacity="0.25"></line><line x1="1168.422643513735" y1="0" x2="1168.422643513735" y2="376" fill="rgb(0, 0, 0)" stroke="rgb(66, 66, 66)" stroke-width="1px" opacity="0.25"></line><line x1="1284.4029088155976" y1="0" x2="1284.4029088155976" y2="376" fill="rgb(0, 0, 0)" stroke="rgb(66, 66, 66)" stroke-width="1px" opacity="0.25"></line><line x1="1400.3831741174602" y1="0" x2="1400.3831741174602" y2="376" fill="rgb(0, 0, 0)" stroke="rgb(66, 66, 66)" stroke-width="1px" opacity="0.25"></line><line x1="1516.363439419323" y1="0" x2="1516.363439419323" y2="376" fill="rgb(0, 0, 0)" stroke="rgb(66, 66, 66)" stroke-width="1px" opacity="0.25"></line></g><g><line x1="0" y1="365.080153781262" x2="1531.4125" y2="365.080153781262" fill="rgb(0, 0, 0)" stroke="rgb(66, 66, 66)" stroke-width="1px" opacity="0.25"></line><line x1="0" y1="330.0000996285433" x2="1531.4125" y2="330.0000996285433" fill="rgb(0, 0, 0)" stroke="rgb(66, 66, 66)" stroke-width="1px" opacity="0.25"></line><line x1="0" y1="294.9200454758246" x2="1531.4125" y2="294.9200454758246" fill="rgb(0, 0, 0)" stroke="rgb(66, 66, 66)" stroke-width="1px" opacity="0.25"></line><line x1="0" y1="259.83999132310595" x2="1531.4125" y2="259.83999132310595" fill="rgb(0, 0, 0)" stroke="rgb(66, 66, 66)" stroke-width="1px" opacity="0.25"></line><line x1="0" y1="224.75993717038725" x2="1531.4125" y2="224.75993717038725" fill="rgb(0, 0, 0)" stroke="rgb(66, 66, 66)" stroke-width="1px" opacity="0.25"></line><line x1="0" y1="189.67988301766857" x2="1531.4125" y2="189.67988301766857" fill="rgb(0, 0, 0)" stroke="rgb(66, 66, 66)" stroke-width="1px" opacity="0.25"></line><line x1="0" y1="154.59982886494993" x2="1531.4125" y2="154.59982886494993" fill="rgb(0, 0, 0)" stroke="rgb(66, 66, 66)" stroke-width="1px" opacity="0.25"></line><line x1="0" y1="119.51977471223123" x2="1531.4125" y2="119.51977471223123" fill="rgb(0, 0, 0)" stroke="rgb(66, 66, 66)" stroke-width="1px" opacity="0.25"></line><line x1="0" y1="84.43972055951252" x2="1531.4125" y2="84.43972055951252" fill="rgb(0, 0, 0)" stroke="rgb(66, 66, 66)" stroke-width="1px" opacity="0.25"></line><line x1="0" y1="49.359666406793814" x2="1531.4125" y2="49.359666406793814" fill="rgb(0, 0, 0)" stroke="rgb(66, 66, 66)" stroke-width="1px" opacity="0.25"></line><line x1="0" y1="14.279612254075158" x2="1531.4125" y2="14.279612254075158" fill="rgb(0, 0, 0)" stroke="rgb(66, 66, 66)" stroke-width="1px" opacity="0.25"></line></g></g></g><g><g><line x1="0" y1="365.080153781262" x2="1531.4125" y2="365.080153781262" fill="rgb(0, 0, 0)" stroke="rgb(153, 153, 153)" stroke-width="1.5px"></line></g></g><g><g><line x1="8.619990495108595" y1="0" x2="8.619990495108595" y2="376" fill="rgb(0, 0, 0)" stroke="rgb(153, 153, 153)" stroke-width="1.5px"></line></g></g><g><g><g><g><g><path stroke="rgb(255, 112, 67)" stroke-width="2px" d="M14.419003760201727,35.4679681739921L20.21801702529486,86.64099436741867L26.017030290387996,89.13328921456504L31.816043555481123,105.54810705715948L37.61505682057426,114.49887039485249L43.41407008566739,104.15346377536135L49.21308335076053,107.76301113866201L55.01209661585365,113.63070798699161L60.81110988094678,112.0980541030388L66.61012314603991,112.71308515158603L72.40913641113305,136.37318248448992L78.20814967622618,121.62953794250652L84.00716294131932,124.55002723820118L89.80617620641245,133.7145955881999L95.60518947150558,144.57149480361556L101.4042027365987,152.51403142317452L107.20321600169184,143.77703049645802L113.00222926678498,145.41216898066168L118.80124253187812,153.46571829751787L124.60025579697125,143.00206714464576L130.39926906206438,138.71670818121598L136.19828232715753,142.26359813816305L141.99729559225065,140.6030250599125L147.79630885734377,158.85871425403514L153.5953221224369,146.93981381439912L159.39433538753002,156.90758792208752L165.19334865262317,153.43065222287922L170.9923619177163,161.81238504544166L176.79137518280945,154.94226199599854L182.59038844790257,157.8081434980231L188.3894017129957,157.8718944626381L194.18841497808882,173.205045313977L199.98742824318197,172.07736742435827L205.7864415082751,164.8618406650442L211.58545477336824,170.18655195654307L217.38446803846134,177.59098956374862L223.18348130355452,178.49758128728206L228.9824945686476,174.49515959660812L234.78150783374076,179.92357759993578L240.58052109883388,179.98132347673985L246.37953436392704,182.6820542506893L252.17854762902016,174.98523151722287L257.97756089411325,173.45418472005082L263.7765741592064,173.60199161327384L269.57558742429956,161.73539164671865L275.3746006893927,168.08617467108556L281.1736139544858,172.1492209690351L286.97262721957895,176.55153157957417L292.77164048467205,171.6156234385295L298.5706537497652,191.30176433872097L304.36966701485835,184.3105393844164L310.1686802799515,200.06933825047733L315.9676935450446,190.41300255548646L321.76670681013775,195.73256223387673L327.5657200752309,183.0119837576399L333.364733340324,184.781095600888L339.16374660541715,181.54876248608727L344.96275987051024,184.3802471048522L350.7617731356034,188.1558787814634L356.56078640069654,171.67447732996732L362.3597996657897,180.5604814349148L368.1588129308828,182.8050412401055L373.95782619597594,192.3464784892309L379.75683946106903,192.20595267975241L385.5558527261622,196.3593083780487L391.35486599125534,215.4652364942394L397.1538792563485,190.13683286298598L402.9528925214415,182.15225063433357L408.75190578653473,184.60202158375589L414.5509190516279,186.99800071442402L420.34993231672104,193.34679527238134L426.1489455818141,199.8502197713162L431.9479588469072,202.04036812242794L437.7469721120004,195.9455497361868L443.54598537709353,201.52172634126077L449.3449986421866,213.48309308231575L455.1440119072798,212.54940531608497L460.9430251723729,207.24636850521634L466.7420384374661,203.64358700669547L472.5410517025592,197.8616579642761L478.3400649676523,207.9754974331563L484.1390782327455,196.30732240944815L489.93809149783857,203.2261843282757L495.7371047629317,199.0986107402824L501.5361180280249,219.07330074340214L507.335131293118,230.38457884970103L513.1341445582111,255.35684416703026L518.9331578233042,261.7245425794173L524.7321710883974,264.64711376608545L530.5311843534905,269.85253160203285L536.3301976185836,253.19063348439775L542.1292108836768,260.0880461311171L547.9282241487699,264.0581107907225L553.727237413863,265.7666136909128L559.5262506789561,255.56609626213486L565.3252639440493,260.2504413798922L571.1242772091424,268.05644908525034L576.9232904742355,250.5413960361228L582.7223037393287,262.17489493315804L588.5213170044218,256.6384302571717L594.320330269515,254.35492190425603L600.1193435346081,257.25055259487243L605.9183567997012,257.38827855265447L611.7173700647944,266.4233449440549L617.5163833298875,267.55058455814697L623.3153965949806,266.51502197835305L629.1144098600738,264.1256490454627L634.9134231251669,253.79572350576217L640.71243639026,244.45459648739936L646.5114496553531,254.1448235189626L652.3104629204463,253.08326982652156L658.1094761855395,245.76709514648658L663.9084894506325,252.3784933602983L669.7075027157257,253.34248318595493L675.5065159808188,253.07895407548142L681.305529245912,244.5858168331426L687.1045425110051,248.94751408974906L692.9035557760982,249.7965012405673L698.7025690411914,247.97657614213256L704.5015823062845,237.90412574795803L710.3005955713776,247.716840757946L716.0996088364708,247.3181263748539L721.8986221015639,239.2490267542224L727.697635366657,238.1681497170625L733.4966486317501,243.10437065176436L739.2956618968433,243.820979378807L745.0946751619365,257.07621205864416L750.8936884270295,252.31633811459622L756.6927016921227,258.86186849528076L762.4917149572158,266.746216905719L768.290728222309,262.0753712048687L774.0897414874021,269.54430396478756L779.8887547524952,270.1808894213068L785.6877680175884,265.42712165047095L791.4867812826815,261.0594020865289L797.2857945477747,272.5549847280247L803.0848078128678,274.73757468017436L808.8838210779608,274.8965043071267L814.6828343430541,275.46895053206254L820.4818476081471,270.9292715239817L826.2808608732402,264.697462049356L832.0798741383335,268.9005012470181L837.8788874034265,259.0180167340035L843.6779006685196,254.29527940729693L849.4769139336128,251.23712504608204L855.2759271987059,262.2274998729646L861.0749404637991,252.9374750042191L866.8739537288922,261.1709689424946L872.6729669939853,254.01546279418625L878.4719802590785,264.7644879551429L884.2709935241716,261.8966397688167L890.0700067892647,259.92335437344764L895.8690200543579,270.9753061484778L901.668033319451,273.5652555672552L907.467046584544,257.7756455889709L913.2660598496373,266.6557651658448L919.0650731147304,262.86302316681173L924.8640863798236,263.7866786986992L930.6630996449167,263.6673319403902L936.4621129100098,262.66961150625843L942.261126175103,269.95697718238625L948.060139440196,264.9840687867803L953.8591527052891,260.2042238460204L959.6581659703821,259.946275272446L965.4571792354755,240.25893170173694L971.2561925005684,254.06899592815216L977.0552057656615,269.427173913123L982.8542190307547,270.47544594741123L988.6532322958478,284.2103155226173L994.4522455609409,297.36244434729736L1000.2512588260341,303.3173033286653L1006.0502720911272,302.1754590847382L1011.8492853562203,303.4548353702045L1017.6482986213135,303.07183679714683L1023.4473118864066,299.951440351409L1029.2463251514998,298.64048448787804L1035.045338416593,300.63225019813297L1040.844351681686,297.4212555118764L1046.6433649467792,307.6463892026938L1052.4423782118722,304.18356617779534L1058.2413914769654,298.17690669921114L1064.0404047420586,307.5384989566501L1069.8394180071516,304.2872170495295L1075.6384312722448,309.2121378166361L1081.437444537338,305.1791443829256L1087.236457802431,301.4122723496849L1093.0354710675242,309.76035830342306L1098.8344843326174,310.2228342168114L1104.6334975977104,311.79126670109395L1110.4325108628036,306.193404228071L1116.2315241278968,296.4080207632603L1122.0305373929898,305.69137342597685L1127.829550658083,306.71501041021935L1133.6285639231762,311.79137574993916L1139.4275771882692,314.5004270059846L1145.2265904533624,300.0732250663106L1151.0256037184556,304.2141068277354L1156.8246169835488,304.6218970701721L1162.6236302486418,306.0733245967365L1168.422643513735,303.43617486102954L1174.2216567788282,299.1036103096143L1180.0206700439212,307.0280861518334L1185.8196833090142,296.9930213817308L1191.6186965741076,305.56528534829476L1197.4177098392006,310.1192992968732L1203.2167231042936,312.43074616308644L1209.015736369387,303.15327920876825L1214.81474963448,295.4539311849944L1220.6137628995732,294.65103205177974L1226.4127761646662,298.43502618328256L1232.2117894297594,288.6940116151237L1238.0108026948526,290.426695290497L1243.8098159599456,298.1455479602913L1249.6088292250388,296.6308345831268L1255.407842490132,308.9962989762887L1261.206855755225,302.4396847787698L1267.0058690203182,302.4908088697342L1272.8048822854114,299.8554000785349L1278.6038955505044,305.51467718136325L1284.4029088155976,315.56142243471527L1290.2019220806908,310.95319798559564L1296.0009353457838,310.46144957735055L1301.799948610877,310.11027358657276L1307.5989618759702,308.0473411428791L1313.3979751410632,319.4103361096163L1319.1969884061564,318.0053682507323L1324.9960016712496,304.2529286275773L1330.7950149363428,302.93328380182817L1336.5940282014358,304.69532416956116L1342.393041466529,300.19586784251976L1348.1920547316222,303.19319509495404L1353.9910679967152,302.8306590768493L1359.7900812618082,300.70478367092875L1365.5890945269016,306.5855893407112L1371.3881077919946,310.28245567100686L1377.1871210570876,300.76980542407955L1382.986134322181,304.5478635781836L1388.785147587274,299.1532145901644L1394.5841608523672,305.93528889420844L1400.3831741174602,309.41518695434075L1406.1821873825534,313.8885701251765L1411.9812006476466,307.78855423030706L1417.7802139127396,304.43725021372364L1423.5792271778328,305.06448653116917L1429.378240442926,306.0863017897613L1435.177253708019,307.0642234110855L1440.9762669731122,313.17959345864585L1446.7752802382054,323.80869790824124L1452.5742935032983,316.2383312174977L1458.3733067683916,307.14973658966414L1464.1723200334848,310.36836962773936L1469.9713332985777,309.5492726496592" style="fill: none;" fill="none"></path></g></g></g></g><g opacity="0.2"><g><g><g><path stroke="rgb(255, 112, 67)" stroke-width="2px" d="M14.419003760201727,35.46796817399214L20.21801702529486,117.34481008347468L26.017030290387996,91.52589226782548L31.816043555481123,124.85193284005057L37.61505682057426,126.18498700854455L43.41407008566739,89.84204207422209L49.21308335076053,112.92472162093976L55.01209661585365,122.1858663217459L60.81110988094678,109.83768732689882L66.61012314603991,113.62633458050017L72.40913641113305,171.64873314241942L78.20814967622618,99.5943053920497L84.00716294131932,128.92122527747614L89.80617620641245,147.44349376974677L95.60518947150558,160.84408174926367L101.4042027365987,164.42223466032607L107.20321600169184,130.6752263123647L113.00222926678498,147.864461545483L118.80124253187812,165.54481539562275L124.60025579697125,127.30754683449959L130.39926906206438,132.2889047553412L136.19828232715753,147.58381636165882L141.99729559225065,138.1121982276554L147.79630885734377,186.2420317891766L153.5953221224369,129.0615478693882L159.39433538753002,171.85920657561675L165.19334865262317,148.2152575705924L170.9923619177163,174.38497141135102L176.79137518280945,144.63708375018828L182.59038844790257,162.10696416713077L188.3894017129957,157.96752088842L194.18841497808882,196.2047685402015L199.98742824318197,170.3858507245523L205.7864415082751,154.03855104290653L211.58545477336824,178.17361866495236L217.38446803846134,188.69764578362566L223.18348130355452,179.85746885855573L228.9824945686476,168.49152709775163L234.78150783374076,188.06620457469208L240.58052109883388,180.06794229175304L246.37953436392704,186.7331504061981L252.17854762902016,163.43999742628313L257.97756089411325,171.15761452539795L263.7765741592064,173.82370195304432L269.57558742429956,143.93549169996953L275.3746006893927,177.61234920664566L281.1736139544858,178.24379041557924L286.97262721957895,183.15499749513563L292.77164048467205,164.21176122712876L298.5706537497652,220.83097568861047L304.36966701485835,173.82370195304432L310.1686802799515,223.70753654945412L315.9676935450446,175.92849901304228L321.76670681013775,203.7119017514482L327.5657200752309,163.9311160433046L333.364733340324,187.4347633657585L339.16374660541715,176.70026281388792L344.96275987051024,188.62747403299878L350.7617731356034,193.8193262963794L356.56078640069654,146.95237515272527L362.3597996657897,193.88948759233537L368.1588129308828,186.1718809478914L373.95782619597594,206.65863436291875L379.75683946106903,191.99516396553474L385.5558527261622,202.58934192549316L391.35486599125534,244.12412866852543L397.1538792563485,152.14422741610585L402.9528925214415,170.17537729135503L408.75190578653473,188.27667800788936L414.5509190516279,190.59196941042632L420.34993231672104,202.86998710931738L426.1489455818141,209.6053565197184L431.9479588469072,205.32559064909555L437.7469721120004,186.80332215682492L443.54598537709353,209.88599124887173L449.3449986421866,231.42514319389812L455.1440119072798,211.1488736667389L460.9430251723729,199.29181328891332L466.7420384374661,198.2394147589143L472.5410517025592,189.1887644006471L478.3400649676523,223.14625663647658L484.1390782327455,178.80505987388594L489.93809149783857,213.60447720651712L495.7371047629317,192.90725035829243L501.5361180280249,249.03533574808185L507.335131293118,247.3514960091493L513.1341445582111,292.81524214302414L518.9331578233042,271.2760901979978L524.7321710883974,269.0309705460877L530.5311843534905,277.660658355954L536.3301976185836,228.19778630794508L542.1292108836768,270.4341651011961L547.9282241487699,270.01320778013064L553.727237413863,268.32936804119805L559.5262506789561,240.265320118968L565.3252639440493,267.27695905652826L571.1242772091424,279.76546064328744L576.9232904742355,224.2688164624316L582.7223037393287,279.62514327871077L588.5213170044218,248.3337332431922L594.320330269515,250.92965937488248L600.1193435346081,261.59399863079705L605.9183567997012,257.59486748932756L611.7173700647944,279.9759445311556L617.5163833298875,269.241443979285L623.3153965949806,264.96167810866217L629.1144098600738,260.54158964612725L634.9134231251669,238.30083519621127L640.71243639026,230.44290595985515L646.5114496553531,268.6801640663075L652.3104629204463,251.49093928786004L658.1094761855395,234.79283312643406L663.9084894506325,262.2955906810158L669.7075027157257,254.7884679244399L675.5065159808188,252.68366040977114L681.305529245912,231.84611096963437L687.1045425110051,255.49005997465872L692.9035557760982,251.0699819667946L698.7025690411914,245.24668849448045L704.5015823062845,222.79545015669632L710.3005955713776,262.4359132729279L716.0996088364708,246.7200548002157L721.8986221015639,227.14537732327526L727.697635366657,236.54683416132264L733.4966486317501,250.50870205381705L739.2956618968433,244.89589246937106L745.0946751619365,276.9590610783999L750.8936884270295,245.1765271985244L756.6927016921227,268.6801640663075L762.4917149572158,278.5727395213764L768.290728222309,255.0691026535933L774.0897414874021,280.7477031046658L779.8887547524952,271.1357676060857L785.6877680175884,258.29646999421715L791.4867812826815,254.50782274061578L797.2857945477747,289.7983586902684L803.0848078128678,278.01145960839887L808.8838210779608,275.1348987475552L814.6828343430541,276.32761986946633L820.4818476081471,264.11975301186044L826.2808608732402,255.34974783741745L832.0798741383335,275.20506004351125L837.8788874034265,244.19428996448144L843.6779006685196,247.2111734172372L849.4769139336128,246.64989350425967L855.2759271987059,278.71306211328846L861.0749404637991,239.00243770110083L866.8739537288922,273.5212098499079L872.6729669939853,243.2822035717237L878.4719802590785,280.88802569657787L884.2709935241716,257.59486748932756L890.0700067892647,256.96342628039395L895.8690200543579,287.55323381102295L901.668033319451,277.4501796954213L907.467046584544,234.09123062154444L913.2660598496373,279.9759445311556L919.0650731147304,257.1739101682621L924.8640863798236,265.1721619965303L930.6630996449167,263.4883118029269L936.4621129100098,261.1730308550608L942.261126175103,280.88802569657787L948.060139440196,257.5247061933715L953.8591527052891,253.0344564348805L959.6581659703821,259.5593524120843L965.4571792354755,210.72791634567346L971.2561925005684,274.784092267775L977.0552057656615,292.46444089057934L982.8542190307547,272.04785399884344L988.6532322958478,304.8126198854264L994.4522455609409,317.09063758431745L1000.2512588260341,312.2495918007171L1006.0502720911272,300.46269271884756L1011.8492853562203,305.37389979840395L1017.6482986213135,302.4973389375603L1023.4473118864066,295.27084568280236L1029.2463251514998,296.6740506925816L1035.045338416593,303.6198987635153L1040.844351681686,292.6047634824914L1046.6433649467792,322.98408973892L1052.4423782118722,298.9893316404477L1058.2413914769654,289.16691748133485L1064.0404047420586,321.58088734280847L1069.8394180071516,299.4102941888485L1075.6384312722448,316.599518967296L1081.437444537338,299.12965423235977L1087.236457802431,295.76196429982383L1093.0354710675242,322.2824872340303L1098.8344843326174,310.9165480868939L1104.6334975977104,314.14391542751775L1110.4325108628036,297.7966105185366L1116.2315241278968,281.7299455660442L1122.0305373929898,319.6164024200517L1127.829550658083,308.25046588658296L1133.6285639231762,319.405923759519L1139.4275771882692,318.5640038900527L1145.2265904533624,278.4324221567997L1151.0256037184556,310.4254294698724L1156.8246169835488,305.2335824338273L1162.6236302486418,308.25046588658296L1168.422643513735,299.48045025746916L1174.2216567788282,292.6047634824914L1180.0206700439212,318.9147999151621L1185.8196833090142,281.9404242265769L1191.6186965741076,318.42368129814065L1197.4177098392006,316.9503202197408L1203.2167231042936,315.8979164624064L1209.015736369387,289.2370787772909L1214.81474963448,283.90490914933366L1220.6137628995732,293.44668335195774L1226.4127761646662,304.11101738053685L1232.2117894297594,274.08248976288536L1238.0108026948526,293.02572080355685L1243.8098159599456,309.72382696498283L1249.6088292250388,294.35876451738005L1255.407842490132,327.54449556603157L1261.206855755225,292.6047634824914L1267.0058690203182,302.56749500618093L1272.8048822854114,295.9022868917359L1278.6038955505044,314.00359283560573L1284.4029088155976,330.63154031474335L1290.2019220806908,304.0408613119162L1296.0009353457838,309.72382696498283L1301.799948610877,309.58350960040616L1307.5989618759702,304.9529424773385L1313.3979751410632,336.4548285597221L1319.1969884061564,315.8979164624064L1324.9960016712496,283.6242691928449L1330.7950149363428,300.9538165632044L1336.5940282014358,307.3383847211607L1342.393041466529,293.44668335195774L1348.1920547316222,307.6891859736055L1353.9910679967152,302.2868550496922L1359.7900812618082,297.5159705620478L1365.5890945269016,315.4067978453849L1371.3881077919946,315.82775516645034L1377.1871210570876,286.5008300536885L1382.986134322181,310.2149508093397L1388.785147587274,291.0612411081355L1394.5841608523672,316.1084003502745L1400.3831741174602,314.6350340445393L1406.1821873825534,320.59864488143006L1411.9812006476466,298.6385303880029L1417.7802139127396,299.4102941888485L1423.5792271778328,306.0053410073375L1429.378240442926,307.61902467764946L1435.177253708019,308.53110584307177L1440.9762669731122,322.35264852998637L1446.7752802382054,339.75235458263427L1452.5742935032983,304.8827811813825L1458.3733067683916,293.51684464791373L1464.1723200334848,315.1963191848522L1469.9713332985777,308.32062718253906" style="fill: none;" fill="none"></path></g></g></g></g></g></g><g transform="translate(53, 376)" clip-path="url(#clip_1)"><clipPath id="clip_1"><rect width="1531" height="24"></rect></clipPath><g><g><line x1="8.619990495108595" y1="0" x2="8.619990495108595" y2="5" style="visibility: inherit;" fill="rgb(0, 0, 0)" stroke="rgb(204, 204, 204)" stroke-width="1px"></line><line x1="124.60025579697125" y1="0" x2="124.60025579697125" y2="5" style="visibility: inherit;" fill="rgb(0, 0, 0)" stroke="rgb(204, 204, 204)" stroke-width="1px"></line><line x1="240.58052109883388" y1="0" x2="240.58052109883388" y2="5" style="visibility: inherit;" fill="rgb(0, 0, 0)" stroke="rgb(204, 204, 204)" stroke-width="1px"></line><line x1="356.56078640069654" y1="0" x2="356.56078640069654" y2="5" style="visibility: inherit;" fill="rgb(0, 0, 0)" stroke="rgb(204, 204, 204)" stroke-width="1px"></line><line x1="472.5410517025592" y1="0" x2="472.5410517025592" y2="5" style="visibility: inherit;" fill="rgb(0, 0, 0)" stroke="rgb(204, 204, 204)" stroke-width="1px"></line><line x1="588.5213170044218" y1="0" x2="588.5213170044218" y2="5" style="visibility: inherit;" fill="rgb(0, 0, 0)" stroke="rgb(204, 204, 204)" stroke-width="1px"></line><line x1="704.5015823062845" y1="0" x2="704.5015823062845" y2="5" style="visibility: inherit;" fill="rgb(0, 0, 0)" stroke="rgb(204, 204, 204)" stroke-width="1px"></line><line x1="820.4818476081471" y1="0" x2="820.4818476081471" y2="5" style="visibility: inherit;" fill="rgb(0, 0, 0)" stroke="rgb(204, 204, 204)" stroke-width="1px"></line><line x1="936.4621129100098" y1="0" x2="936.4621129100098" y2="5" style="visibility: inherit;" fill="rgb(0, 0, 0)" stroke="rgb(204, 204, 204)" stroke-width="1px"></line><line x1="1052.4423782118722" y1="0" x2="1052.4423782118722" y2="5" style="visibility: inherit;" fill="rgb(0, 0, 0)" stroke="rgb(204, 204, 204)" stroke-width="1px"></line><line x1="1168.422643513735" y1="0" x2="1168.422643513735" y2="5" style="visibility: inherit;" fill="rgb(0, 0, 0)" stroke="rgb(204, 204, 204)" stroke-width="1px"></line><line x1="1284.4029088155976" y1="0" x2="1284.4029088155976" y2="5" style="visibility: inherit;" fill="rgb(0, 0, 0)" stroke="rgb(204, 204, 204)" stroke-width="1px"></line><line x1="1400.3831741174602" y1="0" x2="1400.3831741174602" y2="5" style="visibility: inherit;" fill="rgb(0, 0, 0)" stroke="rgb(204, 204, 204)" stroke-width="1px"></line><line x1="1516.363439419323" y1="0" x2="1516.363439419323" y2="5" style="visibility: inherit;" fill="rgb(0, 0, 0)" stroke="rgb(204, 204, 204)" stroke-width="1px"></line></g><g transform="translate(0, 8)"><text x="8.619990495108595" y="0" dx="0em" dy="0.95em" style="text-anchor: middle; visibility: inherit; font-family: Roboto, sans-serif; font-size: 12px; font-weight: 200;" fill="rgb(33, 33, 33)" stroke="none" stroke-width="1px">0</text><text x="124.60025579697125" y="0" dx="0em" dy="0.95em" style="text-anchor: middle; visibility: inherit; font-family: Roboto, sans-serif; font-size: 12px; font-weight: 200;" fill="rgb(33, 33, 33)" stroke="none" stroke-width="1px">2k</text><text x="240.58052109883388" y="0" dx="0em" dy="0.95em" style="text-anchor: middle; visibility: inherit; font-family: Roboto, sans-serif; font-size: 12px; font-weight: 200;" fill="rgb(33, 33, 33)" stroke="none" stroke-width="1px">4k</text><text x="356.56078640069654" y="0" dx="0em" dy="0.95em" style="text-anchor: middle; visibility: inherit; font-family: Roboto, sans-serif; font-size: 12px; font-weight: 200;" fill="rgb(33, 33, 33)" stroke="none" stroke-width="1px">6k</text><text x="472.5410517025592" y="0" dx="0em" dy="0.95em" style="text-anchor: middle; visibility: inherit; font-family: Roboto, sans-serif; font-size: 12px; font-weight: 200;" fill="rgb(33, 33, 33)" stroke="none" stroke-width="1px">8k</text><text x="588.5213170044218" y="0" dx="0em" dy="0.95em" style="text-anchor: middle; visibility: inherit; font-family: Roboto, sans-serif; font-size: 12px; font-weight: 200;" fill="rgb(33, 33, 33)" stroke="none" stroke-width="1px">10k</text><text x="704.5015823062845" y="0" dx="0em" dy="0.95em" style="text-anchor: middle; visibility: inherit; font-family: Roboto, sans-serif; font-size: 12px; font-weight: 200;" fill="rgb(33, 33, 33)" stroke="none" stroke-width="1px">12k</text><text x="820.4818476081471" y="0" dx="0em" dy="0.95em" style="text-anchor: middle; visibility: inherit; font-family: Roboto, sans-serif; font-size: 12px; font-weight: 200;" fill="rgb(33, 33, 33)" stroke="none" stroke-width="1px">14k</text><text x="936.4621129100098" y="0" dx="0em" dy="0.95em" style="text-anchor: middle; visibility: inherit; font-family: Roboto, sans-serif; font-size: 12px; font-weight: 200;" fill="rgb(33, 33, 33)" stroke="none" stroke-width="1px">16k</text><text x="1052.4423782118722" y="0" dx="0em" dy="0.95em" style="text-anchor: middle; visibility: inherit; font-family: Roboto, sans-serif; font-size: 12px; font-weight: 200;" fill="rgb(33, 33, 33)" stroke="none" stroke-width="1px">18k</text><text x="1168.422643513735" y="0" dx="0em" dy="0.95em" style="text-anchor: middle; visibility: inherit; font-family: Roboto, sans-serif; font-size: 12px; font-weight: 200;" fill="rgb(33, 33, 33)" stroke="none" stroke-width="1px">20k</text><text x="1284.4029088155976" y="0" dx="0em" dy="0.95em" style="text-anchor: middle; visibility: inherit; font-family: Roboto, sans-serif; font-size: 12px; font-weight: 200;" fill="rgb(33, 33, 33)" stroke="none" stroke-width="1px">22k</text><text x="1400.3831741174602" y="0" dx="0em" dy="0.95em" style="text-anchor: middle; visibility: inherit; font-family: Roboto, sans-serif; font-size: 12px; font-weight: 200;" fill="rgb(33, 33, 33)" stroke="none" stroke-width="1px">24k</text><text x="1516.363439419323" y="0" dx="0em" dy="0.95em" style="text-anchor: middle; visibility: inherit; font-family: Roboto, sans-serif; font-size: 12px; font-weight: 200;" fill="rgb(33, 33, 33)" stroke="none" stroke-width="1px">26k</text></g><line x1="0" y1="0" x2="1531.4125" y2="0" fill="rgb(0, 0, 0)" stroke="rgb(204, 204, 204)" stroke-width="1px"></line></g></g></g></g></svg>