<svg viewBox="0 0 977 400" xmlns="http://www.w3.org/2000/svg"><g><g><g><g><g><line x1="53.1875" y1="361.0697916748309" x2="48.1875" y2="361.0697916748309" style="visibility: inherit;" fill="rgb(0, 0, 0)" stroke="rgb(204, 204, 204)" stroke-width="1px"></line><line x1="53.1875" y1="327.544114830062" x2="48.1875" y2="327.544114830062" style="visibility: inherit;" fill="rgb(0, 0, 0)" stroke="rgb(204, 204, 204)" stroke-width="1px"></line><line x1="53.1875" y1="294.018437985293" x2="48.1875" y2="294.018437985293" style="visibility: inherit;" fill="rgb(0, 0, 0)" stroke="rgb(204, 204, 204)" stroke-width="1px"></line><line x1="53.1875" y1="260.49276114052407" x2="48.1875" y2="260.49276114052407" style="visibility: inherit;" fill="rgb(0, 0, 0)" stroke="rgb(204, 204, 204)" stroke-width="1px"></line><line x1="53.1875" y1="226.96708429575511" x2="48.1875" y2="226.96708429575511" style="visibility: inherit;" fill="rgb(0, 0, 0)" stroke="rgb(204, 204, 204)" stroke-width="1px"></line><line x1="53.1875" y1="193.44140745098616" x2="48.1875" y2="193.44140745098616" style="visibility: inherit;" fill="rgb(0, 0, 0)" stroke="rgb(204, 204, 204)" stroke-width="1px"></line><line x1="53.1875" y1="159.91573060621724" x2="48.1875" y2="159.91573060621724" style="visibility: inherit;" fill="rgb(0, 0, 0)" stroke="rgb(204, 204, 204)" stroke-width="1px"></line><line x1="53.1875" y1="126.39005376144829" x2="48.1875" y2="126.39005376144829" style="visibility: inherit;" fill="rgb(0, 0, 0)" stroke="rgb(204, 204, 204)" stroke-width="1px"></line><line x1="53.1875" y1="92.86437691667929" x2="48.1875" y2="92.86437691667929" style="visibility: inherit;" fill="rgb(0, 0, 0)" stroke="rgb(204, 204, 204)" stroke-width="1px"></line><line x1="53.1875" y1="59.33870007191034" x2="48.1875" y2="59.33870007191034" style="visibility: inherit;" fill="rgb(0, 0, 0)" stroke="rgb(204, 204, 204)" stroke-width="1px"></line><line x1="53.1875" y1="25.813023227141386" x2="48.1875" y2="25.813023227141386" style="visibility: inherit;" fill="rgb(0, 0, 0)" stroke="rgb(204, 204, 204)" stroke-width="1px"></line></g><g transform="translate(43.1875, 0)"><text x="0" y="361.0697916748309" dx="0em" dy="0.3em" style="text-anchor: end; visibility: inherit; font-family: Roboto, sans-serif; font-size: 12px; font-weight: 200;" fill="rgb(33, 33, 33)" stroke="none" stroke-width="1px">0</text><text x="0" y="327.544114830062" dx="0em" dy="0.3em" style="text-anchor: end; visibility: inherit; font-family: Roboto, sans-serif; font-size: 12px; font-weight: 200;" fill="rgb(33, 33, 33)" stroke="none" stroke-width="1px">0.05</text><text x="0" y="294.018437985293" dx="0em" dy="0.3em" style="text-anchor: end; visibility: inherit; font-family: Roboto, sans-serif; font-size: 12px; font-weight: 200;" fill="rgb(33, 33, 33)" stroke="none" stroke-width="1px">0.1</text><text x="0" y="260.49276114052407" dx="0em" dy="0.3em" style="text-anchor: end; visibility: inherit; font-family: Roboto, sans-serif; font-size: 12px; font-weight: 200;" fill="rgb(33, 33, 33)" stroke="none" stroke-width="1px">0.15</text><text x="0" y="226.96708429575511" dx="0em" dy="0.3em" style="text-anchor: end; visibility: inherit; font-family: Roboto, sans-serif; font-size: 12px; font-weight: 200;" fill="rgb(33, 33, 33)" stroke="none" stroke-width="1px">0.2</text><text x="0" y="193.44140745098616" dx="0em" dy="0.3em" style="text-anchor: end; visibility: inherit; font-family: Roboto, sans-serif; font-size: 12px; font-weight: 200;" fill="rgb(33, 33, 33)" stroke="none" stroke-width="1px">0.25</text><text x="0" y="159.91573060621724" dx="0em" dy="0.3em" style="text-anchor: end; visibility: inherit; font-family: Roboto, sans-serif; font-size: 12px; font-weight: 200;" fill="rgb(33, 33, 33)" stroke="none" stroke-width="1px">0.3</text><text x="0" y="126.39005376144829" dx="0em" dy="0.3em" style="text-anchor: end; visibility: inherit; font-family: Roboto, sans-serif; font-size: 12px; font-weight: 200;" fill="rgb(33, 33, 33)" stroke="none" stroke-width="1px">0.35</text><text x="0" y="92.86437691667929" dx="0em" dy="0.3em" style="text-anchor: end; visibility: inherit; font-family: Roboto, sans-serif; font-size: 12px; font-weight: 200;" fill="rgb(33, 33, 33)" stroke="none" stroke-width="1px">0.4</text><text x="0" y="59.33870007191034" dx="0em" dy="0.3em" style="text-anchor: end; visibility: inherit; font-family: Roboto, sans-serif; font-size: 12px; font-weight: 200;" fill="rgb(33, 33, 33)" stroke="none" stroke-width="1px">0.45</text><text x="0" y="25.813023227141386" dx="0em" dy="0.3em" style="text-anchor: end; visibility: inherit; font-family: Roboto, sans-serif; font-size: 12px; font-weight: 200;" fill="rgb(33, 33, 33)" stroke="none" stroke-width="1px">0.5</text></g><line x1="53.1875" y1="0" x2="53.1875" y2="376" fill="rgb(0, 0, 0)" stroke="rgb(204, 204, 204)" stroke-width="1px"></line></g></g><g transform="translate(53, 0)" clip-path="url(#clip_0)"><clipPath id="clip_0"><rect width="923" height="376"></rect></clipPath><g><g><g><line x1="15.983504745989137" y1="0" x2="15.983504745989137" y2="376" fill="rgb(0, 0, 0)" stroke="rgb(66, 66, 66)" stroke-width="1px" opacity="0.25"></line><line x1="83.83601742178293" y1="0" x2="83.83601742178293" y2="376" fill="rgb(0, 0, 0)" stroke="rgb(66, 66, 66)" stroke-width="1px" opacity="0.25"></line><line x1="151.68853009757674" y1="0" x2="151.68853009757674" y2="376" fill="rgb(0, 0, 0)" stroke="rgb(66, 66, 66)" stroke-width="1px" opacity="0.25"></line><line x1="219.54104277337052" y1="0" x2="219.54104277337052" y2="376" fill="rgb(0, 0, 0)" stroke="rgb(66, 66, 66)" stroke-width="1px" opacity="0.25"></line><line x1="287.3935554491643" y1="0" x2="287.3935554491643" y2="376" fill="rgb(0, 0, 0)" stroke="rgb(66, 66, 66)" stroke-width="1px" opacity="0.25"></line><line x1="355.2460681249581" y1="0" x2="355.2460681249581" y2="376" fill="rgb(0, 0, 0)" stroke="rgb(66, 66, 66)" stroke-width="1px" opacity="0.25"></line><line x1="423.0985808007519" y1="0" x2="423.0985808007519" y2="376" fill="rgb(0, 0, 0)" stroke="rgb(66, 66, 66)" stroke-width="1px" opacity="0.25"></line><line x1="490.9510934765457" y1="0" x2="490.9510934765457" y2="376" fill="rgb(0, 0, 0)" stroke="rgb(66, 66, 66)" stroke-width="1px" opacity="0.25"></line><line x1="558.8036061523394" y1="0" x2="558.8036061523394" y2="376" fill="rgb(0, 0, 0)" stroke="rgb(66, 66, 66)" stroke-width="1px" opacity="0.25"></line><line x1="626.6561188281332" y1="0" x2="626.6561188281332" y2="376" fill="rgb(0, 0, 0)" stroke="rgb(66, 66, 66)" stroke-width="1px" opacity="0.25"></line><line x1="694.508631503927" y1="0" x2="694.508631503927" y2="376" fill="rgb(0, 0, 0)" stroke="rgb(66, 66, 66)" stroke-width="1px" opacity="0.25"></line><line x1="762.3611441797208" y1="0" x2="762.3611441797208" y2="376" fill="rgb(0, 0, 0)" stroke="rgb(66, 66, 66)" stroke-width="1px" opacity="0.25"></line><line x1="830.2136568555145" y1="0" x2="830.2136568555145" y2="376" fill="rgb(0, 0, 0)" stroke="rgb(66, 66, 66)" stroke-width="1px" opacity="0.25"></line><line x1="898.0661695313083" y1="0" x2="898.0661695313083" y2="376" fill="rgb(0, 0, 0)" stroke="rgb(66, 66, 66)" stroke-width="1px" opacity="0.25"></line></g><g><line x1="0" y1="361.0697916748309" x2="923.8125" y2="361.0697916748309" fill="rgb(0, 0, 0)" stroke="rgb(66, 66, 66)" stroke-width="1px" opacity="0.25"></line><line x1="0" y1="327.544114830062" x2="923.8125" y2="327.544114830062" fill="rgb(0, 0, 0)" stroke="rgb(66, 66, 66)" stroke-width="1px" opacity="0.25"></line><line x1="0" y1="294.018437985293" x2="923.8125" y2="294.018437985293" fill="rgb(0, 0, 0)" stroke="rgb(66, 66, 66)" stroke-width="1px" opacity="0.25"></line><line x1="0" y1="260.49276114052407" x2="923.8125" y2="260.49276114052407" fill="rgb(0, 0, 0)" stroke="rgb(66, 66, 66)" stroke-width="1px" opacity="0.25"></line><line x1="0" y1="226.96708429575511" x2="923.8125" y2="226.96708429575511" fill="rgb(0, 0, 0)" stroke="rgb(66, 66, 66)" stroke-width="1px" opacity="0.25"></line><line x1="0" y1="193.44140745098616" x2="923.8125" y2="193.44140745098616" fill="rgb(0, 0, 0)" stroke="rgb(66, 66, 66)" stroke-width="1px" opacity="0.25"></line><line x1="0" y1="159.91573060621724" x2="923.8125" y2="159.91573060621724" fill="rgb(0, 0, 0)" stroke="rgb(66, 66, 66)" stroke-width="1px" opacity="0.25"></line><line x1="0" y1="126.39005376144829" x2="923.8125" y2="126.39005376144829" fill="rgb(0, 0, 0)" stroke="rgb(66, 66, 66)" stroke-width="1px" opacity="0.25"></line><line x1="0" y1="92.86437691667929" x2="923.8125" y2="92.86437691667929" fill="rgb(0, 0, 0)" stroke="rgb(66, 66, 66)" stroke-width="1px" opacity="0.25"></line><line x1="0" y1="59.33870007191034" x2="923.8125" y2="59.33870007191034" fill="rgb(0, 0, 0)" stroke="rgb(66, 66, 66)" stroke-width="1px" opacity="0.25"></line><line x1="0" y1="25.813023227141386" x2="923.8125" y2="25.813023227141386" fill="rgb(0, 0, 0)" stroke="rgb(66, 66, 66)" stroke-width="1px" opacity="0.25"></line></g></g></g><g><g><line x1="0" y1="361.0697916748309" x2="923.8125" y2="361.0697916748309" fill="rgb(0, 0, 0)" stroke="rgb(153, 153, 153)" stroke-width="1.5px"></line></g></g><g><g><line x1="15.983504745989137" y1="0" x2="15.983504745989137" y2="376" fill="rgb(0, 0, 0)" stroke="rgb(153, 153, 153)" stroke-width="1.5px"></line></g></g><g><g><g><g><g><path stroke="rgb(255, 112, 67)" stroke-width="2px" d="M19.376130379778825,17.364549528947034L22.768756013568517,70.25130077498082L26.161381647358205,68.07042005271853L29.554007281147896,81.06702958031036L32.94663291493758,95.08293224264067L36.33925854872727,96.54339658518883L39.731884182516964,107.58420830731829L43.12450981630665,125.98286321860101L46.51713545009634,104.66218398473347L49.90976108388603,105.12220935725914L53.30238671767572,123.51238422256452L56.69501235146541,122.54251977867992L60.08763798525511,122.82133231393662L63.48026361904479,127.76618794648998L66.87288925283447,130.2476231391965L70.26551488662417,142.60111791100746L73.65814052041385,138.2615989874143L77.05076615420354,144.16133703515578L80.44339178799324,146.68155241624416L83.83601742178293,136.84807529375345L87.22864305557262,142.4276651796716L90.6212686893623,140.14295350585544L94.013894323152,140.89098515503926L97.40651995694168,161.21391248169522L100.79914559073137,144.06585833345414L104.19177122452106,162.26051525844824L107.58439685831075,160.27659732866792L110.97702249210043,156.40419463352518L114.36964812589014,151.3718769584354L117.76227375967981,165.49081569495095L121.15489939346952,148.3753754810204L124.5475250272592,159.9916791797047L127.94015066104889,168.16838567889457L131.33277629483857,161.27337080499086L134.72540192862826,161.10580546215286L138.11802756241795,161.5684951796012L141.51065319620767,160.6928261768237L144.90327882999733,162.0716794960822L148.29590446378702,168.90679856896995L151.68853009757674,173.70519990024695L155.08115573136644,168.64536190801596L158.4737813651561,168.6669966501868L161.8664069989458,157.9249461412173L165.25903263273548,166.36511655131233L168.65165826652517,159.306328663923L172.04428390031487,161.93711887288833L175.43690953410456,166.22446958009775L178.82953516789425,179.71283732864418L182.22216080168394,169.2460408333593L185.61478643547363,179.54105838696424L189.0074120692633,166.99733379524L192.400037703053,187.3912797495941L195.7926633368427,174.89911312030193L199.1852889706324,178.90982437438782L202.57791460442206,172.35819050411132L205.97054023821175,177.14388584186548L209.36316587200145,175.77765769596158L212.75579150579114,175.70889269575045L216.14841713958083,185.34984920676098L219.54104277337052,173.48650382964632L222.9336684071602,185.70611062673694L226.3262940409499,187.459203561549L229.7189196747396,187.81372143293385L233.1115453085293,178.37104163668684L236.50417094231898,196.01248317598737L239.89679657610867,211.23730038727388L243.28942220989836,200.12268282700998L246.68204784368803,184.14718272338087L250.07467347747772,183.41265930197744L253.4672991112674,187.66554352438646L256.85992474505707,188.4471203283059L260.25255037884676,189.7743222799342L263.64517601263645,193.54772199446487L267.03780164642615,186.31728928387966L270.4304272802159,196.38166044283028L273.8230529140056,210.5737298826166L277.2156785477953,202.88936203960216L280.60830418158497,207.34408593845885L284.0009298153746,203.68727325042778L287.3935554491643,195.02943762940419L290.786181082954,210.5938310683511L294.1788067167437,192.52187734354837L297.57143235053337,194.33799916335676L300.96405798432306,191.8605398041314L304.35668361811275,217.38235103418734L307.74930925190245,227.78727552965063L311.14193488569214,240.92311016634395L314.53456051948183,241.16075912161367L317.9271861532715,244.97776093125947L321.3198117870612,248.34078185364265L324.7124374208509,238.82576217995103L328.1050630546406,240.4655792452761L331.4976886884303,244.61429499642972L334.89031432222,245.30654572553743L338.28293995600967,249.3963125960581L341.6755655897993,244.3136008769977L345.068191223589,251.32167530036335L348.4608168573787,242.894046895179L351.8534424911684,248.21701925613502L355.2460681249581,248.78238907733402L358.6386937587478,245.01806660235897L362.0313193925375,252.3880466375375L365.4239450263272,247.85197403592497L368.8165706601169,250.3066946792475L372.20919629390653,257.35820220525517L375.6018219276962,248.04473180483453L378.9944475614859,250.50281232705245L382.3870731952756,244.76293674827517L385.7796988290653,242.87460116321566L389.172324462855,249.25135065806634L392.5649500966447,242.40282399713178L395.95757573043437,239.8761227548364L399.35020136422406,253.46006668769118L402.74282699801375,256.3536058566547L406.13545263180345,246.31551216810576L409.52807826559314,239.2198321218085L412.92070389938283,245.18105152175045L416.3133295331725,251.25209577623033L419.7059551669622,249.1551252125579L423.0985808007519,238.75113927980192L426.4912064345416,250.82717590473968L429.88383206833123,250.29484107552395L433.2764577021209,239.30086382014954L436.6690833359106,234.0991452527854L440.0617089697003,232.56052886663227L443.45433460349,247.70286356439462L446.84696023727975,264.2175522424792L450.23958587106944,244.8651549486017L453.63221150485913,253.1277385156455L457.0248371386488,246.15014549302614L460.41746277243845,248.85646961886994L463.8100884062281,257.37314403379156L467.20271404001784,264.6287923525081L470.5953396738076,269.11628232459793L473.9879653075972,257.7279934718149L477.38059094138697,267.148267661432L480.7732165751766,277.4672074566809L484.16584220896635,257.18669840310906L487.558467842756,258.1872779467536L490.9510934765457,255.46187818463534L494.3437191103353,240.92595531329664L497.73634474412506,256.74519881534235L501.1289703779147,255.93765650067633L504.52159601170445,246.9241984237953L507.9142216454941,250.1791612431801L511.30684727928383,251.40798404639432L514.6994729130736,240.66608349560204L518.0920985468632,249.4281918253043L521.484724180653,248.51673177212695L524.8773498144426,254.94319466952302L528.2699754482323,252.20121942232362L531.662601082022,255.8128614647533L535.0552267158116,267.0183702993901L538.4478523496012,263.12074123329995L541.840477983391,245.54809413798185L545.2331036171806,249.9703695781631L548.6257292509704,265.68533783439983L552.01835488476,251.5390654110873L555.4109805185498,249.75643492811034L558.8036061523394,246.67531794599262L562.196231786129,250.11029194638564L565.5888574199188,254.98743291382883L568.9814830537085,252.28140435987993L572.3741086874982,256.4778473303303L575.7667343212879,236.57374056031477L579.1593599550775,249.38663569218747L582.5519855888673,262.921249873045L585.9446112226569,265.2487792742263L589.3372368564467,279.2777739707109L592.7298624902363,286.59552795823345L596.122488124026,297.0744444135725L599.5151137578156,302.7985613747056L602.9077393916053,304.838363765525L606.300365025395,301.85142084694877L609.6929906591847,306.57664709326684L613.0856162929745,296.511101825276L616.4782419267641,299.51029627537434L619.8708675605538,295.67749981101855L623.2634931943435,304.6960901922075L626.6561188281332,298.6012331892858L630.0487444619229,293.4960092106993L633.4413700957126,304.19181270774885L636.8339957295022,292.26404462675777L640.226621363292,295.7283181450353L643.6192469970816,295.7685205698979L647.0118726308714,298.3674136292172L650.404498264661,303.09157297848134L653.7971238984506,297.07528994897973L657.1897495322404,291.88310937358546L660.58237516603,293.62231928166034L663.9750007998198,289.8649669658806L667.3676264336094,297.10502811571644L670.7602520673992,299.0620361730488L674.1528777011888,301.4699868169624L677.5455033349785,303.3438851379488L680.9381289687682,292.7476489315864L684.3307546025579,295.2675048440294L687.7233802363476,290.6643353314693L691.1160058701373,302.6000903638704L694.508631503927,285.40849212772395L697.9012571377167,294.37750122184957L701.2938827715064,302.19957730186695L704.6865084052961,297.6397353733792L708.0791340390858,300.2411183952091L711.4717596728755,297.1351729268284L714.8643853066651,295.45935061591877L718.2570109404547,295.98262799437947L721.6496365742445,295.7601825048719L725.0422622080341,296.8604610206816L728.4348878418239,296.50144828625844L731.8275134756135,282.7953057222661L735.2201391094032,281.16947516779373L738.6127647431929,293.1482978435788L742.0053903769826,290.70701792888633L745.3980160107724,302.9743668687857L748.790641644562,294.48383666973325L752.1832672783518,288.55808167822556L755.5758929121414,294.2020742688462L758.9685185459311,299.9486774603013L762.3611441797208,303.66484533346636L765.7537698135105,305.3849551362679L769.1463954473002,302.5816826085464L772.5390210810898,307.0684441429122L775.9316467148794,295.54561524834867L779.3242723486692,306.1189102232687L782.7168979824588,314.84991484164675L786.1095236162486,304.96173193895515L789.5021492500383,304.7952403091871L792.894774883828,309.6839645654975L796.2874005176177,303.7127804875369L799.6800261514073,305.30643424505064L803.0726517851971,304.06334083882246L806.4652774189867,301.0645611399485L809.8579030527765,304.4148365294278L813.2505286865661,305.70084687469875L816.6431543203558,301.6715768195227L820.0357799541455,302.1506323417977L823.4284055879352,295.384263739401L826.8210312217249,299.12922037762775L830.2136568555145,306.87440451583257L833.6062824893042,307.7666395758123L836.9989081230939,304.41300220971095L840.3915337568836,286.8180871844931L843.7841593906733,288.3840203074685L847.176785024463,292.19337873943397L850.5694106582527,296.5441764802037L853.9620362920424,305.2965571818917L857.354661925832,316.31440271560837L860.7472875596218,307.12781046553306L864.1399131934114,300.2211873296274L867.5325388272012,310.45302423704237L870.9251644609908,310.852530264274" style="fill: none;" fill="none"></path></g></g></g></g><g opacity="0.2"><g><g><g><path stroke="rgb(255, 112, 67)" stroke-width="2px" d="M19.376130379778825,17.364549528947034L22.768756013568517,101.98335152260111L26.161381647358205,65.97677455934664L29.554007281147896,96.35104238475841L32.94663291493758,113.38209475857909L36.33925854872727,98.56374453809619L39.731884182516964,123.37274572295095L43.12450981630665,152.80827870633846L46.51713545009634,73.21832344351321L49.90976108388603,105.80529342226272L53.30238671767572,150.93084898801106L56.69501235146541,121.0930010723275L60.08763798525511,123.23864074551894L63.48026361904479,135.1737839083645L66.87288925283447,133.96685909433674L70.26551488662417,161.12264742710073L73.65814052041385,131.75415694099897L77.05076615420354,153.00944616391678L80.44339178799324,150.46149155842923L83.83601742178293,122.09875842877689L87.22864305557262,150.79674401057906L90.6212686893623,136.71596117454206L94.013894323152,142.01301786023492L97.40651995694168,191.69806272723025L100.79914559073137,118.34389899212218L104.19177122452106,189.55242305403883L107.58439685831075,157.3007255102997L110.97702249210043,150.5955965358613L114.36964812589014,143.82340508127658L117.76227375967981,186.66921599640145L121.15489939346952,122.70222083579077L124.5475250272592,177.41613241647548L127.94015066104889,180.43344445154491L131.33277629483857,150.93084898801106L134.72540192862826,160.85445745509725L138.11802756241795,162.26252974384275L141.51065319620767,159.37932268620543L144.90327882999733,164.13995946217014L148.29590446378702,179.15947714023142L151.68853009757674,180.90280188112675L155.08115573136644,161.05560492981502L158.4737813651561,168.6994487634171L161.8664069989458,141.81187038551715L165.25903263273548,179.02537216279936L168.65165826652517,148.71814683467335L172.04428390031487,165.88330418592608L175.43690953410456,172.65549564051076L178.82953516789425,199.94538895070679L182.22216080168394,153.54584609078438L185.61478643547363,194.98358471716375L189.0074120692633,148.18174690780575L192.400037703053,217.9821986809769L195.7926633368427,156.16086317641822L199.1852889706324,184.92589125550612L202.57791460442206,162.53073969870687L205.97054023821175,184.32242884849222L209.36316587200145,173.7283154771065L212.75579150579114,175.60574519543385L216.14841713958083,199.81128397327478L219.54104277337052,155.6914857639758L222.9336684071602,204.03552082237192L226.3262940409499,190.08884296376695L229.7189196747396,188.34549824001104L233.1115453085293,164.20702194231646L236.50417094231898,222.4746454849381L239.89679657610867,234.07452620420358L243.28942220989836,183.4507564866143L246.68204784368803,160.18393256793703L250.07467347747772,182.31087416987222L253.4672991112674,194.04486985800008L256.85992474505707,189.61948553418515L260.25255037884676,191.7651252073766L263.64517601263645,199.2078215662609L267.03780164642615,175.47164021800182L270.4304272802159,211.47821718125624L273.8230529140056,231.86183404229615L277.2156785477953,191.36281027508042L280.60830418158497,214.0261717867438L284.0009298153746,198.2020542183812L287.3935554491643,182.0426841978688L290.786181082954,233.94042122677158L294.1788067167437,165.4139467563442L297.57143235053337,197.06218189306946L300.96405798432306,188.14435076529327L304.35668361811275,255.66506787927122L307.74930925190245,243.39466227284558L311.14193488569214,260.626862121384L314.53456051948183,241.5172325545182L317.9271861532715,250.70326364572813L321.3198117870612,253.38531323721747L324.7124374208509,224.55323266941355L328.1050630546406,242.92530484326375L331.4976886884303,250.8373686231602L334.89031432222,246.34492181919893L338.28293995600967,255.53096290183922L341.6755655897993,236.68953329840716L345.068191223589,261.8337869354118L348.4608168573787,230.25260428740253L351.8534424911684,256.2014777975691L355.2460681249581,249.63044380913243L358.6386937587478,239.3715828898965L362.0313193925375,263.44301669030534L365.4239450263272,241.04786513350606L368.8165706601169,253.9887756442313L372.20919629390653,267.93546349426657L375.6018219276962,234.07452620420358L378.9944475614859,254.1899331103794L382.3870731952756,236.1531233801093L385.7796988290653,240.04209778562637L389.172324462855,258.8164749003424L392.5649500966447,232.13003400572993L395.95757573043437,236.08607089139332L399.35020136422406,273.8359825869734L402.74282699801375,260.6939146101L406.13545263180345,231.25837163528223L409.52807826559314,228.57631205236268L412.92070389938283,254.12288062166337L416.3133295331725,260.3586621579502L419.7059551669622,246.00966936704916L423.0985808007519,223.14516038066805L426.4912064345416,268.9412308421463L429.88383206833123,249.49633883170037L433.2764577021209,222.80989793708792L436.6690833359106,226.2965674017392L440.0617089697003,230.25260428740253L443.45433460349,270.41636561103815L446.84696023727975,288.9895852596061L450.23958587106944,215.83655900778544L453.63221150485913,265.52161386621106L457.0248371386488,235.68375595909717L460.41746277243845,252.9159558076356L463.8100884062281,270.148155656174L467.20271404001784,275.5122648305829L470.5953396738076,275.8475172827328L473.9879653075972,240.64556019264026L477.38059094138697,281.2786789458577L480.7732165751766,292.9456171495543L484.16584220896635,226.7659348227513L487.558467842756,259.68814726222035L490.9510934765457,251.37377854145805L494.3437191103353,219.12207100628862L497.73634474412506,280.4740640684109L501.1289703779147,254.72634302867726L504.52159601170445,233.40401130847368L507.9142216454941,255.06160547225736L511.30684727928383,253.25121825121573L514.6994729130736,224.55323266941355L518.0920985468632,262.5713543198577L521.484724180653,247.14954169236088L524.8773498144426,264.58288901561707L528.2699754482323,248.0882565515246L531.662601082022,261.2303245283979L535.0552267158116,283.82663355134525L538.4478523496012,257.2742976341648L541.840477983391,219.18912349500465L545.2331036171806,256.6037827384349L548.6257292509704,289.257790218755L552.01835488476,230.31965677611856L555.4109805185498,247.08248920364488L558.8036061523394,242.05364247281605L562.196231786129,255.26275294697513L565.5888574199188,262.3031443649936L568.9814830537085,248.2223615289566L572.3741086874982,262.77251178600574L575.7667343212879,206.71758040529153L579.1593599550775,268.6059783899965L582.5519855888673,283.22317114433133L585.9446112226569,268.74007337599824L589.3372368564467,300.32126601543774L592.7298624902363,297.5721589395173L596.122488124026,312.7928190965812L599.5151137578156,311.38473681640534L602.9077393916053,307.8980673517541L606.300365025395,297.37100646908436L609.6929906591847,313.664486462744L613.0856162929745,281.41278392328974L616.4782419267641,304.00908795052186L619.8708675605538,289.9283051144849L623.2634931943435,318.22397576399095L626.6561188281332,289.458947684903L630.0487444619229,285.8381732428198L633.4413700957126,320.2355179533231L636.8339957295022,274.3723925052712L640.226621363292,300.9247284224516L643.6192469970816,295.8288242071917L647.0118726308714,302.2657532181963L650.404498264661,310.1778120023776L653.7971238984506,288.05086540472723L657.1897495322404,284.0948385104941L660.58237516603,296.23113414377264L663.9750007998198,284.22893849221106L667.3676264336094,307.96511984047015L670.7602520673992,301.99754825904733L674.1528777011888,305.0819127828328L677.5455033349785,306.1547326194285L680.9381289687682,276.85329462204277L684.3307546025579,299.04728871269396L687.7233802363476,283.7595810626292L691.1160058701373,320.50372291247197L694.508631503927,259.6210947735043L697.9012571377167,307.8310148630381L701.2938827715064,313.9326914218929L704.6865084052961,290.79997248064774L708.0791340390858,304.1431929279539L711.4717596728755,292.47625472425733L714.8643853066651,292.9456171495543L718.2570109404547,296.76754406207044L721.6496365742445,295.42651427061065L725.0422622080341,298.51087879439615L728.4348878418239,295.9629291846237L731.8275134756135,262.2360918762776L735.2201391094032,278.7307293360853L738.6127647431929,311.1165318572564L742.0053903769826,287.04509805684756L745.3980160107724,321.3753902786348L748.790641644562,281.74804137115467L752.1832672783518,279.6694491909641L755.5758929121414,302.66806315477726L758.9685185459311,308.568582247484L762.3611441797208,309.23909714321394L765.7537698135105,307.96511984047015L769.1463954473002,298.3767738169641L772.5390210810898,313.79858644446085L775.9316467148794,278.2613719065034L779.3242723486692,321.9788526856487L782.7168979824588,327.9464217692139L786.1095236162486,290.1294575849178L789.5021492500383,304.5455028645349L792.894774883828,317.01705094996316L796.2874005176177,294.7560043705959L799.6800261514073,307.69691488132116L803.0726517851971,302.19870072948027L806.4652774189867,296.56639159163757L809.8579030527765,309.4402496136468L813.2505286865661,307.6298623926052L816.6431543203558,295.62767173675877L820.0357799541455,302.86921562521013L823.4284055879352,285.2347108358059L826.8210312217249,304.74665533496784L830.2136568555145,318.4921807231398L833.6062824893042,309.1049921657819L836.9989081230939,299.38254616055895L840.3915337568836,260.4257146466662L843.7841593906733,290.7329199919317L847.176785024463,297.9074163873822L850.5694106582527,303.0703730913582L853.9620362920424,318.4251282344238L857.354661925832,332.84117101618335L860.7472875596218,293.3479220904201L864.1399131934114,289.8612526257689L867.5325388272012,325.80077959816487L870.9251644609908,311.4517893051214" style="fill: none;" fill="none"></path></g></g></g></g></g></g><g transform="translate(53, 376)" clip-path="url(#clip_1)"><clipPath id="clip_1"><rect width="923" height="24"></rect></clipPath><g><g><line x1="15.983504745989137" y1="0" x2="15.983504745989137" y2="5" style="visibility: inherit;" fill="rgb(0, 0, 0)" stroke="rgb(204, 204, 204)" stroke-width="1px"></line><line x1="83.83601742178293" y1="0" x2="83.83601742178293" y2="5" style="visibility: inherit;" fill="rgb(0, 0, 0)" stroke="rgb(204, 204, 204)" stroke-width="1px"></line><line x1="151.68853009757674" y1="0" x2="151.68853009757674" y2="5" style="visibility: inherit;" fill="rgb(0, 0, 0)" stroke="rgb(204, 204, 204)" stroke-width="1px"></line><line x1="219.54104277337052" y1="0" x2="219.54104277337052" y2="5" style="visibility: inherit;" fill="rgb(0, 0, 0)" stroke="rgb(204, 204, 204)" stroke-width="1px"></line><line x1="287.3935554491643" y1="0" x2="287.3935554491643" y2="5" style="visibility: inherit;" fill="rgb(0, 0, 0)" stroke="rgb(204, 204, 204)" stroke-width="1px"></line><line x1="355.2460681249581" y1="0" x2="355.2460681249581" y2="5" style="visibility: inherit;" fill="rgb(0, 0, 0)" stroke="rgb(204, 204, 204)" stroke-width="1px"></line><line x1="423.0985808007519" y1="0" x2="423.0985808007519" y2="5" style="visibility: inherit;" fill="rgb(0, 0, 0)" stroke="rgb(204, 204, 204)" stroke-width="1px"></line><line x1="490.9510934765457" y1="0" x2="490.9510934765457" y2="5" style="visibility: inherit;" fill="rgb(0, 0, 0)" stroke="rgb(204, 204, 204)" stroke-width="1px"></line><line x1="558.8036061523394" y1="0" x2="558.8036061523394" y2="5" style="visibility: inherit;" fill="rgb(0, 0, 0)" stroke="rgb(204, 204, 204)" stroke-width="1px"></line><line x1="626.6561188281332" y1="0" x2="626.6561188281332" y2="5" style="visibility: inherit;" fill="rgb(0, 0, 0)" stroke="rgb(204, 204, 204)" stroke-width="1px"></line><line x1="694.508631503927" y1="0" x2="694.508631503927" y2="5" style="visibility: inherit;" fill="rgb(0, 0, 0)" stroke="rgb(204, 204, 204)" stroke-width="1px"></line><line x1="762.3611441797208" y1="0" x2="762.3611441797208" y2="5" style="visibility: inherit;" fill="rgb(0, 0, 0)" stroke="rgb(204, 204, 204)" stroke-width="1px"></line><line x1="830.2136568555145" y1="0" x2="830.2136568555145" y2="5" style="visibility: inherit;" fill="rgb(0, 0, 0)" stroke="rgb(204, 204, 204)" stroke-width="1px"></line><line x1="898.0661695313083" y1="0" x2="898.0661695313083" y2="5" style="visibility: inherit;" fill="rgb(0, 0, 0)" stroke="rgb(204, 204, 204)" stroke-width="1px"></line></g><g transform="translate(0, 8)"><text x="15.983504745989137" y="0" dx="0em" dy="0.95em" style="text-anchor: middle; visibility: inherit; font-family: Roboto, sans-serif; font-size: 12px; font-weight: 200;" fill="rgb(33, 33, 33)" stroke="none" stroke-width="1px">0</text><text x="83.83601742178293" y="0" dx="0em" dy="0.95em" style="text-anchor: middle; visibility: inherit; font-family: Roboto, sans-serif; font-size: 12px; font-weight: 200;" fill="rgb(33, 33, 33)" stroke="none" stroke-width="1px">2k</text><text x="151.68853009757674" y="0" dx="0em" dy="0.95em" style="text-anchor: middle; visibility: inherit; font-family: Roboto, sans-serif; font-size: 12px; font-weight: 200;" fill="rgb(33, 33, 33)" stroke="none" stroke-width="1px">4k</text><text x="219.54104277337052" y="0" dx="0em" dy="0.95em" style="text-anchor: middle; visibility: inherit; font-family: Roboto, sans-serif; font-size: 12px; font-weight: 200;" fill="rgb(33, 33, 33)" stroke="none" stroke-width="1px">6k</text><text x="287.3935554491643" y="0" dx="0em" dy="0.95em" style="text-anchor: middle; visibility: inherit; font-family: Roboto, sans-serif; font-size: 12px; font-weight: 200;" fill="rgb(33, 33, 33)" stroke="none" stroke-width="1px">8k</text><text x="355.2460681249581" y="0" dx="0em" dy="0.95em" style="text-anchor: middle; visibility: inherit; font-family: Roboto, sans-serif; font-size: 12px; font-weight: 200;" fill="rgb(33, 33, 33)" stroke="none" stroke-width="1px">10k</text><text x="423.0985808007519" y="0" dx="0em" dy="0.95em" style="text-anchor: middle; visibility: inherit; font-family: Roboto, sans-serif; font-size: 12px; font-weight: 200;" fill="rgb(33, 33, 33)" stroke="none" stroke-width="1px">12k</text><text x="490.9510934765457" y="0" dx="0em" dy="0.95em" style="text-anchor: middle; visibility: inherit; font-family: Roboto, sans-serif; font-size: 12px; font-weight: 200;" fill="rgb(33, 33, 33)" stroke="none" stroke-width="1px">14k</text><text x="558.8036061523394" y="0" dx="0em" dy="0.95em" style="text-anchor: middle; visibility: inherit; font-family: Roboto, sans-serif; font-size: 12px; font-weight: 200;" fill="rgb(33, 33, 33)" stroke="none" stroke-width="1px">16k</text><text x="626.6561188281332" y="0" dx="0em" dy="0.95em" style="text-anchor: middle; visibility: inherit; font-family: Roboto, sans-serif; font-size: 12px; font-weight: 200;" fill="rgb(33, 33, 33)" stroke="none" stroke-width="1px">18k</text><text x="694.508631503927" y="0" dx="0em" dy="0.95em" style="text-anchor: middle; visibility: inherit; font-family: Roboto, sans-serif; font-size: 12px; font-weight: 200;" fill="rgb(33, 33, 33)" stroke="none" stroke-width="1px">20k</text><text x="762.3611441797208" y="0" dx="0em" dy="0.95em" style="text-anchor: middle; visibility: inherit; font-family: Roboto, sans-serif; font-size: 12px; font-weight: 200;" fill="rgb(33, 33, 33)" stroke="none" stroke-width="1px">22k</text><text x="830.2136568555145" y="0" dx="0em" dy="0.95em" style="text-anchor: middle; visibility: inherit; font-family: Roboto, sans-serif; font-size: 12px; font-weight: 200;" fill="rgb(33, 33, 33)" stroke="none" stroke-width="1px">24k</text><text x="898.0661695313083" y="0" dx="0em" dy="0.95em" style="text-anchor: middle; visibility: inherit; font-family: Roboto, sans-serif; font-size: 12px; font-weight: 200;" fill="rgb(33, 33, 33)" stroke="none" stroke-width="1px">26k</text></g><line x1="0" y1="0" x2="923.8125" y2="0" fill="rgb(0, 0, 0)" stroke="rgb(204, 204, 204)" stroke-width="1px"></line></g></g></g></g></svg>