<svg viewBox="0 0 977 400" xmlns="http://www.w3.org/2000/svg"><g><g><g><g><g><line x1="42.390625" y1="372.3721769658472" x2="37.390625" y2="372.3721769658472" style="visibility: inherit;" fill="rgb(0, 0, 0)" stroke="rgb(204, 204, 204)" stroke-width="1px"></line><line x1="42.390625" y1="335.88834467621996" x2="37.390625" y2="335.88834467621996" style="visibility: inherit;" fill="rgb(0, 0, 0)" stroke="rgb(204, 204, 204)" stroke-width="1px"></line><line x1="42.390625" y1="299.40451238659267" x2="37.390625" y2="299.40451238659267" style="visibility: inherit;" fill="rgb(0, 0, 0)" stroke="rgb(204, 204, 204)" stroke-width="1px"></line><line x1="42.390625" y1="262.9206800969654" x2="37.390625" y2="262.9206800969654" style="visibility: inherit;" fill="rgb(0, 0, 0)" stroke="rgb(204, 204, 204)" stroke-width="1px"></line><line x1="42.390625" y1="226.4368478073381" x2="37.390625" y2="226.4368478073381" style="visibility: inherit;" fill="rgb(0, 0, 0)" stroke="rgb(204, 204, 204)" stroke-width="1px"></line><line x1="42.390625" y1="189.9530155177108" x2="37.390625" y2="189.9530155177108" style="visibility: inherit;" fill="rgb(0, 0, 0)" stroke="rgb(204, 204, 204)" stroke-width="1px"></line><line x1="42.390625" y1="153.46918322808352" x2="37.390625" y2="153.46918322808352" style="visibility: inherit;" fill="rgb(0, 0, 0)" stroke="rgb(204, 204, 204)" stroke-width="1px"></line><line x1="42.390625" y1="116.98535093845628" x2="37.390625" y2="116.98535093845628" style="visibility: inherit;" fill="rgb(0, 0, 0)" stroke="rgb(204, 204, 204)" stroke-width="1px"></line><line x1="42.390625" y1="80.50151864882895" x2="37.390625" y2="80.50151864882895" style="visibility: inherit;" fill="rgb(0, 0, 0)" stroke="rgb(204, 204, 204)" stroke-width="1px"></line><line x1="42.390625" y1="44.01768635920167" x2="37.390625" y2="44.01768635920167" style="visibility: inherit;" fill="rgb(0, 0, 0)" stroke="rgb(204, 204, 204)" stroke-width="1px"></line><line x1="42.390625" y1="7.533854069574383" x2="37.390625" y2="7.533854069574383" style="visibility: inherit;" fill="rgb(0, 0, 0)" stroke="rgb(204, 204, 204)" stroke-width="1px"></line></g><g transform="translate(32.390625, 0)"><text x="0" y="372.3721769658472" dx="0em" dy="0.3em" style="text-anchor: end; visibility: hidden; font-family: Roboto, sans-serif; font-size: 12px; font-weight: 200;" fill="rgb(33, 33, 33)" stroke="none" stroke-width="1px">0</text><text x="0" y="335.88834467621996" dx="0em" dy="0.3em" style="text-anchor: end; visibility: inherit; font-family: Roboto, sans-serif; font-size: 12px; font-weight: 200;" fill="rgb(33, 33, 33)" stroke="none" stroke-width="1px">0.1</text><text x="0" y="299.40451238659267" dx="0em" dy="0.3em" style="text-anchor: end; visibility: inherit; font-family: Roboto, sans-serif; font-size: 12px; font-weight: 200;" fill="rgb(33, 33, 33)" stroke="none" stroke-width="1px">0.2</text><text x="0" y="262.9206800969654" dx="0em" dy="0.3em" style="text-anchor: end; visibility: inherit; font-family: Roboto, sans-serif; font-size: 12px; font-weight: 200;" fill="rgb(33, 33, 33)" stroke="none" stroke-width="1px">0.3</text><text x="0" y="226.4368478073381" dx="0em" dy="0.3em" style="text-anchor: end; visibility: inherit; font-family: Roboto, sans-serif; font-size: 12px; font-weight: 200;" fill="rgb(33, 33, 33)" stroke="none" stroke-width="1px">0.4</text><text x="0" y="189.9530155177108" dx="0em" dy="0.3em" style="text-anchor: end; visibility: inherit; font-family: Roboto, sans-serif; font-size: 12px; font-weight: 200;" fill="rgb(33, 33, 33)" stroke="none" stroke-width="1px">0.5</text><text x="0" y="153.46918322808352" dx="0em" dy="0.3em" style="text-anchor: end; visibility: inherit; font-family: Roboto, sans-serif; font-size: 12px; font-weight: 200;" fill="rgb(33, 33, 33)" stroke="none" stroke-width="1px">0.6</text><text x="0" y="116.98535093845628" dx="0em" dy="0.3em" style="text-anchor: end; visibility: inherit; font-family: Roboto, sans-serif; font-size: 12px; font-weight: 200;" fill="rgb(33, 33, 33)" stroke="none" stroke-width="1px">0.7</text><text x="0" y="80.50151864882895" dx="0em" dy="0.3em" style="text-anchor: end; visibility: inherit; font-family: Roboto, sans-serif; font-size: 12px; font-weight: 200;" fill="rgb(33, 33, 33)" stroke="none" stroke-width="1px">0.8</text><text x="0" y="44.01768635920167" dx="0em" dy="0.3em" style="text-anchor: end; visibility: inherit; font-family: Roboto, sans-serif; font-size: 12px; font-weight: 200;" fill="rgb(33, 33, 33)" stroke="none" stroke-width="1px">0.9</text><text x="0" y="7.533854069574383" dx="0em" dy="0.3em" style="text-anchor: end; visibility: inherit; font-family: Roboto, sans-serif; font-size: 12px; font-weight: 200;" fill="rgb(33, 33, 33)" stroke="none" stroke-width="1px">1</text></g><line x1="42.390625" y1="0" x2="42.390625" y2="376" fill="rgb(0, 0, 0)" stroke="rgb(204, 204, 204)" stroke-width="1px"></line></g></g><g transform="translate(42, 0)" clip-path="url(#clip_0)"><clipPath id="clip_0"><rect width="934" height="376"></rect></clipPath><g><g><g><line x1="13.654845839407757" y1="0" x2="13.654845839407757" y2="376" fill="rgb(0, 0, 0)" stroke="rgb(66, 66, 66)" stroke-width="1px" opacity="0.25"></line><line x1="83.75809321855292" y1="0" x2="83.75809321855292" y2="376" fill="rgb(0, 0, 0)" stroke="rgb(66, 66, 66)" stroke-width="1px" opacity="0.25"></line><line x1="153.86134059769807" y1="0" x2="153.86134059769807" y2="376" fill="rgb(0, 0, 0)" stroke="rgb(66, 66, 66)" stroke-width="1px" opacity="0.25"></line><line x1="223.96458797684323" y1="0" x2="223.96458797684323" y2="376" fill="rgb(0, 0, 0)" stroke="rgb(66, 66, 66)" stroke-width="1px" opacity="0.25"></line><line x1="294.06783535598845" y1="0" x2="294.06783535598845" y2="376" fill="rgb(0, 0, 0)" stroke="rgb(66, 66, 66)" stroke-width="1px" opacity="0.25"></line><line x1="364.17108273513355" y1="0" x2="364.17108273513355" y2="376" fill="rgb(0, 0, 0)" stroke="rgb(66, 66, 66)" stroke-width="1px" opacity="0.25"></line><line x1="434.2743301142787" y1="0" x2="434.2743301142787" y2="376" fill="rgb(0, 0, 0)" stroke="rgb(66, 66, 66)" stroke-width="1px" opacity="0.25"></line><line x1="504.3775774934239" y1="0" x2="504.3775774934239" y2="376" fill="rgb(0, 0, 0)" stroke="rgb(66, 66, 66)" stroke-width="1px" opacity="0.25"></line><line x1="574.4808248725691" y1="0" x2="574.4808248725691" y2="376" fill="rgb(0, 0, 0)" stroke="rgb(66, 66, 66)" stroke-width="1px" opacity="0.25"></line><line x1="644.5840722517144" y1="0" x2="644.5840722517144" y2="376" fill="rgb(0, 0, 0)" stroke="rgb(66, 66, 66)" stroke-width="1px" opacity="0.25"></line><line x1="714.6873196308594" y1="0" x2="714.6873196308594" y2="376" fill="rgb(0, 0, 0)" stroke="rgb(66, 66, 66)" stroke-width="1px" opacity="0.25"></line><line x1="784.7905670100046" y1="0" x2="784.7905670100046" y2="376" fill="rgb(0, 0, 0)" stroke="rgb(66, 66, 66)" stroke-width="1px" opacity="0.25"></line><line x1="854.8938143891498" y1="0" x2="854.8938143891498" y2="376" fill="rgb(0, 0, 0)" stroke="rgb(66, 66, 66)" stroke-width="1px" opacity="0.25"></line><line x1="924.997061768295" y1="0" x2="924.997061768295" y2="376" fill="rgb(0, 0, 0)" stroke="rgb(66, 66, 66)" stroke-width="1px" opacity="0.25"></line></g><g><line x1="0" y1="372.3721769658472" x2="934.609375" y2="372.3721769658472" fill="rgb(0, 0, 0)" stroke="rgb(66, 66, 66)" stroke-width="1px" opacity="0.25"></line><line x1="0" y1="335.88834467621996" x2="934.609375" y2="335.88834467621996" fill="rgb(0, 0, 0)" stroke="rgb(66, 66, 66)" stroke-width="1px" opacity="0.25"></line><line x1="0" y1="299.40451238659267" x2="934.609375" y2="299.40451238659267" fill="rgb(0, 0, 0)" stroke="rgb(66, 66, 66)" stroke-width="1px" opacity="0.25"></line><line x1="0" y1="262.9206800969654" x2="934.609375" y2="262.9206800969654" fill="rgb(0, 0, 0)" stroke="rgb(66, 66, 66)" stroke-width="1px" opacity="0.25"></line><line x1="0" y1="226.4368478073381" x2="934.609375" y2="226.4368478073381" fill="rgb(0, 0, 0)" stroke="rgb(66, 66, 66)" stroke-width="1px" opacity="0.25"></line><line x1="0" y1="189.9530155177108" x2="934.609375" y2="189.9530155177108" fill="rgb(0, 0, 0)" stroke="rgb(66, 66, 66)" stroke-width="1px" opacity="0.25"></line><line x1="0" y1="153.46918322808352" x2="934.609375" y2="153.46918322808352" fill="rgb(0, 0, 0)" stroke="rgb(66, 66, 66)" stroke-width="1px" opacity="0.25"></line><line x1="0" y1="116.98535093845628" x2="934.609375" y2="116.98535093845628" fill="rgb(0, 0, 0)" stroke="rgb(66, 66, 66)" stroke-width="1px" opacity="0.25"></line><line x1="0" y1="80.50151864882895" x2="934.609375" y2="80.50151864882895" fill="rgb(0, 0, 0)" stroke="rgb(66, 66, 66)" stroke-width="1px" opacity="0.25"></line><line x1="0" y1="44.01768635920167" x2="934.609375" y2="44.01768635920167" fill="rgb(0, 0, 0)" stroke="rgb(66, 66, 66)" stroke-width="1px" opacity="0.25"></line><line x1="0" y1="7.533854069574383" x2="934.609375" y2="7.533854069574383" fill="rgb(0, 0, 0)" stroke="rgb(66, 66, 66)" stroke-width="1px" opacity="0.25"></line></g></g></g><g><g><line x1="0" y1="372.3721769658472" x2="934.609375" y2="372.3721769658472" fill="rgb(0, 0, 0)" stroke="rgb(153, 153, 153)" stroke-width="1.5px"></line></g></g><g><g><line x1="13.654845839407757" y1="0" x2="13.654845839407757" y2="376" fill="rgb(0, 0, 0)" stroke="rgb(153, 153, 153)" stroke-width="1.5px"></line></g></g><g><g><g><g><g><path stroke="rgb(255, 112, 67)" stroke-width="2px" d="M17.160008208365014,164.41433552449874L20.66517057732227,183.1581544100264L24.170332946279533,185.42537457701633L27.67549531523679,192.06717791623848L31.18065768419405,194.8824371339796L34.6858200531513,196.69831725113607L38.19098242210856,199.71003617102423L41.69614479106583,203.50193910673556L45.20130716002308,202.54806187582494L48.70646952898034,203.30586620861067L52.21163189793759,204.98921840041038L55.71679426689486,206.2697259769093L59.221956635852116,206.51752569089348L62.727119004809374,208.15944361612847L66.23228137376663,209.12196191308212L69.73744374272388,210.28350076720542L73.24260611168114,210.895189349165L76.7477684806384,211.32852616799005L80.25293084959566,212.80514550113062L83.75809321855292,213.28697139219423L87.26325558751017,213.85802428219955L90.76841795646743,214.41235384709097L94.27358032542469,215.18149777438325L97.77874269438195,216.04954140409956L101.2839050633392,216.18942231062556L104.78906743229646,216.977814186343L108.29422980125372,217.25195917768627L111.79939217021098,217.98460342055748L115.30455453916824,218.71009362388787L118.8097169081255,219.47481791096374L122.31487927708274,219.60004667838697L125.82004164604002,220.42376012227626L129.32520401499727,220.4830906821932L132.83036638395453,220.89673371806185L136.33552875291178,221.05454913186523L139.84069112186904,221.7604896283682L143.3458534908263,222.42023604474238L146.85101585978356,222.76359727489722L150.35617822874084,223.33055216289455L153.86134059769807,223.64037500530745L157.36650296665533,223.91420388653776L160.8716653356126,224.64045551622885L164.37682770456985,225.15530913785335L167.8819900735271,225.57474989024442L171.38715244248436,225.55538214988698L174.89231481144162,225.9205126865979L178.3974771803989,226.1231671080156L181.90263954935614,226.66673743024785L185.4078019183134,226.77632033328905L188.91296428727065,227.1282619002035L192.4181266562279,227.35418746528612L195.92328902518517,227.90894295415788L199.42845139414243,228.14535123096823L202.93361376309971,228.3736954427687L206.43877613205697,228.53717635222338L209.9439385010142,228.85083010281488L213.44910086997146,229.05343501258395L216.95426323892872,229.24387451554355L220.45942560788598,229.5774301342911L223.96458797684323,229.66191395212292L227.46975034580052,229.88597484201392L230.97491271475778,230.414590367374L234.48007508371504,230.66004470823304L237.98523745267227,230.79665360915445L241.49039982162952,230.9458617821361L244.9955621905868,231.37430997689992L248.50072455954404,231.37918703180452L252.00588692850133,231.5952641270484L255.51104929745856,231.74108390282544L259.0162116664158,232.05210476418577L262.52137403537307,232.42459263895128L266.02653640433033,232.54211309712386L269.53169877328764,232.702513866017L273.03686114224485,232.71594011506366L276.54202351120216,233.18927435148822L280.04718588015936,233.49368568402346L283.5523482491166,233.89548629894725L287.0575106180739,234.18929599353802L290.56267298703114,234.57311834385558L294.06783535598845,234.76330982760905L297.57299772494565,235.12830749904776L301.07816009390297,235.10550554512199L304.58332246286017,235.25952132291525L308.0884848318174,235.34016569946016L311.5936472007747,235.59343934508627L315.09880956973194,235.95587507194364L318.60397193868926,236.22857079577003L322.10913430764646,236.44138650288065L325.6142966766038,236.89308435296581L329.119459045561,237.25042386232687L332.6246214145183,237.58481188440192L336.1297837834755,237.80737412230576L339.63494615243275,238.02719996867134L343.14010852139006,238.15048536367624L346.64527089034726,238.47477731551817L350.1504332593046,238.70107821280513L353.6555956282618,239.17162068954335L357.1607579972191,239.3555906278824L360.6659203661763,239.7656490965633L364.17108273513355,240.00808780224494L367.6762451040908,240.28595868474252L371.18140747304807,240.69338141075693L374.6865698420054,240.82313104585054L378.1917322109626,241.18518743670063L381.6968945799199,241.5787558144498L385.2020569488771,241.72015062377602L388.7072193178344,242.098957378018L392.2123816867916,242.26306942867967L395.7175440557489,242.39203334891604L399.2227064247062,242.64257913353592L402.7278687936634,242.78343531187045L406.2330311626207,242.83951744868324L409.7381935315779,243.04170189003767L413.2433559005352,243.17501224388238L416.7485182694924,243.34393401762253L420.2536806384497,243.44368239580518L423.758843007407,243.56583350760192L427.2640053763642,243.7720788613723L430.7691677453215,244.00085695369282L434.2743301142787,243.94396413675543L437.779492483236,244.12735669096207L441.2846548521932,244.26519270730034L444.78981722115054,244.46096574145415L448.2949795901078,244.54069382078023L451.800141959065,244.72993839597206L455.3053043280223,245.06095144379137L458.8104666969795,245.4723573235235L462.31562906593683,245.56470223921954L465.82079143489403,245.76709938656958L469.32595380385135,246.02052308337082L472.8311161728086,246.15156796475242L476.33627854176586,246.45166515669092L479.84144091072307,246.53494589607388L483.3466032796803,246.73591116857762L486.85176564863764,246.7814253018215L490.3569280175949,247.15578481193515L493.8620903865521,247.42498012173957L497.36725275550936,247.469885059093L500.87241512446667,247.5751213572901L504.3775774934239,247.7768286047639L507.8827398623812,247.92492571202024L511.3879022313384,248.17699088609356L514.8930646002957,248.2711687802581L518.398226969253,248.31617973936778L521.9033893382102,248.45215627904062L525.4085517071675,248.49526229729412L528.9137140761247,248.66022091333937L532.418876445082,248.90644693051834L535.9240388140392,248.97075600729622L539.4292011829965,249.22977213317654L542.9343635519537,249.21032505427902L546.439525920911,249.37138501466302L549.9446882898683,249.64420618947827L553.4498506588255,249.76963106868521L556.9550130277828,249.8271468658814L560.46017539674,249.96168461544994L563.9653377656973,250.24057781041958L567.4705001346546,250.24021703215783L570.9756625036118,250.3353671970167L574.4808248725691,250.4621283944981L577.9859872415265,250.61673865774188L581.4911496104837,250.7287163272234L584.9963119794409,250.90283974069945L588.5014743483981,251.08013898611404L592.0066367173554,251.15626878911277L595.5117990863127,251.35736447982237L599.01696145527,251.59493178827313L602.5221238242272,251.73203916582324L606.0272861931844,251.99932512296425L609.5324485621417,252.15289283646942L613.037610931099,252.29189949322426L616.5427733000563,252.46897900241788L620.0479356690134,252.71103544671615L623.5530980379707,252.88750832312104L627.0582604069281,253.06309503412703L630.5634227758853,253.27464397620744L634.0685851448425,253.53819808758598L637.5737475137997,253.73951705139214L641.078909882757,253.92834551932066L644.5840722517144,254.07854332988364L648.0892346206716,254.2350063837319L651.5943969896288,254.40333304153532L655.099559358586,254.51006553524587L658.6047217275434,254.64102179037516L662.1098840965007,254.76991053796505L665.6150464654578,254.92598572353577L669.120208834415,255.17104378570178L672.6253712033723,255.35476021172946L676.1305335723297,255.49756370044895L679.6356959412869,255.5918637576078L683.1408583102441,255.77997672380445L686.6460206792013,255.92625287990978L690.1511830481587,256.1154712681788L693.656345417116,256.2985969449064L697.1615077860732,256.43928853710287L700.6666701550304,256.53961152258825L704.1718325239876,256.7835099418421L707.676994892945,256.890541937744L711.1821572619023,257.0823833909306L714.6873196308594,257.1872018809956L718.1924819998167,257.2787572442715L721.6976443687739,257.43021359155745L725.2028067377313,257.52538878916016L728.7079691066886,257.79629544441616L732.2131314756457,257.97837525635737L735.718293844603,258.0695532444518L739.2234562135603,258.2166018724274L742.7286185825176,258.3591245190347L746.2337809514748,258.4500064423082L749.738943320432,258.58468570309077L753.2441056893892,258.637950637621L756.7492680583466,258.7867307975877L760.2544304273039,258.95007623845254L763.759592796261,259.12381476074864L767.2647551652183,259.26388548713527L770.7699175341756,259.35891537416256L774.2750799031329,259.5708418003331L777.7802422720902,259.64136916825817L781.2854046410473,259.70346237247287L784.7905670100046,259.92232193080775L788.2957293789619,260.04944178005985L791.8008917479192,260.1360289017291L795.3060541168763,260.1762256465054L798.8112164858336,260.3220021648637L802.316378854791,260.54376238867985L805.8215412237482,260.7073042228549L809.3267035927055,260.63882712701707L812.8318659616626,260.66164116060617L816.3370283306199,260.7341444336782L819.8421906995773,260.761820267227L823.3473530685345,260.8834917606311L826.8525154374918,261.03457957514553L830.3576778064489,261.07523187139157L833.8628401754062,261.2240790683961L837.3680025443635,261.42424060524144L840.8731649133208,261.5666658851816L844.378327282278,261.58828851960584L847.8834896512352,261.8027445728711L851.3886520201926,261.8996054523352L854.8938143891498,261.933443669659L858.3989767581071,262.0703619837206L861.9041391270642,262.18493558618076L865.4093014960215,262.287573710629L868.9144638649789,262.39947236265124L872.4196262339361,262.42687590283055L875.9247886028934,262.59435613071196L879.4299509718505,262.71731717302663L882.9351133408079,262.8993859487237L886.4402757097652,262.9865074732307L889.9454380787224,263.1293119008346L893.4506004476796,263.2721225380227L896.9557628166368,263.3556759593889" style="fill: none;" fill="none"></path></g></g></g></g><g opacity="0.2"><g><g><g><path stroke="rgb(255, 112, 67)" stroke-width="2px" d="M17.160008208365014,164.41433552449874L20.66517057732227,201.88322947667385L24.170332946279533,189.9530155177108L27.67549531523679,211.95276367444794L31.18065768419405,206.115349551281L34.6858200531513,205.75051592553336L38.19098242210856,217.71720889785948L41.69614479106583,229.93929845584412L45.20130716002308,194.95130360323478L48.70646952898034,210.09209478628821L52.21163189793759,221.73043314622976L55.71679426689486,220.2710768971807L59.221956635852116,209.47186457488212L62.727119004809374,229.35555813083033L66.23228137376663,222.49659028411736L69.73744374272388,227.5678472693967L73.24260611168114,220.59943150956525L76.7477684806384,218.62930383525784L80.25293084959566,239.13321672958284L83.75809321855292,222.35066335763585L87.26325558751017,225.15991706958627L90.76841795646743,225.92607420747385L94.27358032542469,231.90942613015156L97.77874269438195,235.77671257901105L101.2839050633392,219.50491975929313L104.78906743229646,236.43342180378022L108.29422980125372,224.28430114555096L111.79939217021098,237.49144366766L115.30455453916824,238.7319040904722L118.8097169081255,241.32225110315647L122.31487927708274,223.2992373083972L125.82004164604002,245.55437117776358L129.32520401499727,222.35066335763585L132.83036638395453,234.317356329962L136.33552875291178,226.32739771961383L139.84069112186904,246.02866358965892L143.3458534908263,245.73679886366668L146.85101585978356,235.22945126736033L150.35617822874084,244.45985942749144L153.86134059769807,235.48483697998952L157.36650296665533,234.64571094234654L160.8716653356126,253.79972637377026L164.37682770456985,246.32053918868047L167.8819900735271,243.2194098777085L171.38715244248436,224.72210367105396L174.89231481144162,241.97896032792562L178.3974771803989,235.22945126736033L181.90263954935614,251.6106920001967L185.4078019183134,231.90942613015156L188.91296428727065,243.94908800223305L192.4181266562279,238.36705959169532L195.92328902518517,255.47797844905617L199.42845139414243,240.1182805667366L202.93361376309971,240.15477045312892L206.43877613205697,237.1266100419124L209.9439385010142,245.62734007751894L213.44910086997146,240.08180155337354L216.95426323892872,239.78992595435201L220.45942560788598,248.36363576274326L223.96458797684323,234.4997731428358L227.46975034580052,242.92754515171632L230.97491271475778,261.68022619797074L234.48007508371504,245.4084442512821L237.98523745267227,239.13321672958284L241.49039982162952,240.19124946649194L244.9955621905868,258.3237220473989L248.50072455954404,231.6905194308854L252.00588692850133,245.59086106415594L255.51104929745856,241.32225110315647L259.0162116664158,252.7781726502242L262.52137403537307,257.5940439228744L266.02653640433033,240.59257297863192L269.53169877328764,243.83964008911462L273.03686114224485,233.66064710519282L276.54202351120216,266.9338999961239L280.04718588015936,255.47797844905617L283.5523482491166,263.28552024653055L287.0575106180739,255.9522708609515L290.56267298703114,263.35848914628593L294.06783535598845,249.20276180038627L297.57299772494565,263.17607233341215L301.07816009390297,233.3322924928083L304.58332246286017,247.37857192558954L308.0884848318174,241.76005362865948L311.5936472007747,255.98874987431455L315.09880956973194,265.47454374707485L318.60397193868926,258.6885556731465L322.10913430764646,254.16455999951788L325.6142966766038,274.9238586064721L329.119459045561,267.6635781206484L332.6246214145183,266.35015967111013L336.1297837834755,257.1562305243421L339.63494615243275,257.3386582102452L343.14010852139006,249.09330301423847L346.64527089034726,267.55413020753L350.1504332593046,259.19932709840486L353.6555956282618,282.2206289786881L357.1607579972191,256.3535943730915L360.6659203661763,278.02498791744404L364.17108273513355,262.84771772102755L367.6762451040908,266.71499329685776L371.18140747304807,279.8126987788777L374.6865698420054,253.39840286163027L378.1917322109626,276.60212155478735L381.6968945799199,280.4329181172545L385.2020569488771,255.8063330614407L388.7072193178344,280.17753240462525L392.2123816867916,258.9074623724126L395.7175440557489,255.58742636217457L399.2227064247062,268.5027041582914L402.7278687936634,257.44810612336363L406.2330311626207,248.7284693884909L409.7381935315779,264.4530008965581L413.2433559005352,257.41161623697127L416.7485182694924,261.53429927148926L420.2536806384497,254.27400791263628L423.758843007407,256.93733469810525L427.2640053763642,266.532576483984L430.7691677453215,269.4512889820821L434.2743301142787,237.56441256741536L437.779492483236,264.854324408698L441.2846548521932,259.9654951093218L444.78981722115054,266.9338999961239L448.2949795901078,253.76323648737792L451.800141959065,266.78796219661314L455.3053043280223,283.9353655038517L458.8104666969795,294.1508429376512L462.31562906593683,256.5724901993283L465.82079143489403,270.07150832045886L469.32595380385135,276.6750795815134L472.8311161728086,262.118039596503L476.33627854176586,283.27865627908255L479.84144091072307,256.8278759119575L483.3466032796803,271.7497712687741L486.85176564863764,252.48630792423197L490.3569280175949,294.4062286502804L493.8620903865521,281.63688865367436L497.36725275550936,253.2159860487565L500.87241512446667,261.1329757593493L504.3775774934239,273.9387947693184L507.8827398623812,267.26225460850844L511.3879022313384,281.30853404128976L514.8930646002957,260.73165224720935L518.398226969253,254.31049779902864L521.9033893382102,266.67851428349474L525.4085517071675,254.31049779902864L528.9137140761247,271.0565721576126L532.418876445082,282.54898359107267L535.9240388140392,257.81293974911125L539.4292011829965,285.0663671405162L542.9343635519537,246.50295600155425L546.439525920911,271.9321880816479L549.9446882898683,288.09452211521807L553.4498506588255,267.55413020753L556.9550130277828,258.0318464483774L560.46017539674,269.26887216920824L563.9653377656973,290.50245775154315L567.4705001346546,250.18782563753996L570.9756625036118,264.2340941972919L574.4808248725691,269.0864444833052L577.9859872415265,273.46450235742304L581.4911496104837,267.3717025216269L584.9963119794409,276.9304761671719L588.5014743483981,277.73311231842246L592.0066367173554,262.6652900351245L595.5117990863127,281.9287588161812L599.01696145527,287.9121053023443L602.5221238242272,272.8078040056832L606.0272861931844,293.31171146349357L609.5324485621417,276.0183812297735L613.037610931099,274.01176366907373L616.5427733000563,280.2869803177437L620.0479356690134,290.9402657135608L623.5530980379707,280.90721052914984L627.0582604069281,281.0896273420236L630.5634227758853,287.2189116276974L634.0685851448425,296.04800171220325L637.5737475137997,286.3797855900545L641.078909882757,284.7015280782539L644.5840722517144,278.6816971422132L648.0892346206716,279.99511559175147L651.5943969896288,282.2571134285658L655.099559358586,272.2605426940325L658.6047217275434,276.5291526550319L662.1098840965007,276.41969386888417L665.6150464654578,281.2720495914121L669.120208834415,296.7411899503354L672.6253712033723,286.6716557525614L676.1305335723297,279.9586257053591L679.6356959412869,271.8227401685295L683.1408583102441,288.3134288144842L686.6460206792013,281.3450130546528L690.1511830481587,289.1525548521272L693.656345417116,288.4228767276026L697.1615077860732,281.2355651415344L700.6666701550304,274.30363926809525L704.1718325239876,300.17067387369195L707.676994892945,276.0183812297735L711.1821572619023,291.5240060385746L714.6873196308594,276.0913392564996L718.1924819998167,273.86582586956297L721.6976443687739,284.9933982407608L725.2028067377313,274.9238586064721L728.7079691066886,307.54040770914867L732.2131314756457,291.5604904884523L735.718293844603,274.96034849286445L739.2234562135603,285.5771385657746L742.7286185825176,284.9933982407608L746.2337809514748,275.5075989314858L749.738943320432,283.97184995372936L753.2441056893892,268.72161085755755L756.7492680583466,287.0729792647013L760.2544304273039,290.1376186892809L763.759592796261,292.4361009759729L767.2647551652183,286.2338477905437L770.7699175341756,277.73311231842246L774.2750799031329,300.717929748828L777.7802422720902,273.39154433069695L781.2854046410473,271.8592191818925L784.7905670100046,302.94344313576465L788.2957293789619,285.1393360402716L791.8008917479192,277.2953097929195L795.3060541168763,268.1743495459068L798.8112164858336,289.4444250146341L802.316378854791,305.02302415970513L805.8215412237482,293.64006607587817L809.3267035927055,246.79483160057583L812.8318659616626,265.29212693420106L816.3370283306199,275.5075989314858L819.8421906995773,266.4231285708655L823.3473530685345,285.8690087282814L826.8525154374918,292.18071526334376L830.3576778064489,269.4877679954451L833.8628401754062,292.14423081346604L837.3680025443635,303.16234439851615L840.8731649133208,291.37806823906385L844.378327282278,266.13125297184394L847.8834896512352,307.02963084737564L851.3886520201926,282.4030457915619L854.8938143891498,269.12293436969753L858.3989767581071,291.2686203259454L861.9041391270642,286.70814020243904L865.4093014960215,284.3366890159916L868.9144638649789,286.5257179530506L872.4196262339361,268.3567663587806L875.9247886028934,298.9667087737867L879.4299509718505,289.51739391438946L882.9351133408079,302.7245418730131L886.4402757097652,282.111175629055L889.9454380787224,294.5886454631542L893.4506004476796,294.84403117578336L896.9557628166368,281.8922743663035" style="fill: none;" fill="none"></path></g></g></g></g></g></g><g transform="translate(42, 376)" clip-path="url(#clip_1)"><clipPath id="clip_1"><rect width="934" height="24"></rect></clipPath><g><g><line x1="13.654845839407757" y1="0" x2="13.654845839407757" y2="5" style="visibility: inherit;" fill="rgb(0, 0, 0)" stroke="rgb(204, 204, 204)" stroke-width="1px"></line><line x1="83.75809321855292" y1="0" x2="83.75809321855292" y2="5" style="visibility: inherit;" fill="rgb(0, 0, 0)" stroke="rgb(204, 204, 204)" stroke-width="1px"></line><line x1="153.86134059769807" y1="0" x2="153.86134059769807" y2="5" style="visibility: inherit;" fill="rgb(0, 0, 0)" stroke="rgb(204, 204, 204)" stroke-width="1px"></line><line x1="223.96458797684323" y1="0" x2="223.96458797684323" y2="5" style="visibility: inherit;" fill="rgb(0, 0, 0)" stroke="rgb(204, 204, 204)" stroke-width="1px"></line><line x1="294.06783535598845" y1="0" x2="294.06783535598845" y2="5" style="visibility: inherit;" fill="rgb(0, 0, 0)" stroke="rgb(204, 204, 204)" stroke-width="1px"></line><line x1="364.17108273513355" y1="0" x2="364.17108273513355" y2="5" style="visibility: inherit;" fill="rgb(0, 0, 0)" stroke="rgb(204, 204, 204)" stroke-width="1px"></line><line x1="434.2743301142787" y1="0" x2="434.2743301142787" y2="5" style="visibility: inherit;" fill="rgb(0, 0, 0)" stroke="rgb(204, 204, 204)" stroke-width="1px"></line><line x1="504.3775774934239" y1="0" x2="504.3775774934239" y2="5" style="visibility: inherit;" fill="rgb(0, 0, 0)" stroke="rgb(204, 204, 204)" stroke-width="1px"></line><line x1="574.4808248725691" y1="0" x2="574.4808248725691" y2="5" style="visibility: inherit;" fill="rgb(0, 0, 0)" stroke="rgb(204, 204, 204)" stroke-width="1px"></line><line x1="644.5840722517144" y1="0" x2="644.5840722517144" y2="5" style="visibility: inherit;" fill="rgb(0, 0, 0)" stroke="rgb(204, 204, 204)" stroke-width="1px"></line><line x1="714.6873196308594" y1="0" x2="714.6873196308594" y2="5" style="visibility: inherit;" fill="rgb(0, 0, 0)" stroke="rgb(204, 204, 204)" stroke-width="1px"></line><line x1="784.7905670100046" y1="0" x2="784.7905670100046" y2="5" style="visibility: inherit;" fill="rgb(0, 0, 0)" stroke="rgb(204, 204, 204)" stroke-width="1px"></line><line x1="854.8938143891498" y1="0" x2="854.8938143891498" y2="5" style="visibility: inherit;" fill="rgb(0, 0, 0)" stroke="rgb(204, 204, 204)" stroke-width="1px"></line><line x1="924.997061768295" y1="0" x2="924.997061768295" y2="5" style="visibility: inherit;" fill="rgb(0, 0, 0)" stroke="rgb(204, 204, 204)" stroke-width="1px"></line></g><g transform="translate(0, 8)"><text x="13.654845839407757" y="0" dx="0em" dy="0.95em" style="text-anchor: middle; visibility: inherit; font-family: Roboto, sans-serif; font-size: 12px; font-weight: 200;" fill="rgb(33, 33, 33)" stroke="none" stroke-width="1px">0</text><text x="83.75809321855292" y="0" dx="0em" dy="0.95em" style="text-anchor: middle; visibility: inherit; font-family: Roboto, sans-serif; font-size: 12px; font-weight: 200;" fill="rgb(33, 33, 33)" stroke="none" stroke-width="1px">2k</text><text x="153.86134059769807" y="0" dx="0em" dy="0.95em" style="text-anchor: middle; visibility: inherit; font-family: Roboto, sans-serif; font-size: 12px; font-weight: 200;" fill="rgb(33, 33, 33)" stroke="none" stroke-width="1px">4k</text><text x="223.96458797684323" y="0" dx="0em" dy="0.95em" style="text-anchor: middle; visibility: inherit; font-family: Roboto, sans-serif; font-size: 12px; font-weight: 200;" fill="rgb(33, 33, 33)" stroke="none" stroke-width="1px">6k</text><text x="294.06783535598845" y="0" dx="0em" dy="0.95em" style="text-anchor: middle; visibility: inherit; font-family: Roboto, sans-serif; font-size: 12px; font-weight: 200;" fill="rgb(33, 33, 33)" stroke="none" stroke-width="1px">8k</text><text x="364.17108273513355" y="0" dx="0em" dy="0.95em" style="text-anchor: middle; visibility: inherit; font-family: Roboto, sans-serif; font-size: 12px; font-weight: 200;" fill="rgb(33, 33, 33)" stroke="none" stroke-width="1px">10k</text><text x="434.2743301142787" y="0" dx="0em" dy="0.95em" style="text-anchor: middle; visibility: inherit; font-family: Roboto, sans-serif; font-size: 12px; font-weight: 200;" fill="rgb(33, 33, 33)" stroke="none" stroke-width="1px">12k</text><text x="504.3775774934239" y="0" dx="0em" dy="0.95em" style="text-anchor: middle; visibility: inherit; font-family: Roboto, sans-serif; font-size: 12px; font-weight: 200;" fill="rgb(33, 33, 33)" stroke="none" stroke-width="1px">14k</text><text x="574.4808248725691" y="0" dx="0em" dy="0.95em" style="text-anchor: middle; visibility: inherit; font-family: Roboto, sans-serif; font-size: 12px; font-weight: 200;" fill="rgb(33, 33, 33)" stroke="none" stroke-width="1px">16k</text><text x="644.5840722517144" y="0" dx="0em" dy="0.95em" style="text-anchor: middle; visibility: inherit; font-family: Roboto, sans-serif; font-size: 12px; font-weight: 200;" fill="rgb(33, 33, 33)" stroke="none" stroke-width="1px">18k</text><text x="714.6873196308594" y="0" dx="0em" dy="0.95em" style="text-anchor: middle; visibility: inherit; font-family: Roboto, sans-serif; font-size: 12px; font-weight: 200;" fill="rgb(33, 33, 33)" stroke="none" stroke-width="1px">20k</text><text x="784.7905670100046" y="0" dx="0em" dy="0.95em" style="text-anchor: middle; visibility: inherit; font-family: Roboto, sans-serif; font-size: 12px; font-weight: 200;" fill="rgb(33, 33, 33)" stroke="none" stroke-width="1px">22k</text><text x="854.8938143891498" y="0" dx="0em" dy="0.95em" style="text-anchor: middle; visibility: inherit; font-family: Roboto, sans-serif; font-size: 12px; font-weight: 200;" fill="rgb(33, 33, 33)" stroke="none" stroke-width="1px">24k</text><text x="924.997061768295" y="0" dx="0em" dy="0.95em" style="text-anchor: middle; visibility: inherit; font-family: Roboto, sans-serif; font-size: 12px; font-weight: 200;" fill="rgb(33, 33, 33)" stroke="none" stroke-width="1px">26k</text></g><line x1="0" y1="0" x2="934.609375" y2="0" fill="rgb(0, 0, 0)" stroke="rgb(204, 204, 204)" stroke-width="1px"></line></g></g></g></g></svg>