<svg viewBox="0 0 977 400" xmlns="http://www.w3.org/2000/svg"><g><g><g><g><g><line x1="53.1875" y1="374.1700326513806" x2="48.1875" y2="374.1700326513806" style="visibility: inherit;" fill="rgb(0, 0, 0)" stroke="rgb(204, 204, 204)" stroke-width="1px"></line><line x1="53.1875" y1="323.7966799121749" x2="48.1875" y2="323.7966799121749" style="visibility: inherit;" fill="rgb(0, 0, 0)" stroke="rgb(204, 204, 204)" stroke-width="1px"></line><line x1="53.1875" y1="273.42332717296915" x2="48.1875" y2="273.42332717296915" style="visibility: inherit;" fill="rgb(0, 0, 0)" stroke="rgb(204, 204, 204)" stroke-width="1px"></line><line x1="53.1875" y1="223.04997443376342" x2="48.1875" y2="223.04997443376342" style="visibility: inherit;" fill="rgb(0, 0, 0)" stroke="rgb(204, 204, 204)" stroke-width="1px"></line><line x1="53.1875" y1="172.67662169455767" x2="48.1875" y2="172.67662169455767" style="visibility: inherit;" fill="rgb(0, 0, 0)" stroke="rgb(204, 204, 204)" stroke-width="1px"></line><line x1="53.1875" y1="122.30326895535191" x2="48.1875" y2="122.30326895535191" style="visibility: inherit;" fill="rgb(0, 0, 0)" stroke="rgb(204, 204, 204)" stroke-width="1px"></line><line x1="53.1875" y1="71.92991621614617" x2="48.1875" y2="71.92991621614617" style="visibility: inherit;" fill="rgb(0, 0, 0)" stroke="rgb(204, 204, 204)" stroke-width="1px"></line><line x1="53.1875" y1="21.556563476940433" x2="48.1875" y2="21.556563476940433" style="visibility: inherit;" fill="rgb(0, 0, 0)" stroke="rgb(204, 204, 204)" stroke-width="1px"></line></g><g transform="translate(43.1875, 0)"><text x="0" y="374.1700326513806" dx="0em" dy="0.3em" style="text-anchor: end; visibility: hidden; font-family: Roboto, sans-serif; font-size: 12px; font-weight: 200;" fill="rgb(33, 33, 33)" stroke="none" stroke-width="1px">0.15</text><text x="0" y="323.7966799121749" dx="0em" dy="0.3em" style="text-anchor: end; visibility: inherit; font-family: Roboto, sans-serif; font-size: 12px; font-weight: 200;" fill="rgb(33, 33, 33)" stroke="none" stroke-width="1px">0.2</text><text x="0" y="273.42332717296915" dx="0em" dy="0.3em" style="text-anchor: end; visibility: inherit; font-family: Roboto, sans-serif; font-size: 12px; font-weight: 200;" fill="rgb(33, 33, 33)" stroke="none" stroke-width="1px">0.25</text><text x="0" y="223.04997443376342" dx="0em" dy="0.3em" style="text-anchor: end; visibility: inherit; font-family: Roboto, sans-serif; font-size: 12px; font-weight: 200;" fill="rgb(33, 33, 33)" stroke="none" stroke-width="1px">0.3</text><text x="0" y="172.67662169455767" dx="0em" dy="0.3em" style="text-anchor: end; visibility: inherit; font-family: Roboto, sans-serif; font-size: 12px; font-weight: 200;" fill="rgb(33, 33, 33)" stroke="none" stroke-width="1px">0.35</text><text x="0" y="122.30326895535191" dx="0em" dy="0.3em" style="text-anchor: end; visibility: inherit; font-family: Roboto, sans-serif; font-size: 12px; font-weight: 200;" fill="rgb(33, 33, 33)" stroke="none" stroke-width="1px">0.4</text><text x="0" y="71.92991621614617" dx="0em" dy="0.3em" style="text-anchor: end; visibility: inherit; font-family: Roboto, sans-serif; font-size: 12px; font-weight: 200;" fill="rgb(33, 33, 33)" stroke="none" stroke-width="1px">0.45</text><text x="0" y="21.556563476940433" dx="0em" dy="0.3em" style="text-anchor: end; visibility: inherit; font-family: Roboto, sans-serif; font-size: 12px; font-weight: 200;" fill="rgb(33, 33, 33)" stroke="none" stroke-width="1px">0.5</text></g><line x1="53.1875" y1="0" x2="53.1875" y2="376" fill="rgb(0, 0, 0)" stroke="rgb(204, 204, 204)" stroke-width="1px"></line></g></g><g transform="translate(53, 0)" clip-path="url(#clip_0)"><clipPath id="clip_0"><rect width="923" height="376"></rect></clipPath><g><g><g><line x1="19.605666596404266" y1="0" x2="19.605666596404266" y2="376" fill="rgb(0, 0, 0)" stroke="rgb(66, 66, 66)" stroke-width="1px" opacity="0.25"></line><line x1="102.1154767513469" y1="0" x2="102.1154767513469" y2="376" fill="rgb(0, 0, 0)" stroke="rgb(66, 66, 66)" stroke-width="1px" opacity="0.25"></line><line x1="184.62528690628952" y1="0" x2="184.62528690628952" y2="376" fill="rgb(0, 0, 0)" stroke="rgb(66, 66, 66)" stroke-width="1px" opacity="0.25"></line><line x1="267.13509706123216" y1="0" x2="267.13509706123216" y2="376" fill="rgb(0, 0, 0)" stroke="rgb(66, 66, 66)" stroke-width="1px" opacity="0.25"></line><line x1="349.6449072161748" y1="0" x2="349.6449072161748" y2="376" fill="rgb(0, 0, 0)" stroke="rgb(66, 66, 66)" stroke-width="1px" opacity="0.25"></line><line x1="432.15471737111744" y1="0" x2="432.15471737111744" y2="376" fill="rgb(0, 0, 0)" stroke="rgb(66, 66, 66)" stroke-width="1px" opacity="0.25"></line><line x1="514.66452752606" y1="0" x2="514.66452752606" y2="376" fill="rgb(0, 0, 0)" stroke="rgb(66, 66, 66)" stroke-width="1px" opacity="0.25"></line><line x1="597.1743376810026" y1="0" x2="597.1743376810026" y2="376" fill="rgb(0, 0, 0)" stroke="rgb(66, 66, 66)" stroke-width="1px" opacity="0.25"></line><line x1="679.6841478359454" y1="0" x2="679.6841478359454" y2="376" fill="rgb(0, 0, 0)" stroke="rgb(66, 66, 66)" stroke-width="1px" opacity="0.25"></line><line x1="762.193957990888" y1="0" x2="762.193957990888" y2="376" fill="rgb(0, 0, 0)" stroke="rgb(66, 66, 66)" stroke-width="1px" opacity="0.25"></line><line x1="844.7037681458306" y1="0" x2="844.7037681458306" y2="376" fill="rgb(0, 0, 0)" stroke="rgb(66, 66, 66)" stroke-width="1px" opacity="0.25"></line></g><g><line x1="0" y1="374.1700326513806" x2="923.8125" y2="374.1700326513806" fill="rgb(0, 0, 0)" stroke="rgb(66, 66, 66)" stroke-width="1px" opacity="0.25"></line><line x1="0" y1="323.7966799121749" x2="923.8125" y2="323.7966799121749" fill="rgb(0, 0, 0)" stroke="rgb(66, 66, 66)" stroke-width="1px" opacity="0.25"></line><line x1="0" y1="273.42332717296915" x2="923.8125" y2="273.42332717296915" fill="rgb(0, 0, 0)" stroke="rgb(66, 66, 66)" stroke-width="1px" opacity="0.25"></line><line x1="0" y1="223.04997443376342" x2="923.8125" y2="223.04997443376342" fill="rgb(0, 0, 0)" stroke="rgb(66, 66, 66)" stroke-width="1px" opacity="0.25"></line><line x1="0" y1="172.67662169455767" x2="923.8125" y2="172.67662169455767" fill="rgb(0, 0, 0)" stroke="rgb(66, 66, 66)" stroke-width="1px" opacity="0.25"></line><line x1="0" y1="122.30326895535191" x2="923.8125" y2="122.30326895535191" fill="rgb(0, 0, 0)" stroke="rgb(66, 66, 66)" stroke-width="1px" opacity="0.25"></line><line x1="0" y1="71.92991621614617" x2="923.8125" y2="71.92991621614617" fill="rgb(0, 0, 0)" stroke="rgb(66, 66, 66)" stroke-width="1px" opacity="0.25"></line><line x1="0" y1="21.556563476940433" x2="923.8125" y2="21.556563476940433" fill="rgb(0, 0, 0)" stroke="rgb(66, 66, 66)" stroke-width="1px" opacity="0.25"></line></g></g></g><g><g><line x1="0" y1="525.2900908689978" x2="923.8125" y2="525.2900908689978" fill="rgb(0, 0, 0)" stroke="rgb(153, 153, 153)" stroke-width="1.5px"></line></g></g><g><g><line x1="19.605666596404266" y1="0" x2="19.605666596404266" y2="376" fill="rgb(0, 0, 0)" stroke="rgb(153, 153, 153)" stroke-width="1.5px"></line></g></g><g><g><g><g><g><path stroke="rgb(255, 112, 67)" stroke-width="2px" d="M21.25586279950312,20.95210303645634L22.90605900260197,87.32698561064039L24.556255205700822,96.14007160920718L26.20645140879968,110.88864708269082L27.85664761189853,123.0085158501463L29.506843814997385,127.11579751919001L31.157040018096236,130.93013994832762L32.80723622119509,137.43048931187715L34.45743242429394,137.24897054219062L36.10762862739279,140.26122289832747L37.75782483049165,147.36494508036174L39.4080210335905,149.97550544093718L41.05821723668935,151.13972390516687L42.7084134397882,155.72295193427811L44.35860964288705,157.1181464570132L46.00880584598591,161.35869599799608L47.65900204908476,162.8123702919941L49.30919825218361,167.23736603441677L50.959394455282464,170.44216218686566L52.609590658381315,171.36352168751952L54.25978686148017,174.0433085557159L55.90998306457903,175.9380330389668L57.56017926767788,178.69987303675344L59.21037547077674,181.9151966086306L60.86057167387558,181.10480672808617L62.51076787697444,183.58189787450965L64.16096408007328,184.50709631786978L65.81116028317214,186.97813777501497L67.46135648627099,188.52485022115155L69.11155268936984,190.62261796155454L70.7617488924687,191.05764448314778L72.41194509556755,193.92428224421283L74.0621412986664,195.261571985539L75.71233750176525,194.1043140495429L77.3625337048641,194.91619961115626L79.01272990796296,196.81924662116904L80.66292611106181,198.11210172973088L82.31312231416067,199.34500579431958L83.96331851725951,201.401882435748L85.61351472035837,203.22236007815695L87.26371092345723,204.17192418917506L88.91390712655608,204.782473992189L90.56410332965494,205.45553752494192L92.21429953275378,206.30619966288822L93.86449573585264,207.53783443238177L95.5146919389515,207.75503251396887L97.16488814205034,209.07057441379442L98.8150843451492,210.00040538757878L100.46528054824805,210.98282681209153L102.1154767513469,212.0188560954268L103.76567295444576,212.0866888033634L105.4158691575446,213.79141617784768L107.06606536064346,214.47983427229954L108.71626156374231,215.27683968096002L110.36645776684117,215.51045965375016L112.01665396994002,216.23496210945328L113.66685017303887,216.73775176000652L115.31704637613772,217.27323511479432L116.96724257923658,217.88371382506747L118.61743878233543,217.63174161008493L120.26763498543427,218.26267890494302L121.91783118853314,219.29703928032762L123.56802739163199,220.42884374433493L125.21822359473083,221.0217377880918L126.86841979782967,222.16601595924112L128.51861600092855,223.5625535081302L130.1688122040274,223.42256923790103L131.81900840712623,223.57008163906602L133.46920461022512,224.30536176410297L135.11940081332395,224.6785349172818L136.7695970164228,225.63622916278368L138.41979321952164,225.8063023193586L140.0699894226205,226.1233351061044L141.72018562571932,226.55885377075728L143.3703818288182,227.44822254087984L145.02057803191704,228.80126708786298L146.6707742350159,229.6952164903007L148.32097043811476,230.17034096442717L149.9711666412136,230.597637737363L151.62136284431247,231.33120583398338L153.27155904741133,232.19030972950006L154.9217552505102,232.26228819200912L156.57195145360902,233.06707728386795L158.22214765670788,233.1002873270811L159.87234385980673,234.4599108735969L161.5225400629056,235.8929871271986L163.17273626600442,237.52755443129095L164.8229324691033,238.96715796952574L166.47312867220214,240.25140588457072L168.123324875301,241.66036349078001L169.77352107839985,242.51390037179462L171.4237172814987,243.4943697539177L173.07391348459754,244.65670893246408L174.7241096876964,245.62706220987258L176.37430589079526,246.74030869754347L178.0245020938941,247.8006425749145L179.67469829699294,249.02427721034408L181.32489450009183,249.9133306369177L182.97509070319066,251.0247854380847L184.62528690628952,251.7912494017302L186.27548310938835,252.58969301683402L187.92567931248723,253.6227337610436L189.57587551558606,254.52458009972634L191.22607171868492,255.83317188173282L192.87626792178378,256.9198137497925L194.52646412488264,257.92285682584213L196.17666032798147,258.91805001691876L197.82685653108035,259.72659142337716L199.47705273417918,260.26187921386094L201.12724893727804,261.20118030651713L202.7774451403769,261.73439753047097L204.42764134347576,262.2419267318304L206.0778375465746,263.25597848827266L207.72803374967344,263.9007995674305L209.37822995277233,264.4268670136427L211.02842615587116,265.0578624150985L212.67862235897002,265.5832107387619L214.32881856206888,266.1041683318188L215.97901476516773,266.77881874034983L217.62921096826656,266.9310549577607L219.27940717136542,267.73021095873185L220.92960337446428,268.1392357110986L222.57979957756314,268.59119583539757L224.22999578066197,268.86747819062884L225.88019198376085,269.45470803975064L227.53038818685968,270.2503605472941L229.18058438995854,270.8620688013101L230.83078059305737,271.36865860401736L232.48097679615623,271.70014197073334L234.13117299925509,272.5221498623657L235.78136920235397,273.06094168591625L237.43156540545277,273.94253580806094L239.08176160855166,274.730801914461L240.73195781165052,275.3041357295348L242.38215401474935,275.5452164892489L244.0323502178482,276.34184873721625L245.6825464209471,277.2872863503174L247.33274262404592,277.66590006158077L248.98293882714478,278.11355104861593L250.63313503024364,278.35515737080823L252.28333123334247,278.5175252142634L253.93352743644135,279.2138922365581L255.58372363954015,279.6087863530618L257.233919842639,280.09579864450876L258.8841160457379,280.5910029867079L260.5343122488367,281.00009276578913L262.1845084519356,281.29090458856473L263.83470465503444,281.55508753643596L265.4849008581333,281.5465656464517L267.13509706123216,281.9711996551983L268.785293264331,282.53605527124455L270.4354894674298,282.60785921511376L272.08568567052873,283.3047698279688L273.7358818736276,283.6207932554532L275.3860780767264,283.79036125903485L277.03627427982525,284.3593223563863L278.68647048292416,284.9951792705112L280.33666668602297,285.2881080320617L281.9868628891218,285.4478759774482L283.6370590922207,285.65672285028893L285.28725529531954,286.1697269592018L286.9374514984184,286.4642896369967L288.5876477015172,286.5985647117177L290.23784390461606,286.9042942242802L291.88804010771497,286.99776726447595L293.5382363108138,287.1691161183085L295.18843251391263,287.65006800121915L296.8386287170115,287.8661166542108L298.48882492011035,288.54848557447195L300.1390211232092,289.2614555201837L301.78921732630806,289.95901919725594L303.4394135294069,290.6083046377506L305.0896097325058,291.36226317089455L306.73980593560464,291.7928902067709L308.39000213870344,292.4989642710574L310.04019834180235,292.9692383605654L311.6903945449012,293.5806855234135L313.340590748,294.2457672479518L314.99078695109887,294.7866575844205L316.6409831541977,295.39610168961286L318.2911793572966,295.84369584877584L319.94137556039544,296.4092091234403L321.59157176349424,296.7463268010597L323.24176796659316,297.40812100849246L324.891964169692,298.0275630047532L326.5421603727908,298.534715718256L328.1923565758897,299.2619716243621L329.8425527789886,299.85044012090964L331.4927489820874,300.31045155785955L333.14294518518625,300.8267110642779L334.7931413882851,301.3103269166082L336.44333759138397,301.8044538877548L338.0935337944828,302.28713359961347L339.7437299975817,302.86704075140517L341.39392620068054,303.4523496293622L343.0441224037794,303.79008099199217L344.6943186068782,304.22123898321803L346.34451480997706,304.74837565460075L347.99471101307597,305.2422944963034L349.6449072161748,305.58126382679814L351.29510341927363,305.78854445460325L352.9452996223725,306.29382416771915L354.59549582547135,306.6488575393685L356.2456920285702,307.1079002683928L357.89588823166906,307.6048261236037L359.54608443476786,308.00495428316424L361.1962806378668,308.447519644878L362.84647684096564,308.64236317127404L364.49667304406444,309.0131335570738L366.1468692471633,309.2410697346589L367.7970654502622,309.3133178169541L369.447261653361,309.5614721686519L371.09745785645987,309.9007224259178L372.74765405955867,310.3209470178653L374.3978502626576,310.7133031609234L376.04804646575644,310.9252472806663L377.69824266885524,311.28390552755315L379.3484388719541,311.55288952126045L380.998635075053,311.971986917676L382.6488312781518,312.4892452680667L384.2990274812507,312.83065236373704L385.94922368434953,313.2210710652967L387.5994198874484,313.4653990994747L389.24961609054725,313.524884869394L390.8998122936461,314.066647382762L392.55000849674497,314.40197467493823L394.2002046998438,314.592514848647L395.8504009029427,314.85645497258963L397.5005971060415,315.10971571275826L399.1507933091404,315.4034044856958L400.80098951223925,315.7838848247964L402.45118571533806,316.1445345356712L404.1013819184369,316.2191256444839L405.7515781215358,316.6097034949658L407.40177432463463,316.88682970501804L409.0519705277335,317.10171746153696L410.7021667308323,317.3916192974565L412.3523629339312,317.50552908704236L414.00255913703006,317.88754424138614L415.65275534012886,318.07380302764534L417.3029515432277,318.0887582757762L418.95314774632664,318.06236092451667L420.60334394942544,318.19209330435956L422.2535401525243,318.52261516315787L423.90373635562315,318.539924337247L425.553932558722,318.90711546560925L427.20412876182087,319.2575147237166L428.8543249649197,319.63120768331055L430.5045211680186,319.947516759508L432.15471737111744,320.07872455541934L433.80491357421624,320.29416949413843L435.4551097773151,320.4012055849699L437.105305980414,320.84662165799165L438.7555021835128,321.20500780225603L440.4056983866117,321.58696463412474L442.05589458971053,322.0345847423859" style="fill: none;" fill="none"></path></g></g></g></g><g opacity="0.2"><g><g><g><path stroke="rgb(255, 112, 67)" stroke-width="2px" d="M21.25586279950312,20.95210303645634L22.90605900260197,153.63549330226292L24.556255205700822,113.7398131614199L26.20645140879968,155.04594102986974L27.85664761189853,171.3669133703838L29.506843814997385,147.59067872341618L31.157040018096236,153.73622670072427L32.80723622119509,182.75128863941586L34.45743242429394,135.80333983568067L36.10762862739279,167.23630358602458L37.75782483049165,218.0126319538769L39.4080210335905,178.5199454565953L41.05821723668935,165.01986857129498L42.7084134397882,214.88950627842115L44.35860964288705,176.5050072636464L46.00880584598591,224.46044017628503L47.65900204908476,185.87444433972956L49.30919825218361,241.78886660084453L50.959394455282464,227.5835658517408L52.609590658381315,188.69533979494327L54.25978686148017,227.07983880971804L55.90998306457903,215.2924698971246L57.56017926767788,238.76647432385013L59.21037547077674,254.98668324104486L60.86057167387558,161.89671287098128L62.51076787697444,244.71052547937757L64.16096408007328,208.2402012342324L65.81116028317214,252.77024822631523L67.46135648627099,231.21044859407726L69.11155268936984,250.55381321158563L70.7617488924687,203.90809462809247L72.41194509556755,281.3823165214455L74.0621412986664,237.3559965713853L75.71233750176525,156.55715218079595L77.3625337048641,222.0425083397747L79.01272990796296,262.2404487257177L80.66292611106181,243.8038047937934L82.31312231416067,244.10603501403548L83.96331851725951,278.05767901178007L85.61351472035837,272.81883670762704L87.26371092345723,241.38587295728317L88.91390712655608,229.29627382444764L90.56410332965494,233.12465338856478L92.21429953275378,242.09109682108655L93.86449573585264,260.5277407530109L95.5146919389515,217.30740809007347L97.16488814205034,268.1844998812452L98.8150843451492,252.66951482785387L100.46528054824805,257.00162143399376L102.1154767513469,261.53522486191434L103.76567295444576,215.3932333204439L105.4158691575446,298.50926113665327L107.06606536064346,249.3448623057595L108.71626156374231,256.39713096865165L110.36645776684117,227.78506267352145L112.01665396994002,254.98668324104486L113.66685017303887,244.10603501403548L115.31704637613772,246.92693046924916L116.96724257923658,252.26652118429251L118.61743878233543,203.20287076428906L120.26763498543427,254.98668324104486L121.91783118853314,280.4755958358613L123.56802739163199,288.4345851843377L125.21822359473083,257.2031182557744L126.86841979782967,293.0689370231486L128.51861600092855,311.40483254418257L130.1688122040274,214.4865126348598L131.81900840712623,233.12465338856478L133.46920461022512,272.6173398858464L135.11940081332395,249.54635912754017L136.7695970164228,290.34877496639626L138.41979321952164,237.45675999470467L140.0699894226205,248.13591139993332L141.72018562571932,257.2031182557744L143.3703818288182,290.852502008419L145.02057803191704,326.5168389664414L146.6707742350159,295.0838752160975L148.32097043811476,265.3636044260315L149.9711666412136,262.6434423692791L151.62136284431247,287.02413745673084L153.27155904741133,298.2070159039822L154.9217552505102,237.85975363826603L156.57195145360902,296.393574532814L158.22214765670788,235.7440520219978L159.87234385980673,343.9460138018913L161.5225400629056,352.6102420266L163.17273626600442,372.1551034658891L164.8229324691033,358.8565384147985L166.47312867220214,348.3788688189215L168.123324875301,361.5767004715508L169.77352107839985,315.9384359721031L171.4237172814987,328.733273981171L173.07391348459754,346.766924269534L174.7241096876964,331.75566625816543L176.37430589079526,346.5654424601823L178.0245020938941,343.8452804034299L179.67469829699294,360.97221000620874L181.32489450009183,332.05791149083643L182.97509070319066,354.7259136180103L184.62528690628952,323.99817373146976L186.27548310938835,328.53177715939034L187.92567931248723,352.81172383595174L189.57587551558606,341.9310906213713L191.22607171868492,383.84170895516326L192.87626792178378,364.1961141174128L194.52646412488264,357.849069318324L196.17666032798147,358.9572868256888L197.82685653108035,341.72959379959065L199.47705273417918,315.031715286519L201.12724893727804,358.15129953856604L202.7774451403769,317.2481503012486L204.42764134347576,315.5354573409707L206.0778375465746,370.64389231496295L207.72803374967344,332.76313535463987L209.37822995277233,321.0765148529367L211.02842615587116,333.56910762933364L212.67862235897002,323.09145304588566L214.32881856206888,323.59518008790843L215.97901476516773,341.83034221048104L217.62921096826656,284.00173016730747L219.27940717136542,358.0505661401047L220.92960337446428,314.72947005384793L222.57979957756314,320.4720394000237L224.22999578066197,300.82642954984425L225.88019198376085,337.9012142354735L227.53038818685968,363.69237206296106L229.18058438995854,343.24078993808786L230.83078059305737,331.75566625816543L232.48097679615623,311.5055809550729L234.13117299925509,371.95360664410845L235.78136920235397,338.7071865101673L237.43156540545277,382.1290159948854L239.08176160855166,372.1551034658891L240.73195781165052,346.6661758586436L242.38215401474935,305.76302662132616L244.0323502178482,376.89018870316136L245.6825464209471,397.44251923892494L247.33274262404592,326.113860335309L248.98293882714478,335.78554264406324L250.63313503024364,309.6921395839047L252.28333123334247,299.7182120424794L253.93352743644135,370.7446407258533L255.58372363954015,331.85641466905577L257.233919842639,344.95348289836573L258.8841160457379,346.96842109131467L260.5343122488367,336.1885212751956L262.1845084519356,320.77428463269473L263.83470465503444,317.65112893238097L265.4849008581333,280.374847424971L267.13509706123216,340.7221247031162L268.785293264331,361.1737068279894L270.4354894674298,292.66594337958725L272.08568567052873,381.52454054197227L273.7358818736276,328.4310287485L275.3860780767264,307.97944662362676L277.03627427982525,366.009555488581L278.68647048292416,376.789440292271L280.33666668602297,327.8265532955869L281.9868628891218,308.7854188983206L283.6370590922207,316.3414296156645L285.28725529531954,361.9796791026832L286.9374514984184,330.2444701196682L288.5876477015172,306.66974730691027L290.23784390461606,332.8638837655302L291.88804010771497,301.12867478251525L293.5382363108138,313.2182739153508L295.18843251391263,361.1737068279894L296.8386287170115,321.0765148529367L298.48882492011035,394.01713331836913L305.0896097325058,410.4388465635591L306.73980593560464,360.16623773151497L308.39000213870344,405.20001927183506L310.04019834180235,368.4274723126623L311.6903945449012,392.2036919472009L316.6409831541977,395.22609923662435L318.2911793572966,369.53568982002713L319.94137556039544,389.9872719449003L321.59157176349424,352.81172383595174L323.24176796659316,408.02092223326326L341.39392620068054,406.6104745056564L343.0441224037794,363.5916236520707L344.6943186068782,380.9200650890592L347.99471101307597,393.9163849074788L349.6449072161748,366.7147793523844L351.29510341927363,343.3415383489782L352.9452996223725,398.2484915136187L354.59549582547135,371.55061300054706L356.2456920285702,391.39771967250715L361.1962806378668,390.79324421959416L362.84647684096564,345.05423130925607L364.49667304406444,378.60288166343923L366.1468692471633,352.20724838303863L367.7970654502622,322.9907046349953L369.447261653361,356.74085181095916L371.09745785645987,374.67376870086076L372.74765405955867,390.8939926304844L374.3978502626576,386.2596407916735L376.04804646575644,351.9050181627966L377.69824266885524,380.9200650890592L379.3484388719541,363.9946172956321L380.998635075053,394.01713331836913L385.94922368434953,390.59174739781344L387.5994198874484,362.0804275135735L389.24961609054725,325.40862145907664L390.8998122936461,422.7299425181753L392.55000849674497,381.92753418553366L394.2002046998438,353.11396906862274L395.8504009029427,368.4274723126623L397.5005971060415,366.7147793523844L399.1507933091404,375.47974097555453L400.80098951223925,393.9163849074788L402.45118571533806,390.49099898692305L404.1013819184369,331.65491784727504L405.7515781215358,397.74476447159594L407.40177432463463,374.67376870086076L409.0519705277335,362.0804275135735L410.7021667308323,378.30065144319724L412.3523629339312,341.5280969778099L414.00255913703006,398.7522335680704L415.65275534012886,357.6475724965433L417.3029515432277,321.27801167471745L418.95314774632664,312.412301640657L420.60334394942544,346.06170040573056L422.2535401525243,389.78577512311966L423.90373635562315,322.2854807711919L425.553932558722,398.65148515718005L430.5045211680186,389.3827814795583L432.15471737111744,348.98335928426354L433.80491357421624,367.9237302582106L435.4551097773151,344.14751062367196L437.105305980414,420.00978046142296" style="fill: none;" fill="none"></path></g></g></g></g></g></g><g transform="translate(53, 376)" clip-path="url(#clip_1)"><clipPath id="clip_1"><rect width="923" height="24"></rect></clipPath><g><g><line x1="19.605666596404266" y1="0" x2="19.605666596404266" y2="5" style="visibility: inherit;" fill="rgb(0, 0, 0)" stroke="rgb(204, 204, 204)" stroke-width="1px"></line><line x1="102.1154767513469" y1="0" x2="102.1154767513469" y2="5" style="visibility: inherit;" fill="rgb(0, 0, 0)" stroke="rgb(204, 204, 204)" stroke-width="1px"></line><line x1="184.62528690628952" y1="0" x2="184.62528690628952" y2="5" style="visibility: inherit;" fill="rgb(0, 0, 0)" stroke="rgb(204, 204, 204)" stroke-width="1px"></line><line x1="267.13509706123216" y1="0" x2="267.13509706123216" y2="5" style="visibility: inherit;" fill="rgb(0, 0, 0)" stroke="rgb(204, 204, 204)" stroke-width="1px"></line><line x1="349.6449072161748" y1="0" x2="349.6449072161748" y2="5" style="visibility: inherit;" fill="rgb(0, 0, 0)" stroke="rgb(204, 204, 204)" stroke-width="1px"></line><line x1="432.15471737111744" y1="0" x2="432.15471737111744" y2="5" style="visibility: inherit;" fill="rgb(0, 0, 0)" stroke="rgb(204, 204, 204)" stroke-width="1px"></line><line x1="514.66452752606" y1="0" x2="514.66452752606" y2="5" style="visibility: inherit;" fill="rgb(0, 0, 0)" stroke="rgb(204, 204, 204)" stroke-width="1px"></line><line x1="597.1743376810026" y1="0" x2="597.1743376810026" y2="5" style="visibility: inherit;" fill="rgb(0, 0, 0)" stroke="rgb(204, 204, 204)" stroke-width="1px"></line><line x1="679.6841478359454" y1="0" x2="679.6841478359454" y2="5" style="visibility: inherit;" fill="rgb(0, 0, 0)" stroke="rgb(204, 204, 204)" stroke-width="1px"></line><line x1="762.193957990888" y1="0" x2="762.193957990888" y2="5" style="visibility: inherit;" fill="rgb(0, 0, 0)" stroke="rgb(204, 204, 204)" stroke-width="1px"></line><line x1="844.7037681458306" y1="0" x2="844.7037681458306" y2="5" style="visibility: inherit;" fill="rgb(0, 0, 0)" stroke="rgb(204, 204, 204)" stroke-width="1px"></line></g><g transform="translate(0, 8)"><text x="19.605666596404266" y="0" dx="0em" dy="0.95em" style="text-anchor: middle; visibility: inherit; font-family: Roboto, sans-serif; font-size: 12px; font-weight: 200;" fill="rgb(33, 33, 33)" stroke="none" stroke-width="1px">0</text><text x="102.1154767513469" y="0" dx="0em" dy="0.95em" style="text-anchor: middle; visibility: inherit; font-family: Roboto, sans-serif; font-size: 12px; font-weight: 200;" fill="rgb(33, 33, 33)" stroke="none" stroke-width="1px">5k</text><text x="184.62528690628952" y="0" dx="0em" dy="0.95em" style="text-anchor: middle; visibility: inherit; font-family: Roboto, sans-serif; font-size: 12px; font-weight: 200;" fill="rgb(33, 33, 33)" stroke="none" stroke-width="1px">10k</text><text x="267.13509706123216" y="0" dx="0em" dy="0.95em" style="text-anchor: middle; visibility: inherit; font-family: Roboto, sans-serif; font-size: 12px; font-weight: 200;" fill="rgb(33, 33, 33)" stroke="none" stroke-width="1px">15k</text><text x="349.6449072161748" y="0" dx="0em" dy="0.95em" style="text-anchor: middle; visibility: inherit; font-family: Roboto, sans-serif; font-size: 12px; font-weight: 200;" fill="rgb(33, 33, 33)" stroke="none" stroke-width="1px">20k</text><text x="432.15471737111744" y="0" dx="0em" dy="0.95em" style="text-anchor: middle; visibility: inherit; font-family: Roboto, sans-serif; font-size: 12px; font-weight: 200;" fill="rgb(33, 33, 33)" stroke="none" stroke-width="1px">25k</text><text x="514.66452752606" y="0" dx="0em" dy="0.95em" style="text-anchor: middle; visibility: inherit; font-family: Roboto, sans-serif; font-size: 12px; font-weight: 200;" fill="rgb(33, 33, 33)" stroke="none" stroke-width="1px">30k</text><text x="597.1743376810026" y="0" dx="0em" dy="0.95em" style="text-anchor: middle; visibility: inherit; font-family: Roboto, sans-serif; font-size: 12px; font-weight: 200;" fill="rgb(33, 33, 33)" stroke="none" stroke-width="1px">35k</text><text x="679.6841478359454" y="0" dx="0em" dy="0.95em" style="text-anchor: middle; visibility: inherit; font-family: Roboto, sans-serif; font-size: 12px; font-weight: 200;" fill="rgb(33, 33, 33)" stroke="none" stroke-width="1px">40k</text><text x="762.193957990888" y="0" dx="0em" dy="0.95em" style="text-anchor: middle; visibility: inherit; font-family: Roboto, sans-serif; font-size: 12px; font-weight: 200;" fill="rgb(33, 33, 33)" stroke="none" stroke-width="1px">45k</text><text x="844.7037681458306" y="0" dx="0em" dy="0.95em" style="text-anchor: middle; visibility: inherit; font-family: Roboto, sans-serif; font-size: 12px; font-weight: 200;" fill="rgb(33, 33, 33)" stroke="none" stroke-width="1px">50k</text></g><line x1="0" y1="0" x2="923.8125" y2="0" fill="rgb(0, 0, 0)" stroke="rgb(204, 204, 204)" stroke-width="1px"></line></g></g></g></g></svg>