<svg viewBox="0 0 1584.5999755859375 400" xmlns="http://www.w3.org/2000/svg"><g><g><g><g><g><line x1="42.390625" y1="359.1659051285878" x2="37.390625" y2="359.1659051285878" style="visibility: inherit;" fill="rgb(0, 0, 0)" stroke="rgb(204, 204, 204)" stroke-width="1px"></line><line x1="42.390625" y1="301.18331329695684" x2="37.390625" y2="301.18331329695684" style="visibility: inherit;" fill="rgb(0, 0, 0)" stroke="rgb(204, 204, 204)" stroke-width="1px"></line><line x1="42.390625" y1="243.20072146532587" x2="37.390625" y2="243.20072146532587" style="visibility: inherit;" fill="rgb(0, 0, 0)" stroke="rgb(204, 204, 204)" stroke-width="1px"></line><line x1="42.390625" y1="185.2181296336949" x2="37.390625" y2="185.2181296336949" style="visibility: inherit;" fill="rgb(0, 0, 0)" stroke="rgb(204, 204, 204)" stroke-width="1px"></line><line x1="42.390625" y1="127.23553780206394" x2="37.390625" y2="127.23553780206394" style="visibility: inherit;" fill="rgb(0, 0, 0)" stroke="rgb(204, 204, 204)" stroke-width="1px"></line><line x1="42.390625" y1="69.25294597043295" x2="37.390625" y2="69.25294597043295" style="visibility: inherit;" fill="rgb(0, 0, 0)" stroke="rgb(204, 204, 204)" stroke-width="1px"></line><line x1="42.390625" y1="11.270354138801952" x2="37.390625" y2="11.270354138801952" style="visibility: inherit;" fill="rgb(0, 0, 0)" stroke="rgb(204, 204, 204)" stroke-width="1px"></line></g><g transform="translate(32.390625, 0)"><text x="0" y="359.1659051285878" dx="0em" dy="0.3em" style="text-anchor: end; visibility: inherit; font-family: Roboto, sans-serif; font-size: 12px; font-weight: 200;" fill="rgb(33, 33, 33)" stroke="none" stroke-width="1px">100</text><text x="0" y="301.18331329695684" dx="0em" dy="0.3em" style="text-anchor: end; visibility: inherit; font-family: Roboto, sans-serif; font-size: 12px; font-weight: 200;" fill="rgb(33, 33, 33)" stroke="none" stroke-width="1px">150</text><text x="0" y="243.20072146532587" dx="0em" dy="0.3em" style="text-anchor: end; visibility: inherit; font-family: Roboto, sans-serif; font-size: 12px; font-weight: 200;" fill="rgb(33, 33, 33)" stroke="none" stroke-width="1px">200</text><text x="0" y="185.2181296336949" dx="0em" dy="0.3em" style="text-anchor: end; visibility: inherit; font-family: Roboto, sans-serif; font-size: 12px; font-weight: 200;" fill="rgb(33, 33, 33)" stroke="none" stroke-width="1px">250</text><text x="0" y="127.23553780206394" dx="0em" dy="0.3em" style="text-anchor: end; visibility: inherit; font-family: Roboto, sans-serif; font-size: 12px; font-weight: 200;" fill="rgb(33, 33, 33)" stroke="none" stroke-width="1px">300</text><text x="0" y="69.25294597043295" dx="0em" dy="0.3em" style="text-anchor: end; visibility: inherit; font-family: Roboto, sans-serif; font-size: 12px; font-weight: 200;" fill="rgb(33, 33, 33)" stroke="none" stroke-width="1px">350</text><text x="0" y="11.270354138801952" dx="0em" dy="0.3em" style="text-anchor: end; visibility: inherit; font-family: Roboto, sans-serif; font-size: 12px; font-weight: 200;" fill="rgb(33, 33, 33)" stroke="none" stroke-width="1px">400</text></g><line x1="42.390625" y1="0" x2="42.390625" y2="376" fill="rgb(0, 0, 0)" stroke="rgb(204, 204, 204)" stroke-width="1px"></line></g></g><g transform="translate(42, 0)" clip-path="url(#clip_0)"><clipPath id="clip_0"><rect width="1542" height="376"></rect></clipPath><g><g><g><line x1="13.594073255249496" y1="0" x2="13.594073255249496" y2="376" fill="rgb(0, 0, 0)" stroke="rgb(66, 66, 66)" stroke-width="1px" opacity="0.25"></line><line x1="128.66954386644733" y1="0" x2="128.66954386644733" y2="376" fill="rgb(0, 0, 0)" stroke="rgb(66, 66, 66)" stroke-width="1px" opacity="0.25"></line><line x1="243.74501447764516" y1="0" x2="243.74501447764516" y2="376" fill="rgb(0, 0, 0)" stroke="rgb(66, 66, 66)" stroke-width="1px" opacity="0.25"></line><line x1="358.820485088843" y1="0" x2="358.820485088843" y2="376" fill="rgb(0, 0, 0)" stroke="rgb(66, 66, 66)" stroke-width="1px" opacity="0.25"></line><line x1="473.8959557000409" y1="0" x2="473.8959557000409" y2="376" fill="rgb(0, 0, 0)" stroke="rgb(66, 66, 66)" stroke-width="1px" opacity="0.25"></line><line x1="588.9714263112387" y1="0" x2="588.9714263112387" y2="376" fill="rgb(0, 0, 0)" stroke="rgb(66, 66, 66)" stroke-width="1px" opacity="0.25"></line><line x1="704.0468969224365" y1="0" x2="704.0468969224365" y2="376" fill="rgb(0, 0, 0)" stroke="rgb(66, 66, 66)" stroke-width="1px" opacity="0.25"></line><line x1="819.1223675336345" y1="0" x2="819.1223675336345" y2="376" fill="rgb(0, 0, 0)" stroke="rgb(66, 66, 66)" stroke-width="1px" opacity="0.25"></line><line x1="934.1978381448322" y1="0" x2="934.1978381448322" y2="376" fill="rgb(0, 0, 0)" stroke="rgb(66, 66, 66)" stroke-width="1px" opacity="0.25"></line><line x1="1049.27330875603" y1="0" x2="1049.27330875603" y2="376" fill="rgb(0, 0, 0)" stroke="rgb(66, 66, 66)" stroke-width="1px" opacity="0.25"></line><line x1="1164.348779367228" y1="0" x2="1164.348779367228" y2="376" fill="rgb(0, 0, 0)" stroke="rgb(66, 66, 66)" stroke-width="1px" opacity="0.25"></line><line x1="1279.4242499784257" y1="0" x2="1279.4242499784257" y2="376" fill="rgb(0, 0, 0)" stroke="rgb(66, 66, 66)" stroke-width="1px" opacity="0.25"></line><line x1="1394.4997205896236" y1="0" x2="1394.4997205896236" y2="376" fill="rgb(0, 0, 0)" stroke="rgb(66, 66, 66)" stroke-width="1px" opacity="0.25"></line><line x1="1509.5751912008216" y1="0" x2="1509.5751912008216" y2="376" fill="rgb(0, 0, 0)" stroke="rgb(66, 66, 66)" stroke-width="1px" opacity="0.25"></line></g><g><line x1="0" y1="359.1659051285878" x2="1542.209375" y2="359.1659051285878" fill="rgb(0, 0, 0)" stroke="rgb(66, 66, 66)" stroke-width="1px" opacity="0.25"></line><line x1="0" y1="301.18331329695684" x2="1542.209375" y2="301.18331329695684" fill="rgb(0, 0, 0)" stroke="rgb(66, 66, 66)" stroke-width="1px" opacity="0.25"></line><line x1="0" y1="243.20072146532587" x2="1542.209375" y2="243.20072146532587" fill="rgb(0, 0, 0)" stroke="rgb(66, 66, 66)" stroke-width="1px" opacity="0.25"></line><line x1="0" y1="185.2181296336949" x2="1542.209375" y2="185.2181296336949" fill="rgb(0, 0, 0)" stroke="rgb(66, 66, 66)" stroke-width="1px" opacity="0.25"></line><line x1="0" y1="127.23553780206394" x2="1542.209375" y2="127.23553780206394" fill="rgb(0, 0, 0)" stroke="rgb(66, 66, 66)" stroke-width="1px" opacity="0.25"></line><line x1="0" y1="69.25294597043295" x2="1542.209375" y2="69.25294597043295" fill="rgb(0, 0, 0)" stroke="rgb(66, 66, 66)" stroke-width="1px" opacity="0.25"></line><line x1="0" y1="11.270354138801952" x2="1542.209375" y2="11.270354138801952" fill="rgb(0, 0, 0)" stroke="rgb(66, 66, 66)" stroke-width="1px" opacity="0.25"></line></g></g></g><g><g><line x1="0" y1="475.1310887918498" x2="1542.209375" y2="475.1310887918498" fill="rgb(0, 0, 0)" stroke="rgb(153, 153, 153)" stroke-width="1.5px"></line></g></g><g><g><line x1="13.594073255249496" y1="0" x2="13.594073255249496" y2="376" fill="rgb(0, 0, 0)" stroke="rgb(153, 153, 153)" stroke-width="1.5px"></line></g></g><g><g><g><g><g><path stroke="rgb(255, 112, 67)" stroke-width="2px" d="M19.34784678580939,128.85323937385084L25.10162031636928,117.30371238441843L30.855393846929175,118.64541949751646L36.609167377489065,116.0431745820427L42.362940908048955,114.10442134001691L48.116714438608845,115.84948139336218L53.870487969168735,116.67406553112096L59.62426149972863,138.9006842430961L65.37803503028853,136.7081571543004L71.13180856084841,135.3847966971058L76.88558209140831,133.80979757816053L82.6393556219682,132.33415316631067L88.39312915252809,130.71867332822617L94.14690268308799,147.2107778833789L99.90067621364788,144.4058068144359L105.65444974420778,144.10528713937464L111.40822327476765,144.5806219987406L117.16199680532755,146.0335710548812L122.91577033588744,144.09978375255608L128.66954386644733,154.5528223658585L134.42331739700722,152.3267302221514L140.17709092756712,150.66352879434046L145.93086445812702,159.70769416686105L151.6846379886869,158.43593678715976L157.43841151924678,156.16501520990442L163.19218504980668,153.92625702348403L168.94595858036658,151.7493497792701L174.69973211092645,150.96772318162087L180.45350564148634,149.59233003085927L186.20727917204624,149.02853067127904L191.96105270260614,147.98141985472944L197.71482623316604,146.43010762859424L203.46859976372593,145.99606000672205L209.22237329428583,144.9755604261748L214.97614682484573,144.27145136720534L220.72992035540562,143.23106981622237L226.4836938859655,142.76568714825797L232.23746741652536,141.7510882734321L237.99124094708526,141.0616506743906L243.74501447764516,140.31067716018634L249.49878800820505,139.43369238041728L255.25256153876495,138.9030241310275L261.00633506932485,138.4528914721717L266.76010859988475,138.2677158505151L272.51388213044464,140.01748214580533L278.26765566100454,139.54031272510986L284.02142919156444,139.6638196812212L289.7752027221243,139.2393661272935L295.5289762526842,138.50416426667346L301.28274978324407,138.05008307827563L307.03652331380397,138.46359253405882L312.79029684436387,138.2456822671458L318.54407037492376,137.74534927103758L324.29784390548366,137.24880023723117L330.05161743604356,136.64031314830433L335.80539096660345,136.27058585177332L341.55916449716335,136.43969896105514L347.31293802772325,136.36122668876922L353.0667115582831,136.12284016640623L358.820485088843,135.96200482562625L364.5742586194029,136.769590861838L370.3280321499628,136.37365606879072L376.0818056805227,137.09540336804508L381.8355792110826,136.59849778652375L387.5893527416425,136.10165515180822L393.3431262722023,136.7976180582139L399.09689980276227,137.4224316983558L404.8506733333221,138.5374095239393L410.60444686388206,138.36933629677984L416.3582203944419,141.4917923363543L422.11199392500185,142.59242657434672L427.8657674555617,142.24928821243702L433.61954098612165,142.26042175461504L439.3733145166815,142.13187709797705L445.12708804724144,141.8549626555774L450.8808615778013,141.37182483247418L456.6346351083611,141.8617038017667L462.3884086389211,144.63361397315924L468.1421821694809,144.52727451309192L473.8959557000409,144.64091498221524L479.6497292306007,146.16888744726552L485.40350276116067,148.7945510571935L491.1572762917205,148.43546706067454L496.91104982228046,148.33547719421372L502.6648233528403,148.3896704920021L508.41859688340026,149.19487967201653L514.17237041396,149.81542898799336L519.9261439445199,150.1474308980223L525.6799174750798,149.83066504678263L531.4336910056397,149.36176177520915L537.1874645361996,151.66431811230495L542.9412380667595,153.9305258775941L548.6950115973194,153.41359237543352L554.4487851278793,152.83830085221535L560.2025586584392,152.50485903099582L565.9563321889991,152.03476054636272L571.710105719559,152.4076391374965L577.4638792501189,152.3812713893191L583.2176527806788,152.00939354341764L588.9714263112387,151.42242693241337L594.7251998417986,151.42664956324745L600.4789733723585,151.14085391015695L606.2327469029184,150.90367346900302L611.9865204334783,150.58038313621373L617.7402939640382,150.0955580389655L623.4940674945981,149.94231570511124L629.2478410251579,149.53103668421662L635.0016145557179,149.31000032558455L640.7553880862777,149.05565861428892L646.5091616168376,148.80407642995064L652.2629351473975,148.42751941820862L658.0167086779574,148.49303138809944L663.7704822085173,148.18042478841883L669.5242557390771,147.90826143485643L675.278029269637,147.9902840729989L681.0318028001969,147.62339782891254L686.7855763307568,147.39097792594782L692.5393498613167,147.19646130795442L698.2931233918766,146.9728597239379L704.0468969224365,146.8230196509681L709.8006704529964,146.65418879210304L715.5544439835563,146.34722184491537L721.3082175141162,148.1129123179585L727.0619910446761,147.8168530199169L732.815764575236,147.5032627345819L738.5695381057959,147.2871420272506L744.3233116363557,147.46693640996702L750.0770851669157,147.09426408222745L755.8308586974755,146.81981809807834L761.5846322280355,147.42491794493344L767.3384057585953,147.1154923367726L773.0921792891553,147.05362732640302L778.8459528197151,147.68779731845336L784.599726350275,147.4680870368609L790.3534998808349,147.28167818709133L796.1072734113949,147.0005513518542L801.8610469419547,147.48224975742707L807.6148204725146,149.05826231908466L813.3685940030745,149.0990780900709L819.1223675336345,148.76086475143217L824.8761410641943,149.1963038503696L830.6299145947542,148.998458151091L836.383688125314,148.98018332025637L842.1374616558738,148.78413729093862L847.8912351864337,148.60167187345453L853.6450087169937,148.41986722329304L859.3987822475536,149.0392165951342L865.1525557781134,148.8949946059969L870.9063293086733,149.38272239111853L876.6601028392333,149.35233140073728L882.4138763697932,149.4495671077587L888.167649900353,149.5352211595913L893.9214234309129,150.45044691693226L899.6751969614729,150.18571469344843L905.4289704920327,150.2358251924388L911.1827440225926,150.4469206684473L916.9365175531525,150.37232341651577L922.6902910837125,150.22778498725734L928.4440646142723,150.4071216257809L934.1978381448322,151.09432731765898L939.9516116753921,151.2791674258343L945.7053852059521,151.04265717000877L951.459158736512,150.7307035454379L957.2129322670719,150.825761351462L962.9667057976317,150.63599307075162L968.7204793281917,151.01670925320965L974.4742528587516,151.02260916629163L980.2280263893115,151.03334054336855L985.9817999198713,151.67361740995304L991.7355734504313,151.49824177875237L997.4893469809912,151.60831126733L1003.243120511551,152.0011035343697L1008.9968940421109,151.70169634936713L1014.7506675726709,151.49578871535167L1020.5044411032308,151.2439960918481L1026.2582146337904,151.38762988712568L1032.0119881643504,151.58135469174437L1037.7657616949105,151.2792287926627L1043.5195352254702,151.0079141145082L1049.27330875603,150.724141647389L1055.02708228659,151.92131141889132L1060.78085581715,151.77712872515602L1066.5346293477098,151.55725684898164L1072.2884028782696,151.36796228462444L1078.0421764088296,151.16833209754128L1083.7959499393896,151.52072127400007L1089.5497234699494,151.2852635357826L1095.3034970005092,151.0419362887687L1101.0572705310692,150.76207929874363L1106.8110440616292,150.57998831286685L1112.564817592189,150.35090940492512L1118.3185911227488,150.113667311152L1124.0723646533088,149.84054821156562L1129.8261381838686,149.78479497408722L1135.5799117144286,149.9166887775486L1141.3336852449884,150.593772256944L1147.0874587755484,150.45167989893758L1152.8412323061082,150.21155680680258L1158.5950058366682,150.02219192612716L1164.348779367228,149.82819814454191L1170.102552897788,149.60764776668546L1175.8563264283478,149.42948593115736L1181.6100999589078,149.38174176659916L1187.3638734894676,149.24075710558827L1193.1176470200273,149.69236562784977L1198.8714205505873,149.47636222445237L1204.6251940811471,149.48673417248375L1210.3789676117071,149.6536426924289L1216.132741142267,149.62983535187425L1221.886514672827,149.53644413254108L1227.6402882033867,149.66449973975935L1233.3940617339467,149.63482825863457L1239.1478352645065,149.87733505560522L1244.9016087950665,149.79259766095083L1250.6553823256263,149.60961573795876L1256.409155856186,149.7054970233298L1262.162929386746,149.72436047939397L1267.916702917306,149.73419726241906L1273.670476447866,150.17846935834567L1279.4242499784257,150.25351603695444L1285.1780235089857,150.34376387781248L1290.9317970395457,150.25093950880904L1296.6855705701055,150.18202529696228L1302.4393441006653,150.41296060374862L1308.1931176312253,150.5518750101834L1313.9468911617853,150.63848083322748L1319.700664692345,150.72776790811278L1325.4544382229049,150.6828127190534L1331.2082117534649,150.5728621465602L1336.9619852840249,150.63995963807585L1342.7157588145847,150.48489173133228L1348.4695323451444,150.44167020455103L1354.2233058757045,150.55374735882594L1359.9770794062645,150.85694606166658L1365.7308529368242,150.96606148836426L1371.484626467384,150.76646511150494L1377.238399997944,150.78705202896364L1382.992173528504,150.64309862773317L1388.7459470590638,150.89560246605188L1394.4997205896236,150.72482324109046L1400.2534941201836,151.31844010995096L1406.0072676507434,151.2920945237048L1411.7610411813032,151.2128586896031L1417.5148147118632,151.13487512279883L1423.2685882424232,151.17402391111057L1429.022361772983,151.1253583251411L1434.7761353035428,151.06241279503158L1440.5299088341028,151.00607823112696L1446.2836823646628,151.0604751524994L1452.0374558952226,151.96649563506983L1457.7912294257824,151.83495527675072L1463.5450029563424,151.7168282734971" style="fill: none;" fill="none"></path></g></g></g></g><g opacity="0.2"><g><g><g><path stroke="rgb(255, 112, 67)" stroke-width="2px" d="M19.34784678580939,128.85323937385084L25.10162031636928,105.76573492198577L30.855393846929175,121.32480994407115L36.609167377489065,108.25204289875042L42.362940908048955,106.36877652648468L48.116714438608845,124.54864063431923L53.870487969168735,121.60428292240026L59.62426149972863,293.8659130389862L65.37803503028853,119.24668752283996L71.13180856084841,123.5339452772657L76.88558209140831,118.14617198439498L82.6393556219682,116.19913325465818L88.39312915252809,111.45846182436155L94.14690268308799,360.1133422362663L99.90067621364788,105.42946136999349L105.65444974420778,139.6333866291101L111.40822327476765,152.12165630706556L117.16199680532755,170.51258497647478L122.91577033588744,109.62042357243318L128.66954386644733,351.1863446628134L134.42331739700722,108.26941927362184L140.17709092756712,116.11794913255015L145.93086445812702,356.4070959573019L151.6846379886869,129.53396151367104L157.43841151924678,102.3389793162332L163.19218504980668,98.67911132498568L168.94595858036658,95.90752644834626L174.69973211092645,130.15671521756585L180.45350564148634,111.6347382464278L186.20727917204624,132.92132831039737L191.96105270260614,117.05032789499897L197.71482623316604,99.10124044813492L203.46859976372593,132.33336274601095L209.22237329428583,111.86551490739829L214.97614682484573,120.74611649825155L220.72992035540562,107.46578847814291L226.4836938859655,126.3182704694931L232.23746741652536,104.9157081439072L237.99124094708526,115.36765071371325L243.74501447764516,111.60111796918167L249.49878800820505,105.06416821027298L255.25256153876495,117.59649814630363L261.00633506932485,119.9482896243183L266.76010859988475,130.47791272944562L272.51388213044464,215.29950110712628L278.26765566100454,118.554392929694L284.02142919156444,145.21360946689072L289.7752027221243,119.76157322142295L295.5289762526842,104.06568136582858L301.28274978324407,116.34755793125841L307.03652331380397,158.62034972944477L312.79029684436387,127.41645028341358L318.54407037492376,112.40591662692286L324.29784390548366,111.6301021871444L330.05161743604356,104.66985544282423L335.80539096660345,116.49485013536196L341.55916449716335,145.64501070860675L347.31293802772325,132.0156334311523L353.0667115582831,122.6966588147751L358.820485088843,126.75197204596812L364.5742586194029,183.77551892682925L370.3280321499628,112.95559046501421L376.0818056805227,180.4623998581686L381.8355792110826,106.27481669902313L387.5893527416425,105.31578944313608L393.3431262722023,180.57371836561876L399.09689980276227,177.30812775205447L404.8506733333221,210.75598606055405L410.60444686388206,127.32599404273878L416.3582203944419,349.5686253961437L422.11199392500185,216.96359866151286L427.8657674555617,118.74340966734826L433.61954098612165,143.0334583516589L439.3733145166815,133.08712936186902L445.12708804724144,122.11336469943762L450.8808615778013,106.48007733905209L456.6346351083611,177.6943008734331L462.3884086389211,349.95363065526016L468.1421821694809,136.55217669391664L473.8959557000409,153.2685678281102L479.6497292306007,263.5839169848093L485.40350276116067,352.9814816714875L491.1572762917205,120.18019875778548L496.91104982228046,140.37554540187693L502.6648233528403,152.75368212952722L508.41859688340026,214.77534328997646L514.17237041396,200.92561163749778L519.9261439445199,177.79636495719922L525.6799174750798,123.16051247147504L531.4336910056397,109.45341926893376L537.1874645361996,349.73909789666436L542.9412380667595,350.94745489809696L548.6950115973194,108.00155413838405L554.4487851278793,101.7753973002916L560.2025586584392,122.60503471183803L565.9563321889991,109.45341926893376L571.710105719559,186.52157008764436L577.4638792501189,149.9450087786205L583.2176527806788,117.31238910869114L588.9714263112387,96.12556279372878L594.7251998417986,151.82827515088624L600.4789733723585,123.69974632873735L606.2327469029184,127.91625994188412L611.9865204334783,118.95560670141957L617.7402939640382,102.23227917318364L623.4940674945981,134.67584671569324L629.2478410251579,108.18827054127935L635.0016145557179,126.89229246626377L640.7553880862777,123.03179989427069L646.5091616168376,122.83697923507076L652.2629351473975,109.2238104702255L658.0167086779574,155.37217088051744L663.7704822085173,115.07543741979612L669.5242557390771,118.84313802658993L675.278029269637,156.82290353857044L681.0318028001969,107.78818924205048L686.7855763307568,121.94869612046266L692.5393498613167,125.73030490510669L698.2931233918766,122.09828865932514L704.0468969224365,130.02103085655358L709.8006704529964,127.57297921631844L715.5544439835563,111.38194915130246L721.3082175141162,350.7978535117931L727.0619910446761,113.57020452283886L732.815764575236,110.95171577184865L738.5695381057959,121.90576833488421L744.3233116363557,168.74061941677644L750.0770851669157,102.67061680894209L755.8308586974755,113.86358567901823L761.5846322280355,220.61881289859423L767.3384057585953,109.41516293240423L773.0921792891553,139.46174626632725L778.8459528197151,226.06687265703204L784.599726350275,120.12106245959785L790.3534998808349,123.91661481185763L796.1072734113949,111.51763351231473L801.8610469419547,208.70107932550545L807.6148204725146,350.72711821795554L813.3685940030745,154.35747552346385L819.1223675336345,104.89369570975235L824.8761410641943,206.05243849429024L830.6299145947542,122.99354355774112L836.383688125314,146.5622780411776L842.1374616558738,122.675778853117L847.8912351864337,124.14392327580696L853.6450087169937,123.89343451544055L859.3987822475536,233.12798023309057L865.1525557781134,129.18954831560865L870.9063293086733,216.4429090413842L876.6601028392333,145.14753677466067L882.4138763697932,162.98645588145402L888.167649900353,161.53338749887655L893.9214234309129,279.438673497833L899.6751969614729,112.64826574121913L905.4289704920327,157.3841498299876L911.1827440225926,180.74072266911818L916.9365175531525,139.60323454888518L922.6902910837125,129.23824463296722L928.4440646142723,176.60309284332047L934.1978381448322,252.061628651666L939.9516116753921,178.59419183113252L945.7053852059521,115.89067605836637L951.459158736512,104.10046950533695L957.2129322670719,165.11557495480278L962.9667057976317,121.94752825820044L968.7204793281917,208.89474981732587L974.4742528587516,151.92453531310676L980.2280263893115,152.68293798824826L985.9817999198713,250.63641201455454L991.7355734504313,124.24365163504862L997.4893469809912,168.80672749877198L1003.243120511551,213.70612999913592L1008.9968940421109,104.41476601293992L1014.7506675726709,118.8025459655359L1020.5044411032308,111.05374446584928L1026.2582146337904,174.43451418141447L1032.0119881643504,182.8280818191507L1037.7657616949105,102.29491905815802L1043.5195352254702,106.79203812213059L1049.27330875603,104.24078992563264L1055.02708228659,349.0235876173358L1060.78085581715,127.91856027664309L1066.5346293477098,114.99078510066694L1072.2884028782696,119.7291208064391L1078.0421764088296,117.6359223450954L1083.7959499393896,211.0053069586582L1089.5497234699494,111.34365742500741L1095.3034970005092,109.56358760900447L1101.0572705310692,102.82488079685349L1106.8110440616292,119.23858326653537L1112.564817592189,110.73254695396945L1118.3185911227488,108.88753691823322L1124.0723646533088,102.15459863786236L1129.8261381838686,140.00444832061075L1135.5799117144286,173.16239366995217L1141.3336852449884,270.48384187379685L1147.0874587755484,125.17482714546966L1152.8412323061082,107.29881956440903L1158.5950058366682,116.02519255711636L1164.348779367228,114.84119256180446L1170.102552897788,109.65057565265816L1175.8563264283478,117.00623224715825L1181.6100999589078,140.6538859077093L1187.3638734894676,123.35303279591602L1193.1176470200273,232.98534178315322L1198.8714205505873,109.46155891500389L1204.6251940811471,151.41658600856607L1210.3789676117071,180.8450870876433L1216.132741142267,145.16144495251092L1221.886514672827,131.93211358451984L1227.6402882033867,173.90688816724344L1233.3940617339467,143.99365346980818L1239.1478352645065,196.1791539805383L1244.9016087950665,133.54521448678884L1250.6553823256263,114.37730351533898L1256.409155856186,168.2443133450926L1262.162929386746,153.3868404244855L1267.916702917306,151.65199872882002L1273.670476447866,237.15197352179638L1279.4242499784257,165.00540661473207L1285.1780235089857,168.15615743917672L1290.9317970395457,131.85560091146075L1296.6855705701055,136.46986009931194L1302.4393441006653,196.5479330321628L1308.1931176312253,178.41444721204508L1313.9468911617853,168.0784769038554L1319.700664692345,168.7789111430715L1325.4544382229049,141.5584129246921L1331.2082117534649,128.16904903700944L1336.9619852840249,164.36527653596588L1342.7157588145847,118.64134558358214L1348.4695323451444,141.53172904148835L1354.2233058757045,173.74685564755188L1359.9770794062645,213.84066419276866L1365.7308529368242,173.7190392918514L1371.484626467384,108.98843313973713L1377.238399997944,155.1124100015842L1382.992173528504,120.28459856607607L1388.7459470590638,204.345430849208L1394.4997205896236,114.43994340031335L1400.2534941201836,277.9090924421964L1406.0072676507434,145.65311496491134L1411.7610411813032,134.1911130973352L1417.5148147118632,134.32099353680178L1423.2685882424232,159.64548506732737L1429.022361772983,140.55645788322656L1434.7761353035428,137.34306717380758L1440.5299088341028,138.68363149178987L1446.2836823646628,163.0015319215665L1452.0374558952226,351.5597509262799L1457.7912294257824,122.75462725070055L1463.5450029563424,125.50996822496525" style="fill: none;" fill="none"></path></g></g></g></g></g></g><g transform="translate(42, 376)" clip-path="url(#clip_1)"><clipPath id="clip_1"><rect width="1542" height="24"></rect></clipPath><g><g><line x1="13.594073255249496" y1="0" x2="13.594073255249496" y2="5" style="visibility: inherit;" fill="rgb(0, 0, 0)" stroke="rgb(204, 204, 204)" stroke-width="1px"></line><line x1="128.66954386644733" y1="0" x2="128.66954386644733" y2="5" style="visibility: inherit;" fill="rgb(0, 0, 0)" stroke="rgb(204, 204, 204)" stroke-width="1px"></line><line x1="243.74501447764516" y1="0" x2="243.74501447764516" y2="5" style="visibility: inherit;" fill="rgb(0, 0, 0)" stroke="rgb(204, 204, 204)" stroke-width="1px"></line><line x1="358.820485088843" y1="0" x2="358.820485088843" y2="5" style="visibility: inherit;" fill="rgb(0, 0, 0)" stroke="rgb(204, 204, 204)" stroke-width="1px"></line><line x1="473.8959557000409" y1="0" x2="473.8959557000409" y2="5" style="visibility: inherit;" fill="rgb(0, 0, 0)" stroke="rgb(204, 204, 204)" stroke-width="1px"></line><line x1="588.9714263112387" y1="0" x2="588.9714263112387" y2="5" style="visibility: inherit;" fill="rgb(0, 0, 0)" stroke="rgb(204, 204, 204)" stroke-width="1px"></line><line x1="704.0468969224365" y1="0" x2="704.0468969224365" y2="5" style="visibility: inherit;" fill="rgb(0, 0, 0)" stroke="rgb(204, 204, 204)" stroke-width="1px"></line><line x1="819.1223675336345" y1="0" x2="819.1223675336345" y2="5" style="visibility: inherit;" fill="rgb(0, 0, 0)" stroke="rgb(204, 204, 204)" stroke-width="1px"></line><line x1="934.1978381448322" y1="0" x2="934.1978381448322" y2="5" style="visibility: inherit;" fill="rgb(0, 0, 0)" stroke="rgb(204, 204, 204)" stroke-width="1px"></line><line x1="1049.27330875603" y1="0" x2="1049.27330875603" y2="5" style="visibility: inherit;" fill="rgb(0, 0, 0)" stroke="rgb(204, 204, 204)" stroke-width="1px"></line><line x1="1164.348779367228" y1="0" x2="1164.348779367228" y2="5" style="visibility: inherit;" fill="rgb(0, 0, 0)" stroke="rgb(204, 204, 204)" stroke-width="1px"></line><line x1="1279.4242499784257" y1="0" x2="1279.4242499784257" y2="5" style="visibility: inherit;" fill="rgb(0, 0, 0)" stroke="rgb(204, 204, 204)" stroke-width="1px"></line><line x1="1394.4997205896236" y1="0" x2="1394.4997205896236" y2="5" style="visibility: inherit;" fill="rgb(0, 0, 0)" stroke="rgb(204, 204, 204)" stroke-width="1px"></line><line x1="1509.5751912008216" y1="0" x2="1509.5751912008216" y2="5" style="visibility: inherit;" fill="rgb(0, 0, 0)" stroke="rgb(204, 204, 204)" stroke-width="1px"></line></g><g transform="translate(0, 8)"><text x="13.594073255249496" y="0" dx="0em" dy="0.95em" style="text-anchor: middle; visibility: inherit; font-family: Roboto, sans-serif; font-size: 12px; font-weight: 200;" fill="rgb(33, 33, 33)" stroke="none" stroke-width="1px">0</text><text x="128.66954386644733" y="0" dx="0em" dy="0.95em" style="text-anchor: middle; visibility: inherit; font-family: Roboto, sans-serif; font-size: 12px; font-weight: 200;" fill="rgb(33, 33, 33)" stroke="none" stroke-width="1px">2k</text><text x="243.74501447764516" y="0" dx="0em" dy="0.95em" style="text-anchor: middle; visibility: inherit; font-family: Roboto, sans-serif; font-size: 12px; font-weight: 200;" fill="rgb(33, 33, 33)" stroke="none" stroke-width="1px">4k</text><text x="358.820485088843" y="0" dx="0em" dy="0.95em" style="text-anchor: middle; visibility: inherit; font-family: Roboto, sans-serif; font-size: 12px; font-weight: 200;" fill="rgb(33, 33, 33)" stroke="none" stroke-width="1px">6k</text><text x="473.8959557000409" y="0" dx="0em" dy="0.95em" style="text-anchor: middle; visibility: inherit; font-family: Roboto, sans-serif; font-size: 12px; font-weight: 200;" fill="rgb(33, 33, 33)" stroke="none" stroke-width="1px">8k</text><text x="588.9714263112387" y="0" dx="0em" dy="0.95em" style="text-anchor: middle; visibility: inherit; font-family: Roboto, sans-serif; font-size: 12px; font-weight: 200;" fill="rgb(33, 33, 33)" stroke="none" stroke-width="1px">10k</text><text x="704.0468969224365" y="0" dx="0em" dy="0.95em" style="text-anchor: middle; visibility: inherit; font-family: Roboto, sans-serif; font-size: 12px; font-weight: 200;" fill="rgb(33, 33, 33)" stroke="none" stroke-width="1px">12k</text><text x="819.1223675336345" y="0" dx="0em" dy="0.95em" style="text-anchor: middle; visibility: inherit; font-family: Roboto, sans-serif; font-size: 12px; font-weight: 200;" fill="rgb(33, 33, 33)" stroke="none" stroke-width="1px">14k</text><text x="934.1978381448322" y="0" dx="0em" dy="0.95em" style="text-anchor: middle; visibility: inherit; font-family: Roboto, sans-serif; font-size: 12px; font-weight: 200;" fill="rgb(33, 33, 33)" stroke="none" stroke-width="1px">16k</text><text x="1049.27330875603" y="0" dx="0em" dy="0.95em" style="text-anchor: middle; visibility: inherit; font-family: Roboto, sans-serif; font-size: 12px; font-weight: 200;" fill="rgb(33, 33, 33)" stroke="none" stroke-width="1px">18k</text><text x="1164.348779367228" y="0" dx="0em" dy="0.95em" style="text-anchor: middle; visibility: inherit; font-family: Roboto, sans-serif; font-size: 12px; font-weight: 200;" fill="rgb(33, 33, 33)" stroke="none" stroke-width="1px">20k</text><text x="1279.4242499784257" y="0" dx="0em" dy="0.95em" style="text-anchor: middle; visibility: inherit; font-family: Roboto, sans-serif; font-size: 12px; font-weight: 200;" fill="rgb(33, 33, 33)" stroke="none" stroke-width="1px">22k</text><text x="1394.4997205896236" y="0" dx="0em" dy="0.95em" style="text-anchor: middle; visibility: inherit; font-family: Roboto, sans-serif; font-size: 12px; font-weight: 200;" fill="rgb(33, 33, 33)" stroke="none" stroke-width="1px">24k</text><text x="1509.5751912008216" y="0" dx="0em" dy="0.95em" style="text-anchor: middle; visibility: inherit; font-family: Roboto, sans-serif; font-size: 12px; font-weight: 200;" fill="rgb(33, 33, 33)" stroke="none" stroke-width="1px">26k</text></g><line x1="0" y1="0" x2="1542.209375" y2="0" fill="rgb(0, 0, 0)" stroke="rgb(204, 204, 204)" stroke-width="1px"></line></g></g></g></g></svg>