<svg viewBox="0 0 977 400" xmlns="http://www.w3.org/2000/svg"><g><g><g><g><g><line x1="74.78125" y1="369.6085532874749" x2="69.78125" y2="369.6085532874749" style="visibility: inherit;" fill="rgb(0, 0, 0)" stroke="rgb(204, 204, 204)" stroke-width="1px"></line><line x1="74.78125" y1="334.2833824362391" x2="69.78125" y2="334.2833824362391" style="visibility: inherit;" fill="rgb(0, 0, 0)" stroke="rgb(204, 204, 204)" stroke-width="1px"></line><line x1="74.78125" y1="298.9582115850033" x2="69.78125" y2="298.9582115850033" style="visibility: inherit;" fill="rgb(0, 0, 0)" stroke="rgb(204, 204, 204)" stroke-width="1px"></line><line x1="74.78125" y1="263.6330407337675" x2="69.78125" y2="263.6330407337675" style="visibility: inherit;" fill="rgb(0, 0, 0)" stroke="rgb(204, 204, 204)" stroke-width="1px"></line><line x1="74.78125" y1="228.30786988253172" x2="69.78125" y2="228.30786988253172" style="visibility: inherit;" fill="rgb(0, 0, 0)" stroke="rgb(204, 204, 204)" stroke-width="1px"></line><line x1="74.78125" y1="192.98269903129594" x2="69.78125" y2="192.98269903129594" style="visibility: inherit;" fill="rgb(0, 0, 0)" stroke="rgb(204, 204, 204)" stroke-width="1px"></line><line x1="74.78125" y1="157.65752818006013" x2="69.78125" y2="157.65752818006013" style="visibility: inherit;" fill="rgb(0, 0, 0)" stroke="rgb(204, 204, 204)" stroke-width="1px"></line><line x1="74.78125" y1="122.33235732882436" x2="69.78125" y2="122.33235732882436" style="visibility: inherit;" fill="rgb(0, 0, 0)" stroke="rgb(204, 204, 204)" stroke-width="1px"></line><line x1="74.78125" y1="87.00718647758856" x2="69.78125" y2="87.00718647758856" style="visibility: inherit;" fill="rgb(0, 0, 0)" stroke="rgb(204, 204, 204)" stroke-width="1px"></line><line x1="74.78125" y1="51.682015626352744" x2="69.78125" y2="51.682015626352744" style="visibility: inherit;" fill="rgb(0, 0, 0)" stroke="rgb(204, 204, 204)" stroke-width="1px"></line><line x1="74.78125" y1="16.356844775116976" x2="69.78125" y2="16.356844775116976" style="visibility: inherit;" fill="rgb(0, 0, 0)" stroke="rgb(204, 204, 204)" stroke-width="1px"></line></g><g transform="translate(64.78125, 0)"><text x="0" y="369.6085532874749" dx="0em" dy="0.3em" style="text-anchor: end; visibility: inherit; font-family: Roboto, sans-serif; font-size: 12px; font-weight: 200;" fill="rgb(33, 33, 33)" stroke="none" stroke-width="1px">0</text><text x="0" y="334.2833824362391" dx="0em" dy="0.3em" style="text-anchor: end; visibility: inherit; font-family: Roboto, sans-serif; font-size: 12px; font-weight: 200;" fill="rgb(33, 33, 33)" stroke="none" stroke-width="1px">5e-6</text><text x="0" y="298.9582115850033" dx="0em" dy="0.3em" style="text-anchor: end; visibility: inherit; font-family: Roboto, sans-serif; font-size: 12px; font-weight: 200;" fill="rgb(33, 33, 33)" stroke="none" stroke-width="1px">1e-5</text><text x="0" y="263.6330407337675" dx="0em" dy="0.3em" style="text-anchor: end; visibility: inherit; font-family: Roboto, sans-serif; font-size: 12px; font-weight: 200;" fill="rgb(33, 33, 33)" stroke="none" stroke-width="1px">1.5e-5</text><text x="0" y="228.30786988253172" dx="0em" dy="0.3em" style="text-anchor: end; visibility: inherit; font-family: Roboto, sans-serif; font-size: 12px; font-weight: 200;" fill="rgb(33, 33, 33)" stroke="none" stroke-width="1px">2e-5</text><text x="0" y="192.98269903129594" dx="0em" dy="0.3em" style="text-anchor: end; visibility: inherit; font-family: Roboto, sans-serif; font-size: 12px; font-weight: 200;" fill="rgb(33, 33, 33)" stroke="none" stroke-width="1px">2.5e-5</text><text x="0" y="157.65752818006013" dx="0em" dy="0.3em" style="text-anchor: end; visibility: inherit; font-family: Roboto, sans-serif; font-size: 12px; font-weight: 200;" fill="rgb(33, 33, 33)" stroke="none" stroke-width="1px">3e-5</text><text x="0" y="122.33235732882436" dx="0em" dy="0.3em" style="text-anchor: end; visibility: inherit; font-family: Roboto, sans-serif; font-size: 12px; font-weight: 200;" fill="rgb(33, 33, 33)" stroke="none" stroke-width="1px">3.5e-5</text><text x="0" y="87.00718647758856" dx="0em" dy="0.3em" style="text-anchor: end; visibility: inherit; font-family: Roboto, sans-serif; font-size: 12px; font-weight: 200;" fill="rgb(33, 33, 33)" stroke="none" stroke-width="1px">4e-5</text><text x="0" y="51.682015626352744" dx="0em" dy="0.3em" style="text-anchor: end; visibility: inherit; font-family: Roboto, sans-serif; font-size: 12px; font-weight: 200;" fill="rgb(33, 33, 33)" stroke="none" stroke-width="1px">4.5e-5</text><text x="0" y="16.356844775116976" dx="0em" dy="0.3em" style="text-anchor: end; visibility: inherit; font-family: Roboto, sans-serif; font-size: 12px; font-weight: 200;" fill="rgb(33, 33, 33)" stroke="none" stroke-width="1px">5e-5</text></g><line x1="74.78125" y1="0" x2="74.78125" y2="376" fill="rgb(0, 0, 0)" stroke="rgb(204, 204, 204)" stroke-width="1px"></line></g></g><g transform="translate(74, 0)" clip-path="url(#clip_0)"><clipPath id="clip_0"><rect width="902" height="376"></rect></clipPath><g><g><g><line x1="12.67478238420471" y1="0" x2="12.67478238420471" y2="376" fill="rgb(0, 0, 0)" stroke="rgb(66, 66, 66)" stroke-width="1px" opacity="0.25"></line><line x1="79.00180225478492" y1="0" x2="79.00180225478492" y2="376" fill="rgb(0, 0, 0)" stroke="rgb(66, 66, 66)" stroke-width="1px" opacity="0.25"></line><line x1="145.3288221253651" y1="0" x2="145.3288221253651" y2="376" fill="rgb(0, 0, 0)" stroke="rgb(66, 66, 66)" stroke-width="1px" opacity="0.25"></line><line x1="211.6558419959453" y1="0" x2="211.6558419959453" y2="376" fill="rgb(0, 0, 0)" stroke="rgb(66, 66, 66)" stroke-width="1px" opacity="0.25"></line><line x1="277.9828618665255" y1="0" x2="277.9828618665255" y2="376" fill="rgb(0, 0, 0)" stroke="rgb(66, 66, 66)" stroke-width="1px" opacity="0.25"></line><line x1="344.3098817371057" y1="0" x2="344.3098817371057" y2="376" fill="rgb(0, 0, 0)" stroke="rgb(66, 66, 66)" stroke-width="1px" opacity="0.25"></line><line x1="410.63690160768584" y1="0" x2="410.63690160768584" y2="376" fill="rgb(0, 0, 0)" stroke="rgb(66, 66, 66)" stroke-width="1px" opacity="0.25"></line><line x1="476.96392147826606" y1="0" x2="476.96392147826606" y2="376" fill="rgb(0, 0, 0)" stroke="rgb(66, 66, 66)" stroke-width="1px" opacity="0.25"></line><line x1="543.2909413488463" y1="0" x2="543.2909413488463" y2="376" fill="rgb(0, 0, 0)" stroke="rgb(66, 66, 66)" stroke-width="1px" opacity="0.25"></line><line x1="609.6179612194265" y1="0" x2="609.6179612194265" y2="376" fill="rgb(0, 0, 0)" stroke="rgb(66, 66, 66)" stroke-width="1px" opacity="0.25"></line><line x1="675.9449810900068" y1="0" x2="675.9449810900068" y2="376" fill="rgb(0, 0, 0)" stroke="rgb(66, 66, 66)" stroke-width="1px" opacity="0.25"></line><line x1="742.272000960587" y1="0" x2="742.272000960587" y2="376" fill="rgb(0, 0, 0)" stroke="rgb(66, 66, 66)" stroke-width="1px" opacity="0.25"></line><line x1="808.5990208311671" y1="0" x2="808.5990208311671" y2="376" fill="rgb(0, 0, 0)" stroke="rgb(66, 66, 66)" stroke-width="1px" opacity="0.25"></line><line x1="874.9260407017474" y1="0" x2="874.9260407017474" y2="376" fill="rgb(0, 0, 0)" stroke="rgb(66, 66, 66)" stroke-width="1px" opacity="0.25"></line></g><g><line x1="0" y1="369.6085532874749" x2="902.21875" y2="369.6085532874749" fill="rgb(0, 0, 0)" stroke="rgb(66, 66, 66)" stroke-width="1px" opacity="0.25"></line><line x1="0" y1="334.2833824362391" x2="902.21875" y2="334.2833824362391" fill="rgb(0, 0, 0)" stroke="rgb(66, 66, 66)" stroke-width="1px" opacity="0.25"></line><line x1="0" y1="298.9582115850033" x2="902.21875" y2="298.9582115850033" fill="rgb(0, 0, 0)" stroke="rgb(66, 66, 66)" stroke-width="1px" opacity="0.25"></line><line x1="0" y1="263.6330407337675" x2="902.21875" y2="263.6330407337675" fill="rgb(0, 0, 0)" stroke="rgb(66, 66, 66)" stroke-width="1px" opacity="0.25"></line><line x1="0" y1="228.30786988253172" x2="902.21875" y2="228.30786988253172" fill="rgb(0, 0, 0)" stroke="rgb(66, 66, 66)" stroke-width="1px" opacity="0.25"></line><line x1="0" y1="192.98269903129594" x2="902.21875" y2="192.98269903129594" fill="rgb(0, 0, 0)" stroke="rgb(66, 66, 66)" stroke-width="1px" opacity="0.25"></line><line x1="0" y1="157.65752818006013" x2="902.21875" y2="157.65752818006013" fill="rgb(0, 0, 0)" stroke="rgb(66, 66, 66)" stroke-width="1px" opacity="0.25"></line><line x1="0" y1="122.33235732882436" x2="902.21875" y2="122.33235732882436" fill="rgb(0, 0, 0)" stroke="rgb(66, 66, 66)" stroke-width="1px" opacity="0.25"></line><line x1="0" y1="87.00718647758856" x2="902.21875" y2="87.00718647758856" fill="rgb(0, 0, 0)" stroke="rgb(66, 66, 66)" stroke-width="1px" opacity="0.25"></line><line x1="0" y1="51.682015626352744" x2="902.21875" y2="51.682015626352744" fill="rgb(0, 0, 0)" stroke="rgb(66, 66, 66)" stroke-width="1px" opacity="0.25"></line><line x1="0" y1="16.356844775116976" x2="902.21875" y2="16.356844775116976" fill="rgb(0, 0, 0)" stroke="rgb(66, 66, 66)" stroke-width="1px" opacity="0.25"></line></g></g></g><g><g><line x1="0" y1="369.6085532874749" x2="902.21875" y2="369.6085532874749" fill="rgb(0, 0, 0)" stroke="rgb(153, 153, 153)" stroke-width="1.5px"></line></g></g><g><g><line x1="12.67478238420471" y1="0" x2="12.67478238420471" y2="376" fill="rgb(0, 0, 0)" stroke="rgb(153, 153, 153)" stroke-width="1.5px"></line></g></g><g><g><g><g><g><path stroke="rgb(255, 112, 67)" stroke-width="2px" d="M15.991133377733718,17.755580733198343L19.30748437126273,18.455306964627574L22.62383536479174,19.155257862011116L25.94018635832075,19.855446289298907L29.25653735184976,20.555864522743207L32.57288834537877,21.25651857223042L35.88923933890778,21.957403651321723L39.20559033243679,22.658523811550285L42.5219413259658,23.359875571891568L45.83829231949481,24.06146200464164L49.15464331302382,24.763280370468507L52.47099430655283,25.465333148150574L55.78734530008184,26.16761807755375L59.10369629361085,26.870137237961423L62.42004728713986,27.572888704647994L65.73639828066888,28.275874269220935L69.05274927419788,28.979092254971825L72.36910026772689,29.68254423632832L75.6854512612559,30.38622872745274L79.00180225478492,31.09014713292653L82.31815324831392,31.794298118391186L85.63450424184293,32.49868177131836L88.95085523537193,33.2032992935892L92.26720622890096,33.90814952103723L95.58355722242996,34.61323355548309L98.89990821595897,35.31855032808217L102.21625920948797,36.02410085591747L105.532610203017,36.729884150681876L108.848961196546,37.435901156806196L112.16531219007501,38.14215095496458L115.48166318360401,38.84863442663544L118.79801417713303,39.555350712257805L122.11436517066205,40.262300638250196L125.43071616419107,40.96948339734211L128.74706715772007,41.676899767394005L132.06341815124907,42.384548987279324L135.3797691447781,43.092431791723016L138.6961201383071,43.80054746062093L142.0124711318361,44.508896690125844L145.3288221253651,45.217478796846365L148.64517311889415,45.92629444223991L151.96152411242315,46.63534297596522L155.27787510595215,47.344625028104716L158.59422609948115,48.05413997822515L161.91057709301018,48.76388842790341L165.22692808653917,49.47386978390152L168.54327908006817,50.184084621777195L171.8596300735972,50.89453237313113L175.1759810671262,51.60521358967999L178.49233206065523,52.31612772579586L181.80868305418423,53.027275311269335L185.12503404771323,53.73865582142527L188.44138504124226,54.45026976581987L191.75773603477126,55.16211663912228L195.07408702830026,55.874196932159485L198.39043802182928,56.58651015750993L201.70678901535828,57.29905678861472L205.0231400088873,58.01183635468377L208.3394910024163,58.72484931297097L211.6558419959453,59.43809520817326L214.9721929894743,60.15157448243909L218.28854398300334,60.865286694916875L221.60489497653236,61.5792322736256L224.92124597006136,62.29341079123474L228.23759696359033,63.00782266251439L231.55394795711936,63.72246747280921L234.87029895064842,64.43734562444621L238.18664994417742,65.15245671467237L241.50300093770642,65.86780113410363L244.81935193123545,66.5833784911888L248.13570292476444,67.29918916550022L251.45205391829344,68.01523277604689L254.76840491182244,68.73150969196926L258.08475590535147,69.44801954224755L261.40110689888047,70.16476268615445L264.71745789240947,70.88173876209902L268.03380888593847,71.59894812000404L271.35015987946747,72.31639040720886L274.66651087299647,73.03406596476334L277.9828618665255,73.75197444847753L281.2992128600545,74.47011619097026L284.6155638535835,75.18849085609575L287.9319148471125,75.90709876845104L291.2482658406415,76.6259395995389L294.5646168341705,77.34501366631514L297.8809678276995,78.06432064756407L301.1973188212285,78.78386054463266L304.5136698147576,79.50363366354507L307.8300208082866,80.22363969325842L311.1463718018156,80.94387893300494L314.46272279534463,81.66435107822225L317.77907378887363,82.38505642164539L321.09542478240263,83.10599466490534L324.41177577593163,83.82716609451627L327.72812676946063,84.54857041803164L331.0444777629897,85.27020791600458L334.3608287565187,85.99207830165811L337.6771797500477,86.71418184982629L340.9935307435767,87.43651841544285L344.3098817371057,88.15908799386612L347.6262327306347,88.88189058040876L350.9425837241637,89.6049261703396L354.2589347176927,90.32819475888215L357.57528571122174,91.05169634121602L360.89163670475074,91.77543091247456L364.2079876982798,92.49939846774684L367.5243386918088,93.22359900207644L370.8406896853378,93.94803251046261L374.1570406788668,94.67269898785825L377.4733916723958,95.39759842917172L380.7897426659248,96.12273082926566L384.1060936594538,96.8480961829581L387.42244465298285,97.57369448502037L390.73879564651185,98.29952573017934L394.05514664004085,99.02558991311625L397.37149763356985,99.75188702846654L400.68784862709884,100.47841707082011L404.00419962062784,101.20518003472132L407.32055061415684,101.93217580017658L410.63690160768584,102.65940447804161L413.95325260121496,103.38686606267672L417.26960359474396,104.11456054839732L420.58595458827295,104.84248792947534L423.90230558180195,105.57064820013751L427.21865657533095,106.29904135456698L430.53500756885995,107.02766738690187L433.85135856238895,107.7565262912359L437.16770955591795,108.48561806161813L440.484060549447,109.21494269205265L443.800411542976,109.94450017649912L447.116762536505,110.67429050887252L450.433113530034,111.4043136830422L453.74946452356306,112.13456969283354L457.065815517092,112.86505853202634L460.38216651062106,113.59578019435502L463.69851750415,114.32673467350976L467.01486849767906,115.05792196313519L470.33121949120806,115.78934205683109L473.6475704847371,116.52099494815114L476.96392147826606,117.25288063060457L480.2802724717951,117.98499909765519L483.59662346532406,118.71735034272177L486.9129744588531,119.44993435917682L490.22932545238217,120.18275114034849L493.5456764459111,120.91580067951885L496.86202743944017,121.64908296992476L500.17837843296917,122.38259800475797L503.4947294264982,123.11634577716417L506.81108042002717,123.85032628024368L510.1274314135562,124.58453950705164L513.4437824070852,125.31898545059734L516.7601334006142,126.05366410384435L520.0764843941432,126.78857545971114L523.3928353876722,127.52371951106991L526.7091863812012,128.25909625074783L530.0255373747302,128.99470567152622L533.3418883682592,129.73054776614066L536.6582393617883,130.4666225272812L539.9745903553173,131.20292994759188L543.2909413488463,131.93947001967132L546.6072923423753,132.6762427360723L549.9236433359044,133.41324808930216L553.2399943294333,134.1504860718222L556.5563453229624,134.887956676048L559.8726963164913,135.62565989434947L563.1890473100204,136.36359571905058L566.5053983035494,137.10176414242966L569.8217492970784,137.84016515671937L573.1381002906074,138.5787987541064L576.4544512841364,139.3176649267317L579.7708022776656,140.0567636666903L583.0871532711944,140.79609496603166L586.4035042647236,141.5356588167592L589.7198552582524,142.27545521083053L593.0362062517816,143.01548414015758L596.3525572453105,143.75574555680825L599.6689082388395,144.4962394928517L602.9852592323685,145.23696594005463L606.3016102258975,145.97792489013779L609.6179612194265,146.71911633477688L612.9343122129555,147.46054026560154L616.2506632064845,148.20219667419548L619.5670142000135,148.9440855520971L622.8833651935425,149.68620689079884L626.1997161870717,150.42856068174774L629.5160671806007,151.17114691634472L632.8324181741297,151.9139655859454L636.1487691676587,152.6570166818591L639.4651201611877,153.4003001953499L642.7814711547167,154.14381611763585L646.0978221482457,154.88756443988947L649.4141731417747,155.6315451532375L652.7305241353037,156.37575824876086L656.0468751288328,157.12020371749458L659.3632261223617,157.864881550428L662.6795771158908,158.60979173850527L665.9959281094197,159.35493427262378L669.3122791029488,160.10030914363594L672.6286300964777,160.845916342348L675.9449810900068,161.59175585952065L679.2613320835359,162.33782765059624L682.5776830770648,163.08413174186677L685.8940340705939,163.83066812395043L689.2103850641228,164.57743678741966L692.5267360576519,165.32443772280158L695.8430870511808,166.07167092057722L699.1594380447099,166.8191363711821L702.4757890382389,167.56683406500596L705.7921400317679,168.31476399239313L709.1084910252969,169.06292614364216L712.4248420188259,169.81132050900584L715.7411930123549,170.55994707869138L719.0575440058839,171.30880584286035L722.3738949994129,172.05789679162845L725.6902459929419,172.80721991506604L729.006596986471,173.55677520319753L732.32294798,174.30656264600185L735.639298973529,175.0565822334123L738.955649967058,175.80683395531608L742.272000960587,176.55731780155526L745.588351954116,177.30803376192608L748.904702947645,178.05898182617906L752.221053941174,178.8101619840191L755.537404934703,179.56157422510546L758.853755928232,180.313218523113L762.1701069217611,181.06509488369002L765.48645791529,181.8172032963569L768.8028089088191,182.56954375058854L772.119159902348,183.32211623581404L775.4355108958771,184.07492074141712L778.7518618894061,184.8279572567357L782.0682128829351,185.5812257710621L785.3845638764641,186.33472627364333L788.7009148699931,187.08845875368038L792.0172658635222,187.84242320032905L795.3336168570511,188.59661960269915L798.6499678505802,189.35104794224574L801.9663188441091,190.10570821566145L805.2826698376382,190.86060041191877L808.5990208311671,191.6157245199446L811.9153718246962,192.3710805286202L815.2317228182252,193.1266684267816L818.5480738117542,193.88248820321903L821.8644248052832,194.63853984296895L825.1807757988122,195.39482333846928L828.4971267923413,196.1513386783732L831.8134777858702,196.90808585128846L835.1298287793993,197.66506484394955L838.4461797729282,198.42227564489474L841.7625307664573,199.1797182444305L845.0788817599863,199.9373926291741L848.3952327535153,200.6952987886522" style="fill: none;" fill="none"></path></g></g></g></g><g opacity="0.2"><g><g><g><path stroke="rgb(255, 112, 67)" stroke-width="2px" d="M15.991133377733718,17.755580733198343L19.30748437126273,19.154333469835517L22.62383536479174,20.55306050402811L25.94018635832075,21.951813240665285L29.25653735184976,23.350540274857917L32.57288834537877,24.74929301149509L35.88923933890778,26.14802004568768L39.20559033243679,27.546772782324858L42.5219413259658,28.945499816517447L45.83829231949481,30.344252553154664L49.15464331302382,31.742979587347254L52.47099430655283,33.14173232398443L55.78734530008184,34.54045935817702L59.10369629361085,35.939212094814195L62.42004728713986,37.337939129006784L65.73639828066888,38.736691865644005L69.05274927419788,40.135418899836594L72.36910026772689,41.534171636473765L75.6854512612559,42.932898670666354L79.00180225478492,44.33165140730353L82.31815324831392,45.730378441496164L85.63450424184293,47.12910547568875L88.95085523537193,48.52785821232593L92.26720622890096,49.92658524651852L95.58355722242996,51.32533798315569L98.89990821595897,52.72406501734832L102.21625920948797,54.1228177539855L105.532610203017,55.52154478817809L108.848961196546,56.92029752481527L112.16531219007501,58.31902455900786L115.48166318360401,59.717777295645035L118.79801417713303,61.11650432983767L122.11436517066205,62.51525706647484L125.43071616419107,63.91398410066743L128.74706715772007,65.31273683730461L132.06341815124907,66.7114638714972L135.3797691447781,68.11021660813441L138.6961201383071,69.508943642327L142.0124711318361,70.90769637896418L145.3288221253651,72.30642341315676L148.64517311889415,73.70517614979394L151.96152411242315,75.10390318398657L155.27787510595215,76.50265592062375L158.59422609948115,77.90138295481634L161.91057709301018,79.30013569145352L165.22692808653917,80.69886272564611L168.54327908006817,82.09761546228329L171.8596300735972,83.49634249647592L175.1759810671262,84.89509523311308L178.49233206065523,86.29382226730567L181.80868305418423,87.69257500394285L185.12503404771323,89.09130203813544L188.44138504124226,90.49005477477266L191.75773603477126,91.88878180896525L195.07408702830026,93.28753454560243L198.39043802182928,94.68626157979502L201.70678901535828,96.0850143164322L205.0231400088873,97.48374135062478L208.3394910024163,98.882494087262L211.6558419959453,100.28122112145459L214.9721929894743,101.67997385809177L218.28854398300334,103.07870089228436L221.60489497653236,104.47745362892152L224.92124597006136,105.87618066311416L228.23759696359033,107.27493339975133L231.55394795711936,108.67366043394392L234.87029895064842,110.0724131705811L238.18664994417742,111.47114020477369L241.50300093770642,112.86989294141087L244.81935193123545,114.2686199756035L248.13570292476444,115.66737271224068L251.45205391829344,117.06609974643327L254.76840491182244,118.46485248307044L258.08475590535147,119.86357951726303L261.40110689888047,121.26233225390024L264.71745789240947,122.66105928809284L268.03380888593847,124.05981202473001L271.35015987946747,125.4585390589226L274.66651087299647,126.85729179555977L277.9828618665255,128.2560188297524L281.2992128600545,129.6547715663896L284.6155638535835,131.05349860058217L287.9319148471125,132.45225133721934L291.2482658406415,133.85097837141194L294.5646168341705,135.2497311080491L297.8809678276995,136.64845814224174L301.1973188212285,138.04718517643434L304.5136698147576,139.4459379130715L307.8300208082866,140.8446649472641L311.1463718018156,142.24341768390127L314.46272279534463,143.6421447180939L317.77907378887363,145.0408974547311L321.09542478240263,146.43962448892367L324.41177577593163,147.83837722556086L327.72812676946063,149.23710425975344L331.0444777629897,150.63585699639066L334.3608287565187,152.03458403058326L337.6771797500477,153.43333676722042L340.9935307435767,154.8320766526353L344.3098817371057,156.2308165380502L347.6262327306347,157.62955642346506L350.9425837241637,159.02829630888L354.2589347176927,160.42703619429489L357.57528571122174,161.82577607970975L360.89163670475074,163.22451596512465L364.2079876982798,164.62325585053952L367.5243386918088,166.02199573595445L370.8406896853378,167.42073562136935L374.1570406788668,168.81947550678422L377.4733916723958,170.2182153921991L380.7897426659248,171.61695527761398L384.1060936594538,173.01569516302885L387.42244465298285,174.41443504844378L390.73879564651185,175.81317493385868L394.05514664004085,177.21191481927355L397.37149763356985,178.61065470468844L400.68784862709884,180.0093945901033L404.00419962062784,181.40813447551824L407.32055061415684,182.80686150971084L410.63690160768584,184.2056013951257L413.95325260121496,185.6043412805406L417.26960359474396,187.00308116595548L420.58595458827295,188.40182105137038L423.90230558180195,189.8005609367853L427.21865657533095,191.19930082220017L430.53500756885995,192.59804070761504L433.85135856238895,193.99678059302997L437.16770955591795,195.3955204784448L440.484060549447,196.79426036385973L443.800411542976,198.19300024927463L447.116762536505,199.5917401346895L450.433113530034,200.9904800201044L453.74946452356306,202.38921990551927L457.065815517092,203.7879597909342L460.38216651062106,205.1866996763491L463.69851750415,206.58543956176396L467.01486849767906,207.98417944717886L470.33121949120806,209.38291933259373L473.6475704847371,210.78165921800866L476.96392147826606,212.1803991034235L480.2802724717951,213.57913898883842L483.59662346532406,214.9778788742533L486.9129744588531,216.3766187596682L490.22932545238217,217.77535864508312L493.5456764459111,219.17409853049796L496.86202743944017,220.57283841591288L500.17837843296917,221.97157830132775L503.4947294264982,223.37031818674265L506.81108042002717,224.76905807215758L510.1274314135562,226.16779795757242L513.4437824070852,227.56653784298734L516.7601334006142,228.9652777284022L520.0764843941432,230.3640176138171L523.3928353876722,231.762757499232L526.7091863812012,233.16149738464685L530.0255373747302,234.56023727006178L533.3418883682592,235.95897715547667L536.6582393617883,237.35771704089154L539.9745903553173,238.75645692630644L543.2909413488463,240.1551968117213L546.6072923423753,241.55393669713624L549.9236433359044,242.95267658255113L553.2399943294333,244.351416467966L556.5563453229624,245.7501563533809L559.8726963164913,247.14889623879577L563.1890473100204,248.5476361242107L566.5053983035494,249.94637600962554L569.8217492970784,251.34511589504046L573.1381002906074,252.74385578045533L576.4544512841364,254.14259566587023L579.7708022776656,255.54133555128516L583.0871532711944,256.9400754367L586.4035042647236,258.3388153221149L589.7198552582524,259.7375552075298L593.0362062517816,261.1362950929447L596.3525572453105,262.53502855274843L599.6689082388395,263.9337684381633L602.9852592323685,265.3325083235782L606.3016102258975,266.7312482089931L609.6179612194265,268.129988094408L612.9343122129555,269.52872797982286L616.2506632064845,270.9274678652378L619.5670142000135,272.32620775065266L622.8833651935425,273.72494763606755L626.1997161870717,275.12368752148245L629.5160671806007,276.52242740689735L632.8324181741297,277.92116729231225L636.1487691676587,279.3199071777271L639.4651201611877,280.71864706314204L642.7814711547167,282.1173869485569L646.0978221482457,283.5161268339718L649.4141731417747,284.9148667193867L652.7305241353037,286.3136066048016L656.0468751288328,287.7123464902165L659.3632261223617,289.1110863756314L662.6795771158908,290.5098262610462L665.9959281094197,291.9085661464611L669.3122791029488,293.307306031876L672.6286300964777,294.7060459172909L675.9449810900068,296.1047858027058L679.2613320835359,297.50351926250954L682.5776830770648,298.90225914792444L685.8940340705939,300.30099903333934L689.2103850641228,301.6997389187542L692.5267360576519,303.09847880416913L695.8430870511808,304.49721868958403L699.1594380447099,305.8959585749989L702.4757890382389,307.29469846041377L705.7921400317679,308.69343834582867L709.1084910252969,310.09217823124357L712.4248420188259,311.49091811665846L715.7411930123549,312.88965800207336L719.0575440058839,314.2883978874882L722.3738949994129,315.6871377729031L725.6902459929419,317.08587765831805L729.006596986471,318.4846175437329L732.32294798,319.8833574291478L735.639298973529,321.2820973145627L738.955649967058,322.6808371999776L742.272000960587,324.0795770853925L745.588351954116,325.4783169708073L748.904702947645,326.8770568562222L752.221053941174,328.2757967416371L755.537404934703,329.674536627052L758.853755928232,331.07327329966137L762.1701069217611,332.4720131850762L765.48645791529,333.8707530704911L768.8028089088191,335.269492955906L772.119159902348,336.6682328413209L775.4355108958771,338.0669727267358L778.7518618894061,339.4657126121507L782.0682128829351,340.8644524975656L785.3845638764641,342.26319238298044L788.7009148699931,343.6619322683954L792.0172658635222,345.0606721538103L795.3336168570511,346.4594120392251L798.6499678505802,347.8581503182372L801.9663188441091,349.2568902036521L805.2826698376382,350.655630089067L808.5990208311671,352.0543699744819L811.9153718246962,353.4531098598968L815.2317228182252,354.8518497453117L818.5480738117542,356.2505896307266L821.8644248052832,357.6493287129401L825.1807757988122,359.048068598355L828.4971267923413,360.44680848376987L831.8134777858702,361.84554836918477L835.1298287793993,363.244287852999L838.4461797729282,364.64302733681313L841.7625307664573,366.04176722222803L845.0788817599863,367.44050670604224L848.3952327535153,368.83924644085687" style="fill: none;" fill="none"></path></g></g></g></g></g></g><g transform="translate(74, 376)" clip-path="url(#clip_1)"><clipPath id="clip_1"><rect width="902" height="24"></rect></clipPath><g><g><line x1="12.67478238420471" y1="0" x2="12.67478238420471" y2="5" style="visibility: inherit;" fill="rgb(0, 0, 0)" stroke="rgb(204, 204, 204)" stroke-width="1px"></line><line x1="79.00180225478492" y1="0" x2="79.00180225478492" y2="5" style="visibility: inherit;" fill="rgb(0, 0, 0)" stroke="rgb(204, 204, 204)" stroke-width="1px"></line><line x1="145.3288221253651" y1="0" x2="145.3288221253651" y2="5" style="visibility: inherit;" fill="rgb(0, 0, 0)" stroke="rgb(204, 204, 204)" stroke-width="1px"></line><line x1="211.6558419959453" y1="0" x2="211.6558419959453" y2="5" style="visibility: inherit;" fill="rgb(0, 0, 0)" stroke="rgb(204, 204, 204)" stroke-width="1px"></line><line x1="277.9828618665255" y1="0" x2="277.9828618665255" y2="5" style="visibility: inherit;" fill="rgb(0, 0, 0)" stroke="rgb(204, 204, 204)" stroke-width="1px"></line><line x1="344.3098817371057" y1="0" x2="344.3098817371057" y2="5" style="visibility: inherit;" fill="rgb(0, 0, 0)" stroke="rgb(204, 204, 204)" stroke-width="1px"></line><line x1="410.63690160768584" y1="0" x2="410.63690160768584" y2="5" style="visibility: inherit;" fill="rgb(0, 0, 0)" stroke="rgb(204, 204, 204)" stroke-width="1px"></line><line x1="476.96392147826606" y1="0" x2="476.96392147826606" y2="5" style="visibility: inherit;" fill="rgb(0, 0, 0)" stroke="rgb(204, 204, 204)" stroke-width="1px"></line><line x1="543.2909413488463" y1="0" x2="543.2909413488463" y2="5" style="visibility: inherit;" fill="rgb(0, 0, 0)" stroke="rgb(204, 204, 204)" stroke-width="1px"></line><line x1="609.6179612194265" y1="0" x2="609.6179612194265" y2="5" style="visibility: inherit;" fill="rgb(0, 0, 0)" stroke="rgb(204, 204, 204)" stroke-width="1px"></line><line x1="675.9449810900068" y1="0" x2="675.9449810900068" y2="5" style="visibility: inherit;" fill="rgb(0, 0, 0)" stroke="rgb(204, 204, 204)" stroke-width="1px"></line><line x1="742.272000960587" y1="0" x2="742.272000960587" y2="5" style="visibility: inherit;" fill="rgb(0, 0, 0)" stroke="rgb(204, 204, 204)" stroke-width="1px"></line><line x1="808.5990208311671" y1="0" x2="808.5990208311671" y2="5" style="visibility: inherit;" fill="rgb(0, 0, 0)" stroke="rgb(204, 204, 204)" stroke-width="1px"></line><line x1="874.9260407017474" y1="0" x2="874.9260407017474" y2="5" style="visibility: inherit;" fill="rgb(0, 0, 0)" stroke="rgb(204, 204, 204)" stroke-width="1px"></line></g><g transform="translate(0, 8)"><text x="12.67478238420471" y="0" dx="0em" dy="0.95em" style="text-anchor: middle; visibility: inherit; font-family: Roboto, sans-serif; font-size: 12px; font-weight: 200;" fill="rgb(33, 33, 33)" stroke="none" stroke-width="1px">0</text><text x="79.00180225478492" y="0" dx="0em" dy="0.95em" style="text-anchor: middle; visibility: inherit; font-family: Roboto, sans-serif; font-size: 12px; font-weight: 200;" fill="rgb(33, 33, 33)" stroke="none" stroke-width="1px">2k</text><text x="145.3288221253651" y="0" dx="0em" dy="0.95em" style="text-anchor: middle; visibility: inherit; font-family: Roboto, sans-serif; font-size: 12px; font-weight: 200;" fill="rgb(33, 33, 33)" stroke="none" stroke-width="1px">4k</text><text x="211.6558419959453" y="0" dx="0em" dy="0.95em" style="text-anchor: middle; visibility: inherit; font-family: Roboto, sans-serif; font-size: 12px; font-weight: 200;" fill="rgb(33, 33, 33)" stroke="none" stroke-width="1px">6k</text><text x="277.9828618665255" y="0" dx="0em" dy="0.95em" style="text-anchor: middle; visibility: inherit; font-family: Roboto, sans-serif; font-size: 12px; font-weight: 200;" fill="rgb(33, 33, 33)" stroke="none" stroke-width="1px">8k</text><text x="344.3098817371057" y="0" dx="0em" dy="0.95em" style="text-anchor: middle; visibility: inherit; font-family: Roboto, sans-serif; font-size: 12px; font-weight: 200;" fill="rgb(33, 33, 33)" stroke="none" stroke-width="1px">10k</text><text x="410.63690160768584" y="0" dx="0em" dy="0.95em" style="text-anchor: middle; visibility: inherit; font-family: Roboto, sans-serif; font-size: 12px; font-weight: 200;" fill="rgb(33, 33, 33)" stroke="none" stroke-width="1px">12k</text><text x="476.96392147826606" y="0" dx="0em" dy="0.95em" style="text-anchor: middle; visibility: inherit; font-family: Roboto, sans-serif; font-size: 12px; font-weight: 200;" fill="rgb(33, 33, 33)" stroke="none" stroke-width="1px">14k</text><text x="543.2909413488463" y="0" dx="0em" dy="0.95em" style="text-anchor: middle; visibility: inherit; font-family: Roboto, sans-serif; font-size: 12px; font-weight: 200;" fill="rgb(33, 33, 33)" stroke="none" stroke-width="1px">16k</text><text x="609.6179612194265" y="0" dx="0em" dy="0.95em" style="text-anchor: middle; visibility: inherit; font-family: Roboto, sans-serif; font-size: 12px; font-weight: 200;" fill="rgb(33, 33, 33)" stroke="none" stroke-width="1px">18k</text><text x="675.9449810900068" y="0" dx="0em" dy="0.95em" style="text-anchor: middle; visibility: inherit; font-family: Roboto, sans-serif; font-size: 12px; font-weight: 200;" fill="rgb(33, 33, 33)" stroke="none" stroke-width="1px">20k</text><text x="742.272000960587" y="0" dx="0em" dy="0.95em" style="text-anchor: middle; visibility: inherit; font-family: Roboto, sans-serif; font-size: 12px; font-weight: 200;" fill="rgb(33, 33, 33)" stroke="none" stroke-width="1px">22k</text><text x="808.5990208311671" y="0" dx="0em" dy="0.95em" style="text-anchor: middle; visibility: inherit; font-family: Roboto, sans-serif; font-size: 12px; font-weight: 200;" fill="rgb(33, 33, 33)" stroke="none" stroke-width="1px">24k</text><text x="874.9260407017474" y="0" dx="0em" dy="0.95em" style="text-anchor: middle; visibility: inherit; font-family: Roboto, sans-serif; font-size: 12px; font-weight: 200;" fill="rgb(33, 33, 33)" stroke="none" stroke-width="1px">26k</text></g><line x1="0" y1="0" x2="902.21875" y2="0" fill="rgb(0, 0, 0)" stroke="rgb(204, 204, 204)" stroke-width="1px"></line></g></g></g></g></svg>