<svg viewBox="0 0 1584.5999755859375 400" xmlns="http://www.w3.org/2000/svg"><g><g><g><g><g><line x1="42.390625" y1="363.8409991422641" x2="37.390625" y2="363.8409991422641" style="visibility: inherit;" fill="rgb(0, 0, 0)" stroke="rgb(204, 204, 204)" stroke-width="1px"></line><line x1="42.390625" y1="329.20298069354266" x2="37.390625" y2="329.20298069354266" style="visibility: inherit;" fill="rgb(0, 0, 0)" stroke="rgb(204, 204, 204)" stroke-width="1px"></line><line x1="42.390625" y1="294.5649622448212" x2="37.390625" y2="294.5649622448212" style="visibility: inherit;" fill="rgb(0, 0, 0)" stroke="rgb(204, 204, 204)" stroke-width="1px"></line><line x1="42.390625" y1="259.92694379609975" x2="37.390625" y2="259.92694379609975" style="visibility: inherit;" fill="rgb(0, 0, 0)" stroke="rgb(204, 204, 204)" stroke-width="1px"></line><line x1="42.390625" y1="225.2889253473783" x2="37.390625" y2="225.2889253473783" style="visibility: inherit;" fill="rgb(0, 0, 0)" stroke="rgb(204, 204, 204)" stroke-width="1px"></line><line x1="42.390625" y1="190.6509068986569" x2="37.390625" y2="190.6509068986569" style="visibility: inherit;" fill="rgb(0, 0, 0)" stroke="rgb(204, 204, 204)" stroke-width="1px"></line><line x1="42.390625" y1="156.0128884499355" x2="37.390625" y2="156.0128884499355" style="visibility: inherit;" fill="rgb(0, 0, 0)" stroke="rgb(204, 204, 204)" stroke-width="1px"></line><line x1="42.390625" y1="121.37487000121406" x2="37.390625" y2="121.37487000121406" style="visibility: inherit;" fill="rgb(0, 0, 0)" stroke="rgb(204, 204, 204)" stroke-width="1px"></line><line x1="42.390625" y1="86.73685155249261" x2="37.390625" y2="86.73685155249261" style="visibility: inherit;" fill="rgb(0, 0, 0)" stroke="rgb(204, 204, 204)" stroke-width="1px"></line><line x1="42.390625" y1="52.098833103771184" x2="37.390625" y2="52.098833103771184" style="visibility: inherit;" fill="rgb(0, 0, 0)" stroke="rgb(204, 204, 204)" stroke-width="1px"></line><line x1="42.390625" y1="17.46081465504972" x2="37.390625" y2="17.46081465504972" style="visibility: inherit;" fill="rgb(0, 0, 0)" stroke="rgb(204, 204, 204)" stroke-width="1px"></line></g><g transform="translate(32.390625, 0)"><text x="0" y="363.8409991422641" dx="0em" dy="0.3em" style="text-anchor: end; visibility: inherit; font-family: Roboto, sans-serif; font-size: 12px; font-weight: 200;" fill="rgb(33, 33, 33)" stroke="none" stroke-width="1px">0</text><text x="0" y="329.20298069354266" dx="0em" dy="0.3em" style="text-anchor: end; visibility: inherit; font-family: Roboto, sans-serif; font-size: 12px; font-weight: 200;" fill="rgb(33, 33, 33)" stroke="none" stroke-width="1px">0.1</text><text x="0" y="294.5649622448212" dx="0em" dy="0.3em" style="text-anchor: end; visibility: inherit; font-family: Roboto, sans-serif; font-size: 12px; font-weight: 200;" fill="rgb(33, 33, 33)" stroke="none" stroke-width="1px">0.2</text><text x="0" y="259.92694379609975" dx="0em" dy="0.3em" style="text-anchor: end; visibility: inherit; font-family: Roboto, sans-serif; font-size: 12px; font-weight: 200;" fill="rgb(33, 33, 33)" stroke="none" stroke-width="1px">0.3</text><text x="0" y="225.2889253473783" dx="0em" dy="0.3em" style="text-anchor: end; visibility: inherit; font-family: Roboto, sans-serif; font-size: 12px; font-weight: 200;" fill="rgb(33, 33, 33)" stroke="none" stroke-width="1px">0.4</text><text x="0" y="190.6509068986569" dx="0em" dy="0.3em" style="text-anchor: end; visibility: inherit; font-family: Roboto, sans-serif; font-size: 12px; font-weight: 200;" fill="rgb(33, 33, 33)" stroke="none" stroke-width="1px">0.5</text><text x="0" y="156.0128884499355" dx="0em" dy="0.3em" style="text-anchor: end; visibility: inherit; font-family: Roboto, sans-serif; font-size: 12px; font-weight: 200;" fill="rgb(33, 33, 33)" stroke="none" stroke-width="1px">0.6</text><text x="0" y="121.37487000121406" dx="0em" dy="0.3em" style="text-anchor: end; visibility: inherit; font-family: Roboto, sans-serif; font-size: 12px; font-weight: 200;" fill="rgb(33, 33, 33)" stroke="none" stroke-width="1px">0.7</text><text x="0" y="86.73685155249261" dx="0em" dy="0.3em" style="text-anchor: end; visibility: inherit; font-family: Roboto, sans-serif; font-size: 12px; font-weight: 200;" fill="rgb(33, 33, 33)" stroke="none" stroke-width="1px">0.8</text><text x="0" y="52.098833103771184" dx="0em" dy="0.3em" style="text-anchor: end; visibility: inherit; font-family: Roboto, sans-serif; font-size: 12px; font-weight: 200;" fill="rgb(33, 33, 33)" stroke="none" stroke-width="1px">0.9</text><text x="0" y="17.46081465504972" dx="0em" dy="0.3em" style="text-anchor: end; visibility: inherit; font-family: Roboto, sans-serif; font-size: 12px; font-weight: 200;" fill="rgb(33, 33, 33)" stroke="none" stroke-width="1px">1</text></g><line x1="42.390625" y1="0" x2="42.390625" y2="376" fill="rgb(0, 0, 0)" stroke="rgb(204, 204, 204)" stroke-width="1px"></line></g></g><g transform="translate(42, 0)" clip-path="url(#clip_0)"><clipPath id="clip_0"><rect width="1542" height="376"></rect></clipPath><g><g><g><line x1="15.615478908087132" y1="0" x2="15.615478908087132" y2="376" fill="rgb(0, 0, 0)" stroke="rgb(66, 66, 66)" stroke-width="1px" opacity="0.25"></line><line x1="129.1021653518898" y1="0" x2="129.1021653518898" y2="376" fill="rgb(0, 0, 0)" stroke="rgb(66, 66, 66)" stroke-width="1px" opacity="0.25"></line><line x1="242.58885179569245" y1="0" x2="242.58885179569245" y2="376" fill="rgb(0, 0, 0)" stroke="rgb(66, 66, 66)" stroke-width="1px" opacity="0.25"></line><line x1="356.0755382394951" y1="0" x2="356.0755382394951" y2="376" fill="rgb(0, 0, 0)" stroke="rgb(66, 66, 66)" stroke-width="1px" opacity="0.25"></line><line x1="469.56222468329787" y1="0" x2="469.56222468329787" y2="376" fill="rgb(0, 0, 0)" stroke="rgb(66, 66, 66)" stroke-width="1px" opacity="0.25"></line><line x1="583.0489111271005" y1="0" x2="583.0489111271005" y2="376" fill="rgb(0, 0, 0)" stroke="rgb(66, 66, 66)" stroke-width="1px" opacity="0.25"></line><line x1="696.5355975709032" y1="0" x2="696.5355975709032" y2="376" fill="rgb(0, 0, 0)" stroke="rgb(66, 66, 66)" stroke-width="1px" opacity="0.25"></line><line x1="810.0222840147056" y1="0" x2="810.0222840147056" y2="376" fill="rgb(0, 0, 0)" stroke="rgb(66, 66, 66)" stroke-width="1px" opacity="0.25"></line><line x1="923.5089704585084" y1="0" x2="923.5089704585084" y2="376" fill="rgb(0, 0, 0)" stroke="rgb(66, 66, 66)" stroke-width="1px" opacity="0.25"></line><line x1="1036.9956569023109" y1="0" x2="1036.9956569023109" y2="376" fill="rgb(0, 0, 0)" stroke="rgb(66, 66, 66)" stroke-width="1px" opacity="0.25"></line><line x1="1150.4823433461138" y1="0" x2="1150.4823433461138" y2="376" fill="rgb(0, 0, 0)" stroke="rgb(66, 66, 66)" stroke-width="1px" opacity="0.25"></line><line x1="1263.9690297899162" y1="0" x2="1263.9690297899162" y2="376" fill="rgb(0, 0, 0)" stroke="rgb(66, 66, 66)" stroke-width="1px" opacity="0.25"></line><line x1="1377.455716233719" y1="0" x2="1377.455716233719" y2="376" fill="rgb(0, 0, 0)" stroke="rgb(66, 66, 66)" stroke-width="1px" opacity="0.25"></line><line x1="1490.9424026775216" y1="0" x2="1490.9424026775216" y2="376" fill="rgb(0, 0, 0)" stroke="rgb(66, 66, 66)" stroke-width="1px" opacity="0.25"></line></g><g><line x1="0" y1="363.8409991422641" x2="1542.209375" y2="363.8409991422641" fill="rgb(0, 0, 0)" stroke="rgb(66, 66, 66)" stroke-width="1px" opacity="0.25"></line><line x1="0" y1="329.20298069354266" x2="1542.209375" y2="329.20298069354266" fill="rgb(0, 0, 0)" stroke="rgb(66, 66, 66)" stroke-width="1px" opacity="0.25"></line><line x1="0" y1="294.5649622448212" x2="1542.209375" y2="294.5649622448212" fill="rgb(0, 0, 0)" stroke="rgb(66, 66, 66)" stroke-width="1px" opacity="0.25"></line><line x1="0" y1="259.92694379609975" x2="1542.209375" y2="259.92694379609975" fill="rgb(0, 0, 0)" stroke="rgb(66, 66, 66)" stroke-width="1px" opacity="0.25"></line><line x1="0" y1="225.2889253473783" x2="1542.209375" y2="225.2889253473783" fill="rgb(0, 0, 0)" stroke="rgb(66, 66, 66)" stroke-width="1px" opacity="0.25"></line><line x1="0" y1="190.6509068986569" x2="1542.209375" y2="190.6509068986569" fill="rgb(0, 0, 0)" stroke="rgb(66, 66, 66)" stroke-width="1px" opacity="0.25"></line><line x1="0" y1="156.0128884499355" x2="1542.209375" y2="156.0128884499355" fill="rgb(0, 0, 0)" stroke="rgb(66, 66, 66)" stroke-width="1px" opacity="0.25"></line><line x1="0" y1="121.37487000121406" x2="1542.209375" y2="121.37487000121406" fill="rgb(0, 0, 0)" stroke="rgb(66, 66, 66)" stroke-width="1px" opacity="0.25"></line><line x1="0" y1="86.73685155249261" x2="1542.209375" y2="86.73685155249261" fill="rgb(0, 0, 0)" stroke="rgb(66, 66, 66)" stroke-width="1px" opacity="0.25"></line><line x1="0" y1="52.098833103771184" x2="1542.209375" y2="52.098833103771184" fill="rgb(0, 0, 0)" stroke="rgb(66, 66, 66)" stroke-width="1px" opacity="0.25"></line><line x1="0" y1="17.46081465504972" x2="1542.209375" y2="17.46081465504972" fill="rgb(0, 0, 0)" stroke="rgb(66, 66, 66)" stroke-width="1px" opacity="0.25"></line></g></g></g><g><g><line x1="0" y1="363.8409991422641" x2="1542.209375" y2="363.8409991422641" fill="rgb(0, 0, 0)" stroke="rgb(153, 153, 153)" stroke-width="1.5px"></line></g></g><g><g><line x1="15.615478908087132" y1="0" x2="15.615478908087132" y2="376" fill="rgb(0, 0, 0)" stroke="rgb(153, 153, 153)" stroke-width="1.5px"></line></g></g><g><g><g><g><g><path stroke="rgb(255, 112, 67)" stroke-width="2px" d="M21.289813230277264,187.29101901003074L26.964147552467395,211.7403638646758L32.63848187465753,212.6551118197226L38.31281619684766,215.75759904659898L43.98715051903779,219.7431815925918L49.661484841227924,219.09559918588013L55.33581916341805,219.82419696693927L61.010153485608186,221.83488533472337L66.68448780779832,221.63286390127354L72.35882212998845,222.7273167354659L78.03315645217859,226.6323933678014L83.70749077436872,227.29766696623088L89.38182509655886,227.59522133631606L95.05615941874899,229.30956367086844L100.73049374093912,229.75121501953436L106.40482806312924,231.96546975451574L112.07916238531939,232.62732826830995L117.75349670750951,234.14332053047434L123.42783102969966,235.62481758570325L129.1021653518898,236.43014084818938L134.77649967407993,237.6352353474372L140.45083399627003,238.00684426545274L146.1251683184602,238.61564397666262L151.7995026406503,239.64234158783566L157.47383696284047,239.7287416374187L163.14817128503057,240.2644435357349L168.82250560722073,240.88002908808892L174.49683992941084,241.05416997801203L180.171174251601,241.76740556403496L185.8455085737911,242.4295747188104L191.51984289598124,242.89703647966337L197.19417721817138,243.71124315409324L202.8685115403615,244.51022867067675L208.54284586255167,244.49995564738435L214.21718018474178,245.15461423230082L219.8915145069319,245.87668484445751L225.56584882912202,246.44343984628682L231.2401831513122,246.99057585457138L236.91451747350231,247.56486395589098L242.58885179569245,247.99211864511676L248.26318611788255,248.45368689369334L253.9375204400727,248.78805497065846L259.61185476226285,249.1693843932274L265.286189084453,249.5542894456187L270.9605234066431,249.62624886007197L276.6348577288332,249.68968858128744L282.3091920510234,249.93366621026536L287.9835263732135,250.46001012592026L293.6578606954036,250.7469410532055L299.33219501759373,251.40217684037754L305.0065293397839,251.23653331434306L310.68086366197406,252.1007732646848L316.35519798416414,252.45150642354773L322.02953230635427,252.85839946115595L327.70386662854446,253.08487481946736L333.3782009507346,253.42531558083942L339.0525352729247,253.4876157744364L344.7268695951148,253.66757425605462L350.401203917305,254.05776319421133L356.0755382394951,254.2262713582246L361.7498725616852,254.5682776544709L367.42420688387534,254.64585371486177L373.09854120606553,254.9336046588567L378.7728755282556,255.19616531761272L384.44720985044574,255.54911818888863L390.1215441726359,256.1558998594533L395.795878494826,256.3855534051279L401.4702128170161,256.5004880515276L407.14454713920634,256.7175012974774L412.8188814613965,257.02253859614666L418.49321578358655,257.4462749542028L424.1675501057767,257.69726251360004L429.8418844279668,257.98218895964965L435.51621875015695,258.1511716347397L441.1905530723471,258.5494687322006L446.86488739453716,258.9770177253143L452.5392217167274,259.42615752237697L458.2135560389175,259.6556841104891L463.8878903611076,259.95141089258675L469.56222468329787,260.1974117065912L475.23655900548795,260.5797252340874L480.9108933276781,260.796154687981L486.5852276498682,261.11168815920223L492.25956197205835,261.2826263559007L497.9338962942484,261.77796213785876L503.60823061643856,262.2966426744315L509.2825649386287,262.8727823588292L514.9568992608189,263.460068187215L520.631233583009,263.99267771396364L526.3055679051992,264.47764325202434L531.9799022273893,264.8743274238923L537.6542365495794,265.32973841795507L543.3285708717696,265.8299282175295L549.0029051939597,266.23418512663875L554.6772395161497,266.7349811419419L560.35157383834,267.2200409608828L566.0259081605301,267.77299072504826L571.7002424827202,267.98123094659684L577.3745768049104,268.42254251381667L583.0489111271005,268.77825580325475L588.7232454492906,269.07646488015394L594.3975797714807,269.5437675167911L600.0719140936708,269.8576627107137L605.746248415861,270.26751476118056L611.4205827380512,270.7046348098326L617.0949170602413,271.0794548467445L622.7692513824314,271.5888545172084L628.4435857046216,271.8571498178302L634.1179200268116,272.1128066833084L639.7922543490017,272.45488012621513L645.4665886711919,272.74827357767475L651.1409229933821,272.937742272786L656.8152573155722,273.393765330628L662.4895916377624,273.74409263874253L668.1639259599525,274.04529615757L673.8382602821425,274.2044259677963L679.5125946043327,274.4182141395693L685.1869289265228,274.6843646354971L690.8612632487129,274.9685641527057L696.5355975709032,275.13473808786114L702.2099318930933,275.4236272691312L707.8842662152834,275.68787927327224L713.5586005374736,275.9209063524572L719.2329348596636,276.0750605184516L724.9072691818537,276.2623972165218L730.5816035040439,276.4985201673593L736.255937826234,276.8339725377125L741.9302721484243,277.1056794279752L747.6046064706144,277.3108050780206L753.2789407928045,277.5939967367221L758.9532751149945,277.78911150875575L764.6276094371847,278.0826178794463L770.3019437593748,278.3992271554235L775.9762780815649,278.72380319799294L781.6506124037552,278.9566553572428L787.3249467259452,279.27837946084816L792.9992810481355,279.58133781699723L798.6736153703255,279.6773802722336L804.3479496925156,279.8667490888871L810.0222840147056,280.01763146201347L815.6966183368959,280.21481056189464L821.3709526590861,280.5122533631309L827.0452869812761,280.76343595595074L832.7196213034664,280.95562042641905L838.3939556256564,281.1479710458432L844.0682899478466,281.2375187697696L849.7426242700367,281.3797900376447L855.4169585922268,281.59060284335783L861.0912929144171,281.7265512113599L866.7656272366071,281.93574773077484L872.4399615587973,282.08955064867376L878.1142958809874,282.2791369378174L883.7886302031775,282.5638561498439L889.4629645253676,282.7978113188426L895.1372988475578,282.85368443706307L900.8116331697478,283.0859758416766L906.485967491938,283.3191147270707L912.1603018141283,283.44079926072055L917.8346361363183,283.5819111316949L923.5089704585084,283.80133820525316L929.1833047806986,284.0212931486048L934.8576391028886,284.21954419374237L940.5319734250787,284.30210569241615L946.2063077472687,284.46972238090837L951.880642069459,284.5415243008788L957.5549763916492,284.7509894430918L963.2293107138393,285.0365039074252L968.9036450360295,285.1773435439138L974.5779793582195,285.4826191539226L980.2523136804097,285.76967836641813L985.9266480025997,286.11240524956696L991.6009823247899,286.37576735291503L997.27531664698,286.6596146388918L1002.9496509691702,286.91764498327984L1008.6239852913604,287.20743972940585L1014.2983196135505,287.45231309942363L1019.9726539357406,287.774874447235L1025.6469882579306,288.0725689771184L1031.321322580121,288.37242100484286L1036.9956569023109,288.63992824818854L1042.669991224501,288.83713631310883L1048.3443255466912,289.1528507675221L1054.0186598688813,289.37546075296257L1059.6929941910716,289.66012422629217L1065.3673285132616,289.89906331914057L1071.041662835452,290.1768355779951L1076.7159971576418,290.5025805159834L1082.390331479832,290.75212489430265L1088.064665802022,290.9236298160024L1093.7390001242122,291.14014315264785L1099.4133344464026,291.33626167958016L1105.0876687685925,291.6014810853567L1110.7620030907829,291.78859117798515L1116.4363374129728,292.0888193089178L1122.110671735163,292.35879465872284L1127.785006057353,292.4954829603771L1133.4593403795432,292.6811221859714L1139.1336747017333,292.88338350489676L1144.8080090239234,293.12293811478014L1150.4823433461138,293.35435932198067L1156.1566776683037,293.5325122919822L1161.831011990494,293.7971053416865L1167.505346312684,293.97767226801056L1173.179680634874,294.1874196834409L1178.8540149570642,294.34187798223377L1184.5283492792544,294.55601727558775L1190.2026836014447,294.7343800806798L1195.8770179236346,294.91378722856115L1201.551352245825,295.13809853583945L1207.225686568015,295.2781951314804L1212.900020890205,295.39748416769635L1218.5743552123952,295.51654987440133L1224.2486895345853,295.73880632301433L1229.9230238567754,295.93381762106276L1235.5973581789656,296.205752979216L1241.271692501156,296.30620505912333L1246.9460268233458,296.4508095717342L1252.620361145536,296.6301410170866L1258.2946954677261,296.83247335946834L1263.9690297899162,297.0227903977233L1269.6433641121064,297.20055228176375L1275.3176984342965,297.40592287987937L1280.9920327564869,297.5846746997024L1286.6663670786768,297.70972228192545L1292.340701400867,297.9704367575749L1298.015035723057,298.17440543406076L1303.6893700452472,298.32047883457955L1309.3637043674373,298.4866629845293L1315.0380386896275,298.694525755396L1320.7123730118176,298.838225425385L1326.3867073340077,299.05956905644365L1332.0610416561979,299.19973592339437L1337.735375978388,299.3576841675915L1343.4097103005781,299.53950011107736L1349.0840446227683,299.70339506279L1354.7583789449584,299.8426723189819L1360.4327132671485,300.0107957533664L1366.1070475893387,300.12927591317856L1371.7813819115288,300.3011568694016L1377.455716233719,300.45017980006537L1383.130050555909,300.60830691594094L1388.8043848780992,300.71760290460594L1394.4787192002893,300.79839032504947L1400.1530535224795,300.95255112412303L1405.8273878446696,301.07310229294524L1411.5017221668597,301.22950156297577L1417.1760564890499,301.3900067552339L1422.85039081124,301.59397907268067L1428.5247251334301,301.75687854798724L1434.1990594556203,301.8665024705717L1439.8733937778104,302.0340506284385L1445.5477281000005,302.174616188474" style="fill: none;" fill="none"></path></g></g></g></g><g opacity="0.2"><g><g><g><path stroke="rgb(255, 112, 67)" stroke-width="2px" d="M21.289813230277264,187.29101901003074L26.964147552467395,236.16525937447057L32.63848187465753,214.48186440069523L38.31281619684766,225.0464582107189L43.98715051903779,235.6456957870009L49.661484841227924,215.86738794648215L55.33581916341805,224.18050857533558L61.010153485608186,235.8535170928152L66.68448780779832,220.0239482609089L72.35882212998845,232.5282729704474L78.03315645217859,265.4690235271398L83.70749077436872,234.5719145228694L89.38182509655886,231.14274942466048L95.05615941874899,251.4406311755828L100.73049374093912,235.88816085907354L106.40482806312924,264.91481617341185L112.07916238531939,243.12750022379547L117.75349670750951,259.68447459485355L123.42783102969966,262.0398584289309L129.1021653518898,251.5791855947483L134.77649967407993,261.48565107520295L140.45083399627003,245.7253594528794L146.1251683184602,251.85628411014534L151.7995026406503,262.975085273897L157.47383696284047,241.7766204442669L163.14817128503057,253.4842727280048L168.82250560722073,256.67097275414113L174.49683992941084,245.690715686621L180.171174251601,261.4510176318786L185.8455085737911,261.34710697897134L191.51984289598124,256.7056061974655L197.19417721817138,268.55181290036893L202.8685115403615,269.6602276078248L208.54284586255167,244.1666480446026L214.21718018474178,267.02773493541656L219.8915145069319,270.69936510569806L225.56584882912202,266.4735275816886L231.2401831513122,266.85454707292666L236.91451747350231,268.9674658349314L242.58885179569245,264.32597537635945L248.26318611788255,266.5428047912713L253.9375204400727,262.2130566143547L259.61185476226285,264.8455389638291L265.286189084453,265.7461323654707L270.9605234066431,252.72223374552865L276.6348577288332,252.47976867345605L282.3091920510234,260.89681027815055L287.9835263732135,274.6134603480522L293.6578606954036,264.187420957194L299.33219501759373,282.71875967109133L305.0065293397839,243.16214399005378L310.68086366197406,295.04989651814L316.35519798416414,270.2144349615528L322.02953230635427,273.85143168850993L327.70386662854446,264.98409338299456L333.3782009507346,271.6345919506641L339.0525352729247,256.8787940599554L344.7268695951148,263.633213603466L350.401203917305,276.03361733716343L356.0755382394951,263.8756786755386L361.7498725616852,274.4749162518206L367.42420688387534,259.2341882169667L373.09854120606553,272.22344307065043L378.7728755282556,271.2189390161016L384.44720985044574,277.4191408829504L390.1215441726359,294.3224961404552L395.795878494826,271.0457511536118L401.4702128170161,263.9449558851213L407.14454713920634,270.976473944029L412.8188814613965,277.3498688348346L418.49321578358655,286.0786475597175L424.1675501057767,274.8905691863831L429.8418844279668,277.7655217693971L435.51621875015695,270.04124709906296L441.1905530723471,286.9445971951008L446.86488739453716,289.8541935443731L452.5392217167274,292.2788545880332L458.2135560389175,276.6571019004742L463.8878903611076,282.129913712572L469.56222468329787,278.87394163831993L475.23655900548795,289.9581041972802L480.9108933276781,277.6269725116985L486.5852276498682,285.940093140552L492.25956197205835,274.8905691863831L497.9338962942484,301.66575648101815L503.60823061643856,304.54070906403217L509.2825649386287,310.32526315778534L514.9568992608189,312.36890471020735L520.631233583009,308.83582379762436L526.3055679051992,305.7530447473291L531.9799022273893,298.99863036528546L537.6542365495794,304.9217285552702L543.3285708717696,309.77105064259035L549.0029051939597,302.11604802037203L554.6772395161497,311.6415043325225L560.35157383834,311.1565741883773L566.0259081605301,318.3612801097748L571.7002424827202,287.2217008719648L577.3745768049104,309.5978627801005L583.0489111271005,302.2892410443289L588.7232454492906,297.43991895700873L594.3975797714807,314.4125462626293L600.0719140936708,300.2802329352313L605.746248415861,310.35989660110977L611.4205827380512,313.8583389089013L617.0949170602413,308.4201708630618L622.7692513824314,322.794946681799L628.4435857046216,299.0679024134012L634.1179200268116,298.2712299876007L639.7922543490017,307.7620476949598L645.4665886711919,303.2937450988777L651.1409229933821,292.8330619417612L656.8152573155722,321.68653197434304L662.4895916377624,311.1565741883773L668.1639259599525,306.480439963547L673.8382602821425,291.4821770007656L679.5125946043327,297.8209384482468L685.1869289265228,304.0557789198869L690.8612632487129,306.58435577792113L696.5355975709032,293.7682887867272L702.2099318930933,308.07378997661516L707.8842662152834,305.78767819065354L713.5586005374736,302.67026053556697L719.2329348596636,293.90683804442574L724.9072691818537,298.0980421251108L730.5816035040439,304.22897194384376L736.255937826234,316.52546502463406L741.9302721484243,309.4939469657264L747.6046064706144,301.9428601578822L753.2789407928045,311.84933596127075L758.9532751149945,301.56184066664406L764.6276094371847,314.100803980974L770.3019437593748,317.5299690791828L775.9762780815649,319.12331909225094L781.6506124037552,308.14306718619787L787.3249467259452,319.8853529132602L792.9992810481355,318.0841764329108L798.6736153703255,291.9671123063778L804.3479496925156,304.2636053871681L810.0222840147056,299.5874763238048L815.6966183368959,305.9608712146104L821.3709526590861,319.6082492363962L827.0452869812761,313.99688816659983L832.7196213034664,306.54971717312975L838.3939556256564,306.93073666436777L844.0682899478466,293.3179920859064L849.7426242700367,300.69589103126077L855.4169585922268,310.3945352059011L861.0912929144171,300.4187873543968L866.7656272366071,310.8794705115133L872.4399615587973,303.50157156615893L878.1142958809874,308.83582379762436L883.7886302031775,322.69103344815835L889.4629645253676,315.9712576709061L895.1372988475578,290.82405383266354L900.8116331697478,316.4215543717269L906.485967491938,316.9757617254549L912.1603018141283,301.1115491272902L917.8346361363183,304.1943333390524L923.5089704585084,316.0405348804888L929.1833047806986,316.52546502463406L934.8576391028886,313.6851458849445L940.5319734250787,296.64324136974113L946.2063077472687,309.6671399896832L951.880642069459,295.39627224311977L957.5549763916492,316.59474223421677L963.2293107138393,328.68341142845935L968.9036450360295,306.82682084999374L974.5779793582195,332.6667812996627L980.2523136804097,330.3806720944346L985.9266480025997,339.6636633345125L991.6009823247899,327.7481845834933L997.27531664698,331.489089382624L1002.9496509691702,327.88673642192526L1008.6239852913604,333.46345630619675L1014.2983196135505,326.7436805289445L1019.9726539357406,339.80221517294444L1025.6469882579306,336.33841146994416L1031.321322580121,337.2389997101189L1036.9956569023109,332.45895483238144L1042.669991224501,321.30551248310496L1048.3443255466912,341.3955626052791L1054.0186598688813,326.39730222323124L1059.6929941910716,337.2389997101189L1065.3673285132616,330.03429378872136L1071.041662835452,337.065811847629L1076.7159971576418,345.75995325808725L1082.390331479832,333.2902658629734L1088.064665802022,320.30101100928965L1093.7390001242122,328.40630517086186L1099.4133344464026,325.25424633025045L1105.0876687685925,337.68929641093973L1110.7620030907829,324.45757132371637L1116.4363374129728,344.75545049390524L1122.110671735163,339.9407670113764L1127.785006057353,316.6986580485909L1133.4593403795432,325.7045404503378L1139.1336747017333,329.02978973417254L1144.8080090239234,336.13058500266294L1150.4823433461138,335.0914449240563L1156.1566776683037,325.8084536839784L1161.831011990494,341.94977253974054L1167.505346312684,326.98614818175054L1173.179680634874,332.7014199044541L1178.8540149570642,322.8295852865904L1184.5283492792544,334.22549270793945L1190.2026836014447,327.92137502671665L1195.8770179236346,328.44094377565324L1201.551352245825,337.2389997101189L1207.225686568015,321.68653197434304L1212.900020890205,317.9802606185367L1218.5743552123952,318.15345364249356L1224.2486895345853,338.17422655508494L1229.9230238567754,333.3249044677648L1235.5973581789656,348.5656325026187L1241.271692501156,315.7287925988335L1246.9460268233458,324.52684853329913L1252.620361145536,331.59300519699815L1258.2946954677261,336.4423272843183L1263.9690297899162,334.4333217559542L1269.6433641121064,332.2857643891581L1275.3176984342965,338.1049519262357L1280.9920327564869,333.1517140245414L1286.6663670786768,322.69103344815835L1292.340701400867,350.2628957493275L1298.015035723057,339.24800523848296L1303.6893700452472,327.8520978171339L1309.3637043674373,332.2164871795753L1315.0380386896275,341.04918171883236L1320.7123730118176,328.23311730837196L1326.3867073340077,344.51298542183264L1332.0610416561979,328.0945628892065L1337.735375978388,332.0432993170855L1343.4097103005781,337.3082769197016L1349.0840446227683,333.8791144022262L1354.7583789449584,328.99515371011466L1360.4327132671485,335.3339099961289L1366.1070475893387,325.11569449181843L1371.7813819115288,336.6847923563909L1377.455716233719,332.11257394593474L1383.130050555909,334.32940852231354L1388.8043848780992,324.1111930180031L1394.4787192002893,318.15345364249356L1400.1530535224795,334.1908541031481L1405.8273878446696,327.15933862497394L1411.5017221668597,335.1953581576969L1417.1760564890499,336.37305007473554L1422.85039081124,346.21024737817464L1428.5247251334301,337.5161059677163L1434.1990594556203,326.01628273199316L1439.8733937778104,339.0748147952596L1445.5477281000005,333.35954307255616" style="fill: none;" fill="none"></path></g></g></g></g></g></g><g transform="translate(42, 376)" clip-path="url(#clip_1)"><clipPath id="clip_1"><rect width="1542" height="24"></rect></clipPath><g><g><line x1="15.615478908087132" y1="0" x2="15.615478908087132" y2="5" style="visibility: inherit;" fill="rgb(0, 0, 0)" stroke="rgb(204, 204, 204)" stroke-width="1px"></line><line x1="129.1021653518898" y1="0" x2="129.1021653518898" y2="5" style="visibility: inherit;" fill="rgb(0, 0, 0)" stroke="rgb(204, 204, 204)" stroke-width="1px"></line><line x1="242.58885179569245" y1="0" x2="242.58885179569245" y2="5" style="visibility: inherit;" fill="rgb(0, 0, 0)" stroke="rgb(204, 204, 204)" stroke-width="1px"></line><line x1="356.0755382394951" y1="0" x2="356.0755382394951" y2="5" style="visibility: inherit;" fill="rgb(0, 0, 0)" stroke="rgb(204, 204, 204)" stroke-width="1px"></line><line x1="469.56222468329787" y1="0" x2="469.56222468329787" y2="5" style="visibility: inherit;" fill="rgb(0, 0, 0)" stroke="rgb(204, 204, 204)" stroke-width="1px"></line><line x1="583.0489111271005" y1="0" x2="583.0489111271005" y2="5" style="visibility: inherit;" fill="rgb(0, 0, 0)" stroke="rgb(204, 204, 204)" stroke-width="1px"></line><line x1="696.5355975709032" y1="0" x2="696.5355975709032" y2="5" style="visibility: inherit;" fill="rgb(0, 0, 0)" stroke="rgb(204, 204, 204)" stroke-width="1px"></line><line x1="810.0222840147056" y1="0" x2="810.0222840147056" y2="5" style="visibility: inherit;" fill="rgb(0, 0, 0)" stroke="rgb(204, 204, 204)" stroke-width="1px"></line><line x1="923.5089704585084" y1="0" x2="923.5089704585084" y2="5" style="visibility: inherit;" fill="rgb(0, 0, 0)" stroke="rgb(204, 204, 204)" stroke-width="1px"></line><line x1="1036.9956569023109" y1="0" x2="1036.9956569023109" y2="5" style="visibility: inherit;" fill="rgb(0, 0, 0)" stroke="rgb(204, 204, 204)" stroke-width="1px"></line><line x1="1150.4823433461138" y1="0" x2="1150.4823433461138" y2="5" style="visibility: inherit;" fill="rgb(0, 0, 0)" stroke="rgb(204, 204, 204)" stroke-width="1px"></line><line x1="1263.9690297899162" y1="0" x2="1263.9690297899162" y2="5" style="visibility: inherit;" fill="rgb(0, 0, 0)" stroke="rgb(204, 204, 204)" stroke-width="1px"></line><line x1="1377.455716233719" y1="0" x2="1377.455716233719" y2="5" style="visibility: inherit;" fill="rgb(0, 0, 0)" stroke="rgb(204, 204, 204)" stroke-width="1px"></line><line x1="1490.9424026775216" y1="0" x2="1490.9424026775216" y2="5" style="visibility: inherit;" fill="rgb(0, 0, 0)" stroke="rgb(204, 204, 204)" stroke-width="1px"></line></g><g transform="translate(0, 8)"><text x="15.615478908087132" y="0" dx="0em" dy="0.95em" style="text-anchor: middle; visibility: inherit; font-family: Roboto, sans-serif; font-size: 12px; font-weight: 200;" fill="rgb(33, 33, 33)" stroke="none" stroke-width="1px">0</text><text x="129.1021653518898" y="0" dx="0em" dy="0.95em" style="text-anchor: middle; visibility: inherit; font-family: Roboto, sans-serif; font-size: 12px; font-weight: 200;" fill="rgb(33, 33, 33)" stroke="none" stroke-width="1px">2k</text><text x="242.58885179569245" y="0" dx="0em" dy="0.95em" style="text-anchor: middle; visibility: inherit; font-family: Roboto, sans-serif; font-size: 12px; font-weight: 200;" fill="rgb(33, 33, 33)" stroke="none" stroke-width="1px">4k</text><text x="356.0755382394951" y="0" dx="0em" dy="0.95em" style="text-anchor: middle; visibility: inherit; font-family: Roboto, sans-serif; font-size: 12px; font-weight: 200;" fill="rgb(33, 33, 33)" stroke="none" stroke-width="1px">6k</text><text x="469.56222468329787" y="0" dx="0em" dy="0.95em" style="text-anchor: middle; visibility: inherit; font-family: Roboto, sans-serif; font-size: 12px; font-weight: 200;" fill="rgb(33, 33, 33)" stroke="none" stroke-width="1px">8k</text><text x="583.0489111271005" y="0" dx="0em" dy="0.95em" style="text-anchor: middle; visibility: inherit; font-family: Roboto, sans-serif; font-size: 12px; font-weight: 200;" fill="rgb(33, 33, 33)" stroke="none" stroke-width="1px">10k</text><text x="696.5355975709032" y="0" dx="0em" dy="0.95em" style="text-anchor: middle; visibility: inherit; font-family: Roboto, sans-serif; font-size: 12px; font-weight: 200;" fill="rgb(33, 33, 33)" stroke="none" stroke-width="1px">12k</text><text x="810.0222840147056" y="0" dx="0em" dy="0.95em" style="text-anchor: middle; visibility: inherit; font-family: Roboto, sans-serif; font-size: 12px; font-weight: 200;" fill="rgb(33, 33, 33)" stroke="none" stroke-width="1px">14k</text><text x="923.5089704585084" y="0" dx="0em" dy="0.95em" style="text-anchor: middle; visibility: inherit; font-family: Roboto, sans-serif; font-size: 12px; font-weight: 200;" fill="rgb(33, 33, 33)" stroke="none" stroke-width="1px">16k</text><text x="1036.9956569023109" y="0" dx="0em" dy="0.95em" style="text-anchor: middle; visibility: inherit; font-family: Roboto, sans-serif; font-size: 12px; font-weight: 200;" fill="rgb(33, 33, 33)" stroke="none" stroke-width="1px">18k</text><text x="1150.4823433461138" y="0" dx="0em" dy="0.95em" style="text-anchor: middle; visibility: inherit; font-family: Roboto, sans-serif; font-size: 12px; font-weight: 200;" fill="rgb(33, 33, 33)" stroke="none" stroke-width="1px">20k</text><text x="1263.9690297899162" y="0" dx="0em" dy="0.95em" style="text-anchor: middle; visibility: inherit; font-family: Roboto, sans-serif; font-size: 12px; font-weight: 200;" fill="rgb(33, 33, 33)" stroke="none" stroke-width="1px">22k</text><text x="1377.455716233719" y="0" dx="0em" dy="0.95em" style="text-anchor: middle; visibility: inherit; font-family: Roboto, sans-serif; font-size: 12px; font-weight: 200;" fill="rgb(33, 33, 33)" stroke="none" stroke-width="1px">24k</text><text x="1490.9424026775216" y="0" dx="0em" dy="0.95em" style="text-anchor: middle; visibility: inherit; font-family: Roboto, sans-serif; font-size: 12px; font-weight: 200;" fill="rgb(33, 33, 33)" stroke="none" stroke-width="1px">26k</text></g><line x1="0" y1="0" x2="1542.209375" y2="0" fill="rgb(0, 0, 0)" stroke="rgb(204, 204, 204)" stroke-width="1px"></line></g></g></g></g></svg>