<svg viewBox="0 0 977 400" xmlns="http://www.w3.org/2000/svg"><g><g><g><g><g><line x1="53.1875" y1="367.8527999160601" x2="48.1875" y2="367.8527999160601" style="visibility: inherit;" fill="rgb(0, 0, 0)" stroke="rgb(204, 204, 204)" stroke-width="1px"></line><line x1="53.1875" y1="335.91064080332336" x2="48.1875" y2="335.91064080332336" style="visibility: inherit;" fill="rgb(0, 0, 0)" stroke="rgb(204, 204, 204)" stroke-width="1px"></line><line x1="53.1875" y1="303.9684816905865" x2="48.1875" y2="303.9684816905865" style="visibility: inherit;" fill="rgb(0, 0, 0)" stroke="rgb(204, 204, 204)" stroke-width="1px"></line><line x1="53.1875" y1="272.0263225778497" x2="48.1875" y2="272.0263225778497" style="visibility: inherit;" fill="rgb(0, 0, 0)" stroke="rgb(204, 204, 204)" stroke-width="1px"></line><line x1="53.1875" y1="240.0841634651129" x2="48.1875" y2="240.0841634651129" style="visibility: inherit;" fill="rgb(0, 0, 0)" stroke="rgb(204, 204, 204)" stroke-width="1px"></line><line x1="53.1875" y1="208.14200435237612" x2="48.1875" y2="208.14200435237612" style="visibility: inherit;" fill="rgb(0, 0, 0)" stroke="rgb(204, 204, 204)" stroke-width="1px"></line><line x1="53.1875" y1="176.19984523963927" x2="48.1875" y2="176.19984523963927" style="visibility: inherit;" fill="rgb(0, 0, 0)" stroke="rgb(204, 204, 204)" stroke-width="1px"></line><line x1="53.1875" y1="144.25768612690246" x2="48.1875" y2="144.25768612690246" style="visibility: inherit;" fill="rgb(0, 0, 0)" stroke="rgb(204, 204, 204)" stroke-width="1px"></line><line x1="53.1875" y1="112.3155270141657" x2="48.1875" y2="112.3155270141657" style="visibility: inherit;" fill="rgb(0, 0, 0)" stroke="rgb(204, 204, 204)" stroke-width="1px"></line><line x1="53.1875" y1="80.37336790142885" x2="48.1875" y2="80.37336790142885" style="visibility: inherit;" fill="rgb(0, 0, 0)" stroke="rgb(204, 204, 204)" stroke-width="1px"></line><line x1="53.1875" y1="48.4312087886921" x2="48.1875" y2="48.4312087886921" style="visibility: inherit;" fill="rgb(0, 0, 0)" stroke="rgb(204, 204, 204)" stroke-width="1px"></line><line x1="53.1875" y1="16.489049675955265" x2="48.1875" y2="16.489049675955265" style="visibility: inherit;" fill="rgb(0, 0, 0)" stroke="rgb(204, 204, 204)" stroke-width="1px"></line></g><g transform="translate(43.1875, 0)"><text x="0" y="367.8527999160601" dx="0em" dy="0.3em" style="text-anchor: end; visibility: inherit; font-family: Roboto, sans-serif; font-size: 12px; font-weight: 200;" fill="rgb(33, 33, 33)" stroke="none" stroke-width="1px">0.45</text><text x="0" y="335.91064080332336" dx="0em" dy="0.3em" style="text-anchor: end; visibility: inherit; font-family: Roboto, sans-serif; font-size: 12px; font-weight: 200;" fill="rgb(33, 33, 33)" stroke="none" stroke-width="1px">0.5</text><text x="0" y="303.9684816905865" dx="0em" dy="0.3em" style="text-anchor: end; visibility: inherit; font-family: Roboto, sans-serif; font-size: 12px; font-weight: 200;" fill="rgb(33, 33, 33)" stroke="none" stroke-width="1px">0.55</text><text x="0" y="272.0263225778497" dx="0em" dy="0.3em" style="text-anchor: end; visibility: inherit; font-family: Roboto, sans-serif; font-size: 12px; font-weight: 200;" fill="rgb(33, 33, 33)" stroke="none" stroke-width="1px">0.6</text><text x="0" y="240.0841634651129" dx="0em" dy="0.3em" style="text-anchor: end; visibility: inherit; font-family: Roboto, sans-serif; font-size: 12px; font-weight: 200;" fill="rgb(33, 33, 33)" stroke="none" stroke-width="1px">0.65</text><text x="0" y="208.14200435237612" dx="0em" dy="0.3em" style="text-anchor: end; visibility: inherit; font-family: Roboto, sans-serif; font-size: 12px; font-weight: 200;" fill="rgb(33, 33, 33)" stroke="none" stroke-width="1px">0.7</text><text x="0" y="176.19984523963927" dx="0em" dy="0.3em" style="text-anchor: end; visibility: inherit; font-family: Roboto, sans-serif; font-size: 12px; font-weight: 200;" fill="rgb(33, 33, 33)" stroke="none" stroke-width="1px">0.75</text><text x="0" y="144.25768612690246" dx="0em" dy="0.3em" style="text-anchor: end; visibility: inherit; font-family: Roboto, sans-serif; font-size: 12px; font-weight: 200;" fill="rgb(33, 33, 33)" stroke="none" stroke-width="1px">0.8</text><text x="0" y="112.3155270141657" dx="0em" dy="0.3em" style="text-anchor: end; visibility: inherit; font-family: Roboto, sans-serif; font-size: 12px; font-weight: 200;" fill="rgb(33, 33, 33)" stroke="none" stroke-width="1px">0.85</text><text x="0" y="80.37336790142885" dx="0em" dy="0.3em" style="text-anchor: end; visibility: inherit; font-family: Roboto, sans-serif; font-size: 12px; font-weight: 200;" fill="rgb(33, 33, 33)" stroke="none" stroke-width="1px">0.9</text><text x="0" y="48.4312087886921" dx="0em" dy="0.3em" style="text-anchor: end; visibility: inherit; font-family: Roboto, sans-serif; font-size: 12px; font-weight: 200;" fill="rgb(33, 33, 33)" stroke="none" stroke-width="1px">0.95</text><text x="0" y="16.489049675955265" dx="0em" dy="0.3em" style="text-anchor: end; visibility: inherit; font-family: Roboto, sans-serif; font-size: 12px; font-weight: 200;" fill="rgb(33, 33, 33)" stroke="none" stroke-width="1px">1</text></g><line x1="53.1875" y1="0" x2="53.1875" y2="376" fill="rgb(0, 0, 0)" stroke="rgb(204, 204, 204)" stroke-width="1px"></line></g></g><g transform="translate(53, 0)" clip-path="url(#clip_0)"><clipPath id="clip_0"><rect width="923" height="376"></rect></clipPath><g><g><g><line x1="12.489368179179598" y1="0" x2="12.489368179179598" y2="376" fill="rgb(0, 0, 0)" stroke="rgb(66, 66, 66)" stroke-width="1px" opacity="0.25"></line><line x1="78.77996408848281" y1="0" x2="78.77996408848281" y2="376" fill="rgb(0, 0, 0)" stroke="rgb(66, 66, 66)" stroke-width="1px" opacity="0.25"></line><line x1="145.07055999778603" y1="0" x2="145.07055999778603" y2="376" fill="rgb(0, 0, 0)" stroke="rgb(66, 66, 66)" stroke-width="1px" opacity="0.25"></line><line x1="211.36115590708923" y1="0" x2="211.36115590708923" y2="376" fill="rgb(0, 0, 0)" stroke="rgb(66, 66, 66)" stroke-width="1px" opacity="0.25"></line><line x1="277.65175181639245" y1="0" x2="277.65175181639245" y2="376" fill="rgb(0, 0, 0)" stroke="rgb(66, 66, 66)" stroke-width="1px" opacity="0.25"></line><line x1="343.9423477256957" y1="0" x2="343.9423477256957" y2="376" fill="rgb(0, 0, 0)" stroke="rgb(66, 66, 66)" stroke-width="1px" opacity="0.25"></line><line x1="410.2329436349989" y1="0" x2="410.2329436349989" y2="376" fill="rgb(0, 0, 0)" stroke="rgb(66, 66, 66)" stroke-width="1px" opacity="0.25"></line><line x1="476.52353954430214" y1="0" x2="476.52353954430214" y2="376" fill="rgb(0, 0, 0)" stroke="rgb(66, 66, 66)" stroke-width="1px" opacity="0.25"></line><line x1="542.8141354536053" y1="0" x2="542.8141354536053" y2="376" fill="rgb(0, 0, 0)" stroke="rgb(66, 66, 66)" stroke-width="1px" opacity="0.25"></line><line x1="609.1047313629085" y1="0" x2="609.1047313629085" y2="376" fill="rgb(0, 0, 0)" stroke="rgb(66, 66, 66)" stroke-width="1px" opacity="0.25"></line><line x1="675.3953272722117" y1="0" x2="675.3953272722117" y2="376" fill="rgb(0, 0, 0)" stroke="rgb(66, 66, 66)" stroke-width="1px" opacity="0.25"></line><line x1="741.6859231815149" y1="0" x2="741.6859231815149" y2="376" fill="rgb(0, 0, 0)" stroke="rgb(66, 66, 66)" stroke-width="1px" opacity="0.25"></line><line x1="807.9765190908181" y1="0" x2="807.9765190908181" y2="376" fill="rgb(0, 0, 0)" stroke="rgb(66, 66, 66)" stroke-width="1px" opacity="0.25"></line><line x1="874.2671150001213" y1="0" x2="874.2671150001213" y2="376" fill="rgb(0, 0, 0)" stroke="rgb(66, 66, 66)" stroke-width="1px" opacity="0.25"></line></g><g><line x1="0" y1="367.8527999160601" x2="923.8125" y2="367.8527999160601" fill="rgb(0, 0, 0)" stroke="rgb(66, 66, 66)" stroke-width="1px" opacity="0.25"></line><line x1="0" y1="335.91064080332336" x2="923.8125" y2="335.91064080332336" fill="rgb(0, 0, 0)" stroke="rgb(66, 66, 66)" stroke-width="1px" opacity="0.25"></line><line x1="0" y1="303.9684816905865" x2="923.8125" y2="303.9684816905865" fill="rgb(0, 0, 0)" stroke="rgb(66, 66, 66)" stroke-width="1px" opacity="0.25"></line><line x1="0" y1="272.0263225778497" x2="923.8125" y2="272.0263225778497" fill="rgb(0, 0, 0)" stroke="rgb(66, 66, 66)" stroke-width="1px" opacity="0.25"></line><line x1="0" y1="240.0841634651129" x2="923.8125" y2="240.0841634651129" fill="rgb(0, 0, 0)" stroke="rgb(66, 66, 66)" stroke-width="1px" opacity="0.25"></line><line x1="0" y1="208.14200435237612" x2="923.8125" y2="208.14200435237612" fill="rgb(0, 0, 0)" stroke="rgb(66, 66, 66)" stroke-width="1px" opacity="0.25"></line><line x1="0" y1="176.19984523963927" x2="923.8125" y2="176.19984523963927" fill="rgb(0, 0, 0)" stroke="rgb(66, 66, 66)" stroke-width="1px" opacity="0.25"></line><line x1="0" y1="144.25768612690246" x2="923.8125" y2="144.25768612690246" fill="rgb(0, 0, 0)" stroke="rgb(66, 66, 66)" stroke-width="1px" opacity="0.25"></line><line x1="0" y1="112.3155270141657" x2="923.8125" y2="112.3155270141657" fill="rgb(0, 0, 0)" stroke="rgb(66, 66, 66)" stroke-width="1px" opacity="0.25"></line><line x1="0" y1="80.37336790142885" x2="923.8125" y2="80.37336790142885" fill="rgb(0, 0, 0)" stroke="rgb(66, 66, 66)" stroke-width="1px" opacity="0.25"></line><line x1="0" y1="48.4312087886921" x2="923.8125" y2="48.4312087886921" fill="rgb(0, 0, 0)" stroke="rgb(66, 66, 66)" stroke-width="1px" opacity="0.25"></line><line x1="0" y1="16.489049675955265" x2="923.8125" y2="16.489049675955265" fill="rgb(0, 0, 0)" stroke="rgb(66, 66, 66)" stroke-width="1px" opacity="0.25"></line></g></g></g><g><g><line x1="0" y1="655.3322319306915" x2="923.8125" y2="655.3322319306915" fill="rgb(0, 0, 0)" stroke="rgb(153, 153, 153)" stroke-width="1.5px"></line></g></g><g><g><line x1="12.489368179179598" y1="0" x2="12.489368179179598" y2="376" fill="rgb(0, 0, 0)" stroke="rgb(153, 153, 153)" stroke-width="1.5px"></line></g></g><g><g><g><g><g><path stroke="rgb(255, 112, 67)" stroke-width="2px" d="M15.803897974644759,348.3651618161479L19.118427770109918,339.9358232714861L22.43295756557508,337.8593989269071L25.74748736104024,337.73833848787524L29.062017156505398,334.43572344645224L32.37654695197056,330.39785761237187L35.691076747435716,326.46392502037344L39.005606542900885,320.9403265670262L42.32013633836605,321.0575221435337L45.6346661338312,320.7097279098217L48.949195929296366,317.4130780729204L52.26372572476152,314.6658749170748L55.57825552022668,316.25322145128325L58.89278531569185,313.97951065195036L62.20731511115701,311.61549476968514L65.52184490662216,311.5307068786438L68.83637470208733,310.8477202811465L72.15090449755249,308.8860354968065L75.46543429301765,306.78068638680946L78.77996408848281,305.36661977893294L82.09449388394798,303.7700986458225L85.40902367941312,301.84759517411106L88.72355347487829,300.1244772384578L92.03808327034345,298.4214465652093L95.35261306580861,296.5877423702577L98.66714286127377,294.8665678608606L101.98167265673892,293.245406166225L105.29620245220408,291.872648397558L108.61073224766925,290.59456954872945L111.92526204313442,289.3273718235751L115.23979183859959,288.1899133735988L118.55432163406473,287.12355159172114L121.86885142952988,286.64065167524865L125.18338122499505,285.28804659134704L128.4979110204602,284.1404805367105L131.81244081592536,283.03596556095863L135.12697061139053,281.8298875040913L138.44150040685568,280.68729429259514L141.7560302023209,279.9287562313294L145.07055999778603,279.0027243839993L148.38508979325118,278.2494715079528L151.69961958871636,277.3362550070158L155.0141493841815,276.361131089557L158.32867917964668,275.56642599183925L161.64320897511183,274.6406336900197L164.95773877057698,273.73881217356046L168.27226856604216,272.9551180151541L171.5867983615073,272.2197082185303L174.90132815697248,271.4377544068931L178.21585795243763,270.506912149565L181.53038774790278,269.80403590967893L184.84491754336796,269.0992965037859L188.1594473388331,268.4353425957451L191.47397713429828,267.6566871300772L194.78850692976343,266.9610867387641L198.1030367252286,266.3172260915416L201.41756652069375,266.22461545516904L204.7320963161589,265.6283986983227L208.04662611162408,265.0396172405995L211.36115590708923,264.35730009673614L214.6756857025544,263.6602379745999L217.99021549801955,263.2780037491289L221.3047452934847,262.5241250250779L224.61927508894988,261.82924778679603L227.93380488441503,261.2488438792252L231.2483346798802,260.5484533396388L234.56286447534535,259.9028761960399L237.8773942708105,259.26515470278093L241.19192406627567,258.6898565653723L244.50645386174082,258.120170582255L247.820983657206,257.57722265087705L251.13551345267115,257.1020668756572L254.4500432481363,256.5567219087728L257.76457304360144,256.14931589961947L261.07910283906665,255.560228000745L264.3936326345318,255.036679007818L267.70816242999695,254.54649678600316L271.0226922254621,254.00057678248987L274.33722202092724,253.40100368174683L277.65175181639245,252.87357340345994L280.9662816118576,252.37799583946205L284.28081140732274,252.22005501508002L287.5953412027879,251.75333636654148L290.90987099825304,251.43406729257853L294.22440079371825,251.05042515790313L297.5389305891834,250.693482090897L300.85346038464854,250.2480782726916L304.1679901801137,249.81280358558467L307.4825199755789,249.4389125639472L310.79704977104404,249.06482768802442L314.1115795665092,248.68213270279813L317.4261093619744,248.54936737398415L320.74063915743955,248.1803348397195L324.0551689529047,247.84364565140262L327.3696987483699,247.52212988189686L330.68422854383505,247.17531803751345L333.9987583393002,246.81981988660374L337.31328813476534,246.49511528341475L340.6278179302305,246.1692067005102L343.9423477256957,245.81904170242763L347.25687752116085,245.44532668265276L350.571407316626,245.08649708897968L353.88593711209114,244.82442310218883L357.2004669075563,244.5451526966378L360.5149967030215,244.2932462131173L363.82952649848664,243.96600768538772L367.1440562939518,243.61602642856366L370.45858608941694,243.27253243678334L373.7731158848821,243.02752850204473L377.0876456803473,242.73074444066708L380.40217547581244,242.41143363351924L383.7167052712776,242.11856366978702L387.03123506674274,241.78976292417448L390.34576486220794,241.55509162441345L393.6602946576731,241.28406135266582L396.97482445313824,241.01770912575384L400.2893542486034,240.72938716568106L403.60388404406854,240.4064831576505L406.91841383953374,240.1020663140123L410.2329436349989,239.77682597946512L413.54747343046404,239.46981870405833L416.8620032259292,239.174226278046L420.17653302139433,238.8518105877285L423.49106281685954,238.59111412589886L426.8055926123247,238.2972022216465L430.12012240778984,238.02033271716422L433.434652203255,237.72326968372022L436.74918199872013,237.45523392304503L440.06371179418534,237.19740997045025L443.3782415896505,236.93154404626594L446.69277138511563,236.67570686130375L450.0073011805808,236.46520379128222L453.32183097604593,236.24611053170867L456.63636077151114,235.9952576231718L459.9508905669763,235.77132123095558L463.2654203624415,235.55068298885283L466.57995015790664,235.27035535622423L469.8944799533718,235.02250111542313L473.209009748837,234.8007900173291L476.52353954430214,234.59346178768433L479.8380693397673,234.37237450692788L483.15259913523244,234.13781114247516L486.4671289306976,233.91752527168046L489.7816587261628,233.70576431326222L493.09618852162794,233.49692921103414L496.4107183170931,233.2801785066978L499.72524811255823,233.07173860860192L503.0397779080234,232.86079749213624L506.3543077034886,232.67914228599457L509.66883749895374,232.46311342828884L512.9833672944188,232.22382698548904L516.297897089884,232.0344322377047L519.6124268853492,231.82170982002447L522.9269566808143,231.64253907531645L526.2414864762795,231.42998502722386L529.5560162717447,231.2150916785456L532.8705460672098,231.04830053796536L536.185075862675,230.81347851159114L539.4996056581401,230.6364114096807L542.8141354536053,230.44670426752523L546.1286652490705,230.2593587346445L549.4431950445356,230.07922736999728L552.7577248400008,229.8867053966867L556.0722546354659,229.68201254683575L559.3867844309311,229.4749920603821L562.7013142263963,229.2704714241256L566.0158440218614,229.05412193373107L569.3303738173266,228.84508921244603L572.6449036127917,228.68563076210435L575.9594334082569,228.54678901613147L579.2739632037221,228.37230374559937L582.5884929991872,228.21838847657108L585.9030227946524,228.00633291140133L589.2175525901175,227.80130610761228L592.5320823855827,227.62143488481115L595.8466121810479,227.43453765455874L599.161141976513,227.25878597828537L602.4756717719782,227.1074687763595L605.7902015674433,226.97571889886058L609.1047313629085,226.84099141611884L612.4192611583737,226.6723731294155L615.7337909538388,226.53201739009282L619.048320749304,226.36692678681723L622.3628505447691,226.20363562927827L625.6773803402343,226.0551219514904L628.9919101356995,225.9297820966334L632.3064399311646,225.76714509975295L635.6209697266298,225.58915226322966L638.9354995220949,225.4428139531097L642.2500293175601,225.26839743802202L645.5645591130253,225.10844803541616L648.8790889084904,224.95016981300068L652.1936187039556,224.78936463549314L655.5081484994207,224.64683301291203L658.8226782948859,224.49750108274336L662.1372080903511,224.33324067860016L665.4517378858162,224.20341612745534L668.7662676812814,224.04637058342513L672.0807974767465,223.93554773814213L675.3953272722117,223.7894788376124L678.7098570676769,223.63682490441786L682.024386863142,223.49769845410137L685.3389166586072,223.336032138816L688.6534464540723,223.17992445188153L691.9679762495375,223.06880359749624L695.2825060450027,222.93123091630656L698.5970358404678,222.79890852688476L701.911565635933,222.64836568029475L705.2260954313981,222.49926860533841L708.5406252268633,222.3515966479209L711.8551550223285,222.2130287275538L715.1696848177936,222.0757728798802L718.4842146132588,221.95507913275864L721.7987444087239,221.8127108698869L725.1132742041891,221.67545726381067L728.4278039996543,221.53570983582975L731.7423337951194,221.40100938901583L735.0568635905846,221.30867376951582L738.3713933860497,221.18367516298431L741.6859231815149,221.04498475514552L745.0004529769801,220.91494084165674L748.3149827724452,220.77871663350484L751.6295125679104,220.64005558880046L754.9440423633755,220.5062866734572L758.2585721588407,220.38824979769956L761.5731019543059,220.26040137782303L764.887631749771,220.15531988673436L768.2021615452362,220.03320475975192L771.5166913407013,219.9372060771249L774.8312211361665,219.8206614176159L778.1457509316317,219.6944792060312L781.4602807270968,219.59414676470354L784.774810522562,219.4876328843516L788.0893403180271,219.3679939419318L791.4038701134923,219.28084749405062L794.7183999089575,219.19444295990272L798.0329297044226,219.0810072998913L801.3474594998878,218.96507178890636L804.6619892953529,218.836332119015L807.9765190908181,218.7258304538004L811.2910488862833,218.61966961693804L814.6055786817484,218.51098344716456L817.9201084772136,218.4099852273788L821.2346382726788,218.3199656505102L824.5491680681439,218.22394444686782L827.8636978636091,218.14549762728075L831.1782276590742,218.05430528802967L834.4927574545394,217.9538498438041L837.8072872500046,217.84756081627654L841.1218170454697,217.73881589219587L844.4363468409349,217.63094195619007L847.7508766364,217.53379101865474" style="fill: none;" fill="none"></path></g></g></g></g><g opacity="0.2"><g><g><g><path stroke="rgb(255, 112, 67)" stroke-width="2px" d="M15.803897974644759,348.3651618161479L19.118427770109918,331.51491406537787L22.43295756557508,333.7127774343506L25.74748736104024,337.3758830493052L29.062017156505398,321.25825642152597L32.37654695197056,310.2690157327042L35.691076747435716,302.94280450279507L39.005606542900885,282.4294892150914L42.32013633836605,321.99087754451693L45.6346661338312,317.5951888845924L48.949195929296366,284.6273525840641L52.26372572476152,284.6273525840641L55.57825552022668,335.1780196803324L58.89278531569185,284.6273525840641L62.20731511115701,278.76642167815777L65.52184490662216,310.2690157327042L68.83637470208733,300.01235808885235L72.15090449755249,275.83593718619414L75.46543429301765,269.24238515729684L78.77996408848281,278.76642167815777L82.09449388394798,272.17283157123956L85.40902367941312,261.91617392738766L88.72355347487829,262.64879505037857L92.03808327034345,259.71834863643585L95.35261306580861,253.1247585295177L98.66714286127377,252.39213740652676L101.98167265673892,251.65951628353582L105.29620245220408,255.32262189849038L108.61073224766925,255.32262189849038L111.92526204313442,253.1247585295177L115.23979183859959,254.5900007754995L118.55432163406473,254.5900007754995L121.86885142952988,271.44021044824865L125.18338122499505,241.402858639684L128.4979110204602,245.79858537762948L131.81244081592536,245.06596425463857L135.12697061139053,239.20503334873223L138.44150040685568,239.20503334873223L141.7560302023209,251.65951628353582L145.07055999778603,243.6007220086567L148.38508979325118,248.7290698695931L151.69961958871636,240.67027559471404L155.0141493841815,236.27454885676855L158.32867917964668,242.13547976267495L161.64320897511183,234.80930661078673L164.95773877057698,234.0766854877958L168.27226856604216,237.73979110275036L171.5867983615073,238.4724122257413L174.90132815697248,234.80930661078673L178.21585795243763,226.01789121291668L181.53038774790278,235.5419277337776L184.84491754336796,234.0766854877958L188.1594473388331,234.80930661078673L191.47397713429828,227.48313345889855L194.78850692976343,230.41361795086218L198.1030367252286,231.87882211882308L201.41756652069375,261.18355280439675L204.7320963161589,232.61144324181396L208.04662611162408,231.87882211882308L211.36115590708923,225.28527008992575L214.6756857025544,223.08740672095306L217.99021549801955,240.67027559471404L221.3047452934847,217.22647581504668L224.61927508894988,219.4243391840194L227.93380488441503,225.28527008992575L231.2483346798802,216.49385469205578L234.56286447534535,218.6917180610285L237.8773942708105,217.9590969380376L241.19192406627567,220.88958143000127L244.50645386174082,220.15696030701034L247.820983657206,220.88958143000127L251.13551345267115,224.55264896693487L254.4500432481363,218.6917180610285L257.76457304360144,227.48313345889855L261.07910283906665,213.56337020009212L264.3936326345318,217.22647581504668L267.70816242999695,218.6917180610285L271.0226922254621,213.56337020009212L274.33722202092724,208.43506041717666L277.65175181639245,212.8307490771012L280.9662816118576,214.295991323083L284.28081140732274,239.9376544717231L287.5953412027879,215.02861244607394L290.90987099825304,226.01789121291668L294.22440079371825,220.15696030701034L297.5389305891834,221.6221644749712L300.85346038464854,213.56337020009212L304.1679901801137,213.56337020009212L307.4825199755789,217.9590969380376L310.79704977104404,217.22647581504668L314.1115795665092,215.76123356906487L317.4261093619744,237.00716997975942L320.74063915743955,215.76123356906487L324.0551689529047,217.9590969380376L327.3696987483699,218.6917180610285L330.68422854383505,215.76123356906487L333.9987583393002,214.295991323083L337.31328813476534,216.49385469205578L340.6278179302305,215.76123356906487L343.9423477256957,212.8307490771012L347.25687752116085,209.90030266315853L350.571407316626,210.6329237861494L353.88593711209114,219.4243391840194L357.2004669075563,217.22647581504668L360.5149967030215,219.4243391840194L363.82952649848664,211.36550683111938L367.1440562939518,208.43506041717666L370.45858608941694,208.43506041717666L373.7731158848821,217.9590969380376L377.0876456803473,212.0981279541103L380.40217547581244,209.1676815401676L383.7167052712776,211.36550683111938L387.03123506674274,206.96981817119482L390.34576486220794,216.49385469205578L393.6602946576731,212.0981279541103L396.97482445313824,212.0981279541103L400.2893542486034,209.1676815401676L403.60388404406854,204.7719548022221L406.91841383953374,206.2371970482039L410.2329436349989,203.30671255624026L413.54747343046404,204.7719548022221L416.8620032259292,205.50457592521303L420.17653302139433,201.84147031025844L423.49106281685954,208.43506041717666L426.8055926123247,204.03933367923116L430.12012240778984,205.50457592521303L433.434652203255,202.57409143324932L436.74918199872013,205.50457592521303L440.06371179418534,206.2371970482039L443.3782415896505,204.7719548022221L446.69277138511563,205.50457592521303L450.0073011805808,210.6329237861494L453.32183097604593,209.1676815401676L456.63636077151114,204.7719548022221L459.9508905669763,207.70243929418572L463.2654203624415,207.70243929418572L466.57995015790664,199.64364501930666L469.8944799533718,203.30671255624026L473.209009748837,206.2371970482039L476.52353954430214,207.70243929418572L479.8380693397673,205.50457592521303L483.15259913523244,203.30671255624026L486.4671289306976,204.7719548022221L489.7816587261628,205.50457592521303L493.09618852162794,205.50457592521303L496.4107183170931,204.03933367923116L499.72524811255823,204.7719548022221L503.0397779080234,204.03933367923116L506.3543077034886,207.70243929418572L509.66883749895374,202.57409143324932L512.9833672944188,198.91102389631573L516.297897089884,205.50457592521303L519.6124268853492,201.84147031025844L522.9269566808143,206.2371970482039L526.2414864762795,201.10888726528847L529.5560162717447,200.37626614229754L532.8705460672098,206.96981817119482L536.185075862675,196.71316052734298L539.4996056581401,204.7719548022221L542.8141354536053,202.57409143324932L546.1286652490705,202.57409143324932L549.4431950445356,203.30671255624026L552.7577248400008,201.10888726528847L556.0722546354659,198.91102389631573L559.3867844309311,198.17840277332482L562.7013142263963,198.17840277332482L566.0158440218614,195.98053940435204L569.3303738173266,196.71316052734298L572.6449036127917,204.03933367923116L575.9594334082569,206.96981817119482L579.2739632037221,201.10888726528847L582.5884929991872,204.03933367923116L585.9030227946524,194.51529715837023L589.2175525901175,195.24791828136117L592.5320823855827,198.91102389631573L595.8466121810479,197.4457816503339L599.161141976513,198.91102389631573L602.4756717719782,202.57409143324932L605.7902015674433,205.50457592521303L609.1047313629085,204.7719548022221L612.4192611583737,198.91102389631573L615.7337909538388,203.30671255624026L619.048320749304,198.91102389631573L622.3628505447691,198.91102389631573L625.6773803402343,201.10888726528847L628.9919101356995,204.7719548022221L632.3064399311646,198.17840277332482L635.6209697266298,195.24791828136117L638.9354995220949,200.37626614229754L642.2500293175601,195.24791828136117L645.5645591130253,197.4457816503339L648.8790889084904,197.4457816503339L652.1936187039556,196.71316052734298L655.5081484994207,199.64364501930666L658.8226782948859,198.17840277332482L662.1372080903511,195.24791828136117L665.4517378858162,201.10888726528847L668.7662676812814,195.98053940435204L672.0807974767465,204.03933367923116L675.3953272722117,197.4457816503339L678.7098570676769,195.98053940435204L682.024386863142,198.17840277332482L685.3389166586072,193.78267603537935L688.6534464540723,194.51529715837023L691.9679762495375,202.57409143324932L695.2825060450027,197.4457816503339L698.5970358404678,198.17840277332482L701.911565635933,194.51529715837023L705.2260954313981,194.51529715837023L708.5406252268633,194.51529715837023L711.8551550223285,195.98053940435204L715.1696848177936,195.98053940435204L718.4842146132588,198.91102389631573L721.7987444087239,194.51529715837023L725.1132742041891,195.24791828136117L728.4278039996543,194.51529715837023L731.7423337951194,195.24791828136117L735.0568635905846,203.30671255624026L738.3713933860497,196.71316052734298L741.6859231815149,193.78267603537935L745.0004529769801,195.24791828136117L748.3149827724452,193.78267603537935L751.6295125679104,193.05005491238842L754.9440423633755,193.78267603537935L758.2585721588407,196.71316052734298L761.5731019543059,194.51529715837023L764.887631749771,198.91102389631573L768.2021615452362,195.24791828136117L771.5166913407013,200.37626614229754L774.8312211361665,195.98053940435204L778.1457509316317,193.78267603537935L781.4602807270968,198.91102389631573L784.774810522562,197.4457816503339L788.0893403180271,194.51529715837023L791.4038701134923,201.10888726528847L794.7183999089575,201.10888726528847L798.0329297044226,195.24791828136117L801.3474594998878,194.51529715837023L804.6619892953529,191.58481266640658L807.9765190908181,195.24791828136117L811.2910488862833,195.98053940435204L814.6055786817484,195.24791828136117L817.9201084772136,196.71316052734298L821.2346382726788,198.91102389631573L824.5491680681439,197.4457816503339L827.8636978636091,201.10888726528847L831.1782276590742,198.17840277332482L834.4927574545394,195.98053940435204L837.8072872500046,194.51529715837023L841.1218170454697,193.78267603537935L844.4363468409349,193.78267603537935L847.7508766364,195.98053940435204" style="fill: none;" fill="none"></path></g></g></g></g></g></g><g transform="translate(53, 376)" clip-path="url(#clip_1)"><clipPath id="clip_1"><rect width="923" height="24"></rect></clipPath><g><g><line x1="12.489368179179598" y1="0" x2="12.489368179179598" y2="5" style="visibility: inherit;" fill="rgb(0, 0, 0)" stroke="rgb(204, 204, 204)" stroke-width="1px"></line><line x1="78.77996408848281" y1="0" x2="78.77996408848281" y2="5" style="visibility: inherit;" fill="rgb(0, 0, 0)" stroke="rgb(204, 204, 204)" stroke-width="1px"></line><line x1="145.07055999778603" y1="0" x2="145.07055999778603" y2="5" style="visibility: inherit;" fill="rgb(0, 0, 0)" stroke="rgb(204, 204, 204)" stroke-width="1px"></line><line x1="211.36115590708923" y1="0" x2="211.36115590708923" y2="5" style="visibility: inherit;" fill="rgb(0, 0, 0)" stroke="rgb(204, 204, 204)" stroke-width="1px"></line><line x1="277.65175181639245" y1="0" x2="277.65175181639245" y2="5" style="visibility: inherit;" fill="rgb(0, 0, 0)" stroke="rgb(204, 204, 204)" stroke-width="1px"></line><line x1="343.9423477256957" y1="0" x2="343.9423477256957" y2="5" style="visibility: inherit;" fill="rgb(0, 0, 0)" stroke="rgb(204, 204, 204)" stroke-width="1px"></line><line x1="410.2329436349989" y1="0" x2="410.2329436349989" y2="5" style="visibility: inherit;" fill="rgb(0, 0, 0)" stroke="rgb(204, 204, 204)" stroke-width="1px"></line><line x1="476.52353954430214" y1="0" x2="476.52353954430214" y2="5" style="visibility: inherit;" fill="rgb(0, 0, 0)" stroke="rgb(204, 204, 204)" stroke-width="1px"></line><line x1="542.8141354536053" y1="0" x2="542.8141354536053" y2="5" style="visibility: inherit;" fill="rgb(0, 0, 0)" stroke="rgb(204, 204, 204)" stroke-width="1px"></line><line x1="609.1047313629085" y1="0" x2="609.1047313629085" y2="5" style="visibility: inherit;" fill="rgb(0, 0, 0)" stroke="rgb(204, 204, 204)" stroke-width="1px"></line><line x1="675.3953272722117" y1="0" x2="675.3953272722117" y2="5" style="visibility: inherit;" fill="rgb(0, 0, 0)" stroke="rgb(204, 204, 204)" stroke-width="1px"></line><line x1="741.6859231815149" y1="0" x2="741.6859231815149" y2="5" style="visibility: inherit;" fill="rgb(0, 0, 0)" stroke="rgb(204, 204, 204)" stroke-width="1px"></line><line x1="807.9765190908181" y1="0" x2="807.9765190908181" y2="5" style="visibility: inherit;" fill="rgb(0, 0, 0)" stroke="rgb(204, 204, 204)" stroke-width="1px"></line><line x1="874.2671150001213" y1="0" x2="874.2671150001213" y2="5" style="visibility: inherit;" fill="rgb(0, 0, 0)" stroke="rgb(204, 204, 204)" stroke-width="1px"></line></g><g transform="translate(0, 8)"><text x="12.489368179179598" y="0" dx="0em" dy="0.95em" style="text-anchor: middle; visibility: inherit; font-family: Roboto, sans-serif; font-size: 12px; font-weight: 200;" fill="rgb(33, 33, 33)" stroke="none" stroke-width="1px">0</text><text x="78.77996408848281" y="0" dx="0em" dy="0.95em" style="text-anchor: middle; visibility: inherit; font-family: Roboto, sans-serif; font-size: 12px; font-weight: 200;" fill="rgb(33, 33, 33)" stroke="none" stroke-width="1px">2k</text><text x="145.07055999778603" y="0" dx="0em" dy="0.95em" style="text-anchor: middle; visibility: inherit; font-family: Roboto, sans-serif; font-size: 12px; font-weight: 200;" fill="rgb(33, 33, 33)" stroke="none" stroke-width="1px">4k</text><text x="211.36115590708923" y="0" dx="0em" dy="0.95em" style="text-anchor: middle; visibility: inherit; font-family: Roboto, sans-serif; font-size: 12px; font-weight: 200;" fill="rgb(33, 33, 33)" stroke="none" stroke-width="1px">6k</text><text x="277.65175181639245" y="0" dx="0em" dy="0.95em" style="text-anchor: middle; visibility: inherit; font-family: Roboto, sans-serif; font-size: 12px; font-weight: 200;" fill="rgb(33, 33, 33)" stroke="none" stroke-width="1px">8k</text><text x="343.9423477256957" y="0" dx="0em" dy="0.95em" style="text-anchor: middle; visibility: inherit; font-family: Roboto, sans-serif; font-size: 12px; font-weight: 200;" fill="rgb(33, 33, 33)" stroke="none" stroke-width="1px">10k</text><text x="410.2329436349989" y="0" dx="0em" dy="0.95em" style="text-anchor: middle; visibility: inherit; font-family: Roboto, sans-serif; font-size: 12px; font-weight: 200;" fill="rgb(33, 33, 33)" stroke="none" stroke-width="1px">12k</text><text x="476.52353954430214" y="0" dx="0em" dy="0.95em" style="text-anchor: middle; visibility: inherit; font-family: Roboto, sans-serif; font-size: 12px; font-weight: 200;" fill="rgb(33, 33, 33)" stroke="none" stroke-width="1px">14k</text><text x="542.8141354536053" y="0" dx="0em" dy="0.95em" style="text-anchor: middle; visibility: inherit; font-family: Roboto, sans-serif; font-size: 12px; font-weight: 200;" fill="rgb(33, 33, 33)" stroke="none" stroke-width="1px">16k</text><text x="609.1047313629085" y="0" dx="0em" dy="0.95em" style="text-anchor: middle; visibility: inherit; font-family: Roboto, sans-serif; font-size: 12px; font-weight: 200;" fill="rgb(33, 33, 33)" stroke="none" stroke-width="1px">18k</text><text x="675.3953272722117" y="0" dx="0em" dy="0.95em" style="text-anchor: middle; visibility: inherit; font-family: Roboto, sans-serif; font-size: 12px; font-weight: 200;" fill="rgb(33, 33, 33)" stroke="none" stroke-width="1px">20k</text><text x="741.6859231815149" y="0" dx="0em" dy="0.95em" style="text-anchor: middle; visibility: inherit; font-family: Roboto, sans-serif; font-size: 12px; font-weight: 200;" fill="rgb(33, 33, 33)" stroke="none" stroke-width="1px">22k</text><text x="807.9765190908181" y="0" dx="0em" dy="0.95em" style="text-anchor: middle; visibility: inherit; font-family: Roboto, sans-serif; font-size: 12px; font-weight: 200;" fill="rgb(33, 33, 33)" stroke="none" stroke-width="1px">24k</text><text x="874.2671150001213" y="0" dx="0em" dy="0.95em" style="text-anchor: middle; visibility: inherit; font-family: Roboto, sans-serif; font-size: 12px; font-weight: 200;" fill="rgb(33, 33, 33)" stroke="none" stroke-width="1px">26k</text></g><line x1="0" y1="0" x2="923.8125" y2="0" fill="rgb(0, 0, 0)" stroke="rgb(204, 204, 204)" stroke-width="1px"></line></g></g></g></g></svg>