<svg viewBox="0 0 1584.5999755859375 400" xmlns="http://www.w3.org/2000/svg"><g><g><g><g><g><line x1="74.78125" y1="367.7330249782769" x2="69.78125" y2="367.7330249782769" style="visibility: inherit;" fill="rgb(0, 0, 0)" stroke="rgb(204, 204, 204)" stroke-width="1px"></line><line x1="74.78125" y1="332.14415622514497" x2="69.78125" y2="332.14415622514497" style="visibility: inherit;" fill="rgb(0, 0, 0)" stroke="rgb(204, 204, 204)" stroke-width="1px"></line><line x1="74.78125" y1="296.5552874720131" x2="69.78125" y2="296.5552874720131" style="visibility: inherit;" fill="rgb(0, 0, 0)" stroke="rgb(204, 204, 204)" stroke-width="1px"></line><line x1="74.78125" y1="260.9664187188812" x2="69.78125" y2="260.9664187188812" style="visibility: inherit;" fill="rgb(0, 0, 0)" stroke="rgb(204, 204, 204)" stroke-width="1px"></line><line x1="74.78125" y1="225.3775499657493" x2="69.78125" y2="225.3775499657493" style="visibility: inherit;" fill="rgb(0, 0, 0)" stroke="rgb(204, 204, 204)" stroke-width="1px"></line><line x1="74.78125" y1="189.78868121261743" x2="69.78125" y2="189.78868121261743" style="visibility: inherit;" fill="rgb(0, 0, 0)" stroke="rgb(204, 204, 204)" stroke-width="1px"></line><line x1="74.78125" y1="154.19981245948554" x2="69.78125" y2="154.19981245948554" style="visibility: inherit;" fill="rgb(0, 0, 0)" stroke="rgb(204, 204, 204)" stroke-width="1px"></line><line x1="74.78125" y1="118.61094370635362" x2="69.78125" y2="118.61094370635362" style="visibility: inherit;" fill="rgb(0, 0, 0)" stroke="rgb(204, 204, 204)" stroke-width="1px"></line><line x1="74.78125" y1="83.0220749532217" x2="69.78125" y2="83.0220749532217" style="visibility: inherit;" fill="rgb(0, 0, 0)" stroke="rgb(204, 204, 204)" stroke-width="1px"></line><line x1="74.78125" y1="47.43320620008979" x2="69.78125" y2="47.43320620008979" style="visibility: inherit;" fill="rgb(0, 0, 0)" stroke="rgb(204, 204, 204)" stroke-width="1px"></line><line x1="74.78125" y1="11.844337446957912" x2="69.78125" y2="11.844337446957912" style="visibility: inherit;" fill="rgb(0, 0, 0)" stroke="rgb(204, 204, 204)" stroke-width="1px"></line></g><g transform="translate(64.78125, 0)"><text x="0" y="367.7330249782769" dx="0em" dy="0.3em" style="text-anchor: end; visibility: inherit; font-family: Roboto, sans-serif; font-size: 12px; font-weight: 200;" fill="rgb(33, 33, 33)" stroke="none" stroke-width="1px">0</text><text x="0" y="332.14415622514497" dx="0em" dy="0.3em" style="text-anchor: end; visibility: inherit; font-family: Roboto, sans-serif; font-size: 12px; font-weight: 200;" fill="rgb(33, 33, 33)" stroke="none" stroke-width="1px">5e-6</text><text x="0" y="296.5552874720131" dx="0em" dy="0.3em" style="text-anchor: end; visibility: inherit; font-family: Roboto, sans-serif; font-size: 12px; font-weight: 200;" fill="rgb(33, 33, 33)" stroke="none" stroke-width="1px">1e-5</text><text x="0" y="260.9664187188812" dx="0em" dy="0.3em" style="text-anchor: end; visibility: inherit; font-family: Roboto, sans-serif; font-size: 12px; font-weight: 200;" fill="rgb(33, 33, 33)" stroke="none" stroke-width="1px">1.5e-5</text><text x="0" y="225.3775499657493" dx="0em" dy="0.3em" style="text-anchor: end; visibility: inherit; font-family: Roboto, sans-serif; font-size: 12px; font-weight: 200;" fill="rgb(33, 33, 33)" stroke="none" stroke-width="1px">2e-5</text><text x="0" y="189.78868121261743" dx="0em" dy="0.3em" style="text-anchor: end; visibility: inherit; font-family: Roboto, sans-serif; font-size: 12px; font-weight: 200;" fill="rgb(33, 33, 33)" stroke="none" stroke-width="1px">2.5e-5</text><text x="0" y="154.19981245948554" dx="0em" dy="0.3em" style="text-anchor: end; visibility: inherit; font-family: Roboto, sans-serif; font-size: 12px; font-weight: 200;" fill="rgb(33, 33, 33)" stroke="none" stroke-width="1px">3e-5</text><text x="0" y="118.61094370635362" dx="0em" dy="0.3em" style="text-anchor: end; visibility: inherit; font-family: Roboto, sans-serif; font-size: 12px; font-weight: 200;" fill="rgb(33, 33, 33)" stroke="none" stroke-width="1px">3.5e-5</text><text x="0" y="83.0220749532217" dx="0em" dy="0.3em" style="text-anchor: end; visibility: inherit; font-family: Roboto, sans-serif; font-size: 12px; font-weight: 200;" fill="rgb(33, 33, 33)" stroke="none" stroke-width="1px">4e-5</text><text x="0" y="47.43320620008979" dx="0em" dy="0.3em" style="text-anchor: end; visibility: inherit; font-family: Roboto, sans-serif; font-size: 12px; font-weight: 200;" fill="rgb(33, 33, 33)" stroke="none" stroke-width="1px">4.5e-5</text><text x="0" y="11.844337446957912" dx="0em" dy="0.3em" style="text-anchor: end; visibility: inherit; font-family: Roboto, sans-serif; font-size: 12px; font-weight: 200;" fill="rgb(33, 33, 33)" stroke="none" stroke-width="1px">5e-5</text></g><line x1="74.78125" y1="0" x2="74.78125" y2="376" fill="rgb(0, 0, 0)" stroke="rgb(204, 204, 204)" stroke-width="1px"></line></g></g><g transform="translate(74, 0)" clip-path="url(#clip_0)"><clipPath id="clip_0"><rect width="1509" height="376"></rect></clipPath><g><g><g><line x1="8.879799638174342" y1="0" x2="8.879799638174342" y2="376" fill="rgb(0, 0, 0)" stroke="rgb(66, 66, 66)" stroke-width="1px" opacity="0.25"></line><line x1="115.40594358896776" y1="0" x2="115.40594358896776" y2="376" fill="rgb(0, 0, 0)" stroke="rgb(66, 66, 66)" stroke-width="1px" opacity="0.25"></line><line x1="221.93208753976123" y1="0" x2="221.93208753976123" y2="376" fill="rgb(0, 0, 0)" stroke="rgb(66, 66, 66)" stroke-width="1px" opacity="0.25"></line><line x1="328.4582314905547" y1="0" x2="328.4582314905547" y2="376" fill="rgb(0, 0, 0)" stroke="rgb(66, 66, 66)" stroke-width="1px" opacity="0.25"></line><line x1="434.9843754413481" y1="0" x2="434.9843754413481" y2="376" fill="rgb(0, 0, 0)" stroke="rgb(66, 66, 66)" stroke-width="1px" opacity="0.25"></line><line x1="541.5105193921415" y1="0" x2="541.5105193921415" y2="376" fill="rgb(0, 0, 0)" stroke="rgb(66, 66, 66)" stroke-width="1px" opacity="0.25"></line><line x1="648.036663342935" y1="0" x2="648.036663342935" y2="376" fill="rgb(0, 0, 0)" stroke="rgb(66, 66, 66)" stroke-width="1px" opacity="0.25"></line><line x1="754.5628072937284" y1="0" x2="754.5628072937284" y2="376" fill="rgb(0, 0, 0)" stroke="rgb(66, 66, 66)" stroke-width="1px" opacity="0.25"></line><line x1="861.0889512445218" y1="0" x2="861.0889512445218" y2="376" fill="rgb(0, 0, 0)" stroke="rgb(66, 66, 66)" stroke-width="1px" opacity="0.25"></line><line x1="967.6150951953152" y1="0" x2="967.6150951953152" y2="376" fill="rgb(0, 0, 0)" stroke="rgb(66, 66, 66)" stroke-width="1px" opacity="0.25"></line><line x1="1074.1412391461088" y1="0" x2="1074.1412391461088" y2="376" fill="rgb(0, 0, 0)" stroke="rgb(66, 66, 66)" stroke-width="1px" opacity="0.25"></line><line x1="1180.6673830969023" y1="0" x2="1180.6673830969023" y2="376" fill="rgb(0, 0, 0)" stroke="rgb(66, 66, 66)" stroke-width="1px" opacity="0.25"></line><line x1="1287.1935270476956" y1="0" x2="1287.1935270476956" y2="376" fill="rgb(0, 0, 0)" stroke="rgb(66, 66, 66)" stroke-width="1px" opacity="0.25"></line><line x1="1393.719670998489" y1="0" x2="1393.719670998489" y2="376" fill="rgb(0, 0, 0)" stroke="rgb(66, 66, 66)" stroke-width="1px" opacity="0.25"></line><line x1="1500.2458149492825" y1="0" x2="1500.2458149492825" y2="376" fill="rgb(0, 0, 0)" stroke="rgb(66, 66, 66)" stroke-width="1px" opacity="0.25"></line></g><g><line x1="0" y1="367.7330249782769" x2="1509.81875" y2="367.7330249782769" fill="rgb(0, 0, 0)" stroke="rgb(66, 66, 66)" stroke-width="1px" opacity="0.25"></line><line x1="0" y1="332.14415622514497" x2="1509.81875" y2="332.14415622514497" fill="rgb(0, 0, 0)" stroke="rgb(66, 66, 66)" stroke-width="1px" opacity="0.25"></line><line x1="0" y1="296.5552874720131" x2="1509.81875" y2="296.5552874720131" fill="rgb(0, 0, 0)" stroke="rgb(66, 66, 66)" stroke-width="1px" opacity="0.25"></line><line x1="0" y1="260.9664187188812" x2="1509.81875" y2="260.9664187188812" fill="rgb(0, 0, 0)" stroke="rgb(66, 66, 66)" stroke-width="1px" opacity="0.25"></line><line x1="0" y1="225.3775499657493" x2="1509.81875" y2="225.3775499657493" fill="rgb(0, 0, 0)" stroke="rgb(66, 66, 66)" stroke-width="1px" opacity="0.25"></line><line x1="0" y1="189.78868121261743" x2="1509.81875" y2="189.78868121261743" fill="rgb(0, 0, 0)" stroke="rgb(66, 66, 66)" stroke-width="1px" opacity="0.25"></line><line x1="0" y1="154.19981245948554" x2="1509.81875" y2="154.19981245948554" fill="rgb(0, 0, 0)" stroke="rgb(66, 66, 66)" stroke-width="1px" opacity="0.25"></line><line x1="0" y1="118.61094370635362" x2="1509.81875" y2="118.61094370635362" fill="rgb(0, 0, 0)" stroke="rgb(66, 66, 66)" stroke-width="1px" opacity="0.25"></line><line x1="0" y1="83.0220749532217" x2="1509.81875" y2="83.0220749532217" fill="rgb(0, 0, 0)" stroke="rgb(66, 66, 66)" stroke-width="1px" opacity="0.25"></line><line x1="0" y1="47.43320620008979" x2="1509.81875" y2="47.43320620008979" fill="rgb(0, 0, 0)" stroke="rgb(66, 66, 66)" stroke-width="1px" opacity="0.25"></line><line x1="0" y1="11.844337446957912" x2="1509.81875" y2="11.844337446957912" fill="rgb(0, 0, 0)" stroke="rgb(66, 66, 66)" stroke-width="1px" opacity="0.25"></line></g></g></g><g><g><line x1="0" y1="367.7330249782769" x2="1509.81875" y2="367.7330249782769" fill="rgb(0, 0, 0)" stroke="rgb(153, 153, 153)" stroke-width="1.5px"></line></g></g><g><g><line x1="8.879799638174342" y1="0" x2="8.879799638174342" y2="376" fill="rgb(0, 0, 0)" stroke="rgb(153, 153, 153)" stroke-width="1.5px"></line></g></g><g><g><g><g><g><path stroke="rgb(255, 112, 67)" stroke-width="2px" d="M14.206106835714014,13.253514790843386L19.532414033253684,13.958464389483098L24.858721230793353,14.663640331179893L30.185028428333034,15.36905557591138L35.511335625872704,16.074702342273092L40.837642823412374,16.780586685014455L46.16395002095204,17.48670378196651L51.49025721849173,18.193057714906523L56.81656441603139,18.89964497682461L62.14287161357106,19.606468662951215L67.46917881111074,20.31352601350539L72.79548600865041,21.02081952576949L78.12179320619008,21.728346922737643L83.44810040372975,22.436110299215002L88.77440760126942,23.144107716108024L94.1007147988091,23.852340978398274L99.42702199634876,24.560808396861034L104.75332919388843,25.26951155767676L110.07963639142811,25.978448963916247L115.40594358896776,26.68762203064591L120.73225078650744,27.397029413546512L126.05855798404711,28.106671200742525L131.38486518158678,28.816548603087142L136.71117237912645,29.526660447723412L142.03747957666613,30.23700784469697L147.3637867742058,30.947589717184492L152.69009397174548,31.65840708986121L158.01640116928516,32.36945896704258L163.34270836682484,33.080746300209434L168.66901556436449,33.79226816317319L173.99532276190416,34.50402544399243L179.32162995944384,35.2160172766897L184.6479371569835,35.92824449385258L189.9742443545232,36.64070628218444L195.30055155206284,37.353403425352376L200.6268587496025,38.06633515654805L205.95316594714217,38.77950221598107L211.27947314468184,39.49290387817183L216.60578034222152,40.20654084446977L221.93208753976123,40.92041242638206L227.2583947373009,41.63451929030388L232.58470193484058,42.34886078103914L237.91100913238026,43.06343753337386L243.23731632991993,43.77824892224329L248.5636235274596,44.493295553714965L253.88993072499923,45.20857683012254L259.21623792253894,45.92409333132016L264.5425451200786,46.63984448466552L269.8688523176183,47.35583084599371L275.1951595151579,48.07205186560381L280.5214667126976,48.788508077241254L285.84777391023727,49.505198952314245L291.17408110777694,50.22212500418284L296.5003883053166,50.93928572374378L301.8266955028563,51.65668160548816L307.153002700396,52.37431215835582L312.47930989793565,53.092177859322035L317.8056170954753,53.81027823408241L323.131924293015,54.52861374330408L328.4582314905547,55.24718392828528L333.78453868809436,55.965989234475L339.11084588563403,56.685029217730744L344.4371530831737,57.40430430926665L349.7634602807134,58.12381407856215L355.08976747825307,58.84355894348363L360.4160746757927,59.56353848628037L365.74238187333236,60.28375311228268L371.06868907087204,61.004202415731086L376.3949962684117,61.724886790157335L381.7213034659514,62.44580584108746L387.04761066349107,63.166959950927215L392.37391786103075,63.88834873584152L397.7002250585704,64.60997256772652L403.02653225611004,65.33183107279265L408.3528394536498,66.05392461299466L413.6791466511894,66.77625282404234L419.0054538487291,67.49881605847064L424.33176104626875,68.22161396098626L429.6580682438084,68.944646875185L434.9843754413481,69.66791445430755L440.3106826388877,70.39141703345572L445.6369898364274,71.11515427397444L450.9632970339671,71.83912650288383L456.2896042315067,72.56333338923447L461.61591142904643,73.28777525234823L466.94221862658605,74.01245176861158L472.2685258241258,74.73736293938144L477.5948330216654,75.46250907296653L482.92114021920514,76.18788985600203L488.24744741674476,76.9135055899539L493.5737546142845,77.63935596798623L498.9000618118241,78.36544128501929L504.22636900936374,79.09176124045678L509.55267620690347,79.81831612295167L514.8789834044431,80.54510563787439L520.2052906019828,81.27213006787223L525.5315977995225,81.99938912402763L530.8579049970622,82.72688308322608L536.1842121946017,83.45461179931851L541.5105193921415,84.18257526762861L546.8368265896811,84.910773483434L552.1631337872209,85.63920644196816L557.4894409847604,86.36787413841907L562.8157481823002,87.09677656793023L568.1420553798398,87.82591372559874L573.4683625773796,88.555285606477L578.7946697749192,89.28489220557154L584.120976972459,90.01473351784432L589.4472841699985,90.74480953821055L594.7735913675383,91.47512026154061L600.0998985650779,92.20566568265878L605.4262057626175,92.93644579634439L610.7525129601572,93.66746059732972L616.0788201576969,94.39871008030232L621.4051273552366,95.13019423990369L626.7314345527762,95.86191307072932L632.0577417503159,96.59386656732855L637.3840489478556,97.32605472420515L642.7103561453953,98.05847742046974L648.036663342935,98.7911347678056L653.3629705404746,99.52402676053094L658.6892777380143,100.25715339291867L664.015584935554,100.99051465919797L669.3418921330936,101.72411055355262L674.6681993306333,102.45794107012215L679.9945065281729,103.19200620300107L685.3208137257127,103.92630594623888L690.6471209232523,104.66084029384032L695.973428120792,105.3956092397647L701.2997353183316,106.13061277792656L706.6260425158714,106.86585090219546L711.952349713411,107.60132360639503L717.2786569109506,108.33703088430447L722.6049641084903,109.07297272965724L727.93127130603,109.80914913614096L733.2575785035697,110.54556009739866L738.5838857011094,111.28220560702762L743.910192898649,112.01908565857973L749.2365000961887,112.75620024556065L754.5628072937284,113.4935493614311L759.8891144912681,114.23113299960612L765.2154216888077,114.96895115345536L770.5417288863474,115.70700381630179L775.868036083887,116.44529098142388L781.1943432814268,117.18381264205347L786.5206504789664,117.92256879137689L791.846957676506,118.66155942253513L797.1732648740457,119.40078452862276L802.4995720715855,120.1402441026885L807.8258792691252,120.87993813773568L813.1521864666647,121.61986662672142L818.4784936642044,122.36002956255675L823.8048008617441,123.10042693810729L829.1311080592839,123.84105874619202L834.4574152568234,124.58192497958454L839.7837224543631,125.3230256310124L845.1100296519028,126.06436069315679L850.4363368494426,126.8059301586533L855.7626440469821,127.54773402009101L861.0889512445218,128.28977227001332L866.4152584420614,129.0320449009174L871.7415656396012,129.7745519052547L877.0678728371408,130.51729327543012L882.3941800346806,131.2602690038028L887.7204872322203,132.00347908268554L893.0467944297599,132.74692350434506L898.3731016272995,133.49060226100212L903.6994088248393,134.23451534483135L909.025716022379,134.97866274796107L914.3520232199186,135.72304446247355L919.6783304174583,136.46766048040496L925.004637614998,137.2125107937452L930.3309448125377,137.95759539443816L935.6572520100773,138.70291427438133L940.983559207617,139.44846742542632L946.3098664051568,140.1942547992832L951.6361736026963,140.94027642826052L956.962480800236,141.68653230406343L962.2887879977757,142.43302241835107L967.6150951953152,143.17974676273684L972.941402392855,143.926705328788L978.2677095903947,144.6738981080253L983.5940167879344,145.42132509192413L988.9203239854739,146.1689862719133L994.2466311830137,146.91688163937607L999.5729383805534,147.66501118564915L1004.899245578093,148.41337490202363L1010.2255527756327,149.161972779744L1015.5518599731724,149.9108048100091L1020.8781671707121,150.65987098397136L1026.2044743682518,151.40917129273743L1031.5307815657914,152.1587057273679L1036.8570887633311,152.908474278877L1042.1833959608707,153.65847693823287L1047.5097031584105,154.40871369635767L1052.83601035595,155.15918454412775L1058.1623175534896,155.90988947237284L1063.4886247510294,156.66082847187678L1068.8149319485692,157.41200153337738L1074.1412391461088,158.16340864756623L1079.4675463436483,158.91504976955318L1084.7938535411881,159.66692492582644L1090.120160738728,160.41903410693416L1095.4464679362675,161.17137730337842L1100.772775133807,161.92395450561565L1106.0990823313468,162.67676570405573L1111.4253895288864,163.42981088906282L1116.7516967264262,164.18309005095503L1122.0780039239658,164.93660318000448L1127.4043111215055,165.69035026643738L1132.730618319045,166.4443313004337L1138.056925516585,167.19854627212754L1143.3832327141245,167.95299517160714L1148.7095399116643,168.7076779889143L1154.0358471092038,169.46259471404522L1159.3621543067436,170.21774533695L1164.6884615042832,170.9731298475327L1170.0147687018227,171.72874823565138L1175.3410758993625,172.48460049111782L1180.6673830969023,173.2406866036983L1185.9936902944419,173.99700656311282L1191.3199974919814,174.75356035903548L1196.6463046895212,175.51034798109416L1201.972611887061,176.26736941887114L1207.2989190846006,177.02462464584468L1212.6252262821401,177.78211366770518L1217.95153347968,178.53983647389484L1223.2778406772197,179.29779305381L1228.6041478747593,180.05598339680085L1233.9304550722989,180.81440749217182L1239.2567622698386,181.57306532918133L1244.5830694673782,182.3319568970417L1249.909376664918,183.09108218491963L1255.2356838624576,183.85044118193557L1260.5619910599974,184.6100338771643L1265.888298257537,185.3698602596345L1271.2146054550767,186.12992031066258L1276.5409126526163,186.89021402691665L1281.8672198501558,187.6507413972867L1287.1935270476956,188.41150241061715L1292.5198342452354,189.1724970557062L1297.846141442775,189.9337253213065L1303.1724486403145,190.6951871961246L1308.4987558378543,191.4568826650854L1313.8250630353941,192.21881172057013L1319.1513702329337,192.98097435114752L1324.4776774304732,193.74337054534007L1329.803984628013,194.50600028978337L1335.1302918255528,195.2688635729301L1340.4565990230924,196.03196038501423L1345.782906220632,196.79529071255348L1351.1092134181717,197.558854544996" style="fill: none;" fill="none"></path></g></g></g></g><g opacity="0.2"><g><g><g><path stroke="rgb(255, 112, 67)" stroke-width="2px" d="M14.206106835714014,13.253514790843386L19.532414033253684,14.662709038534398L24.858721230793353,16.071877391915407L30.185028428333034,17.48107163960642L35.511335625872704,18.890239992987425L40.837642823412374,20.29943424067848L46.16395002095204,21.708602594059446L51.49025721849173,23.1177968417505L56.81656441603139,24.526965195131467L62.14287161357106,25.93615944282252L67.46917881111074,27.345327796203485L72.79548600865041,28.75452204389454L78.12179320619008,30.163690397275506L83.44810040372975,31.57288464496656L88.77440760126942,32.98205299834753L94.1007147988091,34.39124724603858L99.42702199634876,35.800415599419544L104.75332919388843,37.2096098471106L110.07963639142811,38.61877820049161L115.40594358896776,40.027972448182624L120.73225078650744,41.43714080156363L126.05855798404711,42.84630915494459L131.38486518158678,44.25550340263565L136.71117237912645,45.66467175601662L142.03747957666613,47.07386600370767L147.3637867742058,48.483034357088634L152.69009397174548,49.89222860477969L158.01640116928516,51.30139695816065L163.34270836682484,52.71059120585171L168.66901556436449,54.119759559232676L173.99532276190416,55.52895380692373L179.32162995944384,56.93812216030474L184.6479371569835,58.34731640799575L189.9742443545232,59.756484761376754L195.30055155206284,61.16567900906777L200.6268587496025,62.57484736244878L205.95316594714217,63.98404161013979L211.27947314468184,65.3932099635208L216.60578034222152,66.80240421121185L221.93208753976123,68.21157256459281L227.2583947373009,69.62076681228388L232.58470193484058,71.02993516566484L237.91100913238026,72.43912941335589L243.23731632991993,73.84829776673686L248.5636235274596,75.25749201442791L253.88993072499923,76.66666036780887L259.21623792253894,78.07585461549994L264.5425451200786,79.4850229688809L269.8688523176183,80.89421721657196L275.1951595151579,82.30338556995292L280.5214667126976,83.71257981764397L285.84777391023727,85.12174817102498L291.17408110777694,86.530942418716L296.5003883053166,87.940110772097L301.8266955028563,89.34930501978802L307.153002700396,90.75847337316902L312.47930989793565,92.16766762086003L317.8056170954753,93.57683597424104L323.131924293015,94.98603022193205L328.4582314905547,96.39519857531306L333.78453868809436,97.80439282300412L339.11084588563403,99.21356117638508L344.4371530831737,100.62275542407613L349.7634602807134,102.03192377745711L355.08976747825307,103.44111802514816L360.4160746757927,104.85028637852912L365.74238187333236,106.25948062622018L371.06868907087204,107.66864897960114L376.3949962684117,109.07784322729219L381.7213034659514,110.48701158067317L387.04761066349107,111.89620582836422L392.37391786103075,113.30537418174522L397.7002250585704,114.71456842943624L403.02653225611004,116.12373678281725L408.3528394536498,117.53293103050825L413.6791466511894,118.94209938388927L419.0054538487291,120.35129363158028L424.33176104626875,121.76046198496128L429.6580682438084,123.1696562326523L434.9843754413481,124.5788245860333L440.3106826388877,125.98801883372435L445.6369898364274,127.39718718710533L450.9632970339671,128.80638143479638L456.2896042315067,130.21554978817736L461.61591142904643,131.6247440358684L466.94221862658605,133.03391238924937L472.2685258241258,134.44308074263037L477.5948330216654,135.85227499032138L482.92114021920514,137.26144334370238L488.24744741674476,138.67063759139342L493.5737546142845,140.07980594477442L498.9000618118241,141.48900019246543L504.22636900936374,142.89816854584643L509.55267620690347,144.3073627935375L514.8789834044431,145.71653114691844L520.2052906019828,147.1257253946095L525.5315977995225,148.53489374799048L530.8579049970622,149.94408799568154L536.1842121946017,151.35326929621752L541.5105193921415,152.76245059675355L546.8368265896811,154.17163189728953L552.1631337872209,155.58081319782556L557.4894409847604,156.9899944983616L562.8157481823002,158.3991757988976L568.1420553798398,159.8083570994336L573.4683625773796,161.2175383999696L578.7946697749192,162.62671970050565L584.120976972459,164.03590100104162L589.4472841699985,165.44508230157766L594.7735913675383,166.85426360211366L600.0998985650779,168.26344490264967L605.4262057626175,169.67262620318567L610.7525129601572,171.0818075037217L616.0788201576969,172.49098880425774L621.4051273552366,173.90017010479372L626.7314345527762,175.30935140532975L632.0577417503159,176.71853270586575L637.3840489478556,178.12771400640176L642.7103561453953,179.53688235978274L648.036663342935,180.94606366031877L653.3629705404746,182.35524496085475L658.6892777380143,183.76442626139078L664.015584935554,185.1736075619268L669.3418921330936,186.58278886246282L674.6681993306333,187.9919701629988L679.9945065281729,189.40115146353483L685.3208137257127,190.81033276407086L690.6471209232523,192.21951406460684L695.973428120792,193.62869536514285L701.2997353183316,195.03787666567888L706.6260425158714,196.4470579662149L711.952349713411,197.8562392667509L717.2786569109506,199.26542056728692L722.6049641084903,200.67460186782296L727.93127130603,202.08378316835893L733.2575785035697,203.49296446889494L738.5838857011094,204.90214576943097L743.910192898649,206.31132706996698L749.2365000961887,207.72050837050298L754.5628072937284,209.12968967103896L759.8891144912681,210.53887097157505L765.2154216888077,211.94805227211103L770.5417288863474,213.35723357264703L775.868036083887,214.76641487318307L781.1943432814268,216.17559617371907L786.5206504789664,217.58477747425508L791.846957676506,218.99395877479105L797.1732648740457,220.4031400753271L802.4995720715855,221.81232137586312L807.8258792691252,223.22150267639913L813.1521864666647,224.63068397693513L818.4784936642044,226.03986527747116L823.8048008617441,227.44904657800717L829.1311080592839,228.85822787854315L834.4574152568234,230.26740917907918L839.7837224543631,231.67659047961521L845.1100296519028,233.08577178015122L850.4363368494426,234.4949530806872L855.7626440469821,235.90413438122323L861.0889512445218,237.31331568175926L866.4152584420614,238.72249698229524L871.7415656396012,240.13167828283127L877.0678728371408,241.5408595833673L882.3941800346806,242.95004088390328L887.7204872322203,244.3592221844393L893.0467944297599,245.76840348497532L898.3731016272995,247.17758478551136L903.6994088248393,248.58676608604733L909.025716022379,249.99594738658334L914.3520232199186,251.40512868711934L919.6783304174583,252.81430998765538L925.004637614998,254.22349128819138L930.3309448125377,255.63267258872742L935.6572520100773,257.04185388926345L940.983559207617,258.4510351897994L946.3098664051568,259.86021001675795L951.6361736026963,261.2693913172939L956.962480800236,262.67857261782996L962.2887879977757,264.087753918366L967.6150951953152,265.49693521890197L972.941402392855,266.90611651943794L978.2677095903947,268.31529781997403L983.5940167879344,269.72447912051L988.9203239854739,271.133660421046L994.2466311830137,272.542841721582L999.5729383805534,273.95202302211806L1004.899245578093,275.36120432265403L1010.2255527756327,276.77038562319007L1015.5518599731724,278.1795669237261L1020.8781671707121,279.58874822426213L1026.2044743682518,280.9979295247981L1031.5307815657914,282.40711082533414L1036.8570887633311,283.8162921258702L1042.1833959608707,285.22547342640615L1047.5097031584105,286.6346547269422L1052.83601035595,288.04383602747816L1058.1623175534896,289.4530173280142L1063.4886247510294,290.8621986285502L1068.8149319485692,292.2713799290862L1074.1412391461088,293.68056122962224L1079.4675463436483,295.08973605658076L1084.7938535411881,296.49891735711674L1090.120160738728,297.9080986576527L1095.4464679362675,299.31727995818875L1100.772775133807,300.7264612587248L1106.0990823313468,302.13564255926076L1111.4253895288864,303.5448238597968L1116.7516967264262,304.9540051603328L1122.0780039239658,306.36318646086886L1127.4043111215055,307.77236776140484L1132.730618319045,309.18154906194087L1138.056925516585,310.5907303624769L1143.3832327141245,311.9999116630129L1148.7095399116643,313.40909296354886L1154.0358471092038,314.8182742640849L1159.3621543067436,316.2274555646209L1164.6884615042832,317.6366368651569L1170.0147687018227,319.04581816569294L1175.3410758993625,320.4549994662289L1180.6673830969023,321.86418076676495L1185.9936902944419,323.273362067301L1191.3199974919814,324.68254336783696L1196.6463046895212,326.091724668373L1201.972611887061,327.500905968909L1207.2989190846006,328.91008403265624L1212.6252262821401,330.3192653331923L1217.95153347968,331.72844663372825L1223.2778406772197,333.1376279342643L1228.6041478747593,334.5468092348003L1233.9304550722989,335.9559905353363L1239.2567622698386,337.36517183587233L1244.5830694673782,338.77435313640837L1249.909376664918,340.18353443694434L1255.2356838624576,341.5927157374804L1260.5619910599974,343.0018970380164L1265.888298257537,344.4110783385524L1271.2146054550767,345.82025802069404L1276.5409126526163,347.2294393212301L1281.8672198501558,348.63862062176605L1287.1935270476956,350.0478019223021L1292.5198342452354,351.4569832228381L1297.846141442775,352.8661645233741L1303.1724486403145,354.27534582391013L1308.4987558378543,355.68452631524895L1313.8250630353941,357.0937076157849L1319.1513702329337,358.50288891632096L1324.4776774304732,359.91207021685693L1329.803984628013,361.32125111279436L1335.1302918255528,362.7304320087318L1340.4565990230924,364.1396133092678L1345.782906220632,365.54879420520524L1351.1092134181717,366.95797535401675" style="fill: none;" fill="none"></path></g></g></g></g></g></g><g transform="translate(74, 376)" clip-path="url(#clip_1)"><clipPath id="clip_1"><rect width="1509" height="24"></rect></clipPath><g><g><line x1="8.879799638174342" y1="0" x2="8.879799638174342" y2="5" style="visibility: inherit;" fill="rgb(0, 0, 0)" stroke="rgb(204, 204, 204)" stroke-width="1px"></line><line x1="115.40594358896776" y1="0" x2="115.40594358896776" y2="5" style="visibility: inherit;" fill="rgb(0, 0, 0)" stroke="rgb(204, 204, 204)" stroke-width="1px"></line><line x1="221.93208753976123" y1="0" x2="221.93208753976123" y2="5" style="visibility: inherit;" fill="rgb(0, 0, 0)" stroke="rgb(204, 204, 204)" stroke-width="1px"></line><line x1="328.4582314905547" y1="0" x2="328.4582314905547" y2="5" style="visibility: inherit;" fill="rgb(0, 0, 0)" stroke="rgb(204, 204, 204)" stroke-width="1px"></line><line x1="434.9843754413481" y1="0" x2="434.9843754413481" y2="5" style="visibility: inherit;" fill="rgb(0, 0, 0)" stroke="rgb(204, 204, 204)" stroke-width="1px"></line><line x1="541.5105193921415" y1="0" x2="541.5105193921415" y2="5" style="visibility: inherit;" fill="rgb(0, 0, 0)" stroke="rgb(204, 204, 204)" stroke-width="1px"></line><line x1="648.036663342935" y1="0" x2="648.036663342935" y2="5" style="visibility: inherit;" fill="rgb(0, 0, 0)" stroke="rgb(204, 204, 204)" stroke-width="1px"></line><line x1="754.5628072937284" y1="0" x2="754.5628072937284" y2="5" style="visibility: inherit;" fill="rgb(0, 0, 0)" stroke="rgb(204, 204, 204)" stroke-width="1px"></line><line x1="861.0889512445218" y1="0" x2="861.0889512445218" y2="5" style="visibility: inherit;" fill="rgb(0, 0, 0)" stroke="rgb(204, 204, 204)" stroke-width="1px"></line><line x1="967.6150951953152" y1="0" x2="967.6150951953152" y2="5" style="visibility: inherit;" fill="rgb(0, 0, 0)" stroke="rgb(204, 204, 204)" stroke-width="1px"></line><line x1="1074.1412391461088" y1="0" x2="1074.1412391461088" y2="5" style="visibility: inherit;" fill="rgb(0, 0, 0)" stroke="rgb(204, 204, 204)" stroke-width="1px"></line><line x1="1180.6673830969023" y1="0" x2="1180.6673830969023" y2="5" style="visibility: inherit;" fill="rgb(0, 0, 0)" stroke="rgb(204, 204, 204)" stroke-width="1px"></line><line x1="1287.1935270476956" y1="0" x2="1287.1935270476956" y2="5" style="visibility: inherit;" fill="rgb(0, 0, 0)" stroke="rgb(204, 204, 204)" stroke-width="1px"></line><line x1="1393.719670998489" y1="0" x2="1393.719670998489" y2="5" style="visibility: inherit;" fill="rgb(0, 0, 0)" stroke="rgb(204, 204, 204)" stroke-width="1px"></line><line x1="1500.2458149492825" y1="0" x2="1500.2458149492825" y2="5" style="visibility: inherit;" fill="rgb(0, 0, 0)" stroke="rgb(204, 204, 204)" stroke-width="1px"></line></g><g transform="translate(0, 8)"><text x="8.879799638174342" y="0" dx="0em" dy="0.95em" style="text-anchor: middle; visibility: inherit; font-family: Roboto, sans-serif; font-size: 12px; font-weight: 200;" fill="rgb(33, 33, 33)" stroke="none" stroke-width="1px">0</text><text x="115.40594358896776" y="0" dx="0em" dy="0.95em" style="text-anchor: middle; visibility: inherit; font-family: Roboto, sans-serif; font-size: 12px; font-weight: 200;" fill="rgb(33, 33, 33)" stroke="none" stroke-width="1px">2k</text><text x="221.93208753976123" y="0" dx="0em" dy="0.95em" style="text-anchor: middle; visibility: inherit; font-family: Roboto, sans-serif; font-size: 12px; font-weight: 200;" fill="rgb(33, 33, 33)" stroke="none" stroke-width="1px">4k</text><text x="328.4582314905547" y="0" dx="0em" dy="0.95em" style="text-anchor: middle; visibility: inherit; font-family: Roboto, sans-serif; font-size: 12px; font-weight: 200;" fill="rgb(33, 33, 33)" stroke="none" stroke-width="1px">6k</text><text x="434.9843754413481" y="0" dx="0em" dy="0.95em" style="text-anchor: middle; visibility: inherit; font-family: Roboto, sans-serif; font-size: 12px; font-weight: 200;" fill="rgb(33, 33, 33)" stroke="none" stroke-width="1px">8k</text><text x="541.5105193921415" y="0" dx="0em" dy="0.95em" style="text-anchor: middle; visibility: inherit; font-family: Roboto, sans-serif; font-size: 12px; font-weight: 200;" fill="rgb(33, 33, 33)" stroke="none" stroke-width="1px">10k</text><text x="648.036663342935" y="0" dx="0em" dy="0.95em" style="text-anchor: middle; visibility: inherit; font-family: Roboto, sans-serif; font-size: 12px; font-weight: 200;" fill="rgb(33, 33, 33)" stroke="none" stroke-width="1px">12k</text><text x="754.5628072937284" y="0" dx="0em" dy="0.95em" style="text-anchor: middle; visibility: inherit; font-family: Roboto, sans-serif; font-size: 12px; font-weight: 200;" fill="rgb(33, 33, 33)" stroke="none" stroke-width="1px">14k</text><text x="861.0889512445218" y="0" dx="0em" dy="0.95em" style="text-anchor: middle; visibility: inherit; font-family: Roboto, sans-serif; font-size: 12px; font-weight: 200;" fill="rgb(33, 33, 33)" stroke="none" stroke-width="1px">16k</text><text x="967.6150951953152" y="0" dx="0em" dy="0.95em" style="text-anchor: middle; visibility: inherit; font-family: Roboto, sans-serif; font-size: 12px; font-weight: 200;" fill="rgb(33, 33, 33)" stroke="none" stroke-width="1px">18k</text><text x="1074.1412391461088" y="0" dx="0em" dy="0.95em" style="text-anchor: middle; visibility: inherit; font-family: Roboto, sans-serif; font-size: 12px; font-weight: 200;" fill="rgb(33, 33, 33)" stroke="none" stroke-width="1px">20k</text><text x="1180.6673830969023" y="0" dx="0em" dy="0.95em" style="text-anchor: middle; visibility: inherit; font-family: Roboto, sans-serif; font-size: 12px; font-weight: 200;" fill="rgb(33, 33, 33)" stroke="none" stroke-width="1px">22k</text><text x="1287.1935270476956" y="0" dx="0em" dy="0.95em" style="text-anchor: middle; visibility: inherit; font-family: Roboto, sans-serif; font-size: 12px; font-weight: 200;" fill="rgb(33, 33, 33)" stroke="none" stroke-width="1px">24k</text><text x="1393.719670998489" y="0" dx="0em" dy="0.95em" style="text-anchor: middle; visibility: inherit; font-family: Roboto, sans-serif; font-size: 12px; font-weight: 200;" fill="rgb(33, 33, 33)" stroke="none" stroke-width="1px">26k</text><text x="1500.2458149492825" y="0" dx="0em" dy="0.95em" style="text-anchor: middle; visibility: inherit; font-family: Roboto, sans-serif; font-size: 12px; font-weight: 200;" fill="rgb(33, 33, 33)" stroke="none" stroke-width="1px">28k</text></g><line x1="0" y1="0" x2="1509.81875" y2="0" fill="rgb(0, 0, 0)" stroke="rgb(204, 204, 204)" stroke-width="1px"></line></g></g></g></g></svg>