<svg viewBox="0 0 977 400" xmlns="http://www.w3.org/2000/svg"><g><g><g><g><g><line x1="53.1875" y1="369.58105328578785" x2="48.1875" y2="369.58105328578785" style="visibility: inherit;" fill="rgb(0, 0, 0)" stroke="rgb(204, 204, 204)" stroke-width="1px"></line><line x1="53.1875" y1="345.58602098140534" x2="48.1875" y2="345.58602098140534" style="visibility: inherit;" fill="rgb(0, 0, 0)" stroke="rgb(204, 204, 204)" stroke-width="1px"></line><line x1="53.1875" y1="321.5909886770228" x2="48.1875" y2="321.5909886770228" style="visibility: inherit;" fill="rgb(0, 0, 0)" stroke="rgb(204, 204, 204)" stroke-width="1px"></line><line x1="53.1875" y1="297.5959563726403" x2="48.1875" y2="297.5959563726403" style="visibility: inherit;" fill="rgb(0, 0, 0)" stroke="rgb(204, 204, 204)" stroke-width="1px"></line><line x1="53.1875" y1="273.60092406825794" x2="48.1875" y2="273.60092406825794" style="visibility: inherit;" fill="rgb(0, 0, 0)" stroke="rgb(204, 204, 204)" stroke-width="1px"></line><line x1="53.1875" y1="249.60589176387538" x2="48.1875" y2="249.60589176387538" style="visibility: inherit;" fill="rgb(0, 0, 0)" stroke="rgb(204, 204, 204)" stroke-width="1px"></line><line x1="53.1875" y1="225.61085945949284" x2="48.1875" y2="225.61085945949284" style="visibility: inherit;" fill="rgb(0, 0, 0)" stroke="rgb(204, 204, 204)" stroke-width="1px"></line><line x1="53.1875" y1="201.6158271551103" x2="48.1875" y2="201.6158271551103" style="visibility: inherit;" fill="rgb(0, 0, 0)" stroke="rgb(204, 204, 204)" stroke-width="1px"></line><line x1="53.1875" y1="177.6207948507278" x2="48.1875" y2="177.6207948507278" style="visibility: inherit;" fill="rgb(0, 0, 0)" stroke="rgb(204, 204, 204)" stroke-width="1px"></line><line x1="53.1875" y1="153.62576254634527" x2="48.1875" y2="153.62576254634527" style="visibility: inherit;" fill="rgb(0, 0, 0)" stroke="rgb(204, 204, 204)" stroke-width="1px"></line><line x1="53.1875" y1="129.63073024196288" x2="48.1875" y2="129.63073024196288" style="visibility: inherit;" fill="rgb(0, 0, 0)" stroke="rgb(204, 204, 204)" stroke-width="1px"></line><line x1="53.1875" y1="105.63569793758037" x2="48.1875" y2="105.63569793758037" style="visibility: inherit;" fill="rgb(0, 0, 0)" stroke="rgb(204, 204, 204)" stroke-width="1px"></line><line x1="53.1875" y1="81.64066563319784" x2="48.1875" y2="81.64066563319784" style="visibility: inherit;" fill="rgb(0, 0, 0)" stroke="rgb(204, 204, 204)" stroke-width="1px"></line><line x1="53.1875" y1="57.64563332881533" x2="48.1875" y2="57.64563332881533" style="visibility: inherit;" fill="rgb(0, 0, 0)" stroke="rgb(204, 204, 204)" stroke-width="1px"></line><line x1="53.1875" y1="33.65060102443281" x2="48.1875" y2="33.65060102443281" style="visibility: inherit;" fill="rgb(0, 0, 0)" stroke="rgb(204, 204, 204)" stroke-width="1px"></line><line x1="53.1875" y1="9.655568720050287" x2="48.1875" y2="9.655568720050287" style="visibility: inherit;" fill="rgb(0, 0, 0)" stroke="rgb(204, 204, 204)" stroke-width="1px"></line></g><g transform="translate(43.1875, 0)"><text x="0" y="369.58105328578785" dx="0em" dy="0.3em" style="text-anchor: end; visibility: inherit; font-family: Roboto, sans-serif; font-size: 12px; font-weight: 200;" fill="rgb(33, 33, 33)" stroke="none" stroke-width="1px">0.5</text><text x="0" y="345.58602098140534" dx="0em" dy="0.3em" style="text-anchor: end; visibility: inherit; font-family: Roboto, sans-serif; font-size: 12px; font-weight: 200;" fill="rgb(33, 33, 33)" stroke="none" stroke-width="1px">0.52</text><text x="0" y="321.5909886770228" dx="0em" dy="0.3em" style="text-anchor: end; visibility: inherit; font-family: Roboto, sans-serif; font-size: 12px; font-weight: 200;" fill="rgb(33, 33, 33)" stroke="none" stroke-width="1px">0.54</text><text x="0" y="297.5959563726403" dx="0em" dy="0.3em" style="text-anchor: end; visibility: inherit; font-family: Roboto, sans-serif; font-size: 12px; font-weight: 200;" fill="rgb(33, 33, 33)" stroke="none" stroke-width="1px">0.56</text><text x="0" y="273.60092406825794" dx="0em" dy="0.3em" style="text-anchor: end; visibility: inherit; font-family: Roboto, sans-serif; font-size: 12px; font-weight: 200;" fill="rgb(33, 33, 33)" stroke="none" stroke-width="1px">0.58</text><text x="0" y="249.60589176387538" dx="0em" dy="0.3em" style="text-anchor: end; visibility: inherit; font-family: Roboto, sans-serif; font-size: 12px; font-weight: 200;" fill="rgb(33, 33, 33)" stroke="none" stroke-width="1px">0.6</text><text x="0" y="225.61085945949284" dx="0em" dy="0.3em" style="text-anchor: end; visibility: inherit; font-family: Roboto, sans-serif; font-size: 12px; font-weight: 200;" fill="rgb(33, 33, 33)" stroke="none" stroke-width="1px">0.62</text><text x="0" y="201.6158271551103" dx="0em" dy="0.3em" style="text-anchor: end; visibility: inherit; font-family: Roboto, sans-serif; font-size: 12px; font-weight: 200;" fill="rgb(33, 33, 33)" stroke="none" stroke-width="1px">0.64</text><text x="0" y="177.6207948507278" dx="0em" dy="0.3em" style="text-anchor: end; visibility: inherit; font-family: Roboto, sans-serif; font-size: 12px; font-weight: 200;" fill="rgb(33, 33, 33)" stroke="none" stroke-width="1px">0.66</text><text x="0" y="153.62576254634527" dx="0em" dy="0.3em" style="text-anchor: end; visibility: inherit; font-family: Roboto, sans-serif; font-size: 12px; font-weight: 200;" fill="rgb(33, 33, 33)" stroke="none" stroke-width="1px">0.68</text><text x="0" y="129.63073024196288" dx="0em" dy="0.3em" style="text-anchor: end; visibility: inherit; font-family: Roboto, sans-serif; font-size: 12px; font-weight: 200;" fill="rgb(33, 33, 33)" stroke="none" stroke-width="1px">0.7</text><text x="0" y="105.63569793758037" dx="0em" dy="0.3em" style="text-anchor: end; visibility: inherit; font-family: Roboto, sans-serif; font-size: 12px; font-weight: 200;" fill="rgb(33, 33, 33)" stroke="none" stroke-width="1px">0.72</text><text x="0" y="81.64066563319784" dx="0em" dy="0.3em" style="text-anchor: end; visibility: inherit; font-family: Roboto, sans-serif; font-size: 12px; font-weight: 200;" fill="rgb(33, 33, 33)" stroke="none" stroke-width="1px">0.74</text><text x="0" y="57.64563332881533" dx="0em" dy="0.3em" style="text-anchor: end; visibility: inherit; font-family: Roboto, sans-serif; font-size: 12px; font-weight: 200;" fill="rgb(33, 33, 33)" stroke="none" stroke-width="1px">0.76</text><text x="0" y="33.65060102443281" dx="0em" dy="0.3em" style="text-anchor: end; visibility: inherit; font-family: Roboto, sans-serif; font-size: 12px; font-weight: 200;" fill="rgb(33, 33, 33)" stroke="none" stroke-width="1px">0.78</text><text x="0" y="9.655568720050287" dx="0em" dy="0.3em" style="text-anchor: end; visibility: inherit; font-family: Roboto, sans-serif; font-size: 12px; font-weight: 200;" fill="rgb(33, 33, 33)" stroke="none" stroke-width="1px">0.8</text></g><line x1="53.1875" y1="0" x2="53.1875" y2="376" fill="rgb(0, 0, 0)" stroke="rgb(204, 204, 204)" stroke-width="1px"></line></g></g><g transform="translate(53, 0)" clip-path="url(#clip_0)"><clipPath id="clip_0"><rect width="923" height="376"></rect></clipPath><g><g><g><line x1="13.706813880048593" y1="0" x2="13.706813880048593" y2="376" fill="rgb(0, 0, 0)" stroke="rgb(66, 66, 66)" stroke-width="1px" opacity="0.25"></line><line x1="81.29734774242233" y1="0" x2="81.29734774242233" y2="376" fill="rgb(0, 0, 0)" stroke="rgb(66, 66, 66)" stroke-width="1px" opacity="0.25"></line><line x1="148.8878816047961" y1="0" x2="148.8878816047961" y2="376" fill="rgb(0, 0, 0)" stroke="rgb(66, 66, 66)" stroke-width="1px" opacity="0.25"></line><line x1="216.4784154671698" y1="0" x2="216.4784154671698" y2="376" fill="rgb(0, 0, 0)" stroke="rgb(66, 66, 66)" stroke-width="1px" opacity="0.25"></line><line x1="284.06894932954356" y1="0" x2="284.06894932954356" y2="376" fill="rgb(0, 0, 0)" stroke="rgb(66, 66, 66)" stroke-width="1px" opacity="0.25"></line><line x1="351.6594831919173" y1="0" x2="351.6594831919173" y2="376" fill="rgb(0, 0, 0)" stroke="rgb(66, 66, 66)" stroke-width="1px" opacity="0.25"></line><line x1="419.25001705429105" y1="0" x2="419.25001705429105" y2="376" fill="rgb(0, 0, 0)" stroke="rgb(66, 66, 66)" stroke-width="1px" opacity="0.25"></line><line x1="486.84055091666477" y1="0" x2="486.84055091666477" y2="376" fill="rgb(0, 0, 0)" stroke="rgb(66, 66, 66)" stroke-width="1px" opacity="0.25"></line><line x1="554.4310847790385" y1="0" x2="554.4310847790385" y2="376" fill="rgb(0, 0, 0)" stroke="rgb(66, 66, 66)" stroke-width="1px" opacity="0.25"></line><line x1="622.0216186414123" y1="0" x2="622.0216186414123" y2="376" fill="rgb(0, 0, 0)" stroke="rgb(66, 66, 66)" stroke-width="1px" opacity="0.25"></line><line x1="689.612152503786" y1="0" x2="689.612152503786" y2="376" fill="rgb(0, 0, 0)" stroke="rgb(66, 66, 66)" stroke-width="1px" opacity="0.25"></line><line x1="757.2026863661598" y1="0" x2="757.2026863661598" y2="376" fill="rgb(0, 0, 0)" stroke="rgb(66, 66, 66)" stroke-width="1px" opacity="0.25"></line><line x1="824.7932202285335" y1="0" x2="824.7932202285335" y2="376" fill="rgb(0, 0, 0)" stroke="rgb(66, 66, 66)" stroke-width="1px" opacity="0.25"></line><line x1="892.3837540909072" y1="0" x2="892.3837540909072" y2="376" fill="rgb(0, 0, 0)" stroke="rgb(66, 66, 66)" stroke-width="1px" opacity="0.25"></line></g><g><line x1="0" y1="369.58105328578785" x2="923.8125" y2="369.58105328578785" fill="rgb(0, 0, 0)" stroke="rgb(66, 66, 66)" stroke-width="1px" opacity="0.25"></line><line x1="0" y1="345.58602098140534" x2="923.8125" y2="345.58602098140534" fill="rgb(0, 0, 0)" stroke="rgb(66, 66, 66)" stroke-width="1px" opacity="0.25"></line><line x1="0" y1="321.5909886770228" x2="923.8125" y2="321.5909886770228" fill="rgb(0, 0, 0)" stroke="rgb(66, 66, 66)" stroke-width="1px" opacity="0.25"></line><line x1="0" y1="297.5959563726403" x2="923.8125" y2="297.5959563726403" fill="rgb(0, 0, 0)" stroke="rgb(66, 66, 66)" stroke-width="1px" opacity="0.25"></line><line x1="0" y1="273.60092406825794" x2="923.8125" y2="273.60092406825794" fill="rgb(0, 0, 0)" stroke="rgb(66, 66, 66)" stroke-width="1px" opacity="0.25"></line><line x1="0" y1="249.60589176387538" x2="923.8125" y2="249.60589176387538" fill="rgb(0, 0, 0)" stroke="rgb(66, 66, 66)" stroke-width="1px" opacity="0.25"></line><line x1="0" y1="225.61085945949284" x2="923.8125" y2="225.61085945949284" fill="rgb(0, 0, 0)" stroke="rgb(66, 66, 66)" stroke-width="1px" opacity="0.25"></line><line x1="0" y1="201.6158271551103" x2="923.8125" y2="201.6158271551103" fill="rgb(0, 0, 0)" stroke="rgb(66, 66, 66)" stroke-width="1px" opacity="0.25"></line><line x1="0" y1="177.6207948507278" x2="923.8125" y2="177.6207948507278" fill="rgb(0, 0, 0)" stroke="rgb(66, 66, 66)" stroke-width="1px" opacity="0.25"></line><line x1="0" y1="153.62576254634527" x2="923.8125" y2="153.62576254634527" fill="rgb(0, 0, 0)" stroke="rgb(66, 66, 66)" stroke-width="1px" opacity="0.25"></line><line x1="0" y1="129.63073024196288" x2="923.8125" y2="129.63073024196288" fill="rgb(0, 0, 0)" stroke="rgb(66, 66, 66)" stroke-width="1px" opacity="0.25"></line><line x1="0" y1="105.63569793758037" x2="923.8125" y2="105.63569793758037" fill="rgb(0, 0, 0)" stroke="rgb(66, 66, 66)" stroke-width="1px" opacity="0.25"></line><line x1="0" y1="81.64066563319784" x2="923.8125" y2="81.64066563319784" fill="rgb(0, 0, 0)" stroke="rgb(66, 66, 66)" stroke-width="1px" opacity="0.25"></line><line x1="0" y1="57.64563332881533" x2="923.8125" y2="57.64563332881533" fill="rgb(0, 0, 0)" stroke="rgb(66, 66, 66)" stroke-width="1px" opacity="0.25"></line><line x1="0" y1="33.65060102443281" x2="923.8125" y2="33.65060102443281" fill="rgb(0, 0, 0)" stroke="rgb(66, 66, 66)" stroke-width="1px" opacity="0.25"></line><line x1="0" y1="9.655568720050287" x2="923.8125" y2="9.655568720050287" fill="rgb(0, 0, 0)" stroke="rgb(66, 66, 66)" stroke-width="1px" opacity="0.25"></line></g></g></g><g><g><line x1="0" y1="969.4568608953502" x2="923.8125" y2="969.4568608953502" fill="rgb(0, 0, 0)" stroke="rgb(153, 153, 153)" stroke-width="1.5px"></line></g></g><g><g><line x1="13.706813880048593" y1="0" x2="13.706813880048593" y2="376" fill="rgb(0, 0, 0)" stroke="rgb(153, 153, 153)" stroke-width="1.5px"></line></g></g><g><g><g><g><g><path stroke="rgb(255, 112, 67)" stroke-width="2px" d="M17.08634057316728,129.6715056823576L20.465867266285965,132.19205458778217L23.845393959404653,133.90735508807595L27.224920652523338,135.7600492252585L30.60444734564203,137.79544180690027L33.983974038760714,140.19317286605477L37.3635007318794,142.33377154099674L40.74302742499808,143.41493861918465L44.122554118116774,145.42529542080916L47.502080811235466,147.08985972621613L50.88160750435415,149.02758843765213L54.26113419747284,150.8201443415428L57.640660890591526,151.60681951154518L61.02018758371021,153.13515633773508L64.39971427682889,154.80410526638508L67.7792409699476,156.16418977891587L71.15876766306627,157.1456243979579L74.53829435618496,158.52903834424606L77.91782104930365,159.68436635026302L81.29734774242233,160.95250674701734L84.67687443554102,162.21150922420514L88.0564011286597,163.39835722291795L91.4359278217784,164.61675583785964L94.81545451489708,165.77876401166793L98.19498120801578,166.7883024842564L101.57450790113445,167.9441263805871L104.95403459425314,169.0201675600275L108.33356128737182,170.04115570787195L111.71308798049053,170.99455960096856L115.0926146736092,172.0289100643717L118.47214136672788,173.0383792398025L121.85166805984657,174.00134430542963L125.23119475296528,174.9342567590554L128.61072144608394,175.896697621832L131.99024813920263,176.86855388144355L135.36977483232133,177.82636143638334L138.74930152544002,178.69131374332716L142.12882821855868,179.63824958696887L145.5083549116774,180.53058869120198L148.8878816047961,181.4156139855996L152.26740829791476,182.26816592146076L155.64693499103345,183.08528973598962L159.02646168415214,183.8863858063992L162.40598837727083,184.6312388245477L165.78551507038952,185.4887648473191L169.16504176350819,186.2963697399237L172.5445684566269,187.06489171541506L175.92409514974557,187.83687839244612L179.30362184286426,188.61004052582695L182.68314853598292,189.3854824829031L186.06267522910164,190.14635463210024L189.44220192222033,190.8690103145959L192.821728615339,191.62323783651988L196.2012553084577,192.36118255396892L199.58078200157638,193.05992259545167L202.96030869469507,193.6679737130023L206.33983538781374,194.21222891678576L209.71936208093246,194.8437028892885L213.09888877405115,195.50942940306598L216.4784154671698,196.13325092778186L219.8579421602885,196.78593420704183L223.2374688534072,197.4347108971077L226.61699554652589,198.11269637084195L229.99652223964458,198.78632188407235L233.37604893276327,199.4305601444673L236.75557562588193,200.05252969390247L240.13510231900062,200.70387471513277L243.51462901211931,201.34097315825423L246.894155705238,201.96157479739446L250.27368239835667,202.58871869301075L253.65320909147536,203.20736669275817L257.0327357845941,203.78273737619568L260.4122624777128,204.3727927050471L263.79178917083146,204.96236563969694L267.1713158639501,205.5547620404539L270.5508425570688,206.1346344466307L273.9303692501875,206.71335524744342L277.3098959433062,207.28274707637723L280.68942263642487,207.83675032160065L284.06894932954356,208.3835379291418L287.44847602266225,208.9269501541542L290.82800271578094,209.4326699212262L294.20752940889963,209.97428830944384L297.5870561020183,210.5110669994739L300.96658279513696,211.02191864105612L304.34610948825565,211.50430917732038L307.7256361813744,212.02509663453904L311.1051628744931,212.53283491419415L314.4846895676117,213.02262067815576L317.8642162607304,213.5267071676862L321.2437429538491,214.021398567612L324.6232696469678,214.45035085003454L328.0027963400865,214.88987303374643L331.3823230332052,215.29583601179166L334.7618497263239,215.75247680408907L338.14137641944257,216.23784363473607L341.52090311256126,216.69823252893676L344.90042980567995,217.17832715392302L348.2799564987986,217.65193956480996L351.6594831919173,218.11593536233084L355.03900988503597,218.58227694374676L358.4185365781547,219.0442653832355L361.7980632712734,219.47858924144668L365.17758996439204,219.9468925612761L368.55711665751073,220.39667454304214L371.9366433506294,220.85142048648038L375.3161700437481,221.31522736004075L378.69569673686675,221.7697109598769L382.07522342998544,222.22287189432905L385.4547501231042,222.66927995842187L388.8342768162229,223.11465085551657L392.2138035093416,223.56379446810013L395.5933302024602,224.00376022722847L398.9728568955789,224.44286343144387L402.3523835886976,224.87866572367253L405.7319102818163,225.31055294744837L409.111436974935,225.74406880204396L412.49096366805367,226.18250194186876L415.87049036117236,226.6176704219146L419.25001705429105,227.04845995713802L422.62954374740974,227.47053815137207L426.00907044052843,227.89888979863832L429.38859713364707,228.3159064103595L432.76812382676576,228.73611699255918L436.1476505198845,229.1508219876321L439.5271772130032,229.56381188848854L442.90670390612183,229.97787071158984L446.2862305992405,230.3880177032827L449.6657572923592,230.79061070297567L453.0452839854779,231.194500112284L456.4248106785966,231.5842526237305L459.8043373717153,231.9690792428555L463.183864064834,232.36177650023507L466.5633907579527,232.7506296247888L469.94291745107137,233.14044772267738L473.32244414419006,233.52719629820996L476.70197083730875,233.90917012576946L480.08149753042744,234.28176615300208L483.4610242235461,234.6556858653331L486.84055091666477,235.02547650738555L490.22007760978346,235.39241298026184L493.59960430290215,235.7476286707504L496.97913099602084,236.10141920093272L500.35865768913953,236.4569028506092L503.7381843822582,236.8162214469115L507.1177110753769,237.1673369846864L510.4972377684956,237.51904771907033L513.8767644616144,237.8687643654406L517.2562911547329,238.2147975708279L520.6358178478516,238.55479530279024L524.0153445409703,238.89220304011687L527.394871234089,239.22894068028515L530.7743979272077,239.5600019868775L534.1539246203264,239.89221664579833L537.5334513134451,240.21342877395963L540.9129780065638,240.53330263281805L544.2925046996825,240.85909126625845L547.6720313928012,241.1856769126402L551.0515580859199,241.50830555058374L554.4310847790385,241.82707030096472L557.8106114721572,242.1463071694145L561.1901381652759,242.46018975645933L564.5696648583946,242.77438701359694L567.9491915515133,243.08645339560948L571.328718244632,243.3950595479292L574.7082449377507,243.69422901863186L578.0877716308694,243.99140523138212L581.467298323988,244.29256797778814L584.8468250171067,244.59336330049655L588.2263517102253,244.88429009649334L591.605878403344,245.18175708032658L594.9854050964627,245.4800534711115L598.3649317895814,245.77847708770878L601.7444584827001,246.07573255143862L605.1239851758189,246.36919271038263L608.5035118689376,246.65630048336843L611.8830385620562,246.94071712480715L615.2625652551749,247.2207181437483L618.6420919482936,247.50280240742535L622.0216186414123,247.78281453511153L625.401145334531,248.06198782120688L628.7806720276496,248.33848313802346L632.1601987207683,248.61292286599542L635.539725413887,248.88261732115797L638.9192521070057,249.15592063246723L642.2987788001244,249.42638846035473L645.678305493243,249.69741654170502L649.0578321863617,249.9654191082089L652.4373588794805,250.23194911766822L655.8168855725992,250.49699367635094L659.1964122657179,250.75869301720508L662.5759389588366,251.02029841849813L665.9554656519553,251.28163741509482L669.3349923450739,251.53901286221196L672.7145190381926,251.79692600859067L676.0940457313112,252.05326933032862L679.4735724244299,252.3091309398173L682.8530991175486,252.5631506449421L686.2326258106673,252.81343501117306L689.612152503786,253.064327006242L692.9916791969047,253.31614399072419L696.3712058900234,253.56596624469776L699.750732583142,253.8118186556972L703.1302592762607,254.05695834886623L706.5097859693795,254.30037034187197L709.8893126624981,254.54330066941472L713.2688393556168,254.78353267785468L716.6483660487355,255.02146977071126L720.0278927418542,255.25825002399662L723.4074194349729,255.49190704398626L726.7869461280916,255.71916466851823L730.1664728212103,255.946116189202L733.545999514329,256.1761174217553L736.9255262074477,256.4020736118475L740.3050529005662,256.62679777813463L743.6845795936849,256.8493893998999L747.0641062868036,257.0650286574143L750.4436329799223,257.28665245138455L753.823159673041,257.5071005444477L757.2026863661598,257.72400842619606L760.5822130592785,257.94043030923797L763.9617397523972,258.1562079033525L767.3412664455159,258.3708015428898L770.7207931386346,258.5829149172461L774.1003198317532,258.7932407089466L777.4798465248718,259.0014231824323L780.8593732179905,259.21015534929177L784.2388999111092,259.4176093136571L787.6184266042279,259.6240461854241L790.9979532973466,259.8273087744911L794.3774799904653,260.02713828415085L797.757006683584,260.22819084897463L801.1365333767027,260.4274456228978L804.5160600698214,260.6247115027975L807.8955867629401,260.8211182170714L811.2751134560588,261.01578755569875L814.6546401491775,261.2086974450096L818.0341668422961,261.4002078410652L821.4136935354148,261.589965541636L824.7932202285335,261.77862955839606L828.1727469216522,261.9658332280588L831.5522736147709,262.1516505720012L834.9318003078896,262.33625715930117L838.3113270010082,262.5194415440456L841.6908536941269,262.70135934312407L845.0703803872456,262.88200316252477L848.4499070803643,263.06119848825705L851.829433773483,263.23895797062954L855.2089604666016,263.4151669318966L858.5884871597203,263.589959613981L861.9680138528391,263.76335358918897L865.3475405459578,263.9353879718213" style="fill: none;" fill="none"></path></g></g></g></g><g opacity="0.2"><g><g><g><path stroke="rgb(255, 112, 67)" stroke-width="2px" d="M17.08634057316728,129.6715056823576L20.465867266285965,134.7100829443255L23.845393959404653,137.33281190244207L27.224920652523338,141.30702288093832L30.60444734564203,145.91667855138093L33.983974038760714,152.14591011459873L37.3635007318794,155.13248586459272L40.74302742499808,150.952895957977L44.122554118116774,161.43594560587044L47.502080811235466,161.99623247976191L50.88160750435415,168.29861955950696L54.26113419747284,170.4203440711036L57.640660890591526,160.9857853159985L61.02018758371021,172.86501121479904L64.39971427682889,177.9949077285805L67.7792409699476,176.40300650334785L71.15876766306627,172.71576824022193L74.53829435618496,181.83653774164029L77.91782104930365,180.28382441773405L81.29734774242233,184.80766716556403L84.67687443554102,187.12883521146614L88.0564011286597,188.0498224034059L91.4359278217784,191.1154175529724L94.81545451489708,192.18657735948423L98.19498120801578,190.71667350589914L101.57450790113445,196.46706896093858L104.95403459425314,196.6226763939428L108.33356128737182,197.22522613222094L111.71308798049053,197.30624783332107L115.0926146736092,201.57930231481566L118.47214136672788,202.85755730789927L121.85166805984657,203.38037253891653L125.23119475296528,204.29992951547948L128.61072144608394,207.12303164789645L131.99024813920263,209.3397224605177L135.36977483232133,210.75298978517844L138.74930152544002,209.26020248556335L142.12882821855868,214.0170988290554L145.5083549116774,213.78633357799634L148.8878816047961,215.24994448392312L152.26740829791476,215.6801532692877L155.64693499103345,215.89311233890464L159.02646168415214,216.8188192415881L162.40598837727083,215.96505217236154L165.78551507038952,222.3830006545582L169.16504176350819,221.81484759609393L172.5445684566269,221.5984560095725L175.92409514974557,223.26265462210625L179.30362184286426,224.82666664748984L182.68314853598292,226.44724369102886L186.06267522910164,227.23550689599443L189.44220192222033,226.78198559998685L192.821728615339,229.82119327584996L196.2012553084577,230.43432660791697L199.58078200157638,229.77235142072962L202.96030869469507,226.1910206062614L206.33983538781374,223.83760120361072L209.71936208093246,229.81311255897057L213.09888877405115,233.00385155401375L216.4784154671698,231.85560313868825L219.8579421602885,234.77567387365752L223.2374688534072,235.8074312465364L226.61699554652589,238.85021446084167L229.99652223964458,239.89434319673052L233.37604893276327,239.34950264890935L236.75557562588193,239.1744442867796L240.13510231900062,242.28323194072775L243.51462901211931,242.60667514820844L246.894155705238,242.73854100595645L250.27368239835667,244.380857323224L253.65320909147536,245.01015208904977L257.0327357845941,243.197139566552L260.4122624777128,245.3421765887917L263.79178917083146,246.44630285974057L267.1713158639501,247.78748732940673L270.5508425570688,248.01246020818945L273.9303692501875,249.04436060260602L277.3098959433062,249.45855097574955L280.68942263642487,249.38510941614692L284.06894932954356,249.89598234876723L287.44847602266225,250.68474612911476L290.82800271578094,248.76039133952713L294.20752940889963,252.59265344186835L297.5870561020183,253.24261481988998L300.96658279513696,252.159155161137L304.34610948825565,250.792727390069L307.7256361813744,254.91861270928302L311.1051628744931,254.8169959067559L314.4846895676117,254.2602130605378L317.8642162607304,256.42949223341554L321.2437429538491,256.5766613956962L324.6232696469678,251.74210435723975L328.0027963400865,253.50141229233586L331.3823230332052,251.3291296671666L334.7618497263239,256.69958840733875L338.14137641944257,260.2021858653099L341.52090311256126,258.818309466644L344.90042980567995,261.53693436578016L348.2799564987986,261.84099815490407L351.6594831919173,261.82798319497454L355.03900988503597,262.9372582412801L358.4185365781547,263.4027933464535L361.7980632712734,261.57304730404627L365.17758996439204,265.75707087833035L368.55711665751073,264.80039981273745L371.9366433506294,266.15459924233323L375.3161700437481,267.93822083883623L378.69569673686675,267.8638496392386L382.07522342998544,268.58961243223473L385.4547501231042,268.7453628867766L388.8342768162229,269.48263891355657L392.2138035093416,270.72649722682627L395.5933302024602,270.59606158445513L398.9728568955789,271.3359835096823L402.3523835886976,271.8080976055893L405.7319102818163,272.20333762498916L409.111436974935,273.19969716729037L412.49096366805367,274.56641098143376L415.87049036117236,275.0280129943207L419.25001705429105,275.3541021002486L422.62954374740974,275.17368043045565L426.00907044052843,276.6905668591711L429.38859713364707,276.18555780959593L432.76812382676576,277.3439607540973L436.1476505198845,277.4881264640864L439.5271772130032,278.06564743326925L442.90670390612183,278.9702586591438L446.2862305992405,279.2787561159361L449.6657572923592,279.1350909813288L453.0452839854779,280.04964220407265L456.4248106785966,279.0715894185955L459.8043373717153,279.19380132254963L463.183864064834,280.8964727287214L466.5633907579527,281.1506220011924L469.94291745107137,282.00145712889633L473.32244414419006,282.34134781321114L476.70197083730875,282.454048784909L480.08149753042744,281.95969483989154L483.4610242235461,282.8286937028819L486.84055091666477,282.9883057389413L490.22007760978346,283.30402578338686L493.59960430290215,282.43731526499954L496.97913099602084,282.9107165547457L500.35865768913953,283.79830821763545L503.7381843822582,284.9794515866291L507.1177110753769,284.5347261151893L510.4972377684956,285.27064343736123L513.8767644616144,285.65150979222346L517.2562911547329,285.7926720499212L520.6358178478516,285.5957313925253L524.0153445409703,285.86518396952886L527.394871234089,286.398153729722L530.7743979272077,286.21844716761746L534.1539246203264,286.99827210185947L537.5334513134451,286.0347360024576L540.9129780065638,286.4376276741238L544.2925046996825,287.89094102933706L547.6720313928012,288.6116980685141L551.0515580859199,288.6351536006949L554.4310847790385,288.6613980528606L557.8106114721572,289.32201453543996L561.1901381652759,289.1118443858079L564.5696648583946,289.7399949793322L567.9491915515133,289.99864943024033L571.328718244632,290.0489930115064L574.7082449377507,289.17520292700357L578.0877716308694,289.4210569502887L581.467298323988,290.5864679501367L584.8468250171067,291.0850410305159L588.2263517102253,290.096333140481L591.605878403344,291.66113178432187L594.9854050964627,292.34041257756945L598.3649317895814,292.91006736217946L601.7444584827001,293.27284149252426L605.1239851758189,293.21026956978596L608.5035118689376,292.72442540626093L611.8830385620562,292.8155301257679L615.2625652551749,292.6178743606836L618.6420919482936,293.47378675297546L622.0216186414123,293.65020381971317L625.401145334531,294.02513478076145L628.7806720276496,294.09142526347966L632.1601987207683,294.25446981644365L635.539725413887,293.9595594057316L638.9192521070057,295.0633996336051L642.2987788001244,295.0823499873487L645.678305493243,295.67295742723L649.0578321863617,295.6500024704311L652.4373588794805,295.88634556146L655.8168855725992,296.11632419406175L659.1964122657179,296.01864048382106L662.5759389588366,296.4800994751704L665.9554656519553,296.9108088359168L669.3349923450739,296.68833883404363L672.7145190381926,297.25298786483455L676.0940457313112,297.44356406380336L679.4735724244299,297.82443041866566L682.8530991175486,297.95937123947397L686.2326258106673,297.74741332062086L689.612152503786,298.31299199140676L692.9916791969047,298.93778157879535L696.3712058900234,299.0305310459858L699.750732583142,298.754785521324L703.1302592762607,299.0697189473122L706.5097859693795,299.19436221740705L709.8893126624981,299.5463382216564L713.2688393556168,299.4821930620035L716.6483660487355,299.48655521890294L720.0278927418542,299.6994427777511L723.4074194349729,299.53646973555595L726.7869461280916,298.7416275398567L730.1664728212103,299.09439016256334L733.545999514329,300.09024912948263L736.9255262074477,299.72647384837404L740.3050529005662,299.89638343514696L743.6845795936849,299.8878736536546L747.0641062868036,298.93299035728285L750.4436329799223,300.4949285703699L753.823159673041,300.66340794176597L757.2026863661598,300.3614894757073L760.5822130592785,300.6560423325751L763.9617397523972,300.91762872500584L767.3412664455159,301.06944608726127L770.7207931386346,300.9577462663272L774.1003198317532,300.9790564754427L777.4798465248718,300.92356411881985L780.8593732179905,301.40947979311375L784.2388999111092,301.523825512495L787.6184266042279,301.6881572592982L790.9979532973466,301.4062618085158L794.3774799904653,301.0625810534523L797.757006683584,301.67435568091133L801.1365333767027,301.6609831671375L804.5160600698214,301.6029164228363L807.8955867629401,301.7762585265138L811.2751134560588,301.76252845889576L814.6546401491775,301.73950199132804L818.0341668422961,301.788057803373L821.4136935354148,301.7577372373832L824.7932202285335,301.86343015373444L828.1727469216522,301.8876007936036L831.5522736147709,301.9237852426386L834.9318003078896,301.994151839181L838.3113270010082,302.0154620482964L841.6908536941269,302.06680678032626L845.0703803872456,302.1131457585371L848.4499070803643,302.1178654692808L851.829433773483,302.12151251849184L855.2089604666016,302.09605468478344L858.5884871597203,302.0961977063211L861.9680138528391,302.0964837493965L865.3475405459578,302.1017755462909" style="fill: none;" fill="none"></path></g></g></g></g></g></g><g transform="translate(53, 376)" clip-path="url(#clip_1)"><clipPath id="clip_1"><rect width="923" height="24"></rect></clipPath><g><g><line x1="13.706813880048593" y1="0" x2="13.706813880048593" y2="5" style="visibility: inherit;" fill="rgb(0, 0, 0)" stroke="rgb(204, 204, 204)" stroke-width="1px"></line><line x1="81.29734774242233" y1="0" x2="81.29734774242233" y2="5" style="visibility: inherit;" fill="rgb(0, 0, 0)" stroke="rgb(204, 204, 204)" stroke-width="1px"></line><line x1="148.8878816047961" y1="0" x2="148.8878816047961" y2="5" style="visibility: inherit;" fill="rgb(0, 0, 0)" stroke="rgb(204, 204, 204)" stroke-width="1px"></line><line x1="216.4784154671698" y1="0" x2="216.4784154671698" y2="5" style="visibility: inherit;" fill="rgb(0, 0, 0)" stroke="rgb(204, 204, 204)" stroke-width="1px"></line><line x1="284.06894932954356" y1="0" x2="284.06894932954356" y2="5" style="visibility: inherit;" fill="rgb(0, 0, 0)" stroke="rgb(204, 204, 204)" stroke-width="1px"></line><line x1="351.6594831919173" y1="0" x2="351.6594831919173" y2="5" style="visibility: inherit;" fill="rgb(0, 0, 0)" stroke="rgb(204, 204, 204)" stroke-width="1px"></line><line x1="419.25001705429105" y1="0" x2="419.25001705429105" y2="5" style="visibility: inherit;" fill="rgb(0, 0, 0)" stroke="rgb(204, 204, 204)" stroke-width="1px"></line><line x1="486.84055091666477" y1="0" x2="486.84055091666477" y2="5" style="visibility: inherit;" fill="rgb(0, 0, 0)" stroke="rgb(204, 204, 204)" stroke-width="1px"></line><line x1="554.4310847790385" y1="0" x2="554.4310847790385" y2="5" style="visibility: inherit;" fill="rgb(0, 0, 0)" stroke="rgb(204, 204, 204)" stroke-width="1px"></line><line x1="622.0216186414123" y1="0" x2="622.0216186414123" y2="5" style="visibility: inherit;" fill="rgb(0, 0, 0)" stroke="rgb(204, 204, 204)" stroke-width="1px"></line><line x1="689.612152503786" y1="0" x2="689.612152503786" y2="5" style="visibility: inherit;" fill="rgb(0, 0, 0)" stroke="rgb(204, 204, 204)" stroke-width="1px"></line><line x1="757.2026863661598" y1="0" x2="757.2026863661598" y2="5" style="visibility: inherit;" fill="rgb(0, 0, 0)" stroke="rgb(204, 204, 204)" stroke-width="1px"></line><line x1="824.7932202285335" y1="0" x2="824.7932202285335" y2="5" style="visibility: inherit;" fill="rgb(0, 0, 0)" stroke="rgb(204, 204, 204)" stroke-width="1px"></line><line x1="892.3837540909072" y1="0" x2="892.3837540909072" y2="5" style="visibility: inherit;" fill="rgb(0, 0, 0)" stroke="rgb(204, 204, 204)" stroke-width="1px"></line></g><g transform="translate(0, 8)"><text x="13.706813880048593" y="0" dx="0em" dy="0.95em" style="text-anchor: middle; visibility: inherit; font-family: Roboto, sans-serif; font-size: 12px; font-weight: 200;" fill="rgb(33, 33, 33)" stroke="none" stroke-width="1px">0</text><text x="81.29734774242233" y="0" dx="0em" dy="0.95em" style="text-anchor: middle; visibility: inherit; font-family: Roboto, sans-serif; font-size: 12px; font-weight: 200;" fill="rgb(33, 33, 33)" stroke="none" stroke-width="1px">2k</text><text x="148.8878816047961" y="0" dx="0em" dy="0.95em" style="text-anchor: middle; visibility: inherit; font-family: Roboto, sans-serif; font-size: 12px; font-weight: 200;" fill="rgb(33, 33, 33)" stroke="none" stroke-width="1px">4k</text><text x="216.4784154671698" y="0" dx="0em" dy="0.95em" style="text-anchor: middle; visibility: inherit; font-family: Roboto, sans-serif; font-size: 12px; font-weight: 200;" fill="rgb(33, 33, 33)" stroke="none" stroke-width="1px">6k</text><text x="284.06894932954356" y="0" dx="0em" dy="0.95em" style="text-anchor: middle; visibility: inherit; font-family: Roboto, sans-serif; font-size: 12px; font-weight: 200;" fill="rgb(33, 33, 33)" stroke="none" stroke-width="1px">8k</text><text x="351.6594831919173" y="0" dx="0em" dy="0.95em" style="text-anchor: middle; visibility: inherit; font-family: Roboto, sans-serif; font-size: 12px; font-weight: 200;" fill="rgb(33, 33, 33)" stroke="none" stroke-width="1px">10k</text><text x="419.25001705429105" y="0" dx="0em" dy="0.95em" style="text-anchor: middle; visibility: inherit; font-family: Roboto, sans-serif; font-size: 12px; font-weight: 200;" fill="rgb(33, 33, 33)" stroke="none" stroke-width="1px">12k</text><text x="486.84055091666477" y="0" dx="0em" dy="0.95em" style="text-anchor: middle; visibility: inherit; font-family: Roboto, sans-serif; font-size: 12px; font-weight: 200;" fill="rgb(33, 33, 33)" stroke="none" stroke-width="1px">14k</text><text x="554.4310847790385" y="0" dx="0em" dy="0.95em" style="text-anchor: middle; visibility: inherit; font-family: Roboto, sans-serif; font-size: 12px; font-weight: 200;" fill="rgb(33, 33, 33)" stroke="none" stroke-width="1px">16k</text><text x="622.0216186414123" y="0" dx="0em" dy="0.95em" style="text-anchor: middle; visibility: inherit; font-family: Roboto, sans-serif; font-size: 12px; font-weight: 200;" fill="rgb(33, 33, 33)" stroke="none" stroke-width="1px">18k</text><text x="689.612152503786" y="0" dx="0em" dy="0.95em" style="text-anchor: middle; visibility: inherit; font-family: Roboto, sans-serif; font-size: 12px; font-weight: 200;" fill="rgb(33, 33, 33)" stroke="none" stroke-width="1px">20k</text><text x="757.2026863661598" y="0" dx="0em" dy="0.95em" style="text-anchor: middle; visibility: inherit; font-family: Roboto, sans-serif; font-size: 12px; font-weight: 200;" fill="rgb(33, 33, 33)" stroke="none" stroke-width="1px">22k</text><text x="824.7932202285335" y="0" dx="0em" dy="0.95em" style="text-anchor: middle; visibility: inherit; font-family: Roboto, sans-serif; font-size: 12px; font-weight: 200;" fill="rgb(33, 33, 33)" stroke="none" stroke-width="1px">24k</text><text x="892.3837540909072" y="0" dx="0em" dy="0.95em" style="text-anchor: middle; visibility: inherit; font-family: Roboto, sans-serif; font-size: 12px; font-weight: 200;" fill="rgb(33, 33, 33)" stroke="none" stroke-width="1px">26k</text></g><line x1="0" y1="0" x2="923.8125" y2="0" fill="rgb(0, 0, 0)" stroke="rgb(204, 204, 204)" stroke-width="1px"></line></g></g></g></g></svg>