<svg viewBox="0 0 977 400" xmlns="http://www.w3.org/2000/svg"><g><g><g><g><g><line x1="53.1875" y1="365.74154184153196" x2="48.1875" y2="365.74154184153196" style="visibility: inherit;" fill="rgb(0, 0, 0)" stroke="rgb(204, 204, 204)" stroke-width="1px"></line><line x1="53.1875" y1="306.60724568447165" x2="48.1875" y2="306.60724568447165" style="visibility: inherit;" fill="rgb(0, 0, 0)" stroke="rgb(204, 204, 204)" stroke-width="1px"></line><line x1="53.1875" y1="247.47294952741146" x2="48.1875" y2="247.47294952741146" style="visibility: inherit;" fill="rgb(0, 0, 0)" stroke="rgb(204, 204, 204)" stroke-width="1px"></line><line x1="53.1875" y1="188.33865337035112" x2="48.1875" y2="188.33865337035112" style="visibility: inherit;" fill="rgb(0, 0, 0)" stroke="rgb(204, 204, 204)" stroke-width="1px"></line><line x1="53.1875" y1="129.20435721329093" x2="48.1875" y2="129.20435721329093" style="visibility: inherit;" fill="rgb(0, 0, 0)" stroke="rgb(204, 204, 204)" stroke-width="1px"></line><line x1="53.1875" y1="70.07006105623063" x2="48.1875" y2="70.07006105623063" style="visibility: inherit;" fill="rgb(0, 0, 0)" stroke="rgb(204, 204, 204)" stroke-width="1px"></line><line x1="53.1875" y1="10.935764899170309" x2="48.1875" y2="10.935764899170309" style="visibility: inherit;" fill="rgb(0, 0, 0)" stroke="rgb(204, 204, 204)" stroke-width="1px"></line></g><g transform="translate(43.1875, 0)"><text x="0" y="365.74154184153196" dx="0em" dy="0.3em" style="text-anchor: end; visibility: inherit; font-family: Roboto, sans-serif; font-size: 12px; font-weight: 200;" fill="rgb(33, 33, 33)" stroke="none" stroke-width="1px">0.5</text><text x="0" y="306.60724568447165" dx="0em" dy="0.3em" style="text-anchor: end; visibility: inherit; font-family: Roboto, sans-serif; font-size: 12px; font-weight: 200;" fill="rgb(33, 33, 33)" stroke="none" stroke-width="1px">0.55</text><text x="0" y="247.47294952741146" dx="0em" dy="0.3em" style="text-anchor: end; visibility: inherit; font-family: Roboto, sans-serif; font-size: 12px; font-weight: 200;" fill="rgb(33, 33, 33)" stroke="none" stroke-width="1px">0.6</text><text x="0" y="188.33865337035112" dx="0em" dy="0.3em" style="text-anchor: end; visibility: inherit; font-family: Roboto, sans-serif; font-size: 12px; font-weight: 200;" fill="rgb(33, 33, 33)" stroke="none" stroke-width="1px">0.65</text><text x="0" y="129.20435721329093" dx="0em" dy="0.3em" style="text-anchor: end; visibility: inherit; font-family: Roboto, sans-serif; font-size: 12px; font-weight: 200;" fill="rgb(33, 33, 33)" stroke="none" stroke-width="1px">0.7</text><text x="0" y="70.07006105623063" dx="0em" dy="0.3em" style="text-anchor: end; visibility: inherit; font-family: Roboto, sans-serif; font-size: 12px; font-weight: 200;" fill="rgb(33, 33, 33)" stroke="none" stroke-width="1px">0.75</text><text x="0" y="10.935764899170309" dx="0em" dy="0.3em" style="text-anchor: end; visibility: inherit; font-family: Roboto, sans-serif; font-size: 12px; font-weight: 200;" fill="rgb(33, 33, 33)" stroke="none" stroke-width="1px">0.8</text></g><line x1="53.1875" y1="0" x2="53.1875" y2="376" fill="rgb(0, 0, 0)" stroke="rgb(204, 204, 204)" stroke-width="1px"></line></g></g><g transform="translate(53, 0)" clip-path="url(#clip_0)"><clipPath id="clip_0"><rect width="923" height="376"></rect></clipPath><g><g><g><line x1="15.107516461827501" y1="0" x2="15.107516461827501" y2="376" fill="rgb(0, 0, 0)" stroke="rgb(66, 66, 66)" stroke-width="1px" opacity="0.25"></line><line x1="84.08276996132908" y1="0" x2="84.08276996132908" y2="376" fill="rgb(0, 0, 0)" stroke="rgb(66, 66, 66)" stroke-width="1px" opacity="0.25"></line><line x1="153.0580234608307" y1="0" x2="153.0580234608307" y2="376" fill="rgb(0, 0, 0)" stroke="rgb(66, 66, 66)" stroke-width="1px" opacity="0.25"></line><line x1="222.03327696033227" y1="0" x2="222.03327696033227" y2="376" fill="rgb(0, 0, 0)" stroke="rgb(66, 66, 66)" stroke-width="1px" opacity="0.25"></line><line x1="291.0085304598338" y1="0" x2="291.0085304598338" y2="376" fill="rgb(0, 0, 0)" stroke="rgb(66, 66, 66)" stroke-width="1px" opacity="0.25"></line><line x1="359.9837839593354" y1="0" x2="359.9837839593354" y2="376" fill="rgb(0, 0, 0)" stroke="rgb(66, 66, 66)" stroke-width="1px" opacity="0.25"></line><line x1="428.95903745883703" y1="0" x2="428.95903745883703" y2="376" fill="rgb(0, 0, 0)" stroke="rgb(66, 66, 66)" stroke-width="1px" opacity="0.25"></line><line x1="497.9342909583386" y1="0" x2="497.9342909583386" y2="376" fill="rgb(0, 0, 0)" stroke="rgb(66, 66, 66)" stroke-width="1px" opacity="0.25"></line><line x1="566.9095444578403" y1="0" x2="566.9095444578403" y2="376" fill="rgb(0, 0, 0)" stroke="rgb(66, 66, 66)" stroke-width="1px" opacity="0.25"></line><line x1="635.8847979573418" y1="0" x2="635.8847979573418" y2="376" fill="rgb(0, 0, 0)" stroke="rgb(66, 66, 66)" stroke-width="1px" opacity="0.25"></line><line x1="704.8600514568434" y1="0" x2="704.8600514568434" y2="376" fill="rgb(0, 0, 0)" stroke="rgb(66, 66, 66)" stroke-width="1px" opacity="0.25"></line><line x1="773.835304956345" y1="0" x2="773.835304956345" y2="376" fill="rgb(0, 0, 0)" stroke="rgb(66, 66, 66)" stroke-width="1px" opacity="0.25"></line><line x1="842.8105584558465" y1="0" x2="842.8105584558465" y2="376" fill="rgb(0, 0, 0)" stroke="rgb(66, 66, 66)" stroke-width="1px" opacity="0.25"></line><line x1="911.7858119553482" y1="0" x2="911.7858119553482" y2="376" fill="rgb(0, 0, 0)" stroke="rgb(66, 66, 66)" stroke-width="1px" opacity="0.25"></line></g><g><line x1="0" y1="365.74154184153196" x2="923.8125" y2="365.74154184153196" fill="rgb(0, 0, 0)" stroke="rgb(66, 66, 66)" stroke-width="1px" opacity="0.25"></line><line x1="0" y1="306.60724568447165" x2="923.8125" y2="306.60724568447165" fill="rgb(0, 0, 0)" stroke="rgb(66, 66, 66)" stroke-width="1px" opacity="0.25"></line><line x1="0" y1="247.47294952741146" x2="923.8125" y2="247.47294952741146" fill="rgb(0, 0, 0)" stroke="rgb(66, 66, 66)" stroke-width="1px" opacity="0.25"></line><line x1="0" y1="188.33865337035112" x2="923.8125" y2="188.33865337035112" fill="rgb(0, 0, 0)" stroke="rgb(66, 66, 66)" stroke-width="1px" opacity="0.25"></line><line x1="0" y1="129.20435721329093" x2="923.8125" y2="129.20435721329093" fill="rgb(0, 0, 0)" stroke="rgb(66, 66, 66)" stroke-width="1px" opacity="0.25"></line><line x1="0" y1="70.07006105623063" x2="923.8125" y2="70.07006105623063" fill="rgb(0, 0, 0)" stroke="rgb(66, 66, 66)" stroke-width="1px" opacity="0.25"></line><line x1="0" y1="10.935764899170309" x2="923.8125" y2="10.935764899170309" fill="rgb(0, 0, 0)" stroke="rgb(66, 66, 66)" stroke-width="1px" opacity="0.25"></line></g></g></g><g><g><line x1="0" y1="957.0845034121346" x2="923.8125" y2="957.0845034121346" fill="rgb(0, 0, 0)" stroke="rgb(153, 153, 153)" stroke-width="1.5px"></line></g></g><g><g><line x1="15.107516461827501" y1="0" x2="15.107516461827501" y2="376" fill="rgb(0, 0, 0)" stroke="rgb(153, 153, 153)" stroke-width="1.5px"></line></g></g><g><g><g><g><g><path stroke="rgb(255, 112, 67)" stroke-width="2px" d="M18.556279136802576,358.9600599910161L22.005041811777655,354.210683254065L25.453804486752738,351.72245582257995L28.90256716172782,349.7991764740689L32.351329836702895,343.480993517122L35.800092511677974,335.86965916559654L39.24885518665305,329.4613038658122L42.69761786162814,326.18621600926383L46.14638053660321,317.5868164367472L49.595143211578296,311.52475364759266L53.04390588655337,306.5648923675398L56.492668561528454,301.7497961339266L59.941431236503526,301.5589247517718L63.39019391147861,297.88498573645666L66.83895658645369,292.87983445882537L70.28771926142876,289.7814249507719L73.73648193640385,289.21893557693767L77.18524461137893,284.76735864828856L80.634007286354,281.8648062554153L84.08276996132908,278.22560121204674L87.53153263630416,274.9329981114663L90.98029531127925,271.44133916317236L94.42905798625432,268.67065910081106L97.87782066122939,265.5020643394056L101.32658333620448,263.0811201267359L104.77534601117956,260.6879509735994L108.22410868615465,257.9631730717968L111.67287136112971,255.43303355988883L115.1216340361048,253.36195624409865L118.57039671107987,251.29135366881698L122.01915938605495,249.30993678099784L125.46792206103004,247.32323579496483L128.91668473600512,245.37342845977878L132.3654474109802,243.25445398068175L135.81421008595527,241.41423129764968L139.26297276093035,239.4845619682899L142.71173543590544,237.73385137075792L146.16049811088052,236.07529367406107L149.6092607858556,234.3954742026552L153.0580234608307,232.69593851262402L156.50678613580578,231.07931779060172L159.95554881078087,229.60560857698079L163.40431148575593,228.3292882017947L166.85307416073098,227.142483754817L170.30183683570607,225.8543956801895L173.75059951068116,224.4414008326654L177.19936218565624,223.26570221518313L180.64812486063133,222.05222301504165L184.0968875356064,220.77488544015264L187.5456502105815,219.5208552279784L190.99441288555656,218.28874805889984L194.44317556053164,217.184300528282L197.8919382355067,215.99023027552195L201.3407009104818,214.86618330688026L204.78946358545687,213.78302053125336L208.23822626043196,212.83811951044052L211.68698893540704,212.21998856505996L215.13575161038213,211.31043278227352L218.5845142853572,210.28975074477333L222.03327696033227,209.39621421439907L225.48203963530733,208.37162575106888L228.93080231028242,207.33499868456963L232.37956498525747,206.26468173647703L235.8283276602326,205.24969000810216L239.27709033520765,204.3090216199486L242.72585301018276,203.46054406333877L246.17461568515782,202.55372793733522L249.62337836013293,201.63234991611145L253.072141035108,200.77835383197612L256.5209037100831,199.80840293158937L259.96966638505813,198.94490315546673L263.4184290600332,198.10539942753056L266.8671917350083,197.23113606828517L270.31595440998336,196.62758464727742L273.7647170849585,195.66490640092445L277.21347975993353,195.17214332031128L280.66224243490865,194.47267890172236L284.11100510988365,193.8995583441793L287.55976778485876,193.26956722198756L291.0085304598338,192.54953945208283L294.45729313480894,191.8124528516677L297.906055809784,191.0761352367843L301.3548184847591,190.374589440735L304.80358115973416,189.63927960239477L308.2523438347092,188.9878251973608L311.7011065096843,188.3186290255091L315.14986918465934,187.59974684374814L318.59863185963445,186.91330593839908L322.0473945346095,186.29006014712675L325.4961572095846,185.71217398594686L328.9449198845597,185.0690712173614L332.3936825595348,184.5941929883021L335.84244523450985,184.06847351710744L339.2912079094849,183.5992782851176L342.73997058446,183.02030039829438L346.1887332594351,182.423773485943L349.6374959344102,181.85422001280344L353.08625860938525,181.2091667100327L356.53502128436037,180.5627726651245L359.9837839593354,180.14300075423503L363.4325466343105,179.53398735028105L366.8813093092856,178.97886560685544L370.33007198426066,178.47608559087473L373.7788346592357,177.90063471720475L377.22759733421077,177.41775861411944L380.6763600091859,176.9170437132259L384.12512268416094,176.2921016144437L387.57388535913606,175.74495466694484L391.0226480341111,175.15534813098475L394.4714107090862,174.62852910462337L397.9201733840613,173.995081215029L401.36893605903634,173.42413458845905L404.81769873401146,172.91405320601504L408.2664614089865,172.35001860120528L411.71522408396163,171.820762098737L415.1639867589367,171.28826305957358L418.61274943391174,170.71576527391107L422.06151210888686,170.1529818234083L425.5102747838619,169.58758445811503L428.95903745883703,169.0915640786302L432.4078001338121,168.65133266108225L435.85656280878715,168.11209542384466L439.3053254837622,167.68705650913782L442.7540881587373,167.16426110716407L446.2028508337124,166.7190644181616L449.65161350868743,166.2923947441697L453.10037618366255,165.79288645515368L456.5491388586376,165.39145989276858L459.9979015336127,164.9738632189918L463.44666420858783,164.50709657487192L466.89542688356283,164.13579503053944L470.34418955853795,163.81397887563966L473.79295223351306,163.39903739734353L477.24171490848806,163.0011079919066L480.6904775834632,162.59834757325552L484.1392402584383,162.2121803396038L487.5880029334134,161.79989324055117L491.0367656083884,161.42514180478864L494.4855282833635,161.02445144794623L497.9342909583386,160.66062527784123L501.3830536333136,160.35350960217235L504.8318163082887,160.09168984653869L508.2805789832638,159.8131896989837L511.7293416582389,159.44758871596804L515.1781043332139,159.0569082752212L518.626867008189,158.71150777025827L522.0756296831642,158.31131494532252L525.5243923581393,157.93624872966313L528.9731550331143,157.56622609298722L532.4219177080894,157.1719484892446L535.8706803830645,156.81192129875853L539.3194430580395,156.4470263849428L542.7682057330146,156.09646615988748L546.2169684079897,155.73147095188304L549.6657310829648,155.4467273485915L553.1144937579398,155.1374846460287L556.563256432915,154.7668764492121L560.0120191078901,154.4009690757393L563.4607817828651,154.03967383052992L566.9095444578403,153.69207308252095L570.3583071328153,153.29410198147596L573.8070698077904,152.94637654742385L577.2558324827655,152.63897995270938L580.7045951577405,152.25467697293067L584.1533578327156,151.93743078853112L587.6021205076906,151.65946861185827L591.0508831826658,151.35839943268707L594.4996458576409,151.06968898703403L597.9484085326159,150.75824724915935L601.397171207591,150.48516455284326L604.8459338825661,150.16353305530785L608.2946965575411,149.8370714341353L611.7434592325162,149.53999412360102L615.1922219074913,149.22087379700628L618.6409845824664,148.93074266246398L622.0897472574414,148.65231725843023L625.5385099324166,148.36868897032673L628.9872726073917,148.09656989186425L632.4360352823667,147.7944125785865L635.8847979573418,147.5038511905444L639.3335606323169,147.20013306047105L642.782323307292,146.90790830303095L646.231085982267,146.60267329173976L649.6798486572421,146.34916344414404L653.1286113322172,146.07432177183915L656.5773740071922,145.7784818724087L660.0261366821674,145.50171185310387L663.4748993571425,145.23580486292423L666.9236620321176,144.98846413097667L670.3724247070926,144.72806579221088L673.8211873820677,144.49379393208253L677.2699500570428,144.2309283568706L680.7187127320178,143.97079510486583L684.1674754069929,143.75947868969996L687.616238081968,143.51207602333116L691.0650007569432,143.25958911845362L694.5137634319182,142.98692893050963L697.9625261068933,142.71703175077963L701.4112887818684,142.53249620085458L704.8600514568434,142.28998134841L708.3088141318184,142.02755227923583L711.7575768067935,141.7677302247069L715.2063394817686,141.56212934105088L718.6551021567436,141.32916549207144L722.1038648317187,141.07654043244793L725.5526275066939,140.82637659327912L729.001390181669,140.59313914243322L732.450152856644,140.36215233084567L735.8989155316191,140.1333838523608L739.3476782065942,139.95690205903227L742.7964408815692,139.75359231474667L746.2452035565443,139.54511114240154L749.6939662315194,139.37392794135178L753.1427289064945,139.17620263222148L756.5914915814695,138.98733125885474L760.0402542564447,138.7862582721332L763.4890169314198,138.61484468851796L766.9377796063948,138.44500985038206L770.3865422813699,138.26983920059558L773.835304956345,138.09626734802268L777.2840676313201,137.93110972664988L780.7328303062951,137.76744604128837L784.1815929812702,137.59169149512036L787.6303556562453,137.4242679846119L791.0791183312203,137.24488180015356L794.5278810061955,137.08719575145972L797.9766436811706,136.92422921357345L801.4254063561457,136.75604871711687L804.8741690311207,136.5694721290394L808.3229317060958,136.4109175088146L811.7716943810709,136.26031440515777L815.220457056046,136.08482518883883L818.669219731021,135.9108490456264L822.1179824059961,135.7513622265099L825.5667450809713,135.5608728183248L829.0155077559463,135.3720051252113L832.4642704309213,135.20401277783048L835.9130331058964,135.03743871107534L839.3617957808715,134.8722651219491L842.8105584558465,134.70847450417017L846.2593211308216,134.54604964201576L849.7080838057967,134.38497360432086L853.1568464807717,134.2189454633793L856.6056091557468,134.04176215415006L860.054371830722,133.8660323858289L863.5031345056971,133.68552185111346L866.9518971806721,133.5064802809548L870.4006598556472,133.341234636565L873.8494225306223,133.17732304141302L877.2981852055973,133.0147294865713L880.7469478805724,132.8595452715551L884.1957105555475,132.6995133820569" style="fill: none;" fill="none"></path></g></g></g></g><g opacity="0.2"><g><g><g><path stroke="rgb(255, 112, 67)" stroke-width="2px" d="M18.556279136802576,358.9600599910161L22.005041811777655,349.46605589386826L25.453804486752738,346.7534631536619L28.90256716172782,344.0408704134556L32.351329836702895,318.2713803686441L35.800092511677974,297.9270053106709L39.24885518665305,291.14552346015506L42.69761786162814,303.3521202975092L46.14638053660321,249.1004769741055L49.595143211578296,257.2382551947245L53.04390588655337,257.2382551947245L56.492668561528454,249.1004769741055L59.941431236503526,299.28330168077406L63.39019391147861,250.45677334420867L66.83895658645369,223.330986929294L70.28771926142876,243.67536198726714L73.73648193640385,280.29522299290403L77.18524461137893,209.7680232282623L80.634007286354,230.11239828623548L84.08276996132908,209.7680232282623L87.53153263630416,209.7680232282623L90.98029531127925,198.91772276101128L94.42905798625432,208.41179735173344L97.87782066122939,193.4925372805986L101.32658333620448,205.6992046115271L104.77534601117956,201.63031550121764L108.22410868615465,188.06742229376025L111.67287136112971,188.06742229376025L115.1216340361048,196.20513002080492L118.57039671107987,192.13624091049545L122.01915938605495,190.77994454039228L125.46792206103004,186.71112592365708L128.91668473600512,183.99853318345077L132.3654474109802,174.50445859272855L135.81421008595527,179.92964407314125L139.26297276093035,173.14816222262542L142.71173543590544,175.86075496283178L146.16049811088052,175.86075496283178L149.6092607858556,171.79186585252225L153.0580234608307,167.72304723578708L156.50678613580578,167.72304723578708L159.95554881078087,170.4356399759934L163.40431148575593,175.86075496283178L166.85307416073098,177.21705133293491L170.30183683570607,170.4356399759934L173.75059951068116,162.2978617553744L177.19936218565624,170.4356399759934L180.64812486063133,166.3667508656839L184.0968875356064,160.94156538527125L187.5456502105815,159.58526901516805L190.99441288555656,158.22897264506489L194.44317556053164,162.2978617553744L197.8919382355067,155.51637990485858L201.3407009104818,156.87267627496172L204.78946358545687,156.87267627496172L208.23822626043196,162.2978617553744L211.68698893540704,178.57334770303808L215.13575161038213,160.94156538527125L218.5845142853572,152.80385765822658L222.03327696033227,158.22897264506489L225.48203963530733,148.73496854791705L228.93080231028242,146.02237580771072L232.37956498525747,141.95348669740122L235.8283276602326,143.30978306750438L239.27709033520765,146.02237580771072L242.72585301018276,150.09126491802022L246.17461568515782,144.66607943760752L249.62337836013293,141.95348669740122L253.072141035108,144.66607943760752L256.5209037100831,135.1720048468854L259.96966638505813,140.59719032729805L263.4184290600332,140.59719032729805L266.8671917350083,136.52830121698852L270.31595440998336,154.16008353475542L273.7647170849585,127.03429711984069L277.21347975993353,159.58526901516805L280.66224243490865,143.30978306750438L284.11100510988365,151.4475612881234L287.55976778485876,146.02237580771072L291.0085304598338,137.8845975870917L294.45729313480894,135.1720048468854L297.906055809784,133.81577897035652L301.3548184847591,135.1720048468854L304.80358115973416,131.10318623015021L308.2523438347092,136.52830121698852L311.7011065096843,133.81577897035652L315.14986918465934,128.39059348994385L318.59863185963445,129.74688986004702L322.0473945346095,133.81577897035652L325.4961572095846,136.52830121698852L328.9449198845597,129.74688986004702L332.3936825595348,143.30978306750438L335.84244523450985,137.8845975870917L339.2912079094849,141.95348669740122L342.73997058446,131.10318623015021L346.1887332594351,128.39059348994385L349.6374959344102,129.74688986004702L353.08625860938525,121.60911163942802L356.53502128436037,120.25281526932486L359.9837839593354,140.59719032729805L363.4325466343105,121.60911163942802L366.8813093092856,125.67800074973754L370.33007198426066,129.74688986004702L373.7788346592357,121.60911163942802L377.22759733421077,129.74688986004702L380.6763600091859,127.03429711984069L384.12512268416094,113.47140391238334L387.57388535913606,120.25281526932486L391.0226480341111,114.82770028248649L394.4714107090862,120.25281526932486L397.9201733840613,108.04621843197066L401.36893605903634,113.47140391238334L404.81769873401146,118.89651889922169L408.2664614089865,112.11510754228017L411.71522408396163,114.82770028248649L415.1639867589367,113.47140391238334L418.61274943391174,108.04621843197066L422.06151210888686,108.04621843197066L425.5102747838619,106.68992206186749L428.95903745883703,113.47140391238334L432.4078001338121,118.89651889922169L435.85656280878715,106.68992206186749L439.3053254837622,118.89651889922169L442.7540881587373,106.68992206186749L446.2028508337124,114.82770028248649L449.65161350868743,116.1839966525897L453.10037618366255,106.68992206186749L456.5491388586376,117.54022252911854L459.9979015336127,114.82770028248649L463.44666420858783,108.04621843197066L466.89542688356283,118.89651889922169L470.34418955853795,124.32170437963437L473.79295223351306,112.11510754228017L477.24171490848806,113.47140391238334L480.6904775834632,112.11510754228017L484.1392402584383,113.47140391238334L487.5880029334134,109.40251480207385L491.0367656083884,113.47140391238334L494.4855282833635,109.40251480207385L497.9342909583386,113.47140391238334L501.3830536333136,120.25281526932486L504.8318163082887,125.67800074973754L508.2805789832638,122.96540800953117L511.7293416582389,110.75881117217702L515.1781043332139,106.68992206186749L518.626867008189,112.11510754228017L522.0756296831642,103.97732932166117L525.5243923581393,106.68992206186749L528.9731550331143,106.68992206186749L532.4219177080894,102.62103295155802L535.8706803830645,106.68992206186749L539.3194430580395,105.33362569176434L542.7682057330146,106.68992206186749L546.2169684079897,103.97732932166117L549.6657310829648,114.82770028248649L553.1144937579398,110.75881117217702L556.563256432915,101.26473658145483L560.0120191078901,101.26473658145483L563.4607817828651,101.26473658145483L566.9095444578403,102.62103295155802L570.3583071328153,94.48332522451334L573.8070698077904,101.26473658145483L577.2558324827655,106.68992206186749L580.7045951577405,94.48332522451334L584.1533578327156,103.97732932166117L587.6021205076906,109.40251480207385L591.0508831826658,105.33362569176434L594.4996458576409,106.68992206186749L597.9484085326159,102.62103295155802L601.397171207591,108.04621843197066L604.8459338825661,99.90844021135166L608.2946965575411,98.5521438412485L611.7434592325162,102.62103295155802L615.1922219074913,98.5521438412485L618.6409845824664,102.62103295155802L622.0897472574414,103.97732932166117L625.5385099324166,102.62103295155802L628.9872726073917,103.97732932166117L632.4360352823667,98.5521438412485L635.8847979573418,99.90844021135166L639.3335606323169,97.19591796471965L642.782323307292,98.5521438412485L646.231085982267,95.8396215946165L649.6798486572421,103.97732932166117L653.1286113322172,99.90844021135166L656.5773740071922,95.8396215946165L660.0261366821674,98.5521438412485L663.4748993571425,99.90844021135166L666.9236620321176,102.62103295155802L670.3724247070926,99.90844021135166L673.8211873820677,103.97732932166117L677.2699500570428,98.5521438412485L680.7187127320178,98.5521438412485L684.1674754069929,106.68992206186749L687.616238081968,99.90844021135166L691.0650007569432,98.5521438412485L694.5137634319182,94.48332522451334L697.9625261068933,94.48332522451334L701.4112887818684,109.40251480207385L704.8600514568434,98.5521438412485L708.3088141318184,94.48332522451334L711.7575768067935,94.48332522451334L715.2063394817686,103.97732932166117L718.6551021567436,98.5521438412485L722.1038648317187,94.48332522451334L725.5526275066939,94.48332522451334L729.001390181669,97.19591796471965L732.450152856644,97.19591796471965L735.8989155316191,97.19591796471965L739.3476782065942,106.68992206186749L742.7964408815692,101.26473658145483L746.2452035565443,99.90844021135166L749.6939662315194,106.68992206186749L753.1427289064945,101.26473658145483L756.5914915814695,102.62103295155802L760.0402542564447,99.90844021135166L763.4890169314198,105.33362569176434L766.9377796063948,105.33362569176434L770.3865422813699,103.97732932166117L773.835304956345,103.97732932166117L777.2840676313201,105.33362569176434L780.7328303062951,105.33362569176434L784.1815929812702,102.62103295155802L787.6303556562453,103.97732932166117L791.0791183312203,101.26473658145483L794.5278810061955,105.33362569176434L797.9766436811706,103.97732932166117L801.4254063561457,102.62103295155802L804.8741690311207,98.5521438412485L808.3229317060958,103.97732932166117L811.7716943810709,105.33362569176434L815.220457056046,99.90844021135166L818.669219731021,99.90844021135166L822.1179824059961,102.62103295155802L825.5667450809713,95.8396215946165L829.0155077559463,95.8396215946165L832.4642704309213,99.90844021135166L835.9130331058964,99.90844021135166L839.3617957808715,99.90844021135166L842.8105584558465,99.90844021135166L846.2593211308216,99.90844021135166L849.7080838057967,99.90844021135166L853.1568464807717,98.5521438412485L856.6056091557468,95.8396215946165L860.054371830722,95.8396215946165L863.5031345056971,94.48332522451334L866.9518971806721,94.48332522451334L870.4006598556472,97.19591796471965L873.8494225306223,97.19591796471965L877.2981852055973,97.19591796471965L880.7469478805724,98.5521438412485L884.1957105555475,97.19591796471965" style="fill: none;" fill="none"></path></g></g></g></g></g></g><g transform="translate(53, 376)" clip-path="url(#clip_1)"><clipPath id="clip_1"><rect width="923" height="24"></rect></clipPath><g><g><line x1="15.107516461827501" y1="0" x2="15.107516461827501" y2="5" style="visibility: inherit;" fill="rgb(0, 0, 0)" stroke="rgb(204, 204, 204)" stroke-width="1px"></line><line x1="84.08276996132908" y1="0" x2="84.08276996132908" y2="5" style="visibility: inherit;" fill="rgb(0, 0, 0)" stroke="rgb(204, 204, 204)" stroke-width="1px"></line><line x1="153.0580234608307" y1="0" x2="153.0580234608307" y2="5" style="visibility: inherit;" fill="rgb(0, 0, 0)" stroke="rgb(204, 204, 204)" stroke-width="1px"></line><line x1="222.03327696033227" y1="0" x2="222.03327696033227" y2="5" style="visibility: inherit;" fill="rgb(0, 0, 0)" stroke="rgb(204, 204, 204)" stroke-width="1px"></line><line x1="291.0085304598338" y1="0" x2="291.0085304598338" y2="5" style="visibility: inherit;" fill="rgb(0, 0, 0)" stroke="rgb(204, 204, 204)" stroke-width="1px"></line><line x1="359.9837839593354" y1="0" x2="359.9837839593354" y2="5" style="visibility: inherit;" fill="rgb(0, 0, 0)" stroke="rgb(204, 204, 204)" stroke-width="1px"></line><line x1="428.95903745883703" y1="0" x2="428.95903745883703" y2="5" style="visibility: inherit;" fill="rgb(0, 0, 0)" stroke="rgb(204, 204, 204)" stroke-width="1px"></line><line x1="497.9342909583386" y1="0" x2="497.9342909583386" y2="5" style="visibility: inherit;" fill="rgb(0, 0, 0)" stroke="rgb(204, 204, 204)" stroke-width="1px"></line><line x1="566.9095444578403" y1="0" x2="566.9095444578403" y2="5" style="visibility: inherit;" fill="rgb(0, 0, 0)" stroke="rgb(204, 204, 204)" stroke-width="1px"></line><line x1="635.8847979573418" y1="0" x2="635.8847979573418" y2="5" style="visibility: inherit;" fill="rgb(0, 0, 0)" stroke="rgb(204, 204, 204)" stroke-width="1px"></line><line x1="704.8600514568434" y1="0" x2="704.8600514568434" y2="5" style="visibility: inherit;" fill="rgb(0, 0, 0)" stroke="rgb(204, 204, 204)" stroke-width="1px"></line><line x1="773.835304956345" y1="0" x2="773.835304956345" y2="5" style="visibility: inherit;" fill="rgb(0, 0, 0)" stroke="rgb(204, 204, 204)" stroke-width="1px"></line><line x1="842.8105584558465" y1="0" x2="842.8105584558465" y2="5" style="visibility: inherit;" fill="rgb(0, 0, 0)" stroke="rgb(204, 204, 204)" stroke-width="1px"></line><line x1="911.7858119553482" y1="0" x2="911.7858119553482" y2="5" style="visibility: inherit;" fill="rgb(0, 0, 0)" stroke="rgb(204, 204, 204)" stroke-width="1px"></line></g><g transform="translate(0, 8)"><text x="15.107516461827501" y="0" dx="0em" dy="0.95em" style="text-anchor: middle; visibility: inherit; font-family: Roboto, sans-serif; font-size: 12px; font-weight: 200;" fill="rgb(33, 33, 33)" stroke="none" stroke-width="1px">0</text><text x="84.08276996132908" y="0" dx="0em" dy="0.95em" style="text-anchor: middle; visibility: inherit; font-family: Roboto, sans-serif; font-size: 12px; font-weight: 200;" fill="rgb(33, 33, 33)" stroke="none" stroke-width="1px">2k</text><text x="153.0580234608307" y="0" dx="0em" dy="0.95em" style="text-anchor: middle; visibility: inherit; font-family: Roboto, sans-serif; font-size: 12px; font-weight: 200;" fill="rgb(33, 33, 33)" stroke="none" stroke-width="1px">4k</text><text x="222.03327696033227" y="0" dx="0em" dy="0.95em" style="text-anchor: middle; visibility: inherit; font-family: Roboto, sans-serif; font-size: 12px; font-weight: 200;" fill="rgb(33, 33, 33)" stroke="none" stroke-width="1px">6k</text><text x="291.0085304598338" y="0" dx="0em" dy="0.95em" style="text-anchor: middle; visibility: inherit; font-family: Roboto, sans-serif; font-size: 12px; font-weight: 200;" fill="rgb(33, 33, 33)" stroke="none" stroke-width="1px">8k</text><text x="359.9837839593354" y="0" dx="0em" dy="0.95em" style="text-anchor: middle; visibility: inherit; font-family: Roboto, sans-serif; font-size: 12px; font-weight: 200;" fill="rgb(33, 33, 33)" stroke="none" stroke-width="1px">10k</text><text x="428.95903745883703" y="0" dx="0em" dy="0.95em" style="text-anchor: middle; visibility: inherit; font-family: Roboto, sans-serif; font-size: 12px; font-weight: 200;" fill="rgb(33, 33, 33)" stroke="none" stroke-width="1px">12k</text><text x="497.9342909583386" y="0" dx="0em" dy="0.95em" style="text-anchor: middle; visibility: inherit; font-family: Roboto, sans-serif; font-size: 12px; font-weight: 200;" fill="rgb(33, 33, 33)" stroke="none" stroke-width="1px">14k</text><text x="566.9095444578403" y="0" dx="0em" dy="0.95em" style="text-anchor: middle; visibility: inherit; font-family: Roboto, sans-serif; font-size: 12px; font-weight: 200;" fill="rgb(33, 33, 33)" stroke="none" stroke-width="1px">16k</text><text x="635.8847979573418" y="0" dx="0em" dy="0.95em" style="text-anchor: middle; visibility: inherit; font-family: Roboto, sans-serif; font-size: 12px; font-weight: 200;" fill="rgb(33, 33, 33)" stroke="none" stroke-width="1px">18k</text><text x="704.8600514568434" y="0" dx="0em" dy="0.95em" style="text-anchor: middle; visibility: inherit; font-family: Roboto, sans-serif; font-size: 12px; font-weight: 200;" fill="rgb(33, 33, 33)" stroke="none" stroke-width="1px">20k</text><text x="773.835304956345" y="0" dx="0em" dy="0.95em" style="text-anchor: middle; visibility: inherit; font-family: Roboto, sans-serif; font-size: 12px; font-weight: 200;" fill="rgb(33, 33, 33)" stroke="none" stroke-width="1px">22k</text><text x="842.8105584558465" y="0" dx="0em" dy="0.95em" style="text-anchor: middle; visibility: inherit; font-family: Roboto, sans-serif; font-size: 12px; font-weight: 200;" fill="rgb(33, 33, 33)" stroke="none" stroke-width="1px">24k</text><text x="911.7858119553482" y="0" dx="0em" dy="0.95em" style="text-anchor: middle; visibility: inherit; font-family: Roboto, sans-serif; font-size: 12px; font-weight: 200;" fill="rgb(33, 33, 33)" stroke="none" stroke-width="1px">26k</text></g><line x1="0" y1="0" x2="923.8125" y2="0" fill="rgb(0, 0, 0)" stroke="rgb(204, 204, 204)" stroke-width="1px"></line></g></g></g></g></svg>