<svg viewBox="0 0 977 400" xmlns="http://www.w3.org/2000/svg"><g><g><g><g><g><line x1="53.1875" y1="362.3666522595686" x2="48.1875" y2="362.3666522595686" style="visibility: inherit;" fill="rgb(0, 0, 0)" stroke="rgb(204, 204, 204)" stroke-width="1px"></line><line x1="53.1875" y1="304.14176473237467" x2="48.1875" y2="304.14176473237467" style="visibility: inherit;" fill="rgb(0, 0, 0)" stroke="rgb(204, 204, 204)" stroke-width="1px"></line><line x1="53.1875" y1="245.9168772051808" x2="48.1875" y2="245.9168772051808" style="visibility: inherit;" fill="rgb(0, 0, 0)" stroke="rgb(204, 204, 204)" stroke-width="1px"></line><line x1="53.1875" y1="187.6919896779869" x2="48.1875" y2="187.6919896779869" style="visibility: inherit;" fill="rgb(0, 0, 0)" stroke="rgb(204, 204, 204)" stroke-width="1px"></line><line x1="53.1875" y1="129.4671021507931" x2="48.1875" y2="129.4671021507931" style="visibility: inherit;" fill="rgb(0, 0, 0)" stroke="rgb(204, 204, 204)" stroke-width="1px"></line><line x1="53.1875" y1="71.24221462359912" x2="48.1875" y2="71.24221462359912" style="visibility: inherit;" fill="rgb(0, 0, 0)" stroke="rgb(204, 204, 204)" stroke-width="1px"></line><line x1="53.1875" y1="13.017327096405207" x2="48.1875" y2="13.017327096405207" style="visibility: inherit;" fill="rgb(0, 0, 0)" stroke="rgb(204, 204, 204)" stroke-width="1px"></line></g><g transform="translate(43.1875, 0)"><text x="0" y="362.3666522595686" dx="0em" dy="0.3em" style="text-anchor: end; visibility: inherit; font-family: Roboto, sans-serif; font-size: 12px; font-weight: 200;" fill="rgb(33, 33, 33)" stroke="none" stroke-width="1px">0.5</text><text x="0" y="304.14176473237467" dx="0em" dy="0.3em" style="text-anchor: end; visibility: inherit; font-family: Roboto, sans-serif; font-size: 12px; font-weight: 200;" fill="rgb(33, 33, 33)" stroke="none" stroke-width="1px">0.55</text><text x="0" y="245.9168772051808" dx="0em" dy="0.3em" style="text-anchor: end; visibility: inherit; font-family: Roboto, sans-serif; font-size: 12px; font-weight: 200;" fill="rgb(33, 33, 33)" stroke="none" stroke-width="1px">0.6</text><text x="0" y="187.6919896779869" dx="0em" dy="0.3em" style="text-anchor: end; visibility: inherit; font-family: Roboto, sans-serif; font-size: 12px; font-weight: 200;" fill="rgb(33, 33, 33)" stroke="none" stroke-width="1px">0.65</text><text x="0" y="129.4671021507931" dx="0em" dy="0.3em" style="text-anchor: end; visibility: inherit; font-family: Roboto, sans-serif; font-size: 12px; font-weight: 200;" fill="rgb(33, 33, 33)" stroke="none" stroke-width="1px">0.7</text><text x="0" y="71.24221462359912" dx="0em" dy="0.3em" style="text-anchor: end; visibility: inherit; font-family: Roboto, sans-serif; font-size: 12px; font-weight: 200;" fill="rgb(33, 33, 33)" stroke="none" stroke-width="1px">0.75</text><text x="0" y="13.017327096405207" dx="0em" dy="0.3em" style="text-anchor: end; visibility: inherit; font-family: Roboto, sans-serif; font-size: 12px; font-weight: 200;" fill="rgb(33, 33, 33)" stroke="none" stroke-width="1px">0.8</text></g><line x1="53.1875" y1="0" x2="53.1875" y2="376" fill="rgb(0, 0, 0)" stroke="rgb(204, 204, 204)" stroke-width="1px"></line></g></g><g transform="translate(53, 0)" clip-path="url(#clip_0)"><clipPath id="clip_0"><rect width="923" height="376"></rect></clipPath><g><g><g><line x1="8.382663008095683" y1="0" x2="8.382663008095683" y2="376" fill="rgb(0, 0, 0)" stroke="rgb(66, 66, 66)" stroke-width="1px" opacity="0.25"></line><line x1="77.4946879504339" y1="0" x2="77.4946879504339" y2="376" fill="rgb(0, 0, 0)" stroke="rgb(66, 66, 66)" stroke-width="1px" opacity="0.25"></line><line x1="146.6067128927721" y1="0" x2="146.6067128927721" y2="376" fill="rgb(0, 0, 0)" stroke="rgb(66, 66, 66)" stroke-width="1px" opacity="0.25"></line><line x1="215.7187378351103" y1="0" x2="215.7187378351103" y2="376" fill="rgb(0, 0, 0)" stroke="rgb(66, 66, 66)" stroke-width="1px" opacity="0.25"></line><line x1="284.8307627774485" y1="0" x2="284.8307627774485" y2="376" fill="rgb(0, 0, 0)" stroke="rgb(66, 66, 66)" stroke-width="1px" opacity="0.25"></line><line x1="353.9427877197867" y1="0" x2="353.9427877197867" y2="376" fill="rgb(0, 0, 0)" stroke="rgb(66, 66, 66)" stroke-width="1px" opacity="0.25"></line><line x1="423.0548126621249" y1="0" x2="423.0548126621249" y2="376" fill="rgb(0, 0, 0)" stroke="rgb(66, 66, 66)" stroke-width="1px" opacity="0.25"></line><line x1="492.1668376044631" y1="0" x2="492.1668376044631" y2="376" fill="rgb(0, 0, 0)" stroke="rgb(66, 66, 66)" stroke-width="1px" opacity="0.25"></line><line x1="561.2788625468014" y1="0" x2="561.2788625468014" y2="376" fill="rgb(0, 0, 0)" stroke="rgb(66, 66, 66)" stroke-width="1px" opacity="0.25"></line><line x1="630.3908874891396" y1="0" x2="630.3908874891396" y2="376" fill="rgb(0, 0, 0)" stroke="rgb(66, 66, 66)" stroke-width="1px" opacity="0.25"></line><line x1="699.5029124314779" y1="0" x2="699.5029124314779" y2="376" fill="rgb(0, 0, 0)" stroke="rgb(66, 66, 66)" stroke-width="1px" opacity="0.25"></line><line x1="768.614937373816" y1="0" x2="768.614937373816" y2="376" fill="rgb(0, 0, 0)" stroke="rgb(66, 66, 66)" stroke-width="1px" opacity="0.25"></line><line x1="837.7269623161542" y1="0" x2="837.7269623161542" y2="376" fill="rgb(0, 0, 0)" stroke="rgb(66, 66, 66)" stroke-width="1px" opacity="0.25"></line><line x1="906.8389872584924" y1="0" x2="906.8389872584924" y2="376" fill="rgb(0, 0, 0)" stroke="rgb(66, 66, 66)" stroke-width="1px" opacity="0.25"></line></g><g><line x1="0" y1="362.3666522595686" x2="923.8125" y2="362.3666522595686" fill="rgb(0, 0, 0)" stroke="rgb(66, 66, 66)" stroke-width="1px" opacity="0.25"></line><line x1="0" y1="304.14176473237467" x2="923.8125" y2="304.14176473237467" fill="rgb(0, 0, 0)" stroke="rgb(66, 66, 66)" stroke-width="1px" opacity="0.25"></line><line x1="0" y1="245.9168772051808" x2="923.8125" y2="245.9168772051808" fill="rgb(0, 0, 0)" stroke="rgb(66, 66, 66)" stroke-width="1px" opacity="0.25"></line><line x1="0" y1="187.6919896779869" x2="923.8125" y2="187.6919896779869" fill="rgb(0, 0, 0)" stroke="rgb(66, 66, 66)" stroke-width="1px" opacity="0.25"></line><line x1="0" y1="129.4671021507931" x2="923.8125" y2="129.4671021507931" fill="rgb(0, 0, 0)" stroke="rgb(66, 66, 66)" stroke-width="1px" opacity="0.25"></line><line x1="0" y1="71.24221462359912" x2="923.8125" y2="71.24221462359912" fill="rgb(0, 0, 0)" stroke="rgb(66, 66, 66)" stroke-width="1px" opacity="0.25"></line><line x1="0" y1="13.017327096405207" x2="923.8125" y2="13.017327096405207" fill="rgb(0, 0, 0)" stroke="rgb(66, 66, 66)" stroke-width="1px" opacity="0.25"></line></g></g></g><g><g><line x1="0" y1="944.6155275315075" x2="923.8125" y2="944.6155275315075" fill="rgb(0, 0, 0)" stroke="rgb(153, 153, 153)" stroke-width="1.5px"></line></g></g><g><g><line x1="8.382663008095683" y1="0" x2="8.382663008095683" y2="376" fill="rgb(0, 0, 0)" stroke="rgb(153, 153, 153)" stroke-width="1.5px"></line></g></g><g><g><g><g><g><path stroke="rgb(255, 112, 67)" stroke-width="2px" d="M11.838264255212595,32.697328641411794L15.293865502329504,36.42557923829347L18.749466749446416,51.772852996332716L22.205067996563326,54.66488357562057L25.660669243680235,65.12798394666449L29.11627049079715,68.17308723916176L32.57187173791406,70.83204359166226L36.02747298503097,76.5511059622461L39.48307423214788,81.2330924354674L42.93867547926479,85.28281202882887L46.3942767263817,92.01145066584817L49.849877973498614,97.33566735527333L53.30547922061552,101.51634897040108L56.761080467732434,104.94908576610871L60.216681714849344,108.02575174423325L63.67228296196625,110.2925217072523L67.12788420908316,112.16831834553959L70.58348545620007,113.8683129123823L74.03908670331698,116.83647446405868L77.4946879504339,119.09635346047983L80.9502891975508,121.45464714876704L84.40589044466772,122.93527309768716L87.86149169178462,124.9577248300846L91.31709293890152,126.58095352703417L94.77269418601844,128.4467341398928L98.22829543313536,130.96715918469596L101.68389668025227,132.79840815901613L105.13949792736918,133.9297739502889L108.59509917448608,135.50025545578944L112.050700421603,136.81637684466165L115.50630166871991,138.48227514235145L118.96190291583682,140.26948872432953L122.41750416295372,141.93761889881316L125.87310541007064,142.99578544991235L129.32870665718755,144.74473758130392L132.78430790430448,146.31422432027273L136.23990915142136,148.23785267545477L139.69551039853826,149.0550944759743L143.1511116456552,150.71897864110372L146.6067128927721,152.25810087019676L150.062314139889,153.50482632823375L153.51791538700593,154.64972759186594L156.97351663412283,156.23638031537342L160.42911788123973,157.60759452972457L163.88471912835666,158.33592498113074L167.34032037547357,158.9549154470159L170.7959216225905,160.232037774945L174.25152286970737,161.93028863452415L177.70712411682428,162.45659063038332L181.1627253639412,163.60381582226552L184.6183266110581,164.9494968697969L188.073927858175,166.0826186449699L191.52952910529194,167.09630761110253L194.98513035240885,167.70268185641277L198.44073159952575,168.72851887927746L201.89633284664268,169.5723810298649L205.35193409375958,170.3614171271432L208.80753534087648,171.09432042356335L212.26313658799342,171.843004090411L215.7187378351103,172.65466493936768L219.17433908222722,173.49871276625097L222.62994032934412,174.07738315584496L226.08554157646103,174.4927966642013L229.54114282357796,175.08109383947445L232.9967440706949,175.94350367329295L236.4523453178118,176.44627645531972L239.9079465649287,177.3112082781692L243.3635478120456,178.05331337862108L246.8191490591625,179.1020963154243L250.2747503062794,179.97800600570386L253.73035155339633,180.78168196480576L257.18595280051323,181.35694190813658L260.64155404763017,182.17600840256807L264.09715529474704,183.06267767028277L267.55275654186397,183.55680864112128L271.00835778898085,184.33534067674287L274.4639590360978,184.89575200611912L277.9195602832147,185.71944810813977L281.3751615303316,186.29703230541762L284.8307627774485,186.82686455899199L288.2863640245654,187.64129992698636L291.7419652716823,188.56891902784483L295.1975665187992,189.33534594404134L298.6531677659161,189.89859885318836L302.10876901303305,190.58999939120295L305.56437026015,191.1975133770787L309.01997150726686,192.07043339534025L312.4755727543838,192.88205116621532L315.93117400150066,193.24895798235838L319.38677524861754,194.1297087967459L322.8423764957345,194.7355053647208L326.2979777428514,195.63402392343636L329.75357898996833,196.19209668685178L333.2091802370852,196.8861842470328L336.66478148420214,197.59390394565924L340.120382731319,198.4178405891857L343.575983978436,199.3997877222381L347.0315852255529,200.27190668092652L350.4871864726698,201.11651407472908L353.9427877197867,201.6959244662779L357.39838896690355,202.34381684960707L360.85399021402054,203.12423258737653L364.3095914611374,203.81099151621208L367.76519270825435,204.50574288801462L371.2207939553712,205.21877758665468L374.67639520248815,205.91371801028828L378.131996449605,206.54748089388087L381.587597696722,207.37983661798884L385.0431989438389,208.1754900363466L388.4988001909558,208.68066578156592L391.9544014380727,209.39941296697046L395.4100026851896,210.08224344486524L398.86560393230656,210.85428401910244L402.32120517942343,211.61924737289576L405.77680642654036,212.24124849892908L409.23240767365724,212.79831457915023L412.68800892077417,213.4417763450403L416.14361016789104,214.05131329331718L419.599211415008,214.67860525357324L423.0548126621249,215.44262263327028L426.51041390924183,216.15416546919965L429.9660151563587,216.73849775746018L433.42161640347564,217.38371570694017L436.87721765059257,217.84884180535093L440.33281889770944,218.67698986684735L443.7884201448264,219.47526106515866L447.24402139194325,220.16530417945523L450.6996226390602,220.7060160929894L454.15522388617705,221.35662672937045L457.61082513329404,221.96475108043649L461.0664263804109,222.81384492371618L464.52202762752785,223.35355864646098L467.9776288746448,223.9374842912963L471.43323012176165,224.64076253495696L474.8888313688786,225.25894932828916L478.3444326159954,225.96048281488368L481.8000338631124,226.46902457287118L485.2556351102293,227.20586317580074L488.7112363573462,227.77960594769752L492.1668376044631,228.52778445117306L495.62243885158,229.15027467928442L499.07804009869693,229.6927630341767L502.5336413458138,230.2940405682384L505.98924259293074,230.75069267553428L509.44484384004767,231.01994577266794L512.9004450871646,231.61624564754322L516.3560463342815,232.09798953090126L519.8116475813983,232.78558039618895L523.2672488285153,233.11330217673466L526.7228500756322,233.716580568875L530.1784513227491,234.01702788144723L533.6340525698661,234.46787064399496L537.089653816983,235.09658673901276L540.5452550640998,235.76034418497028L544.0008563112168,236.3984967771302L547.4564575583337,236.90112916581023L550.9120588054506,237.44941649079433L554.3676600525674,238.00110296709732L557.8232612996844,238.66064492352996L561.2788625468014,239.04663066525066L564.7344637939182,239.56400420432385L568.1900650410352,240.18082044939788L571.6456662881521,240.76141878398423L575.101267535269,241.3364603593505L578.5568687823859,241.71473928194737L582.0124700295029,242.34870891820253L585.4680712766198,242.9712845836465L588.9236725237366,243.53299260433826L592.3792737708535,244.20331771595497L595.8348750179705,244.71385380156224L599.2904762650875,245.2613551481075L602.7460775122042,245.8061578870658L606.2016787593212,246.36882564235106L609.6572800064381,247.20050764583974L613.1128812535551,247.64057648205042L616.568482500672,248.14198695311885L620.0240837477888,248.59681853351995L623.4796849949058,249.10006411544978L626.9352862420226,249.59412093651733L630.3908874891396,250.2381238309755L633.8464887362566,250.61557417436845L637.3020899833734,251.23299230921285L640.7576912304903,251.58750904454865L644.2132924776072,252.01711485735063L647.6688937247242,252.3104329470682L651.124494971841,252.7795797694815L654.5800962189579,253.4224973232019L658.0356974660749,253.9261207384472L661.4912987131918,254.42642678076146L664.9468999603087,254.91472437503617L668.4025012074255,255.30550823132654L671.8581024545425,255.71819490664708L675.3137037016595,256.06955961136146L678.7693049487763,256.51035988402197L682.2249061958933,257.12204324948004L685.6805074430101,257.5188517718406L689.1361086901271,258.0424611514956L692.591709937244,258.61649095996535L696.0473111843609,259.019603080789L699.5029124314779,259.4270182944352L702.9585136785946,259.73831632642566L706.4141149257116,260.08343161777117L709.8697161728285,260.418799814095L713.3253174199455,260.92621775181436L716.7809186670623,261.3715221085686L720.2365199141792,261.79685729070997L723.6921211612962,262.3512859113915L727.1477224084131,262.814829737278L730.60332365553,263.4485751647641L734.0589249026469,263.8556548025936L737.5145261497638,264.1976727435423L740.9701273968807,264.5187825040954L744.4257286439976,264.96549278080187L747.8813298911145,265.4521182293436L751.3369311382315,265.87463452448986L754.7925323853483,266.3669216409131L758.2481336324653,266.89463271511187L761.7037348795822,267.16908873898007L765.1593361266991,267.46943545649117L768.614937373816,267.9627256868619L772.0705386209329,268.48440739068036L775.5261398680499,268.9423188602914L778.9817411151666,269.24237351442616L782.4373423622836,269.7131588558547L785.8929436094005,270.16125571419366L789.3485448565175,270.57717445685466L792.8041461036344,270.92808460381184L796.2597473507512,271.3118716011473L799.7153485978682,271.7156093879015L803.1709498449851,271.98495810519967L806.626551092102,272.435370399371L810.082152339219,272.8166716257829L813.5377535863358,273.17620455442506L816.9933548334527,273.6174507728181L820.4489560805696,273.94654597234484L823.9045573276866,274.2628728702766L827.3601585748036,274.5776214427714L830.8157598219203,274.8963074071298L834.2713610690373,275.3311296764061L837.7269623161542,275.433909807723L841.1825635632712,275.71084461135257L844.638164810388,276.0802471421757L848.0937660575049,276.4465945462826L851.5493673046219,276.72874586236685L855.0049685517388,277.08196918256937L858.4605697988557,277.504362366552L861.9161710459725,277.9238501150503L865.3717722930895,278.37597441379415L868.8273735402064,278.6776436052823L872.2829747873233,279.11107204439736L875.7385760344403,279.30191597496207L879.1941772815571,279.5471490828233" style="fill: none;" fill="none"></path></g></g></g></g><g opacity="0.2"><g><g><g><path stroke="rgb(255, 112, 67)" stroke-width="2px" d="M11.838264255212595,32.697328641411794L15.293865502329504,40.1501015846044L18.749466749446416,82.42137403838805L22.205067996563326,63.32363469527264L25.660669243680235,106.87585900580578L29.11627049079715,83.35298800865586L32.57187173791406,86.73003659377042L36.02747298503097,116.4247286773635L39.48307423214788,118.52082540572862L42.93867547926479,121.54853610436146L46.3942767263817,158.92886991897674L49.849877973498614,155.55182133386216L53.30547922061552,151.35962787713197L56.761080467732434,149.26353114876687L60.216681714849344,150.77742120282065L63.67228296196625,144.02332403259152L67.12788420908316,141.9272273042264L70.58348545620007,142.50950338801243L74.03908670331698,169.75869144728395L77.4946879504339,161.60724273112788L80.9502891975508,168.12840170405272L84.40589044466772,153.6886628028014L87.86149169178462,168.94354657566834L91.31709293890152,163.4704706716634L94.77269418601844,172.67000245673944L98.22829543313536,193.1651627552565L101.68389668025227,179.77343751345032L105.13949792736918,164.05267734597467L108.59509917448608,178.84182354318256L112.050700421603,174.416691889148L115.50630166871991,187.6920174417768L118.96190291583682,194.79545249848772L122.41750416295372,194.44604520253122L125.87310541007064,177.32793348912872L129.32870665718755,203.17983941194808L132.78430790430448,200.2685978119674L136.23990915142136,216.22215735779778L139.69551039853826,178.7253544445304L143.1511116456552,212.72870908350586L146.6067128927721,211.09841934027463L150.062314139889,202.36469454033252L153.51791538700593,200.6179356984491L156.97351663412283,221.46243388344797L160.42911788123973,215.2906127970048L163.88471912835666,189.67164507148973L167.34032037547357,186.178127387723L170.7959216225905,217.61957831319947L174.25152286970737,239.86149745359995L177.70712411682428,187.10974135799077L181.1627253639412,218.43472318481506L184.6183266110581,230.54549656987177L188.073927858175,222.39404785371573L191.52952910529194,218.43472318481506L194.98513035240885,198.9876459552179L198.44073159952575,222.62691664154528L201.89633284664268,214.70833671321873L205.35193409375958,213.31091575781713L208.80753534087648,211.6806260145859L212.26313658799342,214.00966094025532L215.7187378351103,219.13339895777852L219.17433908222722,222.62691664154528L222.62994032934412,208.30357742947135L226.08554157646103,199.45338353087703L229.54114282357796,210.98195024162243L232.9967440706949,229.3810138117744L236.4523453178118,208.07070864164174L239.9079465649287,232.5251241995847L243.3635478120456,226.12043432531203L246.8191490591625,248.01294616975602L250.2747503062794,238.34760739954612L253.73035155339633,235.0870279130837L257.18595280051323,220.7637581104845L260.64155404763017,239.04635258198434L264.09715529474704,245.45111186573178L267.55275654186397,218.78406107129678L271.00835778898085,240.56017322656336L274.4639590360978,225.88749612800768L277.9195602832147,246.7319943130065L281.3751615303316,229.613882599604L284.8307627774485,227.0520482955798L288.2863640245654,250.2255119967733L291.7419652716823,260.7059956385987L295.1975665187992,249.64323591298722L298.6531677659161,234.73769002660194L302.10876901303305,246.2662567373474L305.56437026015,240.6766423252155L309.01997150726686,263.9665751250612L312.4755727543838,260.4731268507692L315.93117400150066,224.1407372861243L319.38677524861754,269.0903825520591L322.8423764957345,246.84846341165868L326.2979777428514,273.7483829939232L329.75357898996833,245.21817366842748L333.2091802370852,258.49342981158145L336.66478148420214,261.05533352508047L340.120382731319,273.04970722095976L343.575983978436,289.2362049640945L347.0315852255529,280.8518180506341L350.4871864726698,279.9202040803664L353.9427877197867,256.280933394039L357.39838896690355,263.9665751250612L360.85399021402054,278.0570455493056L364.3095914611374,270.3713344088086L367.76519270825435,272.4674311371737L371.2207939553712,275.611541524984L374.67639520248815,275.1458039493249L378.131996449605,270.25486531015645L381.587597696722,291.7981086775935L385.0431989438389,289.58554285057625L388.4988001909558,260.8224647372509L391.9544014380727,284.2288666357487L395.4100026851896,281.7834320209019L398.86560393230656,292.61325354920905L402.32120517942343,293.31192932217255L405.77680642654036,279.2215283074029L409.23240767365724,273.2825760087893L412.68800892077417,283.87952874926697L416.14361016789104,281.31762503576795L419.599211415008,284.46173542357826L423.0548126621249,301.1140401518469L426.51041390924183,296.57250880863495L429.9660151563587,283.2972526654809L433.42161640347564,291.44877079111177L436.87721765059257,271.6522862655581L440.33281889770944,315.20451057609125L443.7884201448264,313.2248135369036L447.24402139194325,301.8127853342851L450.6996226390602,285.16048060601645L454.15522388617705,299.48375040861566L457.61082513329404,295.5244951491898L461.0664263804109,326.26720089222806L464.52202762752785,289.58554285057625L467.9776288746448,296.1067018235011L471.43323012176165,312.1767998774584L474.8888313688786,302.74439930455287L478.3444326159954,314.50576539365306L481.8000338631124,291.0993634951553L485.2556351102293,321.4928007611866L488.7112363573462,301.69631623563293L492.1668376044631,325.5685251192646L495.62243885158,310.430041035575L499.07804009869693,300.9976404626695L502.5336413458138,309.8478343612637L505.98924259293074,291.56517048028917L509.44484384004767,267.11075492234625L512.9004450871646,312.06033077880625L516.3560463342815,297.50412277890274L519.8116475813983,326.73300787736196L523.2672488285153,278.17344523848294L526.7228500756322,317.18413820580423L530.1784513227491,275.8444797222883L533.6340525698661,297.6205918775549L537.089653816983,323.70529717872904L540.5452550640998,329.87718767464696L544.0008563112168,327.43175305980014L547.4564575583337,309.0326894896482L550.9120588054506,316.6018621220182L554.3676600525674,318.11575217607196L557.8232612996844,335.00092569217014L561.2788625468014,295.75736393701936L564.7344637939182,316.0196554477069L568.1900650410352,331.8568153043599L571.6456662881521,327.54815274897754L575.101267535269,327.7810909462819L578.5568687823859,298.90154373430437L582.0124700295029,338.72738157324125L585.4680712766198,338.1451054894552L588.9236725237366,329.87718767464696L592.3792737708535,347.8104442596651L595.8348750179705,324.05470447468554L599.2904762650875,330.80873223543995L602.7460775122042,331.391008319226L606.2016787593212,335.2338638894745L609.6572800064381,379.25186048040416L613.1128812535551,317.8828139787676L616.568482500672,328.5962358178975L620.0240837477888,321.95860774632047L623.4796849949058,330.69233254626255L626.9352862420226,330.1100564624765L630.3908874891396,355.72902418799157L633.8464887362566,312.7590759612445L637.3020899833734,353.39998926232215L640.7576912304903,310.5465101342272L644.2132924776072,323.82176627738124L647.6688937247242,301.5798471369808L651.124494971841,331.9732844030121L654.5800962189579,362.4830866534833L658.0356974660749,339.77539523268644L661.4912987131918,340.1247331191681L664.9468999603087,338.9602503610708L668.4025012074255,322.89015230711345L671.8581024545425,327.43175305980014L675.3137037016595,317.4170069936338L678.7693049487763,333.83644293407286L682.2249061958933,364.92855597306755L685.6805074430101,327.7810909462819L689.1361086901271,351.1874928447797L692.591709937244,361.20216950147125L696.0473111843609,331.391008319226L699.5029124314779,332.904828963805L702.9585136785946,316.13612454635904L706.4141149257116,322.89015230711345L709.8697161728285,321.7256695490161L713.3253174199455,354.09873444476034L716.7809186670623,343.50178170428273L720.2365199141792,340.590540104302L723.6921211612962,365.51079735211624L727.1477224084131,349.4407340028963L730.60332365553,382.39600557295176L734.0589249026469,340.590540104302L737.5145261497638,328.94557370437917L740.9701273968807,325.5685251192646L744.4257286439976,350.2558788745119L747.8813298911145,358.75673488662443L751.3369311382315,347.22816817587903L754.7925323853483,361.55150738795294L758.2481336324653,369.35365292236474L761.7037348795822,320.677655889571L765.1593361266991,326.26720089222806L768.614937373816,364.92855597306755L772.0705386209329,371.4497496507298L775.5261398680499,359.6882794474174L778.9817411151666,328.94557370437917L782.4373423622836,363.76403851023287L785.8929436094005,360.0376867433739L789.3485448565175,354.33160323258994L792.8041461036344,341.8714919610515L796.2597473507512,349.20779580559196L799.7153485978682,353.9822653461082L803.1709498449851,327.08234576384365L806.626551092102,364.92855597306755L810.082152339219,351.42036163260923L813.5377535863358,347.5775060623608L816.9933548334527,365.2778938595493L820.4489560805696,342.57016773401494L823.9045573276866,340.4740710056498L827.3601585748036,340.70700920295417L830.8157598219203,342.10436074888105L834.2713610690373,367.37399058791436L837.7269623161542,297.2712539910732L841.1825635632712,334.7680569043406L844.638164810388,355.1467481042055L848.0937660575049,355.1467481042055L851.5493673046219,337.56282940566916L855.0049685517388,353.5164583609743L858.4605697988557,369.23718382371254L861.9161710459725,369.35365292236474L865.3717722930895,377.27223285069124L868.8273735402064,344.89920265968436L872.2829747873233,374.5938947432775L875.7385760344403,321.4928007611866L879.1941772815571,333.952912032725" style="fill: none;" fill="none"></path></g></g></g></g></g></g><g transform="translate(53, 376)" clip-path="url(#clip_1)"><clipPath id="clip_1"><rect width="923" height="24"></rect></clipPath><g><g><line x1="8.382663008095683" y1="0" x2="8.382663008095683" y2="5" style="visibility: inherit;" fill="rgb(0, 0, 0)" stroke="rgb(204, 204, 204)" stroke-width="1px"></line><line x1="77.4946879504339" y1="0" x2="77.4946879504339" y2="5" style="visibility: inherit;" fill="rgb(0, 0, 0)" stroke="rgb(204, 204, 204)" stroke-width="1px"></line><line x1="146.6067128927721" y1="0" x2="146.6067128927721" y2="5" style="visibility: inherit;" fill="rgb(0, 0, 0)" stroke="rgb(204, 204, 204)" stroke-width="1px"></line><line x1="215.7187378351103" y1="0" x2="215.7187378351103" y2="5" style="visibility: inherit;" fill="rgb(0, 0, 0)" stroke="rgb(204, 204, 204)" stroke-width="1px"></line><line x1="284.8307627774485" y1="0" x2="284.8307627774485" y2="5" style="visibility: inherit;" fill="rgb(0, 0, 0)" stroke="rgb(204, 204, 204)" stroke-width="1px"></line><line x1="353.9427877197867" y1="0" x2="353.9427877197867" y2="5" style="visibility: inherit;" fill="rgb(0, 0, 0)" stroke="rgb(204, 204, 204)" stroke-width="1px"></line><line x1="423.0548126621249" y1="0" x2="423.0548126621249" y2="5" style="visibility: inherit;" fill="rgb(0, 0, 0)" stroke="rgb(204, 204, 204)" stroke-width="1px"></line><line x1="492.1668376044631" y1="0" x2="492.1668376044631" y2="5" style="visibility: inherit;" fill="rgb(0, 0, 0)" stroke="rgb(204, 204, 204)" stroke-width="1px"></line><line x1="561.2788625468014" y1="0" x2="561.2788625468014" y2="5" style="visibility: inherit;" fill="rgb(0, 0, 0)" stroke="rgb(204, 204, 204)" stroke-width="1px"></line><line x1="630.3908874891396" y1="0" x2="630.3908874891396" y2="5" style="visibility: inherit;" fill="rgb(0, 0, 0)" stroke="rgb(204, 204, 204)" stroke-width="1px"></line><line x1="699.5029124314779" y1="0" x2="699.5029124314779" y2="5" style="visibility: inherit;" fill="rgb(0, 0, 0)" stroke="rgb(204, 204, 204)" stroke-width="1px"></line><line x1="768.614937373816" y1="0" x2="768.614937373816" y2="5" style="visibility: inherit;" fill="rgb(0, 0, 0)" stroke="rgb(204, 204, 204)" stroke-width="1px"></line><line x1="837.7269623161542" y1="0" x2="837.7269623161542" y2="5" style="visibility: inherit;" fill="rgb(0, 0, 0)" stroke="rgb(204, 204, 204)" stroke-width="1px"></line><line x1="906.8389872584924" y1="0" x2="906.8389872584924" y2="5" style="visibility: inherit;" fill="rgb(0, 0, 0)" stroke="rgb(204, 204, 204)" stroke-width="1px"></line></g><g transform="translate(0, 8)"><text x="8.382663008095683" y="0" dx="0em" dy="0.95em" style="text-anchor: middle; visibility: inherit; font-family: Roboto, sans-serif; font-size: 12px; font-weight: 200;" fill="rgb(33, 33, 33)" stroke="none" stroke-width="1px">0</text><text x="77.4946879504339" y="0" dx="0em" dy="0.95em" style="text-anchor: middle; visibility: inherit; font-family: Roboto, sans-serif; font-size: 12px; font-weight: 200;" fill="rgb(33, 33, 33)" stroke="none" stroke-width="1px">2k</text><text x="146.6067128927721" y="0" dx="0em" dy="0.95em" style="text-anchor: middle; visibility: inherit; font-family: Roboto, sans-serif; font-size: 12px; font-weight: 200;" fill="rgb(33, 33, 33)" stroke="none" stroke-width="1px">4k</text><text x="215.7187378351103" y="0" dx="0em" dy="0.95em" style="text-anchor: middle; visibility: inherit; font-family: Roboto, sans-serif; font-size: 12px; font-weight: 200;" fill="rgb(33, 33, 33)" stroke="none" stroke-width="1px">6k</text><text x="284.8307627774485" y="0" dx="0em" dy="0.95em" style="text-anchor: middle; visibility: inherit; font-family: Roboto, sans-serif; font-size: 12px; font-weight: 200;" fill="rgb(33, 33, 33)" stroke="none" stroke-width="1px">8k</text><text x="353.9427877197867" y="0" dx="0em" dy="0.95em" style="text-anchor: middle; visibility: inherit; font-family: Roboto, sans-serif; font-size: 12px; font-weight: 200;" fill="rgb(33, 33, 33)" stroke="none" stroke-width="1px">10k</text><text x="423.0548126621249" y="0" dx="0em" dy="0.95em" style="text-anchor: middle; visibility: inherit; font-family: Roboto, sans-serif; font-size: 12px; font-weight: 200;" fill="rgb(33, 33, 33)" stroke="none" stroke-width="1px">12k</text><text x="492.1668376044631" y="0" dx="0em" dy="0.95em" style="text-anchor: middle; visibility: inherit; font-family: Roboto, sans-serif; font-size: 12px; font-weight: 200;" fill="rgb(33, 33, 33)" stroke="none" stroke-width="1px">14k</text><text x="561.2788625468014" y="0" dx="0em" dy="0.95em" style="text-anchor: middle; visibility: inherit; font-family: Roboto, sans-serif; font-size: 12px; font-weight: 200;" fill="rgb(33, 33, 33)" stroke="none" stroke-width="1px">16k</text><text x="630.3908874891396" y="0" dx="0em" dy="0.95em" style="text-anchor: middle; visibility: inherit; font-family: Roboto, sans-serif; font-size: 12px; font-weight: 200;" fill="rgb(33, 33, 33)" stroke="none" stroke-width="1px">18k</text><text x="699.5029124314779" y="0" dx="0em" dy="0.95em" style="text-anchor: middle; visibility: inherit; font-family: Roboto, sans-serif; font-size: 12px; font-weight: 200;" fill="rgb(33, 33, 33)" stroke="none" stroke-width="1px">20k</text><text x="768.614937373816" y="0" dx="0em" dy="0.95em" style="text-anchor: middle; visibility: inherit; font-family: Roboto, sans-serif; font-size: 12px; font-weight: 200;" fill="rgb(33, 33, 33)" stroke="none" stroke-width="1px">22k</text><text x="837.7269623161542" y="0" dx="0em" dy="0.95em" style="text-anchor: middle; visibility: inherit; font-family: Roboto, sans-serif; font-size: 12px; font-weight: 200;" fill="rgb(33, 33, 33)" stroke="none" stroke-width="1px">24k</text><text x="906.8389872584924" y="0" dx="0em" dy="0.95em" style="text-anchor: middle; visibility: inherit; font-family: Roboto, sans-serif; font-size: 12px; font-weight: 200;" fill="rgb(33, 33, 33)" stroke="none" stroke-width="1px">26k</text></g><line x1="0" y1="0" x2="923.8125" y2="0" fill="rgb(0, 0, 0)" stroke="rgb(204, 204, 204)" stroke-width="1px"></line></g></g></g></g></svg>