<svg viewBox="0 0 977 400" xmlns="http://www.w3.org/2000/svg"><g><g><g><g><g><line x1="42.390625" y1="366.47009685192944" x2="37.390625" y2="366.47009685192944" style="visibility: inherit;" fill="rgb(0, 0, 0)" stroke="rgb(204, 204, 204)" stroke-width="1px"></line><line x1="42.390625" y1="313.8666537362829" x2="37.390625" y2="313.8666537362829" style="visibility: inherit;" fill="rgb(0, 0, 0)" stroke="rgb(204, 204, 204)" stroke-width="1px"></line><line x1="42.390625" y1="261.26321062063636" x2="37.390625" y2="261.26321062063636" style="visibility: inherit;" fill="rgb(0, 0, 0)" stroke="rgb(204, 204, 204)" stroke-width="1px"></line><line x1="42.390625" y1="208.65976750498987" x2="37.390625" y2="208.65976750498987" style="visibility: inherit;" fill="rgb(0, 0, 0)" stroke="rgb(204, 204, 204)" stroke-width="1px"></line><line x1="42.390625" y1="156.0563243893433" x2="37.390625" y2="156.0563243893433" style="visibility: inherit;" fill="rgb(0, 0, 0)" stroke="rgb(204, 204, 204)" stroke-width="1px"></line><line x1="42.390625" y1="103.4528812736967" x2="37.390625" y2="103.4528812736967" style="visibility: inherit;" fill="rgb(0, 0, 0)" stroke="rgb(204, 204, 204)" stroke-width="1px"></line><line x1="42.390625" y1="50.84943815805026" x2="37.390625" y2="50.84943815805026" style="visibility: inherit;" fill="rgb(0, 0, 0)" stroke="rgb(204, 204, 204)" stroke-width="1px"></line></g><g transform="translate(32.390625, 0)"><text x="0" y="366.47009685192944" dx="0em" dy="0.3em" style="text-anchor: end; visibility: inherit; font-family: Roboto, sans-serif; font-size: 12px; font-weight: 200;" fill="rgb(33, 33, 33)" stroke="none" stroke-width="1px">0.3</text><text x="0" y="313.8666537362829" dx="0em" dy="0.3em" style="text-anchor: end; visibility: inherit; font-family: Roboto, sans-serif; font-size: 12px; font-weight: 200;" fill="rgb(33, 33, 33)" stroke="none" stroke-width="1px">0.4</text><text x="0" y="261.26321062063636" dx="0em" dy="0.3em" style="text-anchor: end; visibility: inherit; font-family: Roboto, sans-serif; font-size: 12px; font-weight: 200;" fill="rgb(33, 33, 33)" stroke="none" stroke-width="1px">0.5</text><text x="0" y="208.65976750498987" dx="0em" dy="0.3em" style="text-anchor: end; visibility: inherit; font-family: Roboto, sans-serif; font-size: 12px; font-weight: 200;" fill="rgb(33, 33, 33)" stroke="none" stroke-width="1px">0.6</text><text x="0" y="156.0563243893433" dx="0em" dy="0.3em" style="text-anchor: end; visibility: inherit; font-family: Roboto, sans-serif; font-size: 12px; font-weight: 200;" fill="rgb(33, 33, 33)" stroke="none" stroke-width="1px">0.7</text><text x="0" y="103.4528812736967" dx="0em" dy="0.3em" style="text-anchor: end; visibility: inherit; font-family: Roboto, sans-serif; font-size: 12px; font-weight: 200;" fill="rgb(33, 33, 33)" stroke="none" stroke-width="1px">0.8</text><text x="0" y="50.84943815805026" dx="0em" dy="0.3em" style="text-anchor: end; visibility: inherit; font-family: Roboto, sans-serif; font-size: 12px; font-weight: 200;" fill="rgb(33, 33, 33)" stroke="none" stroke-width="1px">0.9</text></g><line x1="42.390625" y1="0" x2="42.390625" y2="376" fill="rgb(0, 0, 0)" stroke="rgb(204, 204, 204)" stroke-width="1px"></line></g></g><g transform="translate(42, 0)" clip-path="url(#clip_0)"><clipPath id="clip_0"><rect width="934" height="376"></rect></clipPath><g><g><g><line x1="12.911563076301618" y1="0" x2="12.911563076301618" y2="376" fill="rgb(0, 0, 0)" stroke="rgb(66, 66, 66)" stroke-width="1px" opacity="0.25"></line><line x1="108.79815563388797" y1="0" x2="108.79815563388797" y2="376" fill="rgb(0, 0, 0)" stroke="rgb(66, 66, 66)" stroke-width="1px" opacity="0.25"></line><line x1="204.68474819147437" y1="0" x2="204.68474819147437" y2="376" fill="rgb(0, 0, 0)" stroke="rgb(66, 66, 66)" stroke-width="1px" opacity="0.25"></line><line x1="300.57134074906077" y1="0" x2="300.57134074906077" y2="376" fill="rgb(0, 0, 0)" stroke="rgb(66, 66, 66)" stroke-width="1px" opacity="0.25"></line><line x1="396.457933306647" y1="0" x2="396.457933306647" y2="376" fill="rgb(0, 0, 0)" stroke="rgb(66, 66, 66)" stroke-width="1px" opacity="0.25"></line><line x1="492.34452586423345" y1="0" x2="492.34452586423345" y2="376" fill="rgb(0, 0, 0)" stroke="rgb(66, 66, 66)" stroke-width="1px" opacity="0.25"></line><line x1="588.2311184218198" y1="0" x2="588.2311184218198" y2="376" fill="rgb(0, 0, 0)" stroke="rgb(66, 66, 66)" stroke-width="1px" opacity="0.25"></line><line x1="684.1177109794062" y1="0" x2="684.1177109794062" y2="376" fill="rgb(0, 0, 0)" stroke="rgb(66, 66, 66)" stroke-width="1px" opacity="0.25"></line><line x1="780.0043035369924" y1="0" x2="780.0043035369924" y2="376" fill="rgb(0, 0, 0)" stroke="rgb(66, 66, 66)" stroke-width="1px" opacity="0.25"></line><line x1="875.8908960945788" y1="0" x2="875.8908960945788" y2="376" fill="rgb(0, 0, 0)" stroke="rgb(66, 66, 66)" stroke-width="1px" opacity="0.25"></line></g><g><line x1="0" y1="366.47009685192944" x2="934.609375" y2="366.47009685192944" fill="rgb(0, 0, 0)" stroke="rgb(66, 66, 66)" stroke-width="1px" opacity="0.25"></line><line x1="0" y1="313.8666537362829" x2="934.609375" y2="313.8666537362829" fill="rgb(0, 0, 0)" stroke="rgb(66, 66, 66)" stroke-width="1px" opacity="0.25"></line><line x1="0" y1="261.26321062063636" x2="934.609375" y2="261.26321062063636" fill="rgb(0, 0, 0)" stroke="rgb(66, 66, 66)" stroke-width="1px" opacity="0.25"></line><line x1="0" y1="208.65976750498987" x2="934.609375" y2="208.65976750498987" fill="rgb(0, 0, 0)" stroke="rgb(66, 66, 66)" stroke-width="1px" opacity="0.25"></line><line x1="0" y1="156.0563243893433" x2="934.609375" y2="156.0563243893433" fill="rgb(0, 0, 0)" stroke="rgb(66, 66, 66)" stroke-width="1px" opacity="0.25"></line><line x1="0" y1="103.4528812736967" x2="934.609375" y2="103.4528812736967" fill="rgb(0, 0, 0)" stroke="rgb(66, 66, 66)" stroke-width="1px" opacity="0.25"></line><line x1="0" y1="50.84943815805026" x2="934.609375" y2="50.84943815805026" fill="rgb(0, 0, 0)" stroke="rgb(66, 66, 66)" stroke-width="1px" opacity="0.25"></line></g></g></g><g><g><line x1="0" y1="524.280426198869" x2="934.609375" y2="524.280426198869" fill="rgb(0, 0, 0)" stroke="rgb(153, 153, 153)" stroke-width="1.5px"></line></g></g><g><g><line x1="12.911563076301618" y1="0" x2="12.911563076301618" y2="376" fill="rgb(0, 0, 0)" stroke="rgb(153, 153, 153)" stroke-width="1.5px"></line></g></g><g><g><g><g><g><path stroke="rgb(255, 112, 67)" stroke-width="2px" d="M13.39099603908955,294.6337976444099L13.870429001877483,282.6005381404474L14.349861964665415,303.8206249643451L14.829294927453347,308.95690605347136L15.308727890241276,300.41677894484496L15.78816085302921,308.05847457084616L16.26759381581714,312.5084384182441L16.747026778605072,315.5903980992838L17.226459741393004,316.94981735551863L17.705892704180936,311.0251826185645L18.18532566696887,302.2560269709306L18.664758629756804,302.4496835417707L19.144191592544733,302.2388063302112L19.623624555332665,300.229365751549L20.103057518120593,301.76107937053706L20.582490480908525,299.85617215965254L21.061923443696458,301.6348150269441L21.54135640648439,302.89604134044845L22.020789369272322,304.3528655092551L22.500222332060254,303.20885855201783L22.979655294848186,304.5124348780326L23.459088257636115,305.73408643743045L23.938521220424047,305.7465764540242L24.41795418321198,303.96800853152575L24.89738714599991,305.7848518912546L25.376820108787843,304.5085505323962L25.856253071575775,306.63004560851687L26.335686034363707,308.0622199527245L26.815118997151636,308.62133733717855L27.29455195993957,308.3858746541195L27.773984922727504,309.9303451272536L28.253417885515436,310.6193916476181L28.732850848303368,307.88020017334145L29.212283811091297,309.11455157544657L29.69171677387923,308.94242752602537L30.17114973666716,309.50476901789943L30.650582699455093,309.22174109502475L31.130015662243025,308.8761325855645L31.609448625030957,308.5715472630899L32.08888158781889,308.1340627751257L32.56831455060682,308.16714582465676L33.047747513394754,307.9202195941634L33.527180476182686,307.3088261305222L34.00661343897062,306.9487333953664L34.48604640175855,306.9792455590274L34.96547936454648,306.94146921823125L35.44491232733441,307.62405524271594L35.92434529012234,308.12713951364674L36.40377825291027,308.0822087560508L36.8832112156982,307.77473842307467L37.362644178486136,307.7724388045248L37.84207714127407,307.858754281763L38.321510104062,306.98871391038796L38.80094306684993,306.7384681794609L39.280376029637864,305.8987415399653L39.759808992425796,305.80379086396334L40.23924195521373,306.042388335724L40.71867491800166,305.717479479733L41.19810788078959,306.0383799886433L41.677540843577525,306.0444076961904L42.15697380636546,306.3796572349602L42.63640676915339,306.3431804224166L43.11583973194132,306.6765831551446L43.59527269472925,306.6126882152766L44.074705657517185,306.3498137474815L44.55413862030512,305.5160254127619L45.03357158309305,305.62497858401946L45.51300454588098,306.3836464685229L45.992437508668914,306.15809746744077L46.471870471456846,306.0323911738087L46.95130343424478,304.20061074329084L47.43073639703271,301.4337609269113L47.91016935982064,300.86332469469113L48.389602322608575,301.08001083244176L48.86903528539651,300.7494432942335L49.34846824818443,299.39111758047505L49.827901210972364,299.6201795414717L50.307334173760296,299.6335885930296L50.78676713654823,300.3362912550973L51.26620009933616,299.7740254748504L51.74563306212409,299.5716971279687L52.225066024912024,299.23878709910616L52.70449898769996,298.92006333825526L53.18393195048789,299.6113912032621L53.66336491327582,299.5940112887858L54.14279787606375,299.5998712239991L54.622230838851685,299.4015272279512L55.10166380163962,298.46605392616965L55.58109676442755,298.36995863357635L56.06052972721548,298.48810356587956L56.53996269000341,298.50276017783506L57.01939565279134,298.42652274812156L57.49882861557927,298.2748682298557L57.9782615783672,298.0406573745791L58.45769454115514,298.00900700216863L58.937127503943074,297.9134325496494L59.416560466731006,297.8797381698632L59.89599342951893,297.84776562469546L60.37542639230686,297.69691230865607L60.854859355094796,297.4047950344283L61.33429231788273,297.34396809100406L61.81372528067066,297.0907543521123L62.29315824345859,296.79617662624645L62.772591206246524,296.570370852904L63.252024169034456,296.1597137137699L63.73145713182239,295.328901908169L64.21089009461032,295.05749519296955L64.69032305739825,294.75867977493874L65.16975602018618,294.54043166057596L65.64918898297411,293.2842911918783L66.12862194576205,293.3313330459619L66.60805490854997,293.4381097438565L67.08748787133791,292.75628191269215L67.56692083412584,292.52699080112063L68.04635379691378,292.2330371276162L68.5257867597017,292.3905291023985L69.00521972248964,292.13855755048246L69.48465268527757,291.77873296643827L69.9640856480655,291.76165261157104L70.44351861085343,290.51670951956584L70.92295157364137,290.17974469626324L71.4023845364293,290.3028529835687L71.88181749921723,290.53652534068107L72.36125046200516,290.5344078590346L72.8406834247931,290.8374076104964L73.32011638758102,290.7022123466272L73.79954935036895,290.3967200945155L74.27898231315689,290.4633592929944L74.75841527594481,290.50301555937784L75.23784823873275,290.6863811887749L75.71728120152068,290.8006730370773L76.19671416430862,290.3405766432654L76.67614712709654,290.0663953144628L77.15558008988448,289.44841950100067L77.6350130526724,289.54982748443865L78.11444601546035,289.4643360864977L78.59387897824827,288.9632036312585L79.07331194103621,288.5954747711828L79.55274490382413,288.0338696069767L80.03217786661207,287.96302231242584L80.5116108294,287.90067062877165L80.99104379218794,287.6771607135416L81.47047675497586,287.656424451627L81.9499097177638,287.6499179870772L82.42934268055173,287.81775265143483L82.90877564333967,287.4016500599446L83.38820860612759,286.93977531087563L83.86764156891553,286.80042807971057L84.34707453170346,286.1807281955408L84.8265074944914,285.7646570954284L85.30594045727932,285.2120905732547L85.78537342006726,284.99029374061763L86.26480638285518,284.56526448481134L86.74423934564312,283.6668879371149L87.22367230843103,283.85109695256716L87.70310527121897,283.47489519261256L88.1825382340069,283.09681820255093L88.66197119679484,283.17870909246386L89.14140415958276,282.9799391866101L89.6208371223707,282.94188689189565L90.10027008515864,282.543545531365L90.57970304794657,282.3586399098102L91.0591360107345,282.07590157771773L91.53856897352243,281.9477007229143L92.01800193631037,281.63849290044595L92.4974348990983,281.2571072086203L92.97686786188623,280.7804312315352L93.45630082467416,280.5721036078077L93.9357337874621,280.2700803658902L94.41516675025002,279.58897443030196L94.89459971303796,279.116172321057L95.37403267582589,278.4895454861365L95.85346563861383,277.7491216585391L96.33289860140175,277.618612191533L96.81233156418969,277.07980180499516L97.29176452697762,276.86826953606703L97.77119748976556,276.5708234750376L98.25063045255348,276.12699543254985L98.73006341534142,275.85635878161446L99.20949637812934,275.6074107663604L99.68892934091728,275.4652941168407L100.16836230370521,275.35474682175084L100.64779526649315,275.39342235982394L101.12722822928106,275.0739821180439L101.606661192069,274.65939077368404L102.08609415485692,274.56190259065863L102.56552711764486,273.99356817657934L103.04496008043279,273.6361543211764L103.52439304322073,273.42825878338243L104.00382600600865,273.0304988349212L104.48325896879659,272.46267949190656L104.96269193158452,272.1194139889494L105.44212489437245,271.9422239791993L105.92155785716038,271.3140266708262L106.40099081994832,270.8949449326933L106.88042378273624,270.6063048020646L107.35985674552418,270.65496431501884L107.83928970831211,270.5809759070854L108.31872267110005,270.2677360124625L108.79815563388797,269.97649107912855L109.27758859667591,269.5936252539557L109.75702155946384,269.27887053153694L110.23645452225178,269.0427266972935L110.71588748503972,268.9837827287296L111.19532044782764,268.7166261644818L111.67475341061558,268.566141386839L112.1541863734035,268.40150187425417L112.63361933619144,267.92361137561915L113.11305229897937,267.59270937376385L113.59248526176731,267.57130513422806L114.07191822455523,267.64403735337925L114.55135118734317,267.73197086585793L115.03078415013108,267.6418931238032L115.51021711291902,267.4524907468935L115.98965007570695,267.00179644293706L116.46908303849489,266.52456273000615L116.94851600128283,266.3075016226558L117.42794896407075,266.2405844724477L117.90738192685869,265.91513294898954L118.38681488964662,265.53957939824767L118.86624785243455,265.469282482983L119.34568081522248,264.97437157742013L119.82511377801042,264.5330985984296L120.30454674079834,264.40372884154453L120.78397970358628,263.8770810984384L121.26341266637421,263.74604270139L121.74284562916212,263.75591170826226L122.22227859195007,263.85826109220153L122.70171155473798,263.86962283959747L123.18114451752594,263.80513770919856L123.66057748031385,263.76390838315893L124.1400104431018,263.64075910749256L124.61944340588971,263.70865634612545L125.09887636867767,263.6388817126569L125.57830933146558,263.5627871263409L126.05774229425353,263.3681484062286L126.53717525704144,262.88267898217606L127.0166082198294,262.4155823299277L127.49604118261732,261.863887016282L127.97547414540526,261.17461734246984L128.45490710819317,260.78040729308134L128.9343400709811,260.48375295430117L129.41377303376905,260.18759826022L129.893205996557,259.7869617757324L130.3726389593449,259.51332389551305L130.85207192213284,259.2240107550527L131.33150488492078,259.1077380256487L131.81093784770871,258.9367830257662L132.29037081049663,258.7294552261303L132.7698037732846,258.4994873508802L133.2492367360725,258.16542727648357L133.72866969886044,258.06434967130184L134.20810266164835,257.7507447431899L134.68753562443632,257.36576589612105L135.16696858722423,257.2718917572654L135.64640155001214,256.8580179695259" style="fill: none;" fill="none"></path></g></g></g></g><g opacity="0.2"><g><g><g><path stroke="rgb(255, 112, 67)" stroke-width="2px" d="M13.39099603908955,294.6337976444099L13.870429001877483,270.5793118959958L14.349861964665415,346.19715957174935L14.829294927453347,324.33495217431187L15.308727890241276,266.3415864228413L15.78816085302921,346.15247998579196L16.26759381581714,339.1149278549263L16.747026778605072,337.077993369652L17.226459741393004,327.77634633227603L17.705892704180936,257.9693688356656L18.18532566696887,215.0453300342887L18.664758629756804,304.5671669960806L19.144191592544733,299.7246680536353L19.623624555332665,274.2887678926566L20.103057518120593,323.0449349498638L20.582490480908525,271.5100895722986L21.061923443696458,329.8524107286204L21.54135640648439,324.1449463561351L22.020789369272322,330.3279896477796L22.500222332060254,281.68878904349464L22.979655294848186,330.31193635093035L23.459088257636115,331.1084401136454L23.938521220424047,306.01821885454774L24.41795418321198,263.5482500628797L24.89738714599991,348.84819536969854L25.376820108787843,273.01251511609297L25.856253071575775,361.0504411274293L26.335686034363707,346.1942279638286L26.815118997151636,324.05165224524654L27.29455195993957,301.65893355349374L27.773984922727504,355.55317461056404L28.253417885515436,331.6414597355934L28.732850848303368,221.65753250683983L29.212283811091297,349.16300616464963L29.69171677387923,303.1915060600236L30.17114973666716,328.8364282980444L30.650582699455093,299.2190519110745L31.130015662243025,296.32869030287065L31.609448625030957,297.2202440058172L32.08888158781889,291.4091229939108L32.56831455060682,309.46368904491504L33.047747513394754,298.0060403449502L33.527180476182686,282.17491861575894L34.00661343897062,291.8006729373747L34.48604640175855,308.2920021765394L34.96547936454648,305.2800650633883L35.44491232733441,338.2960842992325L35.92434529012234,331.2132255005013L36.40377825291027,305.9775525928027L36.8832112156982,293.0793870104279L37.362644178486136,307.6603425704356L37.84207714127407,312.14827372495154L38.321510104062,262.92540095758574L38.80094306684993,293.82741734164114L39.280376029637864,261.77875033439403L39.759808992425796,300.725130206984L40.23924195521373,319.0299332934451L40.71867491800166,287.7248600129108L41.19810788078959,324.11183643138355L41.677540843577525,306.38957676056845L42.15697380636546,325.89301556040897L42.63640676915339,304.1857130713383L43.11583973194132,326.70946052780397L43.59527269472925,302.7134971984702L44.074705657517185,290.06132017162446L44.55413862030512,253.07069903129562L45.03357158309305,312.58012935806335L45.51300454588098,355.5235606674505L45.992437508668914,291.3382784153348L46.471870471456846,297.65547020418546L46.95130343424478,180.4250157986672L47.43073639703271,111.89728539473192L47.91016935982064,261.2561559491694L48.389602322608575,316.3266302184496L48.86903528539651,277.18284496116644L49.34846824818443,201.29414493222475L49.827901210972364,316.3751036499514L50.307334173760296,300.62681944083L50.78676713654823,353.03660085077513L51.26620009933616,257.08646886305183L51.74563306212409,284.024042069535L52.225066024912024,273.34975976630903L52.70449898769996,273.84062380698003L53.18393195048789,354.6461946926764L53.66336491327582,298.1944627813088L54.14279787606375,300.07713511717225L54.622230838851685,283.0653592483185L55.10166380163962,220.56035864620299L55.58109676442755,290.27919978061954L56.06052972721548,308.5434149905741L56.53996269000341,299.7635784860375L57.01939565279134,291.79868195231626L57.49882861557927,284.9521860018235L57.9782615783672,277.2520904808765L58.45769454115514,295.1709089758088L58.937127503943074,289.25633512610136L59.416560466731006,294.79710545034624L59.89599342951893,294.8936447101096L60.37542639230686,283.6219728270615L60.854859355094796,269.8850538384085L61.33429231788273,291.55855661262865L61.81372528067066,272.77804919062663L62.29315824345859,268.2458460533937L62.772591206246524,274.48168964170645L63.252024169034456,255.61850147011168L63.73145713182239,212.56089422229363L64.21089009461032,267.7750329567366L64.69032305739825,264.4525492056099L65.16975602018618,272.20961511791455L65.64918898297411,163.63154281909652L66.12862194576205,298.2289052551153L66.60805490854997,304.65028670300904L67.08748787133791,220.55082700119877L67.56692083412584,268.0403199579896L68.04635379691378,260.5785939473872L68.5257867597017,309.49044976534634L69.00521972248964,264.55601772045867L69.48465268527757,252.0697822435635L69.9640856480655,289.8615475527279L70.44351861085343,150.917739317725L70.92295157364137,252.09608832961143L71.4023845364293,304.3255836909565L71.88181749921723,317.3599514637866L72.36125046200516,290.2894682468659L72.8406834247931,326.154540070213L73.32011638758102,274.8247818307162L73.79954935036895,254.25017739238032L74.27898231315689,298.4069494858936L74.75841527594481,295.26504964727343L75.23784823873275,312.86659605076494L75.71728120152068,304.72595981227795L76.19671416430862,233.87898264800845L76.67614712709654,256.1794575910688L77.15558008988448,212.52985366783906L77.6350130526724,302.2606186443868L78.11444601546035,278.67388896832745L78.59387897824827,225.27450959909274L79.07331194103621,241.54035586112568L79.55274490382413,215.68087754822315L80.03217786661207,278.7739398867766L80.5116108294,279.75928936613826L80.99104379218794,258.2989317325065L81.47047675497586,284.91285228913335L81.9499097177638,286.78342194416905L82.42934268055173,310.31438836154405L82.90877564333967,231.26715514636783L83.38820860612759,224.23126478255887L83.86764156891553,267.76103335313655L84.34707453170346,200.97502294915495L84.8265074944914,228.198467120527L85.30594045727932,208.28529300188546L85.78537342006726,253.92164918068792L86.26480638285518,224.66335557138623L86.74423934564312,156.28245639624998L87.22367230843103,310.1287407626291L87.70310527121897,229.48708908772937L88.1825382340069,228.51646035616207L88.66197119679484,295.0707169639303L89.14140415958276,253.94532152272146L89.6208371223707,277.35107536008184L90.10027008515864,223.67805312316764L90.57970304794657,254.87653815636006L91.0591360107345,239.81271385001062L91.53856897352243,262.6755715253692L92.01800193631037,234.89360117543418L92.4974348990983,223.2772850756536L92.97686786188623,207.9104547912744L93.45630082467416,248.5485605586888L93.9357337874621,233.58861237042842L94.41516675025002,173.74038536572195L94.89459971303796,205.2405908590323L95.37403267582589,180.05067925358267L95.85346563861383,160.81014454374414L96.33289860140175,256.8968079399246L96.81233156418969,191.07678586138977L97.29176452697762,242.92667718962164L97.77119748976556,228.59443799144356L98.25063045255348,204.16821808786375L98.73006341534142,231.7509801926196L99.20949637812934,234.8284787192703L99.68892934091728,252.0671798536446L100.16836230370521,257.06198131453766L100.64779526649315,281.8254772224289L101.12722822928106,221.6824903667852L101.606661192069,205.0193877159239L102.08609415485692,258.1055396720256L102.56552711764486,177.58480506606958L103.04496008043279,212.71023377872532L103.52439304322073,237.8174646345822L104.00382600600865,204.56826499118344L104.48325896879659,174.26039303807534L104.96269193158452,212.46934026370025L105.44212489437245,241.0052668688807L105.92155785716038,161.11437333149482L106.40099081994832,197.03362503170817L106.88042378273624,219.4972666872754L107.35985674552418,279.31101986408004L107.83928970831211,257.35840293253153L108.31872267110005,214.03124452648493L108.79815563388797,217.45012644394563L109.27758859667591,200.229892871767L109.75702155946384,211.99739841960837L110.23645452225178,225.87453292292915L110.71588748503972,258.16044069308623L111.19532044782764,219.44327493498162L111.67475341061558,240.68871592163444L112.1541863734035,237.76792516383645L112.63361933619144,178.61663699187469L113.11305229897937,205.4858425933192L113.59248526176731,263.53658633938767L114.07191822455523,281.4130768055182L114.55135118734317,284.4499874556623L115.03078415013108,250.44335125242773L115.51021711291902,231.13684752584925L115.98965007570695,180.22271917509022L116.46908303849489,174.25057920621242L116.94851600128283,224.16347722828525L117.42794896407075,253.19426552130133L117.90738192685869,202.2026925548828L118.38681488964662,191.7171932601126L118.86624785243455,251.59464228173997L119.34568081522248,166.89609987895557L119.82511377801042,176.73106440218592L120.30454674079834,238.5589576369027L120.78397970358628,158.2454108934074L121.26341266637421,237.3585660941804L121.74284562916212,265.7511260981046L122.22227859195007,284.63176282379425L122.70171155473798,266.1847218835116L123.18114451752594,250.61419971830975L123.66057748031385,255.2973728249357L124.1400104431018,238.254039059053L124.61944340588971,277.7592272970646L125.09887636867767,249.1445392042175L125.57830933146558,247.69538426852253L126.05774229425353,222.62781634335764L126.53717525704144,160.88445374986276L127.0166082198294,163.90902656346356L127.49604118261732,145.0814252901577L127.97547414540526,114.72783906594368L128.45490710819317,176.71388235790198L128.9343400709811,196.98819294746093L129.41377303376905,196.56651171830924L129.893205996557,173.40652695781006L130.3726389593449,200.30043958643662L130.85207192213284,196.3927159674588L131.33150488492078,233.76541811443812L131.81093784770871,221.54261974716695L132.29037081049663,213.21744898015197L132.7698037732846,207.8383403718344L133.2492367360725,184.31298633753755L133.72866969886044,235.639954062543L134.20810266164835,187.9327539442818L134.68753562443632,171.3588850489537L135.16696858722423,236.22696543678478L135.64640155001214,163.75413733214455" style="fill: none;" fill="none"></path></g></g></g></g></g></g><g transform="translate(42, 376)" clip-path="url(#clip_1)"><clipPath id="clip_1"><rect width="934" height="24"></rect></clipPath><g><g><line x1="12.911563076301618" y1="0" x2="12.911563076301618" y2="5" style="visibility: inherit;" fill="rgb(0, 0, 0)" stroke="rgb(204, 204, 204)" stroke-width="1px"></line><line x1="108.79815563388797" y1="0" x2="108.79815563388797" y2="5" style="visibility: inherit;" fill="rgb(0, 0, 0)" stroke="rgb(204, 204, 204)" stroke-width="1px"></line><line x1="204.68474819147437" y1="0" x2="204.68474819147437" y2="5" style="visibility: inherit;" fill="rgb(0, 0, 0)" stroke="rgb(204, 204, 204)" stroke-width="1px"></line><line x1="300.57134074906077" y1="0" x2="300.57134074906077" y2="5" style="visibility: inherit;" fill="rgb(0, 0, 0)" stroke="rgb(204, 204, 204)" stroke-width="1px"></line><line x1="396.457933306647" y1="0" x2="396.457933306647" y2="5" style="visibility: inherit;" fill="rgb(0, 0, 0)" stroke="rgb(204, 204, 204)" stroke-width="1px"></line><line x1="492.34452586423345" y1="0" x2="492.34452586423345" y2="5" style="visibility: inherit;" fill="rgb(0, 0, 0)" stroke="rgb(204, 204, 204)" stroke-width="1px"></line><line x1="588.2311184218198" y1="0" x2="588.2311184218198" y2="5" style="visibility: inherit;" fill="rgb(0, 0, 0)" stroke="rgb(204, 204, 204)" stroke-width="1px"></line><line x1="684.1177109794062" y1="0" x2="684.1177109794062" y2="5" style="visibility: inherit;" fill="rgb(0, 0, 0)" stroke="rgb(204, 204, 204)" stroke-width="1px"></line><line x1="780.0043035369924" y1="0" x2="780.0043035369924" y2="5" style="visibility: inherit;" fill="rgb(0, 0, 0)" stroke="rgb(204, 204, 204)" stroke-width="1px"></line><line x1="875.8908960945788" y1="0" x2="875.8908960945788" y2="5" style="visibility: inherit;" fill="rgb(0, 0, 0)" stroke="rgb(204, 204, 204)" stroke-width="1px"></line></g><g transform="translate(0, 8)"><text x="12.911563076301618" y="0" dx="0em" dy="0.95em" style="text-anchor: middle; visibility: inherit; font-family: Roboto, sans-serif; font-size: 12px; font-weight: 200;" fill="rgb(33, 33, 33)" stroke="none" stroke-width="1px">0</text><text x="108.79815563388797" y="0" dx="0em" dy="0.95em" style="text-anchor: middle; visibility: inherit; font-family: Roboto, sans-serif; font-size: 12px; font-weight: 200;" fill="rgb(33, 33, 33)" stroke="none" stroke-width="1px">20k</text><text x="204.68474819147437" y="0" dx="0em" dy="0.95em" style="text-anchor: middle; visibility: inherit; font-family: Roboto, sans-serif; font-size: 12px; font-weight: 200;" fill="rgb(33, 33, 33)" stroke="none" stroke-width="1px">40k</text><text x="300.57134074906077" y="0" dx="0em" dy="0.95em" style="text-anchor: middle; visibility: inherit; font-family: Roboto, sans-serif; font-size: 12px; font-weight: 200;" fill="rgb(33, 33, 33)" stroke="none" stroke-width="1px">60k</text><text x="396.457933306647" y="0" dx="0em" dy="0.95em" style="text-anchor: middle; visibility: inherit; font-family: Roboto, sans-serif; font-size: 12px; font-weight: 200;" fill="rgb(33, 33, 33)" stroke="none" stroke-width="1px">80k</text><text x="492.34452586423345" y="0" dx="0em" dy="0.95em" style="text-anchor: middle; visibility: inherit; font-family: Roboto, sans-serif; font-size: 12px; font-weight: 200;" fill="rgb(33, 33, 33)" stroke="none" stroke-width="1px">100k</text><text x="588.2311184218198" y="0" dx="0em" dy="0.95em" style="text-anchor: middle; visibility: inherit; font-family: Roboto, sans-serif; font-size: 12px; font-weight: 200;" fill="rgb(33, 33, 33)" stroke="none" stroke-width="1px">120k</text><text x="684.1177109794062" y="0" dx="0em" dy="0.95em" style="text-anchor: middle; visibility: inherit; font-family: Roboto, sans-serif; font-size: 12px; font-weight: 200;" fill="rgb(33, 33, 33)" stroke="none" stroke-width="1px">140k</text><text x="780.0043035369924" y="0" dx="0em" dy="0.95em" style="text-anchor: middle; visibility: inherit; font-family: Roboto, sans-serif; font-size: 12px; font-weight: 200;" fill="rgb(33, 33, 33)" stroke="none" stroke-width="1px">160k</text><text x="875.8908960945788" y="0" dx="0em" dy="0.95em" style="text-anchor: middle; visibility: inherit; font-family: Roboto, sans-serif; font-size: 12px; font-weight: 200;" fill="rgb(33, 33, 33)" stroke="none" stroke-width="1px">180k</text></g><line x1="0" y1="0" x2="934.609375" y2="0" fill="rgb(0, 0, 0)" stroke="rgb(204, 204, 204)" stroke-width="1px"></line></g></g></g></g></svg>