<svg viewBox="0 0 1584.5999755859375 400" xmlns="http://www.w3.org/2000/svg"><g><g><g><g><g><line x1="53.1875" y1="364.2472726768389" x2="48.1875" y2="364.2472726768389" style="visibility: inherit;" fill="rgb(0, 0, 0)" stroke="rgb(204, 204, 204)" stroke-width="1px"></line><line x1="53.1875" y1="306.0734339156286" x2="48.1875" y2="306.0734339156286" style="visibility: inherit;" fill="rgb(0, 0, 0)" stroke="rgb(204, 204, 204)" stroke-width="1px"></line><line x1="53.1875" y1="247.8995951544183" x2="48.1875" y2="247.8995951544183" style="visibility: inherit;" fill="rgb(0, 0, 0)" stroke="rgb(204, 204, 204)" stroke-width="1px"></line><line x1="53.1875" y1="189.72575639320794" x2="48.1875" y2="189.72575639320794" style="visibility: inherit;" fill="rgb(0, 0, 0)" stroke="rgb(204, 204, 204)" stroke-width="1px"></line><line x1="53.1875" y1="131.55191763199772" x2="48.1875" y2="131.55191763199772" style="visibility: inherit;" fill="rgb(0, 0, 0)" stroke="rgb(204, 204, 204)" stroke-width="1px"></line><line x1="53.1875" y1="73.37807887078736" x2="48.1875" y2="73.37807887078736" style="visibility: inherit;" fill="rgb(0, 0, 0)" stroke="rgb(204, 204, 204)" stroke-width="1px"></line><line x1="53.1875" y1="15.20424010957699" x2="48.1875" y2="15.20424010957699" style="visibility: inherit;" fill="rgb(0, 0, 0)" stroke="rgb(204, 204, 204)" stroke-width="1px"></line></g><g transform="translate(43.1875, 0)"><text x="0" y="364.2472726768389" dx="0em" dy="0.3em" style="text-anchor: end; visibility: inherit; font-family: Roboto, sans-serif; font-size: 12px; font-weight: 200;" fill="rgb(33, 33, 33)" stroke="none" stroke-width="1px">0.5</text><text x="0" y="306.0734339156286" dx="0em" dy="0.3em" style="text-anchor: end; visibility: inherit; font-family: Roboto, sans-serif; font-size: 12px; font-weight: 200;" fill="rgb(33, 33, 33)" stroke="none" stroke-width="1px">0.55</text><text x="0" y="247.8995951544183" dx="0em" dy="0.3em" style="text-anchor: end; visibility: inherit; font-family: Roboto, sans-serif; font-size: 12px; font-weight: 200;" fill="rgb(33, 33, 33)" stroke="none" stroke-width="1px">0.6</text><text x="0" y="189.72575639320794" dx="0em" dy="0.3em" style="text-anchor: end; visibility: inherit; font-family: Roboto, sans-serif; font-size: 12px; font-weight: 200;" fill="rgb(33, 33, 33)" stroke="none" stroke-width="1px">0.65</text><text x="0" y="131.55191763199772" dx="0em" dy="0.3em" style="text-anchor: end; visibility: inherit; font-family: Roboto, sans-serif; font-size: 12px; font-weight: 200;" fill="rgb(33, 33, 33)" stroke="none" stroke-width="1px">0.7</text><text x="0" y="73.37807887078736" dx="0em" dy="0.3em" style="text-anchor: end; visibility: inherit; font-family: Roboto, sans-serif; font-size: 12px; font-weight: 200;" fill="rgb(33, 33, 33)" stroke="none" stroke-width="1px">0.75</text><text x="0" y="15.20424010957699" dx="0em" dy="0.3em" style="text-anchor: end; visibility: inherit; font-family: Roboto, sans-serif; font-size: 12px; font-weight: 200;" fill="rgb(33, 33, 33)" stroke="none" stroke-width="1px">0.8</text></g><line x1="53.1875" y1="0" x2="53.1875" y2="376" fill="rgb(0, 0, 0)" stroke="rgb(204, 204, 204)" stroke-width="1px"></line></g></g><g transform="translate(53, 0)" clip-path="url(#clip_0)"><clipPath id="clip_0"><rect width="1531" height="376"></rect></clipPath><g><g><g><line x1="12.390422552081665" y1="0" x2="12.390422552081665" y2="376" fill="rgb(0, 0, 0)" stroke="rgb(66, 66, 66)" stroke-width="1px" opacity="0.25"></line><line x1="124.96802769501942" y1="0" x2="124.96802769501942" y2="376" fill="rgb(0, 0, 0)" stroke="rgb(66, 66, 66)" stroke-width="1px" opacity="0.25"></line><line x1="237.54563283795716" y1="0" x2="237.54563283795716" y2="376" fill="rgb(0, 0, 0)" stroke="rgb(66, 66, 66)" stroke-width="1px" opacity="0.25"></line><line x1="350.12323798089494" y1="0" x2="350.12323798089494" y2="376" fill="rgb(0, 0, 0)" stroke="rgb(66, 66, 66)" stroke-width="1px" opacity="0.25"></line><line x1="462.7008431238327" y1="0" x2="462.7008431238327" y2="376" fill="rgb(0, 0, 0)" stroke="rgb(66, 66, 66)" stroke-width="1px" opacity="0.25"></line><line x1="575.2784482667705" y1="0" x2="575.2784482667705" y2="376" fill="rgb(0, 0, 0)" stroke="rgb(66, 66, 66)" stroke-width="1px" opacity="0.25"></line><line x1="687.8560534097082" y1="0" x2="687.8560534097082" y2="376" fill="rgb(0, 0, 0)" stroke="rgb(66, 66, 66)" stroke-width="1px" opacity="0.25"></line><line x1="800.4336585526461" y1="0" x2="800.4336585526461" y2="376" fill="rgb(0, 0, 0)" stroke="rgb(66, 66, 66)" stroke-width="1px" opacity="0.25"></line><line x1="913.0112636955837" y1="0" x2="913.0112636955837" y2="376" fill="rgb(0, 0, 0)" stroke="rgb(66, 66, 66)" stroke-width="1px" opacity="0.25"></line><line x1="1025.5888688385216" y1="0" x2="1025.5888688385216" y2="376" fill="rgb(0, 0, 0)" stroke="rgb(66, 66, 66)" stroke-width="1px" opacity="0.25"></line><line x1="1138.1664739814591" y1="0" x2="1138.1664739814591" y2="376" fill="rgb(0, 0, 0)" stroke="rgb(66, 66, 66)" stroke-width="1px" opacity="0.25"></line><line x1="1250.7440791243969" y1="0" x2="1250.7440791243969" y2="376" fill="rgb(0, 0, 0)" stroke="rgb(66, 66, 66)" stroke-width="1px" opacity="0.25"></line><line x1="1363.3216842673348" y1="0" x2="1363.3216842673348" y2="376" fill="rgb(0, 0, 0)" stroke="rgb(66, 66, 66)" stroke-width="1px" opacity="0.25"></line><line x1="1475.8992894102726" y1="0" x2="1475.8992894102726" y2="376" fill="rgb(0, 0, 0)" stroke="rgb(66, 66, 66)" stroke-width="1px" opacity="0.25"></line></g><g><line x1="0" y1="364.2472726768389" x2="1531.4125" y2="364.2472726768389" fill="rgb(0, 0, 0)" stroke="rgb(66, 66, 66)" stroke-width="1px" opacity="0.25"></line><line x1="0" y1="306.0734339156286" x2="1531.4125" y2="306.0734339156286" fill="rgb(0, 0, 0)" stroke="rgb(66, 66, 66)" stroke-width="1px" opacity="0.25"></line><line x1="0" y1="247.8995951544183" x2="1531.4125" y2="247.8995951544183" fill="rgb(0, 0, 0)" stroke="rgb(66, 66, 66)" stroke-width="1px" opacity="0.25"></line><line x1="0" y1="189.72575639320794" x2="1531.4125" y2="189.72575639320794" fill="rgb(0, 0, 0)" stroke="rgb(66, 66, 66)" stroke-width="1px" opacity="0.25"></line><line x1="0" y1="131.55191763199772" x2="1531.4125" y2="131.55191763199772" fill="rgb(0, 0, 0)" stroke="rgb(66, 66, 66)" stroke-width="1px" opacity="0.25"></line><line x1="0" y1="73.37807887078736" x2="1531.4125" y2="73.37807887078736" fill="rgb(0, 0, 0)" stroke="rgb(66, 66, 66)" stroke-width="1px" opacity="0.25"></line><line x1="0" y1="15.20424010957699" x2="1531.4125" y2="15.20424010957699" fill="rgb(0, 0, 0)" stroke="rgb(66, 66, 66)" stroke-width="1px" opacity="0.25"></line></g></g></g><g><g><line x1="0" y1="945.9856602889421" x2="1531.4125" y2="945.9856602889421" fill="rgb(0, 0, 0)" stroke="rgb(153, 153, 153)" stroke-width="1.5px"></line></g></g><g><g><line x1="12.390422552081665" y1="0" x2="12.390422552081665" y2="376" fill="rgb(0, 0, 0)" stroke="rgb(153, 153, 153)" stroke-width="1.5px"></line></g></g><g><g><g><g><g><path stroke="rgb(255, 112, 67)" stroke-width="2px" d="M18.019302809228552,131.5914602150599L23.64818306637544,134.0357995892083L29.277063323522327,135.69923747860662L34.905943580669216,137.49591486821134L40.5348238378161,139.46976676152286L46.163704094962995,141.79500172280314L51.79258435210988,143.87087877250048L57.421464609256766,144.9193564487559L63.05034486640365,146.8689295261607L68.67922512355054,148.4831652443218L74.30810538069743,150.36230616302706L79.93698563784432,152.10066361636282L85.5658658949912,152.86355343316558L91.1947461521381,154.34568054967465L96.82362640928497,155.9641683207163L102.45250666643187,157.28313028134073L108.08138692357876,158.2348909384396L113.71026718072564,159.57647696058763L119.33914743787254,160.6968732873901L124.96802769501942,161.92667108939415L130.5969079521663,163.14760725949483L136.22578820931318,164.2985705628211L141.85466846646008,165.4801305402929L147.483548723607,166.6070050580652L153.11242898075386,167.58601984050208L158.74130923790074,168.70689706423L164.37018949504764,169.75040382478153L169.99906975219452,170.74052209820366L175.6279500093414,171.66509954653128L181.2568302664883,172.6681761220041L186.8857105236352,173.64712370250305L192.51459078078207,174.5809732385212L198.14347103792895,175.48567881202675L203.77235129507585,176.41901999462047L209.40123155222273,177.36149189677977L215.0301118093696,178.29033986095044L220.65899206651648,179.1291400826296L226.2878723236634,180.047445044864L231.91675258081028,180.912804016029L237.54563283795716,181.77107031253206L243.1745130951041,182.59784509196476L248.80339335225096,183.39026292964638L254.43227360939784,184.16713762672663L260.0611538665447,184.88946979663427L265.69003412369165,185.72106827000889L271.3189143808385,186.50425499314682L276.9477946379854,187.24954048256893L282.57667489513227,187.9981859172693L288.20555515227915,188.7479712680538L293.834435409426,189.49996751139932L299.4633156665729,190.23783446925637L305.0921959237198,190.93864044642848L310.7210761808667,191.6700636792559L316.3499564380136,192.3856964229506L321.9788366951605,193.0633098554908L327.6077169523074,193.65297637016366L333.23659720945426,194.1807758591281L338.86547746660113,194.7931570319022L344.49435772374807,195.43875511037575L350.12323798089494,196.04371520935368L355.7521182380418,196.6766644193095L361.3809984951887,197.30582515693487L367.0098787523356,197.96331154213567L372.6387590094825,198.61656979150996L378.2676392666294,199.24132932020916L383.89651952377625,199.84449343891907L389.5253997809231,200.47614485346708L395.15428003807006,201.0939804393503L400.78316029521693,201.6958180069321L406.4120405523638,202.3040000239572L412.0409208095107,202.903943021003L417.66980106665756,203.46191720401933L423.29868132380443,204.03413203791268L428.9275615809513,204.60587906293384L434.5564418380983,205.18036418574098L440.18532209524517,205.7427039805966L445.81420235239204,206.30392698921227L451.4430826095389,206.85610309013455L457.0719628666858,207.39335588566297L462.7008431238327,207.92361121041898L468.3297233809796,208.45059320832144L473.9586036381265,208.94102239074232L479.58748389527335,209.46626478902866L485.2163641524202,209.98681381881363L490.8452444095672,210.48221971202216L496.4741246667141,210.95002502973279L502.10300492386096,211.45506632629431L507.73188518100784,211.94745299098167L513.3607654381547,212.42242993952334L518.9896456953015,212.9112752270255L524.6185259524484,213.39100948819728L530.2474062095954,213.8069922732564L535.8762864667423,214.23322537555669L541.5051667238891,214.62691394456127L547.134046981036,215.06974806932374L552.7629272381829,215.54043969228846L558.3918074953298,215.98690859400006L564.0206877524766,216.4524874179798L569.6495680096236,216.91178001949405L575.2784482667705,217.36174676875206L580.9073285239174,217.81398837644485L586.5362087810643,218.26200846072626L592.1650890382111,218.68320041041343L597.793969295358,219.13734444278668L603.4228495525049,219.57352713515465L609.0517298096519,220.01452370236592L614.6806100667987,220.46430723983443L620.3094903239456,220.90504939547895L625.9383705810925,221.34450887691307L631.5672508382394,221.77741966299268L637.1961310953862,222.2093246411209L642.8250113525331,222.64488826558477L648.4538916096801,223.07155153166943L654.082771866827,223.49737832244045L659.7116521239739,223.92000400526143L665.3405323811207,224.33883299286603L670.9694126382676,224.75924136916257L676.5982928954145,225.1844183551354L682.2271731525614,225.6064293892697L687.8560534097082,226.02419387725539L693.4849336668551,226.43351041418725L699.113813924002,226.84891072446922L704.7426941811489,227.25331871731169L710.3715744382957,227.66082411000372L716.0004546954426,228.0629903786015L721.6293349525895,228.46349340935666L727.2582152097365,228.86503304318074L732.8870954668834,229.26277912096L738.5159757240302,229.6531996038906L744.1448559811771,230.04487729911378L749.773736238324,230.42284552970492L755.4026164954709,230.79603680376567L761.0314967526177,231.1768607450378L766.6603770097646,231.55395678196126L772.2892572669116,231.9319886159693L777.9181375240584,232.30704373552507L783.5470177812053,232.67746847300526L789.1758980383523,233.0387989506865L794.8047782954991,233.4014130914611L800.4336585526461,233.7600230056013L806.0625388097928,234.1158650472028L811.6914190669398,234.46034068769038L817.3202993240866,234.8034342580093L822.9491795812336,235.1481697558606L828.5780598383805,235.4966242496081L834.2069400955273,235.83712370669514L839.8358203526742,236.1782003644482L845.4647006098211,236.51734322602024L851.093580866968,236.85291401652174L856.7224611241148,237.18263181789752L862.3513413812617,237.50983793388076L867.9802216384087,237.83639421328868L873.6091018955555,238.15744578472192L879.2379821527024,238.47961583653952L884.8668624098492,238.79111602232402L890.4957426669962,239.10131840176825L896.124622924143,239.41725672086005L901.75350318129,239.73396795497436L907.3823834384369,240.04684182195473L913.0112636955837,240.35596862713984L918.6401439527307,240.66555327576634L924.2690242098774,240.96994553124773L929.8979044670244,241.2746429426798L935.5267847241712,241.5772739066177L941.1556649813182,241.87654926191678L946.7845452384652,242.16667325641959L952.4134254956119,242.4548642597057L958.0423057527589,242.7469212626397L963.6711860099057,243.0386219510387L969.3000662670527,243.32075249050953L974.9289465241994,243.60922547333L980.5578267813464,243.89850278574102L986.1867070384934,244.18790347725493L991.8155872956402,244.47617133534408L997.4444675527872,244.7607586407945L1003.0733478099339,245.03918562652876L1008.7022280670809,245.3150028478632L1014.3311083242277,245.58653795433406L1019.9599885813747,245.8600933180287L1025.5888688385216,246.13163919736843L1031.2177490956683,246.40237159773756L1036.8466293528154,246.67050699801L1042.475509609962,246.93664896076612L1048.1043898671091,247.19818912542019L1053.7332701242558,247.46322903140282L1059.362150381403,247.72551918563192L1064.9910306385498,247.988352653897L1070.6199108956966,248.24825208463938L1076.2487911528435,248.50672348152904L1081.8776714099904,248.7637543406794L1087.5065516671373,249.01754112563796L1093.1354319242841,249.27123681132542L1098.764312181431,249.52467414714027L1104.393192438578,249.77426777254993L1110.0220726957248,250.02438283972734L1115.6509529528716,250.27297554636974L1121.2798332100185,250.52110110547324L1126.9087134671654,250.76744045072843L1132.5375937243123,251.01015739615073L1138.1664739814591,251.25346359857585L1143.7953542386063,251.4976668230896L1149.424234495753,251.73993562835335L1155.0531147529,251.97835462000307L1160.6819950100466,252.2160824430539L1166.3108752671938,252.45213480345976L1171.9397555243404,252.68772006169837L1177.5686357814875,252.9206885852993L1183.1975160386344,253.15143158075875L1188.8263962957813,253.3810527140288L1194.4552765529281,253.60764504587277L1200.084156810075,253.82803146984713L1205.7130370672219,254.04812104511237L1211.3419173243688,254.2711681233193L1216.9707975815156,254.49029246210372L1222.5996778386627,254.70822202768215L1228.2285580958094,254.92408352684424L1233.8574383529565,255.13320286851635L1239.4863186101031,255.34812580243909L1245.1151988672502,255.5619085831145L1250.7440791243969,255.7722581917968L1256.372959381544,255.98213649608533L1262.0018396386909,256.19138999171L1267.6307198958377,256.3994953299695L1273.2596001529846,256.60519539458903L1278.8884804101315,256.8091619246357L1284.5173606672784,257.0110499403189L1290.1462409244252,257.21347102923653L1295.775121181572,257.4146525624851L1301.404001438719,257.6148477552267L1307.0328816958659,257.81196464063146L1312.6617619530127,258.00575224678613L1318.2906422101596,258.2007259286754L1323.9195224673065,258.3939561763961L1329.5484027244534,258.58525766488424L1335.1772829816002,258.7757259648699L1340.8061632387473,258.9645094192683L1346.435043495894,259.1515866218135L1352.063923753041,259.3373066451902L1357.6928040101877,259.5213269663412L1363.3216842673348,259.70428667153044L1368.9505645244815,259.8858301836427L1374.5794447816286,260.0660292859972L1380.2083250387752,260.2450542392895L1385.8372052959223,260.4226999907352L1391.4660855530692,260.5991174521021L1397.094965810216,260.77429945293824L1402.723846067363,260.9480767557345L1408.3527263245098,261.12046162831376L1413.9816065816567,261.2913428602454L1419.6104868388036,261.46085063460856L1425.2393670959505,261.6290019924055L1430.8682473530976,261.795834865305" style="fill: none;" fill="none"></path></g></g></g></g><g opacity="0.2"><g><g><g><path stroke="rgb(255, 112, 67)" stroke-width="2px" d="M18.019302809228552,131.5914602150599L23.64818306637544,136.4776946240061L29.277063323522327,139.02112460715242L34.905943580669216,142.8751741576312L40.5348238378161,147.34545554446726L46.163704094962995,153.3863444746095L51.79258435210988,156.2826202357646L57.421464609256766,152.229401448957L63.05034486640365,162.3954930333544L68.67922512355054,162.93883947020552L74.30810538069743,169.05067203849694L79.93698563784432,171.10824559068232L85.5658658949912,161.9589434711364L91.1947461521381,173.4789975102985L96.82362640928497,178.4537901068463L102.45250666643187,176.91002047943817L108.08138692357876,173.33426694058463L113.71026718072564,182.17926731604595L119.33914743787254,180.67350073233843L124.96802769501942,185.06056377530444L130.5969079521663,187.3115506283677L136.22578820931318,188.2046915039524L141.85466846646008,191.17759749008775L147.483548723607,192.21637046744488L153.11242898075386,190.79090958557185L158.74130923790074,196.3674401569196L164.37018949504764,196.51834275380386L169.99906975219452,197.10267422501093L175.6279500093414,197.18124621134822L181.2568302664883,201.32510364435416L186.8857105236352,202.56471022491755L192.51459078078207,203.07171798494542L198.14347103792895,203.9634718881322L203.77235129507585,206.701216704215L209.40123155222273,208.85088522361656L215.0301118093696,210.22142199853536L220.65899206651648,208.77376955829703L226.2878723236634,213.38683975349L231.91675258081028,213.1630517570996L237.54563283795716,214.58240996042213L243.1745130951041,214.99961125769033L248.80339335225096,215.2061314477277L254.43227360939784,216.10384933222514L260.0611538665447,215.2758961593387L265.69003412369165,221.49979609737503L271.3189143808385,220.94882131233584L276.9477946379854,220.7389723885437L282.57667489513227,222.3528534706623L288.20555515227915,223.8695771363127L293.834435409426,225.44115556029737L299.4633156665729,226.2055853973631L305.0921959237198,225.76577645001024L310.7210761808667,228.71309279540557L316.3499564380136,229.30768786235666L321.9788366951605,228.6657276880196L327.6077169523074,225.19267945522557L333.23659720945426,222.91041637459116L338.86547746660113,228.70525640135784L344.49435772374807,231.79952247230364L350.12323798089494,230.6859916827033L355.7521182380418,233.5177732273592L361.3809984951887,234.51833511515602L367.0098787523356,237.46911889154597L372.6387590094825,238.48167809058404L378.2676392666294,237.9533109556295L383.89651952377625,237.78354553413473L389.5253997809231,240.79833808668465L395.15428003807006,241.1120018944546L400.78316029521693,241.23988074953482L406.4120405523638,242.83254115396662L412.0409208095107,243.44280900901316L417.66980106665756,241.68461344890005L423.29868132380443,243.76479465117015L428.9275615809513,244.8355373422973L434.5564418380983,246.13617070836534L440.18532209524517,246.35434146654444L445.81420235239204,247.35504205158102L451.4430826095389,247.75670925799355L457.0719628666858,247.6854882253648L462.7008431238327,248.1809147658708L468.3297233809796,248.94583004327575L473.9586036381265,247.0796586819913L479.58748389527335,250.7960512219851L485.2163641524202,251.4263608281804L490.8452444095672,250.37565988820188L496.4741246667141,249.0505464593122L502.10300492386096,253.0516844325811L507.73188518100784,252.9531400437151L513.3607654381547,252.41319168923866L518.9896456953015,254.51688207365206L524.6185259524484,254.6596015333891L530.2474062095954,249.97121873699376L535.8762864667423,251.6773334835683L541.5051667238891,249.57073045711945L547.134046981036,254.77881181098283L552.7629272381829,258.17550721327615L558.3918074953298,256.83347272113275L564.0206877524766,259.4698992035539L569.6495680096236,259.7647695353332L575.2784482667705,259.75214808651293L580.9073285239174,260.82788387827225L586.5362087810643,261.2793433937669L592.1650890382111,259.5049202565992L597.793969295358,263.56243865784006L603.4228495525049,262.63469282092944L609.0517298096519,263.94794763581774L614.6806100667987,265.6776409131554L620.3094903239456,265.60551834846814L625.9383705810925,266.3093374917485L631.5672508382394,266.4603787858726L637.1961310953862,267.1753630569556L642.8250113525331,268.38161295135103L648.4538916096801,268.2551210686686L654.082771866827,268.97267123868755L659.7116521239739,269.4305108272123L665.3405323811207,269.8138006493535L670.9694126382676,270.7800349703039L676.5982928954145,272.10542579367325L682.2271731525614,272.5530711350739L687.8560534097082,272.8693008417798L693.4849336668551,272.6943342737932L699.113813924002,274.165357198935L704.7426941811489,273.6756172452601L710.3715744382957,274.79899553888504L716.0004546954426,274.9388023565866L721.6293349525895,275.49886181083167L727.2582152097365,276.3761218524611L732.8870954668834,276.6752917986737L738.5159757240302,276.53597042131133L744.1448559811771,277.42286992110576L749.773736238324,276.47438884684755L755.4026164954709,276.59290563824237L761.0314967526177,278.2440962778627L766.6603770097646,278.4905612729577L772.2892572669116,279.3156711524286L777.9181375240584,279.6452851427736L783.5470177812053,279.75457856772283L789.1758980383523,279.27517155841184L794.8047782954991,280.11789598733526L800.4336585526461,280.2726821069334L806.0625388097928,280.5788562637551L811.6914190669398,279.7383509906682L817.3202993240866,280.197438854351L822.9491795812336,281.05819392444624L828.5780598383805,282.2036250791967L834.2069400955273,281.7723460120905L839.8358203526742,282.4860126593955L845.4647006098211,282.8553634089385L851.093580866968,282.9922575846046L856.7224611241148,282.801271485423L862.3513413812617,283.0625770851747L867.9802216384087,283.5794323492272L873.6091018955555,283.4051592674395L879.2379821527024,284.16140596735806L884.8668624098492,283.2270026629379L890.4957426669962,283.61771278740747L896.124622924143,285.02708478946556L901.75350318129,285.72604952935353L907.3823834384369,285.74879587667806L913.0112636955837,285.7742468201783L918.6401439527307,286.4148893707374L924.2690242098774,286.2110737768758L929.8979044670244,286.82023205400407L935.5267847241712,287.07106601215224L941.1556649813182,287.11988744055594L946.7845452384652,286.27251665409983L952.4134254956119,286.51093720928736L958.0423057527589,287.6411116676617L963.6711860099057,288.12461024554625L969.3000662670527,287.1657962269242L974.9289465241994,288.6832827273934L980.5578267813464,289.34202526774425L986.1867070384934,289.89445637380123L991.8155872956402,290.2462619225116L997.4444675527872,290.1855818801064L1003.0733478099339,289.71442735656245L1008.7022280670809,289.8027774983044L1014.3311083242277,289.6110979129239L1019.9599885813747,290.44113154440714L1025.5888688385216,290.61221458967987L1031.2177490956683,290.9758094037718L1036.8466293528154,291.0400955744114L1042.475509609962,291.19821042776437L1048.1043898671091,290.9122167193311L1053.7332701242558,291.98268201597875L1059.362150381403,292.00105940025L1064.9910306385498,292.5738096519352L1070.6199108956966,292.55154874495L1076.2487911528435,292.78074593369195L1081.8776714099904,293.00377109526346L1087.5065516671373,292.9090408804915L1093.1354319242841,293.35654752465234L1098.764312181431,293.77423426225977L1104.393192438578,293.5584907057768L1110.0220726957248,294.10606740844133L1115.6509529528716,294.29088148045264L1121.2798332100185,294.6602322299956L1126.9087134671654,294.79109307573117L1132.5375937243123,294.58554376637227L1138.1664739814591,295.1340220010954L1143.7953542386063,295.73992089308877L1149.424234495753,295.82986605308827L1155.0531147529,295.562457774786L1160.6819950100466,295.86786909678887L1166.3108752671938,295.98874374126007L1171.9397555243404,296.3300776483668L1177.5686357814875,296.26787193632396L1183.1975160386344,296.2721022021373L1188.8263962957813,296.47855304355477L1194.4552765529281,296.3205075388217L1200.084156810075,295.54969762872594L1205.7130370672219,295.8917943706515L1211.3419173243688,296.8575432512627L1216.9707975815156,296.50476682187383L1222.5996778386627,296.6695391427364L1228.2285580958094,296.6612866569693L1233.8574383529565,295.735274535556L1239.4863186101031,297.2499870912296L1245.1151988672502,297.41337243969434L1250.7440791243969,297.12058256651176L1256.372959381544,297.40622953184544L1262.0018396386909,297.65990678340916L1267.6307198958377,297.80713390343914L1273.2596001529846,297.69881135916836L1278.8884804101315,297.7194772478961L1284.5173606672784,297.6656627188602L1290.1462409244252,298.136886591024L1295.775121181572,298.2477750342307L1301.404001438719,298.4071381627417L1307.0328816958659,298.13376590312885L1312.6617619530127,297.8004764359295L1318.2906422101596,298.3937538791027L1323.9195224673065,298.38078568718294L1329.5484027244534,298.3244746078309L1335.1772829816002,298.49257566244825L1340.8061632387473,298.47926072742905L1346.435043495894,298.45693047182397L1352.063923753041,298.5040181847304L1357.6928040101877,298.47461436989636L1363.3216842673348,298.5771116300962L1368.9505645244815,298.6005514636196L1374.5794447816286,298.63564186528475L1380.2083250387752,298.7038809072581L1385.8372052959223,298.7245467959859L1391.4660855530692,298.77433910506807L1397.094965810216,298.81927701075784L1402.723846067363,298.82385401967076L1408.3527263245098,298.8273907992852L1413.9816065816567,298.8027026906038L1419.6104868388036,298.80284138784356L1425.2393670959505,298.8031187823231L1430.8682473530976,298.8082505801951" style="fill: none;" fill="none"></path></g></g></g></g></g></g><g transform="translate(53, 376)" clip-path="url(#clip_1)"><clipPath id="clip_1"><rect width="1531" height="24"></rect></clipPath><g><g><line x1="12.390422552081665" y1="0" x2="12.390422552081665" y2="5" style="visibility: inherit;" fill="rgb(0, 0, 0)" stroke="rgb(204, 204, 204)" stroke-width="1px"></line><line x1="124.96802769501942" y1="0" x2="124.96802769501942" y2="5" style="visibility: inherit;" fill="rgb(0, 0, 0)" stroke="rgb(204, 204, 204)" stroke-width="1px"></line><line x1="237.54563283795716" y1="0" x2="237.54563283795716" y2="5" style="visibility: inherit;" fill="rgb(0, 0, 0)" stroke="rgb(204, 204, 204)" stroke-width="1px"></line><line x1="350.12323798089494" y1="0" x2="350.12323798089494" y2="5" style="visibility: inherit;" fill="rgb(0, 0, 0)" stroke="rgb(204, 204, 204)" stroke-width="1px"></line><line x1="462.7008431238327" y1="0" x2="462.7008431238327" y2="5" style="visibility: inherit;" fill="rgb(0, 0, 0)" stroke="rgb(204, 204, 204)" stroke-width="1px"></line><line x1="575.2784482667705" y1="0" x2="575.2784482667705" y2="5" style="visibility: inherit;" fill="rgb(0, 0, 0)" stroke="rgb(204, 204, 204)" stroke-width="1px"></line><line x1="687.8560534097082" y1="0" x2="687.8560534097082" y2="5" style="visibility: inherit;" fill="rgb(0, 0, 0)" stroke="rgb(204, 204, 204)" stroke-width="1px"></line><line x1="800.4336585526461" y1="0" x2="800.4336585526461" y2="5" style="visibility: inherit;" fill="rgb(0, 0, 0)" stroke="rgb(204, 204, 204)" stroke-width="1px"></line><line x1="913.0112636955837" y1="0" x2="913.0112636955837" y2="5" style="visibility: inherit;" fill="rgb(0, 0, 0)" stroke="rgb(204, 204, 204)" stroke-width="1px"></line><line x1="1025.5888688385216" y1="0" x2="1025.5888688385216" y2="5" style="visibility: inherit;" fill="rgb(0, 0, 0)" stroke="rgb(204, 204, 204)" stroke-width="1px"></line><line x1="1138.1664739814591" y1="0" x2="1138.1664739814591" y2="5" style="visibility: inherit;" fill="rgb(0, 0, 0)" stroke="rgb(204, 204, 204)" stroke-width="1px"></line><line x1="1250.7440791243969" y1="0" x2="1250.7440791243969" y2="5" style="visibility: inherit;" fill="rgb(0, 0, 0)" stroke="rgb(204, 204, 204)" stroke-width="1px"></line><line x1="1363.3216842673348" y1="0" x2="1363.3216842673348" y2="5" style="visibility: inherit;" fill="rgb(0, 0, 0)" stroke="rgb(204, 204, 204)" stroke-width="1px"></line><line x1="1475.8992894102726" y1="0" x2="1475.8992894102726" y2="5" style="visibility: inherit;" fill="rgb(0, 0, 0)" stroke="rgb(204, 204, 204)" stroke-width="1px"></line></g><g transform="translate(0, 8)"><text x="12.390422552081665" y="0" dx="0em" dy="0.95em" style="text-anchor: middle; visibility: inherit; font-family: Roboto, sans-serif; font-size: 12px; font-weight: 200;" fill="rgb(33, 33, 33)" stroke="none" stroke-width="1px">0</text><text x="124.96802769501942" y="0" dx="0em" dy="0.95em" style="text-anchor: middle; visibility: inherit; font-family: Roboto, sans-serif; font-size: 12px; font-weight: 200;" fill="rgb(33, 33, 33)" stroke="none" stroke-width="1px">2k</text><text x="237.54563283795716" y="0" dx="0em" dy="0.95em" style="text-anchor: middle; visibility: inherit; font-family: Roboto, sans-serif; font-size: 12px; font-weight: 200;" fill="rgb(33, 33, 33)" stroke="none" stroke-width="1px">4k</text><text x="350.12323798089494" y="0" dx="0em" dy="0.95em" style="text-anchor: middle; visibility: inherit; font-family: Roboto, sans-serif; font-size: 12px; font-weight: 200;" fill="rgb(33, 33, 33)" stroke="none" stroke-width="1px">6k</text><text x="462.7008431238327" y="0" dx="0em" dy="0.95em" style="text-anchor: middle; visibility: inherit; font-family: Roboto, sans-serif; font-size: 12px; font-weight: 200;" fill="rgb(33, 33, 33)" stroke="none" stroke-width="1px">8k</text><text x="575.2784482667705" y="0" dx="0em" dy="0.95em" style="text-anchor: middle; visibility: inherit; font-family: Roboto, sans-serif; font-size: 12px; font-weight: 200;" fill="rgb(33, 33, 33)" stroke="none" stroke-width="1px">10k</text><text x="687.8560534097082" y="0" dx="0em" dy="0.95em" style="text-anchor: middle; visibility: inherit; font-family: Roboto, sans-serif; font-size: 12px; font-weight: 200;" fill="rgb(33, 33, 33)" stroke="none" stroke-width="1px">12k</text><text x="800.4336585526461" y="0" dx="0em" dy="0.95em" style="text-anchor: middle; visibility: inherit; font-family: Roboto, sans-serif; font-size: 12px; font-weight: 200;" fill="rgb(33, 33, 33)" stroke="none" stroke-width="1px">14k</text><text x="913.0112636955837" y="0" dx="0em" dy="0.95em" style="text-anchor: middle; visibility: inherit; font-family: Roboto, sans-serif; font-size: 12px; font-weight: 200;" fill="rgb(33, 33, 33)" stroke="none" stroke-width="1px">16k</text><text x="1025.5888688385216" y="0" dx="0em" dy="0.95em" style="text-anchor: middle; visibility: inherit; font-family: Roboto, sans-serif; font-size: 12px; font-weight: 200;" fill="rgb(33, 33, 33)" stroke="none" stroke-width="1px">18k</text><text x="1138.1664739814591" y="0" dx="0em" dy="0.95em" style="text-anchor: middle; visibility: inherit; font-family: Roboto, sans-serif; font-size: 12px; font-weight: 200;" fill="rgb(33, 33, 33)" stroke="none" stroke-width="1px">20k</text><text x="1250.7440791243969" y="0" dx="0em" dy="0.95em" style="text-anchor: middle; visibility: inherit; font-family: Roboto, sans-serif; font-size: 12px; font-weight: 200;" fill="rgb(33, 33, 33)" stroke="none" stroke-width="1px">22k</text><text x="1363.3216842673348" y="0" dx="0em" dy="0.95em" style="text-anchor: middle; visibility: inherit; font-family: Roboto, sans-serif; font-size: 12px; font-weight: 200;" fill="rgb(33, 33, 33)" stroke="none" stroke-width="1px">24k</text><text x="1475.8992894102726" y="0" dx="0em" dy="0.95em" style="text-anchor: middle; visibility: inherit; font-family: Roboto, sans-serif; font-size: 12px; font-weight: 200;" fill="rgb(33, 33, 33)" stroke="none" stroke-width="1px">26k</text></g><line x1="0" y1="0" x2="1531.4125" y2="0" fill="rgb(0, 0, 0)" stroke="rgb(204, 204, 204)" stroke-width="1px"></line></g></g></g></g></svg>