<svg viewBox="0 0 977 400" xmlns="http://www.w3.org/2000/svg"><g><g><g><g><g><line x1="42.390625" y1="372.5644581961028" x2="37.390625" y2="372.5644581961028" style="visibility: inherit;" fill="rgb(0, 0, 0)" stroke="rgb(204, 204, 204)" stroke-width="1px"></line><line x1="42.390625" y1="336.95259662407614" x2="37.390625" y2="336.95259662407614" style="visibility: inherit;" fill="rgb(0, 0, 0)" stroke="rgb(204, 204, 204)" stroke-width="1px"></line><line x1="42.390625" y1="301.34073505204935" x2="37.390625" y2="301.34073505204935" style="visibility: inherit;" fill="rgb(0, 0, 0)" stroke="rgb(204, 204, 204)" stroke-width="1px"></line><line x1="42.390625" y1="265.7288734800226" x2="37.390625" y2="265.7288734800226" style="visibility: inherit;" fill="rgb(0, 0, 0)" stroke="rgb(204, 204, 204)" stroke-width="1px"></line><line x1="42.390625" y1="230.11701190799593" x2="37.390625" y2="230.11701190799593" style="visibility: inherit;" fill="rgb(0, 0, 0)" stroke="rgb(204, 204, 204)" stroke-width="1px"></line><line x1="42.390625" y1="194.50515033596918" x2="37.390625" y2="194.50515033596918" style="visibility: inherit;" fill="rgb(0, 0, 0)" stroke="rgb(204, 204, 204)" stroke-width="1px"></line><line x1="42.390625" y1="158.8932887639425" x2="37.390625" y2="158.8932887639425" style="visibility: inherit;" fill="rgb(0, 0, 0)" stroke="rgb(204, 204, 204)" stroke-width="1px"></line><line x1="42.390625" y1="123.28142719191577" x2="37.390625" y2="123.28142719191577" style="visibility: inherit;" fill="rgb(0, 0, 0)" stroke="rgb(204, 204, 204)" stroke-width="1px"></line><line x1="42.390625" y1="87.66956561988901" x2="37.390625" y2="87.66956561988901" style="visibility: inherit;" fill="rgb(0, 0, 0)" stroke="rgb(204, 204, 204)" stroke-width="1px"></line><line x1="42.390625" y1="52.057704047862345" x2="37.390625" y2="52.057704047862345" style="visibility: inherit;" fill="rgb(0, 0, 0)" stroke="rgb(204, 204, 204)" stroke-width="1px"></line><line x1="42.390625" y1="16.445842475835587" x2="37.390625" y2="16.445842475835587" style="visibility: inherit;" fill="rgb(0, 0, 0)" stroke="rgb(204, 204, 204)" stroke-width="1px"></line></g><g transform="translate(32.390625, 0)"><text x="0" y="372.5644581961028" dx="0em" dy="0.3em" style="text-anchor: end; visibility: hidden; font-family: Roboto, sans-serif; font-size: 12px; font-weight: 200;" fill="rgb(33, 33, 33)" stroke="none" stroke-width="1px">0</text><text x="0" y="336.95259662407614" dx="0em" dy="0.3em" style="text-anchor: end; visibility: inherit; font-family: Roboto, sans-serif; font-size: 12px; font-weight: 200;" fill="rgb(33, 33, 33)" stroke="none" stroke-width="1px">0.1</text><text x="0" y="301.34073505204935" dx="0em" dy="0.3em" style="text-anchor: end; visibility: inherit; font-family: Roboto, sans-serif; font-size: 12px; font-weight: 200;" fill="rgb(33, 33, 33)" stroke="none" stroke-width="1px">0.2</text><text x="0" y="265.7288734800226" dx="0em" dy="0.3em" style="text-anchor: end; visibility: inherit; font-family: Roboto, sans-serif; font-size: 12px; font-weight: 200;" fill="rgb(33, 33, 33)" stroke="none" stroke-width="1px">0.3</text><text x="0" y="230.11701190799593" dx="0em" dy="0.3em" style="text-anchor: end; visibility: inherit; font-family: Roboto, sans-serif; font-size: 12px; font-weight: 200;" fill="rgb(33, 33, 33)" stroke="none" stroke-width="1px">0.4</text><text x="0" y="194.50515033596918" dx="0em" dy="0.3em" style="text-anchor: end; visibility: inherit; font-family: Roboto, sans-serif; font-size: 12px; font-weight: 200;" fill="rgb(33, 33, 33)" stroke="none" stroke-width="1px">0.5</text><text x="0" y="158.8932887639425" dx="0em" dy="0.3em" style="text-anchor: end; visibility: inherit; font-family: Roboto, sans-serif; font-size: 12px; font-weight: 200;" fill="rgb(33, 33, 33)" stroke="none" stroke-width="1px">0.6</text><text x="0" y="123.28142719191577" dx="0em" dy="0.3em" style="text-anchor: end; visibility: inherit; font-family: Roboto, sans-serif; font-size: 12px; font-weight: 200;" fill="rgb(33, 33, 33)" stroke="none" stroke-width="1px">0.7</text><text x="0" y="87.66956561988901" dx="0em" dy="0.3em" style="text-anchor: end; visibility: inherit; font-family: Roboto, sans-serif; font-size: 12px; font-weight: 200;" fill="rgb(33, 33, 33)" stroke="none" stroke-width="1px">0.8</text><text x="0" y="52.057704047862345" dx="0em" dy="0.3em" style="text-anchor: end; visibility: inherit; font-family: Roboto, sans-serif; font-size: 12px; font-weight: 200;" fill="rgb(33, 33, 33)" stroke="none" stroke-width="1px">0.9</text><text x="0" y="16.445842475835587" dx="0em" dy="0.3em" style="text-anchor: end; visibility: inherit; font-family: Roboto, sans-serif; font-size: 12px; font-weight: 200;" fill="rgb(33, 33, 33)" stroke="none" stroke-width="1px">1</text></g><line x1="42.390625" y1="0" x2="42.390625" y2="376" fill="rgb(0, 0, 0)" stroke="rgb(204, 204, 204)" stroke-width="1px"></line></g></g><g transform="translate(42, 0)" clip-path="url(#clip_0)"><clipPath id="clip_0"><rect width="934" height="376"></rect></clipPath><g><g><g><line x1="21.381003825050918" y1="0" x2="21.381003825050918" y2="376" fill="rgb(0, 0, 0)" stroke="rgb(66, 66, 66)" stroke-width="1px" opacity="0.25"></line><line x1="91.87616877233116" y1="0" x2="91.87616877233116" y2="376" fill="rgb(0, 0, 0)" stroke="rgb(66, 66, 66)" stroke-width="1px" opacity="0.25"></line><line x1="162.37133371961139" y1="0" x2="162.37133371961139" y2="376" fill="rgb(0, 0, 0)" stroke="rgb(66, 66, 66)" stroke-width="1px" opacity="0.25"></line><line x1="232.86649866689163" y1="0" x2="232.86649866689163" y2="376" fill="rgb(0, 0, 0)" stroke="rgb(66, 66, 66)" stroke-width="1px" opacity="0.25"></line><line x1="303.36166361417196" y1="0" x2="303.36166361417196" y2="376" fill="rgb(0, 0, 0)" stroke="rgb(66, 66, 66)" stroke-width="1px" opacity="0.25"></line><line x1="373.8568285614521" y1="0" x2="373.8568285614521" y2="376" fill="rgb(0, 0, 0)" stroke="rgb(66, 66, 66)" stroke-width="1px" opacity="0.25"></line><line x1="444.3519935087324" y1="0" x2="444.3519935087324" y2="376" fill="rgb(0, 0, 0)" stroke="rgb(66, 66, 66)" stroke-width="1px" opacity="0.25"></line><line x1="514.8471584560126" y1="0" x2="514.8471584560126" y2="376" fill="rgb(0, 0, 0)" stroke="rgb(66, 66, 66)" stroke-width="1px" opacity="0.25"></line><line x1="585.3423234032929" y1="0" x2="585.3423234032929" y2="376" fill="rgb(0, 0, 0)" stroke="rgb(66, 66, 66)" stroke-width="1px" opacity="0.25"></line><line x1="655.8374883505732" y1="0" x2="655.8374883505732" y2="376" fill="rgb(0, 0, 0)" stroke="rgb(66, 66, 66)" stroke-width="1px" opacity="0.25"></line><line x1="726.3326532978534" y1="0" x2="726.3326532978534" y2="376" fill="rgb(0, 0, 0)" stroke="rgb(66, 66, 66)" stroke-width="1px" opacity="0.25"></line><line x1="796.8278182451336" y1="0" x2="796.8278182451336" y2="376" fill="rgb(0, 0, 0)" stroke="rgb(66, 66, 66)" stroke-width="1px" opacity="0.25"></line><line x1="867.3229831924139" y1="0" x2="867.3229831924139" y2="376" fill="rgb(0, 0, 0)" stroke="rgb(66, 66, 66)" stroke-width="1px" opacity="0.25"></line></g><g><line x1="0" y1="372.5644581961028" x2="934.609375" y2="372.5644581961028" fill="rgb(0, 0, 0)" stroke="rgb(66, 66, 66)" stroke-width="1px" opacity="0.25"></line><line x1="0" y1="336.95259662407614" x2="934.609375" y2="336.95259662407614" fill="rgb(0, 0, 0)" stroke="rgb(66, 66, 66)" stroke-width="1px" opacity="0.25"></line><line x1="0" y1="301.34073505204935" x2="934.609375" y2="301.34073505204935" fill="rgb(0, 0, 0)" stroke="rgb(66, 66, 66)" stroke-width="1px" opacity="0.25"></line><line x1="0" y1="265.7288734800226" x2="934.609375" y2="265.7288734800226" fill="rgb(0, 0, 0)" stroke="rgb(66, 66, 66)" stroke-width="1px" opacity="0.25"></line><line x1="0" y1="230.11701190799593" x2="934.609375" y2="230.11701190799593" fill="rgb(0, 0, 0)" stroke="rgb(66, 66, 66)" stroke-width="1px" opacity="0.25"></line><line x1="0" y1="194.50515033596918" x2="934.609375" y2="194.50515033596918" fill="rgb(0, 0, 0)" stroke="rgb(66, 66, 66)" stroke-width="1px" opacity="0.25"></line><line x1="0" y1="158.8932887639425" x2="934.609375" y2="158.8932887639425" fill="rgb(0, 0, 0)" stroke="rgb(66, 66, 66)" stroke-width="1px" opacity="0.25"></line><line x1="0" y1="123.28142719191577" x2="934.609375" y2="123.28142719191577" fill="rgb(0, 0, 0)" stroke="rgb(66, 66, 66)" stroke-width="1px" opacity="0.25"></line><line x1="0" y1="87.66956561988901" x2="934.609375" y2="87.66956561988901" fill="rgb(0, 0, 0)" stroke="rgb(66, 66, 66)" stroke-width="1px" opacity="0.25"></line><line x1="0" y1="52.057704047862345" x2="934.609375" y2="52.057704047862345" fill="rgb(0, 0, 0)" stroke="rgb(66, 66, 66)" stroke-width="1px" opacity="0.25"></line><line x1="0" y1="16.445842475835587" x2="934.609375" y2="16.445842475835587" fill="rgb(0, 0, 0)" stroke="rgb(66, 66, 66)" stroke-width="1px" opacity="0.25"></line></g></g></g><g><g><line x1="0" y1="372.5644581961028" x2="934.609375" y2="372.5644581961028" fill="rgb(0, 0, 0)" stroke="rgb(153, 153, 153)" stroke-width="1.5px"></line></g></g><g><g><line x1="21.381003825050918" y1="0" x2="21.381003825050918" y2="376" fill="rgb(0, 0, 0)" stroke="rgb(153, 153, 153)" stroke-width="1.5px"></line></g></g><g><g><g><g><g><path stroke="rgb(255, 112, 67)" stroke-width="2px" d="M24.90576207241493,194.2914861627333L28.430520319778942,217.75362439213563L31.95527856714295,220.86886669324076L35.48003681450697,226.08218087212308L39.00479506187098,230.36630199318785L42.52955330923499,231.81814049788866L46.054311556599,233.16643108396508L49.579069803963016,235.4641691648807L53.10382805132703,235.40000606130226L56.62858629869104,236.46477451618483L60.15334454605505,238.97579231861752L63.678102793419065,239.89857102135292L67.20286104078308,240.31009799477474L70.72761928814708,241.930173622565L74.2523775355111,242.42334582083942L77.7771357828751,243.92229174195606L81.30189403023913,244.4361353210869L84.82665227760313,246.0002791319208L88.35141052496715,247.13310780761415L91.87616877233116,247.45878919679254L95.40092701969517,248.4060380278046L98.92568526705918,249.07578366061963L102.4504435144232,250.0520365635628L105.9752017617872,251.18858646271065L109.49996000915122,250.90213052245656L113.02471825651523,251.77773063849838L116.54947650387925,252.10476901394836L120.07423475124324,252.97823069086093L123.59899299860727,253.5249613185473L127.12375124597126,254.26647851284906L130.6485094933353,254.420251325504L134.1732677406993,255.43354805455755L137.6980259880633,255.90625211891034L141.22278423542733,255.49718554721338L144.74754248279135,255.78417017956636L148.27230073015534,256.4568576522119L151.79705897751936,256.91385499957084L155.32181722488338,257.34966090182076L158.8465754722474,258.0767239445024L162.37133371961139,258.72022486583353L165.8960919669754,259.0558759972007L169.42085021433942,259.2716926332337L172.94560846170344,259.50960657040673L176.47036670906743,259.810297914677L179.99512495643145,260.24565514755346L183.51988320379547,260.3224301445964L187.0446414511595,260.7874468000425L190.56939969852348,261.11612267848983L194.09415794588753,261.4633881856745L197.61891619325152,261.82960295416245L201.14367444061554,261.8535804032872L204.66843268797953,262.4561660162846L208.19319093534358,262.6995074711429L211.71794918270757,262.9812322794192L215.2427074300716,263.0638120728919L218.76746567743558,263.3199085977219L222.29222392479963,263.49763426478296L225.81698217216362,263.6869164751964L229.34174041952764,263.9027079814266L232.86649866689163,263.8136410526635L236.39125691425568,264.03666424233927L239.9160151616197,264.40228908663437L243.44077340898366,264.80235838624503L246.96553165634768,265.01193407919584L250.49028990371173,265.4164125744216L254.01504815107575,265.9100595044627L257.53980639843974,265.86057798117133L261.0645646458037,265.9127205419181L264.5893228931678,266.1726267483308L268.1140811405317,266.3045356838171L271.63883938789576,266.6430606483525L275.1635976352598,266.70317796613773L278.6883558826238,266.81524245163905L282.2131141299878,266.96918922661297L285.73787237735183,267.28356255899826L289.2626306247159,267.7618356189374L292.7873888720799,268.0778281094197L296.31214711944386,268.2457747129511L299.8369053668079,268.3968152204863L303.36166361417196,268.6561162605198L306.8864218615359,268.95979159022755L310.41118010889994,268.9852344772269L313.935938356264,269.2697106553595L317.460696603628,269.2814497137843L320.98545485099197,269.76204831300066L324.51021309835596,270.2686109139619L328.03497134572,270.84639640369164L331.55972959308406,271.35526626379044L335.084487840448,271.80922114755134L338.60924608781204,272.3072583091132L342.1340043351761,272.6089658151698L345.6587625825401,272.95554131603586L349.18352082990407,273.3664040011189L352.70827907726806,273.70940366971297L356.2330373246321,274.10291311129936L359.7577955719961,274.47771904745133L363.2825538193601,274.91024839959965L366.80731206672414,275.2245102646098L370.3320703140882,275.6173863823426L373.8568285614521,275.88831542606346L377.38158680881617,276.17054861035587L380.90634505618016,276.5357069925219L384.4311033035442,276.8544908854532L387.9558615509082,277.31705081903925L391.4806197982722,277.7011560818362L395.00537804563623,278.05571091323674L398.5301362930003,278.40749097383275L402.0548945403642,278.6932935170059L405.57965278772826,278.882506599512L409.10441103509226,279.21452996769347L412.6291692824563,279.40301114806647L416.1539275298203,279.58241214760034L419.6786857771843,279.9408583181804L423.20344402454833,280.16878913637095L426.7282022719124,280.3547430192607L430.2529605192763,280.57778674840813L433.77771876664036,280.7634864364581L437.30247701400435,280.9476340927089L440.8272352613684,281.1861089574107L444.3519935087324,281.23992128879104L447.8767517560964,281.52240628664674L451.40151000346043,281.6669880155643L454.9262682508245,281.82674650400503L458.4510264981884,281.92440656090287L461.97578474555246,282.13198007905L465.50054299291645,282.4132266649658L469.02530124028044,282.6294527892946L472.55005948764455,282.808521730975L476.0748177350085,282.92569419545276L479.59957598237247,283.21625686059315L483.1243342297366,283.4067085457903L486.6490924771005,283.71833370208145L490.1738507244646,283.996969349071L493.69860897182855,284.19963090867253L497.22336721919254,284.28484793489537L500.74812546655664,284.5664408386405L504.2728837139206,284.9006333389596L507.79764196128457,285.03446539838785L511.3224002086487,285.19270069657625L514.8471584560126,285.27810349818634L518.3719167033767,285.33549714830536L521.8966749507407,285.58164838355935L525.4214331981046,285.7212352270771L528.9461914454687,285.8933839263772L532.4709496928327,286.06842834495666L535.9957079401967,286.2130330594631L539.5204661875607,286.3158289804514L543.0452244349248,286.40921214890943L546.5699826822888,286.406199838333L550.0947409296527,286.55629911419965L553.6194991770168,286.75596380706776L557.1442574243808,286.78134500536356L560.6690156717448,287.02768838855627L564.1937739191088,287.1393960865862L567.7185321664729,287.199334843312L571.2432904138368,287.40045073829367L574.7680486612007,287.62521291089183L578.2928069085649,287.72875712563575L581.8175651559288,287.78523176595013L585.3423234032929,287.8590547846785L588.8670816506569,288.040391049976L592.3918398980209,288.14451282007366L595.9165981453849,288.19197626169023L599.441356392749,288.30004527524414L602.9661146401129,288.3330860476681L606.4908728874769,288.3936542978578L610.015631134841,288.5636607689944L613.540389382205,288.6400294669744L617.065147629569,288.88123266477623L620.589905876933,289.1332526875763L624.1146641242971,289.3798269153648L627.639422371661,289.6093357922837L631.164180619025,289.87584442684266L634.6889388663891,290.0280621129494L638.213697113753,290.2776445853247L641.7384553611171,290.4438766789395L645.2632136084811,290.66001051297957L648.7879718558451,290.8951030472304L652.3127301032091,291.08629651302664L655.8374883505732,291.3017223079143L659.3622465979371,291.4599375186338L662.8870048453011,291.6598346801227L666.4117630926652,291.7789987561275L669.9365213400292,292.01292922156904L673.4612795873932,292.2318890626674L676.9860378347572,292.4111569815872L680.5107960821213,292.66822679377316L684.0355543294852,292.8762381479811L687.5603125768492,293.0388426077142L691.0850708242133,293.2213295882116L694.6098290715772,293.39227771704054L698.1345873189413,293.56694130739737L701.6593455663053,293.7375585300719L705.1841038136693,293.9425436272636L708.7088620610333,294.14943812212283L712.2336203083973,294.2688191229942L715.7583785557613,294.42122449075583L719.2831368031253,294.6075563224686L722.8078950504894,294.7821463434028L726.3326532978534,294.90196494012434L729.8574115452174,294.9752343238616L733.3821697925814,295.15384017616407L736.9069280399455,295.2793370767782L740.4316862873094,295.4415991184403L743.9564445346734,295.61725205600584L747.4812027820375,295.75868902470546L751.0059610294014,295.9151266602895L754.5307192767654,295.98399978777564L758.0554775241295,296.11505939504923L761.5802357714934,296.1956300853251L765.1049940188575,296.22116827730196L768.6297522662215,296.3088856709298L772.1545105135855,296.4288035694125L775.6792687609495,296.5773442083002L779.2040270083136,296.7160339310774L782.7287852556775,296.7909517620621L786.2535435030416,296.9177299805571L789.7783017504056,297.0128102187L793.3030599977697,297.16095241744955L796.8278182451336,297.34379246848266L800.3525764924976,297.4644727644088L803.8773347398617,297.6024776419782L807.4020929872256,297.6888425120749L810.9268512345895,297.70986949249885L814.4516094819537,297.90137125465935L817.9763677293176,298.0199024667083L821.5011259766817,298.0872544486695L825.0258842240457,298.1805517839274L828.5506424714097,298.2700741795004L832.0754007187737,298.3738870424366L835.6001589661378,298.50837891591857L839.1249172135017,298.63586107544603L842.6496754608658,298.66222747848553L846.1744337082298,298.8002886118835L849.6991919555938,298.89824695388086L853.2239502029578,298.9742052991422L856.7487084503218,299.0766795587343L860.2734666976859,299.1169442963172L863.7982249450498,299.25197869501346L867.3229831924139,299.31781729570355L870.8477414397779,299.3231036643613L874.3724996871418,299.31377275061624L877.8972579345059,299.3596304442295L881.4220161818699,299.47646303568905L884.9467744292339,299.48258146813464L888.4715326765979,299.6123758824693L891.996290923962,299.7362347204869L895.5210491713259,299.86832739671195L899.04580741869,299.98013606561113L902.570565666054,300.02651528806786L906.095323913418,300.1026705856294L909.620082160782,300.1405056138996L913.144840408146,300.29795091654336L916.6695986555101,300.42463295242993L920.194356902874,300.55964673534623L923.719115150238,300.7178711185314" style="fill: none;" fill="none"></path></g></g></g></g><g opacity="0.2"><g><g><g><path stroke="rgb(255, 112, 67)" stroke-width="2px" d="M24.90576207241493,194.2914861627333L28.430520319778942,241.19230048331295L31.95527856714295,227.09000868378604L35.48003681450697,241.6908643717458L39.00479506187098,247.45998808602752L42.52955330923499,239.05558445882133L46.054311556599,241.22790764113168L49.579069803963016,251.48412757763256L53.10382805132703,234.88900572277967L56.62858629869104,245.99990357854773L60.15334454605505,263.94827785426247L63.678102793419065,249.98843591233407L67.20286104078308,245.216439974918L70.72761928814708,262.84431799077885L74.2523775355111,249.2761972375035L77.7771357828751,266.22744373635254L81.30189403023913,252.58809805427796L84.82665227760313,272.35268148146866L88.35141052496715,267.3314035998362L91.87616877233116,253.58522583114365L95.40092701969517,267.153346584419L98.92568526705918,262.9867572352156L102.4504435144232,271.2843287758038L105.9752017617872,277.017834719105L109.49996000915122,244.11246949827256L113.02471825651523,273.38542702931494L116.54947650387925,260.49392717988957L120.07423475124324,276.23437111547526L123.59899299860727,268.6134310918988L127.12375124597126,275.4509075118455L130.6485094933353,258.9626177436105L134.1732677406993,286.34814119437766L137.6980259880633,270.7857542742092L141.22278423542733,242.22504603115917L144.74754248279135,265.37275520392353L148.27230073015534,279.5818897032302L151.79705897751936,273.06492015629925L155.32181722488338,273.1717522429172L158.8465754722474,285.1729510955139L162.37133371961139,283.32112947963833L165.8960919669754,272.21023162387024L169.42085021433942,267.9368101880488L172.94560846170344,269.29006260891066L176.47036670906743,272.45951356808666L179.99512495643145,278.97648311501763L183.51988320379547,263.69899591004605L187.0446414511595,281.68298795674133L190.56939969852348,276.1987639576565L194.09415794588753,277.7300733939356L197.61891619325152,279.3326077590138L201.14367444061554,263.02237500619606L204.66843268797953,292.40215931727545L208.19319093534358,275.0235685522118L211.71794918270757,277.51639860753784L215.2427074300716,267.40262852863543L218.76746567743558,277.017834719105L222.29222392479963,273.1717522429172L225.81698217216362,274.1688800197829L229.34174041952764,276.05631410005805L232.86649866689163,258.7133357993941L236.39125691425568,277.017834719105L239.9160151616197,286.027634321362L243.44077340898366,288.8409712497036L246.96553165634768,277.80129832273474L250.49028990371173,290.47911807918155L254.01504815107575,296.9604751617129L257.53980639843974,262.70186813318037L261.0645646458037,269.29006260891066L264.5893228931678,283.2499045508391L268.1140811405317,275.0947934810111L271.63883938789576,289.51759746013454L275.1635976352598,270.82137204518966L278.6883558826238,274.59622959257825L282.2131141299878,277.80129832273474L285.73787237735183,289.69565447555175L289.2626306247159,302.30225460978016L292.7873888720799,291.1913567540121L296.31214711944386,280.6858601798757L299.8369053668079,279.7243395608287L303.36166361417196,288.3424073612708L306.8864218615359,292.2953219240766L310.41118010889994,270.96382190278814L313.935938356264,291.6543081780453L317.460696603628,270.2159654569771L320.98545485099197,308.4631048192959L324.51021309835596,311.52572899843483L328.03497134572,318.43443034718075L331.55972959308406,313.7336646451448L335.084487840448,310.03002671997456L338.60924608781204,314.69518526419176L342.1340043351761,298.5630095267912L345.6587625825401,303.0857182134099L349.18352082990407,309.4602379027425L352.70827907726806,304.15407091907485L356.2330373246321,309.3890182805241L359.7577955719961,308.42749766147716L363.2825538193601,314.4815104777941L366.80731206672414,304.26090831227367L370.3320703140882,312.2735748310841L373.8568285614521,301.4119589195324L377.38158680881617,303.0144932846107L380.90634505618016,311.59694862065317L384.4311033035442,307.75087145104624L387.9558615509082,322.5654019254037L391.4806197982722,315.6210934188391L395.00537804563623,313.3775453077295L398.5301362930003,313.7692771095444L402.0548945403642,307.679646522247L405.57965278772826,298.2425026537755L409.10441103509226,313.48437739434746L412.6291692824563,299.0259662574053L416.1539275298203,298.42056497577363L419.6786857771843,317.9002486877674L423.20344402454833,304.5101902564901L426.7282022719124,300.37921337168626L430.2529605192763,304.7950846651061L433.77771876664036,301.0914520465168L437.30247701400435,301.269509061934L440.8272352613684,307.71525898664663L444.3519935087324,287.274049349025L447.8767517560964,313.4487702365288L451.40151000346043,298.1356652605767L454.9262682508245,300.16554389186945L458.4510264981884,293.2212300787239L461.97578474555246,306.3263941013852L465.50054299291645,315.443031096841L469.02530124028044,308.2138228750795L472.55005948764455,304.15407091907485L476.0748177350085,296.9960876261125L479.59957598237247,318.3632054183815L483.1243342297366,306.6112885100012L486.6490924771005,321.96000064377205L490.1738507244646,318.43443034718075L493.69860897182855,309.42462543834284L497.22336721919254,294.96621430140067L500.74812546655664,320.10818433447736L504.2728837139206,327.37300502063846L507.79764196128457,302.1598100587626L511.3224002086487,305.5785482687359L514.8471584560126,296.35507388008125L518.3719167033767,292.829498276909L521.8966749507407,317.93586115216704L525.4214331981046,304.18968338347446L528.9461914454687,308.8192241567112L532.4709496928327,309.53146283154166L535.9957079401967,305.72099281975346L539.5204661875607,300.27238128506826L543.0452244349248,299.1684108084229L546.5699826822888,285.9920218569624L550.0947409296527,307.32352718483173L553.6194991770168,314.5527354065933L557.1442574243808,290.33666822158307L560.6690156717448,321.74633116395523L564.1937739191088,302.9788808202111L567.7185321664729,295.74967259844954L571.2432904138368,316.26210716487043L574.7680486612007,320.0725718700777L578.2928069085649,302.7652113403943L581.8175651559288,296.03456700706556L585.3423234032929,298.70545938438966L588.8670816506569,314.8376298152093L592.3918398980209,303.61989456624235L595.9165981453849,295.2867211744163L599.441356392749,304.5458027208897L602.9661146401129,293.3280674719228L606.4908728874769,297.60148890774417L610.015631134841,314.5527354065933L613.540389382205,300.37921337168626L617.065147629569,326.16220245737514L620.589905876933,328.2989131752858L624.1146641242971,327.90718137347096L627.639422371661,325.6636385689423L631.164180619025,331.9669359827661L634.6889388663891,314.196616069178L638.213697113753,330.1151196734713L641.7384553611171,317.1167903907185L645.2632136084811,325.5211887113438L648.7879718558451,329.0111518501164L652.3127301032091,322.24490035896895L655.8374883505732,326.5895467235896L659.3622465979371,317.5085221925334L662.8870048453011,324.73773041429496L666.4117630926652,311.59694862065317L669.9365213400292,331.11225010362745L673.4612795873932,329.0111518501164L676.9860378347572,322.6722393186025L680.5107960821213,336.27597253627755L684.0355543294852,328.33452563968547L687.5603125768492,320.8916479381071L691.0850708242133,324.6308930210961L694.6098290715772,322.9571337272186L698.1345873189413,323.91865434626555L701.6593455663053,323.52692254445066L705.1841038136693,329.90144754036413L708.7088620610333,330.6136862151946L712.2336203083973,315.4074186324414L715.7583785557613,321.5326616841384L719.2831368031253,327.90718137347096L722.8078950504894,326.1265899929755L726.3326532978534,316.5113891090868L729.8574115452174,308.2494353394791L733.3821697925814,327.6578994292545L736.9069280399455,318.22075556078306L740.4316862873094,325.2362943027278L743.9564445346734,328.0140187666698L747.4812027820375,321.96000064377205L751.0059610294014,325.022624822911L754.5307192767654,308.8548366211108L758.0554775241295,320.713585616109L761.5802357714934,311.38327914083635L765.1049940188575,301.05583958211713L768.6297522662215,312.9858135059146L772.1545105135855,319.32472603742843L775.6792687609495,325.0582372873106L779.2040270083136,323.4200904578327L782.7287852556775,311.27644705421847L786.2535435030416,321.5326616841384L789.7783017504056,315.54986849003984L793.3030599977697,326.16220245737514L796.8278182451336,333.28457593922826L800.3525764924976,321.283379739922L803.8773347398617,324.9513998941117L807.4020929872256,314.873242279609L810.9268512345895,301.91052280796526L814.4516094819537,336.3115823473867L817.9763677293176,321.8887810215537L821.5011259766817,311.70378601385204L825.0258842240457,317.1167903907185L828.5506424714097,316.5113891090868L832.0754007187737,319.6096204460445L835.6001589661378,326.1265899929755L839.1249172135017,324.9157874297121L842.6496754608658,304.1184584546752L846.1744337082298,327.47984241383733L849.6991919555938,319.32472603742843L853.2239502029578,314.873242279609L856.7487084503218,320.6067535294911L860.2734666976859,307.60842159344776L863.7982249450498,327.8359617512526L867.3229831924139,313.3063203789303L870.8477414397779,300.4504383004855L874.3724996871418,297.31659449912814L877.8972579345059,309.21095595852603L881.4220161818699,324.6665054854957L884.9467744292339,300.8065576379007L888.4715326765979,327.80034928685296L891.996290923962,326.7319912746072L895.5210491713259,328.76186725260953L899.04580741869,324.52405562789727L902.570565666054,310.24370150637225L906.095323913418,316.9387280687205L909.620082160782,308.5343297480951L913.144840408146,335.3500617283397L916.6695986555101,328.72625744150037L920.194356902874,330.8273556950114L923.719115150238,336.3115823473867" style="fill: none;" fill="none"></path></g></g></g></g></g></g><g transform="translate(42, 376)" clip-path="url(#clip_1)"><clipPath id="clip_1"><rect width="934" height="24"></rect></clipPath><g><g><line x1="21.381003825050918" y1="0" x2="21.381003825050918" y2="5" style="visibility: inherit;" fill="rgb(0, 0, 0)" stroke="rgb(204, 204, 204)" stroke-width="1px"></line><line x1="91.87616877233116" y1="0" x2="91.87616877233116" y2="5" style="visibility: inherit;" fill="rgb(0, 0, 0)" stroke="rgb(204, 204, 204)" stroke-width="1px"></line><line x1="162.37133371961139" y1="0" x2="162.37133371961139" y2="5" style="visibility: inherit;" fill="rgb(0, 0, 0)" stroke="rgb(204, 204, 204)" stroke-width="1px"></line><line x1="232.86649866689163" y1="0" x2="232.86649866689163" y2="5" style="visibility: inherit;" fill="rgb(0, 0, 0)" stroke="rgb(204, 204, 204)" stroke-width="1px"></line><line x1="303.36166361417196" y1="0" x2="303.36166361417196" y2="5" style="visibility: inherit;" fill="rgb(0, 0, 0)" stroke="rgb(204, 204, 204)" stroke-width="1px"></line><line x1="373.8568285614521" y1="0" x2="373.8568285614521" y2="5" style="visibility: inherit;" fill="rgb(0, 0, 0)" stroke="rgb(204, 204, 204)" stroke-width="1px"></line><line x1="444.3519935087324" y1="0" x2="444.3519935087324" y2="5" style="visibility: inherit;" fill="rgb(0, 0, 0)" stroke="rgb(204, 204, 204)" stroke-width="1px"></line><line x1="514.8471584560126" y1="0" x2="514.8471584560126" y2="5" style="visibility: inherit;" fill="rgb(0, 0, 0)" stroke="rgb(204, 204, 204)" stroke-width="1px"></line><line x1="585.3423234032929" y1="0" x2="585.3423234032929" y2="5" style="visibility: inherit;" fill="rgb(0, 0, 0)" stroke="rgb(204, 204, 204)" stroke-width="1px"></line><line x1="655.8374883505732" y1="0" x2="655.8374883505732" y2="5" style="visibility: inherit;" fill="rgb(0, 0, 0)" stroke="rgb(204, 204, 204)" stroke-width="1px"></line><line x1="726.3326532978534" y1="0" x2="726.3326532978534" y2="5" style="visibility: inherit;" fill="rgb(0, 0, 0)" stroke="rgb(204, 204, 204)" stroke-width="1px"></line><line x1="796.8278182451336" y1="0" x2="796.8278182451336" y2="5" style="visibility: inherit;" fill="rgb(0, 0, 0)" stroke="rgb(204, 204, 204)" stroke-width="1px"></line><line x1="867.3229831924139" y1="0" x2="867.3229831924139" y2="5" style="visibility: inherit;" fill="rgb(0, 0, 0)" stroke="rgb(204, 204, 204)" stroke-width="1px"></line></g><g transform="translate(0, 8)"><text x="21.381003825050918" y="0" dx="0em" dy="0.95em" style="text-anchor: middle; visibility: inherit; font-family: Roboto, sans-serif; font-size: 12px; font-weight: 200;" fill="rgb(33, 33, 33)" stroke="none" stroke-width="1px">0</text><text x="91.87616877233116" y="0" dx="0em" dy="0.95em" style="text-anchor: middle; visibility: inherit; font-family: Roboto, sans-serif; font-size: 12px; font-weight: 200;" fill="rgb(33, 33, 33)" stroke="none" stroke-width="1px">2k</text><text x="162.37133371961139" y="0" dx="0em" dy="0.95em" style="text-anchor: middle; visibility: inherit; font-family: Roboto, sans-serif; font-size: 12px; font-weight: 200;" fill="rgb(33, 33, 33)" stroke="none" stroke-width="1px">4k</text><text x="232.86649866689163" y="0" dx="0em" dy="0.95em" style="text-anchor: middle; visibility: inherit; font-family: Roboto, sans-serif; font-size: 12px; font-weight: 200;" fill="rgb(33, 33, 33)" stroke="none" stroke-width="1px">6k</text><text x="303.36166361417196" y="0" dx="0em" dy="0.95em" style="text-anchor: middle; visibility: inherit; font-family: Roboto, sans-serif; font-size: 12px; font-weight: 200;" fill="rgb(33, 33, 33)" stroke="none" stroke-width="1px">8k</text><text x="373.8568285614521" y="0" dx="0em" dy="0.95em" style="text-anchor: middle; visibility: inherit; font-family: Roboto, sans-serif; font-size: 12px; font-weight: 200;" fill="rgb(33, 33, 33)" stroke="none" stroke-width="1px">10k</text><text x="444.3519935087324" y="0" dx="0em" dy="0.95em" style="text-anchor: middle; visibility: inherit; font-family: Roboto, sans-serif; font-size: 12px; font-weight: 200;" fill="rgb(33, 33, 33)" stroke="none" stroke-width="1px">12k</text><text x="514.8471584560126" y="0" dx="0em" dy="0.95em" style="text-anchor: middle; visibility: inherit; font-family: Roboto, sans-serif; font-size: 12px; font-weight: 200;" fill="rgb(33, 33, 33)" stroke="none" stroke-width="1px">14k</text><text x="585.3423234032929" y="0" dx="0em" dy="0.95em" style="text-anchor: middle; visibility: inherit; font-family: Roboto, sans-serif; font-size: 12px; font-weight: 200;" fill="rgb(33, 33, 33)" stroke="none" stroke-width="1px">16k</text><text x="655.8374883505732" y="0" dx="0em" dy="0.95em" style="text-anchor: middle; visibility: inherit; font-family: Roboto, sans-serif; font-size: 12px; font-weight: 200;" fill="rgb(33, 33, 33)" stroke="none" stroke-width="1px">18k</text><text x="726.3326532978534" y="0" dx="0em" dy="0.95em" style="text-anchor: middle; visibility: inherit; font-family: Roboto, sans-serif; font-size: 12px; font-weight: 200;" fill="rgb(33, 33, 33)" stroke="none" stroke-width="1px">20k</text><text x="796.8278182451336" y="0" dx="0em" dy="0.95em" style="text-anchor: middle; visibility: inherit; font-family: Roboto, sans-serif; font-size: 12px; font-weight: 200;" fill="rgb(33, 33, 33)" stroke="none" stroke-width="1px">22k</text><text x="867.3229831924139" y="0" dx="0em" dy="0.95em" style="text-anchor: middle; visibility: inherit; font-family: Roboto, sans-serif; font-size: 12px; font-weight: 200;" fill="rgb(33, 33, 33)" stroke="none" stroke-width="1px">24k</text></g><line x1="0" y1="0" x2="934.609375" y2="0" fill="rgb(0, 0, 0)" stroke="rgb(204, 204, 204)" stroke-width="1px"></line></g></g></g></g></svg>