<svg viewBox="0 0 1584.5999755859375 400" xmlns="http://www.w3.org/2000/svg"><g><g><g><g><g><line x1="42.390625" y1="357.58162020860937" x2="37.390625" y2="357.58162020860937" style="visibility: inherit;" fill="rgb(0, 0, 0)" stroke="rgb(204, 204, 204)" stroke-width="1px"></line><line x1="42.390625" y1="322.8752047827669" x2="37.390625" y2="322.8752047827669" style="visibility: inherit;" fill="rgb(0, 0, 0)" stroke="rgb(204, 204, 204)" stroke-width="1px"></line><line x1="42.390625" y1="288.1687893569245" x2="37.390625" y2="288.1687893569245" style="visibility: inherit;" fill="rgb(0, 0, 0)" stroke="rgb(204, 204, 204)" stroke-width="1px"></line><line x1="42.390625" y1="253.46237393108203" x2="37.390625" y2="253.46237393108203" style="visibility: inherit;" fill="rgb(0, 0, 0)" stroke="rgb(204, 204, 204)" stroke-width="1px"></line><line x1="42.390625" y1="218.75595850523953" x2="37.390625" y2="218.75595850523953" style="visibility: inherit;" fill="rgb(0, 0, 0)" stroke="rgb(204, 204, 204)" stroke-width="1px"></line><line x1="42.390625" y1="184.04954307939713" x2="37.390625" y2="184.04954307939713" style="visibility: inherit;" fill="rgb(0, 0, 0)" stroke="rgb(204, 204, 204)" stroke-width="1px"></line><line x1="42.390625" y1="149.34312765355463" x2="37.390625" y2="149.34312765355463" style="visibility: inherit;" fill="rgb(0, 0, 0)" stroke="rgb(204, 204, 204)" stroke-width="1px"></line><line x1="42.390625" y1="114.63671222771222" x2="37.390625" y2="114.63671222771222" style="visibility: inherit;" fill="rgb(0, 0, 0)" stroke="rgb(204, 204, 204)" stroke-width="1px"></line><line x1="42.390625" y1="79.93029680186977" x2="37.390625" y2="79.93029680186977" style="visibility: inherit;" fill="rgb(0, 0, 0)" stroke="rgb(204, 204, 204)" stroke-width="1px"></line><line x1="42.390625" y1="45.223881376027286" x2="37.390625" y2="45.223881376027286" style="visibility: inherit;" fill="rgb(0, 0, 0)" stroke="rgb(204, 204, 204)" stroke-width="1px"></line><line x1="42.390625" y1="10.517465950184878" x2="37.390625" y2="10.517465950184878" style="visibility: inherit;" fill="rgb(0, 0, 0)" stroke="rgb(204, 204, 204)" stroke-width="1px"></line></g><g transform="translate(32.390625, 0)"><text x="0" y="357.58162020860937" dx="0em" dy="0.3em" style="text-anchor: end; visibility: inherit; font-family: Roboto, sans-serif; font-size: 12px; font-weight: 200;" fill="rgb(33, 33, 33)" stroke="none" stroke-width="1px">0</text><text x="0" y="322.8752047827669" dx="0em" dy="0.3em" style="text-anchor: end; visibility: inherit; font-family: Roboto, sans-serif; font-size: 12px; font-weight: 200;" fill="rgb(33, 33, 33)" stroke="none" stroke-width="1px">0.1</text><text x="0" y="288.1687893569245" dx="0em" dy="0.3em" style="text-anchor: end; visibility: inherit; font-family: Roboto, sans-serif; font-size: 12px; font-weight: 200;" fill="rgb(33, 33, 33)" stroke="none" stroke-width="1px">0.2</text><text x="0" y="253.46237393108203" dx="0em" dy="0.3em" style="text-anchor: end; visibility: inherit; font-family: Roboto, sans-serif; font-size: 12px; font-weight: 200;" fill="rgb(33, 33, 33)" stroke="none" stroke-width="1px">0.3</text><text x="0" y="218.75595850523953" dx="0em" dy="0.3em" style="text-anchor: end; visibility: inherit; font-family: Roboto, sans-serif; font-size: 12px; font-weight: 200;" fill="rgb(33, 33, 33)" stroke="none" stroke-width="1px">0.4</text><text x="0" y="184.04954307939713" dx="0em" dy="0.3em" style="text-anchor: end; visibility: inherit; font-family: Roboto, sans-serif; font-size: 12px; font-weight: 200;" fill="rgb(33, 33, 33)" stroke="none" stroke-width="1px">0.5</text><text x="0" y="149.34312765355463" dx="0em" dy="0.3em" style="text-anchor: end; visibility: inherit; font-family: Roboto, sans-serif; font-size: 12px; font-weight: 200;" fill="rgb(33, 33, 33)" stroke="none" stroke-width="1px">0.6</text><text x="0" y="114.63671222771222" dx="0em" dy="0.3em" style="text-anchor: end; visibility: inherit; font-family: Roboto, sans-serif; font-size: 12px; font-weight: 200;" fill="rgb(33, 33, 33)" stroke="none" stroke-width="1px">0.7</text><text x="0" y="79.93029680186977" dx="0em" dy="0.3em" style="text-anchor: end; visibility: inherit; font-family: Roboto, sans-serif; font-size: 12px; font-weight: 200;" fill="rgb(33, 33, 33)" stroke="none" stroke-width="1px">0.8</text><text x="0" y="45.223881376027286" dx="0em" dy="0.3em" style="text-anchor: end; visibility: inherit; font-family: Roboto, sans-serif; font-size: 12px; font-weight: 200;" fill="rgb(33, 33, 33)" stroke="none" stroke-width="1px">0.9</text><text x="0" y="10.517465950184878" dx="0em" dy="0.3em" style="text-anchor: end; visibility: inherit; font-family: Roboto, sans-serif; font-size: 12px; font-weight: 200;" fill="rgb(33, 33, 33)" stroke="none" stroke-width="1px">1</text></g><line x1="42.390625" y1="0" x2="42.390625" y2="376" fill="rgb(0, 0, 0)" stroke="rgb(204, 204, 204)" stroke-width="1px"></line></g></g><g transform="translate(42, 0)" clip-path="url(#clip_0)"><clipPath id="clip_0"><rect width="1542" height="376"></rect></clipPath><g><g><g><line x1="14.723829957430262" y1="0" x2="14.723829957430262" y2="376" fill="rgb(0, 0, 0)" stroke="rgb(66, 66, 66)" stroke-width="1px" opacity="0.25"></line><line x1="130.41407717618011" y1="0" x2="130.41407717618011" y2="376" fill="rgb(0, 0, 0)" stroke="rgb(66, 66, 66)" stroke-width="1px" opacity="0.25"></line><line x1="246.10432439492996" y1="0" x2="246.10432439492996" y2="376" fill="rgb(0, 0, 0)" stroke="rgb(66, 66, 66)" stroke-width="1px" opacity="0.25"></line><line x1="361.7945716136798" y1="0" x2="361.7945716136798" y2="376" fill="rgb(0, 0, 0)" stroke="rgb(66, 66, 66)" stroke-width="1px" opacity="0.25"></line><line x1="477.48481883242965" y1="0" x2="477.48481883242965" y2="376" fill="rgb(0, 0, 0)" stroke="rgb(66, 66, 66)" stroke-width="1px" opacity="0.25"></line><line x1="593.1750660511796" y1="0" x2="593.1750660511796" y2="376" fill="rgb(0, 0, 0)" stroke="rgb(66, 66, 66)" stroke-width="1px" opacity="0.25"></line><line x1="708.8653132699293" y1="0" x2="708.8653132699293" y2="376" fill="rgb(0, 0, 0)" stroke="rgb(66, 66, 66)" stroke-width="1px" opacity="0.25"></line><line x1="824.5555604886792" y1="0" x2="824.5555604886792" y2="376" fill="rgb(0, 0, 0)" stroke="rgb(66, 66, 66)" stroke-width="1px" opacity="0.25"></line><line x1="940.245807707429" y1="0" x2="940.245807707429" y2="376" fill="rgb(0, 0, 0)" stroke="rgb(66, 66, 66)" stroke-width="1px" opacity="0.25"></line><line x1="1055.9360549261787" y1="0" x2="1055.9360549261787" y2="376" fill="rgb(0, 0, 0)" stroke="rgb(66, 66, 66)" stroke-width="1px" opacity="0.25"></line><line x1="1171.6263021449288" y1="0" x2="1171.6263021449288" y2="376" fill="rgb(0, 0, 0)" stroke="rgb(66, 66, 66)" stroke-width="1px" opacity="0.25"></line><line x1="1287.3165493636786" y1="0" x2="1287.3165493636786" y2="376" fill="rgb(0, 0, 0)" stroke="rgb(66, 66, 66)" stroke-width="1px" opacity="0.25"></line><line x1="1403.0067965824285" y1="0" x2="1403.0067965824285" y2="376" fill="rgb(0, 0, 0)" stroke="rgb(66, 66, 66)" stroke-width="1px" opacity="0.25"></line><line x1="1518.6970438011783" y1="0" x2="1518.6970438011783" y2="376" fill="rgb(0, 0, 0)" stroke="rgb(66, 66, 66)" stroke-width="1px" opacity="0.25"></line></g><g><line x1="0" y1="357.58162020860937" x2="1542.209375" y2="357.58162020860937" fill="rgb(0, 0, 0)" stroke="rgb(66, 66, 66)" stroke-width="1px" opacity="0.25"></line><line x1="0" y1="322.8752047827669" x2="1542.209375" y2="322.8752047827669" fill="rgb(0, 0, 0)" stroke="rgb(66, 66, 66)" stroke-width="1px" opacity="0.25"></line><line x1="0" y1="288.1687893569245" x2="1542.209375" y2="288.1687893569245" fill="rgb(0, 0, 0)" stroke="rgb(66, 66, 66)" stroke-width="1px" opacity="0.25"></line><line x1="0" y1="253.46237393108203" x2="1542.209375" y2="253.46237393108203" fill="rgb(0, 0, 0)" stroke="rgb(66, 66, 66)" stroke-width="1px" opacity="0.25"></line><line x1="0" y1="218.75595850523953" x2="1542.209375" y2="218.75595850523953" fill="rgb(0, 0, 0)" stroke="rgb(66, 66, 66)" stroke-width="1px" opacity="0.25"></line><line x1="0" y1="184.04954307939713" x2="1542.209375" y2="184.04954307939713" fill="rgb(0, 0, 0)" stroke="rgb(66, 66, 66)" stroke-width="1px" opacity="0.25"></line><line x1="0" y1="149.34312765355463" x2="1542.209375" y2="149.34312765355463" fill="rgb(0, 0, 0)" stroke="rgb(66, 66, 66)" stroke-width="1px" opacity="0.25"></line><line x1="0" y1="114.63671222771222" x2="1542.209375" y2="114.63671222771222" fill="rgb(0, 0, 0)" stroke="rgb(66, 66, 66)" stroke-width="1px" opacity="0.25"></line><line x1="0" y1="79.93029680186977" x2="1542.209375" y2="79.93029680186977" fill="rgb(0, 0, 0)" stroke="rgb(66, 66, 66)" stroke-width="1px" opacity="0.25"></line><line x1="0" y1="45.223881376027286" x2="1542.209375" y2="45.223881376027286" fill="rgb(0, 0, 0)" stroke="rgb(66, 66, 66)" stroke-width="1px" opacity="0.25"></line><line x1="0" y1="10.517465950184878" x2="1542.209375" y2="10.517465950184878" fill="rgb(0, 0, 0)" stroke="rgb(66, 66, 66)" stroke-width="1px" opacity="0.25"></line></g></g></g><g><g><line x1="0" y1="357.58162020860937" x2="1542.209375" y2="357.58162020860937" fill="rgb(0, 0, 0)" stroke="rgb(153, 153, 153)" stroke-width="1.5px"></line></g></g><g><g><line x1="14.723829957430262" y1="0" x2="14.723829957430262" y2="376" fill="rgb(0, 0, 0)" stroke="rgb(153, 153, 153)" stroke-width="1.5px"></line></g></g><g><g><g><g><g><path stroke="rgb(255, 112, 67)" stroke-width="2px" d="M20.508342318367752,209.44984584594826L26.292854679305243,199.90595421743961L32.07736704024274,203.09687827881703L37.86187940118023,207.5299717871532L43.64639176211772,208.897272575324L49.43090412305522,208.75300099166967L55.21541648399271,208.96965455032895L60.999928844930196,207.67969574278376L66.7844412058677,210.19487827167222L72.56895356680519,206.78516399469743L78.35346592774268,194.45371480487054L84.13797828868017,195.31270539309966L89.92249064961766,195.3453673034854L95.70700301055516,196.3728760794155L101.49151537149265,198.02449953802127L107.27602773243014,199.02508029060544L113.06054009336763,199.7273209288914L118.84505245430512,199.97157151614593L124.6295648152426,201.47991014746415L130.41407717618011,202.77947725519917L136.1985895371176,203.55188804088573L141.98310189805508,204.4016257496674L147.76761425899258,206.17298272408138L153.55212661993008,207.38973900522836L159.33663898086755,208.69386443330114L165.12115134180507,208.09121036300868L170.90566370274257,208.7800683020161L176.69017606368004,209.66003355003167L182.47468842461754,210.02164452427417L188.25920078555504,209.91984086096645L194.0437131464925,210.20216133294704L199.82822550743,210.11748292631947L205.6127378683675,206.14764472195978L211.39725022930497,206.06982069637456L217.1817625902425,204.5613093229615L222.96627495118,205.1315916945585L228.7507873121175,205.79784065213929L234.53529967305496,206.32995965606628L240.31981203399246,206.56868133842258L246.10432439492996,206.42174959923307L251.88883675586743,206.2533560115162L257.67334911680496,206.68715065041056L263.4578614777424,206.69262760571638L269.2423738386799,206.5644953895196L275.0268861996174,206.64410764130264L280.8113985605549,206.83969053821946L286.5959109214924,207.02230468378622L292.3804232824299,206.8109975263189L298.1649356433674,206.6620379213972L303.9494480043049,206.491687237275L309.73396036524235,207.02761189832918L315.5184727261799,207.07673434550298L321.30298508711735,206.4804595686193L327.0874974480548,206.1053126403804L332.87200980899235,205.93453852938643L338.6565221699298,205.9171242452326L344.4410345308673,206.31729294861532L350.2255468918048,206.43428813647478L356.01005925274234,206.6106950102793L361.7945716136798,206.87359038863187L367.5790839746173,207.07404201711813L373.3635963355548,207.44776894039612L379.1481086964923,207.7030572381096L384.9326210574298,208.02515520095687L390.71713341836727,208.24785399073488L396.50164577930474,208.00688861746366L402.28615814024226,208.092315431888L408.07067050117973,208.5417109818019L413.8551828621172,208.6343834717383L419.63969522305473,208.76600499843408L425.4242075839922,208.1226101554186L431.20871994492967,208.02715850669935L436.9932323058672,207.74249998063783L442.77774466680467,207.86901438701622L448.56225702774213,207.66548698324112L454.3467693886797,207.62009264008498L460.1312817496172,207.7107424577477L465.9157941105547,207.72685889055472L471.7003064714922,208.02917340112387L477.48481883242965,208.2497079269965L483.2693311933672,208.27687582537268L489.05384355430465,208.1317974681127L494.8383559152421,208.04349065481196L500.62286827617964,208.3551458562397L506.4073806371171,208.2366266986482L512.1918929980546,208.074640630954L517.9764053589921,207.6672848171121L523.7609177199296,207.0332095174905L529.545430080867,206.74277418716395L535.3299424418045,206.67176295272873L541.1144548027421,206.40909785438478L546.8989671636796,205.85407041059236L552.683479524617,205.59065180799533L558.4679918855545,205.2783484106132L564.252504246492,204.91246838070805L570.0370166074295,204.52020654590137L575.821528968367,204.14677592915993L581.6060413293045,204.04962450336532L587.390553690242,204.1007771936225L593.1750660511796,203.65174486985978L598.959578412117,203.57845019440254L604.7440907730545,203.4592829706831L610.528603133992,203.4125072470241L616.3131154949295,203.22578821291316L622.097627855867,203.163611866522L627.8821402168045,202.89493069562832L633.666652577742,202.48933209110626L639.4511649386794,202.26900954341122L645.2356772996169,202.16127055943917L651.0201896605545,201.82952309172356L656.804702021492,201.81230279183944L662.5892143824294,201.99628189354317L668.3737267433669,201.48121651320113L674.1582391043044,201.4050441418334L679.9427514652418,201.02681663973885L685.7272638261794,201.1551246527821L691.5117761871169,201.12721133375112L697.2962885480543,200.94477405474038L703.0808009089918,200.734763292387L708.8653132699293,200.44265872419948L714.6498256308668,200.33261382716483L720.4343379918043,200.1490960475588L726.2188503527418,200.2258950361951L732.0033627136794,200.13744501195586L737.7878750746169,200.164587302941L743.5723874355543,200.3372353735807L749.3568997964918,200.04015131035754L755.1414121574293,200.00342996011346L760.9259245183667,199.97615942110113L766.7104368793043,200.02477449546836L772.4949492402418,200.06875173402648L778.2794616011792,199.9551891112213L784.0639739621167,199.9544758137923L789.8484863230542,199.77160076691348L795.6329986839917,199.7353902397973L801.4175110449293,199.65805681492296L807.2020234058667,199.47058367168637L812.9865357668043,199.6327049167514L818.7710481277417,199.7075760047685L824.5555604886792,199.79674365838937L830.3400728496167,199.924124666316L836.1245852105542,199.94697253329113L841.9090975714917,199.67397534979946L847.6936099324292,199.59004525516656L853.4781222933666,199.58268632668518L859.2626346543042,199.68390871415463L865.0471470152416,199.72330333416647L870.8316593761791,199.69050686176365L876.6161717371166,199.70995369298166L882.4006840980542,199.7801574261289L888.1851964589915,199.92207307027033L893.9697088199291,199.98517365137252L899.7542211808666,199.9731059240135L905.538733541804,199.86384025284968L911.3232459027415,199.97634243032115L917.1077582636791,199.93395785820817L922.8922706246165,199.7900401018444L928.676782985554,199.6639937139409L934.4612953464915,199.76383295218886L940.245807707429,199.7667363119591L946.0303200683666,199.63703867558638L951.814832429304,199.55929462100335L957.5993447902416,199.4709693625271L963.383857151179,199.44929778026358L969.1683695121166,199.34931422575832L974.9528818730539,199.39234161170444L980.7373942339915,199.289098481603L986.521906594929,199.382178378973L992.3064189558665,199.26631160595036L998.0909313168039,199.24480249344148L1003.8754436777415,199.1033669331378L1009.6599560386788,198.9874143044278L1015.4444683996164,198.87809402259833L1021.2289807605539,198.87821288986467L1027.0134931214914,198.79899485391877L1032.7980054824288,198.73752795815162L1038.5825178433665,198.558659520444L1044.3670302043038,198.3600896219535L1050.1515425652415,198.2653459088053L1055.9360549261787,198.17849073486295L1061.7205672871164,198.1030476374972L1067.5050796480539,197.9505646005465L1073.2895920089913,197.83751188119524L1079.074104369929,197.63669647322376L1084.8586167308663,197.4740675256636L1090.643129091804,197.3021386508015L1096.4276414527412,196.92414703263822L1102.212153813679,196.8599144229743L1107.9966661746164,196.83867042720507L1113.7811785355539,196.83463102641718L1119.5656908964913,196.856312059796L1125.3502032574288,196.8279864621581L1131.1347156183663,196.77814909288907L1136.9192279793037,196.5388679486114L1142.7037403402412,196.2671765775965L1148.488252701179,196.13996089469117L1154.2727650621162,196.11652348255015L1160.0572774230538,196.02858087648025L1165.841789783991,195.9811583786238L1171.6263021449288,195.94185699986627L1177.4108145058663,195.82340638172897L1183.1953268668037,195.75364146316986L1188.9798392277412,195.70498755451203L1194.7643515886787,195.68614610676883L1200.5488639496161,195.69274653031195L1206.3333763105536,195.69068776336312L1212.1178886714913,195.72777771868377L1217.9024010324288,195.72669499226703L1223.6869133933662,195.69177019545288L1229.4714257543037,195.6660543997104L1235.2559381152412,195.6673850185885L1241.0404504761786,195.65307536673018L1246.8249628371161,195.69036312945312L1252.6094751980536,195.68417953369777L1258.393987558991,195.6059118465261L1264.1784999199285,195.59705032455062L1269.9630122808662,195.60012914160882L1275.7475246418035,195.61743285276134L1281.5320370027412,195.61777608221303L1287.3165493636786,195.63175397809482L1293.101061724616,195.5934312024091L1298.8855740855536,195.55786946002306L1304.670086446491,195.5135956931083L1310.4545988074285,195.50189505070108L1316.239111168366,195.43753005455187L1322.0236235293034,195.3584445158373L1327.8081358902411,195.30848295058465L1333.5926482511784,195.27035122671438L1339.377160612116,195.21192442118237L1345.1616729730533,195.19140775827105L1350.946185333991,195.14358315140572L1356.7306976949285,195.12464712091685L1362.515210055866,195.12201463490078L1368.2997224168034,195.10603222585019L1374.084234777741,195.0860387533984L1379.8687471386786,195.07091451192545L1385.6532594996158,195.0470187274785L1391.4377718605535,195.04709700181428L1397.222284221491,195.00336875640562L1403.0067965824285,194.95845901852232L1408.791308943366,194.92324453154484L1414.5758213043034,194.90051085877707L1420.360333665241,194.90643273711973L1426.1448460261784,194.90546441084845L1431.9293583871158,194.90311409597788L1437.7138707480533,194.90148581659764L1443.4983831089908,194.903030718345L1449.2828954699285,194.90280206371673L1455.0674078308657,194.88483772674823L1460.8519201918034,194.86836422517445L1466.6364325527409,194.85300760414535L1472.4209449136783,194.83667127924267" style="fill: none;" fill="none"></path></g></g></g></g><g opacity="0.2"><g><g><g><path stroke="rgb(255, 112, 67)" stroke-width="2px" d="M20.508342318367752,209.44984584594826L26.292854679305243,190.37160648056403L32.07736704024274,209.4691568203078L37.86187940118023,220.8026714790583L43.64639176211772,214.35281638629422L49.43090412305522,208.03380426388256L55.21541648399271,210.26503375285637L60.999928844930196,198.68603078909837L66.7844412058677,230.22600289047688L72.56895356680519,176.25076419386517L78.35346592774268,71.81542198660193L84.13797828868017,204.70509703820954L89.92249064961766,195.73477191710924L95.70700301055516,209.63735985460593L101.49151537149265,220.97455673449832L107.27602773243014,213.91428039759836L113.06054009336763,210.8681422712975L118.84505245430512,204.08665972276745L124.6295648152426,228.37353535654947L130.41407717618011,227.22580978190769L136.1985895371176,218.83892018876548L141.98310189805508,222.05113062589467L147.76761425899258,244.69780429393685L153.55212661993008,235.04175857501158L159.33663898086755,239.60462013898373L165.12115134180507,193.21916324814578L170.90566370274257,226.45058845503456L176.69017606368004,233.08933321772557L182.47468842461754,220.00125052816117L188.25920078555504,207.0114086711982L194.0437131464925,218.54175666795715L199.82822550743,207.53403583372534L205.6127378683675,81.18739882507191L211.39725022930497,203.5448250190589L217.1817625902425,154.1596921855425L222.96627495118,224.73623524388313L228.7507873121175,229.34421436016174L234.53529967305496,225.64873308478928L240.31981203399246,215.46537468036692L246.10432439492996,200.80458017380184L251.88883675586743,199.65391709690078L257.67334911680496,224.10416543556155L263.4578614777424,206.91778095834204L269.2423738386799,201.1743434423496L275.0268861996174,210.0693485231253L280.8113985605549,215.44142989962654L286.5959109214924,215.22807828306847L292.3804232824299,197.11430158729004L298.1649356433674,199.68444022777112L303.9494480043049,198.34988330344748L309.73396036524235,233.15156896101502L315.5184727261799,209.517915220485L321.30298508711735,176.28204238693598L327.0874974480548,186.750173017425L332.87200980899235,196.96191348593013L338.6565221699298,204.98568022056136L344.4410345308673,228.0996236141879L350.2255468918048,212.91318169629383L356.01005925274234,216.54611692884248L361.7945716136798,221.92796239736055L367.5790839746173,218.74142407504675L373.3635963355548,229.5523219145879L379.1481086964923,223.04234111536863L384.9326210574298,227.6811950353233L390.71713341836727,222.04694158217984L396.50164577930474,192.85015504179844L402.28615814024226,213.54563420737452L408.07067050117973,237.64965032551538L413.8551828621172,214.72347952349185L419.63969522305473,217.53711020864228L425.4242075839922,164.64765095628178L431.20871994492967,201.48847000437362L436.9932323058672,187.9777696922297L442.77774466680467,216.7709082549033L448.56225702774213,193.15574836662555L454.3467693886797,204.34175697002453L460.1312817496172,214.3413973634271L465.9157941105547,208.92062998997338L471.7003064714922,230.70173345003337L477.48481883242965,224.99282192890553L483.2693311933672,210.3645571568667L489.05384355430465,196.8496574576902L494.8383559152421,201.09488607489922L500.62286827617964,233.16520145389435L506.4073806371171,198.69266085581745L512.1918929980546,194.88164472045787L517.9764053589921,174.11631712968097L523.7609177199296,154.22777190339704L529.545430080867,182.28952412009505L535.3299424418045,200.62799905207402L541.1144548027421,183.81363268668576L546.8989671636796,157.601741487826L552.683479524617,182.44961799322664L558.4679918855545,177.55828368542194L564.252504246492,172.10390052907132L570.0370166074295,168.98927929552121L575.821528968367,169.98234123888392L581.6060413293045,195.07326502628783L587.390553690242,208.87343343078612L593.1750660511796,161.34937377161876L598.959578412117,196.60719974480236L604.7440907730545,192.01725937479208L610.528603133992,198.8790267561977L616.3131154949295,184.96063422908054L622.097627855867,197.02539042735725L627.8821402168045,176.12809244458612L633.666652577742,161.71757519917657L639.4511649386794,179.9236970364022L645.2356772996169,191.13758088131107L651.0201896605545,167.5881527777439L656.804702021492,200.0194809784159L662.5892143824294,221.3151621901273L668.3737267433669,146.93587765067866L674.1582391043044,193.27037301464497L679.9427514652418,160.29733423007823L685.7272638261794,215.08635414237523L691.5117761871169,198.0716273676039L697.2962885480543,180.8116501841347L703.0808009089918,177.37210396476235L708.8653132699293,167.68815197437374L714.6498256308668,187.89537482252004L720.4343379918043,179.24538225413238L726.2188503527418,209.041708868309L732.0033627136794,189.90599168583L737.7878750746169,203.32824628734272L743.5723874355543,220.6131508667446L749.3568997964918,164.88848476827278L755.1414121574293,195.62613605010435L760.9259245183667,196.70143771340952L766.7104368793043,205.90533563739513L772.4949492402418,205.42692615852462L778.2794616011792,186.01913834425505L784.0639739621167,199.86631712821992L789.8484863230542,177.0094051822818L795.6329986839917,195.19665046449612L801.4175110449293,189.89728261223024L807.2020234058667,175.6447078298469L812.9865357668043,220.3779748495981L818.7710481277417,209.3534047506466L824.5555604886792,211.36202535361838L830.3400728496167,216.55651196324595L836.1245852105542,202.95010493136525L841.9090975714917,163.5542795167548L847.6936099324292,188.41268551969057L853.4781222933666,198.59629216374046L859.2626346543042,213.33935742020148L865.0471470152416,205.07189177454458L870.8316593761791,195.20943480531471L876.6161717371166,202.3837979377078L882.4006840980542,209.49330846740446L888.1851964589915,219.67918029805574L893.9697088199291,208.82411649144694L899.7542211808666,198.27232910647493L905.538733541804,184.37062035099243L911.3232459027415,216.02491714417374L917.1077582636791,193.8514502661414L922.8922706246165,179.01362987518243L928.676782985554,181.3598253416635L934.4612953464915,214.34749992093762L940.245807707429,200.1933107776051L946.0303200683666,180.4707758022426L951.814832429304,188.00437270564845L957.5993447902416,186.26827784045108L963.383857151179,196.19146042856943L969.1683695121166,184.2341713023846L974.9528818730539,205.93354186507503L980.7373942339915,183.5062085946055L986.521906594929,213.69016138719542L992.3064189558665,181.35765324492243L998.0909313168039,195.9021371426644L1003.8754436777415,177.00398528374706L1009.6599560386788,180.77203527690548L1015.4444683996164,181.61257465577668L1021.2289807605539,198.89708618910169L1027.0134931214914,186.1544910011746L1032.7980054824288,188.87480427300332L1038.5825178433665,169.7081812568948L1044.3670302043038,166.16553284554828L1050.1515425652415,182.82505974325457L1055.9360549261787,183.951178126982L1061.7205672871164,185.68208064663648L1067.5050796480539,172.7185004736043L1073.2895920089913,179.03593006839031L1079.074104369929,164.07225218626544L1084.8586167308663,170.15685369704883L1090.643129091804,168.27991387317246L1096.4276414527412,132.8039680139184L1102.212153813679,185.91061625374616L1107.9966661746164,193.1997488406081L1113.7811785355539,196.139371480056L1119.5656908964913,200.60596778512928L1125.3502032574288,191.9057790953882L1131.1347156183663,188.07666215385345L1136.9192279793037,154.56368149273823L1142.7037403402412,148.38276300646692L1148.488252701179,173.61408698988387L1154.2727650621162,191.9472351131884L1160.0572774230538,180.31223342678317L1165.841789783991,187.46731661477014L1171.6263021449288,188.85380733784004L1177.4108145058663,174.36372929180195L1183.1953268668037,183.05728791482397L1188.9798392277412,186.8108262330888L1194.7643515886787,192.2264633209066L1200.5488639496161,196.91010380699768L1206.3333763105536,195.30929953881298L1212.1178886714913,202.62890353995616L1217.9024010324288,195.5243578028104L1223.6869133933662,189.1367487966536L1229.4714257543037,190.81860330323207L1235.2559381152412,195.91928636360072L1241.0404504761786,192.93250853823685L1246.8249628371161,202.80971507867008L1252.6094751980536,194.49854891524728L1258.393987558991,180.53583527129535L1264.1784999199285,193.8836593578155L1269.9630122808662,196.19790431556783L1275.7475246418035,198.99100351485663L1281.5320370027412,195.68496884183276L1287.3165493636786,198.37938244585422L1293.101061724616,188.02958971447998L1298.8855740855536,188.51047124630813L1304.670086446491,186.70424868632895L1310.4545988074285,193.1644057236362L1316.239111168366,182.5276066095474L1322.0236235293034,179.43282385956533L1327.8081358902411,185.20776712162052L1333.5926482511784,187.53088664605758L1339.377160612116,183.3067273672366L1345.1616729730533,190.99456382589102L1350.946185333991,185.32269172585657L1356.7306976949285,191.22106179939124L1362.515210055866,194.5772512204972L1368.2997224168034,191.7859931317794L1374.084234777741,190.91695791232942L1379.8687471386786,191.90522055622625L1385.6532594996158,190.02646030841453L1391.4377718605535,195.06360436744922L1397.222284221491,185.74700565255762L1403.0067965824285,185.41664008156496L1408.791308943366,187.41364513863113L1414.5758213043034,190.03462118617017L1420.360333665241,196.1785933412083L1426.1448460261784,194.6966855113004L1431.9293583871158,194.39452616798766L1437.7138707480533,194.54786585458646L1443.4983831089908,195.2397510698288L1449.2828954699285,194.85278686375565L1455.0674078308657,190.94135779905363L1460.8519201918034,191.23930741201593L1466.6364325527409,191.4580375538375L1472.4209449136783,191.2124044423806" style="fill: none;" fill="none"></path></g></g></g></g></g></g><g transform="translate(42, 376)" clip-path="url(#clip_1)"><clipPath id="clip_1"><rect width="1542" height="24"></rect></clipPath><g><g><line x1="14.723829957430262" y1="0" x2="14.723829957430262" y2="5" style="visibility: inherit;" fill="rgb(0, 0, 0)" stroke="rgb(204, 204, 204)" stroke-width="1px"></line><line x1="130.41407717618011" y1="0" x2="130.41407717618011" y2="5" style="visibility: inherit;" fill="rgb(0, 0, 0)" stroke="rgb(204, 204, 204)" stroke-width="1px"></line><line x1="246.10432439492996" y1="0" x2="246.10432439492996" y2="5" style="visibility: inherit;" fill="rgb(0, 0, 0)" stroke="rgb(204, 204, 204)" stroke-width="1px"></line><line x1="361.7945716136798" y1="0" x2="361.7945716136798" y2="5" style="visibility: inherit;" fill="rgb(0, 0, 0)" stroke="rgb(204, 204, 204)" stroke-width="1px"></line><line x1="477.48481883242965" y1="0" x2="477.48481883242965" y2="5" style="visibility: inherit;" fill="rgb(0, 0, 0)" stroke="rgb(204, 204, 204)" stroke-width="1px"></line><line x1="593.1750660511796" y1="0" x2="593.1750660511796" y2="5" style="visibility: inherit;" fill="rgb(0, 0, 0)" stroke="rgb(204, 204, 204)" stroke-width="1px"></line><line x1="708.8653132699293" y1="0" x2="708.8653132699293" y2="5" style="visibility: inherit;" fill="rgb(0, 0, 0)" stroke="rgb(204, 204, 204)" stroke-width="1px"></line><line x1="824.5555604886792" y1="0" x2="824.5555604886792" y2="5" style="visibility: inherit;" fill="rgb(0, 0, 0)" stroke="rgb(204, 204, 204)" stroke-width="1px"></line><line x1="940.245807707429" y1="0" x2="940.245807707429" y2="5" style="visibility: inherit;" fill="rgb(0, 0, 0)" stroke="rgb(204, 204, 204)" stroke-width="1px"></line><line x1="1055.9360549261787" y1="0" x2="1055.9360549261787" y2="5" style="visibility: inherit;" fill="rgb(0, 0, 0)" stroke="rgb(204, 204, 204)" stroke-width="1px"></line><line x1="1171.6263021449288" y1="0" x2="1171.6263021449288" y2="5" style="visibility: inherit;" fill="rgb(0, 0, 0)" stroke="rgb(204, 204, 204)" stroke-width="1px"></line><line x1="1287.3165493636786" y1="0" x2="1287.3165493636786" y2="5" style="visibility: inherit;" fill="rgb(0, 0, 0)" stroke="rgb(204, 204, 204)" stroke-width="1px"></line><line x1="1403.0067965824285" y1="0" x2="1403.0067965824285" y2="5" style="visibility: inherit;" fill="rgb(0, 0, 0)" stroke="rgb(204, 204, 204)" stroke-width="1px"></line><line x1="1518.6970438011783" y1="0" x2="1518.6970438011783" y2="5" style="visibility: inherit;" fill="rgb(0, 0, 0)" stroke="rgb(204, 204, 204)" stroke-width="1px"></line></g><g transform="translate(0, 8)"><text x="14.723829957430262" y="0" dx="0em" dy="0.95em" style="text-anchor: middle; visibility: inherit; font-family: Roboto, sans-serif; font-size: 12px; font-weight: 200;" fill="rgb(33, 33, 33)" stroke="none" stroke-width="1px">0</text><text x="130.41407717618011" y="0" dx="0em" dy="0.95em" style="text-anchor: middle; visibility: inherit; font-family: Roboto, sans-serif; font-size: 12px; font-weight: 200;" fill="rgb(33, 33, 33)" stroke="none" stroke-width="1px">2k</text><text x="246.10432439492996" y="0" dx="0em" dy="0.95em" style="text-anchor: middle; visibility: inherit; font-family: Roboto, sans-serif; font-size: 12px; font-weight: 200;" fill="rgb(33, 33, 33)" stroke="none" stroke-width="1px">4k</text><text x="361.7945716136798" y="0" dx="0em" dy="0.95em" style="text-anchor: middle; visibility: inherit; font-family: Roboto, sans-serif; font-size: 12px; font-weight: 200;" fill="rgb(33, 33, 33)" stroke="none" stroke-width="1px">6k</text><text x="477.48481883242965" y="0" dx="0em" dy="0.95em" style="text-anchor: middle; visibility: inherit; font-family: Roboto, sans-serif; font-size: 12px; font-weight: 200;" fill="rgb(33, 33, 33)" stroke="none" stroke-width="1px">8k</text><text x="593.1750660511796" y="0" dx="0em" dy="0.95em" style="text-anchor: middle; visibility: inherit; font-family: Roboto, sans-serif; font-size: 12px; font-weight: 200;" fill="rgb(33, 33, 33)" stroke="none" stroke-width="1px">10k</text><text x="708.8653132699293" y="0" dx="0em" dy="0.95em" style="text-anchor: middle; visibility: inherit; font-family: Roboto, sans-serif; font-size: 12px; font-weight: 200;" fill="rgb(33, 33, 33)" stroke="none" stroke-width="1px">12k</text><text x="824.5555604886792" y="0" dx="0em" dy="0.95em" style="text-anchor: middle; visibility: inherit; font-family: Roboto, sans-serif; font-size: 12px; font-weight: 200;" fill="rgb(33, 33, 33)" stroke="none" stroke-width="1px">14k</text><text x="940.245807707429" y="0" dx="0em" dy="0.95em" style="text-anchor: middle; visibility: inherit; font-family: Roboto, sans-serif; font-size: 12px; font-weight: 200;" fill="rgb(33, 33, 33)" stroke="none" stroke-width="1px">16k</text><text x="1055.9360549261787" y="0" dx="0em" dy="0.95em" style="text-anchor: middle; visibility: inherit; font-family: Roboto, sans-serif; font-size: 12px; font-weight: 200;" fill="rgb(33, 33, 33)" stroke="none" stroke-width="1px">18k</text><text x="1171.6263021449288" y="0" dx="0em" dy="0.95em" style="text-anchor: middle; visibility: inherit; font-family: Roboto, sans-serif; font-size: 12px; font-weight: 200;" fill="rgb(33, 33, 33)" stroke="none" stroke-width="1px">20k</text><text x="1287.3165493636786" y="0" dx="0em" dy="0.95em" style="text-anchor: middle; visibility: inherit; font-family: Roboto, sans-serif; font-size: 12px; font-weight: 200;" fill="rgb(33, 33, 33)" stroke="none" stroke-width="1px">22k</text><text x="1403.0067965824285" y="0" dx="0em" dy="0.95em" style="text-anchor: middle; visibility: inherit; font-family: Roboto, sans-serif; font-size: 12px; font-weight: 200;" fill="rgb(33, 33, 33)" stroke="none" stroke-width="1px">24k</text><text x="1518.6970438011783" y="0" dx="0em" dy="0.95em" style="text-anchor: middle; visibility: inherit; font-family: Roboto, sans-serif; font-size: 12px; font-weight: 200;" fill="rgb(33, 33, 33)" stroke="none" stroke-width="1px">26k</text></g><line x1="0" y1="0" x2="1542.209375" y2="0" fill="rgb(0, 0, 0)" stroke="rgb(204, 204, 204)" stroke-width="1px"></line></g></g></g></g></svg>