<svg viewBox="0 0 1584.5999755859375 400" xmlns="http://www.w3.org/2000/svg"><g><g><g><g><g><line x1="53.1875" y1="360.6792396009361" x2="48.1875" y2="360.6792396009361" style="visibility: inherit;" fill="rgb(0, 0, 0)" stroke="rgb(204, 204, 204)" stroke-width="1px"></line><line x1="53.1875" y1="303.46293752919473" x2="48.1875" y2="303.46293752919473" style="visibility: inherit;" fill="rgb(0, 0, 0)" stroke="rgb(204, 204, 204)" stroke-width="1px"></line><line x1="53.1875" y1="246.24663545745346" x2="48.1875" y2="246.24663545745346" style="visibility: inherit;" fill="rgb(0, 0, 0)" stroke="rgb(204, 204, 204)" stroke-width="1px"></line><line x1="53.1875" y1="189.03033338571208" x2="48.1875" y2="189.03033338571208" style="visibility: inherit;" fill="rgb(0, 0, 0)" stroke="rgb(204, 204, 204)" stroke-width="1px"></line><line x1="53.1875" y1="131.81403131397082" x2="48.1875" y2="131.81403131397082" style="visibility: inherit;" fill="rgb(0, 0, 0)" stroke="rgb(204, 204, 204)" stroke-width="1px"></line><line x1="53.1875" y1="74.59772924222945" x2="48.1875" y2="74.59772924222945" style="visibility: inherit;" fill="rgb(0, 0, 0)" stroke="rgb(204, 204, 204)" stroke-width="1px"></line><line x1="53.1875" y1="17.381427170488063" x2="48.1875" y2="17.381427170488063" style="visibility: inherit;" fill="rgb(0, 0, 0)" stroke="rgb(204, 204, 204)" stroke-width="1px"></line></g><g transform="translate(43.1875, 0)"><text x="0" y="360.6792396009361" dx="0em" dy="0.3em" style="text-anchor: end; visibility: inherit; font-family: Roboto, sans-serif; font-size: 12px; font-weight: 200;" fill="rgb(33, 33, 33)" stroke="none" stroke-width="1px">0.5</text><text x="0" y="303.46293752919473" dx="0em" dy="0.3em" style="text-anchor: end; visibility: inherit; font-family: Roboto, sans-serif; font-size: 12px; font-weight: 200;" fill="rgb(33, 33, 33)" stroke="none" stroke-width="1px">0.55</text><text x="0" y="246.24663545745346" dx="0em" dy="0.3em" style="text-anchor: end; visibility: inherit; font-family: Roboto, sans-serif; font-size: 12px; font-weight: 200;" fill="rgb(33, 33, 33)" stroke="none" stroke-width="1px">0.6</text><text x="0" y="189.03033338571208" dx="0em" dy="0.3em" style="text-anchor: end; visibility: inherit; font-family: Roboto, sans-serif; font-size: 12px; font-weight: 200;" fill="rgb(33, 33, 33)" stroke="none" stroke-width="1px">0.65</text><text x="0" y="131.81403131397082" dx="0em" dy="0.3em" style="text-anchor: end; visibility: inherit; font-family: Roboto, sans-serif; font-size: 12px; font-weight: 200;" fill="rgb(33, 33, 33)" stroke="none" stroke-width="1px">0.7</text><text x="0" y="74.59772924222945" dx="0em" dy="0.3em" style="text-anchor: end; visibility: inherit; font-family: Roboto, sans-serif; font-size: 12px; font-weight: 200;" fill="rgb(33, 33, 33)" stroke="none" stroke-width="1px">0.75</text><text x="0" y="17.381427170488063" dx="0em" dy="0.3em" style="text-anchor: end; visibility: inherit; font-family: Roboto, sans-serif; font-size: 12px; font-weight: 200;" fill="rgb(33, 33, 33)" stroke="none" stroke-width="1px">0.8</text></g><line x1="53.1875" y1="0" x2="53.1875" y2="376" fill="rgb(0, 0, 0)" stroke="rgb(204, 204, 204)" stroke-width="1px"></line></g></g><g transform="translate(53, 0)" clip-path="url(#clip_0)"><clipPath id="clip_0"><rect width="1531" height="376"></rect></clipPath><g><g><g><line x1="11.86926470467488" y1="0" x2="11.86926470467488" y2="376" fill="rgb(0, 0, 0)" stroke="rgb(66, 66, 66)" stroke-width="1px" opacity="0.25"></line><line x1="127.36507702588266" y1="0" x2="127.36507702588266" y2="376" fill="rgb(0, 0, 0)" stroke="rgb(66, 66, 66)" stroke-width="1px" opacity="0.25"></line><line x1="242.86088934709048" y1="0" x2="242.86088934709048" y2="376" fill="rgb(0, 0, 0)" stroke="rgb(66, 66, 66)" stroke-width="1px" opacity="0.25"></line><line x1="358.35670166829823" y1="0" x2="358.35670166829823" y2="376" fill="rgb(0, 0, 0)" stroke="rgb(66, 66, 66)" stroke-width="1px" opacity="0.25"></line><line x1="473.85251398950595" y1="0" x2="473.85251398950595" y2="376" fill="rgb(0, 0, 0)" stroke="rgb(66, 66, 66)" stroke-width="1px" opacity="0.25"></line><line x1="589.3483263107138" y1="0" x2="589.3483263107138" y2="376" fill="rgb(0, 0, 0)" stroke="rgb(66, 66, 66)" stroke-width="1px" opacity="0.25"></line><line x1="704.8441386319216" y1="0" x2="704.8441386319216" y2="376" fill="rgb(0, 0, 0)" stroke="rgb(66, 66, 66)" stroke-width="1px" opacity="0.25"></line><line x1="820.3399509531293" y1="0" x2="820.3399509531293" y2="376" fill="rgb(0, 0, 0)" stroke="rgb(66, 66, 66)" stroke-width="1px" opacity="0.25"></line><line x1="935.8357632743372" y1="0" x2="935.8357632743372" y2="376" fill="rgb(0, 0, 0)" stroke="rgb(66, 66, 66)" stroke-width="1px" opacity="0.25"></line><line x1="1051.331575595545" y1="0" x2="1051.331575595545" y2="376" fill="rgb(0, 0, 0)" stroke="rgb(66, 66, 66)" stroke-width="1px" opacity="0.25"></line><line x1="1166.8273879167527" y1="0" x2="1166.8273879167527" y2="376" fill="rgb(0, 0, 0)" stroke="rgb(66, 66, 66)" stroke-width="1px" opacity="0.25"></line><line x1="1282.3232002379607" y1="0" x2="1282.3232002379607" y2="376" fill="rgb(0, 0, 0)" stroke="rgb(66, 66, 66)" stroke-width="1px" opacity="0.25"></line><line x1="1397.8190125591684" y1="0" x2="1397.8190125591684" y2="376" fill="rgb(0, 0, 0)" stroke="rgb(66, 66, 66)" stroke-width="1px" opacity="0.25"></line><line x1="1513.3148248803761" y1="0" x2="1513.3148248803761" y2="376" fill="rgb(0, 0, 0)" stroke="rgb(66, 66, 66)" stroke-width="1px" opacity="0.25"></line></g><g><line x1="0" y1="360.6792396009361" x2="1531.4125" y2="360.6792396009361" fill="rgb(0, 0, 0)" stroke="rgb(66, 66, 66)" stroke-width="1px" opacity="0.25"></line><line x1="0" y1="303.46293752919473" x2="1531.4125" y2="303.46293752919473" fill="rgb(0, 0, 0)" stroke="rgb(66, 66, 66)" stroke-width="1px" opacity="0.25"></line><line x1="0" y1="246.24663545745346" x2="1531.4125" y2="246.24663545745346" fill="rgb(0, 0, 0)" stroke="rgb(66, 66, 66)" stroke-width="1px" opacity="0.25"></line><line x1="0" y1="189.03033338571208" x2="1531.4125" y2="189.03033338571208" fill="rgb(0, 0, 0)" stroke="rgb(66, 66, 66)" stroke-width="1px" opacity="0.25"></line><line x1="0" y1="131.81403131397082" x2="1531.4125" y2="131.81403131397082" fill="rgb(0, 0, 0)" stroke="rgb(66, 66, 66)" stroke-width="1px" opacity="0.25"></line><line x1="0" y1="74.59772924222945" x2="1531.4125" y2="74.59772924222945" fill="rgb(0, 0, 0)" stroke="rgb(66, 66, 66)" stroke-width="1px" opacity="0.25"></line><line x1="0" y1="17.381427170488063" x2="1531.4125" y2="17.381427170488063" fill="rgb(0, 0, 0)" stroke="rgb(66, 66, 66)" stroke-width="1px" opacity="0.25"></line></g></g></g><g><g><line x1="0" y1="932.8422603183495" x2="1531.4125" y2="932.8422603183495" fill="rgb(0, 0, 0)" stroke="rgb(153, 153, 153)" stroke-width="1.5px"></line></g></g><g><g><line x1="11.86926470467488" y1="0" x2="11.86926470467488" y2="376" fill="rgb(0, 0, 0)" stroke="rgb(153, 153, 153)" stroke-width="1.5px"></line></g></g><g><g><g><g><g><path stroke="rgb(255, 112, 67)" stroke-width="2px" d="M17.64405532073527,354.1177120396274L23.41884593679566,349.5223791838485L29.193636552856052,347.11485628098154L34.968427168916435,345.2539576261556L40.74321778497683,339.14070206885515L46.51800840103722,331.7762378961653L52.29279901709761,325.5757346950846L58.067589633158,322.40687282829145L63.84238024921838,314.0863908820804L69.61717086527877,308.22094835105065L75.39196148133917,303.4219579228953L81.16675209739955,298.7630371525324L86.94154271345994,298.57835659711986L92.71633332952034,295.0235801280618L98.49112394558072,290.18076866286566L104.26591456164111,287.182854662437L110.04070517770151,286.6386093764195L115.8154957937619,282.33141732717803L121.59028640982228,279.52300790519723L127.36507702588266,276.0018388274535L133.13986764194306,272.8160298156273L138.91465825800344,269.43762124225947L144.68944887406383,266.75680693153924L150.4642394901242,263.6909841046303L156.23903010618463,261.3485621198815L162.01382072224501,259.0330143232027L167.7886113383054,256.3966133572747L173.5634019543658,253.94853777331102L179.33819257042617,251.9446349112655L185.11298318648656,249.94119139173532L190.88777380254697,248.02404086233014L196.66256441860736,246.101777622041L202.43735503466772,244.2152114037605L208.21214565072813,242.1649649011842L213.9869362667885,240.38442900654903L219.7617268828489,238.51734762700607L225.5365174989093,236.82342053396113L231.3113081149697,235.21865740419332L237.08609873103006,233.5933221157395L242.86088934709048,231.94891009527242L248.63567996315084,230.38472373341915L254.41047057921122,228.95881360998607L260.1852611952716,227.7238901075061L265.960051811332,226.5755791246881L271.73484242739244,225.32926960276285L277.50963304345277,223.96210460248918L283.2844236595132,222.82453923662214L289.05921427557354,221.65041868416537L294.834004891634,220.4145109743936L300.60879550769437,219.20115466359414L306.38358612375475,218.0090103319272L312.15837673981514,216.94038505622626L317.9331673558755,215.78504393074232L323.7079579719359,214.69745491590376L329.4827485879963,213.6494240338158L335.2575392040567,212.73517044921016L341.03232982011707,212.1370883007924L346.80712043617746,211.25703354744275L352.58191105223784,210.2694568690681L358.35670166829823,209.4049017909415L364.1314922843586,208.41354538988756L369.90628290041906,207.4105408523002L375.6810735164794,206.3749391491546L381.45586413253983,205.39286821730872L387.2306547486002,204.482709981841L393.0054453646606,203.6617524100938L398.780235980721,202.7843484540014L404.5550265967813,201.89285491115805L410.3298172128418,201.06655780282364L416.10460782890215,200.12806682013093L421.87939844496253,199.2925742677499L427.6541890610229,198.4802994626119L433.42897967708325,197.63439243904674L439.20377029314375,197.05041693473896L444.9785609092041,196.11896272084363L450.75335152526446,195.6421821873393L456.52814214132485,194.96540458004142L462.3029327573853,194.4108729279387L468.0777233734457,193.8013152821674L473.85251398950595,193.10464128653055L479.6273046055664,192.39146175581678L485.4020952216268,191.67902626893758L491.17688583768717,191.0002347927136L496.9516764537475,190.28877439560233L502.726467069808,189.65844961883667L508.5012576858683,189.0109585214163L514.2760483019287,188.31539295729115L520.050838917989,187.65121645148588L525.8256295340495,187.04818535488388L531.6004201501099,186.4890426693376L537.3752107661703,185.86679864747882L543.1500013822306,185.40732287847692L548.924791998291,184.8986548799777L554.6995826143515,184.4446777826119L560.4743732304119,183.88447878104859L566.2491638464722,183.30729994864365L572.0239544625326,182.75621968417906L577.798745078593,182.13208839282692L583.5735356946534,181.50665984570068L589.3483263107138,181.10050304642309L595.1231169267742,180.5112427161095L600.8979075428346,179.9741260947487L606.672698158895,179.487653520634L612.4474887749553,178.93086713515132L618.2222793910157,178.46365289954136L623.9970700070761,177.97917845944224L629.7718606231365,177.3745060742954L635.5466512391969,176.84510558997107L641.3214418552573,176.27462267468675L647.0962324713176,175.76489078459414L652.871023087378,175.15198849010372L658.6458137034384,174.5995602585086L664.4206043194988,174.10602313444153L670.1953949355592,173.56028273631458L675.9701855516197,173.04819242854748L681.7449761676801,172.53296475429286L687.5197667837404,171.9790356747471L693.2945573998007,171.43450585030445L699.0693480158612,170.8874468922124L704.8441386319216,170.40751470884854L710.618929247982,169.98156199773493L716.3937198640423,169.45981467580566L722.1685104801027,169.04856170559154L727.9433010961632,168.5427229354538L733.7180917122236,168.11196599921414L739.4928823282839,167.69913516265305L745.2676729443442,167.21582819852227L751.0424635604047,166.8274217246878L756.8172541764651,166.42336960969342L762.5920447925255,165.9717423300511L768.3668354085859,165.6124837829669L774.1416260246461,165.30110558914504L779.9164166407066,164.8996225495697L785.6912072567671,164.5145998039833L791.4659978728274,164.12490273690614L797.2407884888878,163.7512606623959L803.0155791049481,163.35234590847676L808.7903697210086,162.98974936562692L814.5651603370691,162.60205521884217L820.3399509531293,162.25002958561157L826.1147415691897,161.95287506764174L831.88953218525,161.69954731707725L837.6643228013105,161.43008019554074L843.439113417371,161.07633731465157L849.2139040334313,160.69832841687216L854.9886946494917,160.36413082068867L860.7634852655522,159.97691806858873L866.5382758816124,159.61401695558533L872.3130664976729,159.2559958353677L878.0878571137332,158.87450644694337L883.8626477297936,158.5261565751502L889.6374383458541,158.17309686242663L895.4122289619144,157.8339068993326L901.1870195779749,157.48075014541683L906.9618101940351,157.20524207179992L912.7366008100955,156.90602951608906L918.511391426156,156.54744182810845L924.2861820422163,156.19340249439776L930.0609726582768,155.84382569666133L935.8357632743372,155.50749922131746L941.6105538903975,155.12243613250118L947.385344506458,154.78598901524944L953.1601351225182,154.4885626897159L958.9349257385787,154.11672440284954L964.7097163546391,153.8097679546067L970.4845069706995,153.5408213551107L976.2592975867599,153.24951721826596L982.0340882028202,152.97017096502105L987.8088788188807,152.6688306987117L993.583669434941,152.4046053158393L999.3584600510014,152.0934057901039L1005.1332506670618,151.77753280360167L1010.9080412831223,151.4900910609445L1016.6828318991826,151.18132125745885L1022.457622515243,150.90060039472468L1028.2324131313032,150.63120559243717L1034.0072037473637,150.35677665926582L1039.7819943634242,150.09348363973888L1045.5567849794845,149.80112666192403L1051.331575595545,149.51998950076722L1057.1063662116053,149.22612233054193L1062.8811568276658,148.9433757506194L1068.655947443726,148.64804089853087L1074.4307380597863,148.40275352790462L1080.2055286758468,148.13682622063214L1085.9803192919073,147.85058175421068L1091.7551099079676,147.58278864499894L1097.529900524028,147.32550622748786L1103.3046911400884,147.0861878800407L1109.0794817561489,146.8342354433324L1114.8542723722094,146.60756208477218L1120.6290629882697,146.35322243531328L1126.40385360433,146.10152648739705L1132.1786442203904,145.89706402434965L1137.9534348364507,145.6576857512961L1143.7282254525112,145.41338814470487L1149.5030160685715,145.1495715663371L1155.277806684632,144.88842837926458L1161.0525973006925,144.7098781562359L1166.8273879167527,144.4752291630781L1172.6021785328132,144.22131186178146L1178.3769691488735,143.96991701779208L1184.1517597649338,143.77098470558124L1189.9265503809943,143.54557693342142L1195.7013409970546,143.30114565307068L1201.476131613115,143.0590957646051L1207.2509222291756,142.83342326473124L1213.0257128452358,142.60992840565189L1218.8005034612963,142.38857992904673L1224.5752940773566,142.2178222426708L1230.350084693417,142.02110675776373L1236.1248753094774,141.8193875777216L1241.8996659255376,141.6537566261862L1247.6744565415981,141.4624444478121L1253.4492471576584,141.2796990318093L1259.224037773719,141.0851477562488L1264.9988283897794,140.919293894502L1270.7736190058397,140.75496757234063L1276.5484096219002,140.58547850316043L1282.3232002379607,140.41753637493105L1288.097990854021,140.2577355661277L1293.8727814700812,140.0993802381984L1299.6475720861417,139.92932621105106L1305.422362702202,139.76733300619884L1311.1971533182625,139.5937651313026L1316.9719439343228,139.44119355810582L1322.7467345503833,139.2835127659895L1328.5215251664436,139.12078712768522L1334.296315782504,138.9402620666512L1340.0711063985646,138.7868500936473L1345.8458970146248,138.6411317333765L1351.620687630685,138.47133443022494L1357.3954782467456,138.30300112433963L1363.1702688628059,138.14868718789242L1368.9450594788664,137.964376217297L1374.7198500949266,137.78163436218009L1380.4946407109871,137.61909077042154L1386.2694313270476,137.45791945799957L1392.044221943108,137.29810319934964L1397.8190125591684,137.13962505599835L1403.5938031752287,136.98246837060708L1409.3685937912892,136.82661676116558L1415.1433844073495,136.66597366770094L1420.9181750234097,136.49453721877452L1426.6929656394702,136.3245071658158L1432.4677562555307,136.1498514084533L1438.242546871591,135.97661697044816L1444.0173374876515,135.81673099361444L1449.7921281037118,135.65813579673633L1455.5669187197723,135.50081589012865L1461.3417093358325,135.35066500476844L1467.116499951893,135.19582367705024" style="fill: none;" fill="none"></path></g></g></g></g><g opacity="0.2"><g><g><g><path stroke="rgb(255, 112, 67)" stroke-width="2px" d="M17.64405532073527,354.1177120396274L23.41884593679566,344.9316416609423L29.193636552856052,342.3070306364188L34.968427168916435,339.6824196118953L40.74321778497683,314.7487512932164L46.51800840103722,295.06423681643736L52.29279901709761,288.5027092551286L58.067589633158,300.31339065833714L63.84238024921838,247.8213747893087L69.61717086527877,255.69520786287922L75.39196148133917,255.69520786287922L81.16675209739955,247.8213747893087L86.94154271345994,296.37654232869914L92.71633332952034,249.13368030157042L98.49112394558072,222.88770647062978L104.26591456164111,242.57222094740888L110.04070517770151,278.0043333641818L115.8154957937619,209.7646513480123L121.59028640982228,229.44916582479135L127.36507702588266,209.7646513480123L133.13986764194306,209.7646513480123L138.91465825800344,199.2662754570655L144.68944887406383,208.45241404289777L150.4642394901242,194.01705340801846L156.23903010618463,205.82780301837423L162.01382072224501,201.89088648158898L167.7886113383054,188.76789956611867L173.5634019543658,188.76789956611867L179.33819257042617,196.64166443254197L185.11298318648656,192.70474789575673L190.88777380254697,191.39244238349497L196.66256441860736,187.45559405385688L202.43735503466772,184.8309830293334L208.21214565072813,175.6448444435011L213.9869362667885,180.89406649254815L219.7617268828489,174.33253893123938L225.5365174989093,176.95714995576287L231.3113081149697,176.95714995576287L237.08609873103006,173.02023341897763L242.86088934709048,169.08338508933957L248.63567996315084,169.08338508933957L254.41047057921122,171.7079961138631L260.1852611952716,176.95714995576287L265.960051811332,178.26945546802466L271.73484242739244,171.7079961138631L277.50963304345277,163.83416304029257L283.2844236595132,171.7079961138631L289.05921427557354,167.77107957707784L294.834004891634,162.5218575280308L300.60879550769437,161.20955201576908L306.38358612375475,159.89724650350732L312.15837673981514,163.83416304029257L317.9331673558755,157.27263547898383L323.7079579719359,158.58494099124556L329.4827485879963,158.58494099124556L335.2575392040567,163.83416304029257L341.03232982011707,179.5817609802864L346.80712043617746,162.5218575280308L352.58191105223784,154.64809266160754L358.35670166829823,159.89724650350732L364.1314922843586,150.71117612482226L369.90628290041906,148.08656510029874L375.6810735164794,144.14964856351347L381.45586413253983,145.46195407577525L387.2306547486002,148.08656510029874L393.0054453646606,152.023481637084L398.780235980721,146.774259588037L404.5550265967813,144.14964856351347L410.3298172128418,146.774259588037L416.10460782890215,137.58812100220473L421.87939844496253,142.83734305125176L427.6541890610229,142.83734305125176L433.42897967708325,138.9004265144665L439.20377029314375,155.96032996672207L444.9785609092041,129.71435613578143L450.75335152526446,161.20955201576908L456.52814214132485,145.46195407577525L462.3029327573853,153.33578714934575L468.0777233734457,148.08656510029874L473.85251398950595,140.21273202672822L479.6273046055664,137.58812100220473L485.4020952216268,136.2758836970902L491.17688583768717,137.58812100220473L496.9516764537475,133.6512726725667L502.726467069808,138.9004265144665L508.5012576858683,136.2758836970902L514.2760483019287,131.02666164804316L520.050838917989,132.33896716030495L525.8256295340495,136.2758836970902L531.6004201501099,138.9004265144665L537.3752107661703,132.33896716030495L543.1500013822306,145.46195407577525L548.924791998291,140.21273202672822L554.6995826143515,144.14964856351347L560.4743732304119,133.6512726725667L566.2491638464722,131.02666164804316L572.0239544625326,132.33896716030495L577.798745078593,124.46513408673442L583.5735356946534,123.15282857447265L589.3483263107138,142.83734305125176L595.1231169267742,124.46513408673442L600.8979075428346,128.40205062351967L606.672698158895,132.33896716030495L612.4474887749553,124.46513408673442L618.2222793910157,132.33896716030495L623.9970700070761,129.71435613578143L629.7718606231365,116.5913692203111L635.5466512391969,123.15282857447265L641.3214418552573,117.90367473257285L647.0962324713176,123.15282857447265L652.871023087378,111.34214717126412L658.6458137034384,116.5913692203111L664.4206043194988,121.84052306221093L670.1953949355592,115.27906370804936L675.9701855516197,117.90367473257285L681.7449761676801,116.5913692203111L687.5197667837404,111.34214717126412L693.2945573998007,111.34214717126412L699.0693480158612,110.02984165900234L704.8441386319216,116.5913692203111L710.618929247982,121.84052306221093L716.3937198640423,110.02984165900234L722.1685104801027,121.84052306221093L727.9433010961632,110.02984165900234L733.7180917122236,117.90367473257285L739.4928823282839,119.21598024483463L745.2676729443442,110.02984165900234L751.0424635604047,120.52821754994916L756.8172541764651,117.90367473257285L762.5920447925255,111.34214717126412L768.3668354085859,121.84052306221093L774.1416260246461,127.08974511125791L779.9164166407066,115.27906370804936L785.6912072567671,116.5913692203111L791.4659978728274,115.27906370804936L797.2407884888878,116.5913692203111L803.0155791049481,112.65445268352583L808.7903697210086,116.5913692203111L814.5651603370691,112.65445268352583L820.3399509531293,116.5913692203111L826.1147415691897,123.15282857447265L831.88953218525,128.40205062351967L837.6643228013105,125.77743959899618L843.439113417371,113.9667581957876L849.2139040334313,110.02984165900234L854.9886946494917,115.27906370804936L860.7634852655522,107.40523063447885L866.5382758816124,110.02984165900234L872.3130664976729,110.02984165900234L878.0878571137332,106.09292512221708L883.8626477297936,110.02984165900234L889.6374383458541,108.71753614674057L895.4122289619144,110.02984165900234L901.1870195779749,107.40523063447885L906.9618101940351,117.90367473257285L912.7366008100955,113.9667581957876L918.511391426156,104.78061960995532L924.2861820422163,104.78061960995532L930.0609726582768,104.78061960995532L935.8357632743372,106.09292512221708L941.6105538903975,98.2191602557938L947.385344506458,104.78061960995532L953.1601351225182,110.02984165900234L958.9349257385787,98.2191602557938L964.7097163546391,107.40523063447885L970.4845069706995,112.65445268352583L976.2592975867599,108.71753614674057L982.0340882028202,110.02984165900234L987.8088788188807,106.09292512221708L993.583669434941,111.34214717126412L999.3584600510014,103.4683140976936L1005.1332506670618,102.15600858543183L1010.9080412831223,106.09292512221708L1016.6828318991826,102.15600858543183L1022.457622515243,106.09292512221708L1028.2324131313032,107.40523063447885L1034.0072037473637,106.09292512221708L1039.7819943634242,107.40523063447885L1045.5567849794845,102.15600858543183L1051.331575595545,103.4683140976936L1057.1063662116053,100.8437712803173L1062.8811568276658,102.15600858543183L1068.655947443726,99.53146576805553L1074.4307380597863,107.40523063447885L1080.2055286758468,103.4683140976936L1085.9803192919073,99.53146576805553L1091.7551099079676,102.15600858543183L1097.529900524028,103.4683140976936L1103.3046911400884,106.09292512221708L1109.0794817561489,103.4683140976936L1114.8542723722094,107.40523063447885L1120.6290629882697,102.15600858543183L1126.40385360433,102.15600858543183L1132.1786442203904,110.02984165900234L1137.9534348364507,103.4683140976936L1143.7282254525112,102.15600858543183L1149.5030160685715,98.2191602557938L1155.277806684632,98.2191602557938L1161.0525973006925,112.65445268352583L1166.8273879167527,102.15600858543183L1172.6021785328132,98.2191602557938L1178.3769691488735,98.2191602557938L1184.1517597649338,107.40523063447885L1189.9265503809943,102.15600858543183L1195.7013409970546,98.2191602557938L1201.476131613115,98.2191602557938L1207.2509222291756,100.8437712803173L1213.0257128452358,100.8437712803173L1218.8005034612963,100.8437712803173L1224.5752940773566,110.02984165900234L1230.350084693417,104.78061960995532L1236.1248753094774,103.4683140976936L1241.8996659255376,110.02984165900234L1247.6744565415981,104.78061960995532L1253.4492471576584,106.09292512221708L1259.224037773719,103.4683140976936L1264.9988283897794,108.71753614674057L1270.7736190058397,108.71753614674057L1276.5484096219002,107.40523063447885L1282.3232002379607,107.40523063447885L1288.097990854021,108.71753614674057L1293.8727814700812,108.71753614674057L1299.6475720861417,106.09292512221708L1305.422362702202,107.40523063447885L1311.1971533182625,104.78061960995532L1316.9719439343228,108.71753614674057L1322.7467345503833,107.40523063447885L1328.5215251664436,106.09292512221708L1334.296315782504,102.15600858543183L1340.0711063985646,107.40523063447885L1345.8458970146248,108.71753614674057L1351.620687630685,103.4683140976936L1357.3954782467456,103.4683140976936L1363.1702688628059,106.09292512221708L1368.9450594788664,99.53146576805553L1374.7198500949266,99.53146576805553L1380.4946407109871,103.4683140976936L1386.2694313270476,103.4683140976936L1392.044221943108,103.4683140976936L1397.8190125591684,103.4683140976936L1403.5938031752287,103.4683140976936L1409.3685937912892,103.4683140976936L1415.1433844073495,102.15600858543183L1420.9181750234097,99.53146576805553L1426.6929656394702,99.53146576805553L1432.4677562555307,98.2191602557938L1438.242546871591,98.2191602557938L1444.0173374876515,100.8437712803173L1449.7921281037118,100.8437712803173L1455.5669187197723,100.8437712803173L1461.3417093358325,102.15600858543183L1467.116499951893,100.8437712803173" style="fill: none;" fill="none"></path></g></g></g></g></g></g><g transform="translate(53, 376)" clip-path="url(#clip_1)"><clipPath id="clip_1"><rect width="1531" height="24"></rect></clipPath><g><g><line x1="11.86926470467488" y1="0" x2="11.86926470467488" y2="5" style="visibility: inherit;" fill="rgb(0, 0, 0)" stroke="rgb(204, 204, 204)" stroke-width="1px"></line><line x1="127.36507702588266" y1="0" x2="127.36507702588266" y2="5" style="visibility: inherit;" fill="rgb(0, 0, 0)" stroke="rgb(204, 204, 204)" stroke-width="1px"></line><line x1="242.86088934709048" y1="0" x2="242.86088934709048" y2="5" style="visibility: inherit;" fill="rgb(0, 0, 0)" stroke="rgb(204, 204, 204)" stroke-width="1px"></line><line x1="358.35670166829823" y1="0" x2="358.35670166829823" y2="5" style="visibility: inherit;" fill="rgb(0, 0, 0)" stroke="rgb(204, 204, 204)" stroke-width="1px"></line><line x1="473.85251398950595" y1="0" x2="473.85251398950595" y2="5" style="visibility: inherit;" fill="rgb(0, 0, 0)" stroke="rgb(204, 204, 204)" stroke-width="1px"></line><line x1="589.3483263107138" y1="0" x2="589.3483263107138" y2="5" style="visibility: inherit;" fill="rgb(0, 0, 0)" stroke="rgb(204, 204, 204)" stroke-width="1px"></line><line x1="704.8441386319216" y1="0" x2="704.8441386319216" y2="5" style="visibility: inherit;" fill="rgb(0, 0, 0)" stroke="rgb(204, 204, 204)" stroke-width="1px"></line><line x1="820.3399509531293" y1="0" x2="820.3399509531293" y2="5" style="visibility: inherit;" fill="rgb(0, 0, 0)" stroke="rgb(204, 204, 204)" stroke-width="1px"></line><line x1="935.8357632743372" y1="0" x2="935.8357632743372" y2="5" style="visibility: inherit;" fill="rgb(0, 0, 0)" stroke="rgb(204, 204, 204)" stroke-width="1px"></line><line x1="1051.331575595545" y1="0" x2="1051.331575595545" y2="5" style="visibility: inherit;" fill="rgb(0, 0, 0)" stroke="rgb(204, 204, 204)" stroke-width="1px"></line><line x1="1166.8273879167527" y1="0" x2="1166.8273879167527" y2="5" style="visibility: inherit;" fill="rgb(0, 0, 0)" stroke="rgb(204, 204, 204)" stroke-width="1px"></line><line x1="1282.3232002379607" y1="0" x2="1282.3232002379607" y2="5" style="visibility: inherit;" fill="rgb(0, 0, 0)" stroke="rgb(204, 204, 204)" stroke-width="1px"></line><line x1="1397.8190125591684" y1="0" x2="1397.8190125591684" y2="5" style="visibility: inherit;" fill="rgb(0, 0, 0)" stroke="rgb(204, 204, 204)" stroke-width="1px"></line><line x1="1513.3148248803761" y1="0" x2="1513.3148248803761" y2="5" style="visibility: inherit;" fill="rgb(0, 0, 0)" stroke="rgb(204, 204, 204)" stroke-width="1px"></line></g><g transform="translate(0, 8)"><text x="11.86926470467488" y="0" dx="0em" dy="0.95em" style="text-anchor: middle; visibility: inherit; font-family: Roboto, sans-serif; font-size: 12px; font-weight: 200;" fill="rgb(33, 33, 33)" stroke="none" stroke-width="1px">0</text><text x="127.36507702588266" y="0" dx="0em" dy="0.95em" style="text-anchor: middle; visibility: inherit; font-family: Roboto, sans-serif; font-size: 12px; font-weight: 200;" fill="rgb(33, 33, 33)" stroke="none" stroke-width="1px">2k</text><text x="242.86088934709048" y="0" dx="0em" dy="0.95em" style="text-anchor: middle; visibility: inherit; font-family: Roboto, sans-serif; font-size: 12px; font-weight: 200;" fill="rgb(33, 33, 33)" stroke="none" stroke-width="1px">4k</text><text x="358.35670166829823" y="0" dx="0em" dy="0.95em" style="text-anchor: middle; visibility: inherit; font-family: Roboto, sans-serif; font-size: 12px; font-weight: 200;" fill="rgb(33, 33, 33)" stroke="none" stroke-width="1px">6k</text><text x="473.85251398950595" y="0" dx="0em" dy="0.95em" style="text-anchor: middle; visibility: inherit; font-family: Roboto, sans-serif; font-size: 12px; font-weight: 200;" fill="rgb(33, 33, 33)" stroke="none" stroke-width="1px">8k</text><text x="589.3483263107138" y="0" dx="0em" dy="0.95em" style="text-anchor: middle; visibility: inherit; font-family: Roboto, sans-serif; font-size: 12px; font-weight: 200;" fill="rgb(33, 33, 33)" stroke="none" stroke-width="1px">10k</text><text x="704.8441386319216" y="0" dx="0em" dy="0.95em" style="text-anchor: middle; visibility: inherit; font-family: Roboto, sans-serif; font-size: 12px; font-weight: 200;" fill="rgb(33, 33, 33)" stroke="none" stroke-width="1px">12k</text><text x="820.3399509531293" y="0" dx="0em" dy="0.95em" style="text-anchor: middle; visibility: inherit; font-family: Roboto, sans-serif; font-size: 12px; font-weight: 200;" fill="rgb(33, 33, 33)" stroke="none" stroke-width="1px">14k</text><text x="935.8357632743372" y="0" dx="0em" dy="0.95em" style="text-anchor: middle; visibility: inherit; font-family: Roboto, sans-serif; font-size: 12px; font-weight: 200;" fill="rgb(33, 33, 33)" stroke="none" stroke-width="1px">16k</text><text x="1051.331575595545" y="0" dx="0em" dy="0.95em" style="text-anchor: middle; visibility: inherit; font-family: Roboto, sans-serif; font-size: 12px; font-weight: 200;" fill="rgb(33, 33, 33)" stroke="none" stroke-width="1px">18k</text><text x="1166.8273879167527" y="0" dx="0em" dy="0.95em" style="text-anchor: middle; visibility: inherit; font-family: Roboto, sans-serif; font-size: 12px; font-weight: 200;" fill="rgb(33, 33, 33)" stroke="none" stroke-width="1px">20k</text><text x="1282.3232002379607" y="0" dx="0em" dy="0.95em" style="text-anchor: middle; visibility: inherit; font-family: Roboto, sans-serif; font-size: 12px; font-weight: 200;" fill="rgb(33, 33, 33)" stroke="none" stroke-width="1px">22k</text><text x="1397.8190125591684" y="0" dx="0em" dy="0.95em" style="text-anchor: middle; visibility: inherit; font-family: Roboto, sans-serif; font-size: 12px; font-weight: 200;" fill="rgb(33, 33, 33)" stroke="none" stroke-width="1px">24k</text><text x="1513.3148248803761" y="0" dx="0em" dy="0.95em" style="text-anchor: middle; visibility: inherit; font-family: Roboto, sans-serif; font-size: 12px; font-weight: 200;" fill="rgb(33, 33, 33)" stroke="none" stroke-width="1px">26k</text></g><line x1="0" y1="0" x2="1531.4125" y2="0" fill="rgb(0, 0, 0)" stroke="rgb(204, 204, 204)" stroke-width="1px"></line></g></g></g></g></svg>