<svg viewBox="0 0 1584.5999755859375 400" xmlns="http://www.w3.org/2000/svg"><g><g><g><g><g><line x1="53.1875" y1="359.7419509067216" x2="48.1875" y2="359.7419509067216" style="visibility: inherit;" fill="rgb(0, 0, 0)" stroke="rgb(204, 204, 204)" stroke-width="1px"></line><line x1="53.1875" y1="301.8901405496444" x2="48.1875" y2="301.8901405496444" style="visibility: inherit;" fill="rgb(0, 0, 0)" stroke="rgb(204, 204, 204)" stroke-width="1px"></line><line x1="53.1875" y1="244.03833019256732" x2="48.1875" y2="244.03833019256732" style="visibility: inherit;" fill="rgb(0, 0, 0)" stroke="rgb(204, 204, 204)" stroke-width="1px"></line><line x1="53.1875" y1="186.1865198354901" x2="48.1875" y2="186.1865198354901" style="visibility: inherit;" fill="rgb(0, 0, 0)" stroke="rgb(204, 204, 204)" stroke-width="1px"></line><line x1="53.1875" y1="128.334709478413" x2="48.1875" y2="128.334709478413" style="visibility: inherit;" fill="rgb(0, 0, 0)" stroke="rgb(204, 204, 204)" stroke-width="1px"></line><line x1="53.1875" y1="70.4828991213358" x2="48.1875" y2="70.4828991213358" style="visibility: inherit;" fill="rgb(0, 0, 0)" stroke="rgb(204, 204, 204)" stroke-width="1px"></line><line x1="53.1875" y1="12.631088764258585" x2="48.1875" y2="12.631088764258585" style="visibility: inherit;" fill="rgb(0, 0, 0)" stroke="rgb(204, 204, 204)" stroke-width="1px"></line></g><g transform="translate(43.1875, 0)"><text x="0" y="359.7419509067216" dx="0em" dy="0.3em" style="text-anchor: end; visibility: inherit; font-family: Roboto, sans-serif; font-size: 12px; font-weight: 200;" fill="rgb(33, 33, 33)" stroke="none" stroke-width="1px">0.5</text><text x="0" y="301.8901405496444" dx="0em" dy="0.3em" style="text-anchor: end; visibility: inherit; font-family: Roboto, sans-serif; font-size: 12px; font-weight: 200;" fill="rgb(33, 33, 33)" stroke="none" stroke-width="1px">0.55</text><text x="0" y="244.03833019256732" dx="0em" dy="0.3em" style="text-anchor: end; visibility: inherit; font-family: Roboto, sans-serif; font-size: 12px; font-weight: 200;" fill="rgb(33, 33, 33)" stroke="none" stroke-width="1px">0.6</text><text x="0" y="186.1865198354901" dx="0em" dy="0.3em" style="text-anchor: end; visibility: inherit; font-family: Roboto, sans-serif; font-size: 12px; font-weight: 200;" fill="rgb(33, 33, 33)" stroke="none" stroke-width="1px">0.65</text><text x="0" y="128.334709478413" dx="0em" dy="0.3em" style="text-anchor: end; visibility: inherit; font-family: Roboto, sans-serif; font-size: 12px; font-weight: 200;" fill="rgb(33, 33, 33)" stroke="none" stroke-width="1px">0.7</text><text x="0" y="70.4828991213358" dx="0em" dy="0.3em" style="text-anchor: end; visibility: inherit; font-family: Roboto, sans-serif; font-size: 12px; font-weight: 200;" fill="rgb(33, 33, 33)" stroke="none" stroke-width="1px">0.75</text><text x="0" y="12.631088764258585" dx="0em" dy="0.3em" style="text-anchor: end; visibility: inherit; font-family: Roboto, sans-serif; font-size: 12px; font-weight: 200;" fill="rgb(33, 33, 33)" stroke="none" stroke-width="1px">0.8</text></g><line x1="53.1875" y1="0" x2="53.1875" y2="376" fill="rgb(0, 0, 0)" stroke="rgb(204, 204, 204)" stroke-width="1px"></line></g></g><g transform="translate(53, 0)" clip-path="url(#clip_0)"><clipPath id="clip_0"><rect width="1531" height="376"></rect></clipPath><g><g><g><line x1="15.436675663064023" y1="0" x2="15.436675663064023" y2="376" fill="rgb(0, 0, 0)" stroke="rgb(66, 66, 66)" stroke-width="1px" opacity="0.25"></line><line x1="130.88668730000958" y1="0" x2="130.88668730000958" y2="376" fill="rgb(0, 0, 0)" stroke="rgb(66, 66, 66)" stroke-width="1px" opacity="0.25"></line><line x1="246.33669893695514" y1="0" x2="246.33669893695514" y2="376" fill="rgb(0, 0, 0)" stroke="rgb(66, 66, 66)" stroke-width="1px" opacity="0.25"></line><line x1="361.78671057390073" y1="0" x2="361.78671057390073" y2="376" fill="rgb(0, 0, 0)" stroke="rgb(66, 66, 66)" stroke-width="1px" opacity="0.25"></line><line x1="477.2367222108463" y1="0" x2="477.2367222108463" y2="376" fill="rgb(0, 0, 0)" stroke="rgb(66, 66, 66)" stroke-width="1px" opacity="0.25"></line><line x1="592.6867338477919" y1="0" x2="592.6867338477919" y2="376" fill="rgb(0, 0, 0)" stroke="rgb(66, 66, 66)" stroke-width="1px" opacity="0.25"></line><line x1="708.1367454847374" y1="0" x2="708.1367454847374" y2="376" fill="rgb(0, 0, 0)" stroke="rgb(66, 66, 66)" stroke-width="1px" opacity="0.25"></line><line x1="823.586757121683" y1="0" x2="823.586757121683" y2="376" fill="rgb(0, 0, 0)" stroke="rgb(66, 66, 66)" stroke-width="1px" opacity="0.25"></line><line x1="939.0367687586287" y1="0" x2="939.0367687586287" y2="376" fill="rgb(0, 0, 0)" stroke="rgb(66, 66, 66)" stroke-width="1px" opacity="0.25"></line><line x1="1054.486780395574" y1="0" x2="1054.486780395574" y2="376" fill="rgb(0, 0, 0)" stroke="rgb(66, 66, 66)" stroke-width="1px" opacity="0.25"></line><line x1="1169.9367920325196" y1="0" x2="1169.9367920325196" y2="376" fill="rgb(0, 0, 0)" stroke="rgb(66, 66, 66)" stroke-width="1px" opacity="0.25"></line><line x1="1285.3868036694653" y1="0" x2="1285.3868036694653" y2="376" fill="rgb(0, 0, 0)" stroke="rgb(66, 66, 66)" stroke-width="1px" opacity="0.25"></line><line x1="1400.8368153064107" y1="0" x2="1400.8368153064107" y2="376" fill="rgb(0, 0, 0)" stroke="rgb(66, 66, 66)" stroke-width="1px" opacity="0.25"></line><line x1="1516.2868269433563" y1="0" x2="1516.2868269433563" y2="376" fill="rgb(0, 0, 0)" stroke="rgb(66, 66, 66)" stroke-width="1px" opacity="0.25"></line></g><g><line x1="0" y1="359.7419509067216" x2="1531.4125" y2="359.7419509067216" fill="rgb(0, 0, 0)" stroke="rgb(66, 66, 66)" stroke-width="1px" opacity="0.25"></line><line x1="0" y1="301.8901405496444" x2="1531.4125" y2="301.8901405496444" fill="rgb(0, 0, 0)" stroke="rgb(66, 66, 66)" stroke-width="1px" opacity="0.25"></line><line x1="0" y1="244.03833019256732" x2="1531.4125" y2="244.03833019256732" fill="rgb(0, 0, 0)" stroke="rgb(66, 66, 66)" stroke-width="1px" opacity="0.25"></line><line x1="0" y1="186.1865198354901" x2="1531.4125" y2="186.1865198354901" fill="rgb(0, 0, 0)" stroke="rgb(66, 66, 66)" stroke-width="1px" opacity="0.25"></line><line x1="0" y1="128.334709478413" x2="1531.4125" y2="128.334709478413" fill="rgb(0, 0, 0)" stroke="rgb(66, 66, 66)" stroke-width="1px" opacity="0.25"></line><line x1="0" y1="70.4828991213358" x2="1531.4125" y2="70.4828991213358" fill="rgb(0, 0, 0)" stroke="rgb(66, 66, 66)" stroke-width="1px" opacity="0.25"></line><line x1="0" y1="12.631088764258585" x2="1531.4125" y2="12.631088764258585" fill="rgb(0, 0, 0)" stroke="rgb(66, 66, 66)" stroke-width="1px" opacity="0.25"></line></g></g></g><g><g><line x1="0" y1="938.2600544774933" x2="1531.4125" y2="938.2600544774933" fill="rgb(0, 0, 0)" stroke="rgb(153, 153, 153)" stroke-width="1.5px"></line></g></g><g><g><line x1="15.436675663064023" y1="0" x2="15.436675663064023" y2="376" fill="rgb(0, 0, 0)" stroke="rgb(153, 153, 153)" stroke-width="1.5px"></line></g></g><g><g><g><g><g><path stroke="rgb(255, 112, 67)" stroke-width="2px" d="M21.2091762449113,65.97046773406164L26.98167682675858,61.0506155136623L32.754177408605855,69.02366003517514L38.52667799045314,68.20126778344981L44.29917857230041,74.5248377609954L50.071679154147695,73.13420024073412L55.84417973599497,72.73772365710826L61.616680317842246,78.14423413833391L67.38918089968952,79.7032608549332L73.1616814815368,82.04299880558166L78.93418206338409,87.46696437374027L84.70668264523137,90.90107933184113L90.47918322707865,93.95907635088768L96.25168380892592,97.04603923874257L102.0241843907732,100.49817146490368L107.79668497262047,102.57890325049725L113.56918555446775,103.79051649757584L119.34168613631503,103.94694477788228L125.1141867181623,107.3620085067354L130.88668730000958,108.99299476003794L136.65918788185687,110.10691905200551L142.43168846370415,111.2790125824625L148.20418904555143,113.61563337679611L153.9766896273987,114.83096309478063L159.749190209246,116.23946593416785L165.52169079109328,118.7472283407611L171.29419137294053,120.14018584272824L177.0666919547878,120.54571504981602L182.8391925366351,121.54229918939964L188.61169311848238,122.78939182558479L194.38419370032966,124.11893331482126L200.15669428217691,125.85376010795642L205.92919486402423,127.72925613784034L211.70169544587148,128.71948672346176L217.4741960277188,130.78960125213285L223.24669660956604,132.24757097807395L229.01919719141333,134.46087082042268L234.79169777326058,135.1278632900971L240.5641983551079,136.85213282096143L246.33669893695514,138.3515571307904L252.10919951880243,139.62812692462182L257.8817001006497,140.8382766526865L263.654200682497,142.28613612337344L269.4267012643443,143.5069790217277L275.19920184619156,144.21624763144223L280.97170242803884,144.7866358341313L286.7442030098861,146.01283864051112L292.5167035917334,147.77029396329613L298.28920417358063,148.37979637955507L304.06170475542797,149.19018182083647L309.8342053372752,150.775871750583L315.60670591912253,152.1681864344198L321.37920650096976,153.10468463518453L327.15170708281704,153.6896952644798L332.9242076646643,154.58190505347258L338.6967082465116,155.1491994938071L344.4692088283589,156.03680998663594L350.24170941020617,156.6372673548055L356.01420999205345,157.73006799076916L361.78671057390073,158.77054439328637L367.559211155748,159.7788513389913L373.3317117375953,160.4218213358929L379.1042123194426,160.9629266011959L384.87671290128986,161.60837014436314L390.6492134831371,162.61250232387127L396.42171406498437,163.29105168910917L402.1942146468317,164.1367170398348L407.966715228679,165.1861943949589L413.7392158105262,166.1462656172987L419.5117163923735,167.08402715798485L425.2842169742208,167.899183409915L431.05671755606807,168.64008055272853L436.8292181379153,169.62186613656377L442.6017187197626,170.6922216586104L448.3742193016099,171.26026758063972L454.1467198834572,172.24950398957256L459.9192204653045,172.85724306468714L465.6917210471517,173.91330517427815L471.464221628999,174.47064776382578L477.2367222108463,174.9433523646331L483.0092227926936,175.71948712281866L488.78172337454083,176.61182610461663L494.5542239563881,177.39408058260364L500.3267245382354,177.83186403139004L506.09922512008274,178.53324801215422L511.8717257019299,179.17059588915623L517.6442262837772,180.24714368054438L523.4167268656245,181.04934869179922L529.1892274474718,181.45596357596798L534.961728029319,182.39906784638717L540.7342286111664,182.7829574700075L546.5067291930136,183.79137564436866L552.2792297748609,184.30797981489357L558.0517303567083,185.11135131194183L563.8242309385554,185.8697232765316L569.5967315204027,186.75505023332002L575.3692321022501,187.7109315451687L581.1417326840973,188.58782457725948L586.9142332659445,189.4015913439427L592.6867338477919,190.064174271211L598.4592344296392,190.81113681862692L604.2317350114864,191.5911447925847L610.0042355933336,192.27682569760552L615.776736175181,192.98794650867111L621.5492367570282,193.63445876797923L627.3217373388756,194.28485970983195L633.0942379207229,194.8797845841512L638.8667385025701,195.70995358308545L644.6392390844173,196.44088502006227L650.4117396662647,196.99974986264522L656.1842402481119,197.71255029372668L661.9567408299591,198.33074800371693L667.7292414118065,199.20100561498884L673.5017419936538,199.9379063777828L679.274242575501,200.50654979951227L685.0467431573483,201.16252240574792L690.8192437391956,201.79155813745464L696.5917443210428,202.51070693352773L702.3642449028902,203.109520426867L708.1367454847374,203.84152332645874L713.9092460665847,204.5756192978469L719.681746648432,205.0942634082275L725.4542472302793,205.76634205268311L731.2267478121265,206.1092393272968L736.9992483939737,206.86198583457556L742.7717489758211,207.6320748768457L748.5442495576684,208.36868830035513L754.3167501395156,208.91762615412085L760.0892507213629,209.49817633622376L765.8617513032102,210.10014065264895L771.6342518850574,210.87092207416202L777.4067524669048,211.3307350576199L783.1792530487521,211.9136347780147L788.9517536305993,212.5145647983858L794.7242542124466,213.1963263958662L800.4967547942938,213.80438171011943L806.2692553761411,214.28069762929493L812.0417559579884,215.00131437812956L817.8142565398357,215.58054333809613L823.586757121683,216.2524024604491L829.3592577035303,216.8601936215821L835.1317582853776,217.36243760106194L840.9042588672249,217.9548551075731L846.676759449072,218.42692687986215L852.4492600309193,218.6688491544065L858.2217606127666,219.28460163765672L863.994261194614,219.7041553461718L869.7667617764612,220.43159882611465L875.5392623583085,220.71316318262743L881.3117629401559,221.222612111969L887.0842635220031,221.55201405563406L892.8567641038502,221.98451279202195L898.6292646856975,222.60291458021922L904.4017652675449,223.26836883498368L910.1742658493921,223.82614995613972L915.9467664312394,224.2878904410064L921.7192670130868,224.80343465929425L927.491767594934,225.25942155937253L933.2642681767813,225.88352557652317L939.0367687586287,226.27767262163908L944.8092693404758,226.70424239302156L950.581769922323,227.32581325251974L956.3542705041704,227.83670770698296L962.1267710860177,228.38493960786357L967.8992716678649,228.79573540838254L973.6717722497123,229.37396436917186L979.4442728315596,230.0234555688302L985.2167734134068,230.5290902495343L990.9892739952542,231.20946444923183L996.7617745771013,231.67394259559373L1002.5342751589486,232.2117052830369L1008.3067757407958,232.72343906369827L1014.0792763226432,233.25545007826577L1019.8517769044905,234.0478218242938L1025.6242774863379,234.39745115215817L1031.396778068185,234.79827779451654L1037.1692786500323,235.1902862865142L1042.9417792318795,235.61263249973604L1048.7142798137268,235.9575662363093L1054.486780395574,236.56614350770246L1060.2592809774214,236.94584732378016L1066.0317815592687,237.52709415907543L1071.804282141116,237.85162599971744L1077.5767827229633,238.2104680993896L1083.3492833048106,238.42367732058455L1089.1217838866578,238.81856457945347L1094.894284468505,239.50485949593772L1100.6667850503522,239.98206652951654L1106.4392856321997,240.4589098266598L1112.211786214047,240.8725731053171L1117.9842867958941,241.17879070089066L1123.7567873777416,241.60229721163424L1129.5292879595888,241.90411524256396L1135.301788541436,242.31823896732809L1141.0742891232833,242.90043756283396L1146.8467897051305,243.22911393650045L1152.6192902869777,243.71031815891402L1158.3917908688252,244.25424833885825L1164.1642914506724,244.627340755985L1169.9367920325196,244.9743597880789L1175.709292614367,245.17754795768047L1181.4817931962143,245.48431239107126L1187.2542937780615,245.74712724968782L1193.0267943599088,246.1840885429432L1198.799294941756,246.6273791962521L1204.5717955236032,247.02907767395527L1210.3442961054507,247.5709970233834L1216.116796687298,247.96604246823526L1221.8892972691451,248.60318545815844L1227.6617978509926,248.91246783639616L1233.4342984328398,249.2540702130633L1239.206799014687,249.56337932841186L1244.9792995965342,249.93307152837846L1250.7518001783815,250.37793714144323L1256.524300760229,250.73136839030545L1262.2968013420762,251.21129661098192L1268.0693019239234,251.67551971359896L1273.8418025057708,251.9004728838949L1279.614303087618,252.12101144493934L1285.3868036694653,252.64758126092215L1291.1593042513125,253.08712600929601L1296.9318048331597,253.48144971692753L1302.704305415007,253.76113258612608L1308.4768059968544,254.1610571309593L1314.2493065787016,254.57865015532963L1320.0218071605489,254.94050395928807L1325.7943077423963,255.28890524485672L1331.5668083242435,255.7028765871731L1337.3393089060908,256.0629263931566L1343.111809487938,256.2081903393166L1348.8843100697852,256.6331062183929L1354.6568106516327,257.0409374528058L1360.42931123348,257.3194989279742L1366.2018118153271,257.7736052393821L1371.9743123971746,258.0509826962264L1377.7468129790218,258.28748801199384L1383.519313560869,258.58830739817745L1389.2918141427162,258.8920478838106L1395.0643147245635,259.3292416976965L1400.8368153064107,259.3790232434073L1406.6093158882582,259.6314417533001L1412.3818164701054,259.92803716833316L1418.1543170519526,260.2039523022582L1423.9268176338,260.4289859669544L1429.6993182156473,260.771926942735L1435.4718187974945,261.1783567331544L1441.2443193793417,261.6174125290684L1447.016819961189,262.03290034086933L1452.7893205430364,262.2787066787017L1458.5618211248836,262.6501103695156L1464.3343217067309,262.8398324979819L1470.106822288578,263.0394632841441" style="fill: none;" fill="none"></path></g></g></g></g><g opacity="0.2"><g><g><g><path stroke="rgb(255, 112, 67)" stroke-width="2px" d="M21.2091762449113,65.97046773406164L26.98167682675858,56.1356831455085L32.754177408605855,84.94583791765865L38.52667799045314,65.73902209307046L44.29917857230041,99.75594517546827L50.071679154147695,66.20184441032067L55.84417973599497,70.36717630084021L61.616680317842246,115.8387275998007L67.38918089968952,92.11948038793837L73.1616814815368,102.99563243148745L78.93418206338409,141.4091951159317L84.70668264523137,128.45044609185499L90.47918322707865,130.41738921661914L96.25168380892592,136.8967637286575L102.0241843907732,148.4671147657158L107.79668497262047,133.5413536521428L113.56918555446775,123.01237007008044L119.34168613631503,106.58241918426123L125.1141867181623,168.25247572804975L130.88668730000958,139.67369763215865L136.65918788185687,132.15295566512432L142.43168846370415,135.62401959740254L148.20418904555143,164.43424333428482L153.9766896273987,142.45056257092764L159.749190209246,149.62420504120735L165.52169079109328,180.63274857911287L171.29419137294053,155.87220287698668L177.0666919547878,131.34303385111954L182.8391925366351,149.04565990346157L188.61169311848238,158.41762217476455L194.38419370032966,163.39287587928888L200.15669428217691,178.7814593101121L205.92919486402423,186.7650235943966L211.70169544587148,160.84745658151104L217.4741960277188,199.95521825946452L223.24669660956604,182.36831502761802L229.01919719141333,212.68265957201433L234.79169777326058,159.3432668092649L240.5641983551079,201.11230853495604L246.33669893695514,195.6742325131815L252.10919951880243,189.6576113536612L257.8817001006497,189.42623467740216L263.654200682497,201.8065075284653L269.4267012643443,194.86431069917668L275.19920184619156,174.73185024008814L280.97170242803884,169.87231935605934L286.7442030098861,201.11230853495604L292.5167035917334,228.41834249959217L298.28920417358063,176.93023900584348L304.06170475542797,187.92204490515604L309.8342053372752,228.0712430028376L315.60670591912253,221.36042284980803L321.37920650096976,200.53376339721027L327.15170708281704,183.87243583513205L332.9242076646643,201.45940803171067L338.6967082465116,185.49227946314164L344.4692088283589,204.35199579097522L350.24170941020617,189.88905699465232L356.01420999205345,219.27775690454823L361.78671057390073,218.35211227004788L367.559211155748,218.46783509054347L373.3317117375953,198.4510974519505L379.1042123194426,193.47584374742613L384.87671290128986,200.99658571446045L390.6492134831371,224.83155574681842L396.42171406498437,205.9718394189848L402.1942146468317,218.12073559378885L407.966715228679,233.16221952785747L413.7392158105262,229.22826431359698L419.5117163923735,229.5753638103516L425.2842169742208,222.98026647781762L431.05671755606807,219.39347972504382L436.8292181379153,237.79030477089512L442.6017187197626,246.00531469617076L448.3742193016099,211.75701493751393L454.1467198834572,243.69120310991985L459.9192204653045,217.31081377978407L465.6917210471517,252.13758971145452L471.464221628999,216.26944632478813L477.2367222108463,210.83137030301359L483.0092227926936,235.36053932888072L488.78172337454083,246.00531469617076L494.5542239563881,238.94739504638665L500.3267245382354,212.68265957201433L506.09922512008274,235.0134398321261L511.8717257019299,231.0795535825977L517.6442262837772,268.9146400940283L523.4167268656245,247.85653500043938L529.1892274474718,215.69097015177448L534.961728029319,262.666642258249L540.7342286111664,215.80662400753795L546.5067291930136,271.46005939180617L552.2792297748609,229.69108663084714L558.0517303567083,256.41864442246964L563.8242309385554,253.8731561599597L569.5967315204027,266.947628004532L575.3692321022501,275.16263792980766L581.1417326840973,269.60883908753755L586.9142332659445,265.32778437652246L592.6867338477919,252.48468920820915L598.4592344296392,261.8567204442442L604.2317350114864,266.48480568728183L610.0042355933336,258.73268704398845L615.776736175181,262.5509194377534L621.5492367570282,257.4599429127335L627.3217373388756,259.0797865407431L633.0942379207229,254.6830779739645L638.8667385025701,279.9064459933408L644.6392390844173,271.22868271554717L650.4117396662647,254.6830779739645L656.1842402481119,271.92288170905636L661.9567408299591,263.24511843126265L667.7292414118065,291.3611431746357L673.5017419936538,278.63370186208584L679.274242575501,261.7409976237486L685.0467431573483,272.38570402630654L690.8192437391956,270.65013757780133L696.5917443210428,281.873389118105L702.3642449028902,269.72456190803314L708.1367454847374,285.9230671528611L713.9092460665847,287.5429107808707L719.681746648432,264.170763065763L725.4542472302793,282.914756573101L731.2267478121265,245.77386905517957L736.9992483939737,294.60083043065487L742.7717489758211,298.07189436293305L748.5442495576684,295.52647506515524L754.3167501395156,274.35264715107076L760.0892507213629,279.2122469998316L765.8617513032102,282.914756573101L771.6342518850574,304.7827145159626L777.4067524669048,267.7575498185368L783.1792530487521,283.95605506336483L788.9517536305993,287.3114651398796L794.7242542124466,298.65043950067883L800.4967547942938,290.5511523958988L806.2692553761411,274.81546946832094L812.0417559579884,307.212479957977L817.8142565398357,290.2040528991442L823.586757121683,303.39431652894416L829.3592577035303,296.22067405866443L835.1317582853776,283.3775788903512L840.9042588672249,296.33639687916L846.676759449072,281.29491294509137L852.4492600309193,251.0962222564586L858.2217606127666,302.35294907394825L863.994261194614,276.66675873732163L869.7667617764612,319.82419845003125L875.5392623583085,259.4268860374977L881.3117629401559,291.7082426713903L887.0842635220031,267.41045032178215L892.8567641038502,282.5676570763464L898.6292646856975,309.75796822048693L904.4017652675449,317.6258096842759L910.1742658493921,303.39431652894416L915.9467664312394,290.5511523958988L921.7192670130868,299.2289846384246L927.491767594934,291.47679703039915L933.2642681767813,317.04733351126225L939.0367687586287,284.187500704356L944.8092693404758,289.741230581894L950.581769922323,319.70847562953566L956.3542705041704,304.204238342949L962.1267710860177,310.7993356754829L967.8992716678649,290.8983208573855L973.6717722497123,317.27871018752126L979.4442728315596,329.3118835418298L985.2167734134068,308.25384741297296L990.9892739952542,336.36980319161387L996.7617745771013,303.8570698814622L1002.5342751589486,316.2374116972574L1008.3067757407958,313.11337829700176L1014.0792763226432,317.27871018752126L1019.8517769044905,359.8576392448511L1025.6242774863379,290.2040528991442L1031.396778068185,299.1132618179291L1037.1692786500323,298.4190628244198L1042.9417792318795,304.0885155224534L1048.7142798137268,292.17106498864047L1054.486780395574,336.2541493358504L1060.2592809774214,299.46036131468367L1066.0317815592687,333.70866107334047L1071.804282141116,291.8238965271538L1077.5767827229633,298.18761718342864L1083.3492833048106,274.2369932953073L1089.1217838866578,305.47698247420396L1094.894284468505,355.92371851295667L1100.6667850503522,321.3283192575452L1106.4392856321997,322.13824107155006L1112.211786214047,312.0720798067379L1117.9842867958941,294.1380081134047L1123.7567873777416,315.1960442422615L1129.5292879595888,294.60083043065487L1135.301788541436,314.96466756600245L1141.0742891232833,345.5103887866578L1146.8467897051305,301.4273044394479L1152.6192902869777,329.3118835418298L1158.3917908688252,341.4607797166338L1164.1642914506724,311.60925748948773L1169.9367920325196,307.5596484194637L1175.709292614367,281.9891119386006L1181.4817931962143,301.31165058368435L1187.2542937780615,293.7909086166501L1193.0267943599088,326.41929578256514L1198.799294941756,328.38623890732936L1204.5717955236032,321.4440420780408L1210.3442961054507,348.40297654592234L1216.116796687298,321.79114157479546L1221.8892972691451,368.18830302589026L1227.6617978509926,307.212479957977L1233.4342984328398,313.92330011100654L1239.206799014687,308.36957023346855L1244.9792995965342,320.51839744354044L1250.7518001783815,335.6756041981047L1256.524300760229,318.7828999597674L1262.2968013420762,344.0062679791438L1268.0693019239234,341.80787921338845L1273.8418025057708,295.7578517414143L1279.614303087618,295.2950294241641L1285.3868036694653,356.15516415394785L1291.1593042513125,339.84093608862423L1296.9318048331597,331.6259951280807L1302.704305415007,309.41086872373234L1308.4768059968544,334.05576057009506L1314.2493065787016,338.3368152811102L1320.0218071605489,327.8077627343157L1325.7943077423963,325.72509678905595L1331.5668083242435,339.72521326812864L1337.3393089060908,329.4276063623253L1343.111809487938,285.9230671528611L1348.8843100697852,343.8905451586482L1354.6568106516327,341.1136802198792L1360.42931123348,314.96466756600245L1366.2018118153271,352.10548611919177L1371.9743123971746,315.8903122005029L1377.7468129790218,307.7910250957227L1383.519313560869,321.79114157479546L1389.2918141427162,322.94823185028696L1395.0643147245635,351.8741094429327L1400.8368153064107,269.9559385842922L1406.6093158882582,313.46047779375635L1412.3818164701054,323.410985202805L1418.1543170519526,319.4770989532766L1423.9268176338,308.94804640648215L1429.6993182156473,334.98140520459543L1435.4718187974945,349.44434400091836L1441.2443193793417,357.3121854647072L1447.016819961189,352.91540793319655L1452.7893205430364,316.2374116972574L1458.5618211248836,344.469090296394L1464.3343217067309,304.7827145159626L1470.106822288578,307.3282027784726" style="fill: none;" fill="none"></path></g></g></g></g></g></g><g transform="translate(53, 376)" clip-path="url(#clip_1)"><clipPath id="clip_1"><rect width="1531" height="24"></rect></clipPath><g><g><line x1="15.436675663064023" y1="0" x2="15.436675663064023" y2="5" style="visibility: inherit;" fill="rgb(0, 0, 0)" stroke="rgb(204, 204, 204)" stroke-width="1px"></line><line x1="130.88668730000958" y1="0" x2="130.88668730000958" y2="5" style="visibility: inherit;" fill="rgb(0, 0, 0)" stroke="rgb(204, 204, 204)" stroke-width="1px"></line><line x1="246.33669893695514" y1="0" x2="246.33669893695514" y2="5" style="visibility: inherit;" fill="rgb(0, 0, 0)" stroke="rgb(204, 204, 204)" stroke-width="1px"></line><line x1="361.78671057390073" y1="0" x2="361.78671057390073" y2="5" style="visibility: inherit;" fill="rgb(0, 0, 0)" stroke="rgb(204, 204, 204)" stroke-width="1px"></line><line x1="477.2367222108463" y1="0" x2="477.2367222108463" y2="5" style="visibility: inherit;" fill="rgb(0, 0, 0)" stroke="rgb(204, 204, 204)" stroke-width="1px"></line><line x1="592.6867338477919" y1="0" x2="592.6867338477919" y2="5" style="visibility: inherit;" fill="rgb(0, 0, 0)" stroke="rgb(204, 204, 204)" stroke-width="1px"></line><line x1="708.1367454847374" y1="0" x2="708.1367454847374" y2="5" style="visibility: inherit;" fill="rgb(0, 0, 0)" stroke="rgb(204, 204, 204)" stroke-width="1px"></line><line x1="823.586757121683" y1="0" x2="823.586757121683" y2="5" style="visibility: inherit;" fill="rgb(0, 0, 0)" stroke="rgb(204, 204, 204)" stroke-width="1px"></line><line x1="939.0367687586287" y1="0" x2="939.0367687586287" y2="5" style="visibility: inherit;" fill="rgb(0, 0, 0)" stroke="rgb(204, 204, 204)" stroke-width="1px"></line><line x1="1054.486780395574" y1="0" x2="1054.486780395574" y2="5" style="visibility: inherit;" fill="rgb(0, 0, 0)" stroke="rgb(204, 204, 204)" stroke-width="1px"></line><line x1="1169.9367920325196" y1="0" x2="1169.9367920325196" y2="5" style="visibility: inherit;" fill="rgb(0, 0, 0)" stroke="rgb(204, 204, 204)" stroke-width="1px"></line><line x1="1285.3868036694653" y1="0" x2="1285.3868036694653" y2="5" style="visibility: inherit;" fill="rgb(0, 0, 0)" stroke="rgb(204, 204, 204)" stroke-width="1px"></line><line x1="1400.8368153064107" y1="0" x2="1400.8368153064107" y2="5" style="visibility: inherit;" fill="rgb(0, 0, 0)" stroke="rgb(204, 204, 204)" stroke-width="1px"></line><line x1="1516.2868269433563" y1="0" x2="1516.2868269433563" y2="5" style="visibility: inherit;" fill="rgb(0, 0, 0)" stroke="rgb(204, 204, 204)" stroke-width="1px"></line></g><g transform="translate(0, 8)"><text x="15.436675663064023" y="0" dx="0em" dy="0.95em" style="text-anchor: middle; visibility: inherit; font-family: Roboto, sans-serif; font-size: 12px; font-weight: 200;" fill="rgb(33, 33, 33)" stroke="none" stroke-width="1px">0</text><text x="130.88668730000958" y="0" dx="0em" dy="0.95em" style="text-anchor: middle; visibility: inherit; font-family: Roboto, sans-serif; font-size: 12px; font-weight: 200;" fill="rgb(33, 33, 33)" stroke="none" stroke-width="1px">2k</text><text x="246.33669893695514" y="0" dx="0em" dy="0.95em" style="text-anchor: middle; visibility: inherit; font-family: Roboto, sans-serif; font-size: 12px; font-weight: 200;" fill="rgb(33, 33, 33)" stroke="none" stroke-width="1px">4k</text><text x="361.78671057390073" y="0" dx="0em" dy="0.95em" style="text-anchor: middle; visibility: inherit; font-family: Roboto, sans-serif; font-size: 12px; font-weight: 200;" fill="rgb(33, 33, 33)" stroke="none" stroke-width="1px">6k</text><text x="477.2367222108463" y="0" dx="0em" dy="0.95em" style="text-anchor: middle; visibility: inherit; font-family: Roboto, sans-serif; font-size: 12px; font-weight: 200;" fill="rgb(33, 33, 33)" stroke="none" stroke-width="1px">8k</text><text x="592.6867338477919" y="0" dx="0em" dy="0.95em" style="text-anchor: middle; visibility: inherit; font-family: Roboto, sans-serif; font-size: 12px; font-weight: 200;" fill="rgb(33, 33, 33)" stroke="none" stroke-width="1px">10k</text><text x="708.1367454847374" y="0" dx="0em" dy="0.95em" style="text-anchor: middle; visibility: inherit; font-family: Roboto, sans-serif; font-size: 12px; font-weight: 200;" fill="rgb(33, 33, 33)" stroke="none" stroke-width="1px">12k</text><text x="823.586757121683" y="0" dx="0em" dy="0.95em" style="text-anchor: middle; visibility: inherit; font-family: Roboto, sans-serif; font-size: 12px; font-weight: 200;" fill="rgb(33, 33, 33)" stroke="none" stroke-width="1px">14k</text><text x="939.0367687586287" y="0" dx="0em" dy="0.95em" style="text-anchor: middle; visibility: inherit; font-family: Roboto, sans-serif; font-size: 12px; font-weight: 200;" fill="rgb(33, 33, 33)" stroke="none" stroke-width="1px">16k</text><text x="1054.486780395574" y="0" dx="0em" dy="0.95em" style="text-anchor: middle; visibility: inherit; font-family: Roboto, sans-serif; font-size: 12px; font-weight: 200;" fill="rgb(33, 33, 33)" stroke="none" stroke-width="1px">18k</text><text x="1169.9367920325196" y="0" dx="0em" dy="0.95em" style="text-anchor: middle; visibility: inherit; font-family: Roboto, sans-serif; font-size: 12px; font-weight: 200;" fill="rgb(33, 33, 33)" stroke="none" stroke-width="1px">20k</text><text x="1285.3868036694653" y="0" dx="0em" dy="0.95em" style="text-anchor: middle; visibility: inherit; font-family: Roboto, sans-serif; font-size: 12px; font-weight: 200;" fill="rgb(33, 33, 33)" stroke="none" stroke-width="1px">22k</text><text x="1400.8368153064107" y="0" dx="0em" dy="0.95em" style="text-anchor: middle; visibility: inherit; font-family: Roboto, sans-serif; font-size: 12px; font-weight: 200;" fill="rgb(33, 33, 33)" stroke="none" stroke-width="1px">24k</text><text x="1516.2868269433563" y="0" dx="0em" dy="0.95em" style="text-anchor: middle; visibility: inherit; font-family: Roboto, sans-serif; font-size: 12px; font-weight: 200;" fill="rgb(33, 33, 33)" stroke="none" stroke-width="1px">26k</text></g><line x1="0" y1="0" x2="1531.4125" y2="0" fill="rgb(0, 0, 0)" stroke="rgb(204, 204, 204)" stroke-width="1px"></line></g></g></g></g></svg>