<svg viewBox="0 0 977 400" xmlns="http://www.w3.org/2000/svg"><g><g><g><g><g><line x1="53.1875" y1="366.9320057192295" x2="48.1875" y2="366.9320057192295" style="visibility: inherit;" fill="rgb(0, 0, 0)" stroke="rgb(204, 204, 204)" stroke-width="1px"></line><line x1="53.1875" y1="307.8053530214908" x2="48.1875" y2="307.8053530214908" style="visibility: inherit;" fill="rgb(0, 0, 0)" stroke="rgb(204, 204, 204)" stroke-width="1px"></line><line x1="53.1875" y1="248.67870032375237" x2="48.1875" y2="248.67870032375237" style="visibility: inherit;" fill="rgb(0, 0, 0)" stroke="rgb(204, 204, 204)" stroke-width="1px"></line><line x1="53.1875" y1="189.55204762601375" x2="48.1875" y2="189.55204762601375" style="visibility: inherit;" fill="rgb(0, 0, 0)" stroke="rgb(204, 204, 204)" stroke-width="1px"></line><line x1="53.1875" y1="130.42539492827527" x2="48.1875" y2="130.42539492827527" style="visibility: inherit;" fill="rgb(0, 0, 0)" stroke="rgb(204, 204, 204)" stroke-width="1px"></line><line x1="53.1875" y1="71.29874223053665" x2="48.1875" y2="71.29874223053665" style="visibility: inherit;" fill="rgb(0, 0, 0)" stroke="rgb(204, 204, 204)" stroke-width="1px"></line><line x1="53.1875" y1="12.172089532798054" x2="48.1875" y2="12.172089532798054" style="visibility: inherit;" fill="rgb(0, 0, 0)" stroke="rgb(204, 204, 204)" stroke-width="1px"></line></g><g transform="translate(43.1875, 0)"><text x="0" y="366.9320057192295" dx="0em" dy="0.3em" style="text-anchor: end; visibility: inherit; font-family: Roboto, sans-serif; font-size: 12px; font-weight: 200;" fill="rgb(33, 33, 33)" stroke="none" stroke-width="1px">0.5</text><text x="0" y="307.8053530214908" dx="0em" dy="0.3em" style="text-anchor: end; visibility: inherit; font-family: Roboto, sans-serif; font-size: 12px; font-weight: 200;" fill="rgb(33, 33, 33)" stroke="none" stroke-width="1px">0.55</text><text x="0" y="248.67870032375237" dx="0em" dy="0.3em" style="text-anchor: end; visibility: inherit; font-family: Roboto, sans-serif; font-size: 12px; font-weight: 200;" fill="rgb(33, 33, 33)" stroke="none" stroke-width="1px">0.6</text><text x="0" y="189.55204762601375" dx="0em" dy="0.3em" style="text-anchor: end; visibility: inherit; font-family: Roboto, sans-serif; font-size: 12px; font-weight: 200;" fill="rgb(33, 33, 33)" stroke="none" stroke-width="1px">0.65</text><text x="0" y="130.42539492827527" dx="0em" dy="0.3em" style="text-anchor: end; visibility: inherit; font-family: Roboto, sans-serif; font-size: 12px; font-weight: 200;" fill="rgb(33, 33, 33)" stroke="none" stroke-width="1px">0.7</text><text x="0" y="71.29874223053665" dx="0em" dy="0.3em" style="text-anchor: end; visibility: inherit; font-family: Roboto, sans-serif; font-size: 12px; font-weight: 200;" fill="rgb(33, 33, 33)" stroke="none" stroke-width="1px">0.75</text><text x="0" y="12.172089532798054" dx="0em" dy="0.3em" style="text-anchor: end; visibility: inherit; font-family: Roboto, sans-serif; font-size: 12px; font-weight: 200;" fill="rgb(33, 33, 33)" stroke="none" stroke-width="1px">0.8</text></g><line x1="53.1875" y1="0" x2="53.1875" y2="376" fill="rgb(0, 0, 0)" stroke="rgb(204, 204, 204)" stroke-width="1px"></line></g></g><g transform="translate(53, 0)" clip-path="url(#clip_0)"><clipPath id="clip_0"><rect width="923" height="376"></rect></clipPath><g><g><g><line x1="13.866967775321154" y1="0" x2="13.866967775321154" y2="376" fill="rgb(0, 0, 0)" stroke="rgb(66, 66, 66)" stroke-width="1px" opacity="0.25"></line><line x1="82.391879945927" y1="0" x2="82.391879945927" y2="376" fill="rgb(0, 0, 0)" stroke="rgb(66, 66, 66)" stroke-width="1px" opacity="0.25"></line><line x1="150.91679211653283" y1="0" x2="150.91679211653283" y2="376" fill="rgb(0, 0, 0)" stroke="rgb(66, 66, 66)" stroke-width="1px" opacity="0.25"></line><line x1="219.44170428713866" y1="0" x2="219.44170428713866" y2="376" fill="rgb(0, 0, 0)" stroke="rgb(66, 66, 66)" stroke-width="1px" opacity="0.25"></line><line x1="287.96661645774446" y1="0" x2="287.96661645774446" y2="376" fill="rgb(0, 0, 0)" stroke="rgb(66, 66, 66)" stroke-width="1px" opacity="0.25"></line><line x1="356.49152862835035" y1="0" x2="356.49152862835035" y2="376" fill="rgb(0, 0, 0)" stroke="rgb(66, 66, 66)" stroke-width="1px" opacity="0.25"></line><line x1="425.0164407989561" y1="0" x2="425.0164407989561" y2="376" fill="rgb(0, 0, 0)" stroke="rgb(66, 66, 66)" stroke-width="1px" opacity="0.25"></line><line x1="493.541352969562" y1="0" x2="493.541352969562" y2="376" fill="rgb(0, 0, 0)" stroke="rgb(66, 66, 66)" stroke-width="1px" opacity="0.25"></line><line x1="562.0662651401678" y1="0" x2="562.0662651401678" y2="376" fill="rgb(0, 0, 0)" stroke="rgb(66, 66, 66)" stroke-width="1px" opacity="0.25"></line><line x1="630.5911773107737" y1="0" x2="630.5911773107737" y2="376" fill="rgb(0, 0, 0)" stroke="rgb(66, 66, 66)" stroke-width="1px" opacity="0.25"></line><line x1="699.1160894813796" y1="0" x2="699.1160894813796" y2="376" fill="rgb(0, 0, 0)" stroke="rgb(66, 66, 66)" stroke-width="1px" opacity="0.25"></line><line x1="767.6410016519854" y1="0" x2="767.6410016519854" y2="376" fill="rgb(0, 0, 0)" stroke="rgb(66, 66, 66)" stroke-width="1px" opacity="0.25"></line><line x1="836.1659138225912" y1="0" x2="836.1659138225912" y2="376" fill="rgb(0, 0, 0)" stroke="rgb(66, 66, 66)" stroke-width="1px" opacity="0.25"></line><line x1="904.690825993197" y1="0" x2="904.690825993197" y2="376" fill="rgb(0, 0, 0)" stroke="rgb(66, 66, 66)" stroke-width="1px" opacity="0.25"></line></g><g><line x1="0" y1="366.9320057192295" x2="923.8125" y2="366.9320057192295" fill="rgb(0, 0, 0)" stroke="rgb(66, 66, 66)" stroke-width="1px" opacity="0.25"></line><line x1="0" y1="307.8053530214908" x2="923.8125" y2="307.8053530214908" fill="rgb(0, 0, 0)" stroke="rgb(66, 66, 66)" stroke-width="1px" opacity="0.25"></line><line x1="0" y1="248.67870032375237" x2="923.8125" y2="248.67870032375237" fill="rgb(0, 0, 0)" stroke="rgb(66, 66, 66)" stroke-width="1px" opacity="0.25"></line><line x1="0" y1="189.55204762601375" x2="923.8125" y2="189.55204762601375" fill="rgb(0, 0, 0)" stroke="rgb(66, 66, 66)" stroke-width="1px" opacity="0.25"></line><line x1="0" y1="130.42539492827527" x2="923.8125" y2="130.42539492827527" fill="rgb(0, 0, 0)" stroke="rgb(66, 66, 66)" stroke-width="1px" opacity="0.25"></line><line x1="0" y1="71.29874223053665" x2="923.8125" y2="71.29874223053665" fill="rgb(0, 0, 0)" stroke="rgb(66, 66, 66)" stroke-width="1px" opacity="0.25"></line><line x1="0" y1="12.172089532798054" x2="923.8125" y2="12.172089532798054" fill="rgb(0, 0, 0)" stroke="rgb(66, 66, 66)" stroke-width="1px" opacity="0.25"></line></g></g></g><g><g><line x1="0" y1="958.1985326966152" x2="923.8125" y2="958.1985326966152" fill="rgb(0, 0, 0)" stroke="rgb(153, 153, 153)" stroke-width="1.5px"></line></g></g><g><g><line x1="13.866967775321154" y1="0" x2="13.866967775321154" y2="376" fill="rgb(0, 0, 0)" stroke="rgb(153, 153, 153)" stroke-width="1.5px"></line></g></g><g><g><g><g><g><path stroke="rgb(255, 112, 67)" stroke-width="2px" d="M17.293213383851445,125.36039554157252L20.719458992381735,127.42588295306149L24.145704600912026,129.429735282033L27.57195020944232,130.75642916406403L30.998195817972615,132.5528420725766L34.42444142650291,134.9748378448161L37.8506870350332,137.38181988609264L41.27693264356349,139.73099744561554L44.70317825209378,139.0353963908534L48.12942386062407,139.40178797763974L51.55566946915437,141.54583195063685L54.981915077684654,143.12369297161493L58.40816068621495,138.28737101080753L61.83440629474524,140.3083925855045L65.26065190327553,142.14678590661714L68.68689751180582,142.38536691602724L72.11314312033612,143.37018642434748L75.53938872886641,144.93180667787246L78.9656343373967,146.43165419741266L82.391879945927,147.66727818592938L85.81812555445728,148.9465984301182L89.24437116298758,150.38577105492473L92.67061677151786,151.65302636207284L96.09686238004817,152.9904588400824L99.52310798857845,154.2095154559727L102.94935359710874,155.5334891841771L106.37559920563903,156.81113825220956L109.80184481416933,157.82221374011897L113.22809042269961,158.84596259452772L116.6543360312299,160.01305546352194L120.0805816397602,161.13120137435965L123.50682724829049,162.03054053211693L126.93307285682079,162.6271440224424L130.35931846535107,163.70999162287615L133.78556407388137,164.7714857944091L137.21180968241165,165.81297508873894L140.63805529094196,166.84696713646568L144.06430089947224,167.888961801783L147.49054650800252,168.69469508450342L150.91679211653283,169.6451239461437L154.3430377250631,170.34217972024217L157.7692833335934,171.23281761982872L161.1955289421237,172.20409833955793L164.62177455065398,173.12024811572383L168.0480201591843,174.09204538596765L171.4742657677146,175.02783132029475L174.90051137624485,175.91277090246956L178.32675698477516,176.68931132886937L181.75300259330547,177.57977408863445L185.17924820183575,178.4899350346581L188.60549381036603,179.36185418342873L192.03173941889634,180.1743371478514L195.45798502742662,180.85562223088783L198.88423063595692,181.68574535636276L202.3104762444872,182.45069004924272L205.73672185301749,183.1047437070371L209.1629674615478,183.3457792916424L212.5892130700781,184.12601698947293L216.01545867860835,184.89128598710442L219.44170428713866,185.6918999684649L222.86794989566897,186.37331257875294L226.29419550419925,186.93409290108036L229.72044111272953,187.71307549531812L233.14668672125984,188.47448436619163L236.5729323297901,189.1205935287976L239.9991779383204,189.86696569836099L243.4254235468507,190.61531022670763L246.851669155381,191.35499259816973L250.2779147639113,192.07286326546765L253.70416037244158,192.77164295243782L257.1304059809719,193.46834901303887L260.55665158950217,194.058073564407L263.98289719803245,194.7511964775431L267.4091428065627,195.3476461481657L270.835388415093,196.0359565686517L274.26163402362334,196.72925171185608L277.6878796321536,197.38819898377912L281.11412524068385,198.0546701110334L284.5403708492142,198.70601857975677L287.96661645774446,199.35551537261108L291.39286206627474,199.99474450431012L294.8191076748051,200.26999151317722L298.24535328333536,200.91040235311127L301.67159889186564,201.44112662641857L305.0978445003959,201.87634912446L308.5240901089262,202.46839892221382L311.9503357174565,203.0842221157898L315.3765813259868,203.6944113061478L318.8028269345171,204.28524882013855L322.2290725430474,204.8203307441668L325.6553181515777,205.40024447470375L329.081563760108,205.62818802530575L332.5078093686382,206.19048710253935L335.93405497716856,206.63083504354327L339.36030058569884,207.06858724698984L342.7865461942291,207.62219896429218L346.21279180275945,208.17285722327244L349.63903741128973,208.73648826469153L353.06528301982,209.29610319055323L356.49152862835035,209.86711953065833L359.9177742368806,210.40082706246002L363.34401984541086,210.9535961479185L366.7702654539412,211.3314956674177L370.1965110624715,211.89464113559572L373.62275667100175,212.3372335859274L377.0490022795321,212.85330403940898L380.47524788806237,213.39910904214975L383.90149349659265,213.9472778948749L387.32773910512293,214.3830002962798L390.7539847136532,214.89469690158631L394.1802303221835,215.40988326825723L397.6064759307138,215.88990503973082L401.0327215392441,216.4154235094459L404.4589671477744,216.90483065300214L407.88521275630467,217.3565202156939L411.311458364835,217.84540718477564L414.7377039733652,218.3586034885671L418.1639495818955,218.8801405565364L421.59019519042585,219.37955948802892L425.0164407989561,219.89048896217182L428.4426864074864,220.4022353163065L431.86893201601674,220.89450646781356L435.295177624547,221.39290946352386L438.7214232330773,221.8708963101328L442.1476688416076,222.34925448609795L445.57391445013786,222.82939761402906L449.00016005866814,223.30203388846036L452.4264056671985,223.7829604106865L455.85265127572876,224.25083110230713L459.27889688425904,224.7223437984415L462.7051424927894,225.1714055464637L466.1313881013196,225.58839210841668L469.55763370984994,226.0542854065635L472.9838793183802,226.5052709053989L476.41012492691056,226.9397297593804L479.8363705354408,227.37567345381925L483.2626161439712,227.7743458763343L486.6888617525014,228.16394776102973L490.1151073610316,228.5826765810358L493.541352969562,229.00818668212034L496.96759857809224,229.4258985403441L500.3938441866226,229.84642792777902L503.82008979515285,230.26206633060343L507.2463354036832,230.61670856723194L510.6725810122134,230.9890303745768L514.0988266207437,231.35551536682777L517.525072229274,231.72512783181025L520.9513178378043,232.11722104382167L524.3775634463346,232.42948738495963L527.8038090548648,232.827496899246L531.2300546633952,233.20995970431L534.6563002719255,233.56558631505567L538.0825458804558,233.96379723744883L541.508791488986,234.32560132968405L544.9350370975163,234.71156166876213L548.3612827060466,235.09028173877329L551.7875283145769,235.44688823922735L555.2137739231073,235.83285684021308L558.6400195316374,236.2038180163349L562.0662651401678,236.57737177243746L565.4925107486982,236.95147905379005L568.9187563572284,237.27951534593998L572.3450019657588,237.61766181097715L575.7712475742891,237.98179519766046L579.1974931828192,238.3466976790204L582.6237387913496,238.69099600869788L586.0499843998799,239.0554276408683L589.4762300084102,239.41032138003135L592.9024756169405,239.75843088772842L596.3287212254709,240.0276182758533L599.754966834001,240.38214698911622L603.1812124425313,240.7091816628304L606.6074580510617,241.05821596806203L610.0337036595919,241.39651817826896L613.4599492681223,241.74607723133713L616.8861948766526,242.09254669426463L620.3124404851828,242.43258050663724L623.7386860937131,242.75254919987125L627.1649317022435,243.00685066546555L630.5911773107737,243.30333621393572L634.017422919304,243.6277391084513L637.4436685278343,243.9449914607657L640.8699141363645,244.26739076498734L644.2961597448949,244.58287503628526L647.7224053534252,244.8902755192596L651.1486509619555,245.18603777817353L654.5748965704857,245.50517188401352L658.0011421790161,245.81210283662418L661.4273877875463,246.11581396062917L664.8536333960766,246.42834933769234L668.279879004607,246.72922016236447L671.7061246131371,247.0371059779218L675.1323702216675,247.34422639061444L678.5586158301978,247.64441812385155L681.9848614387281,247.91998459071584L685.4111070472584,248.2242180154766L688.8373526557887,248.51647905538064L692.263598264319,248.81707330078672L695.6898438728492,249.09420445575492L699.1160894813796,249.38854257230332L702.5423350899098,249.6888111288384L705.9685806984402,249.9858159655587L709.3948263069705,250.26915166540869L712.8210719155007,250.55745553846586L716.247317524031,250.82557169594855L719.6735631325613,251.11097703046596L723.0998087410916,251.3894025818342L726.5260543496219,251.66780247148407L729.9522999581523,251.94435048971616L733.3785455666824,252.21029065379108L736.8047911752128,252.46227177904407L740.2310367837431,252.73590867457318L743.6572823922733,253.0049376258851L747.0835280008037,253.2661917265856L750.5097736093339,253.53585401884303L753.9360192178642,253.79955439644704L757.3622648263945,254.03378699923852L760.7885104349248,254.27712614346555L764.214756043455,254.53572476995785L767.6410016519854,254.78509841242095L771.0672472605156,255.0413193271582L774.4934928690459,255.29713533749836L777.9197384775763,255.55238390643592L781.3459840861066,255.80534582213625L784.7722296946368,256.0545437932346L788.1984753031671,256.3015348714631L791.6247209116974,256.5423058676179L795.0509665202277,256.7859150639429L798.477212128758,257.0254044097358L801.9034577372882,257.2610376470111L805.3297033458185,257.4859547288099L808.7559489543489,257.71734209562544L812.1821945628791,257.949404818997L815.6084401714095,258.1811497255908L819.0346857799398,258.40240802391855L822.46093138847,258.62764662889873L825.8871769970003,258.85345414993435L829.3134226055306,259.0780811145783L832.7396682140609,259.29976065836536L836.1659138225912,259.52099699730417L839.5921594311216,259.7406757712139L843.0184050396517,259.95849650624825L846.4446506481821,260.17286292671565L849.8708962567124,260.3843419774892L853.2971418652427,260.5954702697967L856.723387473773,260.80273644383226L860.1496330823032,261.0105023451937L863.5758786908335,261.21809183888104L867.0021242993638,261.4241483117783L870.4283699078942,261.6284726828284L873.8546155164244,261.83120432589146L877.2808611249548,262.0324982227716" style="fill: none;" fill="none"></path></g></g></g></g><g opacity="0.2"><g><g><g><path stroke="rgb(255, 112, 67)" stroke-width="2px" d="M17.293213383851445,125.36039554157252L20.719458992381735,129.4893048771629L24.145704600912026,133.43143038682052L27.57195020944232,134.7285559523452L30.998195817972615,139.72054753267014L34.42444142650291,147.04853517301893L37.8506870350332,151.77324967110349L41.27693264356349,156.10959478017315L44.70317825209378,133.49557124780122L48.12942386062407,142.68286852750094L51.55566946915437,162.8687023227471L54.981915077684654,160.3763717246407L58.40816068621495,80.62736085778174L61.83440629474524,166.39849372610038L65.26065190327553,167.69209506849427L68.68689751180582,145.9355855083102L72.11314312033612,158.99403044381313L75.53938872886641,171.2416926058427L78.9656343373967,173.17388317953868L82.391879945927,170.91076805385995L85.81812555445728,174.26603992777567L89.24437116298758,180.2781531355439L92.67061677151786,179.214260656816L96.09686238004817,183.38496727873775L99.52310798857845,183.10394572628724L102.94935359710874,188.20596355275595L106.37559920563903,189.58527400169103L109.80184481416933,184.74235705979922L113.22809042269961,187.0990050673696L116.6543360312299,193.3557698448784L120.0805816397602,194.160631923492L123.50682724829049,189.46841076267347L126.93307285682079,181.40667986649078L130.35931846535107,198.84291477508162L133.78556407388137,200.23759083686704L137.21180968241165,201.61633741010118L140.63805529094196,203.39000842737352L144.06430089947224,205.7189560411358L147.49054650800252,198.72280925078377L150.91679211653283,205.97981903727808L154.3430377250631,197.660185492383L157.7692833335934,206.99225785829623L161.1955289421237,212.13268971689072L164.62177455065398,211.66002091058692L168.0480201591843,215.90269216883974L171.4742657677146,216.1837137212903L174.90051137624485,215.67756479524385L178.32675698477516,212.3240550328935L181.75300259330547,219.29102125572248L185.17924820183575,221.9905056894577L188.60549381036603,221.86405656352434L192.03173941889634,220.55135393176153L195.45798502742662,215.35939793099462L198.88423063595692,224.5146952646666L202.3104762444872,222.6415706706429L205.73672185301749,218.08834487010338L209.1629674615478,196.4660377267404L212.5892130700781,227.33358037807358L216.01545867860835,227.9920462278335L219.44170428713866,231.53804905758847L222.86794989566897,226.03525657668442L226.29419550419925,220.1021564515089L229.72044111272953,234.51911891947515L233.14668672125984,234.93948825451776L236.5729323297901,229.1554627677754L239.9991779383204,236.81381108440596L243.4254235468507,238.38674235214756L246.851669155381,239.2651902097324L250.2779147639113,239.2409435545925L253.70416037244158,239.33750726837656L257.1304059809719,240.54561095761707L260.55665158950217,234.4557533875833L263.98289719803245,242.87688455864563L267.4091428065627,237.315449004845L270.835388415093,245.10651956458173L274.26163402362334,246.79835812075677L277.6878796321536,245.5874350530116L281.11412524068385,247.42129980135812L284.5403708492142,247.55493834247832L287.96661645774446,248.6657029888459L291.39286206627474,249.11546434479945L294.8191076748051,221.67480578140004L298.24535328333536,251.30245625085286L301.67159889186564,243.6906981640115L305.0978445003959,236.92341442377406L308.5240901089262,250.688043190228L311.9503357174565,253.80514806496384L315.3765813259868,254.5106270512887L318.8028269345171,254.03090979872326L322.2290725430474,250.36113625261436L325.6553181515777,255.28666098469228L329.081563760108,225.44487871781172L332.5078093686382,255.587841093451L335.93405497716856,245.71613968174867L339.36030058569884,246.3219536379343L342.7865461942291,257.7681369755559L346.21279180275945,258.5515012930715L349.63903741128973,260.81348866734845L353.06528301982,261.5093817667575L356.49152862835035,263.6613428948906L359.9177742368806,261.16316208638705L363.34401984541086,264.0285669451207L366.7702654539412,247.95733413955378L370.1965110624715,266.9824298044375L373.62275667100175,256.0311883633065L377.0490022795321,264.26581764628656L380.47524788806237,268.2647536328128L383.90149349659265,269.543059846819L387.32773910512293,258.96545654201606L390.7539847136532,267.7095475207856L394.1802303221835,269.0464263232257L397.6064759307138,266.29499484054236L401.0327215392441,272.0677428132662L404.4589671477744,269.1700560706544L407.88521275630467,265.99677507921353L411.311458364835,270.9270222702868L414.7377039733652,274.5366020853215L418.1639495818955,276.43510108588697L421.59019519042585,274.9374472242194L425.0164407989561,277.1824478430059L428.4426864074864,278.2396442977852L431.86893201601674,276.9669768407883L435.295177624547,278.6049652675246L438.7214232330773,277.16200734884717L442.1476688416076,278.1058647877398L445.57391445013786,279.21775718550924L449.00016005866814,279.2254399919344L452.4264056671985,281.1108288824533L455.85265127572876,280.4340370724133L459.27889688425904,281.7573123735685L462.7051424927894,279.88496310863354L466.1313881013196,276.7596820362343L469.55763370984994,283.6355118489006L472.9838793183802,282.63879106304586L476.41012492691056,281.39614998712347L479.8363705354408,282.3990734056884L483.2626161439712,278.4414413142552L486.6888617525014,278.01797066285746L490.1151073610316,282.5285533635142L493.541352969562,284.1979778605773L496.96759857809224,283.96735269889734L500.3938441866226,285.1209718985356L503.82008979515285,285.2543285018053L507.2463354036832,277.8460590585367L510.6725810122134,280.89521691131057L514.0988266207437,280.7963272102602L517.525072229274,281.90723282555297L520.9513178378043,285.6899929652356L524.3775634463346,275.36458306767315L527.8038090548648,287.8947469558682L531.2300546633952,286.45538374478417L534.6563002719255,283.3807105165433L538.0825458804558,290.0860384141411L541.508791488986,285.6272617935072L544.9350370975163,289.7692812391442L548.3612827060466,289.43948443856334L551.7875283145769,286.92770012877486L555.2137739231073,291.88233494391324L558.6400195316374,290.390672261568L562.0662651401678,291.46154270209496L565.4925107486982,292.23574403947055L568.9187563572284,286.0348029563537L572.3450019657588,288.16315178951044L575.7712475742891,292.7211000490452L579.1974931828192,293.51130135943464L582.6237387913496,291.0326447470758L586.0499843998799,294.7664886697027L589.4762300084102,293.9636001560424L592.9024756169405,293.56310743945755L596.3287212254709,281.8612064714647L599.754966834001,295.7774473170059L603.1812124425313,292.0841319603832L606.6074580510617,296.18301491489916L610.0337036595919,295.1108757540452L613.4599492681223,297.54146196289986L616.8861948766526,297.68560268894987L620.3124404851828,297.27813201056597L623.7386860937131,294.62974881222743L627.1649317022435,284.4501007833552L630.5911773107737,291.869154349404L634.017422919304,297.0374980551945L637.4436685278343,296.44218628393867L640.8699141363645,297.8850032336909L644.2961597448949,297.31316278848624L647.7224053534252,296.52514649643786L651.1486509619555,295.1117920520592L654.5748965704857,299.6411236197718L658.0011421790161,298.13254466639876L661.4273877875463,298.13902923695946L664.8536333960766,300.22177462280354L668.279879004607,298.76373302912623L671.7061246131371,300.53916615796396L675.1323702216675,300.9667249081934L678.5586158301978,300.3046643508401L681.9848614387281,296.48736682447566L685.4111070472584,302.09433534112634L688.8373526557887,300.50688427408573L692.263598264319,302.5366958285051L695.6898438728492,298.8480324464151L699.1160894813796,302.4727664209123L702.5423350899098,304.0884112729993L705.9685806984402,304.03702809975215L709.3948263069705,302.0642384755892L712.8210719155007,303.4960598491733L716.247317524031,300.27590669009265L719.6735631325613,303.9825436101499L723.0998087410916,303.1945273181015L726.5260543496219,303.69447361143773L729.9522999581523,303.8495394291932L733.3785455666824,302.340255631194L736.8047911752128,300.16517559932277L740.2310367837431,304.7600577172684L743.6572823922733,304.37063106131427L747.0835280008037,303.35854466260923L750.5097736093339,305.45806535055596L753.9360192178642,304.7864893907494L757.3622648263945,299.5117846308712L760.7885104349248,301.71907606215797L764.214756043455,305.1606209183159L767.6410016519854,303.8043588886562L771.0672472605156,305.6121443858348L774.4934928690459,305.99311290627503L777.9197384775763,306.3403193691221L781.3459840861066,306.34067179143517L784.7722296946368,306.0370952109475L788.1984753031671,306.03864586912505L791.6247209116974,305.2189115688994L795.0509665202277,306.23043409190353L798.477212128758,305.824373102772L801.9034577372882,305.4616600581494L805.3297033458185,303.6731873037276L808.7559489543489,305.4169024243881L812.1821945628791,305.972179020878L815.6084401714095,306.32171147099143L819.0346857799398,304.5396528026678L822.46093138847,305.7729194450622L825.8871769970003,306.29612561106177L829.3134226055306,306.4499227084902L832.7396682140609,306.22472485043164L836.1659138225912,306.52632786596604L839.5921594311216,306.58786080182995L843.0184050396517,306.5806009021805L846.4446506481821,306.22387903688025L849.8708962567124,305.9809190942424L853.2971418652427,306.28181726515066L856.723387473773,305.815562544945L860.1496330823032,306.29429301503376L863.5758786908335,306.62556998932956L867.0021242993638,306.657076544119L870.4283699078942,306.64044221094156L873.8546155164244,306.6501690667826L877.2808611249548,306.69020424154854" style="fill: none;" fill="none"></path></g></g></g></g></g></g><g transform="translate(53, 376)" clip-path="url(#clip_1)"><clipPath id="clip_1"><rect width="923" height="24"></rect></clipPath><g><g><line x1="13.866967775321154" y1="0" x2="13.866967775321154" y2="5" style="visibility: inherit;" fill="rgb(0, 0, 0)" stroke="rgb(204, 204, 204)" stroke-width="1px"></line><line x1="82.391879945927" y1="0" x2="82.391879945927" y2="5" style="visibility: inherit;" fill="rgb(0, 0, 0)" stroke="rgb(204, 204, 204)" stroke-width="1px"></line><line x1="150.91679211653283" y1="0" x2="150.91679211653283" y2="5" style="visibility: inherit;" fill="rgb(0, 0, 0)" stroke="rgb(204, 204, 204)" stroke-width="1px"></line><line x1="219.44170428713866" y1="0" x2="219.44170428713866" y2="5" style="visibility: inherit;" fill="rgb(0, 0, 0)" stroke="rgb(204, 204, 204)" stroke-width="1px"></line><line x1="287.96661645774446" y1="0" x2="287.96661645774446" y2="5" style="visibility: inherit;" fill="rgb(0, 0, 0)" stroke="rgb(204, 204, 204)" stroke-width="1px"></line><line x1="356.49152862835035" y1="0" x2="356.49152862835035" y2="5" style="visibility: inherit;" fill="rgb(0, 0, 0)" stroke="rgb(204, 204, 204)" stroke-width="1px"></line><line x1="425.0164407989561" y1="0" x2="425.0164407989561" y2="5" style="visibility: inherit;" fill="rgb(0, 0, 0)" stroke="rgb(204, 204, 204)" stroke-width="1px"></line><line x1="493.541352969562" y1="0" x2="493.541352969562" y2="5" style="visibility: inherit;" fill="rgb(0, 0, 0)" stroke="rgb(204, 204, 204)" stroke-width="1px"></line><line x1="562.0662651401678" y1="0" x2="562.0662651401678" y2="5" style="visibility: inherit;" fill="rgb(0, 0, 0)" stroke="rgb(204, 204, 204)" stroke-width="1px"></line><line x1="630.5911773107737" y1="0" x2="630.5911773107737" y2="5" style="visibility: inherit;" fill="rgb(0, 0, 0)" stroke="rgb(204, 204, 204)" stroke-width="1px"></line><line x1="699.1160894813796" y1="0" x2="699.1160894813796" y2="5" style="visibility: inherit;" fill="rgb(0, 0, 0)" stroke="rgb(204, 204, 204)" stroke-width="1px"></line><line x1="767.6410016519854" y1="0" x2="767.6410016519854" y2="5" style="visibility: inherit;" fill="rgb(0, 0, 0)" stroke="rgb(204, 204, 204)" stroke-width="1px"></line><line x1="836.1659138225912" y1="0" x2="836.1659138225912" y2="5" style="visibility: inherit;" fill="rgb(0, 0, 0)" stroke="rgb(204, 204, 204)" stroke-width="1px"></line><line x1="904.690825993197" y1="0" x2="904.690825993197" y2="5" style="visibility: inherit;" fill="rgb(0, 0, 0)" stroke="rgb(204, 204, 204)" stroke-width="1px"></line></g><g transform="translate(0, 8)"><text x="13.866967775321154" y="0" dx="0em" dy="0.95em" style="text-anchor: middle; visibility: inherit; font-family: Roboto, sans-serif; font-size: 12px; font-weight: 200;" fill="rgb(33, 33, 33)" stroke="none" stroke-width="1px">0</text><text x="82.391879945927" y="0" dx="0em" dy="0.95em" style="text-anchor: middle; visibility: inherit; font-family: Roboto, sans-serif; font-size: 12px; font-weight: 200;" fill="rgb(33, 33, 33)" stroke="none" stroke-width="1px">2k</text><text x="150.91679211653283" y="0" dx="0em" dy="0.95em" style="text-anchor: middle; visibility: inherit; font-family: Roboto, sans-serif; font-size: 12px; font-weight: 200;" fill="rgb(33, 33, 33)" stroke="none" stroke-width="1px">4k</text><text x="219.44170428713866" y="0" dx="0em" dy="0.95em" style="text-anchor: middle; visibility: inherit; font-family: Roboto, sans-serif; font-size: 12px; font-weight: 200;" fill="rgb(33, 33, 33)" stroke="none" stroke-width="1px">6k</text><text x="287.96661645774446" y="0" dx="0em" dy="0.95em" style="text-anchor: middle; visibility: inherit; font-family: Roboto, sans-serif; font-size: 12px; font-weight: 200;" fill="rgb(33, 33, 33)" stroke="none" stroke-width="1px">8k</text><text x="356.49152862835035" y="0" dx="0em" dy="0.95em" style="text-anchor: middle; visibility: inherit; font-family: Roboto, sans-serif; font-size: 12px; font-weight: 200;" fill="rgb(33, 33, 33)" stroke="none" stroke-width="1px">10k</text><text x="425.0164407989561" y="0" dx="0em" dy="0.95em" style="text-anchor: middle; visibility: inherit; font-family: Roboto, sans-serif; font-size: 12px; font-weight: 200;" fill="rgb(33, 33, 33)" stroke="none" stroke-width="1px">12k</text><text x="493.541352969562" y="0" dx="0em" dy="0.95em" style="text-anchor: middle; visibility: inherit; font-family: Roboto, sans-serif; font-size: 12px; font-weight: 200;" fill="rgb(33, 33, 33)" stroke="none" stroke-width="1px">14k</text><text x="562.0662651401678" y="0" dx="0em" dy="0.95em" style="text-anchor: middle; visibility: inherit; font-family: Roboto, sans-serif; font-size: 12px; font-weight: 200;" fill="rgb(33, 33, 33)" stroke="none" stroke-width="1px">16k</text><text x="630.5911773107737" y="0" dx="0em" dy="0.95em" style="text-anchor: middle; visibility: inherit; font-family: Roboto, sans-serif; font-size: 12px; font-weight: 200;" fill="rgb(33, 33, 33)" stroke="none" stroke-width="1px">18k</text><text x="699.1160894813796" y="0" dx="0em" dy="0.95em" style="text-anchor: middle; visibility: inherit; font-family: Roboto, sans-serif; font-size: 12px; font-weight: 200;" fill="rgb(33, 33, 33)" stroke="none" stroke-width="1px">20k</text><text x="767.6410016519854" y="0" dx="0em" dy="0.95em" style="text-anchor: middle; visibility: inherit; font-family: Roboto, sans-serif; font-size: 12px; font-weight: 200;" fill="rgb(33, 33, 33)" stroke="none" stroke-width="1px">22k</text><text x="836.1659138225912" y="0" dx="0em" dy="0.95em" style="text-anchor: middle; visibility: inherit; font-family: Roboto, sans-serif; font-size: 12px; font-weight: 200;" fill="rgb(33, 33, 33)" stroke="none" stroke-width="1px">24k</text><text x="904.690825993197" y="0" dx="0em" dy="0.95em" style="text-anchor: middle; visibility: inherit; font-family: Roboto, sans-serif; font-size: 12px; font-weight: 200;" fill="rgb(33, 33, 33)" stroke="none" stroke-width="1px">26k</text></g><line x1="0" y1="0" x2="923.8125" y2="0" fill="rgb(0, 0, 0)" stroke="rgb(204, 204, 204)" stroke-width="1px"></line></g></g></g></g></svg>