<svg viewBox="0 0 977 400" xmlns="http://www.w3.org/2000/svg"><g><g><g><g><g><line x1="53.1875" y1="28.581622793836264" x2="48.1875" y2="28.581622793836264" style="visibility: inherit;" fill="rgb(0, 0, 0)" stroke="rgb(204, 204, 204)" stroke-width="1px"></line></g><g transform="translate(43.1875, 0)"><text x="0" y="28.581622793836264" dx="0em" dy="0.3em" style="text-anchor: end; visibility: inherit; font-family: Roboto, sans-serif; font-size: 12px; font-weight: 200;" fill="rgb(33, 33, 33)" stroke="none" stroke-width="1px">5e-5</text></g><line x1="53.1875" y1="0" x2="53.1875" y2="376" fill="rgb(0, 0, 0)" stroke="rgb(204, 204, 204)" stroke-width="1px"></line></g></g><g transform="translate(53, 0)" clip-path="url(#clip_0)"><clipPath id="clip_0"><rect width="923" height="376"></rect></clipPath><g><g><g><line x1="15.151205141130824" y1="0" x2="15.151205141130824" y2="376" fill="rgb(0, 0, 0)" stroke="rgb(66, 66, 66)" stroke-width="1px" opacity="0.25"></line><line x1="78.7266333603184" y1="0" x2="78.7266333603184" y2="376" fill="rgb(0, 0, 0)" stroke="rgb(66, 66, 66)" stroke-width="1px" opacity="0.25"></line><line x1="142.30206157950596" y1="0" x2="142.30206157950596" y2="376" fill="rgb(0, 0, 0)" stroke="rgb(66, 66, 66)" stroke-width="1px" opacity="0.25"></line><line x1="205.87748979869355" y1="0" x2="205.87748979869355" y2="376" fill="rgb(0, 0, 0)" stroke="rgb(66, 66, 66)" stroke-width="1px" opacity="0.25"></line><line x1="269.4529180178811" y1="0" x2="269.4529180178811" y2="376" fill="rgb(0, 0, 0)" stroke="rgb(66, 66, 66)" stroke-width="1px" opacity="0.25"></line><line x1="333.02834623706866" y1="0" x2="333.02834623706866" y2="376" fill="rgb(0, 0, 0)" stroke="rgb(66, 66, 66)" stroke-width="1px" opacity="0.25"></line><line x1="396.60377445625625" y1="0" x2="396.60377445625625" y2="376" fill="rgb(0, 0, 0)" stroke="rgb(66, 66, 66)" stroke-width="1px" opacity="0.25"></line><line x1="460.17920267544383" y1="0" x2="460.17920267544383" y2="376" fill="rgb(0, 0, 0)" stroke="rgb(66, 66, 66)" stroke-width="1px" opacity="0.25"></line><line x1="523.7546308946314" y1="0" x2="523.7546308946314" y2="376" fill="rgb(0, 0, 0)" stroke="rgb(66, 66, 66)" stroke-width="1px" opacity="0.25"></line><line x1="587.330059113819" y1="0" x2="587.330059113819" y2="376" fill="rgb(0, 0, 0)" stroke="rgb(66, 66, 66)" stroke-width="1px" opacity="0.25"></line><line x1="650.9054873330065" y1="0" x2="650.9054873330065" y2="376" fill="rgb(0, 0, 0)" stroke="rgb(66, 66, 66)" stroke-width="1px" opacity="0.25"></line><line x1="714.480915552194" y1="0" x2="714.480915552194" y2="376" fill="rgb(0, 0, 0)" stroke="rgb(66, 66, 66)" stroke-width="1px" opacity="0.25"></line><line x1="778.0563437713816" y1="0" x2="778.0563437713816" y2="376" fill="rgb(0, 0, 0)" stroke="rgb(66, 66, 66)" stroke-width="1px" opacity="0.25"></line><line x1="841.6317719905693" y1="0" x2="841.6317719905693" y2="376" fill="rgb(0, 0, 0)" stroke="rgb(66, 66, 66)" stroke-width="1px" opacity="0.25"></line><line x1="905.2072002097568" y1="0" x2="905.2072002097568" y2="376" fill="rgb(0, 0, 0)" stroke="rgb(66, 66, 66)" stroke-width="1px" opacity="0.25"></line></g><g><line x1="0" y1="28.581622793836264" x2="923.8125" y2="28.581622793836264" fill="rgb(0, 0, 0)" stroke="rgb(66, 66, 66)" stroke-width="1px" opacity="0.25"></line></g></g></g><g><g><line x1="15.151205141130824" y1="0" x2="15.151205141130824" y2="376" fill="rgb(0, 0, 0)" stroke="rgb(153, 153, 153)" stroke-width="1.5px"></line></g></g><g><g><g><g><g><path stroke="rgb(255, 112, 67)" stroke-width="2px" d="M18.329976552090198,28.586651120117395L21.508747963049576,28.59418485215467L24.687519374008954,28.604937107625126L27.866290784968335,28.619211962131374L31.045062195927713,28.636710253853256L34.22383360688709,28.657635738713854L37.40260501784647,28.681904676881835L40.58137642880585,28.709476421544878L43.760147839765224,28.74046388492711L46.9389192507246,28.7747543817473L50.11769066168398,28.812442160421583L53.29646207264336,28.853490021696246L56.47523348360274,28.897872973290042L59.65400489456212,28.94566049282464L62.83277630552149,28.996823387935137L66.01154771648089,29.05134038655106L69.19031912744026,29.1092315306832L72.36909053839965,29.170512998533003L75.54786194935902,29.235166128689688L78.7266333603184,29.30320690392879L81.90540477127777,29.374648771945186L85.08417618223716,29.449475549198688L88.26294759319653,29.527700789700745L91.44171900415591,29.60931084422719L94.62049041511528,29.694319043023143L97.79926182607467,29.782713617971375L100.97803323703404,29.874530134060187L104.15680464799343,29.969734056831772L107.3355760589528,30.06835915182058L110.51434746991218,30.170394314089773L113.69311888087157,30.275830203800876L116.87189029183095,30.384678093241167L120.05066170279032,30.496948221108276L123.22943311374969,30.612631928951405L126.40820452470909,30.73173935487264L129.58697593566845,30.854279817385297L132.76574734662782,30.980245346235527L135.9445187575872,31.10962908519133L139.1232901685466,31.242456643019715L142.30206157950596,31.378720640833116L145.48083299046533,31.5184146763884L148.65960440142473,31.661547852594968L151.8383758123841,31.808128686555165L155.0171472233435,31.958151183511166L158.19591863430287,32.11161011764317L161.37469004526224,32.26852774575483L164.5534614562216,32.42889844492407L167.732232867181,32.59271728345531L170.91100427814038,32.75999254856663L174.08977568909975,32.93073209240041L177.26854710005912,33.1049312589723L180.44731851101852,33.28259784720015L183.6260899219779,33.46372761274719L186.80486133293726,33.648328287217566L189.98363274389664,33.836395991021455L193.16240415485603,34.02793837899279L196.3411755658154,34.22295189731527L199.51994697677478,34.42145481084156L202.69871838773415,34.62343280400517L205.87748979869355,34.8288933813203L209.05626120965292,35.03784374658825L212.2350326206123,35.25028080395242L215.41380403157166,35.46621169923934L218.59257544253106,35.68563359478747L221.77134685349043,35.90855357428653L224.9501182644498,36.13496903529798L228.12888967540917,36.364886996903785L231.30766108636857,36.5983142397129L234.48643249732794,36.83523924411132L237.6652039082873,37.075678045069594L240.84397531924668,37.31962836339309L244.02274673020605,37.56708820315789L247.20151814116542,37.81806439493235L250.38028955212485,38.0725635624904L253.55906096308422,38.33058379412009L256.7378323740436,38.592123428553954L259.91660378500296,38.85718917346912L263.09537519596233,39.12578754799969L266.2741466069217,39.3979169580154L269.4529180178811,39.67357603265225L272.63168942884045,39.952771359990486L275.8104608397999,40.235501697190045L278.98923225075924,40.52177357101791L282.1680036617186,40.81159334374379L285.346775072678,41.10495242280402L288.52554648363736,41.4018646963518L291.7043178945967,41.70232908889744L294.8830893055561,42.0063447067292L298.06186071651547,42.31391791046956L301.2406321274749,42.625047908870066L304.41940353843427,42.939734074811724L307.59817494939364,43.25798279915462L310.776946360353,43.57980033268983L313.9557177713124,43.90518607021173L317.13448918227175,44.23413955704032L320.3132605932311,44.566667072027535L323.4920320041905,44.90276823938148L326.6708034151499,45.24244928358245L329.8495748261093,45.585709904946974L333.02834623706866,45.932556276304645L336.20711764802803,46.28298189028693L339.3858890589874,46.63699927431613L342.5646604699468,46.994608269439546L345.74343188090614,47.35580883941925L348.9222032918655,47.72060106502575L352.10097470282494,48.08899113975195L355.2797461137843,48.46097919843109L358.4585175247437,48.83657138022852L361.63728893570305,49.215767873113734L364.8160603466624,49.59857476496899L367.99483175762185,49.984992295944L371.1736031685812,50.375020807857624L374.3523745795406,50.768660739874115L377.53114599049997,51.16591822827616L380.7099174014594,51.566793752407364L383.88868881241876,51.97129339550253L387.06746022337813,52.37941767695226L390.2462316343375,52.79116720460939L393.4250030452969,53.20654805410521L396.60377445625625,53.625560868618734L399.7825458672156,54.04820637423194L402.96131727817504,54.474490635648905L406.1400886891344,54.904414410350995L409.3188601000938,55.337978533634L412.49763151105316,55.77518905689217L415.6764029220125,56.216041740362535L418.8551743329719,56.66054776938477L422.03394574393127,57.10870300514436L425.21271715489064,57.56051351583095L428.39148856585007,58.015980330842574L431.57025997680944,58.475104546508746L434.7490313877688,58.93789221085576L437.9278027987282,59.404339587215944L441.10657420968755,59.87445759964534L444.2853456206469,60.3482425973942L447.4641170316063,60.82569588096849L450.64288844256566,61.306823529852736L453.8216598535251,61.79162685786278L457.00043126448446,62.28011189414126L460.17920267544383,62.77227533905202L463.35797408640315,63.268123270020695L466.53674549736263,63.767657123960205L469.715516908322,64.27087839019902L472.8942883192814,64.77778860889285L476.07305973024074,65.28839385015792L479.2518311412001,65.80269566206219L482.4306025521595,66.32069564144201L485.60937396311886,66.84239543256358L488.7881453740782,67.36779672559341L491.9669167850376,67.89690559869241L495.14568819599697,68.4297194297148L498.32445960695634,68.9662443310445L501.5032310179157,69.50648208379592L504.6820024288751,70.0504345110128L507.86077383983445,70.59810347653612L511.0395452507938,71.1494950739691L514.2183166617532,71.70460700238036L517.3970880727127,72.2634453841251L520.575859483672,72.82601216106468L523.7546308946314,73.39230931257778L526.9334023055908,73.96233885456039L530.1121737165502,74.53610283855828L533.2909451275095,75.11360335082546L536.4697165384689,75.69484251145673L539.6484879494283,76.27982247353452L542.8272593603876,76.86854938204817L546.006030771347,77.46102144713271L549.1848021823064,78.0572448339406L552.3635735932658,78.65721785798223L555.5423450042251,79.26094670266143L558.7211164151845,79.86842978490759L561.8998878261439,80.47967330466987L565.0786592371032,81.09467959098474L568.2574306480627,81.71344720649793L571.4362020590221,82.33598237339562L574.6149734699815,82.96228750264656L577.7937448809408,83.59236129511251L580.9725162919002,84.22620999203973L584.1512877028596,84.86383608124075L587.330059113819,85.50523839491052L590.5088305247783,86.15042319060518L593.6876019357377,86.79939302839263L596.8663733466971,87.45214686546198L600.0451447576564,88.10869097334117L603.2239161686158,88.76902438913683L606.4026875795752,89.4331498185009L609.5814589905345,90.1010735442415L612.7602304014939,90.77279471853244L615.9390018124533,91.44831610789777L619.1177732234128,92.12764049828921L622.2965446343721,92.8107706946895L625.4753160453315,93.49770952084722L628.6540874562909,94.18845636105605L631.8328588672503,94.88301756865859L635.0116302782096,95.58139259495339L638.190401689169,96.28358438516844L641.3691731001284,96.98959929611725L644.5479445110877,97.69943687616414L647.7267159220471,98.41309675413518L650.9054873330065,99.1305853376858L654.0842587439658,99.85190231580806L657.2630301549252,100.57705409590744L660.4418015658846,101.30604042568613L663.620572976844,102.03886112826379L666.7993443878033,102.77552265597546L669.9781157987628,103.51602488692998L673.1568872097222,104.26037427110927L676.3356586206816,105.00856750440633L679.5144300316409,105.76061107857092L682.6932014426003,106.51650502161974L685.8719728535597,107.27625582130223L689.050744264519,108.03986355565344L692.2295156754784,108.80732837021334L695.4082870864378,109.57865363263764L698.5870584973972,110.35384272064168L701.7658299083565,111.13289902188258L704.9446013193159,111.91582281593949L708.1233727302753,112.70262065624297L711.3021441412346,113.49328977344541L714.480915552194,114.28783675459755L717.6596869631534,115.0862620060523L720.8384583741129,115.88856599434351L724.0172297850722,116.69475533417089L727.1960011960316,117.50483053182123L730.374772606991,118.31879215161477L733.5535440179503,119.13664382427044L736.7323154289097,119.95838918725761L739.9110868398691,120.78403188485501L743.0898582508285,121.61356961777842L746.2686296617878,122.44700908110114L749.4474010727472,123.28435102233317L752.6261724837066,124.12559918406915L755.8049438946659,124.97075438363305L758.9837153056253,125.81982041034354L762.1624867165847,126.67279814926461L765.341258127544,127.52969143480652L768.5200295385034,128.39050121781753L771.6988009494629,129.25523137631387L774.8775723604223,130.12388292507492L778.0563437713816,130.99645978420824L781.235115182341,131.87296303067419L784.4138865933004,132.75339378858365L787.5926580042598,133.63775605502028L790.7714294152191,134.52605383006795L793.9502008261785,135.41828830981333L797.1289722371379,136.31446073530228L800.3077436480972,137.21457517943276L803.4865150590567,138.11863293937222L806.6652864700161,139.02663812405078L809.8440578809755,139.93859208538987L813.0228292919348,140.85449621768163L816.2016007028942,141.77435469716988L819.3803721138536,142.69816897044464L822.559143524813,143.6259432468256L825.7379149357723,144.55767902389184L828.9166863467318,145.49337783926944" style="fill: none;" fill="none"></path></g></g></g></g><g opacity="0.2"><g><g><g><path stroke="rgb(255, 112, 67)" stroke-width="2px" d="M18.329976552090198,28.586651120117395L21.508747963049576,28.601711057528995L24.687519374008954,28.626409414159497L27.866290784968335,28.6619510810629L31.045062195927713,28.706528980662206L34.22383360688709,28.761950487850115L37.40260501784647,28.82701099140165L40.58137642880585,28.90171071856858L43.760147839765224,28.987254782347478L46.9389192507246,29.081836219757918L50.11769066168398,29.187262662269912L53.29646207264336,29.302329626020775L56.47523348360274,29.427037512965985L59.65400489456212,29.56259169457681L62.83277630552149,29.70778774643594L66.01154771648089,29.862626175800745L69.19031912744026,30.027710025388515L72.36909053839965,30.203039908023037L75.54786194935902,30.388013946542102L78.7266333603184,30.583235329497064L81.90540477127777,30.788704781675698L85.08417618223716,31.003820493111817L88.26294759319653,31.229185804809074L91.44171900415591,31.46419894725994L94.62049041511528,31.709463366063922L97.79926182607467,31.964377329333995L100.97803323703404,32.230147052278824L104.15680464799343,32.50496553360648L107.3355760589528,32.79064178263674L110.51434746991218,33.08597147415078L113.69311888087157,33.39095564084096L116.87189029183095,33.706198118849834L120.05066170279032,34.03170007957101L123.22943311374969,34.366859914935276L126.40820452470909,34.71228164017153L129.58697593566845,35.067966539181676L132.76574734662782,35.433313038795966L135.9445187575872,35.80832241743058L139.1232901685466,36.19420188879305L142.30206157950596,36.58974701290624L145.48083299046533,36.99495917431155L148.65960440142473,37.410442830828835L151.8383758123841,37.83619952789364L155.0171472233435,38.2716277473108L158.19591863430287,38.71672901395551L161.37469004526224,39.17271122202584L164.5534614562216,39.63836976478243L167.732232867181,40.113706273622924L170.91100427814038,40.59932568562246L174.08977568909975,41.09522980870612L177.26854710005912,41.60081714469502L180.44731851101852,42.1166928480329L183.6260899219779,42.64225541952608L186.80486133293726,43.178110161540886L189.98363274389664,43.72365557107443L193.16240415485603,44.27949710140108L196.3411755658154,44.845033242870386L199.51994697677478,45.421473225792L202.69871838773415,46.00700832760205L205.87748979869355,46.60284789361846L209.05626120965292,47.2089941457669L212.2350326206123,47.82484554643905L215.41380403157166,48.45100810218469L218.59257544253106,49.086880258776546L221.77134685349043,49.733068187408726L224.9501182644498,50.38897031442613L228.12888967540917,51.05519297868193L231.30766108636857,51.731738667621116L234.48643249732794,52.41740164086335L237.6652039082873,53.11399671157547L240.84397531924668,53.82031816298182L244.02274673020605,54.5363684796007L247.20151814116542,55.26275452166131L250.38028955212485,55.99947900436024L253.55906096308422,56.74594023279851L256.7378323740436,57.50214083485759L259.91660378500296,58.268688033734215L263.09537519596233,59.045584697106676L266.2741466069217,59.8322290573647L269.4529180178811,60.628623886253294L272.63168942884045,61.43537678230505L275.8104608397999,62.25188591480226L278.98923225075924,63.07875907455616L282.1680036617186,63.91599935901182L285.346775072678,64.76239983543786L288.52554648363736,65.61977859710635L291.7043178945967,66.48692872413984L294.8830893055561,67.36385327778952L298.06186071651547,68.25116064440981L301.2406321274749,69.14824879710697L304.41940353843427,70.05512090524297L307.59817494939364,70.9723856623122L310.776946360353,71.90004651185824L313.9557177713124,72.83750131208193L317.13448918227175,73.78475337839991L320.3132605932311,74.74241182638129L323.4920320041905,75.70987441948478L326.6708034151499,76.68775048901561L329.8495748261093,77.6754377325601L333.02834623706866,78.67354570027763L336.20711764802803,79.68086589498527L339.3858890589874,80.69922026645503L342.5646604699468,81.72740031981301L345.74343188090614,82.76540970055865L348.9222032918655,83.81325209010564L352.10097470282494,84.87153771198568L355.2797461137843,85.93966396988145L358.4585175247437,87.01824131888552L361.63728893570305,88.10666708276288L364.8160603466624,89.2055519513438L367.99483175762185,90.31429316566681L371.1736031685812,91.43289466647317L374.3523745795406,92.5613604307717L377.53114599049997,93.70030162517703L380.7099174014594,94.84911531464147L383.88868881241876,96.00841291009142L387.06746022337813,97.17759138535492L390.2462316343375,98.35665490408658L393.4250030452969,99.54621524857802L396.60377445625625,100.74566924961746L399.7825458672156,101.95502118295586L402.96131727817504,103.17488320955928L406.1400886891344,104.40465201083758L409.3188601000938,105.64433197515275L412.49763151105316,106.8945356494253L415.6764029220125,108.1540513451677L418.8551743329719,109.42470820639369L422.03394574393127,110.70468612914146L425.21271715489064,111.99520639963804L428.39148856585007,113.29566532547203L431.57025997680944,114.60606755899515L434.7490313877688,115.92702657522466L437.9278027987282,117.25732962814034L441.10657420968755,118.59880813421485L444.2853456206469,119.94964024766895L447.4641170316063,121.31043969342028L450.64288844256566,122.68182063297705L453.8216598535251,124.06317890414368L457.00043126448446,125.45512895016938L460.17920267544383,126.85645689592278L463.35797408640315,128.26838685139433L466.53674549736263,129.69031440269382L469.715516908322,131.1222446603092L472.8942883192814,132.56418277277515L476.07305973024074,134.0167440436973L479.2518311412001,135.47932379634284L482.4306025521595,136.95192729591676L485.60937396311886,138.43455984589153L488.7881453740782,139.92722678811003L491.9669167850376,141.43054416642258L495.14568819599697,142.9432961838675L498.32445960695634,144.46670973806366L501.5032310179157,146.00017966352226L504.6820024288751,147.54371149704156L507.86077383983445,149.09731081415774L511.0395452507938,150.66159457405223L514.2183166617532,152.2353458564761L517.3970880727127,153.81979316109064L520.575859483672,155.41433087653664L523.7546308946314,157.01896477537935L526.9334023055908,158.633700669378L530.1121737165502,160.2585444095006L533.2909451275095,161.89350188602683L536.4697165384689,163.53857902862157L539.6484879494283,165.19378180637904L542.8272593603876,166.85972877006648L546.006030771347,168.5352010076582L549.1848021823064,170.2214298168714L552.3635735932658,171.91719586912072L555.5423450042251,173.62373104079757L558.7211164151845,175.33981558085958L561.8998878261439,177.06668195087286L565.0786592371032,178.80372339783654L568.2574306480627,180.55033269580386L571.4362020590221,182.30774319640528L574.6149734699815,184.07534788365035L577.7937448809408,185.85253925939608L580.9725162919002,187.64055158017683L584.1512877028596,189.4387775606737L587.330059113819,191.2466094242383L590.5088305247783,193.06528234713323L593.6876019357377,194.89418876840227L596.8663733466971,196.73272062649372L600.0451447576564,198.5821140323852L603.2239161686158,200.44114611138158L606.4026875795752,202.3104384352485L609.5814589905345,204.19061317098576L612.7602304014939,206.08044673649408L615.9390018124533,207.98056124175451L619.1177732234128,209.89096366758164L622.2965446343721,211.81166103636644L625.4753160453315,213.7426604121061L628.6540874562909,215.68335273554442L631.8328588672503,217.63497733903935L635.0116302782096,219.59630893519162L638.190401689169,221.5679709180753L641.3691731001284,223.5505873096187L644.5479445110877,225.54293207005924L647.7267159220471,227.54501210967692L650.9054873330065,229.55806877329906L654.0842587439658,231.5808752528133L657.2630301549252,233.61467357817L660.4418015658846,235.65823642311634L663.620572976844,237.7115708962849L666.7993443878033,239.7759200655985L669.9781157987628,241.85005581389393L673.1568872097222,243.935221911233L676.3356586206816,246.02957127952328L679.5144300316409,248.13496651090765L682.6932014426003,250.25017841320386L685.8719728535597,252.37645217879742L689.050744264519,254.5125580701137L692.2295156754784,256.65850355814973L695.4082870864378,258.8149155360714L698.5870584973972,260.98180203901967L701.7658299083565,263.15917114605037L704.9446013193159,265.34641110806535L708.1233727302753,267.5447696720323L711.3021441412346,269.7523949366269L714.480915552194,271.97115526546895L717.6596869631534,274.19981838409427L720.8384583741129,276.43839213129127L724.0172297850722,278.6881261292368L727.1960011960316,280.94778723040343L730.374772606991,283.2173833979563L733.5535440179503,285.49754401782997L736.7323154289097,287.7882776491445L739.9110868398691,290.0895928962439L743.0898582508285,292.4002546066318L746.2686296617878,294.7221366551801L749.4474010727472,297.0540038017687L752.6261724837066,299.39648672861716L755.8049438946659,301.74897165893645L758.9837153056253,304.1120897136839L762.1624867165847,306.4852268490952L765.341258127544,308.8690146286157L768.5200295385034,311.26283873865265L771.6988009494629,313.66733118886015L774.8775723604223,316.0818773929641L778.0563437713816,318.5071098106216L781.235115182341,320.9424135799652L784.4138865933004,323.3877973814177L787.5926580042598,325.84389435549457L790.7714294152191,328.31071382457714L793.9502008261785,330.78764036700704L797.1289722371379,333.27468283630805L800.3077436480972,335.77247529582723L803.4865150590567,338.2804018951547L806.6652864700161,340.7990971648182L809.8440578809755,343.3279449658136L813.0228292919348,345.8669543694597L816.2016007028942,348.4167606129092L819.3803721138536,350.97674711764057L822.559143524813,353.5475495976204L825.7379149357723,356.12855117848227L828.9166863467318,358.71976115223765" style="fill: none;" fill="none"></path></g></g></g></g></g></g><g transform="translate(53, 376)" clip-path="url(#clip_1)"><clipPath id="clip_1"><rect width="923" height="24"></rect></clipPath><g><g><line x1="15.151205141130824" y1="0" x2="15.151205141130824" y2="5" style="visibility: inherit;" fill="rgb(0, 0, 0)" stroke="rgb(204, 204, 204)" stroke-width="1px"></line><line x1="78.7266333603184" y1="0" x2="78.7266333603184" y2="5" style="visibility: inherit;" fill="rgb(0, 0, 0)" stroke="rgb(204, 204, 204)" stroke-width="1px"></line><line x1="142.30206157950596" y1="0" x2="142.30206157950596" y2="5" style="visibility: inherit;" fill="rgb(0, 0, 0)" stroke="rgb(204, 204, 204)" stroke-width="1px"></line><line x1="205.87748979869355" y1="0" x2="205.87748979869355" y2="5" style="visibility: inherit;" fill="rgb(0, 0, 0)" stroke="rgb(204, 204, 204)" stroke-width="1px"></line><line x1="269.4529180178811" y1="0" x2="269.4529180178811" y2="5" style="visibility: inherit;" fill="rgb(0, 0, 0)" stroke="rgb(204, 204, 204)" stroke-width="1px"></line><line x1="333.02834623706866" y1="0" x2="333.02834623706866" y2="5" style="visibility: inherit;" fill="rgb(0, 0, 0)" stroke="rgb(204, 204, 204)" stroke-width="1px"></line><line x1="396.60377445625625" y1="0" x2="396.60377445625625" y2="5" style="visibility: inherit;" fill="rgb(0, 0, 0)" stroke="rgb(204, 204, 204)" stroke-width="1px"></line><line x1="460.17920267544383" y1="0" x2="460.17920267544383" y2="5" style="visibility: inherit;" fill="rgb(0, 0, 0)" stroke="rgb(204, 204, 204)" stroke-width="1px"></line><line x1="523.7546308946314" y1="0" x2="523.7546308946314" y2="5" style="visibility: inherit;" fill="rgb(0, 0, 0)" stroke="rgb(204, 204, 204)" stroke-width="1px"></line><line x1="587.330059113819" y1="0" x2="587.330059113819" y2="5" style="visibility: inherit;" fill="rgb(0, 0, 0)" stroke="rgb(204, 204, 204)" stroke-width="1px"></line><line x1="650.9054873330065" y1="0" x2="650.9054873330065" y2="5" style="visibility: inherit;" fill="rgb(0, 0, 0)" stroke="rgb(204, 204, 204)" stroke-width="1px"></line><line x1="714.480915552194" y1="0" x2="714.480915552194" y2="5" style="visibility: inherit;" fill="rgb(0, 0, 0)" stroke="rgb(204, 204, 204)" stroke-width="1px"></line><line x1="778.0563437713816" y1="0" x2="778.0563437713816" y2="5" style="visibility: inherit;" fill="rgb(0, 0, 0)" stroke="rgb(204, 204, 204)" stroke-width="1px"></line><line x1="841.6317719905693" y1="0" x2="841.6317719905693" y2="5" style="visibility: inherit;" fill="rgb(0, 0, 0)" stroke="rgb(204, 204, 204)" stroke-width="1px"></line><line x1="905.2072002097568" y1="0" x2="905.2072002097568" y2="5" style="visibility: inherit;" fill="rgb(0, 0, 0)" stroke="rgb(204, 204, 204)" stroke-width="1px"></line></g><g transform="translate(0, 8)"><text x="15.151205141130824" y="0" dx="0em" dy="0.95em" style="text-anchor: middle; visibility: inherit; font-family: Roboto, sans-serif; font-size: 12px; font-weight: 200;" fill="rgb(33, 33, 33)" stroke="none" stroke-width="1px">0</text><text x="78.7266333603184" y="0" dx="0em" dy="0.95em" style="text-anchor: middle; visibility: inherit; font-family: Roboto, sans-serif; font-size: 12px; font-weight: 200;" fill="rgb(33, 33, 33)" stroke="none" stroke-width="1px">2k</text><text x="142.30206157950596" y="0" dx="0em" dy="0.95em" style="text-anchor: middle; visibility: inherit; font-family: Roboto, sans-serif; font-size: 12px; font-weight: 200;" fill="rgb(33, 33, 33)" stroke="none" stroke-width="1px">4k</text><text x="205.87748979869355" y="0" dx="0em" dy="0.95em" style="text-anchor: middle; visibility: inherit; font-family: Roboto, sans-serif; font-size: 12px; font-weight: 200;" fill="rgb(33, 33, 33)" stroke="none" stroke-width="1px">6k</text><text x="269.4529180178811" y="0" dx="0em" dy="0.95em" style="text-anchor: middle; visibility: inherit; font-family: Roboto, sans-serif; font-size: 12px; font-weight: 200;" fill="rgb(33, 33, 33)" stroke="none" stroke-width="1px">8k</text><text x="333.02834623706866" y="0" dx="0em" dy="0.95em" style="text-anchor: middle; visibility: inherit; font-family: Roboto, sans-serif; font-size: 12px; font-weight: 200;" fill="rgb(33, 33, 33)" stroke="none" stroke-width="1px">10k</text><text x="396.60377445625625" y="0" dx="0em" dy="0.95em" style="text-anchor: middle; visibility: inherit; font-family: Roboto, sans-serif; font-size: 12px; font-weight: 200;" fill="rgb(33, 33, 33)" stroke="none" stroke-width="1px">12k</text><text x="460.17920267544383" y="0" dx="0em" dy="0.95em" style="text-anchor: middle; visibility: inherit; font-family: Roboto, sans-serif; font-size: 12px; font-weight: 200;" fill="rgb(33, 33, 33)" stroke="none" stroke-width="1px">14k</text><text x="523.7546308946314" y="0" dx="0em" dy="0.95em" style="text-anchor: middle; visibility: inherit; font-family: Roboto, sans-serif; font-size: 12px; font-weight: 200;" fill="rgb(33, 33, 33)" stroke="none" stroke-width="1px">16k</text><text x="587.330059113819" y="0" dx="0em" dy="0.95em" style="text-anchor: middle; visibility: inherit; font-family: Roboto, sans-serif; font-size: 12px; font-weight: 200;" fill="rgb(33, 33, 33)" stroke="none" stroke-width="1px">18k</text><text x="650.9054873330065" y="0" dx="0em" dy="0.95em" style="text-anchor: middle; visibility: inherit; font-family: Roboto, sans-serif; font-size: 12px; font-weight: 200;" fill="rgb(33, 33, 33)" stroke="none" stroke-width="1px">20k</text><text x="714.480915552194" y="0" dx="0em" dy="0.95em" style="text-anchor: middle; visibility: inherit; font-family: Roboto, sans-serif; font-size: 12px; font-weight: 200;" fill="rgb(33, 33, 33)" stroke="none" stroke-width="1px">22k</text><text x="778.0563437713816" y="0" dx="0em" dy="0.95em" style="text-anchor: middle; visibility: inherit; font-family: Roboto, sans-serif; font-size: 12px; font-weight: 200;" fill="rgb(33, 33, 33)" stroke="none" stroke-width="1px">24k</text><text x="841.6317719905693" y="0" dx="0em" dy="0.95em" style="text-anchor: middle; visibility: inherit; font-family: Roboto, sans-serif; font-size: 12px; font-weight: 200;" fill="rgb(33, 33, 33)" stroke="none" stroke-width="1px">26k</text><text x="905.2072002097568" y="0" dx="0em" dy="0.95em" style="text-anchor: middle; visibility: inherit; font-family: Roboto, sans-serif; font-size: 12px; font-weight: 200;" fill="rgb(33, 33, 33)" stroke="none" stroke-width="1px">28k</text></g><line x1="0" y1="0" x2="923.8125" y2="0" fill="rgb(0, 0, 0)" stroke="rgb(204, 204, 204)" stroke-width="1px"></line></g></g></g></g></svg>