<svg viewBox="0 0 330 200" xmlns="http://www.w3.org/2000/svg"><g><g><g><g><g><line x1="53.1875" y1="176" x2="48.1875" y2="176" style="visibility: inherit;" fill="rgb(0, 0, 0)" stroke="rgb(204, 204, 204)" stroke-width="1px"></line><line x1="53.1875" y1="158.39999999999998" x2="48.1875" y2="158.39999999999998" style="visibility: inherit;" fill="rgb(0, 0, 0)" stroke="rgb(204, 204, 204)" stroke-width="1px"></line><line x1="53.1875" y1="140.79999999999998" x2="48.1875" y2="140.79999999999998" style="visibility: inherit;" fill="rgb(0, 0, 0)" stroke="rgb(204, 204, 204)" stroke-width="1px"></line><line x1="53.1875" y1="123.19999999999999" x2="48.1875" y2="123.19999999999999" style="visibility: inherit;" fill="rgb(0, 0, 0)" stroke="rgb(204, 204, 204)" stroke-width="1px"></line><line x1="53.1875" y1="105.59999999999998" x2="48.1875" y2="105.59999999999998" style="visibility: inherit;" fill="rgb(0, 0, 0)" stroke="rgb(204, 204, 204)" stroke-width="1px"></line><line x1="53.1875" y1="87.99999999999999" x2="48.1875" y2="87.99999999999999" style="visibility: inherit;" fill="rgb(0, 0, 0)" stroke="rgb(204, 204, 204)" stroke-width="1px"></line><line x1="53.1875" y1="70.4" x2="48.1875" y2="70.4" style="visibility: inherit;" fill="rgb(0, 0, 0)" stroke="rgb(204, 204, 204)" stroke-width="1px"></line><line x1="53.1875" y1="52.79999999999999" x2="48.1875" y2="52.79999999999999" style="visibility: inherit;" fill="rgb(0, 0, 0)" stroke="rgb(204, 204, 204)" stroke-width="1px"></line><line x1="53.1875" y1="35.199999999999974" x2="48.1875" y2="35.199999999999974" style="visibility: inherit;" fill="rgb(0, 0, 0)" stroke="rgb(204, 204, 204)" stroke-width="1px"></line><line x1="53.1875" y1="17.600000000000016" x2="48.1875" y2="17.600000000000016" style="visibility: inherit;" fill="rgb(0, 0, 0)" stroke="rgb(204, 204, 204)" stroke-width="1px"></line><line x1="53.1875" y1="0" x2="48.1875" y2="0" style="visibility: inherit;" fill="rgb(0, 0, 0)" stroke="rgb(204, 204, 204)" stroke-width="1px"></line></g><g transform="translate(43.1875, 0)"><text x="0" y="176" dx="0em" dy="0.3em" style="text-anchor: end; visibility: hidden; font-family: Roboto, sans-serif; font-size: 12px; font-weight: 200;" fill="rgb(33, 33, 33)" stroke="none" stroke-width="1px">0.18</text><text x="0" y="158.39999999999998" dx="0em" dy="0.3em" style="text-anchor: end; visibility: inherit; font-family: Roboto, sans-serif; font-size: 12px; font-weight: 200;" fill="rgb(33, 33, 33)" stroke="none" stroke-width="1px">0.2</text><text x="0" y="140.79999999999998" dx="0em" dy="0.3em" style="text-anchor: end; visibility: hidden; font-family: Roboto, sans-serif; font-size: 12px; font-weight: 200;" fill="rgb(33, 33, 33)" stroke="none" stroke-width="1px">0.22</text><text x="0" y="123.19999999999999" dx="0em" dy="0.3em" style="text-anchor: end; visibility: inherit; font-family: Roboto, sans-serif; font-size: 12px; font-weight: 200;" fill="rgb(33, 33, 33)" stroke="none" stroke-width="1px">0.24</text><text x="0" y="105.59999999999998" dx="0em" dy="0.3em" style="text-anchor: end; visibility: hidden; font-family: Roboto, sans-serif; font-size: 12px; font-weight: 200;" fill="rgb(33, 33, 33)" stroke="none" stroke-width="1px">0.26</text><text x="0" y="87.99999999999999" dx="0em" dy="0.3em" style="text-anchor: end; visibility: inherit; font-family: Roboto, sans-serif; font-size: 12px; font-weight: 200;" fill="rgb(33, 33, 33)" stroke="none" stroke-width="1px">0.28</text><text x="0" y="70.4" dx="0em" dy="0.3em" style="text-anchor: end; visibility: hidden; font-family: Roboto, sans-serif; font-size: 12px; font-weight: 200;" fill="rgb(33, 33, 33)" stroke="none" stroke-width="1px">0.3</text><text x="0" y="52.79999999999999" dx="0em" dy="0.3em" style="text-anchor: end; visibility: inherit; font-family: Roboto, sans-serif; font-size: 12px; font-weight: 200;" fill="rgb(33, 33, 33)" stroke="none" stroke-width="1px">0.32</text><text x="0" y="35.199999999999974" dx="0em" dy="0.3em" style="text-anchor: end; visibility: hidden; font-family: Roboto, sans-serif; font-size: 12px; font-weight: 200;" fill="rgb(33, 33, 33)" stroke="none" stroke-width="1px">0.34</text><text x="0" y="17.600000000000016" dx="0em" dy="0.3em" style="text-anchor: end; visibility: inherit; font-family: Roboto, sans-serif; font-size: 12px; font-weight: 200;" fill="rgb(33, 33, 33)" stroke="none" stroke-width="1px">0.36</text><text x="0" y="0" dx="0em" dy="0.3em" style="text-anchor: end; visibility: hidden; font-family: Roboto, sans-serif; font-size: 12px; font-weight: 200;" fill="rgb(33, 33, 33)" stroke="none" stroke-width="1px">0.38</text></g><line x1="53.1875" y1="0" x2="53.1875" y2="176" fill="rgb(0, 0, 0)" stroke="rgb(204, 204, 204)" stroke-width="1px"></line></g></g><g transform="translate(53, 0)" clip-path="url(#clip_0)"><clipPath id="clip_0"><rect width="276" height="176"></rect></clipPath><g><g><g><line x1="0" y1="0" x2="0" y2="176" fill="rgb(0, 0, 0)" stroke="rgb(66, 66, 66)" stroke-width="1px" opacity="0.25"></line><line x1="18.454166666666666" y1="0" x2="18.454166666666666" y2="176" fill="rgb(0, 0, 0)" stroke="rgb(66, 66, 66)" stroke-width="1px" opacity="0.25"></line><line x1="36.90833333333333" y1="0" x2="36.90833333333333" y2="176" fill="rgb(0, 0, 0)" stroke="rgb(66, 66, 66)" stroke-width="1px" opacity="0.25"></line><line x1="55.362500000000004" y1="0" x2="55.362500000000004" y2="176" fill="rgb(0, 0, 0)" stroke="rgb(66, 66, 66)" stroke-width="1px" opacity="0.25"></line><line x1="73.81666666666666" y1="0" x2="73.81666666666666" y2="176" fill="rgb(0, 0, 0)" stroke="rgb(66, 66, 66)" stroke-width="1px" opacity="0.25"></line><line x1="92.27083333333333" y1="0" x2="92.27083333333333" y2="176" fill="rgb(0, 0, 0)" stroke="rgb(66, 66, 66)" stroke-width="1px" opacity="0.25"></line><line x1="110.72500000000001" y1="0" x2="110.72500000000001" y2="176" fill="rgb(0, 0, 0)" stroke="rgb(66, 66, 66)" stroke-width="1px" opacity="0.25"></line><line x1="129.17916666666667" y1="0" x2="129.17916666666667" y2="176" fill="rgb(0, 0, 0)" stroke="rgb(66, 66, 66)" stroke-width="1px" opacity="0.25"></line><line x1="147.63333333333333" y1="0" x2="147.63333333333333" y2="176" fill="rgb(0, 0, 0)" stroke="rgb(66, 66, 66)" stroke-width="1px" opacity="0.25"></line><line x1="166.0875" y1="0" x2="166.0875" y2="176" fill="rgb(0, 0, 0)" stroke="rgb(66, 66, 66)" stroke-width="1px" opacity="0.25"></line><line x1="184.54166666666666" y1="0" x2="184.54166666666666" y2="176" fill="rgb(0, 0, 0)" stroke="rgb(66, 66, 66)" stroke-width="1px" opacity="0.25"></line><line x1="202.9958333333333" y1="0" x2="202.9958333333333" y2="176" fill="rgb(0, 0, 0)" stroke="rgb(66, 66, 66)" stroke-width="1px" opacity="0.25"></line><line x1="221.45000000000002" y1="0" x2="221.45000000000002" y2="176" fill="rgb(0, 0, 0)" stroke="rgb(66, 66, 66)" stroke-width="1px" opacity="0.25"></line><line x1="239.90416666666667" y1="0" x2="239.90416666666667" y2="176" fill="rgb(0, 0, 0)" stroke="rgb(66, 66, 66)" stroke-width="1px" opacity="0.25"></line><line x1="258.35833333333335" y1="0" x2="258.35833333333335" y2="176" fill="rgb(0, 0, 0)" stroke="rgb(66, 66, 66)" stroke-width="1px" opacity="0.25"></line><line x1="276.8125" y1="0" x2="276.8125" y2="176" fill="rgb(0, 0, 0)" stroke="rgb(66, 66, 66)" stroke-width="1px" opacity="0.25"></line></g><g><line x1="0" y1="176" x2="276.8125" y2="176" fill="rgb(0, 0, 0)" stroke="rgb(66, 66, 66)" stroke-width="1px" opacity="0.25"></line><line x1="0" y1="158.39999999999998" x2="276.8125" y2="158.39999999999998" fill="rgb(0, 0, 0)" stroke="rgb(66, 66, 66)" stroke-width="1px" opacity="0.25"></line><line x1="0" y1="140.79999999999998" x2="276.8125" y2="140.79999999999998" fill="rgb(0, 0, 0)" stroke="rgb(66, 66, 66)" stroke-width="1px" opacity="0.25"></line><line x1="0" y1="123.19999999999999" x2="276.8125" y2="123.19999999999999" fill="rgb(0, 0, 0)" stroke="rgb(66, 66, 66)" stroke-width="1px" opacity="0.25"></line><line x1="0" y1="105.59999999999998" x2="276.8125" y2="105.59999999999998" fill="rgb(0, 0, 0)" stroke="rgb(66, 66, 66)" stroke-width="1px" opacity="0.25"></line><line x1="0" y1="87.99999999999999" x2="276.8125" y2="87.99999999999999" fill="rgb(0, 0, 0)" stroke="rgb(66, 66, 66)" stroke-width="1px" opacity="0.25"></line><line x1="0" y1="70.4" x2="276.8125" y2="70.4" fill="rgb(0, 0, 0)" stroke="rgb(66, 66, 66)" stroke-width="1px" opacity="0.25"></line><line x1="0" y1="52.79999999999999" x2="276.8125" y2="52.79999999999999" fill="rgb(0, 0, 0)" stroke="rgb(66, 66, 66)" stroke-width="1px" opacity="0.25"></line><line x1="0" y1="35.199999999999974" x2="276.8125" y2="35.199999999999974" fill="rgb(0, 0, 0)" stroke="rgb(66, 66, 66)" stroke-width="1px" opacity="0.25"></line><line x1="0" y1="17.600000000000016" x2="276.8125" y2="17.600000000000016" fill="rgb(0, 0, 0)" stroke="rgb(66, 66, 66)" stroke-width="1px" opacity="0.25"></line><line x1="0" y1="0" x2="276.8125" y2="0" fill="rgb(0, 0, 0)" stroke="rgb(66, 66, 66)" stroke-width="1px" opacity="0.25"></line></g></g></g><g><g><line x1="0" y1="334.4" x2="276.8125" y2="334.4" fill="rgb(0, 0, 0)" stroke="rgb(153, 153, 153)" stroke-width="1.5px"></line></g></g><g><g><line x1="18.454166666666666" y1="0" x2="18.454166666666666" y2="176" fill="rgb(0, 0, 0)" stroke="rgb(153, 153, 153)" stroke-width="1.5px"></line></g></g><g><g><g><g><g><path stroke="rgb(255, 112, 67)" stroke-width="2px" d="M27.681250000000002,-1.9141277972560147L28.603958333333335,4.290815074577811L29.526666666666667,6.571081318915407L30.449375,7.588000178601275L31.372083333333332,11.59134762948355L32.29479166666667,12.810018924169192L33.2175,16.514044359387597L34.140208333333334,17.7837964298336L35.062916666666666,21.648931507790408L35.985625,24.44824946142748L36.90833333333333,25.25303643359216L37.831041666666664,27.593770488184276L38.753750000000004,29.248770060967434L39.676458333333336,31.661175693996384L40.59916666666667,34.46968911368154L41.521875,33.76183162941679L42.44458333333333,35.925515492329595L43.36729166666667,36.73365569531753L44.29,38.89205528958887L45.21270833333333,40.24307411063789L46.135416666666664,42.075427439502064L47.058125000000004,42.45541340250121L47.98083333333334,44.95935754415634L48.90354166666667,46.127450303893525L49.82625,45.11661131035959L50.74895833333333,45.825775238675696L51.67166666666667,47.48804435294472L52.594375,48.61732445211205L53.51708333333333,49.694238651624545L54.439791666666665,51.49087451764292L55.362500000000004,53.08102113108543L56.28520833333334,53.91044420127704L57.20791666666667,54.44374583541081L58.130624999999995,55.031651818053035L59.053333333333335,55.774686220853575L59.97604166666667,56.85049171941313L60.89875,57.04020939890353L61.82145833333333,58.18930590419273L62.744166666666665,59.00149251917401L63.666875000000005,59.859615719794675L64.58958333333334,60.76456418933088L65.51229166666667,60.823814546650965L66.435,62.3128558829631L67.35770833333333,62.91417373275371L68.28041666666667,63.610340179379065L69.203125,63.814402014531964L70.12583333333333,64.44723874898516L71.04854166666667,64.8864142936204L71.97125,65.3541470596454L72.89395833333333,65.88738659585589L73.81666666666666,65.66729448650923L74.73937500000001,66.21840414000965L75.66208333333333,67.12189485567725L76.58479166666667,68.11050080918889L77.50750000000001,68.62838053143736L78.43020833333333,69.62788198990162L79.35291666666667,70.84772638797547L80.27562499999999,70.72545325039077L81.19833333333334,70.85430204242697L82.12104166666667,71.49655283063875L83.04375,71.82251125601651L83.96645833333334,72.65903581733056L84.88916666666665,72.80759092598173L85.811875,73.08451199353574L86.73458333333333,73.46492783251982L87.65729166666667,74.24177161514413L88.58,75.42362584619917L89.50270833333333,76.2044707089761L90.42541666666666,76.6194813390963L91.34812500000001,76.99271553906136L92.27083333333333,77.63347090863944L93.19354166666666,78.38387899837763L94.11625000000001,78.44675057984244L95.03895833333333,79.14971590012036L95.96166666666667,79.17872413209062L96.88437499999999,80.36632497248762L97.80708333333334,81.61808511410311L98.72979166666667,83.04584319390403L99.6525,84.30330477305026L100.57520833333334,85.42506668067085L101.49791666666665,86.65575972177471L102.420625,87.40130514852201L103.34333333333333,88.25772328365717L104.26604166666667,89.27300062921759L105.18875,90.12058257253233L106.11145833333335,91.09297854766456L107.03416666666666,92.01915653795764L107.956875,93.08797409786169L108.87958333333333,93.86454243492993L109.80229166666666,94.835373411866L110.72500000000001,95.50486258752207L111.64770833333333,96.20228527539538L112.57041666666667,97.10462332266708L113.49312499999999,97.89236598310656L114.41583333333334,99.0353917155088L115.33854166666667,99.98454914884783L116.26124999999999,100.8606849021036L117.18395833333334,101.72996395593339L118.10666666666667,102.43620683931567L119.029375,102.90376878428339L119.95208333333333,103.72422733686068L120.87479166666667,104.18998068815006L121.7975,104.63329612469508L122.72020833333335,105.51904771471641L123.64291666666666,106.08228454411379L124.565625,106.54179272402739L125.48833333333333,107.09295313234472L126.41104166666666,107.55183317475252L127.33375000000001,108.0068780119143L128.25645833333334,108.5961700951522L129.17916666666667,108.72914503531067L130.101875,109.42718997634877L131.02458333333334,109.78446397391872L131.94729166666667,110.17924106116389L132.87,110.4205675357607L133.79270833333334,110.93349971033976L134.71541666666667,111.62848442801698L135.638125,112.16279794326086L136.56083333333333,112.60529283603717L137.48354166666667,112.89483616286344L138.40625,113.61284172066455L139.32895833333333,114.08346436035576L140.25166666666667,114.85351716139117L141.174375,115.54205002242918L142.09708333333333,116.04284432122935L143.0197916666667,116.25342298734161L143.9425,116.94926348642517L144.86520833333333,117.77508215273109L145.78791666666666,118.10579278423971L146.710625,118.49680593620364L147.63333333333333,118.70784366941746L148.55604166666666,118.84966835893165L149.47875000000002,119.4579294198858L150.40145833333332,119.80286062222446L151.32416666666666,120.22825499560686L152.24687500000002,120.66080494259111L153.16958333333335,121.01813573954567L154.09229166666665,121.27215337995116L155.01500000000001,121.50291129210589L155.93770833333335,121.49546761129217L156.86041666666665,121.86637594613308L157.78312499999998,122.35976472719567L158.70583333333335,122.42248387052138L159.62854166666668,123.0312197457048L160.55124999999998,123.30725916045851L161.47395833333334,123.4553730292379L162.39666666666668,123.95234785664462L163.31937499999998,124.5077546878385L164.24208333333334,124.76362142704386L165.16479166666667,124.90317516358789L166.0875,125.08559824851868L167.01020833333334,125.53369589468939L167.93291666666667,125.79098982328844L168.855625,125.9082761059449L169.7783333333333,126.17532401562833L170.70104166666667,126.2569706312488L171.62375,126.40664003299906L172.54645833333333,126.82674077470726L173.46916666666667,127.01545445395847L174.391875,127.61148848502509L175.31458333333333,128.2342518292426L176.2372916666667,128.8435581414526L177.16,129.41069449089656L178.08270833333333,130.06926045195303L179.00541666666666,130.4454035623125L179.928125,131.06214350792322L180.85083333333333,131.47291743527086L181.77354166666666,132.00700289320338L182.69625000000002,132.58793694441076L183.61895833333332,133.06039258832706L184.54166666666666,133.59272842007715L185.46437500000002,133.98369193416227L186.38708333333332,134.47765516535833L187.30979166666665,134.77211993708093L188.23250000000002,135.35018241542733L189.15520833333335,135.89125118201468L190.07791666666665,136.33423776481476L191.00062499999999,136.969479576777L191.92333333333335,137.48349368225348L192.84604166666665,137.88530341150826L193.76874999999998,138.33624457478578L194.69145833333334,138.7586722343601L195.61416666666668,139.19028112176153L196.53687499999998,139.61189108351525L197.45958333333334,140.1184270453151L198.38229166666667,140.62968129443053L199.305,140.92468210632111L200.22770833333334,141.301288994335L201.15041666666667,141.76173111858512L202.073125,142.19315820955975L202.9958333333333,142.4892403587664L203.91854166666667,142.67029536359493L204.84125,143.1116459223358L205.76395833333333,143.4217596531698L206.68666666666667,143.82272323765937L207.609375,144.25677688785967L208.53208333333333,144.606279910059L209.45479166666667,144.99285088174355L210.3775,145.16304235591068L211.30020833333333,145.48690201757842L212.2229166666667,145.68599918440123L213.145625,145.74910627273525L214.06833333333333,145.965863563663L214.99104166666666,146.262191096138L215.91375,146.6292479037604L216.83645833333333,146.97196224290585L217.75916666666666,147.15709070391912L218.68187500000002,147.47037068241735L219.60458333333332,147.70532220101876L220.52729166666666,148.071394428487L221.45000000000002,148.52320805969438L222.37270833333335,148.82141954240558L223.29541666666665,149.16244156961832L224.21812500000001,149.3758566575417L225.14083333333335,149.42781615068876L226.06354166666665,149.901033621672L226.98624999999998,150.19393453164597L227.90895833333335,150.36036712323047L228.83166666666668,150.5909129341L229.75437499999998,150.81213054145505L230.67708333333334,151.06866113365427L231.59979166666668,151.40100222294214L232.52249999999998,151.7160217008126L233.44520833333334,151.78117537054646L234.36791666666667,152.12233641079285L235.290625,152.36439997375294L236.21333333333334,152.5520996358299L237.13604166666667,152.80532242301462L238.05875,152.9048200833694L238.9814583333333,153.23850179953686L239.90416666666667,153.40119469468388L240.826875,153.41425777033746L241.74958333333333,153.3912002728262L242.67229166666667,153.50451861283506L243.595,153.79322208394248L244.51770833333333,153.8083412614144L245.4404166666667,154.12907452154872L246.363125,154.43514045757132L247.28583333333333,154.76155292225792L248.20854166666666,155.03784184479093L249.13125,155.15244892782522L250.05395833333333,155.34063527612565L250.97666666666666,155.4341289139418L251.89937500000002,155.82318991836655L252.82208333333332,156.13623222129348L253.74479166666666,156.4698629940799L254.66750000000002,156.86084917412353" style="fill: none;" fill="none"></path></g></g></g></g><g opacity="0.2"><g><g><g><path stroke="rgb(255, 112, 67)" stroke-width="2px" d="M19.376875000000002,-106.12798271179197L20.299583333333334,9.767999076843266L21.222291666666663,-25.07998762130735L22.145,10.999993705749516L23.067708333333332,25.255998992919928L23.99041666666667,4.4879883766174355L24.913125,9.855987453460697L25.835833333333333,35.19999685287476L26.758541666666666,-5.807989215850807L27.681250000000002,21.64800348281861L28.603958333333335,65.99999370574952L29.526666666666667,31.50401296615601L30.449375,19.7119969367981L31.372083333333332,63.27201309204102L32.29479166666667,29.744009399414068L33.2175,71.63201036453248L34.140208333333334,37.92800369262696L35.062916666666666,86.76800432205201L35.985625,74.35999097824097L36.90833333333333,40.39199295043946L37.831041666666664,73.91999664306641L38.753750000000004,63.62399282455445L39.676458333333336,84.12801208496094L40.59916666666667,98.29600276947019L41.521875,16.983990097045904L42.44458333333333,89.32000818252561L43.36729166666667,57.4639934539795L44.29,96.35999622344968L45.21270833333333,77.52799215316773L46.135416666666664,94.42398967742918L47.058125000000004,53.679994964599615L47.98083333333334,121.35199966430662L48.90354166666667,82.89599123001099L49.82625,12.320002937316898L50.74895833333333,69.5200008392334L51.67166666666667,104.63200511932371L52.594375,88.52800788879392L53.51708333333333,88.79199924468992L54.439791666666665,118.4480029582977L55.362500000000004,113.87199106216428L56.28520833333334,86.41599836349488L57.20791666666667,75.85600318908692L58.130624999999995,79.20000734329224L59.053333333333335,87.031995677948L59.97604166666667,103.13599290847776L60.89875,65.38399639129639L61.82145833333333,109.8240012168884L62.744166666666665,96.27200784683225L63.666875000000005,100.05600633621214L64.58958333333334,104.01600780487058L65.51229166666667,63.71200742721558L66.435,136.31200375556944L67.35770833333333,93.36799802780149L68.28041666666667,99.52799739837644L69.203125,74.53599395751954L70.12583333333333,98.29600276947019L71.04854166666667,88.79199924468992L71.97125,91.25598850250242L72.89395833333333,95.92000188827512L73.81666666666666,53.06399765014649L74.73937500000001,98.29600276947019L75.66208333333333,120.55999937057493L76.58479166666667,127.51199903488157L77.50750000000001,100.2320093154907L78.43020833333333,131.5600019931793L79.35291666666667,147.5759977340698L80.27562499999999,62.92000713348389L81.19833333333334,79.20000734329224L82.12104166666667,113.69598808288572L83.04375,93.54400100708006L83.96645833333334,129.18400111198423L84.88916666666665,82.98400583267212L85.811875,92.3120063781738L86.73458333333333,100.2320093154907L87.65729166666667,129.6239954471588L88.58,160.77599825859068L89.50270833333333,133.32000555992124L90.42541666666666,107.3600119590759L91.34812500000001,104.98401107788084L92.27083333333333,126.28000440597532L93.19354166666666,136.0479992866516L94.11625000000001,83.33601179122925L95.03895833333333,134.4639986991882L95.96166666666667,81.48799362182618L96.88437499999999,175.9999937057495L97.80708333333334,183.5680037975311L101.49791666666665,191.40000524520872L102.420625,151.53599920272825L103.34333333333333,162.71200480461118L104.26604166666667,178.46399607658384L105.18875,165.35199704170225L106.11145833333335,178.28800621032713L107.03416666666666,175.91200532913206L107.956875,190.87199630737302L108.87958333333333,165.6160015106201L109.80229166666666,185.41599574089048L110.72500000000001,158.57600035667417L111.64770833333333,162.53600182533262L112.57041666666667,183.74399366378782L113.49312499999999,174.2400032520294L114.41583333333334,210.84799351692197L117.18395833333334,189.11200585365293L118.10666666666667,174.06400027275083L119.029375,150.74399890899656L119.95208333333333,188.40799393653867L120.87479166666667,152.68000545501707L121.7975,151.18400635719297L122.72020833333335,199.31999506950376L123.64291666666666,166.23199882507322L124.565625,156.02399649620054L125.48833333333333,166.93599762916563L126.41104166666666,157.78400006294248L127.33375000000001,158.22399439811704L128.25645833333334,174.1520017623901L129.17916666666667,123.6399990558624L130.101875,188.32000555992124L131.02458333333334,150.4799944400787L131.94729166666667,155.4960006713867L132.87,138.33599867820737L133.79270833333334,170.7199961185455L134.71541666666667,193.2479971885681L135.638125,175.38399639129636L136.56083333333333,165.35199704170225L137.48354166666667,147.66399922370908L138.40625,200.46400132179258L139.32895833333333,171.42399492263792L140.25166666666667,209.35199441909788L142.09708333333333,178.37599458694456L143.0197916666667,142.64800610542295L143.9425,204.7759956359863L144.86520833333333,222.72799792289732L145.78791666666666,160.4240054130554L146.710625,168.87200417518613L147.63333333333333,146.0799986362457L148.55604166666666,137.36799540519712L149.47875000000002,199.40799655914304L150.40145833333332,165.43999853134153L151.32416666666666,176.87999548912046L152.24687500000002,178.6399990558624L153.16958333333335,169.2239970207214L154.09229166666665,155.76000514030454L155.01500000000001,153.03199830055235L155.93770833333335,120.47199788093565L156.86041666666665,173.18399848937986L157.78312499999998,191.0479992866516L158.70583333333335,131.20799603462217L159.62854166666668,208.82399859428403L160.55124999999998,162.44800033569334L161.47395833333334,144.5839995384216L162.39666666666668,195.27200522422788L163.31937499999998,204.68799414634702L164.24208333333334,161.9200045108795L165.16479166666667,145.28799834251402L166.0875,151.88800516128538L167.01020833333334,191.751998090744L167.93291666666667,164.03200092315672L168.855625,143.44000639915464L169.7783333333333,166.3200003147125L170.70104166666667,138.60000314712522L171.62375,149.15999832153318L172.54645833333333,191.0479992866516L173.46916666666667,156.02399649620054L174.391875,219.73599972724912L202.9958333333333,195.888002538681L203.91854166666667,175.47199788093565L204.84125,223.43199672698972L212.2229166666667,183.21599783897398L213.145625,157.6959985733032L214.06833333333333,187.17599930763242L224.21812500000001,191.83999958038328L225.14083333333335,159.80799498558042L226.06354166666665,244.8159981012344L232.52249999999998,216.65600004196165L233.44520833333334,165.26399555206297L234.36791666666667,222.99200239181516L237.13604166666667,206.0080033779144L238.05875,173.88799729347227L238.9814583333333,223.87200417518613L239.90416666666667,187.9679996013641L240.826875,156.1999994754791L241.74958333333333,148.45599951744077L242.67229166666667,177.84799876213071L243.595,216.04000272750852L244.51770833333333,157.08000125885007L245.4404166666667,223.78400268554685" style="fill: none;" fill="none"></path></g></g></g></g></g></g><g transform="translate(53, 176)" clip-path="url(#clip_1)"><clipPath id="clip_1"><rect width="276" height="24"></rect></clipPath><g><g><line x1="0" y1="0" x2="0" y2="5" style="visibility: inherit;" fill="rgb(0, 0, 0)" stroke="rgb(204, 204, 204)" stroke-width="1px"></line><line x1="18.454166666666666" y1="0" x2="18.454166666666666" y2="5" style="visibility: inherit;" fill="rgb(0, 0, 0)" stroke="rgb(204, 204, 204)" stroke-width="1px"></line><line x1="36.90833333333333" y1="0" x2="36.90833333333333" y2="5" style="visibility: inherit;" fill="rgb(0, 0, 0)" stroke="rgb(204, 204, 204)" stroke-width="1px"></line><line x1="55.362500000000004" y1="0" x2="55.362500000000004" y2="5" style="visibility: inherit;" fill="rgb(0, 0, 0)" stroke="rgb(204, 204, 204)" stroke-width="1px"></line><line x1="73.81666666666666" y1="0" x2="73.81666666666666" y2="5" style="visibility: inherit;" fill="rgb(0, 0, 0)" stroke="rgb(204, 204, 204)" stroke-width="1px"></line><line x1="92.27083333333333" y1="0" x2="92.27083333333333" y2="5" style="visibility: inherit;" fill="rgb(0, 0, 0)" stroke="rgb(204, 204, 204)" stroke-width="1px"></line><line x1="110.72500000000001" y1="0" x2="110.72500000000001" y2="5" style="visibility: inherit;" fill="rgb(0, 0, 0)" stroke="rgb(204, 204, 204)" stroke-width="1px"></line><line x1="129.17916666666667" y1="0" x2="129.17916666666667" y2="5" style="visibility: inherit;" fill="rgb(0, 0, 0)" stroke="rgb(204, 204, 204)" stroke-width="1px"></line><line x1="147.63333333333333" y1="0" x2="147.63333333333333" y2="5" style="visibility: inherit;" fill="rgb(0, 0, 0)" stroke="rgb(204, 204, 204)" stroke-width="1px"></line><line x1="166.0875" y1="0" x2="166.0875" y2="5" style="visibility: inherit;" fill="rgb(0, 0, 0)" stroke="rgb(204, 204, 204)" stroke-width="1px"></line><line x1="184.54166666666666" y1="0" x2="184.54166666666666" y2="5" style="visibility: inherit;" fill="rgb(0, 0, 0)" stroke="rgb(204, 204, 204)" stroke-width="1px"></line><line x1="202.9958333333333" y1="0" x2="202.9958333333333" y2="5" style="visibility: inherit;" fill="rgb(0, 0, 0)" stroke="rgb(204, 204, 204)" stroke-width="1px"></line><line x1="221.45000000000002" y1="0" x2="221.45000000000002" y2="5" style="visibility: inherit;" fill="rgb(0, 0, 0)" stroke="rgb(204, 204, 204)" stroke-width="1px"></line><line x1="239.90416666666667" y1="0" x2="239.90416666666667" y2="5" style="visibility: inherit;" fill="rgb(0, 0, 0)" stroke="rgb(204, 204, 204)" stroke-width="1px"></line><line x1="258.35833333333335" y1="0" x2="258.35833333333335" y2="5" style="visibility: inherit;" fill="rgb(0, 0, 0)" stroke="rgb(204, 204, 204)" stroke-width="1px"></line><line x1="276.8125" y1="0" x2="276.8125" y2="5" style="visibility: inherit;" fill="rgb(0, 0, 0)" stroke="rgb(204, 204, 204)" stroke-width="1px"></line></g><g transform="translate(0, 8)"><text x="0" y="0" dx="0em" dy="0.95em" style="text-anchor: middle; visibility: hidden; font-family: Roboto, sans-serif; font-size: 12px; font-weight: 200;" fill="rgb(33, 33, 33)" stroke="none" stroke-width="1px">-2k</text><text x="18.454166666666666" y="0" dx="0em" dy="0.95em" style="text-anchor: middle; visibility: inherit; font-family: Roboto, sans-serif; font-size: 12px; font-weight: 200;" fill="rgb(33, 33, 33)" stroke="none" stroke-width="1px">0</text><text x="36.90833333333333" y="0" dx="0em" dy="0.95em" style="text-anchor: middle; visibility: hidden; font-family: Roboto, sans-serif; font-size: 12px; font-weight: 200;" fill="rgb(33, 33, 33)" stroke="none" stroke-width="1px">2k</text><text x="55.362500000000004" y="0" dx="0em" dy="0.95em" style="text-anchor: middle; visibility: inherit; font-family: Roboto, sans-serif; font-size: 12px; font-weight: 200;" fill="rgb(33, 33, 33)" stroke="none" stroke-width="1px">4k</text><text x="73.81666666666666" y="0" dx="0em" dy="0.95em" style="text-anchor: middle; visibility: hidden; font-family: Roboto, sans-serif; font-size: 12px; font-weight: 200;" fill="rgb(33, 33, 33)" stroke="none" stroke-width="1px">6k</text><text x="92.27083333333333" y="0" dx="0em" dy="0.95em" style="text-anchor: middle; visibility: inherit; font-family: Roboto, sans-serif; font-size: 12px; font-weight: 200;" fill="rgb(33, 33, 33)" stroke="none" stroke-width="1px">8k</text><text x="110.72500000000001" y="0" dx="0em" dy="0.95em" style="text-anchor: middle; visibility: hidden; font-family: Roboto, sans-serif; font-size: 12px; font-weight: 200;" fill="rgb(33, 33, 33)" stroke="none" stroke-width="1px">10k</text><text x="129.17916666666667" y="0" dx="0em" dy="0.95em" style="text-anchor: middle; visibility: inherit; font-family: Roboto, sans-serif; font-size: 12px; font-weight: 200;" fill="rgb(33, 33, 33)" stroke="none" stroke-width="1px">12k</text><text x="147.63333333333333" y="0" dx="0em" dy="0.95em" style="text-anchor: middle; visibility: hidden; font-family: Roboto, sans-serif; font-size: 12px; font-weight: 200;" fill="rgb(33, 33, 33)" stroke="none" stroke-width="1px">14k</text><text x="166.0875" y="0" dx="0em" dy="0.95em" style="text-anchor: middle; visibility: inherit; font-family: Roboto, sans-serif; font-size: 12px; font-weight: 200;" fill="rgb(33, 33, 33)" stroke="none" stroke-width="1px">16k</text><text x="184.54166666666666" y="0" dx="0em" dy="0.95em" style="text-anchor: middle; visibility: hidden; font-family: Roboto, sans-serif; font-size: 12px; font-weight: 200;" fill="rgb(33, 33, 33)" stroke="none" stroke-width="1px">18k</text><text x="202.9958333333333" y="0" dx="0em" dy="0.95em" style="text-anchor: middle; visibility: inherit; font-family: Roboto, sans-serif; font-size: 12px; font-weight: 200;" fill="rgb(33, 33, 33)" stroke="none" stroke-width="1px">20k</text><text x="221.45000000000002" y="0" dx="0em" dy="0.95em" style="text-anchor: middle; visibility: hidden; font-family: Roboto, sans-serif; font-size: 12px; font-weight: 200;" fill="rgb(33, 33, 33)" stroke="none" stroke-width="1px">22k</text><text x="239.90416666666667" y="0" dx="0em" dy="0.95em" style="text-anchor: middle; visibility: inherit; font-family: Roboto, sans-serif; font-size: 12px; font-weight: 200;" fill="rgb(33, 33, 33)" stroke="none" stroke-width="1px">24k</text><text x="258.35833333333335" y="0" dx="0em" dy="0.95em" style="text-anchor: middle; visibility: hidden; font-family: Roboto, sans-serif; font-size: 12px; font-weight: 200;" fill="rgb(33, 33, 33)" stroke="none" stroke-width="1px">26k</text><text x="276.8125" y="0" dx="0em" dy="0.95em" style="text-anchor: middle; visibility: hidden; font-family: Roboto, sans-serif; font-size: 12px; font-weight: 200;" fill="rgb(33, 33, 33)" stroke="none" stroke-width="1px">28k</text></g><line x1="0" y1="0" x2="276.8125" y2="0" fill="rgb(0, 0, 0)" stroke="rgb(204, 204, 204)" stroke-width="1px"></line></g></g></g></g></svg>