<svg viewBox="0 0 977 400" xmlns="http://www.w3.org/2000/svg"><g><g><g><g><g><line x1="42.390625" y1="367.5591595063008" x2="37.390625" y2="367.5591595063008" style="visibility: inherit;" fill="rgb(0, 0, 0)" stroke="rgb(204, 204, 204)" stroke-width="1px"></line><line x1="42.390625" y1="331.70223404353067" x2="37.390625" y2="331.70223404353067" style="visibility: inherit;" fill="rgb(0, 0, 0)" stroke="rgb(204, 204, 204)" stroke-width="1px"></line><line x1="42.390625" y1="295.84530858076056" x2="37.390625" y2="295.84530858076056" style="visibility: inherit;" fill="rgb(0, 0, 0)" stroke="rgb(204, 204, 204)" stroke-width="1px"></line><line x1="42.390625" y1="259.98838311799057" x2="37.390625" y2="259.98838311799057" style="visibility: inherit;" fill="rgb(0, 0, 0)" stroke="rgb(204, 204, 204)" stroke-width="1px"></line><line x1="42.390625" y1="224.13145765522043" x2="37.390625" y2="224.13145765522043" style="visibility: inherit;" fill="rgb(0, 0, 0)" stroke="rgb(204, 204, 204)" stroke-width="1px"></line><line x1="42.390625" y1="188.27453219245032" x2="37.390625" y2="188.27453219245032" style="visibility: inherit;" fill="rgb(0, 0, 0)" stroke="rgb(204, 204, 204)" stroke-width="1px"></line><line x1="42.390625" y1="152.41760672968024" x2="37.390625" y2="152.41760672968024" style="visibility: inherit;" fill="rgb(0, 0, 0)" stroke="rgb(204, 204, 204)" stroke-width="1px"></line><line x1="42.390625" y1="116.56068126691021" x2="37.390625" y2="116.56068126691021" style="visibility: inherit;" fill="rgb(0, 0, 0)" stroke="rgb(204, 204, 204)" stroke-width="1px"></line><line x1="42.390625" y1="80.7037558041401" x2="37.390625" y2="80.7037558041401" style="visibility: inherit;" fill="rgb(0, 0, 0)" stroke="rgb(204, 204, 204)" stroke-width="1px"></line><line x1="42.390625" y1="44.84683034137003" x2="37.390625" y2="44.84683034137003" style="visibility: inherit;" fill="rgb(0, 0, 0)" stroke="rgb(204, 204, 204)" stroke-width="1px"></line><line x1="42.390625" y1="8.989904878599997" x2="37.390625" y2="8.989904878599997" style="visibility: inherit;" fill="rgb(0, 0, 0)" stroke="rgb(204, 204, 204)" stroke-width="1px"></line></g><g transform="translate(32.390625, 0)"><text x="0" y="367.5591595063008" dx="0em" dy="0.3em" style="text-anchor: end; visibility: inherit; font-family: Roboto, sans-serif; font-size: 12px; font-weight: 200;" fill="rgb(33, 33, 33)" stroke="none" stroke-width="1px">0</text><text x="0" y="331.70223404353067" dx="0em" dy="0.3em" style="text-anchor: end; visibility: inherit; font-family: Roboto, sans-serif; font-size: 12px; font-weight: 200;" fill="rgb(33, 33, 33)" stroke="none" stroke-width="1px">0.1</text><text x="0" y="295.84530858076056" dx="0em" dy="0.3em" style="text-anchor: end; visibility: inherit; font-family: Roboto, sans-serif; font-size: 12px; font-weight: 200;" fill="rgb(33, 33, 33)" stroke="none" stroke-width="1px">0.2</text><text x="0" y="259.98838311799057" dx="0em" dy="0.3em" style="text-anchor: end; visibility: inherit; font-family: Roboto, sans-serif; font-size: 12px; font-weight: 200;" fill="rgb(33, 33, 33)" stroke="none" stroke-width="1px">0.3</text><text x="0" y="224.13145765522043" dx="0em" dy="0.3em" style="text-anchor: end; visibility: inherit; font-family: Roboto, sans-serif; font-size: 12px; font-weight: 200;" fill="rgb(33, 33, 33)" stroke="none" stroke-width="1px">0.4</text><text x="0" y="188.27453219245032" dx="0em" dy="0.3em" style="text-anchor: end; visibility: inherit; font-family: Roboto, sans-serif; font-size: 12px; font-weight: 200;" fill="rgb(33, 33, 33)" stroke="none" stroke-width="1px">0.5</text><text x="0" y="152.41760672968024" dx="0em" dy="0.3em" style="text-anchor: end; visibility: inherit; font-family: Roboto, sans-serif; font-size: 12px; font-weight: 200;" fill="rgb(33, 33, 33)" stroke="none" stroke-width="1px">0.6</text><text x="0" y="116.56068126691021" dx="0em" dy="0.3em" style="text-anchor: end; visibility: inherit; font-family: Roboto, sans-serif; font-size: 12px; font-weight: 200;" fill="rgb(33, 33, 33)" stroke="none" stroke-width="1px">0.7</text><text x="0" y="80.7037558041401" dx="0em" dy="0.3em" style="text-anchor: end; visibility: inherit; font-family: Roboto, sans-serif; font-size: 12px; font-weight: 200;" fill="rgb(33, 33, 33)" stroke="none" stroke-width="1px">0.8</text><text x="0" y="44.84683034137003" dx="0em" dy="0.3em" style="text-anchor: end; visibility: inherit; font-family: Roboto, sans-serif; font-size: 12px; font-weight: 200;" fill="rgb(33, 33, 33)" stroke="none" stroke-width="1px">0.9</text><text x="0" y="8.989904878599997" dx="0em" dy="0.3em" style="text-anchor: end; visibility: inherit; font-family: Roboto, sans-serif; font-size: 12px; font-weight: 200;" fill="rgb(33, 33, 33)" stroke="none" stroke-width="1px">1</text></g><line x1="42.390625" y1="0" x2="42.390625" y2="376" fill="rgb(0, 0, 0)" stroke="rgb(204, 204, 204)" stroke-width="1px"></line></g></g><g transform="translate(42, 0)" clip-path="url(#clip_0)"><clipPath id="clip_0"><rect width="934" height="376"></rect></clipPath><g><g><g><line x1="7.028083960480129" y1="0" x2="7.028083960480129" y2="376" fill="rgb(0, 0, 0)" stroke="rgb(66, 66, 66)" stroke-width="1px" opacity="0.25"></line><line x1="76.57045732538822" y1="0" x2="76.57045732538822" y2="376" fill="rgb(0, 0, 0)" stroke="rgb(66, 66, 66)" stroke-width="1px" opacity="0.25"></line><line x1="146.11283069029628" y1="0" x2="146.11283069029628" y2="376" fill="rgb(0, 0, 0)" stroke="rgb(66, 66, 66)" stroke-width="1px" opacity="0.25"></line><line x1="215.6552040552044" y1="0" x2="215.6552040552044" y2="376" fill="rgb(0, 0, 0)" stroke="rgb(66, 66, 66)" stroke-width="1px" opacity="0.25"></line><line x1="285.19757742011245" y1="0" x2="285.19757742011245" y2="376" fill="rgb(0, 0, 0)" stroke="rgb(66, 66, 66)" stroke-width="1px" opacity="0.25"></line><line x1="354.73995078502054" y1="0" x2="354.73995078502054" y2="376" fill="rgb(0, 0, 0)" stroke="rgb(66, 66, 66)" stroke-width="1px" opacity="0.25"></line><line x1="424.2823241499287" y1="0" x2="424.2823241499287" y2="376" fill="rgb(0, 0, 0)" stroke="rgb(66, 66, 66)" stroke-width="1px" opacity="0.25"></line><line x1="493.82469751483677" y1="0" x2="493.82469751483677" y2="376" fill="rgb(0, 0, 0)" stroke="rgb(66, 66, 66)" stroke-width="1px" opacity="0.25"></line><line x1="563.3670708797448" y1="0" x2="563.3670708797448" y2="376" fill="rgb(0, 0, 0)" stroke="rgb(66, 66, 66)" stroke-width="1px" opacity="0.25"></line><line x1="632.909444244653" y1="0" x2="632.909444244653" y2="376" fill="rgb(0, 0, 0)" stroke="rgb(66, 66, 66)" stroke-width="1px" opacity="0.25"></line><line x1="702.4518176095611" y1="0" x2="702.4518176095611" y2="376" fill="rgb(0, 0, 0)" stroke="rgb(66, 66, 66)" stroke-width="1px" opacity="0.25"></line><line x1="771.9941909744691" y1="0" x2="771.9941909744691" y2="376" fill="rgb(0, 0, 0)" stroke="rgb(66, 66, 66)" stroke-width="1px" opacity="0.25"></line><line x1="841.5365643393772" y1="0" x2="841.5365643393772" y2="376" fill="rgb(0, 0, 0)" stroke="rgb(66, 66, 66)" stroke-width="1px" opacity="0.25"></line><line x1="911.0789377042853" y1="0" x2="911.0789377042853" y2="376" fill="rgb(0, 0, 0)" stroke="rgb(66, 66, 66)" stroke-width="1px" opacity="0.25"></line></g><g><line x1="0" y1="367.5591595063008" x2="934.609375" y2="367.5591595063008" fill="rgb(0, 0, 0)" stroke="rgb(66, 66, 66)" stroke-width="1px" opacity="0.25"></line><line x1="0" y1="331.70223404353067" x2="934.609375" y2="331.70223404353067" fill="rgb(0, 0, 0)" stroke="rgb(66, 66, 66)" stroke-width="1px" opacity="0.25"></line><line x1="0" y1="295.84530858076056" x2="934.609375" y2="295.84530858076056" fill="rgb(0, 0, 0)" stroke="rgb(66, 66, 66)" stroke-width="1px" opacity="0.25"></line><line x1="0" y1="259.98838311799057" x2="934.609375" y2="259.98838311799057" fill="rgb(0, 0, 0)" stroke="rgb(66, 66, 66)" stroke-width="1px" opacity="0.25"></line><line x1="0" y1="224.13145765522043" x2="934.609375" y2="224.13145765522043" fill="rgb(0, 0, 0)" stroke="rgb(66, 66, 66)" stroke-width="1px" opacity="0.25"></line><line x1="0" y1="188.27453219245032" x2="934.609375" y2="188.27453219245032" fill="rgb(0, 0, 0)" stroke="rgb(66, 66, 66)" stroke-width="1px" opacity="0.25"></line><line x1="0" y1="152.41760672968024" x2="934.609375" y2="152.41760672968024" fill="rgb(0, 0, 0)" stroke="rgb(66, 66, 66)" stroke-width="1px" opacity="0.25"></line><line x1="0" y1="116.56068126691021" x2="934.609375" y2="116.56068126691021" fill="rgb(0, 0, 0)" stroke="rgb(66, 66, 66)" stroke-width="1px" opacity="0.25"></line><line x1="0" y1="80.7037558041401" x2="934.609375" y2="80.7037558041401" fill="rgb(0, 0, 0)" stroke="rgb(66, 66, 66)" stroke-width="1px" opacity="0.25"></line><line x1="0" y1="44.84683034137003" x2="934.609375" y2="44.84683034137003" fill="rgb(0, 0, 0)" stroke="rgb(66, 66, 66)" stroke-width="1px" opacity="0.25"></line><line x1="0" y1="8.989904878599997" x2="934.609375" y2="8.989904878599997" fill="rgb(0, 0, 0)" stroke="rgb(66, 66, 66)" stroke-width="1px" opacity="0.25"></line></g></g></g><g><g><line x1="0" y1="367.5591595063008" x2="934.609375" y2="367.5591595063008" fill="rgb(0, 0, 0)" stroke="rgb(153, 153, 153)" stroke-width="1.5px"></line></g></g><g><g><line x1="7.028083960480129" y1="0" x2="7.028083960480129" y2="376" fill="rgb(0, 0, 0)" stroke="rgb(153, 153, 153)" stroke-width="1.5px"></line></g></g><g><g><g><g><g><path stroke="rgb(255, 112, 67)" stroke-width="2px" d="M10.505202628725533,183.7565579085457L13.98232129697094,206.3935946927009L17.45943996521634,207.51445876874703L20.93655863346175,212.14178422512617L24.413677301707153,216.743357083051L27.89079596995256,218.4870339012546L31.367914638197963,221.63350422106123L34.84503330644337,225.96789933874496L38.32215197468877,224.59101301367429L41.799270642934175,225.24000912783822L45.276389311179585,227.97578759805856L48.75350797942498,228.91857551523634L52.23062664767039,229.8051114061929L55.707745315915794,231.02386367539725L59.184863984161204,232.03678284660438L62.66198265240661,233.8375395053193L66.139101320652,234.49518220851738L69.61621998889741,235.71661703176102L73.09333865714282,236.73711496854304L76.57045732538822,236.88995616172792L80.04757599363363,237.76637383136529L83.52469466187902,238.21723613420687L87.00181333012443,238.75341243639267L90.47893199836984,240.36477240592745L93.95605066661524,240.2592081345376L97.43316933486065,241.64477195340407L100.91028800310606,242.28056846519755L104.38740667135146,242.7411507807308L107.86452533959685,243.04332861061607L111.34164400784228,244.10024398267373L114.81876267608767,243.96885794831735L118.29588134433308,244.77428633165923L121.77300001257848,245.5805794285019L125.25011868082389,245.8677073516048L128.7272373490693,246.292643199688L132.2043560173147,246.71525390211525L135.6814746855601,247.07259199581682L139.15859335380551,247.47936391539594L142.6357120220509,248.07516006230856L146.11283069029628,248.66492717194745L149.5899493585417,248.9618383007256L153.06706802678713,249.34394416174712L156.5441866950325,249.3668149709357L160.02130536327792,249.85072938513144L163.4984240315233,249.94498567898512L166.9755426997687,250.2392200079214L170.45266136801413,250.59977229656698L173.92978003625953,251.2565388665395L177.40689870450493,251.3678512980144L180.88401737275035,251.9288525109963L184.36113604099575,251.96472646106298L187.83825470924114,252.73551471765L191.31537337748657,252.8370709426515L194.79249204573196,253.2273463947608L198.26961071397736,253.37974317145986L201.74672938222278,253.74057116935847L205.22384805046818,253.98653249193916L208.70096671871357,254.24181848884498L212.17808538695897,254.7142702320301L215.6552040552044,254.76601976929933L219.1323227234498,255.25273523771406L222.60944139169519,255.59974373127918L226.0865600599406,255.92047079105976L229.563678728186,256.02305449696985L233.0407973964314,256.6173691653796L236.51791606467683,257.29074538229077L239.99503473292222,257.5264691169554L243.47215340116765,257.56608121803464L246.94927206941304,257.78193300918616L250.42639073765844,258.0843868475088L253.90350940590386,258.343805058495L257.38062807414923,258.61252323276034L260.8577467423946,258.93038528694154L264.33486541064,259.0617817106732L267.8119840788855,259.4560278265652L271.28910274713087,259.9887695740881L274.76622141537626,260.2155727795814L278.24334008362166,260.5979986448231L281.72045875186706,260.8593878331114L285.19757742011245,261.00189561458274L288.6746960883579,261.49740829307837L292.1518147566033,261.5155791842181L295.62893342484864,261.7456985861308L299.1060520930941,261.9111728822339L302.5831707613395,262.51564792105376L306.0602894295849,263.0264669800033L309.53740809783034,263.6360795874611L313.01452676607573,264.1105747066101L316.4916454343211,264.63206071403323L319.9687641025665,265.15860688652396L323.4458827708119,265.49639759640945L326.9230014390573,265.93856564435174L330.40012010730277,266.4188395802216L333.8772387755481,266.86212274585375L337.3543574437935,267.3502455678986L340.83147611203896,267.7181693407053L344.30859478028435,268.2238859770328L347.78571344852975,268.5384450081956L351.2628321167752,268.9937949926853L354.73995078502054,269.403122104521L358.21706945326594,269.7472570171771L361.6941881215114,270.2173234661302L365.1713067897568,270.5559478693855L368.6484254580022,270.95808364643034L372.1255441262476,271.42734262595866L375.60266279449297,271.7077833267256L379.07978146273837,272.0889349302261L382.5569001309838,272.36884628194673L386.0340187992292,272.6637457119573L389.5111374674746,273.04961662021196L392.98825613572,273.2927565816794L396.4653748039654,273.5515073726061L399.9424934722108,273.994518282297L403.41961214045625,274.3645501714794L406.89673080870165,274.58330686165385L410.37384947694704,274.7851984537013L413.85096814519244,275.1073055292958L417.32808681343784,275.45389314447874L420.80520548168323,275.7262862750975L424.2823241499287,275.88605583181624L427.7594428181741,276.25797134478034L431.2365614864194,276.533286451543L434.71368015466487,276.6808707000437L438.19079882291027,276.8420523817466L441.66791749115566,277.01864773509413L445.1450361594011,277.3737785305593L448.6221548276465,277.8065491861298L452.09927349589185,277.9071000272445L455.5763921641373,278.2255263661925L459.0535108323827,278.40821637129636L462.5306295006281,278.66313164742576L466.00774816887355,278.9886655331455L469.4848668371189,279.33232048356973L472.96198550536434,279.67226764865615L476.4391041736097,279.8581729597715L479.91622284185513,280.21214554037516L483.3933415101006,280.60965167154063L486.8704601783459,280.72695872990136L490.3475788465913,280.97817882575055L493.82469751483677,281.19178619857064L497.3018161830821,281.27127319441087L500.77893485132756,281.59736604088073L504.256053519573,281.8156029147549L507.73317218781835,281.94582103616597L511.21029085606375,282.1600052985723L514.6874095243093,282.3641268105098L518.1645281925546,282.45325727890344L521.6416468607999,282.6888994535268L525.1187655290454,282.861825004741L528.5958841972907,283.09933949730333L532.0730028655362,283.2707941260812L535.5501215337816,283.48980497156947L539.027240202027,283.79108292244507L542.5043588702724,283.98900125746974L545.9814775385179,284.04258173575175L549.4585962067632,284.2339314695968L552.9357148750087,284.54296771683386L556.412833543254,284.63252724624226L559.8899522114993,284.78190940942443L563.3670708797448,284.9112403788481L566.8441895479903,285.0864406907423L570.3213082162356,285.28463568406414L573.798426884481,285.4303533516155L577.2755455527265,285.6257080144452L580.7526642209718,285.62170483966236L584.2297828892173,285.8340292591061L587.7069015574627,286.09460608507175L591.1840202257081,286.30201392820237L594.6611388939535,286.615526316058L598.1382575621989,286.91594216999954L601.6153762304442,287.2645974727854L605.0924948986897,287.6044258232253L608.5696135669351,287.92858431624575L612.0467322351805,288.21377373178916L615.5238509034259,288.5499443495095L619.0009695716714,288.7754622570389L622.4780882399167,289.07288133752195L625.9552069081622,289.32079132842006L629.4323255764076,289.6582075444547L632.909444244653,289.89852643149567L636.3865629128983,290.1244930861455L639.8636815811437,290.4584648214365L643.3408002493891,290.6421839153322L646.8179189176345,290.90834964567347L650.29503758588,291.15550220810644L653.7721562541253,291.42026170014725L657.2492749223708,291.70697788203466L660.7263935906162,291.9216244187221L664.2035122588616,292.1217139853838L667.680630927107,292.35718026780535L671.1577495953524,292.55327487063147L674.6348682635977,292.81994853965034L678.1119869318431,293.06567655618574L681.5891056000886,293.31821275271386L685.0662242683339,293.5713875567971L688.5433429365794,293.7339738425781L692.0204616048248,293.96125015821667L695.4975802730702,294.14073165991584L698.9746989413156,294.4272463685341L702.4518176095611,294.53135590097656L705.9289362778064,294.77594857767014L709.4060549460519,295.0359431357394L712.8831736142972,295.2260643102823L716.3602922825426,295.45296481543255L719.837410950788,295.64399845319537L723.3145296190335,295.83451857552024L726.7916482872788,296.0341173228735L730.2687669555243,296.2279729679661L733.7458856237697,296.42870832210104L737.223004292015,296.6203347165384L740.7001229602605,296.71536692521875L744.177241628506,296.85565225927104L747.6543602967513,297.0848509290098L751.1314789649966,297.2451112545703L754.6085976332421,297.49873014514037L758.0857163014874,297.6409551786772L761.5628349697329,297.776168574169L765.0399536379783,297.9728983363702L768.5170723062237,298.183860726396L771.9941909744691,298.3947125502349L775.4713096427146,298.60021418162654L778.9484283109599,298.77811286071676L782.4255469792054,298.99565025449016L785.9026656474508,299.1165830134407L789.3797843156962,299.35241733273716L792.8569029839415,299.6019251526398L796.334021652187,299.7496863726644L799.8111403204323,299.93394249477495L803.2882589886777,300.1491537639526L806.7653776569232,300.30457235396415L810.2424963251685,300.49217618063346L813.719614993414,300.6639613764649L817.1967336616594,300.81978050157693L820.6738523299048,301.0072446466107L824.1509709981502,301.1884854094973L827.6280896663956,301.33766486414214L831.1052083346409,301.50392401299666L834.5823270028864,301.62427378431596L838.0594456711318,301.79267321786455L841.5365643393772,301.99409742000324L845.0136830076226,302.1704119761639L848.490801675868,302.32108415817L851.9679203441134,302.37398300937184L855.4450390123588,302.50126944215003L858.9221576806043,302.64516044267964L862.3992763488496,302.80053073558446L865.876395017095,302.99213842989707L869.3535136853404,303.2172770369157L872.8306323535858,303.3448244289463L876.3077510218312,303.4629205787022L879.7848696900767,303.6666149569399L883.261988358322,303.83425181530515" style="fill: none;" fill="none"></path></g></g></g></g><g opacity="0.2"><g><g><g><path stroke="rgb(255, 112, 67)" stroke-width="2px" d="M10.505202628725533,183.7565579085457L13.98232129697094,229.00799444007657L17.45943996521634,209.75282544947117L20.93655863346175,225.99601514620565L24.413677301707153,235.1036787788924L27.89079596995256,227.17929768738904L31.367914638197963,240.4463602795931L34.84503330644337,256.18754452218536L38.32215197468877,213.62537483567513L41.799270642934175,231.05184707359305L45.276389311179585,255.18355498629393L48.75350797942498,239.22722554906923L52.23062664767039,240.37464521471566L55.707745315915794,246.75717912684482L59.184863984161204,246.11175422914414L62.66198265240661,260.6338037412126L66.139101320652,244.9284716879608L69.61621998889741,256.2951224625998L73.09333865714282,254.93255760232105L76.57045732538822,239.76507250635544L80.04757599363363,255.1118399214165L83.52469466187902,247.58188634364086L87.00181333012443,250.41458331841645L90.47893199836984,276.984560692165L93.95605066661524,237.7570934345725L97.43316933486065,275.8371410265186L100.91028800310606,258.58996179389266L104.38740667135146,255.00427266719853L107.86452533959685,251.38272066496742L111.34164400784228,274.2952938471444L114.81876267608767,240.08778495520582L118.29588134433308,269.34703986017155L121.77300001257848,270.9606021044232L125.25011868082389,255.18355498629393L128.7272373490693,260.49038429765415L132.2043560173147,261.2433764495728L135.6814746855601,259.7015292701986L139.15859335380551,262.24736598546417L142.6357120220509,270.27932501738206L146.11283069029628,271.2115994883961L149.5899493585417,260.59795155187214L153.06706802678713,264.6856354465119L156.5441866950325,250.30701606419848L160.02130536327792,270.2076099525046L163.4984240315233,254.00027244511054L166.9755426997687,263.17965114267474L170.45266136801413,266.80120314490586L173.92978003625953,281.39496772185174L177.40689870450493,256.5819720359132L180.88401737275035,278.7415530661716L184.36113604099575,253.71342287179718L187.83825470924114,291.0404783118247L191.31537337748657,257.98039977172897L194.79249204573196,273.36301937613047L198.26961071397736,261.3868065793277L201.74672938222278,273.04030692728014L205.22384805046818,267.3749129777291L208.70096671871357,268.3789025136205L212.17808538695897,281.32325265697426L215.6552040552044,257.72939170155956L219.1323227234498,283.5822397989266L222.60944139169519,276.1240012860285L226.0865600599406,275.191716128818L229.563678728186,262.2832288610012L233.0407973964314,293.44289558353194L236.51791606467683,299.6461418334675L239.99503473292222,272.5741643486748L243.47215340116765,260.1318089732668L246.94927206941304,271.96459164031467L250.42639073765844,278.23955829822586L253.90350940590386,275.8730039020556L257.38062807414923,277.02042356770204L260.8577467423946,281.00054020812394L264.33486541064,268.3071874487431L267.8119840788855,287.5623564393485L271.28910274713087,298.46286463538235L274.76622141537626,276.80527837306965L278.24334008362166,288.9249212996273L281.72045875186706,280.4626879077395L285.19757742011245,271.82117219675627L288.6746960883579,299.57442676859L292.1518147566033,262.9286537587019L295.62893342484864,279.85312054247754L299.1060520930941,275.08414887460003L302.5831707613395,311.19207492720193L306.0602894295849,304.6302533528791L309.53740809783034,313.8454842397838L313.01452676607573,303.62626381698766L316.4916454343211,308.5386602715218L319.9687641025665,309.9729348535798L323.4458827708119,294.5544577167396L326.9230014390573,304.37925596890625L330.40012010730277,308.6103753363993L333.8772387755481,306.20795806469204L337.3543574437935,311.1203598623245L340.83147611203896,301.044564226185L344.30859478028435,314.49090913748444L347.78571344852975,297.60229988614753L351.2628321167752,311.4789298436135L354.73995078502054,307.9649504386986L358.21706945326594,302.478838808243L361.6941881215114,315.35147388671925L365.1713067897568,303.3752610899165L368.6484254580022,310.29564730243015L372.1255441262476,317.75389115842654L375.60266279449297,299.6461418334675L379.07978146273837,310.4032198997463L382.5569001309838,300.7577093097734L386.0340187992292,302.83740878953205L389.5111374674746,312.8773468932328L392.98825613572,298.60628942203897L396.4653748039654,300.7218517773346L399.9424934722108,320.90930058205237L403.41961214045625,313.8813417722225L406.89673080870165,298.140152186532L410.37384947694704,296.7058722613757L413.85096814519244,310.36736236730763L417.32808681343784,313.7020594531271L420.80520548168323,306.0286757455966L424.2823241499287,293.801465564821L427.7594428181741,318.29174345881097L431.2365614864194,307.89323537382114L434.71368015466487,293.62217790262736L438.19079882291027,295.4867375308519L441.66791749115566,297.60229988614753L445.1450361594011,319.0805984862666L448.6221548276465,329.0129639926511L452.09927349589185,289.8930586461783L455.5763921641373,316.4630413630252L459.0535108323827,300.5067065827023L462.5306295006281,309.7219374696069L466.00774816887355,318.9371683565117L469.4848668371189,321.80572286372586L472.96198550536434,321.9850051828213L476.4391041736097,303.1601212383824L479.91622284185513,324.88941722247426L483.3933415101006,331.12852367639766L486.8704601783459,295.737740257923L490.3475788465913,313.34348947183804L493.82469751483677,308.8972302528109L497.3018161830821,291.6500456770866L500.77893485132756,324.4591348478569L504.256053519573,310.69007481615796L507.73317218781835,299.2875718521784L511.21029085606375,310.8693624783516L514.6874095243093,309.90122513180063L518.1645281925546,294.5544577167396L521.6416468607999,314.88533665121224L525.1187655290454,306.6382431108586L528.5958841972907,315.9610412519812L532.0730028655362,307.1402378788043L535.5501215337816,314.1681966886341L539.027240202027,326.2519820827531L542.5043588702724,312.05263967643674L545.9814775385179,291.68590320952535L549.4585962067632,311.6940696951477L552.9357148750087,329.1563914508569L556.412833543254,297.6381574185862L559.8899522114993,306.60238557841984L563.3670708797448,303.91311873339924L566.8441895479903,310.97692973256954L570.3213082162356,314.74190652145734L573.798426884481,307.21195294368175L577.2755455527265,314.99290924852846L580.7526642209718,285.01651972408285L584.2297828892173,318.1124611397156L587.7069015574627,325.9292696339028L591.1840202257081,318.18417086149475L594.6611388939535,335.07278545592993L598.1382575621989,333.6026506698841L601.6153762304442,341.7421742844707L605.0924948986897,340.9891767894539L608.5696135669351,339.12461716122937L612.0467322351805,333.49508074411705L615.5238509034259,342.2083141915268L619.0009695716714,324.96113228735175L622.4780882399167,337.0449150099215L625.9552069081622,329.514961432146L629.4323255764076,344.6465836525746L632.909444244653,329.26396404817314L636.3865629128983,327.32768935507113L639.8636815811437,345.7222922606672L643.3408002493891,321.19615549846395L646.8179189176345,335.39549790478026L650.29503758588,332.67037085577186L653.7721562541253,336.1126351958093L657.2492749223708,340.3437518917532L660.7263935906162,328.51096655315627L664.2035122588616,326.3954095409589L667.680630927107,332.88551337885514L671.1577495953524,326.4671219342872L674.6348682635977,339.1604746936681L678.1119869318431,335.9692077376035L681.5891056000886,337.6186275142939L685.0662242683339,338.1923373471171L688.5433429365794,322.52286282630405L692.0204616048248,334.3915030257906L695.4975802730702,326.21612455031436L698.9746989413156,345.865719718873L702.4518176095611,313.3076319393993L705.9289362778064,339.0887596287906L709.4060549460519,342.3517416497326L712.8831736142972,329.9811013392021L716.3602922825426,337.116630074799L719.837410950788,330.87752362087565L723.3145296190335,331.12852367639766L726.7916482872788,333.1723682952667L730.2687669555243,332.4552283326886L733.7458856237697,334.104648109379L737.223004292015,332.74208592064934L740.7001229602605,314.7060489890186L744.177241628506,323.5268550337446L747.6543602967513,340.8457493312481L751.1314789649966,327.9731142527718L754.6085976332421,346.33185962592916L758.0857163014874,325.1404172779963L761.5628349697329,324.02885247323945L765.0399536379783,336.32777771889255L768.5170723062237,339.48318714251843L771.9941909744691,339.8417571238075L775.4713096427146,339.1604746936681L778.9484283109599,334.03293304450153L782.4255469792054,342.2800265848552L785.9026656474508,323.27585764977175L789.3797843156962,346.6545720747795L792.8569029839415,349.8458376950695L796.334021652187,329.62253135791303L799.8111403204323,337.33177259788226L803.2882589886777,344.0011587548739L806.7653776569232,332.09666102294864L810.2424963251685,339.01704723546226L813.719614993414,336.0767776633706L817.1967336616594,333.06479836949967L820.6738523299048,339.94932704957455L824.1509709981502,338.9811897030236L827.6280896663956,332.5628009300048L831.1052083346409,336.4353476446596L834.5823270028864,327.0049769062208L838.0594456711318,337.4393425236494L841.5365643393772,344.79001111078037L845.0136830076226,339.77004205893L848.490801675868,334.57078801643513L851.9679203441134,313.73791698556585L855.4450390123588,329.94524380676336L858.9221576806043,333.78193566052863L862.3992763488496,336.5429202419758L865.876395017095,344.75415357834163L869.3535136853404,352.46339348253633L872.8306323535858,331.34366352793177L876.3077510218312,329.47910389970724L879.7848696900767,348.69841669364854L883.261988358322,341.02503432189263" style="fill: none;" fill="none"></path></g></g></g></g></g></g><g transform="translate(42, 376)" clip-path="url(#clip_1)"><clipPath id="clip_1"><rect width="934" height="24"></rect></clipPath><g><g><line x1="7.028083960480129" y1="0" x2="7.028083960480129" y2="5" style="visibility: inherit;" fill="rgb(0, 0, 0)" stroke="rgb(204, 204, 204)" stroke-width="1px"></line><line x1="76.57045732538822" y1="0" x2="76.57045732538822" y2="5" style="visibility: inherit;" fill="rgb(0, 0, 0)" stroke="rgb(204, 204, 204)" stroke-width="1px"></line><line x1="146.11283069029628" y1="0" x2="146.11283069029628" y2="5" style="visibility: inherit;" fill="rgb(0, 0, 0)" stroke="rgb(204, 204, 204)" stroke-width="1px"></line><line x1="215.6552040552044" y1="0" x2="215.6552040552044" y2="5" style="visibility: inherit;" fill="rgb(0, 0, 0)" stroke="rgb(204, 204, 204)" stroke-width="1px"></line><line x1="285.19757742011245" y1="0" x2="285.19757742011245" y2="5" style="visibility: inherit;" fill="rgb(0, 0, 0)" stroke="rgb(204, 204, 204)" stroke-width="1px"></line><line x1="354.73995078502054" y1="0" x2="354.73995078502054" y2="5" style="visibility: inherit;" fill="rgb(0, 0, 0)" stroke="rgb(204, 204, 204)" stroke-width="1px"></line><line x1="424.2823241499287" y1="0" x2="424.2823241499287" y2="5" style="visibility: inherit;" fill="rgb(0, 0, 0)" stroke="rgb(204, 204, 204)" stroke-width="1px"></line><line x1="493.82469751483677" y1="0" x2="493.82469751483677" y2="5" style="visibility: inherit;" fill="rgb(0, 0, 0)" stroke="rgb(204, 204, 204)" stroke-width="1px"></line><line x1="563.3670708797448" y1="0" x2="563.3670708797448" y2="5" style="visibility: inherit;" fill="rgb(0, 0, 0)" stroke="rgb(204, 204, 204)" stroke-width="1px"></line><line x1="632.909444244653" y1="0" x2="632.909444244653" y2="5" style="visibility: inherit;" fill="rgb(0, 0, 0)" stroke="rgb(204, 204, 204)" stroke-width="1px"></line><line x1="702.4518176095611" y1="0" x2="702.4518176095611" y2="5" style="visibility: inherit;" fill="rgb(0, 0, 0)" stroke="rgb(204, 204, 204)" stroke-width="1px"></line><line x1="771.9941909744691" y1="0" x2="771.9941909744691" y2="5" style="visibility: inherit;" fill="rgb(0, 0, 0)" stroke="rgb(204, 204, 204)" stroke-width="1px"></line><line x1="841.5365643393772" y1="0" x2="841.5365643393772" y2="5" style="visibility: inherit;" fill="rgb(0, 0, 0)" stroke="rgb(204, 204, 204)" stroke-width="1px"></line><line x1="911.0789377042853" y1="0" x2="911.0789377042853" y2="5" style="visibility: inherit;" fill="rgb(0, 0, 0)" stroke="rgb(204, 204, 204)" stroke-width="1px"></line></g><g transform="translate(0, 8)"><text x="7.028083960480129" y="0" dx="0em" dy="0.95em" style="text-anchor: middle; visibility: inherit; font-family: Roboto, sans-serif; font-size: 12px; font-weight: 200;" fill="rgb(33, 33, 33)" stroke="none" stroke-width="1px">0</text><text x="76.57045732538822" y="0" dx="0em" dy="0.95em" style="text-anchor: middle; visibility: inherit; font-family: Roboto, sans-serif; font-size: 12px; font-weight: 200;" fill="rgb(33, 33, 33)" stroke="none" stroke-width="1px">2k</text><text x="146.11283069029628" y="0" dx="0em" dy="0.95em" style="text-anchor: middle; visibility: inherit; font-family: Roboto, sans-serif; font-size: 12px; font-weight: 200;" fill="rgb(33, 33, 33)" stroke="none" stroke-width="1px">4k</text><text x="215.6552040552044" y="0" dx="0em" dy="0.95em" style="text-anchor: middle; visibility: inherit; font-family: Roboto, sans-serif; font-size: 12px; font-weight: 200;" fill="rgb(33, 33, 33)" stroke="none" stroke-width="1px">6k</text><text x="285.19757742011245" y="0" dx="0em" dy="0.95em" style="text-anchor: middle; visibility: inherit; font-family: Roboto, sans-serif; font-size: 12px; font-weight: 200;" fill="rgb(33, 33, 33)" stroke="none" stroke-width="1px">8k</text><text x="354.73995078502054" y="0" dx="0em" dy="0.95em" style="text-anchor: middle; visibility: inherit; font-family: Roboto, sans-serif; font-size: 12px; font-weight: 200;" fill="rgb(33, 33, 33)" stroke="none" stroke-width="1px">10k</text><text x="424.2823241499287" y="0" dx="0em" dy="0.95em" style="text-anchor: middle; visibility: inherit; font-family: Roboto, sans-serif; font-size: 12px; font-weight: 200;" fill="rgb(33, 33, 33)" stroke="none" stroke-width="1px">12k</text><text x="493.82469751483677" y="0" dx="0em" dy="0.95em" style="text-anchor: middle; visibility: inherit; font-family: Roboto, sans-serif; font-size: 12px; font-weight: 200;" fill="rgb(33, 33, 33)" stroke="none" stroke-width="1px">14k</text><text x="563.3670708797448" y="0" dx="0em" dy="0.95em" style="text-anchor: middle; visibility: inherit; font-family: Roboto, sans-serif; font-size: 12px; font-weight: 200;" fill="rgb(33, 33, 33)" stroke="none" stroke-width="1px">16k</text><text x="632.909444244653" y="0" dx="0em" dy="0.95em" style="text-anchor: middle; visibility: inherit; font-family: Roboto, sans-serif; font-size: 12px; font-weight: 200;" fill="rgb(33, 33, 33)" stroke="none" stroke-width="1px">18k</text><text x="702.4518176095611" y="0" dx="0em" dy="0.95em" style="text-anchor: middle; visibility: inherit; font-family: Roboto, sans-serif; font-size: 12px; font-weight: 200;" fill="rgb(33, 33, 33)" stroke="none" stroke-width="1px">20k</text><text x="771.9941909744691" y="0" dx="0em" dy="0.95em" style="text-anchor: middle; visibility: inherit; font-family: Roboto, sans-serif; font-size: 12px; font-weight: 200;" fill="rgb(33, 33, 33)" stroke="none" stroke-width="1px">22k</text><text x="841.5365643393772" y="0" dx="0em" dy="0.95em" style="text-anchor: middle; visibility: inherit; font-family: Roboto, sans-serif; font-size: 12px; font-weight: 200;" fill="rgb(33, 33, 33)" stroke="none" stroke-width="1px">24k</text><text x="911.0789377042853" y="0" dx="0em" dy="0.95em" style="text-anchor: middle; visibility: inherit; font-family: Roboto, sans-serif; font-size: 12px; font-weight: 200;" fill="rgb(33, 33, 33)" stroke="none" stroke-width="1px">26k</text></g><line x1="0" y1="0" x2="934.609375" y2="0" fill="rgb(0, 0, 0)" stroke="rgb(204, 204, 204)" stroke-width="1px"></line></g></g></g></g></svg>