<svg viewBox="0 0 977 400" xmlns="http://www.w3.org/2000/svg"><g><g><g><g><g><line x1="53.1875" y1="357.40917278029855" x2="48.1875" y2="357.40917278029855" style="visibility: inherit;" fill="rgb(0, 0, 0)" stroke="rgb(204, 204, 204)" stroke-width="1px"></line><line x1="53.1875" y1="301.14587641248363" x2="48.1875" y2="301.14587641248363" style="visibility: inherit;" fill="rgb(0, 0, 0)" stroke="rgb(204, 204, 204)" stroke-width="1px"></line><line x1="53.1875" y1="244.88258004466886" x2="48.1875" y2="244.88258004466886" style="visibility: inherit;" fill="rgb(0, 0, 0)" stroke="rgb(204, 204, 204)" stroke-width="1px"></line><line x1="53.1875" y1="188.61928367685394" x2="48.1875" y2="188.61928367685394" style="visibility: inherit;" fill="rgb(0, 0, 0)" stroke="rgb(204, 204, 204)" stroke-width="1px"></line><line x1="53.1875" y1="132.35598730903914" x2="48.1875" y2="132.35598730903914" style="visibility: inherit;" fill="rgb(0, 0, 0)" stroke="rgb(204, 204, 204)" stroke-width="1px"></line><line x1="53.1875" y1="76.09269094122425" x2="48.1875" y2="76.09269094122425" style="visibility: inherit;" fill="rgb(0, 0, 0)" stroke="rgb(204, 204, 204)" stroke-width="1px"></line><line x1="53.1875" y1="19.829394573409324" x2="48.1875" y2="19.829394573409324" style="visibility: inherit;" fill="rgb(0, 0, 0)" stroke="rgb(204, 204, 204)" stroke-width="1px"></line></g><g transform="translate(43.1875, 0)"><text x="0" y="357.40917278029855" dx="0em" dy="0.3em" style="text-anchor: end; visibility: inherit; font-family: Roboto, sans-serif; font-size: 12px; font-weight: 200;" fill="rgb(33, 33, 33)" stroke="none" stroke-width="1px">0.5</text><text x="0" y="301.14587641248363" dx="0em" dy="0.3em" style="text-anchor: end; visibility: inherit; font-family: Roboto, sans-serif; font-size: 12px; font-weight: 200;" fill="rgb(33, 33, 33)" stroke="none" stroke-width="1px">0.55</text><text x="0" y="244.88258004466886" dx="0em" dy="0.3em" style="text-anchor: end; visibility: inherit; font-family: Roboto, sans-serif; font-size: 12px; font-weight: 200;" fill="rgb(33, 33, 33)" stroke="none" stroke-width="1px">0.6</text><text x="0" y="188.61928367685394" dx="0em" dy="0.3em" style="text-anchor: end; visibility: inherit; font-family: Roboto, sans-serif; font-size: 12px; font-weight: 200;" fill="rgb(33, 33, 33)" stroke="none" stroke-width="1px">0.65</text><text x="0" y="132.35598730903914" dx="0em" dy="0.3em" style="text-anchor: end; visibility: inherit; font-family: Roboto, sans-serif; font-size: 12px; font-weight: 200;" fill="rgb(33, 33, 33)" stroke="none" stroke-width="1px">0.7</text><text x="0" y="76.09269094122425" dx="0em" dy="0.3em" style="text-anchor: end; visibility: inherit; font-family: Roboto, sans-serif; font-size: 12px; font-weight: 200;" fill="rgb(33, 33, 33)" stroke="none" stroke-width="1px">0.75</text><text x="0" y="19.829394573409324" dx="0em" dy="0.3em" style="text-anchor: end; visibility: inherit; font-family: Roboto, sans-serif; font-size: 12px; font-weight: 200;" fill="rgb(33, 33, 33)" stroke="none" stroke-width="1px">0.8</text></g><line x1="53.1875" y1="0" x2="53.1875" y2="376" fill="rgb(0, 0, 0)" stroke="rgb(204, 204, 204)" stroke-width="1px"></line></g></g><g transform="translate(53, 0)" clip-path="url(#clip_0)"><clipPath id="clip_0"><rect width="923" height="376"></rect></clipPath><g><g><g><line x1="20.110961090559613" y1="0" x2="20.110961090559613" y2="376" fill="rgb(0, 0, 0)" stroke="rgb(66, 66, 66)" stroke-width="1px" opacity="0.25"></line><line x1="87.45143851155714" y1="0" x2="87.45143851155714" y2="376" fill="rgb(0, 0, 0)" stroke="rgb(66, 66, 66)" stroke-width="1px" opacity="0.25"></line><line x1="154.79191593255467" y1="0" x2="154.79191593255467" y2="376" fill="rgb(0, 0, 0)" stroke="rgb(66, 66, 66)" stroke-width="1px" opacity="0.25"></line><line x1="222.1323933535522" y1="0" x2="222.1323933535522" y2="376" fill="rgb(0, 0, 0)" stroke="rgb(66, 66, 66)" stroke-width="1px" opacity="0.25"></line><line x1="289.47287077454973" y1="0" x2="289.47287077454973" y2="376" fill="rgb(0, 0, 0)" stroke="rgb(66, 66, 66)" stroke-width="1px" opacity="0.25"></line><line x1="356.8133481955473" y1="0" x2="356.8133481955473" y2="376" fill="rgb(0, 0, 0)" stroke="rgb(66, 66, 66)" stroke-width="1px" opacity="0.25"></line><line x1="424.1538256165448" y1="0" x2="424.1538256165448" y2="376" fill="rgb(0, 0, 0)" stroke="rgb(66, 66, 66)" stroke-width="1px" opacity="0.25"></line><line x1="491.4943030375423" y1="0" x2="491.4943030375423" y2="376" fill="rgb(0, 0, 0)" stroke="rgb(66, 66, 66)" stroke-width="1px" opacity="0.25"></line><line x1="558.8347804585399" y1="0" x2="558.8347804585399" y2="376" fill="rgb(0, 0, 0)" stroke="rgb(66, 66, 66)" stroke-width="1px" opacity="0.25"></line><line x1="626.1752578795374" y1="0" x2="626.1752578795374" y2="376" fill="rgb(0, 0, 0)" stroke="rgb(66, 66, 66)" stroke-width="1px" opacity="0.25"></line><line x1="693.5157353005349" y1="0" x2="693.5157353005349" y2="376" fill="rgb(0, 0, 0)" stroke="rgb(66, 66, 66)" stroke-width="1px" opacity="0.25"></line><line x1="760.8562127215324" y1="0" x2="760.8562127215324" y2="376" fill="rgb(0, 0, 0)" stroke="rgb(66, 66, 66)" stroke-width="1px" opacity="0.25"></line><line x1="828.19669014253" y1="0" x2="828.19669014253" y2="376" fill="rgb(0, 0, 0)" stroke="rgb(66, 66, 66)" stroke-width="1px" opacity="0.25"></line><line x1="895.5371675635275" y1="0" x2="895.5371675635275" y2="376" fill="rgb(0, 0, 0)" stroke="rgb(66, 66, 66)" stroke-width="1px" opacity="0.25"></line></g><g><line x1="0" y1="357.40917278029855" x2="923.8125" y2="357.40917278029855" fill="rgb(0, 0, 0)" stroke="rgb(66, 66, 66)" stroke-width="1px" opacity="0.25"></line><line x1="0" y1="301.14587641248363" x2="923.8125" y2="301.14587641248363" fill="rgb(0, 0, 0)" stroke="rgb(66, 66, 66)" stroke-width="1px" opacity="0.25"></line><line x1="0" y1="244.88258004466886" x2="923.8125" y2="244.88258004466886" fill="rgb(0, 0, 0)" stroke="rgb(66, 66, 66)" stroke-width="1px" opacity="0.25"></line><line x1="0" y1="188.61928367685394" x2="923.8125" y2="188.61928367685394" fill="rgb(0, 0, 0)" stroke="rgb(66, 66, 66)" stroke-width="1px" opacity="0.25"></line><line x1="0" y1="132.35598730903914" x2="923.8125" y2="132.35598730903914" fill="rgb(0, 0, 0)" stroke="rgb(66, 66, 66)" stroke-width="1px" opacity="0.25"></line><line x1="0" y1="76.09269094122425" x2="923.8125" y2="76.09269094122425" fill="rgb(0, 0, 0)" stroke="rgb(66, 66, 66)" stroke-width="1px" opacity="0.25"></line><line x1="0" y1="19.829394573409324" x2="923.8125" y2="19.829394573409324" fill="rgb(0, 0, 0)" stroke="rgb(66, 66, 66)" stroke-width="1px" opacity="0.25"></line></g></g></g><g><g><line x1="0" y1="920.0421364584472" x2="923.8125" y2="920.0421364584472" fill="rgb(0, 0, 0)" stroke="rgb(153, 153, 153)" stroke-width="1.5px"></line></g></g><g><g><line x1="20.110961090559613" y1="0" x2="20.110961090559613" y2="376" fill="rgb(0, 0, 0)" stroke="rgb(153, 153, 153)" stroke-width="1.5px"></line></g></g><g><g><g><g><g><path stroke="rgb(255, 112, 67)" stroke-width="2px" d="M23.477984961609486,71.70416337545589L26.845008832659364,66.91940207146818L30.21203270370924,74.67352012065001L33.57905657475912,73.87370938518949L36.946080445808995,80.02364470360502L40.31310431685887,78.67119176462634L43.68012818790875,78.28560176511289L47.04715205895862,83.54365850773448L50.414175930008504,85.05987695725165L53.78119980105838,87.33536961561153L57.14822367210825,92.61040215766225L60.51524754315813,95.95022206055214L63.88227141420801,98.92425159415791L67.24929528525789,101.92645164224301L70.61631915630777,105.28379408913545L73.98334302735765,107.30739245869732L77.3503668984075,108.485736831722L80.71739076945738,108.63786985298556L84.08441464050726,111.95916164153078L87.45143851155714,113.54536373918336L90.81846238260701,114.628701532477L94.18548625365689,115.76861133422506L97.55251012470677,118.04107242817089L100.91953399575664,119.22303122402403L104.28655786680652,120.59285893033464L107.6535817378564,123.03176237400119L111.02060560890628,124.38647159186687L114.38762947995615,124.78086564493721L117.75465335100603,125.75008525024899L121.12167722205591,126.96293480767379L124.48870109310579,128.2559693104924L127.85572496415566,129.94316066036598L131.22274883520555,131.76715870493382L134.58977270625542,132.7301992142526L137.95679657730528,134.74347185901598L141.32382044835518,136.16140817387995L144.69084431940504,138.31393450300067L148.0578681904549,138.9626124746106L151.4248920615048,140.6395364469845L154.79191593255467,142.09778907217128L158.15893980360454,143.3393063937766L161.52596367465443,144.51622743357265L164.8929875457043,145.92433110388828L168.2600114167542,147.11165169739579L171.62703528780406,147.80144497692237L174.99405915885393,148.3561712732045L178.36108302990382,149.5487046006245L181.7281069009537,151.25790313855666L185.09513077200356,151.8506696374996L188.46215464305345,152.63880324945669L191.82917851410332,154.1809527848666L195.19620238515319,155.53503683531304L198.56322625620308,156.44582036122748L201.93025012725295,157.01476757672864L205.29727399830284,157.88247877661203L208.66429786935268,158.4341962600814L212.03132174040255,159.29743445278393L215.39834561145244,159.88140426553545L218.7653694825023,160.94419842310225L222.1323933535522,161.95610508319143L225.49941722460207,162.93672560596792L228.86644109565194,163.5620407217439L232.23346496670186,164.0882881411422L235.6004888377517,164.7160088837389L238.9675127088016,165.69256927241855L242.33453657985146,166.35248680656187L245.70156045090135,167.17493160063472L249.0685843219512,168.19559206222104L252.43560819300112,169.1293013339501L255.80263206405095,170.04131351058388L259.1696559351009,170.83408693470568L262.5366798061507,171.55464028069247L265.9037036772006,172.5094676738548L269.2707275482505,173.55043302280643L272.63775141930034,174.10288135353966L276.0047752903502,175.06495498459958L279.37179916140013,175.65600656079786L282.73882303245,176.68307097050248L286.10584690349987,177.225109864369L289.47287077454973,177.6848347871587L292.83989464559966,178.4396581825136L296.20691851664947,179.3074950277837L299.57394238769933,180.06827010566596L302.94096625874926,180.49403275288415L306.30799012979907,181.17615790218895L309.675014000849,181.7960052720781L313.04203787189886,182.842992861008L316.4090617429487,183.62317066387016L319.7760856139986,184.01862058314396L323.1431094850485,184.9358287870849L326.5101333560983,185.30917744347028L329.87715722714825,186.28990614075008L333.2441810981981,186.79232522446915L336.611204969248,187.57363748337502L339.97822884029785,188.31118582174847L343.34525271134777,189.1722031804923L346.71227658239764,190.1018375896672L350.0793004534475,190.95465260518483L353.44632432449737,191.74607469700146L356.8133481955473,192.39046420486738L360.1803720665971,193.116916409587L363.547395937647,193.87550666868472L366.9144198086969,194.54235992245185L370.28144367974676,195.23395454497708L373.6484675507966,195.8627146585563L377.01549142184655,196.49525667795896L380.38251529289636,197.0738459098915L383.7495391639463,197.88121985608464L387.11656303499615,198.59208113785522L390.483586906046,199.13560048623373L393.8506107770959,199.82882860921742L397.2176346481458,200.4300516436636L400.5846585191956,201.2764134359242L403.95168239024554,201.99308013580517L407.3187062612954,202.54610955989574L410.68573013234527,203.18407025509276L414.05275400339514,203.79583371729927L417.41977787444506,204.49523588978573L420.7868017454949,205.07760696576145L424.1538256165448,205.78951028957493L427.52084948759466,206.50344921293274L430.8878733586446,207.00785222316964L434.2548972296944,207.66147671170495L437.6219211007443,207.99495860045184L440.9889449717942,208.72703594716674L444.35596884284405,209.47597963185734L447.7229927138939,210.19236688231015L451.09001658494384,210.72623182038728L454.45704045599365,211.29084106511857L457.8240643270436,211.87627644784618L461.19108819809344,212.62589350020326L464.5581120691433,213.07308078790228L467.92513594019323,213.63997505653214L471.2921598112431,214.22440454324607L474.65918368229296,214.88744610710515L478.0262075533428,215.478805239044L481.39323142439264,215.94204231943732L484.7602552954426,216.64287213715687L488.12727916649243,217.20619643830267L491.4943030375423,217.8596074324452L494.86132690859216,218.4507096644669L498.2283507796421,218.939162863978L501.59537465069195,219.51531357623045L504.9623985217418,219.97442304691492L508.3294223927916,220.20970254027304L511.6964462638416,220.80854748981724L515.0634701348914,221.21658095495343L518.4304940059413,221.92405005315868L521.7975178769912,222.19788312319244L525.1645417480411,222.6933434366881L528.531565619091,223.01370055371123L531.8985894901408,223.43432359789782L535.2656133611906,224.0357451069046L538.6326372322407,224.6829271004143L541.9996611032905,225.22539248454444L545.3666849743403,225.67445434768615L548.7337088453902,226.1758425836845L552.1007327164401,226.6193088458566L555.4677565874899,227.22627601014335L558.8347804585399,227.60960043637962L562.2018043295897,228.02445731502712L565.5688282006396,228.62896087793533L568.9358520716895,229.12582702484963L572.3028759427393,229.6590053943276L575.6698998137892,230.05852142897882L579.0369236848392,230.62087318925282L582.403947555889,231.25253044646075L585.7709714269389,231.7442812442095L589.1379952979887,232.4059735059092L592.5050191690386,232.85769785893862L595.8720430400886,233.38069448207662L599.2390669111384,233.87837690869492L602.6060907821882,234.39577979027808L605.9731146532382,235.16639433293605L609.340138524288,235.50642342400678L612.7071623953378,235.89624403691292L616.0741862663878,236.2774886311241L619.4412101374377,236.68823792345663L622.8082340084875,237.0237003563225L626.1752578795374,237.6155671133309L629.5422817505872,237.98484489745053L632.9093056216371,238.55013166644218L636.2763294926871,238.8657524053289L639.6433533637369,239.2147413008965L643.0103772347867,239.42209615334454L646.3774011058366,239.8061404683017L649.7444249768865,240.47359087380414L653.1114488479363,240.9376946000891L656.4784727189863,241.40144457753289L659.8454965900361,241.80374935416688L663.212520461086,242.10155872653496L666.5795443321359,242.51343645655908L669.9465682031857,242.80696706897277L673.3135920742355,243.20971964863335L676.6806159452856,243.77593204409146L680.0476398163354,244.09558351405508L683.4146636873852,244.56357467305236L686.7816875584351,245.09256943965886L690.148711429485,245.45541736278898L693.5157353005349,245.7929078324469L696.8827591715848,245.99051679462403L700.2497830426346,246.28885798955702L703.6168069136845,246.54445639155932L706.9838307847344,246.96941945826285L710.3508546557842,247.40053809137484L713.7178785268342,247.79120660048486L717.0849023978841,248.31824575061924L720.4519262689339,248.70244390803668L723.8189501399838,249.3220920167037L727.1859740110336,249.622882017928L730.5529978820836,249.955104564461L733.9200217531335,250.25592056863974L737.2870456241833,250.61546163888812L740.6540694952331,251.04811198599435L744.0210933662831,251.39183860366876L747.388117237333,251.8585887978033L750.7551411083828,252.3100651101627L754.1221649794327,252.52884144250427L757.4891888504826,252.74332438338348L760.8562127215324,253.25543547259787L764.2232365925823,253.68291105706157L767.5902604636321,254.06640729495618L770.9572843346821,254.33841054017168L774.324308205732,254.72735382564247L777.6913320767818,255.1334804437424L781.0583559478316,255.48539834723195L784.4253798188817,255.82423311599518L787.7924036899315,256.2268374973753L791.1594275609813,256.5770009376581L794.5264514320312,256.71827617872515L797.8934753030811,257.131524578184L801.2604991741309,257.5281574487579L804.6275230451809,257.79907009154846L807.9945469162307,258.24070740287095L811.3615707872806,258.5104685385011L814.7285946583305,258.7404798137136L818.0956185293803,259.0330392024962L821.4626424004301,259.3284394822213L824.82966627148,259.75362868492743L828.19669014253,259.8020433126235L831.5637140135798,260.04753083225614L834.9307378846297,260.33598223307393L838.2977617556795,260.60432119872723L841.6647856267294,260.8231758152273L845.0318094977794,261.1567002051802L848.3988333688292,261.55197011306956L851.7658572398791,261.9789701708905L855.132881110929,262.38304938203845L858.4999049819788,262.6221062888006L861.8669288530288,262.983311855219L865.2339527240786,263.1678245312363L868.6009765951285,263.3619737897757" style="fill: none;" fill="none"></path></g></g></g></g><g opacity="0.2"><g><g><g><path stroke="rgb(255, 112, 67)" stroke-width="2px" d="M23.477984961609486,71.70416337545589L26.845008832659364,62.13942552880886L30.21203270370924,90.15850161896276L33.57905657475912,71.4790728448096L36.946080445808995,104.56194809267076L40.31310431685887,71.9291868350263L43.68012818790875,75.9801456759011L47.04715205895862,120.20312420062999L50.414175930008504,97.13516786070844L53.78119980105838,107.71267895311207L57.14822367210825,145.07146943034263L60.51524754315813,132.46854598857743L63.88227141420801,134.38148014369165L67.24929528525789,140.68294186457422L70.61631915630777,151.9355904067651L73.98334302735765,137.4196657388098L77.3503668984075,127.17979044237562L80.71739076945738,111.20097853844693L84.08441464050726,171.17767843645817L87.45143851155714,143.3836258058747L90.81846238260701,136.06939083923547L94.18548625365689,139.44514515924718L97.55251012470677,167.46428832047698L100.91953399575664,146.08424267609922L104.28655786680652,153.06090891784484L107.6535817378564,183.21800969375934L111.02060560890628,159.13734717915705L114.38762947995615,135.28170812412515L117.75465335100603,152.49824966230494L121.12167722205591,161.61287351873526L124.48870109310579,166.45151507472036L127.85572496415566,181.4175537328924L131.22274883520555,189.18190268974837L134.58977270625542,163.97598873514212L137.95679657730528,202.0099166621598L141.32382044835518,184.9059203893031L144.69084431940504,214.3878837154304L148.0578681904549,162.51310149916876L151.4248920615048,203.1352351732396L154.79191593255467,197.84647962703778L158.15893980360454,191.99506482529603L161.52596367465443,191.77004136572563L164.8929875457043,203.81037262302675L168.2600114167542,197.05879691192743L171.62703528780406,177.47914015734074L174.99405915885393,172.75304386667884L178.36108302990382,203.1352351732396L181.7281069009537,229.69149109849604L185.09513077200356,179.6171648431013L188.46215464305345,190.30715412975223L191.82917851410332,229.35392237360244L195.19620238515319,222.82737012207357L198.56322625620308,202.5725759176997L201.93025012725295,186.36874055420063L205.29727399830284,203.4728038981332L208.66429786935268,187.94410598442127L212.03132174040255,206.2859660336809L215.39834561145244,192.22015535594232L218.7653694825023,220.80189070163613L222.1323933535522,219.90166272120268L225.49941722460207,220.01420798652583L228.86644109565194,200.54709649726234L232.23346496670186,195.7084549412772L235.6004888377517,203.02268990791643L238.9675127088016,226.2031915131612L242.33453657985146,207.86133146390156L245.70156045090135,219.67663926163226L249.0685843219512,234.3051091949107L252.43560819300112,230.47917381360634L255.80263206405095,230.81674253849994L259.1696559351009,224.4027355522942L262.5366798061507,220.91443596695933L265.9037036772006,238.80611495492633L269.2707275482505,246.79555444242857L272.63775141930034,213.48765573499696L276.0047752903502,244.54498449134488L279.37179916140013,218.88895654652197L282.73882303245,252.7594474384176L286.10584690349987,217.87618330076532L289.47287077454973,212.58742775456346L292.83989464559966,236.44306680959536L296.20691851664947,246.79555444242857L299.57394238769933,239.93143346600613L302.94096625874926,214.3878837154304L306.30799012979907,236.10549808470176L309.675014000849,232.2796297744733L313.04203787189886,269.07582806723985L316.4090617429487,248.59594333221963L319.7760856139986,217.31359111630127L323.1431094850485,262.9993898059277L326.5101333560983,217.42606931054857L329.87715722714825,271.55135440681806L333.2441810981981,230.92928780382312L336.611204969248,256.9229515446155L339.97822884029785,254.4473581339614L343.34525271134777,267.16282684104976L346.71227658239764,275.15226632855195L350.0793004534475,269.750965517027L353.44632432449737,265.58746141082906L356.8133481955473,253.0970161633112L360.1803720665971,262.21170709081736L363.547395937647,266.71271285083293L366.9144198086969,259.17345442462334L370.28144367974676,262.8868445406045L373.6484675507966,257.9356577192963L377.01549142184655,259.5110231495169L380.38251529289636,255.2350408490717L383.7495391639463,279.7658173538908L387.11656303499615,271.3263309472476L390.483586906046,255.2350408490717L393.8506107770959,272.0014683970348L397.2176346481458,263.5619819903917L400.5846585191956,290.9059877018343L403.95168239024554,278.5280206485637L407.3187062612954,262.0991618254942L410.68573013234527,272.45158238725156L414.05275400339514,270.76367169170777L417.41977787444506,281.678751509005L420.7868017454949,269.86351078235015L424.1538256165448,285.6172321556325L427.52084948759466,287.19259758585315L430.8878733586446,264.4622099708252L434.2548972296944,282.69152475476164L437.6219211007443,246.57046391178227L440.9889449717942,294.0567185622756L444.35596884284405,297.4324728822873L447.7229927138939,294.9569465427091L451.09001658494384,274.3645165423658L454.45704045599365,279.09067990410364L457.8240643270436,282.69152475476164L461.19108819809344,303.9590251338162L464.5581120691433,267.95050955616006L467.92513594019323,283.70423092944236L471.2921598112431,286.96750705520685L474.65918368229296,297.9951321378272L478.0262075533428,290.1182379156481L481.39323142439264,274.8146305325825L484.7602552954426,306.32207327914716L488.12727916649243,289.7806691907545L491.4943030375423,302.6087502342419L494.86132690859216,295.63208399249623L498.2283507796421,283.14163874497837L501.59537465069195,295.7446292578194L504.9623985217418,281.116159324541L508.3294223927916,251.74667419266095L511.6964462638416,301.5959769884853L515.0634701348914,276.61508649344944L518.4304940059413,318.58749506709466L521.7975178769912,259.84859187441054L525.1645417480411,291.2435564267279L528.531565619091,267.6129408312664L531.8985894901408,282.353956029868L535.2656133611906,308.7976666898013L538.6326372322407,316.44947038133415L541.9996611032905,302.6087502342419L545.3666849743403,290.1182379156481L548.7337088453902,298.5577913933671L552.1007327164401,291.0184658960816L555.4677565874899,315.88687819687016L558.8347804585399,283.92932146008866L562.2018043295897,289.3305552005378L565.5688282006396,318.4749498017715L568.9358520716895,303.39643294935223L572.3028759427393,309.81043993555795L575.6698998137892,290.4558737116176L579.0369236848392,316.1119016564405L582.403947555889,327.8146641888481L585.7709714269389,307.3348465249038L589.1379952979887,334.6787851652706L592.5050191690386,303.0587971533828L595.8720430400886,315.0991954817598L599.2390669111384,312.0609428155658L602.6060907821882,316.1119016564405L605.9731146532382,357.5216845100838L609.340138524288,289.7806691907545L612.7071623953378,298.44524612804395L616.0741862663878,297.7701086782568L619.4412101374377,303.2838876840291L622.8082340084875,291.69367041694466L626.1752578795374,334.5663069710233L629.5422817505872,298.7828148529376L632.9093056216371,332.0907135603692L636.2763294926871,291.3560346209752L639.6433533637369,297.5450181476105L643.0103772347867,274.2520383481185L646.3774011058366,304.63422965467925L649.7444249768865,353.6957826643174L653.1114488479363,320.05031523199216L656.4784727189863,320.83799794710245L659.8454965900361,311.04823664088497L663.212520461086,293.60660457205887L666.5795443321359,314.08642223600316L669.9465682031857,294.0567185622756L673.3135920742355,313.86139877643274L676.6806159452856,343.56838556213046L680.0476398163354,300.6957490080518L683.4146636873852,327.8146641888481L686.7816875584351,339.6299719865788L690.148711429485,310.5981226506683L693.5157353005349,306.65970907511667L696.8827591715848,281.79129677432815L700.2497830426346,300.5832708138045L703.6168069136845,293.2690358471653L706.9838307847344,325.0015020533004L710.3508546557842,326.9144362084146L713.7178785268342,320.1628604973153L717.0849023978841,346.3815476976782L720.4519262689339,320.5004292222089L723.8189501399838,365.6236021918333L727.1859740110336,306.32207327914716L730.5529978820836,312.8486255306761L733.9200217531335,307.44739179022696L737.2870456241833,319.26263251688187L740.6540694952331,334.00364771548345L744.0210933662831,317.5747888924139L747.388117237333,342.10556539723297L750.7551411083828,339.96754071147245L754.1221649794327,295.1819700022795L757.4891888504826,294.73185601206274L760.8562127215324,353.9208731949637L764.2232365925823,338.0546065563582L767.5902604636321,330.0652341399318L770.9572843346821,308.46009796490773L774.324308205732,332.42828228526275L777.6913320767818,336.59178639146074L781.0583559478316,326.3518440239506L784.4253798188817,324.32636460351324L787.7924036899315,337.94206129103503L791.1594275609813,327.92720945417125L794.5264514320312,285.6172321556325L797.8934753030811,341.9930201319098L801.2604991741309,339.29240326168525L804.6275230451809,313.86139877643274L807.9945469162307,349.9823925483362L811.3615707872806,314.7616267568662L814.7285946583305,306.8847325346871L818.0956185293803,320.5004292222089L821.4626424004301,321.6257477332887L824.82966627148,349.75736908876576L828.19669014253,270.08853424192057L831.5637140135798,312.39851154045937L834.9307378846297,322.0757946524296L838.2977617556795,318.24992634220104L841.6647856267294,308.009983974691L845.0318094977794,333.32851026569625L848.3988333688292,347.3943209434348L851.7658572398791,355.04612463496755L855.132881110929,350.77007526344653L858.4999049819788,315.0991954817598L861.8669288530288,342.5556793874497L865.2339527240786,303.9590251338162L868.6009765951285,306.4346185444703" style="fill: none;" fill="none"></path></g></g></g></g></g></g><g transform="translate(53, 376)" clip-path="url(#clip_1)"><clipPath id="clip_1"><rect width="923" height="24"></rect></clipPath><g><g><line x1="20.110961090559613" y1="0" x2="20.110961090559613" y2="5" style="visibility: inherit;" fill="rgb(0, 0, 0)" stroke="rgb(204, 204, 204)" stroke-width="1px"></line><line x1="87.45143851155714" y1="0" x2="87.45143851155714" y2="5" style="visibility: inherit;" fill="rgb(0, 0, 0)" stroke="rgb(204, 204, 204)" stroke-width="1px"></line><line x1="154.79191593255467" y1="0" x2="154.79191593255467" y2="5" style="visibility: inherit;" fill="rgb(0, 0, 0)" stroke="rgb(204, 204, 204)" stroke-width="1px"></line><line x1="222.1323933535522" y1="0" x2="222.1323933535522" y2="5" style="visibility: inherit;" fill="rgb(0, 0, 0)" stroke="rgb(204, 204, 204)" stroke-width="1px"></line><line x1="289.47287077454973" y1="0" x2="289.47287077454973" y2="5" style="visibility: inherit;" fill="rgb(0, 0, 0)" stroke="rgb(204, 204, 204)" stroke-width="1px"></line><line x1="356.8133481955473" y1="0" x2="356.8133481955473" y2="5" style="visibility: inherit;" fill="rgb(0, 0, 0)" stroke="rgb(204, 204, 204)" stroke-width="1px"></line><line x1="424.1538256165448" y1="0" x2="424.1538256165448" y2="5" style="visibility: inherit;" fill="rgb(0, 0, 0)" stroke="rgb(204, 204, 204)" stroke-width="1px"></line><line x1="491.4943030375423" y1="0" x2="491.4943030375423" y2="5" style="visibility: inherit;" fill="rgb(0, 0, 0)" stroke="rgb(204, 204, 204)" stroke-width="1px"></line><line x1="558.8347804585399" y1="0" x2="558.8347804585399" y2="5" style="visibility: inherit;" fill="rgb(0, 0, 0)" stroke="rgb(204, 204, 204)" stroke-width="1px"></line><line x1="626.1752578795374" y1="0" x2="626.1752578795374" y2="5" style="visibility: inherit;" fill="rgb(0, 0, 0)" stroke="rgb(204, 204, 204)" stroke-width="1px"></line><line x1="693.5157353005349" y1="0" x2="693.5157353005349" y2="5" style="visibility: inherit;" fill="rgb(0, 0, 0)" stroke="rgb(204, 204, 204)" stroke-width="1px"></line><line x1="760.8562127215324" y1="0" x2="760.8562127215324" y2="5" style="visibility: inherit;" fill="rgb(0, 0, 0)" stroke="rgb(204, 204, 204)" stroke-width="1px"></line><line x1="828.19669014253" y1="0" x2="828.19669014253" y2="5" style="visibility: inherit;" fill="rgb(0, 0, 0)" stroke="rgb(204, 204, 204)" stroke-width="1px"></line><line x1="895.5371675635275" y1="0" x2="895.5371675635275" y2="5" style="visibility: inherit;" fill="rgb(0, 0, 0)" stroke="rgb(204, 204, 204)" stroke-width="1px"></line></g><g transform="translate(0, 8)"><text x="20.110961090559613" y="0" dx="0em" dy="0.95em" style="text-anchor: middle; visibility: inherit; font-family: Roboto, sans-serif; font-size: 12px; font-weight: 200;" fill="rgb(33, 33, 33)" stroke="none" stroke-width="1px">0</text><text x="87.45143851155714" y="0" dx="0em" dy="0.95em" style="text-anchor: middle; visibility: inherit; font-family: Roboto, sans-serif; font-size: 12px; font-weight: 200;" fill="rgb(33, 33, 33)" stroke="none" stroke-width="1px">2k</text><text x="154.79191593255467" y="0" dx="0em" dy="0.95em" style="text-anchor: middle; visibility: inherit; font-family: Roboto, sans-serif; font-size: 12px; font-weight: 200;" fill="rgb(33, 33, 33)" stroke="none" stroke-width="1px">4k</text><text x="222.1323933535522" y="0" dx="0em" dy="0.95em" style="text-anchor: middle; visibility: inherit; font-family: Roboto, sans-serif; font-size: 12px; font-weight: 200;" fill="rgb(33, 33, 33)" stroke="none" stroke-width="1px">6k</text><text x="289.47287077454973" y="0" dx="0em" dy="0.95em" style="text-anchor: middle; visibility: inherit; font-family: Roboto, sans-serif; font-size: 12px; font-weight: 200;" fill="rgb(33, 33, 33)" stroke="none" stroke-width="1px">8k</text><text x="356.8133481955473" y="0" dx="0em" dy="0.95em" style="text-anchor: middle; visibility: inherit; font-family: Roboto, sans-serif; font-size: 12px; font-weight: 200;" fill="rgb(33, 33, 33)" stroke="none" stroke-width="1px">10k</text><text x="424.1538256165448" y="0" dx="0em" dy="0.95em" style="text-anchor: middle; visibility: inherit; font-family: Roboto, sans-serif; font-size: 12px; font-weight: 200;" fill="rgb(33, 33, 33)" stroke="none" stroke-width="1px">12k</text><text x="491.4943030375423" y="0" dx="0em" dy="0.95em" style="text-anchor: middle; visibility: inherit; font-family: Roboto, sans-serif; font-size: 12px; font-weight: 200;" fill="rgb(33, 33, 33)" stroke="none" stroke-width="1px">14k</text><text x="558.8347804585399" y="0" dx="0em" dy="0.95em" style="text-anchor: middle; visibility: inherit; font-family: Roboto, sans-serif; font-size: 12px; font-weight: 200;" fill="rgb(33, 33, 33)" stroke="none" stroke-width="1px">16k</text><text x="626.1752578795374" y="0" dx="0em" dy="0.95em" style="text-anchor: middle; visibility: inherit; font-family: Roboto, sans-serif; font-size: 12px; font-weight: 200;" fill="rgb(33, 33, 33)" stroke="none" stroke-width="1px">18k</text><text x="693.5157353005349" y="0" dx="0em" dy="0.95em" style="text-anchor: middle; visibility: inherit; font-family: Roboto, sans-serif; font-size: 12px; font-weight: 200;" fill="rgb(33, 33, 33)" stroke="none" stroke-width="1px">20k</text><text x="760.8562127215324" y="0" dx="0em" dy="0.95em" style="text-anchor: middle; visibility: inherit; font-family: Roboto, sans-serif; font-size: 12px; font-weight: 200;" fill="rgb(33, 33, 33)" stroke="none" stroke-width="1px">22k</text><text x="828.19669014253" y="0" dx="0em" dy="0.95em" style="text-anchor: middle; visibility: inherit; font-family: Roboto, sans-serif; font-size: 12px; font-weight: 200;" fill="rgb(33, 33, 33)" stroke="none" stroke-width="1px">24k</text><text x="895.5371675635275" y="0" dx="0em" dy="0.95em" style="text-anchor: middle; visibility: inherit; font-family: Roboto, sans-serif; font-size: 12px; font-weight: 200;" fill="rgb(33, 33, 33)" stroke="none" stroke-width="1px">26k</text></g><line x1="0" y1="0" x2="923.8125" y2="0" fill="rgb(0, 0, 0)" stroke="rgb(204, 204, 204)" stroke-width="1px"></line></g></g></g></g></svg>