<svg viewBox="0 0 977 400" xmlns="http://www.w3.org/2000/svg"><g><g><g><g><g><line x1="42.390625" y1="360.1430466889579" x2="37.390625" y2="360.1430466889579" style="visibility: inherit;" fill="rgb(0, 0, 0)" stroke="rgb(204, 204, 204)" stroke-width="1px"></line><line x1="42.390625" y1="301.8252359745591" x2="37.390625" y2="301.8252359745591" style="visibility: inherit;" fill="rgb(0, 0, 0)" stroke="rgb(204, 204, 204)" stroke-width="1px"></line><line x1="42.390625" y1="243.50742526016032" x2="37.390625" y2="243.50742526016032" style="visibility: inherit;" fill="rgb(0, 0, 0)" stroke="rgb(204, 204, 204)" stroke-width="1px"></line><line x1="42.390625" y1="185.18961454576151" x2="37.390625" y2="185.18961454576151" style="visibility: inherit;" fill="rgb(0, 0, 0)" stroke="rgb(204, 204, 204)" stroke-width="1px"></line><line x1="42.390625" y1="126.87180383136271" x2="37.390625" y2="126.87180383136271" style="visibility: inherit;" fill="rgb(0, 0, 0)" stroke="rgb(204, 204, 204)" stroke-width="1px"></line><line x1="42.390625" y1="68.5539931169639" x2="37.390625" y2="68.5539931169639" style="visibility: inherit;" fill="rgb(0, 0, 0)" stroke="rgb(204, 204, 204)" stroke-width="1px"></line><line x1="42.390625" y1="10.236182402565083" x2="37.390625" y2="10.236182402565083" style="visibility: inherit;" fill="rgb(0, 0, 0)" stroke="rgb(204, 204, 204)" stroke-width="1px"></line></g><g transform="translate(32.390625, 0)"><text x="0" y="360.1430466889579" dx="0em" dy="0.3em" style="text-anchor: end; visibility: inherit; font-family: Roboto, sans-serif; font-size: 12px; font-weight: 200;" fill="rgb(33, 33, 33)" stroke="none" stroke-width="1px">100</text><text x="0" y="301.8252359745591" dx="0em" dy="0.3em" style="text-anchor: end; visibility: inherit; font-family: Roboto, sans-serif; font-size: 12px; font-weight: 200;" fill="rgb(33, 33, 33)" stroke="none" stroke-width="1px">150</text><text x="0" y="243.50742526016032" dx="0em" dy="0.3em" style="text-anchor: end; visibility: inherit; font-family: Roboto, sans-serif; font-size: 12px; font-weight: 200;" fill="rgb(33, 33, 33)" stroke="none" stroke-width="1px">200</text><text x="0" y="185.18961454576151" dx="0em" dy="0.3em" style="text-anchor: end; visibility: inherit; font-family: Roboto, sans-serif; font-size: 12px; font-weight: 200;" fill="rgb(33, 33, 33)" stroke="none" stroke-width="1px">250</text><text x="0" y="126.87180383136271" dx="0em" dy="0.3em" style="text-anchor: end; visibility: inherit; font-family: Roboto, sans-serif; font-size: 12px; font-weight: 200;" fill="rgb(33, 33, 33)" stroke="none" stroke-width="1px">300</text><text x="0" y="68.5539931169639" dx="0em" dy="0.3em" style="text-anchor: end; visibility: inherit; font-family: Roboto, sans-serif; font-size: 12px; font-weight: 200;" fill="rgb(33, 33, 33)" stroke="none" stroke-width="1px">350</text><text x="0" y="10.236182402565083" dx="0em" dy="0.3em" style="text-anchor: end; visibility: inherit; font-family: Roboto, sans-serif; font-size: 12px; font-weight: 200;" fill="rgb(33, 33, 33)" stroke="none" stroke-width="1px">400</text></g><line x1="42.390625" y1="0" x2="42.390625" y2="376" fill="rgb(0, 0, 0)" stroke="rgb(204, 204, 204)" stroke-width="1px"></line></g></g><g transform="translate(42, 0)" clip-path="url(#clip_0)"><clipPath id="clip_0"><rect width="934" height="376"></rect></clipPath><g><g><g><line x1="8.266511689101026" y1="0" x2="8.266511689101026" y2="376" fill="rgb(0, 0, 0)" stroke="rgb(66, 66, 66)" stroke-width="1px" opacity="0.25"></line><line x1="78.82651024078788" y1="0" x2="78.82651024078788" y2="376" fill="rgb(0, 0, 0)" stroke="rgb(66, 66, 66)" stroke-width="1px" opacity="0.25"></line><line x1="149.38650879247473" y1="0" x2="149.38650879247473" y2="376" fill="rgb(0, 0, 0)" stroke="rgb(66, 66, 66)" stroke-width="1px" opacity="0.25"></line><line x1="219.94650734416157" y1="0" x2="219.94650734416157" y2="376" fill="rgb(0, 0, 0)" stroke="rgb(66, 66, 66)" stroke-width="1px" opacity="0.25"></line><line x1="290.5065058958484" y1="0" x2="290.5065058958484" y2="376" fill="rgb(0, 0, 0)" stroke="rgb(66, 66, 66)" stroke-width="1px" opacity="0.25"></line><line x1="361.06650444753524" y1="0" x2="361.06650444753524" y2="376" fill="rgb(0, 0, 0)" stroke="rgb(66, 66, 66)" stroke-width="1px" opacity="0.25"></line><line x1="431.6265029992221" y1="0" x2="431.6265029992221" y2="376" fill="rgb(0, 0, 0)" stroke="rgb(66, 66, 66)" stroke-width="1px" opacity="0.25"></line><line x1="502.18650155090893" y1="0" x2="502.18650155090893" y2="376" fill="rgb(0, 0, 0)" stroke="rgb(66, 66, 66)" stroke-width="1px" opacity="0.25"></line><line x1="572.7465001025957" y1="0" x2="572.7465001025957" y2="376" fill="rgb(0, 0, 0)" stroke="rgb(66, 66, 66)" stroke-width="1px" opacity="0.25"></line><line x1="643.3064986542827" y1="0" x2="643.3064986542827" y2="376" fill="rgb(0, 0, 0)" stroke="rgb(66, 66, 66)" stroke-width="1px" opacity="0.25"></line><line x1="713.8664972059694" y1="0" x2="713.8664972059694" y2="376" fill="rgb(0, 0, 0)" stroke="rgb(66, 66, 66)" stroke-width="1px" opacity="0.25"></line><line x1="784.4264957576563" y1="0" x2="784.4264957576563" y2="376" fill="rgb(0, 0, 0)" stroke="rgb(66, 66, 66)" stroke-width="1px" opacity="0.25"></line><line x1="854.9864943093431" y1="0" x2="854.9864943093431" y2="376" fill="rgb(0, 0, 0)" stroke="rgb(66, 66, 66)" stroke-width="1px" opacity="0.25"></line><line x1="925.5464928610301" y1="0" x2="925.5464928610301" y2="376" fill="rgb(0, 0, 0)" stroke="rgb(66, 66, 66)" stroke-width="1px" opacity="0.25"></line></g><g><line x1="0" y1="360.1430466889579" x2="934.609375" y2="360.1430466889579" fill="rgb(0, 0, 0)" stroke="rgb(66, 66, 66)" stroke-width="1px" opacity="0.25"></line><line x1="0" y1="301.8252359745591" x2="934.609375" y2="301.8252359745591" fill="rgb(0, 0, 0)" stroke="rgb(66, 66, 66)" stroke-width="1px" opacity="0.25"></line><line x1="0" y1="243.50742526016032" x2="934.609375" y2="243.50742526016032" fill="rgb(0, 0, 0)" stroke="rgb(66, 66, 66)" stroke-width="1px" opacity="0.25"></line><line x1="0" y1="185.18961454576151" x2="934.609375" y2="185.18961454576151" fill="rgb(0, 0, 0)" stroke="rgb(66, 66, 66)" stroke-width="1px" opacity="0.25"></line><line x1="0" y1="126.87180383136271" x2="934.609375" y2="126.87180383136271" fill="rgb(0, 0, 0)" stroke="rgb(66, 66, 66)" stroke-width="1px" opacity="0.25"></line><line x1="0" y1="68.5539931169639" x2="934.609375" y2="68.5539931169639" fill="rgb(0, 0, 0)" stroke="rgb(66, 66, 66)" stroke-width="1px" opacity="0.25"></line><line x1="0" y1="10.236182402565083" x2="934.609375" y2="10.236182402565083" fill="rgb(0, 0, 0)" stroke="rgb(66, 66, 66)" stroke-width="1px" opacity="0.25"></line></g></g></g><g><g><line x1="0" y1="476.7786681177555" x2="934.609375" y2="476.7786681177555" fill="rgb(0, 0, 0)" stroke="rgb(153, 153, 153)" stroke-width="1.5px"></line></g></g><g><g><line x1="8.266511689101026" y1="0" x2="8.266511689101026" y2="376" fill="rgb(0, 0, 0)" stroke="rgb(153, 153, 153)" stroke-width="1.5px"></line></g></g><g><g><g><g><g><path stroke="rgb(255, 112, 67)" stroke-width="2px" d="M11.79451161668537,112.0637285342214L15.322511544269712,130.5509868616461L18.850511471854055,147.54879147946818L22.378511399438395,200.1819933861677L25.906511327022738,209.50603763332003L29.43451125460708,198.46570287271453L32.96251118219142,192.13717524698208L36.49051110977577,198.69947186885975L40.01851103736011,194.4712809220368L43.546510964944446,194.2776319224796L47.07451089252879,186.96653607152024L50.60251082011313,183.50862982114612L54.13051074769748,187.36949118997813L57.658510675281825,182.5608835377073L61.18651060286616,184.88278176144024L64.7145105304505,181.0971093131211L68.24251045803484,178.18955263297906L71.77051038561919,174.194547781962L75.29851031320354,170.8460437048155L78.82651024078788,168.36391107759263L82.35451016837223,171.01437622772568L85.88251009595656,174.10642730889955L89.41051002354091,171.8825591957781L92.93850995112525,169.90778232537846L96.4665098787096,168.11979626865514L99.99450980629393,165.6641391748835L103.52250973387827,165.9770229308984L107.05050966146263,164.13081135482346L110.57850958904696,166.7638627318202L114.1065095166313,164.4731105834051L117.63450944421565,162.86304951876184L121.16250937179998,164.42393777272878L124.69050929938433,165.53809377921445L128.21850922696868,163.9729746546918L131.746509154553,164.34494949100457L135.27450908213737,162.82739455705888L138.80250900972172,161.531840598637L142.33050893730604,161.574626302155L145.85850886489038,160.32298720659333L149.38650879247473,159.19875201741763L152.91450872005908,159.09020970617559L156.44250864764342,161.79295387322577L159.97050857522777,161.624343312182L163.49850850281211,160.37726223269226L167.02650843039643,159.8497584020502L170.55450835798078,158.95128221028295L174.08250828556513,160.33303249363402L177.61050821314947,159.52085362906695L181.13850814073382,158.82272127026027L184.66650806831817,158.1569658460819L188.19450799590248,157.85893847452908L191.72250792348683,157.71704367317153L195.25050785107118,157.11726073997917L198.77850777865552,156.35917748227672L202.30650770623987,156.69457856525383L205.83450763382422,156.1237411002048L209.36250756140856,155.0990971912491L212.89050748899288,154.56762855633966L216.41850741657723,154.11009680383017L219.94650734416157,154.63547763437853L223.47450727174592,155.45918444887448L227.00250719933027,155.83184041140845L230.5305071269146,156.12478455601197L234.05850705449896,155.59166188860183L237.58650698208328,156.1685588552212L241.11450690966763,155.74069104954796L244.64250683725197,156.5942944940001L248.1705067648363,156.94821620691388L251.69850669242064,156.7142014841466L255.22650662000498,156.05607153386555L258.75450654758936,157.70956141051758L262.2825064751737,156.99832256598293L265.81050640275805,156.49895293122054L269.3385063303424,156.10286331089534L272.86650625792674,156.96331382977058L276.39450618551103,157.79023047802093L279.9225061130954,157.11795988862582L283.4505060406797,158.06952541173L286.9785059682641,157.39299272746894L290.5065058958484,156.83144210027908L294.03450582343277,158.88380335637237L297.5625057510171,158.38732188765897L301.0905056786014,159.32738629878142L304.61850560618575,159.08547675596066L308.1465055337701,159.1045033770129L311.67450546135444,159.26140297352183L315.2025053889388,159.02730137787452L318.73050531652314,159.40315627930232L322.2585052441075,160.20843361537888L325.7865051716918,159.75821435968135L329.3145050992761,159.33656670111634L332.8425050268605,159.89400335190817L336.37050495444487,159.31999042253412L339.8985048820292,159.05372552408298L343.42650480961356,159.35630764261435L346.9545047371979,158.92412132723388L350.4825046647822,158.5096933230809L354.01050459236654,159.29631679803333L357.5385045199509,159.2680076302408L361.06650444753524,159.1496594895609L364.5945043751196,158.83945564601078L368.12250430270393,158.44288828529548L371.6505042302882,157.89510616830967L375.17850415787257,158.1577447374895L378.70650408545697,157.74965245391215L382.2345040130413,157.37496481056064L385.76250394062566,157.24829650536864L389.29050386821,157.05667376080035L392.81850379579436,156.86388541183166L396.34650372337865,157.428116605167L399.874503650963,157.31310113342997L403.40250357854734,156.96097473770055L406.9305035061317,156.6007068497089L410.45850343371603,156.76560122915717L413.9865033613004,157.51351186320926L417.5145032888847,157.16791201525407L421.042503216469,157.05114619212057L424.5705031440534,156.66711500444765L428.09850307163777,156.94831387982265L431.6265029992221,156.4350832752235L435.15450292680646,156.41097549420564L438.6825028543908,155.97531343807253L442.2105027819751,155.56543933630996L445.73850270955944,155.79699039687574L449.2665026371438,155.49333634659166L452.79450256472813,155.18447361131038L456.3225024923125,155.62055393856753L459.8505024198968,155.96817825614897L463.3785023474812,155.7883701806203L466.90650227506546,157.39188491052667L470.43450220264987,158.92673276057252L473.9625021302342,158.63838929510095L477.49050205781856,158.26825440718966L481.0185019854029,159.80625572272012L484.54650191298725,159.76881171111484L488.07450184057154,159.50073232232228L491.6025017681559,159.23852103390573L495.13050169574024,159.68946345397492L498.6585016233246,159.40777623328682L502.18650155090893,159.34412857781285L505.7145014784933,159.45062270357047L509.2425014060776,159.44497632307736L512.770501333662,159.01468140637084L516.2985012612463,158.5917985629619L519.8265011888307,158.5827225844156L523.354501116415,158.95071499884136L526.8825010439992,158.79558796296467L530.4105009715836,158.46643743068554L533.9385008991679,158.18086514265474L537.4665008267524,157.98400017110515L540.9945007543367,158.38889148935277L544.5225006819211,158.4431443757624L548.0505006095054,158.32598488409096L551.5785005370898,159.67710414305665L555.1065004646741,159.5501878312563L558.6345003922585,159.22162758887566L562.1625003198428,159.19680370664602L565.6905002474272,159.27129541584802L569.2185001750115,159.03776972496692L572.7465001025957,158.78168555123477L576.2745000301801,158.63662376726205L579.8024999577644,158.44928330671445L583.3304998853488,158.85567917696483L586.8584998129331,158.76882321578535L590.3864997405175,158.53656127316634L593.9144996681018,158.2433303226971L597.4424995956862,158.79272720182226L600.9704995232705,158.85389506403808L604.4984994508549,159.18687768177313L608.0264993784392,159.12552735668962L611.5544993060236,159.4760011281486L615.0824992336079,159.92041654243903L618.6104991611923,159.84064688423055L622.1384990887765,159.5830137129397L625.6664990163608,159.4413831370219L629.1944989439453,159.27434114220856L632.7224988715296,159.09454508275184L636.250498799114,158.92747051432488L639.7784987266983,159.06637427127282L643.3064986542827,158.85681384188499L646.834498581867,158.73880513939415L650.3624985094514,159.50335219271076L653.8904984370357,159.35309025635232L657.4184983646201,159.68928481721238L660.9464982922044,160.86799401470998L664.4744982197886,160.9737651092428L668.002498147373,161.0347575198773L671.5304980749573,160.988839368137L675.0584980025417,160.86387850272894L678.586497930126,161.59970633515476L682.1144978577104,161.30523330818062L685.6424977852947,161.4436817678946L689.1704977128791,161.23281213373838L692.6984976404634,161.0329820732932L696.2264975680478,160.8471908454882L699.7544974956321,160.98494155689883L703.2824974232165,161.77253470872208L706.8104973508008,162.8462419944031L710.3384972783851,162.63449706951036L713.8664972059694,163.06495020544858L717.3944971335537,163.3381740617001L720.9224970611382,163.49422643659153L724.4504969887225,163.25408238095645L727.9784969163069,164.32494862738133L731.5064968438912,164.34193592967895L735.0344967714756,164.13843155390796L738.5624966990599,163.9743168851931L742.0904966266443,163.7069625611753L745.6184965542286,163.74852344854136L749.146496481813,163.5850187746692L752.6744964093973,163.35800761452387L756.2024963369817,163.63292109460625L759.7304962645659,163.40859569277404L763.2584961921502,163.6177867702849L766.7864961197346,163.4047042470125L770.3144960473189,163.68427764544793L773.8424959749033,163.89009629436293L777.3704959024876,164.08448427935917L780.898495830072,164.00803528024034L784.4264957576563,164.03125668129167L787.9544956852407,163.8139718744266L791.482495612825,164.78218091577128L795.0104955404094,164.83170332822598L798.5384954679937,164.9722897110903L802.066495395578,165.72240650327294L805.5944953231624,166.05166870422258L809.1224952507467,165.7465127420356L812.6504951783311,165.8561336182712L816.1784951059154,166.75918224806006L819.7064950334998,166.94487131268943L823.2344949610841,167.96189627716487L826.7624948886685,167.80575141594574L830.2904948162528,167.69187718983875L833.8184947438372,168.63299964660897L837.3464946714215,168.71369606108763L840.8744945990059,168.49768619841072L844.4024945265902,168.40778307524388L847.9304944541745,168.2174000934372L851.4584943817588,168.34278046667492L854.9864943093431,168.42645425449325L858.5144942369275,168.22859446087458L862.0424941645118,168.10288886969954L865.5704940920962,168.10247098104105L869.0984940196805,167.99572599263027L872.6264939472649,167.7815111162902L876.1544938748492,168.44600276901855L879.6824938024336,168.60746904831882L883.2104937300179,168.81310529716512L886.7384936576022,168.8250786189659L890.2664935851866,168.62904278653545L893.7944935127709,168.47810626065487L897.3224934403553,168.2819088032018" style="fill: none;" fill="none"></path></g></g></g></g><g opacity="0.2"><g><g><g><path stroke="rgb(255, 112, 67)" stroke-width="2px" d="M11.79451161668537,112.0637285342214L15.322511544269712,149.01975793075346L18.850511471854055,181.49342429905462L22.378511399438395,357.7660103750108L25.906511327022738,246.7090673732821L29.43451125460708,143.429413449936L32.96251118219142,154.2986872956406L36.49051110977577,244.45217094618425L40.01851103736011,160.7976135857206L43.546510964944446,192.54348193419915L47.07451089252879,114.25648391218151L50.60251082011313,145.6991238491147L54.13051074769748,233.39978188000833L57.658510675281825,120.48482182515525L61.18651060286616,217.14661088145476L64.7145105304505,124.76419017900618L68.24251045803484,132.06210322269095L71.77051038561919,106.88745332344826L75.29851031320354,111.14233275287808L78.82651024078788,121.672178715909L82.35451016837223,223.47059085826487L85.88251009595656,238.32997543527978L89.41051002354091,123.51618048706999L92.93850995112525,125.02897667430915L96.4665098787096,125.7404368797287L99.99450980629393,105.06445222875304L103.52250973387827,174.00308810795642L107.05050966146263,114.9749562078786L110.57850958904696,239.42984137221518L114.1065095166313,99.02853746319263L117.63450944421565,115.30270913821197L121.16250937179998,212.0449592608688L124.69050929938433,200.60884512242325L128.21850922696868,113.19278185200747L131.746509154553,176.77318411689038L135.27450908213737,110.65828495752581L138.80250900972172,115.74475558063271L142.33050893730604,163.12797678608172L145.85850886489038,113.67682964735974L149.38650879247473,116.21947765185948L152.91450872005908,154.83637580189773L156.44250864764342,270.3091292643627L159.97050857522777,154.69289490895963L163.49850850281211,107.91616612096831L167.02650843039643,137.15441132196796L170.55450835798078,119.43628296527687L174.08250828556513,222.4220342012031L177.61050821314947,122.25069396099023L181.13850814073382,126.12065590685955L184.66650806831817,126.33760357306089L188.19450799590248,143.33142215788476L191.72250792348683,150.66546348396403L195.25050785107118,126.74117250487234L198.77850777865552,117.24701583527211L202.30650770623987,174.3168524521016L205.83450763382422,125.59115410498738L209.36250756140856,99.32478937882736L212.89050748899288,125.13625809611895L216.41850741657723,128.34142405156297L219.94650734416157,184.72074774788834L223.47450727174592,203.4034300557783L227.00250719933027,177.87305005382578L230.5305071269146,173.7266622546801L234.05850705449896,123.05783182461313L237.58650698208328,191.91483202335178L241.11450690966763,128.82778548076314L244.64250683725197,211.08505037454927L248.1705067648363,179.87218987308165L251.69850669242064,141.33813761198246L255.22650662000498,112.19905831714142L258.75450654758936,269.43785035160204L262.2825064751737,108.27659468010769L265.81050640275805,121.82615994707994L269.3385063303424,128.23293242127886L272.86650625792674,218.3059728026486L276.39450618551103,217.50935307444203L279.9225061130954,107.9441788877116L283.4505060406797,228.55357323341647L286.9785059682641,106.65534245695132L290.5065058958484,114.19818033921383L294.03450582343277,316.5947981667242L297.5625057510171,119.77802448179843L301.0905056786014,233.29830234000175L304.61850560618575,139.82769065295813L308.1465055337701,160.63665585863896L311.67450546135444,172.04012996264538L315.2025053889388,139.74603717530988L318.73050531652314,190.7041430251009L322.2585052441075,228.00889043406517L325.7865051716918,121.44006784941206L329.3145050992761,123.06480832052378L332.8425050268605,208.35578110443942L336.37050495444487,108.89358743579825L339.8985048820292,135.42004020083164L343.42650480961356,186.48893351757124L346.9545047371979,119.77684986769104L350.4825046647822,120.59448806954678L354.01050459236654,231.97682587480233L357.5385045199509,156.6267012677869L361.06650444753524,148.000335262992L364.5945043751196,129.33514758642906L368.12250430270393,120.36586545100515L371.6505042302882,104.8043285955128L375.17850415787257,183.84946883512768L378.70650408545697,117.46164986762551L382.2345040130413,120.04743824479728L385.76250394062566,144.51529080068318L389.29050386821,137.6221213029172L392.81850379579436,137.13807350756497L396.34650372337865,215.66533350609762L399.874503650963,145.33873088434214L403.40250357854734,119.9856464238743L406.9305035061317,118.44839690658092L410.45850343371603,174.37515602506923L413.9865033613004,238.052374967896L417.5145032888847,119.64390490735275L421.042503216469,144.2691557536311L424.5705031440534,114.28681031277273L428.09850307163777,188.2302989318017L431.6265029992221,98.88509216462143L435.15450292680646,153.6863218076459L438.6825028543908,106.35093943129851L442.2105027819751,108.5156820425153L445.73850270955944,182.5816508780166L449.2665026371438,120.09993993596169L452.79450256472813,118.91140843110051L456.3225024923125,207.21857667663528L459.8505024198968,197.40602839519403L463.3785023474812,134.19651943331655L466.90650227506546,351.3557229570814L470.43450220264987,345.932164780924L473.9625021302342,123.2537788143487L477.49050205781856,112.52211279104513L481.0185019854029,351.23908021677926L484.54650191298725,155.07546316430532L488.07450184057154,125.66462087825062L491.6025017681559,125.91420857889113L495.13050169574024,217.39271033413988L498.6585016233246,123.11731001168815L502.18650155090893,151.08885847813383L505.7145014784933,173.3557689516747L509.2425014060776,158.70281390544483L512.770501333662,102.0832460297879L516.2985012612463,102.27453015746075L519.8265011888307,157.36617423994977L523.354501116415,208.5948862640305L526.8825010439992,137.73406558678977L530.4105009715836,113.49369662970497L533.9385008991679,118.91607129316327L537.4665008267524,130.7464286392948L540.9945007543367,214.75675169683507L544.5225006819211,166.04272830206116L548.0505006095054,141.81399870294973L551.5785005370898,351.25774946221367L555.1065004646741,141.44541903379226L558.6345003922585,112.07074062449897L562.1625003198428,155.6131516705625L565.6905002474272,170.0888111753077L569.2185001750115,124.92632252019519L572.7465001025957,121.15666550022502L576.2745000301801,137.19990092285482L579.8024999577644,130.6052969745715L583.3304998853488,219.60296034342693L586.8584998129331,145.7119734155624L590.3864997405175,123.42406226555575L593.9144996681018,113.66515469501944L597.4424995956862,242.77962724033773L600.9704995232705,168.2564487621201L604.4984994508549,210.65350427036145L608.0264993784392,149.59126108555716L611.5544993060236,214.23771463882892L615.0824992336079,229.73509264800003L618.6104991611923,147.24221084257817L622.1384990887765,118.67698393075564L625.6664990163608,136.83480950165267L629.1944989439453,132.47147403630566L632.7224988715296,130.09444662095024L636.250498799114,131.83931808031952L639.7784987266983,181.70337767216182L643.3064986542827,124.5297656786613L646.834498581867,139.30982820905928L650.3624985094514,286.01644284945763L653.8904984370357,134.36331463656828L657.4184983646201,215.88110655819156L660.9464982922044,358.85889091744383L664.4744982197886,178.828313875266L668.002498147373,171.38113585402328L671.5304980749573,153.16148286783644L675.0584980025417,139.45911098380066L678.586497930126,288.2500071690584L682.1144978577104,110.37719624218668L685.6424977852947,185.50220427579927L689.1704977128791,124.41547216657393L692.6984976404634,125.9783852223958L696.2264975680478,128.1023010947885L699.7544974956321,185.37623581137163L703.2824974232165,301.87771986854005L706.8104973508008,354.7299888510334L710.3384972783851,124.61957026632759L713.8664972059694,240.6976771265097L717.3944971335537,212.83809074112L720.9224970611382,191.893831346886L724.4504969887225,119.35462948762867L727.9784969163069,360.9583267640071L731.5064968438912,167.4750100313926L735.0344967714756,126.43908311306745L738.5624966990599,133.43839501290273L742.0904966266443,113.74445894445283L745.6184965542286,171.54907007701559L749.146496481813,132.76423770398506L752.6744964093973,120.38220326540818L756.2024963369817,215.89977580362594L759.7304962645659,120.57815025514375L763.2584961921502,203.72767694097288L766.7864961197346,122.37666242541792L770.3144960473189,217.74028932683157L773.8424959749033,203.85131397436916L777.3704959024876,201.98280548160363L780.898495830072,149.04189762695972L784.4264957576563,168.59587664479378L787.9544956852407,120.92804288168338L791.482495612825,356.65564409984256L795.0104955404094,174.6853965268922L798.5384954679937,193.05785613014262L802.066495395578,316.17608383180067L805.5944953231624,232.35588808500918L809.1224952507467,104.05321626537652L812.6504951783311,188.10550508148145L816.1784951059154,350.7667073737673L819.7064950334998,204.9290224179148L823.2344949610841,376.8102780589641L826.7624948886685,135.61712621030773L830.2904948162528,144.12688506916734L833.8184947438372,364.1331485216765L837.3464946714215,185.54068178640856L840.8744945990059,123.28410521493993L844.4024945265902,149.5189333320344L847.9304944541745,128.06731183213452L851.4584943817588,194.88320645305268L854.9864943093431,186.20433875709338L858.5144942369275,126.0343751615155L862.0424941645118,141.1970059472592L865.5704940920962,168.01269853764978L869.0984940196805,144.98065155341757L872.6264939472649,121.42725387733125L876.1544938748492,312.7563194383701L879.6824938024336,203.79998689731218L883.2104937300179,213.7933367653768L886.7384936576022,171.45342801317915L890.2664935851866,125.44301034998655L893.7944935127709,135.10976410464178L897.3224934403553,124.75486445488067" style="fill: none;" fill="none"></path></g></g></g></g></g></g><g transform="translate(42, 376)" clip-path="url(#clip_1)"><clipPath id="clip_1"><rect width="934" height="24"></rect></clipPath><g><g><line x1="8.266511689101026" y1="0" x2="8.266511689101026" y2="5" style="visibility: inherit;" fill="rgb(0, 0, 0)" stroke="rgb(204, 204, 204)" stroke-width="1px"></line><line x1="78.82651024078788" y1="0" x2="78.82651024078788" y2="5" style="visibility: inherit;" fill="rgb(0, 0, 0)" stroke="rgb(204, 204, 204)" stroke-width="1px"></line><line x1="149.38650879247473" y1="0" x2="149.38650879247473" y2="5" style="visibility: inherit;" fill="rgb(0, 0, 0)" stroke="rgb(204, 204, 204)" stroke-width="1px"></line><line x1="219.94650734416157" y1="0" x2="219.94650734416157" y2="5" style="visibility: inherit;" fill="rgb(0, 0, 0)" stroke="rgb(204, 204, 204)" stroke-width="1px"></line><line x1="290.5065058958484" y1="0" x2="290.5065058958484" y2="5" style="visibility: inherit;" fill="rgb(0, 0, 0)" stroke="rgb(204, 204, 204)" stroke-width="1px"></line><line x1="361.06650444753524" y1="0" x2="361.06650444753524" y2="5" style="visibility: inherit;" fill="rgb(0, 0, 0)" stroke="rgb(204, 204, 204)" stroke-width="1px"></line><line x1="431.6265029992221" y1="0" x2="431.6265029992221" y2="5" style="visibility: inherit;" fill="rgb(0, 0, 0)" stroke="rgb(204, 204, 204)" stroke-width="1px"></line><line x1="502.18650155090893" y1="0" x2="502.18650155090893" y2="5" style="visibility: inherit;" fill="rgb(0, 0, 0)" stroke="rgb(204, 204, 204)" stroke-width="1px"></line><line x1="572.7465001025957" y1="0" x2="572.7465001025957" y2="5" style="visibility: inherit;" fill="rgb(0, 0, 0)" stroke="rgb(204, 204, 204)" stroke-width="1px"></line><line x1="643.3064986542827" y1="0" x2="643.3064986542827" y2="5" style="visibility: inherit;" fill="rgb(0, 0, 0)" stroke="rgb(204, 204, 204)" stroke-width="1px"></line><line x1="713.8664972059694" y1="0" x2="713.8664972059694" y2="5" style="visibility: inherit;" fill="rgb(0, 0, 0)" stroke="rgb(204, 204, 204)" stroke-width="1px"></line><line x1="784.4264957576563" y1="0" x2="784.4264957576563" y2="5" style="visibility: inherit;" fill="rgb(0, 0, 0)" stroke="rgb(204, 204, 204)" stroke-width="1px"></line><line x1="854.9864943093431" y1="0" x2="854.9864943093431" y2="5" style="visibility: inherit;" fill="rgb(0, 0, 0)" stroke="rgb(204, 204, 204)" stroke-width="1px"></line><line x1="925.5464928610301" y1="0" x2="925.5464928610301" y2="5" style="visibility: inherit;" fill="rgb(0, 0, 0)" stroke="rgb(204, 204, 204)" stroke-width="1px"></line></g><g transform="translate(0, 8)"><text x="8.266511689101026" y="0" dx="0em" dy="0.95em" style="text-anchor: middle; visibility: inherit; font-family: Roboto, sans-serif; font-size: 12px; font-weight: 200;" fill="rgb(33, 33, 33)" stroke="none" stroke-width="1px">0</text><text x="78.82651024078788" y="0" dx="0em" dy="0.95em" style="text-anchor: middle; visibility: inherit; font-family: Roboto, sans-serif; font-size: 12px; font-weight: 200;" fill="rgb(33, 33, 33)" stroke="none" stroke-width="1px">2k</text><text x="149.38650879247473" y="0" dx="0em" dy="0.95em" style="text-anchor: middle; visibility: inherit; font-family: Roboto, sans-serif; font-size: 12px; font-weight: 200;" fill="rgb(33, 33, 33)" stroke="none" stroke-width="1px">4k</text><text x="219.94650734416157" y="0" dx="0em" dy="0.95em" style="text-anchor: middle; visibility: inherit; font-family: Roboto, sans-serif; font-size: 12px; font-weight: 200;" fill="rgb(33, 33, 33)" stroke="none" stroke-width="1px">6k</text><text x="290.5065058958484" y="0" dx="0em" dy="0.95em" style="text-anchor: middle; visibility: inherit; font-family: Roboto, sans-serif; font-size: 12px; font-weight: 200;" fill="rgb(33, 33, 33)" stroke="none" stroke-width="1px">8k</text><text x="361.06650444753524" y="0" dx="0em" dy="0.95em" style="text-anchor: middle; visibility: inherit; font-family: Roboto, sans-serif; font-size: 12px; font-weight: 200;" fill="rgb(33, 33, 33)" stroke="none" stroke-width="1px">10k</text><text x="431.6265029992221" y="0" dx="0em" dy="0.95em" style="text-anchor: middle; visibility: inherit; font-family: Roboto, sans-serif; font-size: 12px; font-weight: 200;" fill="rgb(33, 33, 33)" stroke="none" stroke-width="1px">12k</text><text x="502.18650155090893" y="0" dx="0em" dy="0.95em" style="text-anchor: middle; visibility: inherit; font-family: Roboto, sans-serif; font-size: 12px; font-weight: 200;" fill="rgb(33, 33, 33)" stroke="none" stroke-width="1px">14k</text><text x="572.7465001025957" y="0" dx="0em" dy="0.95em" style="text-anchor: middle; visibility: inherit; font-family: Roboto, sans-serif; font-size: 12px; font-weight: 200;" fill="rgb(33, 33, 33)" stroke="none" stroke-width="1px">16k</text><text x="643.3064986542827" y="0" dx="0em" dy="0.95em" style="text-anchor: middle; visibility: inherit; font-family: Roboto, sans-serif; font-size: 12px; font-weight: 200;" fill="rgb(33, 33, 33)" stroke="none" stroke-width="1px">18k</text><text x="713.8664972059694" y="0" dx="0em" dy="0.95em" style="text-anchor: middle; visibility: inherit; font-family: Roboto, sans-serif; font-size: 12px; font-weight: 200;" fill="rgb(33, 33, 33)" stroke="none" stroke-width="1px">20k</text><text x="784.4264957576563" y="0" dx="0em" dy="0.95em" style="text-anchor: middle; visibility: inherit; font-family: Roboto, sans-serif; font-size: 12px; font-weight: 200;" fill="rgb(33, 33, 33)" stroke="none" stroke-width="1px">22k</text><text x="854.9864943093431" y="0" dx="0em" dy="0.95em" style="text-anchor: middle; visibility: inherit; font-family: Roboto, sans-serif; font-size: 12px; font-weight: 200;" fill="rgb(33, 33, 33)" stroke="none" stroke-width="1px">24k</text><text x="925.5464928610301" y="0" dx="0em" dy="0.95em" style="text-anchor: middle; visibility: inherit; font-family: Roboto, sans-serif; font-size: 12px; font-weight: 200;" fill="rgb(33, 33, 33)" stroke="none" stroke-width="1px">26k</text></g><line x1="0" y1="0" x2="934.609375" y2="0" fill="rgb(0, 0, 0)" stroke="rgb(204, 204, 204)" stroke-width="1px"></line></g></g></g></g></svg>