<svg viewBox="0 0 977 400" xmlns="http://www.w3.org/2000/svg"><g><g><g><g><g><line x1="42.390625" y1="363.1612827079803" x2="37.390625" y2="363.1612827079803" style="visibility: inherit;" fill="rgb(0, 0, 0)" stroke="rgb(204, 204, 204)" stroke-width="1px"></line><line x1="42.390625" y1="318.98119436118776" x2="37.390625" y2="318.98119436118776" style="visibility: inherit;" fill="rgb(0, 0, 0)" stroke="rgb(204, 204, 204)" stroke-width="1px"></line><line x1="42.390625" y1="274.8011060143952" x2="37.390625" y2="274.8011060143952" style="visibility: inherit;" fill="rgb(0, 0, 0)" stroke="rgb(204, 204, 204)" stroke-width="1px"></line><line x1="42.390625" y1="230.62101766760264" x2="37.390625" y2="230.62101766760264" style="visibility: inherit;" fill="rgb(0, 0, 0)" stroke="rgb(204, 204, 204)" stroke-width="1px"></line><line x1="42.390625" y1="186.44092932081008" x2="37.390625" y2="186.44092932081008" style="visibility: inherit;" fill="rgb(0, 0, 0)" stroke="rgb(204, 204, 204)" stroke-width="1px"></line><line x1="42.390625" y1="142.26084097401753" x2="37.390625" y2="142.26084097401753" style="visibility: inherit;" fill="rgb(0, 0, 0)" stroke="rgb(204, 204, 204)" stroke-width="1px"></line><line x1="42.390625" y1="98.08075262722497" x2="37.390625" y2="98.08075262722497" style="visibility: inherit;" fill="rgb(0, 0, 0)" stroke="rgb(204, 204, 204)" stroke-width="1px"></line><line x1="42.390625" y1="53.90066428043241" x2="37.390625" y2="53.90066428043241" style="visibility: inherit;" fill="rgb(0, 0, 0)" stroke="rgb(204, 204, 204)" stroke-width="1px"></line><line x1="42.390625" y1="9.720575933639847" x2="37.390625" y2="9.720575933639847" style="visibility: inherit;" fill="rgb(0, 0, 0)" stroke="rgb(204, 204, 204)" stroke-width="1px"></line></g><g transform="translate(32.390625, 0)"><text x="0" y="363.1612827079803" dx="0em" dy="0.3em" style="text-anchor: end; visibility: inherit; font-family: Roboto, sans-serif; font-size: 12px; font-weight: 200;" fill="rgb(33, 33, 33)" stroke="none" stroke-width="1px">0</text><text x="0" y="318.98119436118776" dx="0em" dy="0.3em" style="text-anchor: end; visibility: inherit; font-family: Roboto, sans-serif; font-size: 12px; font-weight: 200;" fill="rgb(33, 33, 33)" stroke="none" stroke-width="1px">50</text><text x="0" y="274.8011060143952" dx="0em" dy="0.3em" style="text-anchor: end; visibility: inherit; font-family: Roboto, sans-serif; font-size: 12px; font-weight: 200;" fill="rgb(33, 33, 33)" stroke="none" stroke-width="1px">100</text><text x="0" y="230.62101766760264" dx="0em" dy="0.3em" style="text-anchor: end; visibility: inherit; font-family: Roboto, sans-serif; font-size: 12px; font-weight: 200;" fill="rgb(33, 33, 33)" stroke="none" stroke-width="1px">150</text><text x="0" y="186.44092932081008" dx="0em" dy="0.3em" style="text-anchor: end; visibility: inherit; font-family: Roboto, sans-serif; font-size: 12px; font-weight: 200;" fill="rgb(33, 33, 33)" stroke="none" stroke-width="1px">200</text><text x="0" y="142.26084097401753" dx="0em" dy="0.3em" style="text-anchor: end; visibility: inherit; font-family: Roboto, sans-serif; font-size: 12px; font-weight: 200;" fill="rgb(33, 33, 33)" stroke="none" stroke-width="1px">250</text><text x="0" y="98.08075262722497" dx="0em" dy="0.3em" style="text-anchor: end; visibility: inherit; font-family: Roboto, sans-serif; font-size: 12px; font-weight: 200;" fill="rgb(33, 33, 33)" stroke="none" stroke-width="1px">300</text><text x="0" y="53.90066428043241" dx="0em" dy="0.3em" style="text-anchor: end; visibility: inherit; font-family: Roboto, sans-serif; font-size: 12px; font-weight: 200;" fill="rgb(33, 33, 33)" stroke="none" stroke-width="1px">350</text><text x="0" y="9.720575933639847" dx="0em" dy="0.3em" style="text-anchor: end; visibility: inherit; font-family: Roboto, sans-serif; font-size: 12px; font-weight: 200;" fill="rgb(33, 33, 33)" stroke="none" stroke-width="1px">400</text></g><line x1="42.390625" y1="0" x2="42.390625" y2="376" fill="rgb(0, 0, 0)" stroke="rgb(204, 204, 204)" stroke-width="1px"></line></g></g><g transform="translate(42, 0)" clip-path="url(#clip_0)"><clipPath id="clip_0"><rect width="934" height="376"></rect></clipPath><g><g><g><line x1="14.444938426033712" y1="0" x2="14.444938426033712" y2="376" fill="rgb(0, 0, 0)" stroke="rgb(66, 66, 66)" stroke-width="1px" opacity="0.25"></line><line x1="82.67024480391979" y1="0" x2="82.67024480391979" y2="376" fill="rgb(0, 0, 0)" stroke="rgb(66, 66, 66)" stroke-width="1px" opacity="0.25"></line><line x1="150.89555118180587" y1="0" x2="150.89555118180587" y2="376" fill="rgb(0, 0, 0)" stroke="rgb(66, 66, 66)" stroke-width="1px" opacity="0.25"></line><line x1="219.12085755969193" y1="0" x2="219.12085755969193" y2="376" fill="rgb(0, 0, 0)" stroke="rgb(66, 66, 66)" stroke-width="1px" opacity="0.25"></line><line x1="287.346163937578" y1="0" x2="287.346163937578" y2="376" fill="rgb(0, 0, 0)" stroke="rgb(66, 66, 66)" stroke-width="1px" opacity="0.25"></line><line x1="355.5714703154641" y1="0" x2="355.5714703154641" y2="376" fill="rgb(0, 0, 0)" stroke="rgb(66, 66, 66)" stroke-width="1px" opacity="0.25"></line><line x1="423.7967766933502" y1="0" x2="423.7967766933502" y2="376" fill="rgb(0, 0, 0)" stroke="rgb(66, 66, 66)" stroke-width="1px" opacity="0.25"></line><line x1="492.02208307123624" y1="0" x2="492.02208307123624" y2="376" fill="rgb(0, 0, 0)" stroke="rgb(66, 66, 66)" stroke-width="1px" opacity="0.25"></line><line x1="560.2473894491224" y1="0" x2="560.2473894491224" y2="376" fill="rgb(0, 0, 0)" stroke="rgb(66, 66, 66)" stroke-width="1px" opacity="0.25"></line><line x1="628.4726958270084" y1="0" x2="628.4726958270084" y2="376" fill="rgb(0, 0, 0)" stroke="rgb(66, 66, 66)" stroke-width="1px" opacity="0.25"></line><line x1="696.6980022048945" y1="0" x2="696.6980022048945" y2="376" fill="rgb(0, 0, 0)" stroke="rgb(66, 66, 66)" stroke-width="1px" opacity="0.25"></line><line x1="764.9233085827807" y1="0" x2="764.9233085827807" y2="376" fill="rgb(0, 0, 0)" stroke="rgb(66, 66, 66)" stroke-width="1px" opacity="0.25"></line><line x1="833.1486149606667" y1="0" x2="833.1486149606667" y2="376" fill="rgb(0, 0, 0)" stroke="rgb(66, 66, 66)" stroke-width="1px" opacity="0.25"></line><line x1="901.3739213385528" y1="0" x2="901.3739213385528" y2="376" fill="rgb(0, 0, 0)" stroke="rgb(66, 66, 66)" stroke-width="1px" opacity="0.25"></line></g><g><line x1="0" y1="363.1612827079803" x2="934.609375" y2="363.1612827079803" fill="rgb(0, 0, 0)" stroke="rgb(66, 66, 66)" stroke-width="1px" opacity="0.25"></line><line x1="0" y1="318.98119436118776" x2="934.609375" y2="318.98119436118776" fill="rgb(0, 0, 0)" stroke="rgb(66, 66, 66)" stroke-width="1px" opacity="0.25"></line><line x1="0" y1="274.8011060143952" x2="934.609375" y2="274.8011060143952" fill="rgb(0, 0, 0)" stroke="rgb(66, 66, 66)" stroke-width="1px" opacity="0.25"></line><line x1="0" y1="230.62101766760264" x2="934.609375" y2="230.62101766760264" fill="rgb(0, 0, 0)" stroke="rgb(66, 66, 66)" stroke-width="1px" opacity="0.25"></line><line x1="0" y1="186.44092932081008" x2="934.609375" y2="186.44092932081008" fill="rgb(0, 0, 0)" stroke="rgb(66, 66, 66)" stroke-width="1px" opacity="0.25"></line><line x1="0" y1="142.26084097401753" x2="934.609375" y2="142.26084097401753" fill="rgb(0, 0, 0)" stroke="rgb(66, 66, 66)" stroke-width="1px" opacity="0.25"></line><line x1="0" y1="98.08075262722497" x2="934.609375" y2="98.08075262722497" fill="rgb(0, 0, 0)" stroke="rgb(66, 66, 66)" stroke-width="1px" opacity="0.25"></line><line x1="0" y1="53.90066428043241" x2="934.609375" y2="53.90066428043241" fill="rgb(0, 0, 0)" stroke="rgb(66, 66, 66)" stroke-width="1px" opacity="0.25"></line><line x1="0" y1="9.720575933639847" x2="934.609375" y2="9.720575933639847" fill="rgb(0, 0, 0)" stroke="rgb(66, 66, 66)" stroke-width="1px" opacity="0.25"></line></g></g></g><g><g><line x1="0" y1="363.1612827079803" x2="934.609375" y2="363.1612827079803" fill="rgb(0, 0, 0)" stroke="rgb(153, 153, 153)" stroke-width="1.5px"></line></g></g><g><g><line x1="14.444938426033712" y1="0" x2="14.444938426033712" y2="376" fill="rgb(0, 0, 0)" stroke="rgb(153, 153, 153)" stroke-width="1.5px"></line></g></g><g><g><g><g><g><path stroke="rgb(255, 112, 67)" stroke-width="2px" d="M17.856203744928017,91.15596061811767L21.267469063822322,181.34611173162136L24.678734382716623,154.10364162151473L28.089999701610928,139.97623565306506L31.50126502050523,162.44102331197197L34.91253033939953,151.2752661244756L38.32379565829384,142.6023768668571L41.73506097718815,136.88177830921455L45.14632629608245,134.05521104964546L48.55759161497675,129.42011427074982L51.96885693387106,127.73530177830668L55.38012225276536,128.34546096237534L58.791387571659655,125.99335373629809L62.20265289055396,126.3789820838505L65.61391820944826,124.96122900591476L69.02518352834257,122.99581324428046L72.43644884723687,121.80851324440356L75.84771416613117,120.5866940492206L79.25897948502548,120.79660575507818L82.67024480391979,122.98923783291417L86.08151012281408,121.2956383852807L89.49277544170839,120.36631615852485L92.9040407606027,118.87870510688272L96.31530607949699,117.44523831697371L99.7265713983913,116.46426640123694L103.13783671728561,115.78786840996509L106.5491020361799,116.4623514774766L109.96036735507421,115.34814241105582L113.37163267396852,114.82380616961105L116.78289799286281,114.26229122635802L120.19416331175714,113.30046338313481L123.60542863065145,112.59914893263237L127.01669394954574,112.01023580337363L130.42795926844005,111.32933856732296L133.83922458733434,111.0973716785847L137.25048990622867,111.03667028216555L140.66175522512296,110.50763722080634L144.07302054401725,110.244515446059L147.48428586291158,110.64011003821402L150.89555118180587,110.16792627976781L154.30681650070017,109.9123371940442L157.7180818195945,113.80581497693017L161.12934713848878,113.95384282034861L164.54061245738308,114.9971030257368L167.9518777762774,114.77703022168751L171.3631430951717,116.03743523485976L174.774408414066,115.7422767597647L178.18567373296028,117.09133372613086L181.5969390518546,116.51818492802596L185.0082043707489,115.99235925293806L188.4194696896432,115.69616875524795L191.83073500853752,116.64795902736483L195.2420003274318,117.77779108131524L198.6532656463261,117.15054503563015L202.06453096522043,118.57834698660838L205.47579628411472,118.04946143792058L208.88706160300902,118.15412035892201L212.29832692190334,117.57842604347981L215.70959224079763,118.69727247620575L219.12085755969193,118.53363049656245L222.53212287858625,118.46218503581053L225.94338819748054,118.53181525904803L229.35465351637484,118.67602806745958L232.76591883526916,118.62250158799542L236.17718415416343,118.2613629471488L239.58844947305772,117.95147964549216L242.99971479195204,117.4688996744558L246.41098011084634,118.5903250341544L249.82224542974063,119.67294088401889L253.23351074863496,119.76175228922904L256.6447760675293,120.07574225113704L260.05604138642354,119.63966094329476L263.46730670531787,120.40146056280176L266.8785720242122,120.28125710975239L270.28983734310646,120.55925216605566L273.7011026620008,120.70494056630086L277.1123679808951,120.40148975822468L280.52363329978937,119.95756750257614L283.9348986186837,120.4046007015379L287.346163937578,119.92205114324636L290.75742925647234,120.11647631619174L294.16869457536666,120.23069291432131L297.5799598942609,119.90732439366556L300.99122521315525,120.08522536323298L304.40249053204957,120.39586756960557L307.81375585094383,120.05143363625682L311.22502116983816,120.15352877671782L314.6362864887325,120.20029405844562L318.04755180762675,120.76763196964059L321.45881712652107,120.56779825607902L324.8700824454154,120.77279562661259L328.28134776430966,121.24002106615812L331.692613083204,120.88583938228871L335.1038784020983,120.65014111157468L338.51514372099257,120.58475575105406L341.9264090398869,120.36057891560726L345.3376743587812,120.9902357825429L348.7489396776755,120.7870697668362L352.1602049965698,121.32009099880486L355.5714703154641,121.94209075586649L358.9827356343584,121.70832441012008L362.3940009532527,121.69013572535503L365.80526627214704,121.87690511758824L369.2165315910413,122.29165241071797L372.6277969099356,122.3682942124331L376.03906222882995,122.17098730527506L379.4503275477242,121.85016128027064L382.86159286661854,122.18451909532538L386.27285818551286,122.35876195537583L389.6841235044071,122.52157547646375L393.09538882330145,122.2655219099777L396.50665414219577,122.85114538820037L399.91791946109004,122.6130236108854L403.32918477998436,123.04105801118841L406.7404500988787,123.20762082969307L410.15171541777295,123.49654753754088L413.56298073666727,123.18436365263209L416.9742460555616,123.26514452073542L420.38551137445586,123.09114043388952L423.7967766933502,123.1814819521811L427.2080420122445,123.5044191362777L430.61930733113877,123.57236809645042L434.0305726500331,123.2095459773678L437.4418379689274,123.37964700501874L440.8531032878217,123.64187099753448L444.264368606716,123.36686006030541L447.6756339256103,123.22865682379413L451.0868992445046,123.43971869585232L454.4981645633989,123.81795157995197L457.90942988229324,123.83661744518733L461.3206952011875,123.69321008147219L464.7319605200818,123.42181331990554L468.14322583897615,123.45766787127872L471.5544911578704,123.24526962737619L474.96575647676474,123.053548917517L478.37702179565906,123.19354873748895L481.7882871145533,123.10374698964156L485.19955243344765,123.39204269017254L488.610817752342,123.28526393924963L492.02208307123624,123.81645035942044L495.43334839013056,123.52968254203277L498.8446137090249,123.59951282165399L502.25587902791915,123.32898389129805L505.6671443468135,123.40424117903656L509.0784096657078,123.6058881376416L512.4896749846021,123.50143607366128L515.9009403034963,123.79242168477721L519.3122056223907,123.75923208953662L522.723470941285,123.97740239405078L526.1347362601792,124.05922091978879L529.5460015790736,124.29393482953577L532.9572668979679,124.27243759930919L536.3685322168621,124.55066143115823L539.7797975357565,124.5805688734037L543.1910628546508,124.33435786366924L546.6023281735451,124.11420256543437L550.0135934924394,124.5434851582224L553.4248588113337,124.81806523773503L556.836124130228,125.28763376899077L560.2473894491224,125.23432244286236L563.6586547680166,125.56395825616701L567.0699200869109,125.83251155718281L570.4811854058053,126.20728054136055L573.8924507246995,126.26441704285855L577.3037160435938,126.47056669398081L580.7149813624882,127.04946761563308L584.1262466813824,127.14858391986357L587.5375120002767,126.94245983407721L590.9487773191711,126.81218401737996L594.3600426380654,126.60658464939044L597.7713079569596,126.60887400095953L601.182573275854,126.3916128951654L604.5938385947483,126.35779276639516L608.0051039136425,126.45623651375023L611.4163692325369,126.25703700100411L614.8276345514312,126.22292562166778L618.2388998703254,126.32812637715145L621.6501651892198,126.42026910091722L625.0614305081141,126.93777658714596L628.4726958270084,127.81398262523723L631.8839611459027,127.80718099881013L635.295226464797,127.70308938061868L638.7064917836913,128.17896732789615L642.1177571025856,128.06002739695526L645.5290224214799,127.91305121717906L648.9402877403742,127.79892352054881L652.3515530592686,127.61019855982354L655.7628183781628,127.84607855683886L659.1740836970571,127.67013773778764L662.5853490159515,127.50724744991963L665.9966143348457,127.39191252233834L669.40787965374,127.18409490968159L672.8191449726344,127.18438588001487L676.2304102915286,126.98362446782835L679.6416756104229,127.13793436086337L683.0529409293173,127.27718748431047L686.4642062482116,128.10917389263733L689.8754715671058,128.04586487164312L693.2867368860002,127.87134154623706L696.6980022048945,127.70850386338205L700.1092675237887,127.75721839094832L703.5205328426832,127.76336643426606L706.9317981615775,127.98601231340268L710.3430634804718,127.88068260741957L713.7543287993661,128.66704160889617L717.1655941182604,128.8818118173829L720.5768594371547,128.68582606829656L723.988124756049,128.87030070090245L727.3993900749433,128.9097418658441L730.8106553938376,129.04518107173038L734.221920712732,128.91938838930565L737.6331860316262,128.9990422225902L741.0444513505205,128.9796869705752L744.4557166694149,129.0056199775017L747.8669819883091,129.30115024630342L751.2782473072034,129.2337220895061L754.6895126260978,129.6077238160734L758.100777944992,129.97989517338647L761.5120432638863,130.1110154699254L764.9233085827807,130.58122731321112L768.334573901675,131.15880856259147L771.7458392205692,131.10001611921192L775.1571045394636,130.96312008471958L778.5683698583579,131.0539515791602L781.9796351772521,130.88776448132833L785.3909004961465,130.88539039531693L788.8021658150408,130.73577308568295L792.213431133935,131.01760285620338L795.6246964528294,131.08341611636362L799.0359617717237,131.29639600243868L802.447227090618,131.18114063996777L805.8584924095123,131.00887965313504L809.2697577284066,131.00973466277662L812.6810230473009,130.85601081184427L816.0922883661952,131.01790251412908L819.5035536850895,131.43272512122988L822.9148190039838,131.40497637913583L826.3260843228782,131.23904887766622L829.7373496417724,131.18416922562866L833.1486149606667,131.2178582067543L836.5598802795611,131.14504182389416L839.9711455984553,131.32280724031256L843.3824109173496,131.27489378922922L846.793676236244,131.2262123900789L850.2049415551382,131.1075077232528L853.6162068740325,131.8286830392654L857.0274721929269,131.87257506310957L860.4387375118212,131.8057379584778L863.8500028307154,132.00203206446514L867.2612681496098,132.2692416817756L870.6725334685041,132.89850211870777L874.0837987873983,133.08330305382322" style="fill: none;" fill="none"></path></g></g></g></g><g opacity="0.2"><g><g><g><path stroke="rgb(255, 112, 67)" stroke-width="2px" d="M17.856203744928017,91.15596061811767L21.267469063822322,271.44607269401683L24.678734382716623,99.70040156915717L28.089999701610928,97.67872568803898L31.50126502050523,252.07575060657967L34.91253033939953,95.61374339707885L38.32379565829384,90.74686874781176L41.73506097718815,96.99744521191488L45.14632629608245,111.54419231858033L48.55759161497675,87.91226737634278L51.96885693387106,110.97956410209262L55.38012225276536,135.01707541446208L58.791387571659655,97.95086036308525L62.20265289055396,131.35719840587544L65.61391820944826,105.26090684131523L69.02518352834257,93.74932964684353L72.43644884723687,102.9723815007977L75.84771416613117,100.00171279180552L79.25897948502548,124.53932415207517L82.67024480391979,164.2351362282069L86.08151012281408,87.77706293117015L89.49277544170839,101.06379844836994L92.9040407606027,86.52500613056083L96.31530607949699,84.86825281755611L99.7265713983913,93.21298812022138L103.13783671728561,99.09599940838751L106.5491020361799,133.76412875611635L109.96036735507421,85.68204120025744L113.37163267396852,100.35336839002971L116.78289799286281,98.22035243030805L120.19416331175714,84.88858471856533L123.60542863065145,91.20279949351949L127.01669394954574,93.47277264850081L130.42795926844005,89.23767002674654L133.83922458733434,103.34701160785458L137.25048990622867,108.94993343211803L140.66175522512296,91.81070715446316L144.07302054401725,100.69178398375058L147.48428586291158,125.38315197472907L150.89555118180587,92.11644070040796L154.30681650070017,99.89565792884903L157.7180818195945,270.13038432390294L161.12934713848878,120.03915178639453L164.54061245738308,158.88404414336645L167.9518777762774,105.3086086090676L171.3631430951717,171.4700706238624L174.774408414066,102.47931941863149L178.18567373296028,178.99834797061692L181.5969390518546,89.6706262636216L185.0082043707489,90.86085143423871L188.4194696896432,101.25819191571127L191.83073500853752,163.9479683504913L195.2420003274318,174.9982891355294L198.6532656463261,84.7887318943782L202.06453096522043,193.59634279328768L205.47579628411472,89.76077154886534L208.88706160300902,123.85100571021714L212.29832692190334,85.6979507779702L215.70959224079763,181.71188824184608L219.12085755969193,109.16287908499558L222.53212287858625,114.30366812478194L225.94338819748054,122.65018314292013L229.35465351637484,127.34121651038218L232.76591883526916,115.35604624240295L236.17718415416343,95.88412532203813L239.58844947305772,98.45980505757827L242.99971479195204,86.66285318355692L246.41098011084634,191.2265168141193L249.82224542974063,190.80680058174755L253.23351074863496,125.68004087408102L256.6447760675293,141.2924195855638L260.05604138642354,89.76694662224878L263.46730670531787,173.2955868048593L266.8785720242122,111.82341889013249L270.28983734310646,140.37788852093888L273.7011026620008,131.22641628399924L277.1123679808951,98.20533271033173L280.52363329978937,87.07550448480876L283.9348986186837,153.93057015710858L287.346163937578,83.28659810443288L290.75742925647234,135.0568223933581L294.16869457536666,129.1128423675503L297.5799598942609,94.46240231300719L300.99122521315525,134.2474563339532L304.40249053204957,145.41088343037472L307.81375585094383,91.99892554842108L311.22502116983816,128.56237097868836L314.6362864887325,124.09488066078377L318.04755180762675,168.53474005316275L321.45881712652107,103.55995726073213L324.8700824454154,138.407460355826L328.28134776430966,161.85912169296208L331.692613083204,89.77136894554519L335.1038784020983,99.7295511513733L338.51514372099257,114.72163160706663L341.9264090398869,100.05472674059078L345.3376743587812,178.5963075487379L348.7489396776755,102.01543388406736L352.1602049965698,171.05212062427066L355.5714703154641,180.53935236441473L358.9827356343584,99.47418894639031L362.3940009532527,119.94372128550384L365.80526627214704,139.97850418957637L369.2165315910413,162.86289470240123L372.6277969099356,129.934585539108L376.03906222882995,102.51467103961697L379.4503275477242,89.59994998703655L382.86159286661854,156.0953917895628L386.27285818551286,140.18702751915754L389.6841235044071,139.32640026105437L393.09538882330145,95.60754135830946L396.50665414219577,184.3450312148539L399.91791946109004,97.39596665092687L403.32918477998436,168.75210802933677L406.7404500988787,141.1439616531949L410.15171541777295,154.8671858728297L413.56298073666727,89.01056754624317L416.9742460555616,132.1798314351696L420.38551137445586,103.7340457924502L423.7967766933502,133.31173047596852L427.2080420122445,160.0026762142761L430.61930733113877,131.31213924594655L434.0305726500331,81.5609212649301L437.4418379689274,143.05607717118258L440.8531032878217,154.20625078040777L444.264368606716,91.06937476381987L447.6756339256103,106.87613345995102L451.0868992445046,148.59892011554086L454.4981645633989,169.2372018399536L457.90942988229324,126.09447189080579L461.3206952011875,106.22049706586904L464.7319605200818,90.11684947038594L468.14322583897615,127.88904529142064L471.5544911578704,96.80836392560646L474.96575647676474,99.02268052397899L478.37702179565906,140.8638721892922L481.7882871145533,111.6908840181693L485.19955243344765,160.28277916087174L488.610817752342,109.52869151084555L492.02208307123624,192.71274102635184L495.43334839013056,86.08584785491638L498.8446137090249,132.7780315571699L502.25587902791915,87.53585755381292L505.6671443468135,133.42660302013198L509.0784096657078,150.63473934159188L512.4896749846021,109.41028650112219L515.9009403034963,163.29939688752927L519.3122056223907,119.22444658057076L522.723470941285,153.97475294199393L526.1347362601792,135.37935537475212L529.5460015790736,156.97016239259878L532.9572668979679,121.26116914705123L536.3685322168621,163.7624060470499L539.7797975357565,128.8212656492313L543.1910628546508,89.21205291009038L546.6023281735451,92.52024735506689L550.0135934924394,186.51604140338455L553.4248588113337,164.6919568316511L556.836124130228,193.8782119726633L560.2473894491224,117.40158649009031L563.6586547680166,174.27638530546582L567.0699200869109,165.74697755709562L570.4811854058053,182.2270349751085L573.8924507246995,134.85361124480983L577.3037160435938,157.63550632562414L580.7149813624882,215.05636768925814L584.1262466813824,142.30060143560647L587.5375120002767,95.25763851017228L590.9487773191711,106.67642781157679L594.3600426380654,94.65501606487558L597.7713079569596,126.9665864033253L601.182573275854,92.26135268452396L604.5938385947483,121.01640433874812L608.0051039136425,142.08676592499242L611.4163692325369,94.46151245527075L614.8276345514312,120.74955487934879L618.2388998703254,143.2964196561893L621.6501651892198,141.3595633965889L625.0614305081141,211.27544306312458L628.4726958270084,271.3409211714898L631.8839611459027,126.68735983177314L635.295226464797,110.478574196456L638.7064917836913,207.32131976300946L642.1177571025856,108.18031435160908L645.5290224214799,103.22507413257124L648.9402877403742,108.53374966530626L652.3515530592686,95.59605410389311L655.7628183781628,168.0549449408859L659.1740836970571,97.53292384618646L662.5853490159515,99.47065648083036L665.9966143348457,107.44515703434924L669.40787965374,91.07112751390684L672.8191449726344,127.2351886128116L676.2304102915286,91.76564799453426L679.6416756104229,154.3343768117675L683.0529409293173,151.93451139264653L686.4642062482116,276.11148894482267L689.8754715671058,116.73182023376852L693.2867368860002,96.53887185838367L696.6980022048945,98.34053715550435L700.1092675237887,136.58282054987257L703.5205328426832,128.88223438687294L706.9317981615775,168.68671696839868L710.3430634804718,108.53995170407566L713.7543287993661,273.7001362712853L717.1655941182604,168.66816478286245L720.5768594371547,92.21982599015503L723.988124756049,163.34445604745815L727.3993900749433,136.31243862491328L730.8106553938376,154.57559567181772L734.221920712732,105.10539746051936L737.6331860316262,144.14291705205264L741.0444513505205,125.28418900827843L744.4557166694149,133.9779642667304L747.8669819883091,186.20411930136333L751.2782473072034,116.19636856488285L754.6895126260978,202.2229337926356L758.100777944992,202.53926473526025L761.5120432638863,155.77995070467463L764.9233085827807,223.01054982446075L768.334573901675,245.1571538948953L771.7458392205692,119.44890645325066L775.1571045394636,103.72431128812089L778.5683698583579,149.1997628453646L781.9796351772521,97.5550084972827L785.3909004961465,130.407315720265L788.8021658150408,100.48768297746588L792.213431133935,188.2196201090981L795.6246964528294,144.49369627523333L799.0359617717237,174.86309817304974L802.447227090618,107.51319070311077L805.8584924095123,95.49798099517896L809.2697577284066,131.18666930510324L812.6810230473009,98.9228276997919L816.0922883661952,164.77590007812546L819.5035536850895,218.2603139521371L822.9148190039838,125.57490283424693L826.3260843228782,96.24640528232814L829.7373496417724,119.56728449758808L833.1486149606667,138.37564120040042L836.5598802795611,115.61672062841882L839.9711455984553,169.37151642738974L843.3824109173496,120.98194257549908L846.793676236244,120.73011283607603L850.2049415551382,105.42083854540753L853.6162068740325,288.4492181514555L857.0274721929269,141.43909780245983L860.4387375118212,117.18599822938927L863.8500028307154,175.0919534036401L867.2612681496098,191.13461877878854L870.6725334685041,272.01246040193803L874.0837987873983,174.0819918381245" style="fill: none;" fill="none"></path></g></g></g></g></g></g><g transform="translate(42, 376)" clip-path="url(#clip_1)"><clipPath id="clip_1"><rect width="934" height="24"></rect></clipPath><g><g><line x1="14.444938426033712" y1="0" x2="14.444938426033712" y2="5" style="visibility: inherit;" fill="rgb(0, 0, 0)" stroke="rgb(204, 204, 204)" stroke-width="1px"></line><line x1="82.67024480391979" y1="0" x2="82.67024480391979" y2="5" style="visibility: inherit;" fill="rgb(0, 0, 0)" stroke="rgb(204, 204, 204)" stroke-width="1px"></line><line x1="150.89555118180587" y1="0" x2="150.89555118180587" y2="5" style="visibility: inherit;" fill="rgb(0, 0, 0)" stroke="rgb(204, 204, 204)" stroke-width="1px"></line><line x1="219.12085755969193" y1="0" x2="219.12085755969193" y2="5" style="visibility: inherit;" fill="rgb(0, 0, 0)" stroke="rgb(204, 204, 204)" stroke-width="1px"></line><line x1="287.346163937578" y1="0" x2="287.346163937578" y2="5" style="visibility: inherit;" fill="rgb(0, 0, 0)" stroke="rgb(204, 204, 204)" stroke-width="1px"></line><line x1="355.5714703154641" y1="0" x2="355.5714703154641" y2="5" style="visibility: inherit;" fill="rgb(0, 0, 0)" stroke="rgb(204, 204, 204)" stroke-width="1px"></line><line x1="423.7967766933502" y1="0" x2="423.7967766933502" y2="5" style="visibility: inherit;" fill="rgb(0, 0, 0)" stroke="rgb(204, 204, 204)" stroke-width="1px"></line><line x1="492.02208307123624" y1="0" x2="492.02208307123624" y2="5" style="visibility: inherit;" fill="rgb(0, 0, 0)" stroke="rgb(204, 204, 204)" stroke-width="1px"></line><line x1="560.2473894491224" y1="0" x2="560.2473894491224" y2="5" style="visibility: inherit;" fill="rgb(0, 0, 0)" stroke="rgb(204, 204, 204)" stroke-width="1px"></line><line x1="628.4726958270084" y1="0" x2="628.4726958270084" y2="5" style="visibility: inherit;" fill="rgb(0, 0, 0)" stroke="rgb(204, 204, 204)" stroke-width="1px"></line><line x1="696.6980022048945" y1="0" x2="696.6980022048945" y2="5" style="visibility: inherit;" fill="rgb(0, 0, 0)" stroke="rgb(204, 204, 204)" stroke-width="1px"></line><line x1="764.9233085827807" y1="0" x2="764.9233085827807" y2="5" style="visibility: inherit;" fill="rgb(0, 0, 0)" stroke="rgb(204, 204, 204)" stroke-width="1px"></line><line x1="833.1486149606667" y1="0" x2="833.1486149606667" y2="5" style="visibility: inherit;" fill="rgb(0, 0, 0)" stroke="rgb(204, 204, 204)" stroke-width="1px"></line><line x1="901.3739213385528" y1="0" x2="901.3739213385528" y2="5" style="visibility: inherit;" fill="rgb(0, 0, 0)" stroke="rgb(204, 204, 204)" stroke-width="1px"></line></g><g transform="translate(0, 8)"><text x="14.444938426033712" y="0" dx="0em" dy="0.95em" style="text-anchor: middle; visibility: inherit; font-family: Roboto, sans-serif; font-size: 12px; font-weight: 200;" fill="rgb(33, 33, 33)" stroke="none" stroke-width="1px">0</text><text x="82.67024480391979" y="0" dx="0em" dy="0.95em" style="text-anchor: middle; visibility: inherit; font-family: Roboto, sans-serif; font-size: 12px; font-weight: 200;" fill="rgb(33, 33, 33)" stroke="none" stroke-width="1px">2k</text><text x="150.89555118180587" y="0" dx="0em" dy="0.95em" style="text-anchor: middle; visibility: inherit; font-family: Roboto, sans-serif; font-size: 12px; font-weight: 200;" fill="rgb(33, 33, 33)" stroke="none" stroke-width="1px">4k</text><text x="219.12085755969193" y="0" dx="0em" dy="0.95em" style="text-anchor: middle; visibility: inherit; font-family: Roboto, sans-serif; font-size: 12px; font-weight: 200;" fill="rgb(33, 33, 33)" stroke="none" stroke-width="1px">6k</text><text x="287.346163937578" y="0" dx="0em" dy="0.95em" style="text-anchor: middle; visibility: inherit; font-family: Roboto, sans-serif; font-size: 12px; font-weight: 200;" fill="rgb(33, 33, 33)" stroke="none" stroke-width="1px">8k</text><text x="355.5714703154641" y="0" dx="0em" dy="0.95em" style="text-anchor: middle; visibility: inherit; font-family: Roboto, sans-serif; font-size: 12px; font-weight: 200;" fill="rgb(33, 33, 33)" stroke="none" stroke-width="1px">10k</text><text x="423.7967766933502" y="0" dx="0em" dy="0.95em" style="text-anchor: middle; visibility: inherit; font-family: Roboto, sans-serif; font-size: 12px; font-weight: 200;" fill="rgb(33, 33, 33)" stroke="none" stroke-width="1px">12k</text><text x="492.02208307123624" y="0" dx="0em" dy="0.95em" style="text-anchor: middle; visibility: inherit; font-family: Roboto, sans-serif; font-size: 12px; font-weight: 200;" fill="rgb(33, 33, 33)" stroke="none" stroke-width="1px">14k</text><text x="560.2473894491224" y="0" dx="0em" dy="0.95em" style="text-anchor: middle; visibility: inherit; font-family: Roboto, sans-serif; font-size: 12px; font-weight: 200;" fill="rgb(33, 33, 33)" stroke="none" stroke-width="1px">16k</text><text x="628.4726958270084" y="0" dx="0em" dy="0.95em" style="text-anchor: middle; visibility: inherit; font-family: Roboto, sans-serif; font-size: 12px; font-weight: 200;" fill="rgb(33, 33, 33)" stroke="none" stroke-width="1px">18k</text><text x="696.6980022048945" y="0" dx="0em" dy="0.95em" style="text-anchor: middle; visibility: inherit; font-family: Roboto, sans-serif; font-size: 12px; font-weight: 200;" fill="rgb(33, 33, 33)" stroke="none" stroke-width="1px">20k</text><text x="764.9233085827807" y="0" dx="0em" dy="0.95em" style="text-anchor: middle; visibility: inherit; font-family: Roboto, sans-serif; font-size: 12px; font-weight: 200;" fill="rgb(33, 33, 33)" stroke="none" stroke-width="1px">22k</text><text x="833.1486149606667" y="0" dx="0em" dy="0.95em" style="text-anchor: middle; visibility: inherit; font-family: Roboto, sans-serif; font-size: 12px; font-weight: 200;" fill="rgb(33, 33, 33)" stroke="none" stroke-width="1px">24k</text><text x="901.3739213385528" y="0" dx="0em" dy="0.95em" style="text-anchor: middle; visibility: inherit; font-family: Roboto, sans-serif; font-size: 12px; font-weight: 200;" fill="rgb(33, 33, 33)" stroke="none" stroke-width="1px">26k</text></g><line x1="0" y1="0" x2="934.609375" y2="0" fill="rgb(0, 0, 0)" stroke="rgb(204, 204, 204)" stroke-width="1px"></line></g></g></g></g></svg>