<svg viewBox="0 0 1584.5999755859375 400" xmlns="http://www.w3.org/2000/svg"><g><g><g><g><g><line x1="53.1875" y1="368.34778661494283" x2="48.1875" y2="368.34778661494283" style="visibility: inherit;" fill="rgb(0, 0, 0)" stroke="rgb(204, 204, 204)" stroke-width="1px"></line><line x1="53.1875" y1="335.42576175510885" x2="48.1875" y2="335.42576175510885" style="visibility: inherit;" fill="rgb(0, 0, 0)" stroke="rgb(204, 204, 204)" stroke-width="1px"></line><line x1="53.1875" y1="302.50373689527515" x2="48.1875" y2="302.50373689527515" style="visibility: inherit;" fill="rgb(0, 0, 0)" stroke="rgb(204, 204, 204)" stroke-width="1px"></line><line x1="53.1875" y1="269.5817120354411" x2="48.1875" y2="269.5817120354411" style="visibility: inherit;" fill="rgb(0, 0, 0)" stroke="rgb(204, 204, 204)" stroke-width="1px"></line><line x1="53.1875" y1="236.65968717560713" x2="48.1875" y2="236.65968717560713" style="visibility: inherit;" fill="rgb(0, 0, 0)" stroke="rgb(204, 204, 204)" stroke-width="1px"></line><line x1="53.1875" y1="203.7376623157731" x2="48.1875" y2="203.7376623157731" style="visibility: inherit;" fill="rgb(0, 0, 0)" stroke="rgb(204, 204, 204)" stroke-width="1px"></line><line x1="53.1875" y1="170.81563745593908" x2="48.1875" y2="170.81563745593908" style="visibility: inherit;" fill="rgb(0, 0, 0)" stroke="rgb(204, 204, 204)" stroke-width="1px"></line><line x1="53.1875" y1="137.89361259610504" x2="48.1875" y2="137.89361259610504" style="visibility: inherit;" fill="rgb(0, 0, 0)" stroke="rgb(204, 204, 204)" stroke-width="1px"></line><line x1="53.1875" y1="104.971587736271" x2="48.1875" y2="104.971587736271" style="visibility: inherit;" fill="rgb(0, 0, 0)" stroke="rgb(204, 204, 204)" stroke-width="1px"></line><line x1="53.1875" y1="72.04956287643701" x2="48.1875" y2="72.04956287643701" style="visibility: inherit;" fill="rgb(0, 0, 0)" stroke="rgb(204, 204, 204)" stroke-width="1px"></line><line x1="53.1875" y1="39.12753801660296" x2="48.1875" y2="39.12753801660296" style="visibility: inherit;" fill="rgb(0, 0, 0)" stroke="rgb(204, 204, 204)" stroke-width="1px"></line><line x1="53.1875" y1="6.20551315676896" x2="48.1875" y2="6.20551315676896" style="visibility: inherit;" fill="rgb(0, 0, 0)" stroke="rgb(204, 204, 204)" stroke-width="1px"></line></g><g transform="translate(43.1875, 0)"><text x="0" y="368.34778661494283" dx="0em" dy="0.3em" style="text-anchor: end; visibility: inherit; font-family: Roboto, sans-serif; font-size: 12px; font-weight: 200;" fill="rgb(33, 33, 33)" stroke="none" stroke-width="1px">0.8</text><text x="0" y="335.42576175510885" dx="0em" dy="0.3em" style="text-anchor: end; visibility: inherit; font-family: Roboto, sans-serif; font-size: 12px; font-weight: 200;" fill="rgb(33, 33, 33)" stroke="none" stroke-width="1px">0.81</text><text x="0" y="302.50373689527515" dx="0em" dy="0.3em" style="text-anchor: end; visibility: inherit; font-family: Roboto, sans-serif; font-size: 12px; font-weight: 200;" fill="rgb(33, 33, 33)" stroke="none" stroke-width="1px">0.82</text><text x="0" y="269.5817120354411" dx="0em" dy="0.3em" style="text-anchor: end; visibility: inherit; font-family: Roboto, sans-serif; font-size: 12px; font-weight: 200;" fill="rgb(33, 33, 33)" stroke="none" stroke-width="1px">0.83</text><text x="0" y="236.65968717560713" dx="0em" dy="0.3em" style="text-anchor: end; visibility: inherit; font-family: Roboto, sans-serif; font-size: 12px; font-weight: 200;" fill="rgb(33, 33, 33)" stroke="none" stroke-width="1px">0.84</text><text x="0" y="203.7376623157731" dx="0em" dy="0.3em" style="text-anchor: end; visibility: inherit; font-family: Roboto, sans-serif; font-size: 12px; font-weight: 200;" fill="rgb(33, 33, 33)" stroke="none" stroke-width="1px">0.85</text><text x="0" y="170.81563745593908" dx="0em" dy="0.3em" style="text-anchor: end; visibility: inherit; font-family: Roboto, sans-serif; font-size: 12px; font-weight: 200;" fill="rgb(33, 33, 33)" stroke="none" stroke-width="1px">0.86</text><text x="0" y="137.89361259610504" dx="0em" dy="0.3em" style="text-anchor: end; visibility: inherit; font-family: Roboto, sans-serif; font-size: 12px; font-weight: 200;" fill="rgb(33, 33, 33)" stroke="none" stroke-width="1px">0.87</text><text x="0" y="104.971587736271" dx="0em" dy="0.3em" style="text-anchor: end; visibility: inherit; font-family: Roboto, sans-serif; font-size: 12px; font-weight: 200;" fill="rgb(33, 33, 33)" stroke="none" stroke-width="1px">0.88</text><text x="0" y="72.04956287643701" dx="0em" dy="0.3em" style="text-anchor: end; visibility: inherit; font-family: Roboto, sans-serif; font-size: 12px; font-weight: 200;" fill="rgb(33, 33, 33)" stroke="none" stroke-width="1px">0.89</text><text x="0" y="39.12753801660296" dx="0em" dy="0.3em" style="text-anchor: end; visibility: inherit; font-family: Roboto, sans-serif; font-size: 12px; font-weight: 200;" fill="rgb(33, 33, 33)" stroke="none" stroke-width="1px">0.9</text><text x="0" y="6.20551315676896" dx="0em" dy="0.3em" style="text-anchor: end; visibility: hidden; font-family: Roboto, sans-serif; font-size: 12px; font-weight: 200;" fill="rgb(33, 33, 33)" stroke="none" stroke-width="1px">0.91</text></g><line x1="53.1875" y1="0" x2="53.1875" y2="376" fill="rgb(0, 0, 0)" stroke="rgb(204, 204, 204)" stroke-width="1px"></line></g></g><g transform="translate(53, 0)" clip-path="url(#clip_0)"><clipPath id="clip_0"><rect width="1531" height="376"></rect></clipPath><g><g><g><line x1="5.834013575711788" y1="0" x2="5.834013575711788" y2="376" fill="rgb(0, 0, 0)" stroke="rgb(66, 66, 66)" stroke-width="1px" opacity="0.25"></line><line x1="116.2840879275021" y1="0" x2="116.2840879275021" y2="376" fill="rgb(0, 0, 0)" stroke="rgb(66, 66, 66)" stroke-width="1px" opacity="0.25"></line><line x1="226.73416227929243" y1="0" x2="226.73416227929243" y2="376" fill="rgb(0, 0, 0)" stroke="rgb(66, 66, 66)" stroke-width="1px" opacity="0.25"></line><line x1="337.18423663108274" y1="0" x2="337.18423663108274" y2="376" fill="rgb(0, 0, 0)" stroke="rgb(66, 66, 66)" stroke-width="1px" opacity="0.25"></line><line x1="447.6343109828731" y1="0" x2="447.6343109828731" y2="376" fill="rgb(0, 0, 0)" stroke="rgb(66, 66, 66)" stroke-width="1px" opacity="0.25"></line><line x1="558.0843853346634" y1="0" x2="558.0843853346634" y2="376" fill="rgb(0, 0, 0)" stroke="rgb(66, 66, 66)" stroke-width="1px" opacity="0.25"></line><line x1="668.5344596864536" y1="0" x2="668.5344596864536" y2="376" fill="rgb(0, 0, 0)" stroke="rgb(66, 66, 66)" stroke-width="1px" opacity="0.25"></line><line x1="778.9845340382441" y1="0" x2="778.9845340382441" y2="376" fill="rgb(0, 0, 0)" stroke="rgb(66, 66, 66)" stroke-width="1px" opacity="0.25"></line><line x1="889.4346083900343" y1="0" x2="889.4346083900343" y2="376" fill="rgb(0, 0, 0)" stroke="rgb(66, 66, 66)" stroke-width="1px" opacity="0.25"></line><line x1="999.8846827418247" y1="0" x2="999.8846827418247" y2="376" fill="rgb(0, 0, 0)" stroke="rgb(66, 66, 66)" stroke-width="1px" opacity="0.25"></line><line x1="1110.334757093615" y1="0" x2="1110.334757093615" y2="376" fill="rgb(0, 0, 0)" stroke="rgb(66, 66, 66)" stroke-width="1px" opacity="0.25"></line><line x1="1220.7848314454052" y1="0" x2="1220.7848314454052" y2="376" fill="rgb(0, 0, 0)" stroke="rgb(66, 66, 66)" stroke-width="1px" opacity="0.25"></line><line x1="1331.2349057971956" y1="0" x2="1331.2349057971956" y2="376" fill="rgb(0, 0, 0)" stroke="rgb(66, 66, 66)" stroke-width="1px" opacity="0.25"></line><line x1="1441.684980148986" y1="0" x2="1441.684980148986" y2="376" fill="rgb(0, 0, 0)" stroke="rgb(66, 66, 66)" stroke-width="1px" opacity="0.25"></line></g><g><line x1="0" y1="368.34778661494283" x2="1531.4125" y2="368.34778661494283" fill="rgb(0, 0, 0)" stroke="rgb(66, 66, 66)" stroke-width="1px" opacity="0.25"></line><line x1="0" y1="335.42576175510885" x2="1531.4125" y2="335.42576175510885" fill="rgb(0, 0, 0)" stroke="rgb(66, 66, 66)" stroke-width="1px" opacity="0.25"></line><line x1="0" y1="302.50373689527515" x2="1531.4125" y2="302.50373689527515" fill="rgb(0, 0, 0)" stroke="rgb(66, 66, 66)" stroke-width="1px" opacity="0.25"></line><line x1="0" y1="269.5817120354411" x2="1531.4125" y2="269.5817120354411" fill="rgb(0, 0, 0)" stroke="rgb(66, 66, 66)" stroke-width="1px" opacity="0.25"></line><line x1="0" y1="236.65968717560713" x2="1531.4125" y2="236.65968717560713" fill="rgb(0, 0, 0)" stroke="rgb(66, 66, 66)" stroke-width="1px" opacity="0.25"></line><line x1="0" y1="203.7376623157731" x2="1531.4125" y2="203.7376623157731" fill="rgb(0, 0, 0)" stroke="rgb(66, 66, 66)" stroke-width="1px" opacity="0.25"></line><line x1="0" y1="170.81563745593908" x2="1531.4125" y2="170.81563745593908" fill="rgb(0, 0, 0)" stroke="rgb(66, 66, 66)" stroke-width="1px" opacity="0.25"></line><line x1="0" y1="137.89361259610504" x2="1531.4125" y2="137.89361259610504" fill="rgb(0, 0, 0)" stroke="rgb(66, 66, 66)" stroke-width="1px" opacity="0.25"></line><line x1="0" y1="104.971587736271" x2="1531.4125" y2="104.971587736271" fill="rgb(0, 0, 0)" stroke="rgb(66, 66, 66)" stroke-width="1px" opacity="0.25"></line><line x1="0" y1="72.04956287643701" x2="1531.4125" y2="72.04956287643701" fill="rgb(0, 0, 0)" stroke="rgb(66, 66, 66)" stroke-width="1px" opacity="0.25"></line><line x1="0" y1="39.12753801660296" x2="1531.4125" y2="39.12753801660296" fill="rgb(0, 0, 0)" stroke="rgb(66, 66, 66)" stroke-width="1px" opacity="0.25"></line><line x1="0" y1="6.20551315676896" x2="1531.4125" y2="6.20551315676896" fill="rgb(0, 0, 0)" stroke="rgb(66, 66, 66)" stroke-width="1px" opacity="0.25"></line></g></g></g><g><g><line x1="0" y1="3002.1097754016623" x2="1531.4125" y2="3002.1097754016623" fill="rgb(0, 0, 0)" stroke="rgb(153, 153, 153)" stroke-width="1.5px"></line></g></g><g><g><line x1="5.834013575711788" y1="0" x2="5.834013575711788" y2="376" fill="rgb(0, 0, 0)" stroke="rgb(153, 153, 153)" stroke-width="1.5px"></line></g></g><g><g><g><g><g><path stroke="rgb(255, 112, 67)" stroke-width="2px" d="M11.356517293301303,283.7774781302274L16.87902101089082,340.43775156741265L22.401524728480336,313.97358647385965L27.92402844606985,289.3981279678019L33.44653216365936,273.1396489140575L38.969035881248885,281.2252347256772L44.49153959883839,271.8534335912621L50.014043316427916,268.1397121690705L55.536547034017424,258.9336161615223L61.059050751606954,265.98017901971343L66.58155446919648,273.47026224979294L72.10405818678598,270.85401880546624L77.62656190437549,265.71860054792614L83.14906562196502,257.7881933189482L88.67156933955454,253.95675644853011L94.19407305714405,248.94007579877288L99.71657677473355,245.63294893317845L105.23908049232308,243.11635230513153L110.7615842099126,238.65913806826268L116.2840879275021,233.8853741584139L121.80659164509163,231.01897149164333L127.32909536268114,229.97394348028897L132.85159908027066,225.0366717992386L138.3741027978602,220.35172866869365L143.8966065154497,215.73591999812226L149.41911023303922,212.65146265523816L154.94161395062872,208.94554350803898L160.46411766821825,205.7776834695082L165.98662138580775,202.1682073758208L171.50912510339725,200.5869409158152L177.03162882098678,196.3879368548823L182.5541325385763,193.6496090104731L188.0766362561658,197.35469081786363L193.59913997375534,195.6490601787246L199.12164369134487,194.80890643563316L204.64414740893437,192.2011818218542L210.16665112652387,190.35775959347913L215.68915484411338,187.70053382715048L221.21165856170293,186.75812063280793L226.73416227929243,184.51547855062287L232.25666599688194,184.54284858149393L237.77916971447146,182.0917208144667L243.30167343206097,180.20290636392338L248.82417714965052,177.4356501601312L254.34668086724002,176.0777892516421L259.86918458482955,174.52716531265366L265.391688302419,172.54939121589044L270.91419202000856,171.21766988191484L276.4366957375981,169.94031474947275L281.9591994551876,168.09506599061143L287.4817031727771,166.39809042734757L293.0042068903666,165.28770489645063L298.52671060795615,164.80406351585302L304.0492143255457,162.90262276785018L309.5717180431352,162.19858999165766L315.0942217607247,160.6882207144304L320.6167254783142,159.23086046544304L326.1392291959037,157.82376739824053L331.66173291349327,157.05717096645517L337.18423663108274,155.40894183228167L342.70674034867227,153.75099991902127L348.2292440662618,152.39764262756853L353.7517477838513,151.33448576791082L359.27425150144086,150.1219528032441L364.79675521903033,149.36648174775766L370.31925893661986,148.81116395756558L375.84176265420933,148.3306597838399L381.36426637179886,147.232862387186L386.8867700893884,146.67628657979643L392.4092738069779,145.68907670602945L397.9317775245674,145.55557206900227L403.4542812421569,145.42577743143877L408.9767849597465,144.8707107270811L414.4992886773359,143.74869508210463L420.0217923949255,143.3877725190778L425.544296112515,142.21132888993768L431.0667998301045,141.16729598368363L436.58930354769404,139.84829910869473L442.1118072652835,138.61238824403117L447.6343109828731,137.6037220978268L453.1568147004625,136.7654766296443L458.6793184180521,136.0914859586904L464.2018221356416,135.67063644349173L469.7243258532311,135.02562606690879L475.2468295708206,134.1642530152311L480.7693332884101,133.2313363543585L486.2918370059997,132.77277607098088L491.8143407235891,131.8766729564091L497.3368444411787,131.00071984908294L502.85934815876817,130.40731399596714L508.3818518763577,129.91372749890476L513.9043555939472,129.55967810212113L519.4268593115368,128.7883179710857L524.9493630291263,128.24369084576009L530.4718667467157,127.6272586832038L535.9943704643052,127.22980922084332L541.5168741818949,126.7180971207608L547.0393778994843,126.54023077963794L552.5618816170738,125.68535154890957L558.0843853346634,125.36309990681283L563.6068890522529,125.12579627651095L569.1293927698424,124.62074100089647L574.6518964874318,123.85560253635786L580.1744002050215,123.3344209764515L585.6969039226109,122.63387697136919L591.2194076402004,122.02160478454071L596.74191135779,121.643919099866L602.2644150753795,121.53126879012572L607.786918792969,121.01872608629546L613.3094225105584,120.80533121919352L618.8319262281481,120.16475950878487L624.3544299457376,119.32194566657228L629.876933663327,119.05914865679209L635.3994373809165,118.52076487869097L640.9219410985061,118.51281861609749L646.4444448160956,118.09154920309953L651.9669485336851,117.43824685871577L657.4894522512747,117.10116985696456L663.0119559688642,116.93794284353672L668.5344596864536,116.51046465239806L674.0569634040431,115.99072314872883L679.5794671216328,115.64379821566577L685.1019708392222,115.10688514646321L690.6244745568117,114.74043740945066L696.1469782744012,114.41197607239182L701.6694819919908,113.83372314451367L707.1919857095803,113.77084279849339L712.7144894271697,113.14358439367179L718.2369931447594,112.61960534689221L723.7594968623488,112.04178773078586L729.2820005799383,111.59574240536955L734.8045042975278,111.18698200447294L740.3270080151174,110.63286665067162L745.8495117327069,110.26757827795079L751.3720154502963,109.75829601008296L756.894519167886,109.1971610181244L762.4170228854755,108.64423031978701L767.9395266030649,108.0700495566667L773.4620303206544,107.62046027219769L778.9845340382441,107.2350759498065L784.5070377558334,106.71169272288786L790.0295414734229,106.16718624040077L795.5520451910126,106.0834498826011L801.0745489086021,105.77577032041191L806.5970526261916,105.556216229561L812.119556343781,104.86741348261721L817.6420600613706,104.32602204554784L823.1645637789601,103.84682285027881L828.6870674965496,103.48310897613985L834.2095712141391,102.88042523480281L839.7320749317286,102.28573893621785L845.2545786493181,101.83270124799299L850.7770823669076,101.27919753922265L856.2995860844973,100.9972948817973L861.8220898020868,100.61390787281219L867.3445935196761,100.28769884468088L872.8670972372657,100.01759918387222L878.3896009548553,99.85420916992211L883.9121046724448,99.4104986940652L889.4346083900343,99.25309795462132L894.9571121076237,98.99614933144449L900.4796158252133,98.8180771149361L906.0021195428028,98.51674523229892L911.5246232603923,98.31889230441688L917.047126977982,98.22268247103099L922.5696306955713,97.85623901653308L928.0921344131608,97.49419412853179L933.6146381307504,97.20967527967815L939.13714184834,96.90426156098064L944.6596455659295,96.50589550169828L950.1821492835189,96.18422652169384L955.7046530011085,95.62749500398655L961.227156718698,95.24349917486478L966.7496604362875,94.88755780985579L972.272164153877,94.46517608754623L977.7946678714665,94.02422239163482L983.317171589056,93.65805341012697L988.8396753066455,93.48115754082588L994.3621790242352,93.05296349657675L999.8846827418247,92.65244854731512L1005.407186459414,92.39312928576756L1010.9296901770036,91.97791563394034L1016.4521938945932,91.72521319337389L1021.9746976121827,91.36299503807552L1027.4972013297722,90.98236003563144L1033.0197050473616,90.60582949753473L1038.5422087649513,90.58735534045897L1044.0647124825407,90.15071542957692L1049.5872162001303,89.85018920693638L1055.1097199177198,89.40017629365738L1060.6322236353092,88.99829932262443L1066.1547273528988,88.62222347704162L1071.6772310704882,88.27155742648155L1077.1997347880779,88.05291805216056L1082.7222385056673,87.79392761107474L1088.2447422232567,87.55878955682742L1093.7672459408464,87.15720756791313L1099.289749658436,86.88574631085969L1104.8122533760254,86.47063053975675L1110.334757093615,86.05967956110138L1115.8572608112045,85.77718142613075L1121.3797645287939,85.45622485792764L1126.9022682463835,85.17952252083306L1132.424771963973,84.80329278133132L1137.9472756815626,84.41038627785424L1143.469779399152,84.08212047284243L1148.9922831167414,83.75703748276447L1154.514786834331,83.47528223056878L1160.0372905519205,83.23625072500259L1165.5597942695101,82.95965743992699L1171.0822979870995,82.66585707323915L1176.6048017046892,82.41434737399014L1182.1273054222786,81.98816807705627L1187.6498091398682,81.60516403151347L1193.1723128574577,81.22573635067054L1198.694816575047,80.92753933067326L1204.2173202926367,80.65144710643239L1209.7398240102261,80.39716407613805L1215.2623277278158,80.06846196221858L1220.7848314454052,79.80008875856237L1226.3073351629948,79.53415402468808L1231.8298388805842,79.21375769103881L1237.352342598174,78.93400620684311L1242.8748463157633,78.6567628099281L1248.397350033353,78.38199405866887L1253.9198537509424,78.14697932227963L1259.4423574685318,77.89546110858038L1264.9648611861214,77.68317916834816L1270.4873649037108,77.43588259691377L1276.0098686213005,77.19074578786322L1281.53237233889,76.92944442587364L1287.0548760564793,76.67040563612322L1292.577379774069,76.44991362986057L1298.0998834916584,76.23131466056037L1303.622387209248,75.96052616869407L1309.1448909268377,75.70999474771983L1314.667394644427,75.46158728754222L1320.1898983620165,75.21527701508468L1325.7124020796061,75.0065415447255L1331.2349057971956,74.78186728642555L1336.7574095147852,74.5766880251624L1342.2799132323746,74.35565545461593L1347.802416949964,74.15394424657683L1353.3249206675537,73.95389451140426L1358.847424385143,73.73811872241764L1364.3699281027327,73.52410594717263L1369.8924318203221,73.31183477211631L1375.4149355379118,73.11846593292655L1380.9374392555012,72.89241616732328L1386.4599429730908,72.66818410535863L1391.9824466906803,72.44574802103475L1397.5049504082697,72.22508653319719" style="fill: none;" fill="none"></path></g></g></g></g><g opacity="0.2"><g><g><g><path stroke="rgb(255, 112, 67)" stroke-width="2px" d="M11.356517293301303,283.7774781302274L16.87902101089082,397.0413647312371L22.401524728480336,261.12462231780154L27.92402844606985,215.8191069235096L33.44653216365936,208.2681549860343L38.969035881248885,321.53204158704403L44.49153959883839,215.8191069235096L50.014043316427916,242.24743870467307L55.536547034017424,185.61549540416817L61.059050751606954,329.08299352451934L66.58155446919648,347.9603733682075L72.10405818678598,242.24743870467307L77.62656190437549,204.49267901729667L83.14906562196502,155.41168765426707L88.67156933955454,200.71720304855904L94.19407305714405,174.28906749795524L99.71657677473355,193.16644734164345L105.23908049232308,200.71720304855904L110.7615842099126,159.1871636230047L116.2840879275021,144.08545597861388L121.80659164509163,174.28906749795524L127.32909536268114,208.2681549860343L132.85159908027066,117.65712419745039L138.3741027978602,113.88164822871276L143.8966065154497,106.3306962912375L149.41911023303922,136.5345040411386L154.94161395062872,113.88164822871276L160.46411766821825,121.43260016618804L165.98662138580775,102.55522032249984L171.50912510339725,155.41168765426707L177.03162882098678,72.35160880315841L182.5541325385763,110.10617225997511L188.0766362561658,313.9810896495688L193.59913997375534,140.3099800098762L199.12164369134487,166.73811556047997L204.64414740893437,102.55522032249984L210.16665112652387,125.20807613492566L215.68915484411338,91.22898864684663L221.21165856170293,151.63621168552942L226.73416227929243,98.77974435376218L232.25666599688194,185.61549540416817L237.77916971447146,83.67803670937136L243.30167343206097,102.55522032249984L248.82417714965052,61.02518089694553L254.34668086724002,117.65712419745039L259.86918458482955,106.3306962912375L265.391688302419,83.67803670937136L270.91419202000856,110.10617225997511L276.4366957375981,110.10617225997511L281.9591994551876,79.90256074063369L287.4817031727771,83.67803670937136L293.0042068903666,110.10617225997511L298.52671060795615,140.3099800098762L304.0492143255457,64.80065686568314L309.5717180431352,125.20807613492566L315.0942217607247,79.90256074063369L320.6167254783142,79.90256074063369L326.1392291959037,79.90256074063369L331.66173291349327,113.88164822871276L337.18423663108274,61.02518089694553L342.70674034867227,57.24970492820787L348.2292440662618,72.35160880315841L353.7517477838513,87.45351267810896L359.27425150144086,76.12708477189608L364.79675521903033,102.55522032249984L370.31925893661986,113.88164822871276L375.84176265420933,117.65712419745039L381.36426637179886,76.12708477189608L386.8867700893884,110.10617225997511L392.4092738069779,79.90256074063369L397.9317775245674,136.5345040411386L403.4542812421569,136.5345040411386L408.9767849597465,106.3306962912375L414.4992886773359,64.80065686568314L420.0217923949255,117.65712419745039L425.544296112515,57.24970492820787L431.0667998301045,64.80065686568314L436.58930354769404,42.14799728381704L442.1118072652835,45.92327702199498L447.6343109828731,61.02518089694553L453.1568147004625,72.35160880315841L458.6793184180521,83.67803670937136L464.2018221356416,102.55522032249984L469.7243258532311,83.67803670937136L475.2468295708206,64.80065686568314L480.7693332884101,57.24970492820787L486.2918370059997,95.00446461558428L491.8143407235891,57.24970492820787L497.3368444411787,57.24970492820787L502.85934815876817,79.90256074063369L508.3818518763577,87.45351267810896L513.9043555939472,98.77974435376218L519.4268593115368,61.02518089694553L524.9493630291263,79.90256074063369L530.4718667467157,72.35160880315841L535.9943704643052,91.22898864684663L541.5168741818949,79.90256074063369L547.0393778994843,110.10617225997511L552.5618816170738,45.92327702199498L558.0843853346634,95.00446461558428L563.6068890522529,102.55522032249984L569.1293927698424,76.12708477189608L574.6518964874318,49.698752990732594L580.1744002050215,72.35160880315841L585.6969039226109,53.47422895947025L591.2194076402004,61.02518089694553L596.74191135779,83.67803670937136L602.2644150753795,110.10617225997511L607.786918792969,68.5761328344208L613.3094225105584,98.77974435376218L618.8319262281481,53.47422895947025L624.3544299457376,30.82156937760411L629.876933663327,91.22898864684663L635.3994373809165,61.02518089694553L640.9219410985061,117.65712419745039L646.4444448160956,72.35160880315841L651.9669485336851,45.92327702199498L657.4894522512747,79.90256074063369L663.0119559688642,98.77974435376218L668.5344596864536,68.5761328344208L674.0569634040431,57.24970492820787L679.5794671216328,76.12708477189608L685.1019708392222,53.47422895947025L690.6244745568117,72.35160880315841L696.1469782744012,76.12708477189608L701.6694819919908,45.92327702199498L707.1919857095803,106.3306962912375L712.7144894271697,38.37252131507938L718.2369931447594,49.698752990732594L723.7594968623488,42.14799728381704L729.2820005799383,57.24970492820787L734.8045042975278,61.02518089694553L740.3270080151174,42.14799728381704L745.8495117327069,64.80065686568314L751.3720154502963,45.92327702199498L756.894519167886,38.37252131507938L762.4170228854755,38.37252131507938L767.9395266030649,34.597045346341766L773.4620303206544,49.698752990732594L778.9845340382441,57.24970492820787L784.5070377558334,38.37252131507938L790.0295414734229,34.597045346341766L795.5520451910126,95.00446461558428L801.0745489086021,64.80065686568314L806.5970526261916,76.12708477189608L812.119556343781,11.944189533915944L817.6420600613706,30.82156937760411L823.1645637789601,38.37252131507938L828.6870674965496,53.47422895947025L834.2095712141391,19.495141471391218L839.7320749317286,19.495141471391218L845.2545786493181,38.37252131507938L850.7770823669076,23.270617440128834L856.2995860844973,61.02518089694553L861.8220898020868,45.92327702199498L867.3445935196761,53.47422895947025L872.8670972372657,61.02518089694553L878.3896009548553,76.12708477189608L883.9121046724448,34.597045346341766L889.4346083900343,76.12708477189608L894.9571121076237,61.02518089694553L900.4796158252133,72.35160880315841L906.0021195428028,53.47422895947025L911.5246232603923,68.5761328344208L917.047126977982,83.67803670937136L922.5696306955713,42.14799728381704L928.0921344131608,42.14799728381704L933.6146381307504,53.47422895947025L939.13714184834,49.698752990732594L944.6596455659295,34.597045346341766L950.1821492835189,45.92327702199498L955.7046530011085,8.168713565178287L961.227156718698,34.597045346341766L966.7496604362875,38.37252131507938L972.272164153877,27.046093408866493L977.7946678714665,23.270617440128834L983.317171589056,34.597045346341766L988.8396753066455,64.80065686568314L994.3621790242352,23.270617440128834L999.8846827418247,27.046093408866493L1005.407186459414,49.698752990732594L1010.9296901770036,23.270617440128834L1016.4521938945932,49.698752990732594L1021.9746976121827,30.82156937760411L1027.4972013297722,27.046093408866493L1033.0197050473616,27.046093408866493L1038.5422087649513,87.45351267810896L1044.0647124825407,15.71966550265356L1049.5872162001303,38.37252131507938L1055.1097199177198,11.944189533915944L1060.6322236353092,19.495141471391218L1066.1547273528988,23.270617440128834L1071.6772310704882,27.046093408866493L1077.1997347880779,49.698752990732594L1082.7222385056673,42.14799728381704L1088.2447422232567,45.92327702199498L1093.7672459408464,15.71966550265356L1099.289749658436,38.37252131507938L1104.8122533760254,11.944189533915944L1110.334757093615,11.944189533915944L1115.8572608112045,34.597045346341766L1121.3797645287939,27.046093408866493L1126.9022682463835,34.597045346341766L1132.424771963973,15.71966550265356L1137.9472756815626,11.944189533915944L1143.469779399152,23.270617440128834L1148.9922831167414,23.270617440128834L1154.514786834331,30.82156937760411L1160.0372905519205,38.37252131507938L1165.5597942695101,30.82156937760411L1171.0822979870995,27.046093408866493L1176.6048017046892,34.597045346341766L1182.1273054222786,0.6177616277030111L1187.6498091398682,8.168713565178287L1193.1723128574577,8.168713565178287L1198.694816575047,23.270617440128834L1204.2173202926367,27.046093408866493L1209.7398240102261,30.82156937760411L1215.2623277278158,15.71966550265356L1220.7848314454052,27.046093408866493L1226.3073351629948,27.046093408866493L1231.8298388805842,15.71966550265356L1237.352342598174,23.270617440128834L1242.8748463157633,23.270617440128834L1248.397350033353,23.270617440128834L1253.9198537509424,30.82156937760411L1259.4423574685318,27.046093408866493L1264.9648611861214,34.597045346341766L1270.4873649037108,27.046093408866493L1276.0098686213005,27.046093408866493L1281.53237233889,23.270617440128834L1287.0548760564793,23.270617440128834L1292.577379774069,30.82156937760411L1298.0998834916584,30.82156937760411L1303.622387209248,19.495141471391218L1309.1448909268377,23.270617440128834L1314.667394644427,23.270617440128834L1320.1898983620165,23.270617440128834L1325.7124020796061,30.82156937760411L1331.2349057971956,27.046093408866493L1336.7574095147852,30.82156937760411L1342.2799132323746,27.046093408866493L1347.802416949964,30.82156937760411L1353.3249206675537,30.82156937760411L1358.847424385143,27.046093408866493L1364.3699281027327,27.046093408866493L1369.8924318203221,27.046093408866493L1375.4149355379118,30.82156937760411L1380.9374392555012,23.270617440128834L1386.4599429730908,23.270617440128834L1391.9824466906803,23.270617440128834L1397.5049504082697,23.270617440128834" style="fill: none;" fill="none"></path></g></g></g></g></g></g><g transform="translate(53, 376)" clip-path="url(#clip_1)"><clipPath id="clip_1"><rect width="1531" height="24"></rect></clipPath><g><g><line x1="5.834013575711788" y1="0" x2="5.834013575711788" y2="5" style="visibility: inherit;" fill="rgb(0, 0, 0)" stroke="rgb(204, 204, 204)" stroke-width="1px"></line><line x1="116.2840879275021" y1="0" x2="116.2840879275021" y2="5" style="visibility: inherit;" fill="rgb(0, 0, 0)" stroke="rgb(204, 204, 204)" stroke-width="1px"></line><line x1="226.73416227929243" y1="0" x2="226.73416227929243" y2="5" style="visibility: inherit;" fill="rgb(0, 0, 0)" stroke="rgb(204, 204, 204)" stroke-width="1px"></line><line x1="337.18423663108274" y1="0" x2="337.18423663108274" y2="5" style="visibility: inherit;" fill="rgb(0, 0, 0)" stroke="rgb(204, 204, 204)" stroke-width="1px"></line><line x1="447.6343109828731" y1="0" x2="447.6343109828731" y2="5" style="visibility: inherit;" fill="rgb(0, 0, 0)" stroke="rgb(204, 204, 204)" stroke-width="1px"></line><line x1="558.0843853346634" y1="0" x2="558.0843853346634" y2="5" style="visibility: inherit;" fill="rgb(0, 0, 0)" stroke="rgb(204, 204, 204)" stroke-width="1px"></line><line x1="668.5344596864536" y1="0" x2="668.5344596864536" y2="5" style="visibility: inherit;" fill="rgb(0, 0, 0)" stroke="rgb(204, 204, 204)" stroke-width="1px"></line><line x1="778.9845340382441" y1="0" x2="778.9845340382441" y2="5" style="visibility: inherit;" fill="rgb(0, 0, 0)" stroke="rgb(204, 204, 204)" stroke-width="1px"></line><line x1="889.4346083900343" y1="0" x2="889.4346083900343" y2="5" style="visibility: inherit;" fill="rgb(0, 0, 0)" stroke="rgb(204, 204, 204)" stroke-width="1px"></line><line x1="999.8846827418247" y1="0" x2="999.8846827418247" y2="5" style="visibility: inherit;" fill="rgb(0, 0, 0)" stroke="rgb(204, 204, 204)" stroke-width="1px"></line><line x1="1110.334757093615" y1="0" x2="1110.334757093615" y2="5" style="visibility: inherit;" fill="rgb(0, 0, 0)" stroke="rgb(204, 204, 204)" stroke-width="1px"></line><line x1="1220.7848314454052" y1="0" x2="1220.7848314454052" y2="5" style="visibility: inherit;" fill="rgb(0, 0, 0)" stroke="rgb(204, 204, 204)" stroke-width="1px"></line><line x1="1331.2349057971956" y1="0" x2="1331.2349057971956" y2="5" style="visibility: inherit;" fill="rgb(0, 0, 0)" stroke="rgb(204, 204, 204)" stroke-width="1px"></line><line x1="1441.684980148986" y1="0" x2="1441.684980148986" y2="5" style="visibility: inherit;" fill="rgb(0, 0, 0)" stroke="rgb(204, 204, 204)" stroke-width="1px"></line></g><g transform="translate(0, 8)"><text x="5.834013575711788" y="0" dx="0em" dy="0.95em" style="text-anchor: middle; visibility: inherit; font-family: Roboto, sans-serif; font-size: 12px; font-weight: 200;" fill="rgb(33, 33, 33)" stroke="none" stroke-width="1px">0</text><text x="116.2840879275021" y="0" dx="0em" dy="0.95em" style="text-anchor: middle; visibility: inherit; font-family: Roboto, sans-serif; font-size: 12px; font-weight: 200;" fill="rgb(33, 33, 33)" stroke="none" stroke-width="1px">2k</text><text x="226.73416227929243" y="0" dx="0em" dy="0.95em" style="text-anchor: middle; visibility: inherit; font-family: Roboto, sans-serif; font-size: 12px; font-weight: 200;" fill="rgb(33, 33, 33)" stroke="none" stroke-width="1px">4k</text><text x="337.18423663108274" y="0" dx="0em" dy="0.95em" style="text-anchor: middle; visibility: inherit; font-family: Roboto, sans-serif; font-size: 12px; font-weight: 200;" fill="rgb(33, 33, 33)" stroke="none" stroke-width="1px">6k</text><text x="447.6343109828731" y="0" dx="0em" dy="0.95em" style="text-anchor: middle; visibility: inherit; font-family: Roboto, sans-serif; font-size: 12px; font-weight: 200;" fill="rgb(33, 33, 33)" stroke="none" stroke-width="1px">8k</text><text x="558.0843853346634" y="0" dx="0em" dy="0.95em" style="text-anchor: middle; visibility: inherit; font-family: Roboto, sans-serif; font-size: 12px; font-weight: 200;" fill="rgb(33, 33, 33)" stroke="none" stroke-width="1px">10k</text><text x="668.5344596864536" y="0" dx="0em" dy="0.95em" style="text-anchor: middle; visibility: inherit; font-family: Roboto, sans-serif; font-size: 12px; font-weight: 200;" fill="rgb(33, 33, 33)" stroke="none" stroke-width="1px">12k</text><text x="778.9845340382441" y="0" dx="0em" dy="0.95em" style="text-anchor: middle; visibility: inherit; font-family: Roboto, sans-serif; font-size: 12px; font-weight: 200;" fill="rgb(33, 33, 33)" stroke="none" stroke-width="1px">14k</text><text x="889.4346083900343" y="0" dx="0em" dy="0.95em" style="text-anchor: middle; visibility: inherit; font-family: Roboto, sans-serif; font-size: 12px; font-weight: 200;" fill="rgb(33, 33, 33)" stroke="none" stroke-width="1px">16k</text><text x="999.8846827418247" y="0" dx="0em" dy="0.95em" style="text-anchor: middle; visibility: inherit; font-family: Roboto, sans-serif; font-size: 12px; font-weight: 200;" fill="rgb(33, 33, 33)" stroke="none" stroke-width="1px">18k</text><text x="1110.334757093615" y="0" dx="0em" dy="0.95em" style="text-anchor: middle; visibility: inherit; font-family: Roboto, sans-serif; font-size: 12px; font-weight: 200;" fill="rgb(33, 33, 33)" stroke="none" stroke-width="1px">20k</text><text x="1220.7848314454052" y="0" dx="0em" dy="0.95em" style="text-anchor: middle; visibility: inherit; font-family: Roboto, sans-serif; font-size: 12px; font-weight: 200;" fill="rgb(33, 33, 33)" stroke="none" stroke-width="1px">22k</text><text x="1331.2349057971956" y="0" dx="0em" dy="0.95em" style="text-anchor: middle; visibility: inherit; font-family: Roboto, sans-serif; font-size: 12px; font-weight: 200;" fill="rgb(33, 33, 33)" stroke="none" stroke-width="1px">24k</text><text x="1441.684980148986" y="0" dx="0em" dy="0.95em" style="text-anchor: middle; visibility: inherit; font-family: Roboto, sans-serif; font-size: 12px; font-weight: 200;" fill="rgb(33, 33, 33)" stroke="none" stroke-width="1px">26k</text></g><line x1="0" y1="0" x2="1531.4125" y2="0" fill="rgb(0, 0, 0)" stroke="rgb(204, 204, 204)" stroke-width="1px"></line></g></g></g></g></svg>