<svg viewBox="0 0 1584.5999755859375 400" xmlns="http://www.w3.org/2000/svg"><g><g><g><g><g><line x1="74.78125" y1="355.38224893373774" x2="69.78125" y2="355.38224893373774" style="visibility: inherit;" fill="rgb(0, 0, 0)" stroke="rgb(204, 204, 204)" stroke-width="1px"></line><line x1="74.78125" y1="321.7616121682092" x2="69.78125" y2="321.7616121682092" style="visibility: inherit;" fill="rgb(0, 0, 0)" stroke="rgb(204, 204, 204)" stroke-width="1px"></line><line x1="74.78125" y1="288.14097540268057" x2="69.78125" y2="288.14097540268057" style="visibility: inherit;" fill="rgb(0, 0, 0)" stroke="rgb(204, 204, 204)" stroke-width="1px"></line><line x1="74.78125" y1="254.520338637152" x2="69.78125" y2="254.520338637152" style="visibility: inherit;" fill="rgb(0, 0, 0)" stroke="rgb(204, 204, 204)" stroke-width="1px"></line><line x1="74.78125" y1="220.89970187162345" x2="69.78125" y2="220.89970187162345" style="visibility: inherit;" fill="rgb(0, 0, 0)" stroke="rgb(204, 204, 204)" stroke-width="1px"></line><line x1="74.78125" y1="187.27906510609483" x2="69.78125" y2="187.27906510609483" style="visibility: inherit;" fill="rgb(0, 0, 0)" stroke="rgb(204, 204, 204)" stroke-width="1px"></line><line x1="74.78125" y1="153.65842834056625" x2="69.78125" y2="153.65842834056625" style="visibility: inherit;" fill="rgb(0, 0, 0)" stroke="rgb(204, 204, 204)" stroke-width="1px"></line><line x1="74.78125" y1="120.03779157503773" x2="69.78125" y2="120.03779157503773" style="visibility: inherit;" fill="rgb(0, 0, 0)" stroke="rgb(204, 204, 204)" stroke-width="1px"></line><line x1="74.78125" y1="86.41715480950911" x2="69.78125" y2="86.41715480950911" style="visibility: inherit;" fill="rgb(0, 0, 0)" stroke="rgb(204, 204, 204)" stroke-width="1px"></line><line x1="74.78125" y1="52.79651804398054" x2="69.78125" y2="52.79651804398054" style="visibility: inherit;" fill="rgb(0, 0, 0)" stroke="rgb(204, 204, 204)" stroke-width="1px"></line><line x1="74.78125" y1="19.17588127845197" x2="69.78125" y2="19.17588127845197" style="visibility: inherit;" fill="rgb(0, 0, 0)" stroke="rgb(204, 204, 204)" stroke-width="1px"></line></g><g transform="translate(64.78125, 0)"><text x="0" y="355.38224893373774" dx="0em" dy="0.3em" style="text-anchor: end; visibility: inherit; font-family: Roboto, sans-serif; font-size: 12px; font-weight: 200;" fill="rgb(33, 33, 33)" stroke="none" stroke-width="1px">0</text><text x="0" y="321.7616121682092" dx="0em" dy="0.3em" style="text-anchor: end; visibility: inherit; font-family: Roboto, sans-serif; font-size: 12px; font-weight: 200;" fill="rgb(33, 33, 33)" stroke="none" stroke-width="1px">5e-6</text><text x="0" y="288.14097540268057" dx="0em" dy="0.3em" style="text-anchor: end; visibility: inherit; font-family: Roboto, sans-serif; font-size: 12px; font-weight: 200;" fill="rgb(33, 33, 33)" stroke="none" stroke-width="1px">1e-5</text><text x="0" y="254.520338637152" dx="0em" dy="0.3em" style="text-anchor: end; visibility: inherit; font-family: Roboto, sans-serif; font-size: 12px; font-weight: 200;" fill="rgb(33, 33, 33)" stroke="none" stroke-width="1px">1.5e-5</text><text x="0" y="220.89970187162345" dx="0em" dy="0.3em" style="text-anchor: end; visibility: inherit; font-family: Roboto, sans-serif; font-size: 12px; font-weight: 200;" fill="rgb(33, 33, 33)" stroke="none" stroke-width="1px">2e-5</text><text x="0" y="187.27906510609483" dx="0em" dy="0.3em" style="text-anchor: end; visibility: inherit; font-family: Roboto, sans-serif; font-size: 12px; font-weight: 200;" fill="rgb(33, 33, 33)" stroke="none" stroke-width="1px">2.5e-5</text><text x="0" y="153.65842834056625" dx="0em" dy="0.3em" style="text-anchor: end; visibility: inherit; font-family: Roboto, sans-serif; font-size: 12px; font-weight: 200;" fill="rgb(33, 33, 33)" stroke="none" stroke-width="1px">3e-5</text><text x="0" y="120.03779157503773" dx="0em" dy="0.3em" style="text-anchor: end; visibility: inherit; font-family: Roboto, sans-serif; font-size: 12px; font-weight: 200;" fill="rgb(33, 33, 33)" stroke="none" stroke-width="1px">3.5e-5</text><text x="0" y="86.41715480950911" dx="0em" dy="0.3em" style="text-anchor: end; visibility: inherit; font-family: Roboto, sans-serif; font-size: 12px; font-weight: 200;" fill="rgb(33, 33, 33)" stroke="none" stroke-width="1px">4e-5</text><text x="0" y="52.79651804398054" dx="0em" dy="0.3em" style="text-anchor: end; visibility: inherit; font-family: Roboto, sans-serif; font-size: 12px; font-weight: 200;" fill="rgb(33, 33, 33)" stroke="none" stroke-width="1px">4.5e-5</text><text x="0" y="19.17588127845197" dx="0em" dy="0.3em" style="text-anchor: end; visibility: inherit; font-family: Roboto, sans-serif; font-size: 12px; font-weight: 200;" fill="rgb(33, 33, 33)" stroke="none" stroke-width="1px">5e-5</text></g><line x1="74.78125" y1="0" x2="74.78125" y2="376" fill="rgb(0, 0, 0)" stroke="rgb(204, 204, 204)" stroke-width="1px"></line></g></g><g transform="translate(74, 0)" clip-path="url(#clip_0)"><clipPath id="clip_0"><rect width="1509" height="376"></rect></clipPath><g><g><g><line x1="26.744802429448402" y1="0" x2="26.744802429448402" y2="376" fill="rgb(0, 0, 0)" stroke="rgb(66, 66, 66)" stroke-width="1px" opacity="0.25"></line><line x1="135.8415126210742" y1="0" x2="135.8415126210742" y2="376" fill="rgb(0, 0, 0)" stroke="rgb(66, 66, 66)" stroke-width="1px" opacity="0.25"></line><line x1="244.9382228127" y1="0" x2="244.9382228127" y2="376" fill="rgb(0, 0, 0)" stroke="rgb(66, 66, 66)" stroke-width="1px" opacity="0.25"></line><line x1="354.03493300432575" y1="0" x2="354.03493300432575" y2="376" fill="rgb(0, 0, 0)" stroke="rgb(66, 66, 66)" stroke-width="1px" opacity="0.25"></line><line x1="463.13164319595154" y1="0" x2="463.13164319595154" y2="376" fill="rgb(0, 0, 0)" stroke="rgb(66, 66, 66)" stroke-width="1px" opacity="0.25"></line><line x1="572.2283533875773" y1="0" x2="572.2283533875773" y2="376" fill="rgb(0, 0, 0)" stroke="rgb(66, 66, 66)" stroke-width="1px" opacity="0.25"></line><line x1="681.3250635792031" y1="0" x2="681.3250635792031" y2="376" fill="rgb(0, 0, 0)" stroke="rgb(66, 66, 66)" stroke-width="1px" opacity="0.25"></line><line x1="790.4217737708288" y1="0" x2="790.4217737708288" y2="376" fill="rgb(0, 0, 0)" stroke="rgb(66, 66, 66)" stroke-width="1px" opacity="0.25"></line><line x1="899.5184839624546" y1="0" x2="899.5184839624546" y2="376" fill="rgb(0, 0, 0)" stroke="rgb(66, 66, 66)" stroke-width="1px" opacity="0.25"></line><line x1="1008.6151941540804" y1="0" x2="1008.6151941540804" y2="376" fill="rgb(0, 0, 0)" stroke="rgb(66, 66, 66)" stroke-width="1px" opacity="0.25"></line><line x1="1117.7119043457062" y1="0" x2="1117.7119043457062" y2="376" fill="rgb(0, 0, 0)" stroke="rgb(66, 66, 66)" stroke-width="1px" opacity="0.25"></line><line x1="1226.808614537332" y1="0" x2="1226.808614537332" y2="376" fill="rgb(0, 0, 0)" stroke="rgb(66, 66, 66)" stroke-width="1px" opacity="0.25"></line><line x1="1335.9053247289578" y1="0" x2="1335.9053247289578" y2="376" fill="rgb(0, 0, 0)" stroke="rgb(66, 66, 66)" stroke-width="1px" opacity="0.25"></line><line x1="1445.0020349205836" y1="0" x2="1445.0020349205836" y2="376" fill="rgb(0, 0, 0)" stroke="rgb(66, 66, 66)" stroke-width="1px" opacity="0.25"></line></g><g><line x1="0" y1="355.38224893373774" x2="1509.81875" y2="355.38224893373774" fill="rgb(0, 0, 0)" stroke="rgb(66, 66, 66)" stroke-width="1px" opacity="0.25"></line><line x1="0" y1="321.7616121682092" x2="1509.81875" y2="321.7616121682092" fill="rgb(0, 0, 0)" stroke="rgb(66, 66, 66)" stroke-width="1px" opacity="0.25"></line><line x1="0" y1="288.14097540268057" x2="1509.81875" y2="288.14097540268057" fill="rgb(0, 0, 0)" stroke="rgb(66, 66, 66)" stroke-width="1px" opacity="0.25"></line><line x1="0" y1="254.520338637152" x2="1509.81875" y2="254.520338637152" fill="rgb(0, 0, 0)" stroke="rgb(66, 66, 66)" stroke-width="1px" opacity="0.25"></line><line x1="0" y1="220.89970187162345" x2="1509.81875" y2="220.89970187162345" fill="rgb(0, 0, 0)" stroke="rgb(66, 66, 66)" stroke-width="1px" opacity="0.25"></line><line x1="0" y1="187.27906510609483" x2="1509.81875" y2="187.27906510609483" fill="rgb(0, 0, 0)" stroke="rgb(66, 66, 66)" stroke-width="1px" opacity="0.25"></line><line x1="0" y1="153.65842834056625" x2="1509.81875" y2="153.65842834056625" fill="rgb(0, 0, 0)" stroke="rgb(66, 66, 66)" stroke-width="1px" opacity="0.25"></line><line x1="0" y1="120.03779157503773" x2="1509.81875" y2="120.03779157503773" fill="rgb(0, 0, 0)" stroke="rgb(66, 66, 66)" stroke-width="1px" opacity="0.25"></line><line x1="0" y1="86.41715480950911" x2="1509.81875" y2="86.41715480950911" fill="rgb(0, 0, 0)" stroke="rgb(66, 66, 66)" stroke-width="1px" opacity="0.25"></line><line x1="0" y1="52.79651804398054" x2="1509.81875" y2="52.79651804398054" fill="rgb(0, 0, 0)" stroke="rgb(66, 66, 66)" stroke-width="1px" opacity="0.25"></line><line x1="0" y1="19.17588127845197" x2="1509.81875" y2="19.17588127845197" fill="rgb(0, 0, 0)" stroke="rgb(66, 66, 66)" stroke-width="1px" opacity="0.25"></line></g></g></g><g><g><line x1="0" y1="355.38224893373774" x2="1509.81875" y2="355.38224893373774" fill="rgb(0, 0, 0)" stroke="rgb(153, 153, 153)" stroke-width="1.5px"></line></g></g><g><g><line x1="26.744802429448402" y1="0" x2="26.744802429448402" y2="376" fill="rgb(0, 0, 0)" stroke="rgb(153, 153, 153)" stroke-width="1.5px"></line></g></g><g><g><g><g><g><path stroke="rgb(255, 112, 67)" stroke-width="2px" d="M32.19963793902969,20.507124481084396L37.65447344861098,21.173087048152098L43.10930895819227,21.839263440440245L48.56414446777356,22.505665901178677L54.018979977354846,23.172287079311186L59.47381548693614,23.83913269473115L64.92865099651743,24.506198191958113L70.38348650609872,25.17348742702798L75.83832201568,25.840997086884972L81.2931575252613,26.508730095578667L86.74799303484258,27.17668384595706L92.20282854442388,27.84486069719101L97.65766405400517,28.51325849820384L103.11249956358644,29.181879227948016L108.56733507316774,29.850721054571064L114.02217058274903,30.51978568323058L119.47700609233033,31.189071518123896L124.93184160191161,31.858580057708192L130.3866771114929,32.52830988784156L135.8415126210742,33.198262345330555L141.29634813065547,33.86843616020309L146.75118364023677,34.538831415710035L152.20601914981808,35.20944925573857L157.66085465939935,35.88028857229639L163.11569016898065,36.55135041403827L168.57052567856192,37.22263376369429L174.02536118814322,37.89413958927041L179.48019669772452,38.56586695014806L184.9350322073058,39.237816745186656L190.3898677168871,39.90998809942032L195.84470322646837,40.582381851793805L201.29953873604967,41.254997184222155L206.75437424563094,41.927834883247066L212.20920975521227,42.60089418055098L217.66404526479354,43.274175816460506L223.11888077437482,43.94767906657551L228.57371628395612,44.6214046301684L234.0285517935374,45.29535182188209L239.48338730311872,45.96952130427805L244.9382228127,46.64391242694035L250.39305832228126,47.318525819409416L255.84789383186256,47.993360862724565L261.30272934144386,48.66841815656514L266.75756485102517,49.34369711043542L272.2124003606064,50.01919829688459L277.6672358701877,50.694921151300036L283.122071379769,51.37086622146721L288.5769068893503,52.04703296641368L294.0317423989316,52.72342191123423L299.48657790851286,53.400032536628956L304.94141341809416,54.0768653468247L310.39624892767546,54.753919842463254L315.85108443725676,55.43119650851341L321.30591994683806,56.10869486402779L326.7607554564193,56.78641537614974L332.2155909660006,57.46435758097707L337.6704264755819,58.14252192910611L343.1252619851632,58.82090797246365L348.5800974947445,59.49951614623983L354.03493300432575,60.17834601710121L359.48976851390705,60.85739800586139L364.94460402348835,61.53667169294102L370.39943953306965,62.21616748570609L375.85427504265095,62.895884977445824L381.3091105522322,63.57582456291666L386.76394606181356,64.25598584747141L392.21878157139474,64.9363692140237L397.6736170809761,65.61697427925453L403.1284525905574,66.29780141493148L408.58328810013865,66.97885024839681L414.03812360971995,67.66012114090745L419.49295911930125,68.34161372985625L424.94779462888255,69.02332836657163L430.4026301384638,69.70526469793654L435.8574656480451,70.38742306588772L441.31230115762645,71.06980312628208L446.76713666720764,71.75240521215758L452.221972176789,72.43522898787047L457.6768076863703,73.11827477801401L463.13164319595154,73.80154225500628L468.58647870553284,74.4850317354165L474.04131421511414,75.16874289931869L479.49614972469544,75.85267605564724L484.9509852342767,76.53683089175586L490.405820743858,77.22120770930634L495.86065625343934,77.9058062025825L501.31549176302053,78.59062637286632L506.7703272726019,79.27566851141552L512.2251627821831,79.96093232219582L517.6799982917644,80.64641809000068L523.1348338013457,81.33212552496377L528.5896693109271,82.01805490569473L534.0445048205083,82.70420594822177L539.4993403300896,83.39057892523392L544.9541758396709,84.07717355839603L550.4090113492522,84.7639901147237L555.8638468588334,85.4510283212778L561.3186823684148,86.13828843963084L566.773517877996,86.82577033171643L572.2283533875773,87.51347399311685L577.6831888971586,88.20139941937089L583.13802440674,88.88954660597577L588.5928599163212,89.57791554838545L594.0476954259025,90.26650624201207L599.5025309354838,90.9553186822239L604.9573664450651,91.64435286434693L610.4122019546463,92.33360878366386L615.8670374642277,93.02308643541532L621.321872973809,93.71278581479768L626.7767084833902,94.40270691696506L632.2315439929715,95.09284973702796L637.6863795025529,95.78321427005437L643.1412150121341,96.47380051106799L648.5960505217154,97.1646084550502L654.0508860312967,97.85563809693875L659.505721540878,98.54688943162803L664.9605570504592,99.23836245396895L670.4153925600406,99.93005715876913L675.8702280696219,100.621973431825L681.3250635792031,101.31411137864319L686.7798990887844,102.00647099385613L692.2347345983658,102.69905227205352L697.689570107947,103.39185520778369L703.1444056175283,104.084879795552L708.5992411271096,104.77812602982219L714.0540766366909,105.47159390501528L719.5089121462721,106.16528341551L724.9637476558535,106.85919455564253L730.4185831654348,107.55332731970627L735.873418675016,108.24768170195235L741.3282541845973,108.94225769658941L746.7830896941787,109.63705529778258L752.2379252037599,110.33207449965514L757.6927607133412,111.0273152962871L763.1475962229225,111.72277768171523L768.6024317325038,112.4184616499341L774.0572672420851,113.11436719489505L779.5121027516662,113.81049431050668L784.9669382612476,114.5068429906337L790.4217737708288,115.2034132290986L795.8766092804102,115.90020501968047L801.3314447899916,116.59721835611576L806.7862802995728,117.29445323209671L812.2411158091542,117.99190964127341L817.6959513187353,118.68958757725215L823.1507868283167,119.38748703359599L828.6056223378979,120.0856080038253L834.0604578474793,120.78395048141654L839.5152933570606,121.48251445980286L844.9701288666419,122.18129993237456L850.4249643762232,122.88030689247826L855.8797998858043,123.57953533341706L861.3346353953857,124.27898524845106L866.789470904967,124.9786566307965L872.2443064145483,125.67854947362653L877.6991419241295,126.37866377007094L883.1539774337109,127.07899951321578L888.608812943292,127.77955669610377L894.0636484528734,128.48033531173394L899.5184839624546,129.18133535306205L904.973319472036,129.88255681300026L910.4281549816174,130.58399968441736L915.8829904911986,131.2856639601385L921.33782600078,131.9875496329452L926.7926615103611,132.6896566955755L932.2474970199424,133.39198514072382L937.7023325295237,134.094534961041L943.157168039105,134.79730614913464L948.6120035486864,135.50029869756833L954.0668390582676,136.2035125988622L959.521674567849,136.90694784549285L964.9765100774301,137.61060442989327L970.4313455870115,138.31448234445276L975.8861810965927,139.01858158151705L981.3410166061741,139.72290213338826L986.7958521157553,140.4274439544472L992.2506876253367,141.13220707521563L997.7055231349178,141.8371914878574L1003.1603586444992,142.5423971844929L1008.6151941540804,143.24782415719943L1014.0700296636618,143.95347239801055L1019.5248651732431,144.659341898916L1024.9797006828244,145.36543265186262L1030.4345361924056,146.07174464875325L1035.8893717019869,146.77827788144768L1041.3442072115681,147.48503234176172L1046.7990427211496,148.1920080214681L1052.2538782307308,148.89920491229557L1057.708713740312,149.6066230059297L1063.1635492498935,150.31426229401222L1068.6183847594748,151.0221227681417L1074.073220269056,151.73020441987302L1079.5280557786373,152.43850724071743L1084.9828912882185,153.14703122214252L1090.4377267977998,153.85577635557252L1095.8925623073812,154.56474263238843L1101.3473978169625,155.27393004392695L1106.8022333265437,155.98333858148186L1112.257068836125,156.69296823630296L1117.7119043457062,157.4028189995969L1123.1667398552877,158.11289082895604L1128.621575364869,158.82318374940363L1134.0764108744502,159.53369775201057L1139.5312463840316,160.24443282780433L1144.9860818936127,160.95538896776895L1150.440917403194,161.66656616284484L1155.8957529127754,162.37796440392904L1161.3505884223566,163.0895836818751L1166.8054239319379,163.80142398749305L1172.2602594415193,164.51348531154977L1177.7150949511004,165.2257676447683L1183.1699304606818,165.93827097782835L1188.624765970263,166.65099530136627L1194.0796014798443,167.36394060597462L1199.5344369894256,168.077106882203L1204.989272499007,168.79049412055707L1210.4441080085883,169.50410231149942L1215.8989435181695,170.21793144544895L1221.3537790277508,170.93198151278096L1226.808614537332,171.6462525038276L1232.2634500469135,172.3607444088775L1237.7182855564947,173.07545721817573L1243.173121066076,173.7903909219239L1248.6279565756574,174.50554551028034L1254.0827920852385,175.22092095819013L1259.5376275948197,175.93651727102903L1264.9924631044012,176.65233443882303L1270.4472986139824,177.36837245155496L1275.9021341235637,178.08463129916396L1281.3569696331451,178.801110971546L1286.8118051427261,179.51781145855355L1292.2666406523076,180.23473274999563L1297.7214761618889,180.95187483563794L1303.17631167147,181.66923770520268L1308.6311471810513,182.3868213483688L1314.0859826906328,183.10462575477177L1319.540818200214,183.82265090676134L1324.9956537097953,184.5408968011898L1330.4504892193765,185.25936342756177L1335.9053247289578,185.97805077533837L1341.3601602385393,186.6969588339374L1346.8149957481205,187.41608759273365L1352.2698312577018,188.1354370410581L1357.7246667672832,188.85500716466944L1363.1795022768642,189.57479795637036L1368.6343377864455,190.29480940536158L1374.089173296027,191.01504150080052L1379.5440088056082,191.73549423006187L1384.9988443151894,192.4561675822368L1390.453679824771,193.17706154809957L1395.908515334352,193.89817611491335L1401.3633508439334,194.61951127271" style="fill: none;" fill="none"></path></g></g></g></g><g opacity="0.2"><g><g><g><path stroke="rgb(255, 112, 67)" stroke-width="2px" d="M32.19963793902969,20.507124481084396L37.65447344861098,21.838383652662394L43.10930895819227,23.169618362007604L48.56414446777356,24.5008775335856L54.018979977354846,25.832112242930812L59.47381548693614,27.16337141450881L64.92865099651743,28.49460612385402L70.38348650609872,29.825865295432017L75.83832201568,31.15710000477723L81.2931575252613,32.488359176355225L86.74799303484258,33.81959388570044L92.20282854442388,35.15085305727844L97.65766405400517,36.48208776662365L103.11249956358644,37.81334693820165L108.56733507316774,39.14458164754686L114.02217058274903,40.475840819124855L119.47700609233033,41.807075528470065L124.93184160191161,43.13833470004806L130.3866771114929,44.46956940939327L135.8415126210742,45.80082858097127L141.29634813065547,47.13206329031648L146.75118364023677,48.46329799966169L152.20601914981808,49.79455717123969L157.66085465939935,51.1257918805849L163.11569016898065,52.457051052162896L168.57052567856192,53.78828576150811L174.02536118814322,55.119544933086104L179.48019669772452,56.45077964243132L184.9350322073058,57.78203881400932L190.3898677168871,59.11327352335453L195.84470322646837,60.444532694932526L201.29953873604967,61.77576740427774L206.75437424563094,63.107026575855734L212.20920975521227,64.43826128520095L217.66404526479354,65.76952045677893L223.11888077437482,67.10075516612416L228.57371628395612,68.43201433770216L234.0285517935374,69.76324904704737L239.48338730311872,71.09450821862536L244.9382228127,72.42574292797057L250.39305832228126,73.75700209954857L255.84789383186256,75.08823680889378L261.30272934144386,76.41949598047178L266.75756485102517,77.75073068981699L272.2124003606064,79.08198986139499L277.6672358701877,80.4132245707402L283.122071379769,81.7444837423182L288.5769068893503,83.0757184516634L294.0317423989316,84.4069776232414L299.48657790851286,85.73821233258661L304.94141341809416,87.06947150416461L310.39624892767546,88.40070621350982L315.85108443725676,89.73196538508782L321.30591994683806,91.06320009443303L326.7607554564193,92.39445926601103L332.2155909660006,93.72569397535624L337.6704264755819,95.05695314693423L343.1252619851632,96.38818785627944L348.5800974947445,97.71944702785744L354.03493300432575,99.05068173720265L359.48976851390705,100.38194090878065L364.94460402348835,101.71317561812586L370.39943953306965,103.04443478970386L375.85427504265095,104.37566949904907L381.3091105522322,105.70692867062706L386.76394606181356,107.03816337997227L392.21878157139474,108.36942255155029L397.6736170809761,109.7006572608955L403.1284525905574,111.0319164324735L408.58328810013865,112.3631511418187L414.03812360971995,113.6944103133967L419.49295911930125,115.02564502274191L424.94779462888255,116.35690419431991L430.4026301384638,117.68813890366512L435.8574656480451,119.01939807524312L441.31230115762645,120.35063278458833L446.76713666720764,121.68189195616633L452.221972176789,123.01312666551154L457.6768076863703,124.34438583708953L463.13164319595154,125.67562054643474L468.58647870553284,127.00687971801274L474.04131421511414,128.33811442735794L479.49614972469544,129.66937359893595L484.9509852342767,131.00060830828116L490.405820743858,132.33186747985917L495.86065625343934,133.66310218920438L501.31549176302053,134.9943368985496L506.7703272726019,136.32559607012757L512.2251627821831,137.65683077947278L517.6799982917644,138.9880899510508L523.1348338013457,140.319324660396L528.5896693109271,141.650583831974L534.0445048205083,142.9818185413192L539.4993403300896,144.3130777128972L544.9541758396709,145.64431242224242L550.4090113492522,146.9755715938204L555.8638468588334,148.30680630316562L561.3186823684148,149.63806547474363L566.773517877996,150.9693124152052L572.2283533875773,152.30055935566682L577.6831888971586,153.63180629612842L583.13802440674,154.96305323659004L588.5928599163212,156.2943001770516L594.0476954259025,157.62554711751324L599.5025309354838,158.95679405797483L604.9573664450651,160.28804099843646L610.4122019546463,161.61928793889803L615.8670374642277,162.95053487935965L621.321872973809,164.28178181982125L626.7767084833902,165.61302876028287L632.2315439929715,166.94427570074444L637.6863795025529,168.27552264120607L643.1412150121341,169.60676958166766L648.5960505217154,170.9380165221293L654.0508860312967,172.26926346259089L659.505721540878,173.6005104030525L664.9605570504592,174.93175734351408L670.4153925600406,176.2630042839757L675.8702280696219,177.59423899332091L681.3250635792031,178.9254859337825L686.7798990887844,180.25673287424414L692.2347345983658,181.5879798147057L697.689570107947,182.91922675516733L703.1444056175283,184.25047369562893L708.5992411271096,185.58172063609055L714.0540766366909,186.91296757655212L719.5089121462721,188.24421451701372L724.9637476558535,189.57546145747534L730.4185831654348,190.90670839793697L735.873418675016,192.23795533839854L741.3282541845973,193.56920227886013L746.7830896941787,194.90044921932176L752.2379252037599,196.23169615978338L757.6927607133412,197.56294310024495L763.1475962229225,198.89419004070655L768.6024317325038,200.22543698116817L774.0572672420851,201.5566839216298L779.5121027516662,202.88793086209137L784.9669382612476,204.21917780255296L790.4217737708288,205.5504247430146L795.8766092804102,206.8816716834762L801.3314447899916,208.21291862393778L806.7862802995728,209.54416556439938L812.2411158091542,210.875412504861L817.6959513187353,212.20665944532263L823.1507868283167,213.53790638578423L828.6056223378979,214.8691533262458L834.0604578474793,216.20040026670742L839.5152933570606,217.53164720716904L844.9701288666419,218.86289414763064L850.4249643762232,220.1941410880922L855.8797998858043,221.52538802855383L861.3346353953857,222.85663496901546L866.789470904967,224.18788190947706L872.2443064145483,225.51912884993862L877.6991419241295,226.85037579040025L883.1539774337109,228.18162273086187L888.608812943292,229.51286967132347L894.0636484528734,230.84411661178504L899.5184839624546,232.17536355224667L904.973319472036,233.5066104927083L910.4281549816174,234.8378574331699L915.8829904911986,236.16910437363146L921.33782600078,237.50035131409308L926.7926615103611,238.8315982545547L932.2474970199424,240.1628451950163L937.7023325295237,241.49409213547787L943.157168039105,242.8253390759395L948.6120035486864,244.15658601640112L954.0668390582676,245.48783295686272L959.521674567849,246.8190798973243L964.9765100774301,248.1503268377859L970.4313455870115,249.48157377824754L975.8861810965927,250.81282071870913L981.3410166061741,252.14406765917073L986.7958521157553,253.47530848407416L992.2506876253367,254.8065554245358L997.7055231349178,256.13780236499736L1003.1603586444992,257.46904930545895L1008.6151941540804,258.80029624592055L1014.0700296636618,260.1315431863822L1019.5248651732431,261.4627901268438L1024.9797006828244,262.79403706730534L1030.4345361924056,264.125284007767L1035.8893717019869,265.4565309482286L1041.3442072115681,266.7877778886902L1046.7990427211496,268.1190248291518L1052.2538782307308,269.4502717696134L1057.708713740312,270.78151871007503L1063.1635492498935,272.11276565053663L1068.6183847594748,273.4440125909982L1074.073220269056,274.7752595314598L1079.5280557786373,276.1065064719214L1084.9828912882185,277.437753412383L1090.4377267977998,278.7690003528446L1095.8925623073812,280.10024729330627L1101.3473978169625,281.43149423376786L1106.8022333265437,282.76274117422946L1112.257068836125,284.09398811469106L1117.7119043457062,285.42523505515265L1123.1667398552877,286.75647588005603L1128.621575364869,288.0877228205176L1134.0764108744502,289.4189697609793L1139.5312463840316,290.7502167014409L1144.9860818936127,292.0814636419025L1150.440917403194,293.41271058236407L1155.8957529127754,294.74395752282567L1161.3505884223566,296.0752044632873L1166.8054239319379,297.4064514037489L1172.2602594415193,298.73769834421046L1177.7150949511004,300.0689452846721L1183.1699304606818,301.4001922251337L1188.624765970263,302.7314391655953L1194.0796014798443,304.0626861060569L1199.5344369894256,305.3939330465185L1204.989272499007,306.72517998698015L1210.4441080085883,308.05642692744175L1215.8989435181695,309.3876738679033L1221.3537790277508,310.71892080836494L1226.808614537332,312.05016774882654L1232.2634500469135,313.38141468928814L1237.7182855564947,314.71266162974973L1243.173121066076,316.04390857021133L1248.6279565756574,317.375155510673L1254.0827920852385,318.70639939335547L1259.5376275948197,320.03764633381707L1264.9924631044012,321.36889327427866L1270.4472986139824,322.70014021474026L1275.9021341235637,324.03138715520186L1281.3569696331451,325.36263409566345L1286.8118051427261,326.6938810361251L1292.2666406523076,328.0251279765867L1297.7214761618889,329.3563749170483L1303.17631167147,330.6876218575099L1308.6311471810513,332.0188687979715L1314.0859826906328,333.3501157384331L1319.540818200214,334.68136115000516L1324.9956537097953,336.01260809046676L1330.4504892193765,337.34385503092835L1335.9053247289578,338.67510197138995L1341.3601602385393,340.0063489118516L1346.8149957481205,341.33759585231314L1352.2698312577018,342.6688427927748L1357.7246667672832,344.0000889687916L1363.1795022768642,345.33133590925326L1368.6343377864455,346.6625828497148L1374.089173296027,347.99382979017645L1379.5440088056082,349.3250763484157L1384.9988443151894,350.65632290665485L1390.453679824771,351.98756984711645L1395.908515334352,353.3188164053557L1401.3633508439334,354.6500632024839" style="fill: none;" fill="none"></path></g></g></g></g></g></g><g transform="translate(74, 376)" clip-path="url(#clip_1)"><clipPath id="clip_1"><rect width="1509" height="24"></rect></clipPath><g><g><line x1="26.744802429448402" y1="0" x2="26.744802429448402" y2="5" style="visibility: inherit;" fill="rgb(0, 0, 0)" stroke="rgb(204, 204, 204)" stroke-width="1px"></line><line x1="135.8415126210742" y1="0" x2="135.8415126210742" y2="5" style="visibility: inherit;" fill="rgb(0, 0, 0)" stroke="rgb(204, 204, 204)" stroke-width="1px"></line><line x1="244.9382228127" y1="0" x2="244.9382228127" y2="5" style="visibility: inherit;" fill="rgb(0, 0, 0)" stroke="rgb(204, 204, 204)" stroke-width="1px"></line><line x1="354.03493300432575" y1="0" x2="354.03493300432575" y2="5" style="visibility: inherit;" fill="rgb(0, 0, 0)" stroke="rgb(204, 204, 204)" stroke-width="1px"></line><line x1="463.13164319595154" y1="0" x2="463.13164319595154" y2="5" style="visibility: inherit;" fill="rgb(0, 0, 0)" stroke="rgb(204, 204, 204)" stroke-width="1px"></line><line x1="572.2283533875773" y1="0" x2="572.2283533875773" y2="5" style="visibility: inherit;" fill="rgb(0, 0, 0)" stroke="rgb(204, 204, 204)" stroke-width="1px"></line><line x1="681.3250635792031" y1="0" x2="681.3250635792031" y2="5" style="visibility: inherit;" fill="rgb(0, 0, 0)" stroke="rgb(204, 204, 204)" stroke-width="1px"></line><line x1="790.4217737708288" y1="0" x2="790.4217737708288" y2="5" style="visibility: inherit;" fill="rgb(0, 0, 0)" stroke="rgb(204, 204, 204)" stroke-width="1px"></line><line x1="899.5184839624546" y1="0" x2="899.5184839624546" y2="5" style="visibility: inherit;" fill="rgb(0, 0, 0)" stroke="rgb(204, 204, 204)" stroke-width="1px"></line><line x1="1008.6151941540804" y1="0" x2="1008.6151941540804" y2="5" style="visibility: inherit;" fill="rgb(0, 0, 0)" stroke="rgb(204, 204, 204)" stroke-width="1px"></line><line x1="1117.7119043457062" y1="0" x2="1117.7119043457062" y2="5" style="visibility: inherit;" fill="rgb(0, 0, 0)" stroke="rgb(204, 204, 204)" stroke-width="1px"></line><line x1="1226.808614537332" y1="0" x2="1226.808614537332" y2="5" style="visibility: inherit;" fill="rgb(0, 0, 0)" stroke="rgb(204, 204, 204)" stroke-width="1px"></line><line x1="1335.9053247289578" y1="0" x2="1335.9053247289578" y2="5" style="visibility: inherit;" fill="rgb(0, 0, 0)" stroke="rgb(204, 204, 204)" stroke-width="1px"></line><line x1="1445.0020349205836" y1="0" x2="1445.0020349205836" y2="5" style="visibility: inherit;" fill="rgb(0, 0, 0)" stroke="rgb(204, 204, 204)" stroke-width="1px"></line></g><g transform="translate(0, 8)"><text x="26.744802429448402" y="0" dx="0em" dy="0.95em" style="text-anchor: middle; visibility: inherit; font-family: Roboto, sans-serif; font-size: 12px; font-weight: 200;" fill="rgb(33, 33, 33)" stroke="none" stroke-width="1px">0</text><text x="135.8415126210742" y="0" dx="0em" dy="0.95em" style="text-anchor: middle; visibility: inherit; font-family: Roboto, sans-serif; font-size: 12px; font-weight: 200;" fill="rgb(33, 33, 33)" stroke="none" stroke-width="1px">2k</text><text x="244.9382228127" y="0" dx="0em" dy="0.95em" style="text-anchor: middle; visibility: inherit; font-family: Roboto, sans-serif; font-size: 12px; font-weight: 200;" fill="rgb(33, 33, 33)" stroke="none" stroke-width="1px">4k</text><text x="354.03493300432575" y="0" dx="0em" dy="0.95em" style="text-anchor: middle; visibility: inherit; font-family: Roboto, sans-serif; font-size: 12px; font-weight: 200;" fill="rgb(33, 33, 33)" stroke="none" stroke-width="1px">6k</text><text x="463.13164319595154" y="0" dx="0em" dy="0.95em" style="text-anchor: middle; visibility: inherit; font-family: Roboto, sans-serif; font-size: 12px; font-weight: 200;" fill="rgb(33, 33, 33)" stroke="none" stroke-width="1px">8k</text><text x="572.2283533875773" y="0" dx="0em" dy="0.95em" style="text-anchor: middle; visibility: inherit; font-family: Roboto, sans-serif; font-size: 12px; font-weight: 200;" fill="rgb(33, 33, 33)" stroke="none" stroke-width="1px">10k</text><text x="681.3250635792031" y="0" dx="0em" dy="0.95em" style="text-anchor: middle; visibility: inherit; font-family: Roboto, sans-serif; font-size: 12px; font-weight: 200;" fill="rgb(33, 33, 33)" stroke="none" stroke-width="1px">12k</text><text x="790.4217737708288" y="0" dx="0em" dy="0.95em" style="text-anchor: middle; visibility: inherit; font-family: Roboto, sans-serif; font-size: 12px; font-weight: 200;" fill="rgb(33, 33, 33)" stroke="none" stroke-width="1px">14k</text><text x="899.5184839624546" y="0" dx="0em" dy="0.95em" style="text-anchor: middle; visibility: inherit; font-family: Roboto, sans-serif; font-size: 12px; font-weight: 200;" fill="rgb(33, 33, 33)" stroke="none" stroke-width="1px">16k</text><text x="1008.6151941540804" y="0" dx="0em" dy="0.95em" style="text-anchor: middle; visibility: inherit; font-family: Roboto, sans-serif; font-size: 12px; font-weight: 200;" fill="rgb(33, 33, 33)" stroke="none" stroke-width="1px">18k</text><text x="1117.7119043457062" y="0" dx="0em" dy="0.95em" style="text-anchor: middle; visibility: inherit; font-family: Roboto, sans-serif; font-size: 12px; font-weight: 200;" fill="rgb(33, 33, 33)" stroke="none" stroke-width="1px">20k</text><text x="1226.808614537332" y="0" dx="0em" dy="0.95em" style="text-anchor: middle; visibility: inherit; font-family: Roboto, sans-serif; font-size: 12px; font-weight: 200;" fill="rgb(33, 33, 33)" stroke="none" stroke-width="1px">22k</text><text x="1335.9053247289578" y="0" dx="0em" dy="0.95em" style="text-anchor: middle; visibility: inherit; font-family: Roboto, sans-serif; font-size: 12px; font-weight: 200;" fill="rgb(33, 33, 33)" stroke="none" stroke-width="1px">24k</text><text x="1445.0020349205836" y="0" dx="0em" dy="0.95em" style="text-anchor: middle; visibility: inherit; font-family: Roboto, sans-serif; font-size: 12px; font-weight: 200;" fill="rgb(33, 33, 33)" stroke="none" stroke-width="1px">26k</text></g><line x1="0" y1="0" x2="1509.81875" y2="0" fill="rgb(0, 0, 0)" stroke="rgb(204, 204, 204)" stroke-width="1px"></line></g></g></g></g></svg>