<svg viewBox="0 0 977 400" xmlns="http://www.w3.org/2000/svg"><g><g><g><g><g><line x1="74.78125" y1="358.5335539244775" x2="69.78125" y2="358.5335539244775" style="visibility: inherit;" fill="rgb(0, 0, 0)" stroke="rgb(204, 204, 204)" stroke-width="1px"></line><line x1="74.78125" y1="324.13877701917824" x2="69.78125" y2="324.13877701917824" style="visibility: inherit;" fill="rgb(0, 0, 0)" stroke="rgb(204, 204, 204)" stroke-width="1px"></line><line x1="74.78125" y1="289.74400011387894" x2="69.78125" y2="289.74400011387894" style="visibility: inherit;" fill="rgb(0, 0, 0)" stroke="rgb(204, 204, 204)" stroke-width="1px"></line><line x1="74.78125" y1="255.34922320857973" x2="69.78125" y2="255.34922320857973" style="visibility: inherit;" fill="rgb(0, 0, 0)" stroke="rgb(204, 204, 204)" stroke-width="1px"></line><line x1="74.78125" y1="220.9544463032805" x2="69.78125" y2="220.9544463032805" style="visibility: inherit;" fill="rgb(0, 0, 0)" stroke="rgb(204, 204, 204)" stroke-width="1px"></line><line x1="74.78125" y1="186.55966939798125" x2="69.78125" y2="186.55966939798125" style="visibility: inherit;" fill="rgb(0, 0, 0)" stroke="rgb(204, 204, 204)" stroke-width="1px"></line><line x1="74.78125" y1="152.16489249268201" x2="69.78125" y2="152.16489249268201" style="visibility: inherit;" fill="rgb(0, 0, 0)" stroke="rgb(204, 204, 204)" stroke-width="1px"></line><line x1="74.78125" y1="117.7701155873828" x2="69.78125" y2="117.7701155873828" style="visibility: inherit;" fill="rgb(0, 0, 0)" stroke="rgb(204, 204, 204)" stroke-width="1px"></line><line x1="74.78125" y1="83.37533868208352" x2="69.78125" y2="83.37533868208352" style="visibility: inherit;" fill="rgb(0, 0, 0)" stroke="rgb(204, 204, 204)" stroke-width="1px"></line><line x1="74.78125" y1="48.980561776784285" x2="69.78125" y2="48.980561776784285" style="visibility: inherit;" fill="rgb(0, 0, 0)" stroke="rgb(204, 204, 204)" stroke-width="1px"></line><line x1="74.78125" y1="14.58578487148505" x2="69.78125" y2="14.58578487148505" style="visibility: inherit;" fill="rgb(0, 0, 0)" stroke="rgb(204, 204, 204)" stroke-width="1px"></line></g><g transform="translate(64.78125, 0)"><text x="0" y="358.5335539244775" dx="0em" dy="0.3em" style="text-anchor: end; visibility: inherit; font-family: Roboto, sans-serif; font-size: 12px; font-weight: 200;" fill="rgb(33, 33, 33)" stroke="none" stroke-width="1px">0</text><text x="0" y="324.13877701917824" dx="0em" dy="0.3em" style="text-anchor: end; visibility: inherit; font-family: Roboto, sans-serif; font-size: 12px; font-weight: 200;" fill="rgb(33, 33, 33)" stroke="none" stroke-width="1px">5e-6</text><text x="0" y="289.74400011387894" dx="0em" dy="0.3em" style="text-anchor: end; visibility: inherit; font-family: Roboto, sans-serif; font-size: 12px; font-weight: 200;" fill="rgb(33, 33, 33)" stroke="none" stroke-width="1px">1e-5</text><text x="0" y="255.34922320857973" dx="0em" dy="0.3em" style="text-anchor: end; visibility: inherit; font-family: Roboto, sans-serif; font-size: 12px; font-weight: 200;" fill="rgb(33, 33, 33)" stroke="none" stroke-width="1px">1.5e-5</text><text x="0" y="220.9544463032805" dx="0em" dy="0.3em" style="text-anchor: end; visibility: inherit; font-family: Roboto, sans-serif; font-size: 12px; font-weight: 200;" fill="rgb(33, 33, 33)" stroke="none" stroke-width="1px">2e-5</text><text x="0" y="186.55966939798125" dx="0em" dy="0.3em" style="text-anchor: end; visibility: inherit; font-family: Roboto, sans-serif; font-size: 12px; font-weight: 200;" fill="rgb(33, 33, 33)" stroke="none" stroke-width="1px">2.5e-5</text><text x="0" y="152.16489249268201" dx="0em" dy="0.3em" style="text-anchor: end; visibility: inherit; font-family: Roboto, sans-serif; font-size: 12px; font-weight: 200;" fill="rgb(33, 33, 33)" stroke="none" stroke-width="1px">3e-5</text><text x="0" y="117.7701155873828" dx="0em" dy="0.3em" style="text-anchor: end; visibility: inherit; font-family: Roboto, sans-serif; font-size: 12px; font-weight: 200;" fill="rgb(33, 33, 33)" stroke="none" stroke-width="1px">3.5e-5</text><text x="0" y="83.37533868208352" dx="0em" dy="0.3em" style="text-anchor: end; visibility: inherit; font-family: Roboto, sans-serif; font-size: 12px; font-weight: 200;" fill="rgb(33, 33, 33)" stroke="none" stroke-width="1px">4e-5</text><text x="0" y="48.980561776784285" dx="0em" dy="0.3em" style="text-anchor: end; visibility: inherit; font-family: Roboto, sans-serif; font-size: 12px; font-weight: 200;" fill="rgb(33, 33, 33)" stroke="none" stroke-width="1px">4.5e-5</text><text x="0" y="14.58578487148505" dx="0em" dy="0.3em" style="text-anchor: end; visibility: inherit; font-family: Roboto, sans-serif; font-size: 12px; font-weight: 200;" fill="rgb(33, 33, 33)" stroke="none" stroke-width="1px">5e-5</text></g><line x1="74.78125" y1="0" x2="74.78125" y2="376" fill="rgb(0, 0, 0)" stroke="rgb(204, 204, 204)" stroke-width="1px"></line></g></g><g transform="translate(74, 0)" clip-path="url(#clip_0)"><clipPath id="clip_0"><rect width="902" height="376"></rect></clipPath><g><g><g><line x1="14.752888978915255" y1="0" x2="14.752888978915255" y2="376" fill="rgb(0, 0, 0)" stroke="rgb(66, 66, 66)" stroke-width="1px" opacity="0.25"></line><line x1="81.27626998921698" y1="0" x2="81.27626998921698" y2="376" fill="rgb(0, 0, 0)" stroke="rgb(66, 66, 66)" stroke-width="1px" opacity="0.25"></line><line x1="147.79965099951872" y1="0" x2="147.79965099951872" y2="376" fill="rgb(0, 0, 0)" stroke="rgb(66, 66, 66)" stroke-width="1px" opacity="0.25"></line><line x1="214.32303200982045" y1="0" x2="214.32303200982045" y2="376" fill="rgb(0, 0, 0)" stroke="rgb(66, 66, 66)" stroke-width="1px" opacity="0.25"></line><line x1="280.84641302012216" y1="0" x2="280.84641302012216" y2="376" fill="rgb(0, 0, 0)" stroke="rgb(66, 66, 66)" stroke-width="1px" opacity="0.25"></line><line x1="347.3697940304239" y1="0" x2="347.3697940304239" y2="376" fill="rgb(0, 0, 0)" stroke="rgb(66, 66, 66)" stroke-width="1px" opacity="0.25"></line><line x1="413.8931750407256" y1="0" x2="413.8931750407256" y2="376" fill="rgb(0, 0, 0)" stroke="rgb(66, 66, 66)" stroke-width="1px" opacity="0.25"></line><line x1="480.4165560510274" y1="0" x2="480.4165560510274" y2="376" fill="rgb(0, 0, 0)" stroke="rgb(66, 66, 66)" stroke-width="1px" opacity="0.25"></line><line x1="546.9399370613291" y1="0" x2="546.9399370613291" y2="376" fill="rgb(0, 0, 0)" stroke="rgb(66, 66, 66)" stroke-width="1px" opacity="0.25"></line><line x1="613.4633180716309" y1="0" x2="613.4633180716309" y2="376" fill="rgb(0, 0, 0)" stroke="rgb(66, 66, 66)" stroke-width="1px" opacity="0.25"></line><line x1="679.9866990819326" y1="0" x2="679.9866990819326" y2="376" fill="rgb(0, 0, 0)" stroke="rgb(66, 66, 66)" stroke-width="1px" opacity="0.25"></line><line x1="746.5100800922344" y1="0" x2="746.5100800922344" y2="376" fill="rgb(0, 0, 0)" stroke="rgb(66, 66, 66)" stroke-width="1px" opacity="0.25"></line><line x1="813.0334611025361" y1="0" x2="813.0334611025361" y2="376" fill="rgb(0, 0, 0)" stroke="rgb(66, 66, 66)" stroke-width="1px" opacity="0.25"></line><line x1="879.5568421128378" y1="0" x2="879.5568421128378" y2="376" fill="rgb(0, 0, 0)" stroke="rgb(66, 66, 66)" stroke-width="1px" opacity="0.25"></line></g><g><line x1="0" y1="358.5335539244775" x2="902.21875" y2="358.5335539244775" fill="rgb(0, 0, 0)" stroke="rgb(66, 66, 66)" stroke-width="1px" opacity="0.25"></line><line x1="0" y1="324.13877701917824" x2="902.21875" y2="324.13877701917824" fill="rgb(0, 0, 0)" stroke="rgb(66, 66, 66)" stroke-width="1px" opacity="0.25"></line><line x1="0" y1="289.74400011387894" x2="902.21875" y2="289.74400011387894" fill="rgb(0, 0, 0)" stroke="rgb(66, 66, 66)" stroke-width="1px" opacity="0.25"></line><line x1="0" y1="255.34922320857973" x2="902.21875" y2="255.34922320857973" fill="rgb(0, 0, 0)" stroke="rgb(66, 66, 66)" stroke-width="1px" opacity="0.25"></line><line x1="0" y1="220.9544463032805" x2="902.21875" y2="220.9544463032805" fill="rgb(0, 0, 0)" stroke="rgb(66, 66, 66)" stroke-width="1px" opacity="0.25"></line><line x1="0" y1="186.55966939798125" x2="902.21875" y2="186.55966939798125" fill="rgb(0, 0, 0)" stroke="rgb(66, 66, 66)" stroke-width="1px" opacity="0.25"></line><line x1="0" y1="152.16489249268201" x2="902.21875" y2="152.16489249268201" fill="rgb(0, 0, 0)" stroke="rgb(66, 66, 66)" stroke-width="1px" opacity="0.25"></line><line x1="0" y1="117.7701155873828" x2="902.21875" y2="117.7701155873828" fill="rgb(0, 0, 0)" stroke="rgb(66, 66, 66)" stroke-width="1px" opacity="0.25"></line><line x1="0" y1="83.37533868208352" x2="902.21875" y2="83.37533868208352" fill="rgb(0, 0, 0)" stroke="rgb(66, 66, 66)" stroke-width="1px" opacity="0.25"></line><line x1="0" y1="48.980561776784285" x2="902.21875" y2="48.980561776784285" fill="rgb(0, 0, 0)" stroke="rgb(66, 66, 66)" stroke-width="1px" opacity="0.25"></line><line x1="0" y1="14.58578487148505" x2="902.21875" y2="14.58578487148505" fill="rgb(0, 0, 0)" stroke="rgb(66, 66, 66)" stroke-width="1px" opacity="0.25"></line></g></g></g><g><g><line x1="0" y1="358.5335539244775" x2="902.21875" y2="358.5335539244775" fill="rgb(0, 0, 0)" stroke="rgb(153, 153, 153)" stroke-width="1.5px"></line></g></g><g><g><line x1="14.752888978915255" y1="0" x2="14.752888978915255" y2="376" fill="rgb(0, 0, 0)" stroke="rgb(153, 153, 153)" stroke-width="1.5px"></line></g></g><g><g><g><g><g><path stroke="rgb(255, 112, 67)" stroke-width="2px" d="M18.079058029430342,15.947680937897033L21.40522707994543,16.628977787844242L24.731396130460514,17.310493386496447L28.0575651809756,17.99224025899297L31.38373423149069,18.67421088501409L34.709903282005776,19.356411116157897L38.03607233252086,20.03883629205073L41.36224138303595,20.721490357516505L44.688410433551034,21.404369923213828L48.01457948406612,22.08747798052084L51.3407485345812,22.770811862253815L54.66691758509629,23.454373981905285L57.993086635611384,24.138162138868438L61.31925568612647,24.822178357662626L64.64542473664154,25.506420764255548L67.97159378715665,26.1908911030674L71.29776283767173,26.875587741550895L74.62393188818682,27.56051221266637L77.9501009387019,28.245663069710204L81.27626998921698,28.931041680269928L84.60243903973208,29.616646745131394L87.92860809024715,30.302478349462415L91.25477714076224,30.98853766348899L94.58094619127733,31.674823553706446L97.90711524179243,32.36133709291569L101.2332842923075,33.04807724042338L104.5594533428226,33.73504498652445L107.88562239333768,34.42223936894201L111.21179144385276,35.10966130723236L114.53796049436785,35.79730990628279L117.86412954488294,36.48518602435545L121.19029859539802,37.17328882452838L124.51646764591311,37.86161911145396L127.8426366964282,38.55017609912352L131.16880574694326,39.238960544910334L134.49497479745838,39.92797170773425L137.82114384797347,40.61721030296915L141.14731289848854,41.30667562947695L144.47348194900363,41.9963683650751L147.79965099951872,42.68628784437145L151.1258200500338,43.37643471140198L154.4519891005489,44.066808332953975L157.77815815106396,44.75740932251489L161.10432720157905,45.44823707599235L164.43049625209414,46.13929217911892L167.75666530260924,46.8305740542814L171.08283435312433,47.52208326187839L174.40900340363942,48.21381924848116L177.73517245415448,48.90578255127519L181.0613415046696,49.597972639003316L184.3875105551847,50.29039002750259L187.71367960569975,50.98303420591665L191.03984865621484,51.67590567038111L194.3660177067299,52.36900392887444L197.69218675724503,53.06232945929629L201.01835580776012,53.755881787062734L204.34452485827518,54.449661373145474L207.67069390879027,55.14366775915402L210.99686295930536,55.83790139029913L214.32303200982045,56.53236182326958L217.64920106033554,57.227049488568454L220.97537011085063,57.92196395695527L224.3015391613657,58.61710564517595L227.6277082118808,59.3124741371549L230.9538772623959,60.00806983673808L234.28004631291097,60.703892340191366L237.60621536342603,61.399942039245154L240.93238441394115,62.09621854175423L244.2585534644562,62.792722228046486L247.5847225149713,63.48945271688337L250.91089156548642,64.18641037784005L254.2370606160015,64.88359483996011L257.5632296665166,65.58100646266153L260.88939871703167,66.27864488469648L264.21556776754676,66.97651045587511L267.54173681806185,67.67460282413006L270.86790586857694,68.37292233016788L274.19407491909203,69.07146863061628L277.52024396960707,69.77024205754253L280.84641302012216,70.46924227582191L284.17258207063725,71.1684696093128L287.49875112115234,71.86792373072284L290.82492017166743,72.56760495609979L294.1510892221825,73.2675129655984L297.4772582726976,73.9676480678265L300.8034273232127,74.66800995002858L304.1295963737278,75.36859861351614L307.4557654242429,76.0694143562532L310.7819344747579,76.77045687538927L314.10810352527307,77.47172646227526L317.43427257578816,78.17322282037043L320.7604416263032,78.87494623469976L324.08661067681834,79.57689641475267L327.4127797273334,80.27907363949708L330.73894877784846,80.981477624189L334.0651178283636,81.68410864199222L337.39128687887865,82.38696641368298L340.71745592939374,83.09005120685681L344.0436249799088,83.79336288026803L347.3697940304239,84.49690142939741L350.695963080939,85.20066684968093L354.0221321314541,85.90465913651207L357.3483011819692,86.60887828524017L360.6744702324842,87.31332429117175L364.0006392829993,88.01799714956837L367.32680833351446,88.72289685564851L370.6529773840295,89.42802340458617L373.9791464345446,90.13337679151232L377.3053154850597,90.83895701151286L380.63148453557477,91.54476405963028L383.95765358608986,92.25079793086242L387.28382263660495,92.95705862016385L390.60999168712004,93.66354612244363L393.93616073763513,94.3702604325675L397.2623297881502,95.07720154535673L400.5884988386653,95.78436945558815L403.91466788918035,96.49176415799408L407.2408369396955,97.19938564726259L410.56700599021053,97.90723380656048L413.8931750407256,98.61530874382379L417.21934409124077,99.32361045356132L420.5455131417558,100.03213893023816L423.8716821922709,100.74089416827718L427.197851242786,101.4498761620572L430.5240202933011,102.15908490591444L433.85018934381617,102.86852039414157L437.1763583943312,103.57818262098773L440.50252744484635,104.28807158065881L443.82869649536144,104.99818726731677L447.1548655458765,105.7085296750804L450.4810345963916,106.41909879802485L453.8072036469067,107.12989463018108L457.13337269742175,107.84091716553701L460.4595417479369,108.55216639803628L463.785710798452,109.26364232157836L467.111879848967,109.97534493001962L470.4380488994821,110.68727421717199L473.76421794999715,111.3994301768039L477.0903870005123,112.11181280263882L480.4165560510274,112.82442208835693L483.7427251015424,113.53725802759409L487.0688941520575,114.25032061394256L490.39506320257266,114.9636098409493L493.7212322530877,115.67712570211827L497.0474013036028,116.39086819090838L500.37357035411793,117.10483730073463L503.69973940463296,117.81903302496815L507.02590845514806,118.53345535693516L510.3520775056632,119.24810428991763L513.6782465561782,119.96297981715364L517.0044156066933,120.67808193183666L520.3305846572084,121.39341062711546L523.6567537077235,122.10896589609513L526.9829227582386,122.82474773183559L530.3090918087537,123.54075612735286L533.6352608592687,124.25699107561854L536.9614299097839,124.97345256955937L540.287598960299,125.69014060205797L543.6137680108139,126.40705516595219L546.9399370613291,127.12419625403554L550.2661061118442,127.84156385905696L553.5922751623592,128.5591579737211L556.9184442128744,129.27697859068783L560.2446132633895,129.99502570257255L563.5707823139045,130.71329930194602L566.8969513644196,131.4317993813344L570.2231204149348,132.15052593321948L573.5492894654498,132.86947895003848L576.8754585159649,133.58865842418382L580.20162756648,134.30806434800343L583.527796616995,135.02769671380062L586.8539656675101,135.7475555138342L590.1801347180253,136.46764074031816L593.5063037685403,137.187952385422L596.8324728190554,137.90849044127066L600.1586418695705,138.62925486119448L603.4848109200856,139.35024567641798L606.8109799706007,140.07146287892465L610.1371490211158,140.7929064606534L613.4633180716309,141.51457641349907L616.7894871221459,142.2364727293119L620.1156561726609,142.95859539989712L623.4418252231761,143.6809444170161L626.7679942736912,144.40351977238524L630.0941633242062,145.12632145767694L633.4203323747214,145.84934946451855L636.7465014252365,146.5726037844934L640.0726704757515,147.29608440913972L643.3988395262666,148.01979132995172L646.7250085767818,148.7437245383786L650.0511776272967,149.46788402582547L653.3773466778118,150.19226978365273L656.703515728327,150.91688180317627L660.029684778842,151.6417200756672L663.3558538293571,152.36678459235225L666.6820228798722,153.09207534441396L670.0081919303873,153.81759232298958L673.3343609809024,154.54333551917236L676.6605300314175,155.26930492401073L679.9866990819326,155.99550052850876L683.3128681324476,156.72192228928236L686.6390371829627,157.44857023193097L689.9652062334778,158.17544434731997L693.2913752839929,158.90254462627004L696.617544334508,159.62987105955784L699.9437133850231,160.35742363791505L703.2698824355382,161.0852023520292L706.5960514860533,161.81320719254305L709.9222205365683,162.54143815005526L713.2483895870835,163.26989521511996L716.5745586375986,163.99857837824652L719.9007276881135,164.72748762990025L723.2268967386287,165.45662296050173L726.5530657891438,166.18598436042706L729.8792348396588,166.91557182000807L733.205403890174,167.64538532953188L736.5315729406891,168.37542487924145L739.8577419912041,169.10569045933516L743.1839110417192,169.83618205996657L746.5100800922344,170.56689967124532L749.8362491427494,171.2978432832363L753.1624181932644,172.02901288596007L756.4885872437796,172.76040846939264L759.8147562942946,173.49203002346567L763.1409253448097,174.22387752254735L766.4670943953248,174.9559509721372L769.7932634458399,175.68825036203162L773.119432496355,176.42077568198275L776.4456015468701,177.15352692169805L779.7717705973852,177.8865040708408L783.0979396479003,178.61970711902987L786.4241086984152,179.35313605583963L789.7502777489304,180.08679087080014L793.0764467994455,180.82067155339692L796.4026158499605,181.55477809307132L799.7287849004757,182.28911047922003L803.0549539509908,183.02366869378653L806.3811230015058,183.75845273355054L809.707292052021,184.49346258777507L813.0334611025361,185.22869824567854L816.3596301530511,185.96415969643516L819.6857992035661,186.69984692917492L823.0119682540814,187.43575993298333L826.3381373045963,188.17189869329093L829.6643063551114,188.90826320273487L832.9904754056266,189.6448534502672L836.3166444561416,190.3816694247956L839.6428135066567,191.11871111340412L842.9689825571719,191.85597850493264L846.2951516076869,192.5934715899432L849.621320658202,193.33119035540545L852.9474897087171,194.06913479112183" style="fill: none;" fill="none"></path></g></g></g></g><g opacity="0.2"><g><g><g><path stroke="rgb(255, 112, 67)" stroke-width="2px" d="M18.079058029430342,15.947680937897033L21.40522707994543,17.30959334095141L24.731396130460514,18.671480718511873L28.0575651809756,20.03339312156625L31.38373423149069,21.395280499126713L34.709903282005776,22.75719290218109L38.03607233252086,24.119080279741553L41.36224138303595,25.48099268279593L44.688410433551034,26.842880060356393L48.01457948406612,28.20479246341077L51.3407485345812,29.566679840971233L54.66691758509629,30.92859224402561L57.993086635611384,32.290479621586115L61.31925568612647,33.65239202464045L64.64542473664154,35.014279402200955L67.97159378715665,36.37619180525529L71.29776283767173,37.738079182815795L74.62393188818682,39.09999158587017L77.9501009387019,40.461878963430635L81.27626998921698,41.82379136648501L84.60243903973208,43.185678744045475L87.92860809024715,44.54756612160594L91.25477714076224,45.909478524660315L94.58094619127733,47.27136590222082L97.90711524179243,48.633278305275155L101.2332842923075,49.99516568283566L104.5594533428226,51.357078085889995L107.88562239333768,52.7189654634505L111.21179144385276,54.08087786650488L114.53796049436785,55.44276524406534L117.86412954488294,56.80467764711972L121.19029859539802,58.16656502468018L124.51646764591311,59.52847742773456L127.8426366964282,60.89036480529502L131.16880574694326,62.2522772083494L134.49497479745838,63.61416458590986L137.82114384797347,64.97607698896424L141.14731289848854,66.3379643665247L144.47348194900363,67.69987676957908L147.79965099951872,69.06176414713954L151.1258200500338,70.42367655019392L154.4519891005489,71.78556392775442L157.77815815106396,73.14747633080876L161.10432720157905,74.50936370836926L164.43049625209414,75.8712761114236L167.75666530260924,77.2331634889841L171.08283435312433,78.59507589203848L174.40900340363942,79.95696326959894L177.73517245415448,81.31887567265332L181.0613415046696,82.68076305021378L184.3875105551847,84.04267545326816L187.71367960569975,85.40456283082862L191.03984865621484,86.766475233883L194.3660177067299,88.12836261144346L197.69218675724503,89.49027501449784L201.01835580776012,90.8521623920583L204.34452485827518,92.21407479511268L207.67069390879027,93.57596217267314L210.99686295930536,94.93787457572752L214.32303200982045,96.29976195328803L217.64920106033554,97.66167435634236L220.97537011085063,99.02356173390287L224.3015391613657,100.3854741369572L227.6277082118808,101.7473615145177L230.9538772623959,103.10927391757208L234.28004631291097,104.47116129513255L237.60621536342603,105.83307369818692L240.93238441394115,107.19496107574739L244.2585534644562,108.55687347880176L247.5847225149713,109.91876085636223L250.91089156548642,111.2806732594166L254.2370606160015,112.64256063697707L257.5632296665166,114.00447304003144L260.88939871703167,115.3663604175919L264.21556776754676,116.72827282064628L267.54173681806185,118.09016019820679L270.86790586857694,119.45207260126112L274.19407491909203,120.81395997882163L277.52024396960707,122.17587238187596L280.84641302012216,123.53775975943647L284.17258207063725,124.89967216249084L287.49875112115234,126.26155954005131L290.82492017166743,127.62347194310568L294.1510892221825,128.98535932066613L297.4772582726976,130.34727172372052L300.8034273232127,131.709159101281L304.1295963737278,133.07104647884145L307.4557654242429,134.43295888189581L310.7819344747579,135.79484625945634L314.10810352527307,137.15675866251067L317.43427257578816,138.51864604007116L320.7604416263032,139.8805584431255L324.08661067681834,141.24244582068602L327.4127797273334,142.60435822374038L330.73894877784846,143.96624560130084L334.0651178283636,145.32815800435523L337.39128687887865,146.6900453819157L340.71745592939374,148.05195778497006L344.0436249799088,149.41385767527748L347.3697940304239,150.7757575655849L350.695963080939,152.13765745589234L354.0221321314541,153.49955734619974L357.3483011819692,154.86145723650716L360.6744702324842,156.2233571268146L364.0006392829993,157.585257017122L367.32680833351446,158.94715690742942L370.6529773840295,160.30905679773684L373.9791464345446,161.67095668804427L377.3053154850597,163.0328565783517L380.63148453557477,164.39475646865915L383.95765358608986,165.75665635896655L387.28382263660495,167.11855624927398L390.60999168712004,168.4804561395814L393.93616073763513,169.84235602988883L397.2623297881502,171.20425592019623L400.5884988386653,172.56615581050366L403.91466788918035,173.9280557008111L407.2408369396955,175.2899555911185L410.56700599021053,176.65184296867898L413.8931750407256,178.01374285898638L417.21934409124077,179.3756427492938L420.5455131417558,180.73754263960123L423.8716821922709,182.09944252990869L427.197851242786,183.4613424202161L430.5240202933011,184.82324231052354L433.85018934381617,186.18514220083094L437.1763583943312,187.54704209113837L440.50252744484635,188.9089419814458L443.82869649536144,190.27084187175322L447.1548655458765,191.63274176206062L450.4810345963916,192.99464165236805L453.8072036469067,194.35654154267547L457.13337269742175,195.7184414329829L460.4595417479369,197.0803413232903L463.785710798452,198.44224121359773L467.111879848967,199.80414110390515L470.4380488994821,201.16604099421258L473.76421794999715,202.52794088451998L477.0903870005123,203.8898407748274L480.4165560510274,205.25174066513483L483.7427251015424,206.61364055544226L487.0688941520575,207.97554044574966L490.39506320257266,209.33744033605709L493.7212322530877,210.69934022636454L497.0474013036028,212.06124011667197L500.37357035411793,213.4231400069794L503.69973940463296,214.78503989728682L507.02590845514806,216.14693978759422L510.3520775056632,217.50883967790165L513.6782465561782,218.87073956820907L517.0044156066933,220.2326394585165L520.3305846572084,221.5945393488239L523.6567537077235,222.95643923913138L526.9829227582386,224.31833912943878L530.3090918087537,225.6802390197462L533.6352608592687,227.04213891005364L536.9614299097839,228.40403880036106L540.287598960299,229.76593869066846L543.6137680108139,231.1278385809759L546.9399370613291,232.48973847128332L550.2661061118442,233.85163836159074L553.5922751623592,235.21353825189814L556.9184442128744,236.57543814220557L560.2446132633895,237.937338032513L563.5707823139045,239.29923792282042L566.8969513644196,240.66113781312782L570.2231204149348,242.02303770343525L573.5492894654498,243.38493759374268L576.8754585159649,244.7468374840501L580.20162756648,246.1087373743575L583.527796616995,247.47063726466493L586.8539656675101,248.83253715497236L590.1801347180253,250.19443704527978L593.5063037685403,251.55633693558718L596.8324728190554,252.9182368258946L600.1586418695705,254.2801304598286L603.4848109200856,255.64203035013603L606.8109799706007,257.0039302404434L610.1371490211158,258.36583013075085L613.4633180716309,259.7277300210583L616.7894871221459,261.0896299113657L620.1156561726609,262.45152980167313L623.4418252231761,263.81342969198056L626.7679942736912,265.17532958228793L630.0941633242062,266.53722947259536L633.4203323747214,267.8991293629028L636.7465014252365,269.2610292532102L640.0726704757515,270.62292914351764L643.3988395262666,271.98482903382506L646.7250085767818,273.3467289241325L650.0511776272967,274.7086288144399L653.3773466778118,276.0705287047473L656.703515728327,277.4324285950547L660.029684778842,278.79432848536214L663.3558538293571,280.15622837566957L666.6820228798722,281.518128265977L670.0081919303873,282.8800281562845L673.3343609809024,284.24192804659185L676.6605300314175,285.6038279368993L679.9866990819326,286.9657278272067L683.3128681324476,288.32762146114067L686.6390371829627,289.6895213514481L689.9652062334778,291.0514212417555L693.2913752839929,292.4133211320629L696.617544334508,293.7752210223703L699.9437133850231,295.13712091267774L703.2698824355382,296.49902080298517L706.5960514860533,297.8609206932926L709.9222205365683,299.2228205836L713.2483895870835,300.58472047390745L716.5745586375986,301.9466203642149L719.9007276881135,303.3085202545223L723.2268967386287,304.67042014482973L726.5530657891438,306.03232003513716L729.8792348396588,307.3942199254446L733.205403890174,308.756119815752L736.5315729406891,310.11801970605944L739.8577419912041,311.4799195963668L743.1839110417192,312.84181948667424L746.5100800922344,314.20371937698167L749.8362491427494,315.5656192672891L753.1624181932644,316.9275191575965L756.4885872437796,318.289419047904L759.8147562942946,319.6513189382114L763.1409253448097,321.01321570033207L766.4670943953248,322.3751155906395L769.7932634458399,323.7370154809469L773.119432496355,325.0989153712543L776.4456015468701,326.4608152615617L779.7717705973852,327.82271515186915L783.0979396479003,329.1846150421766L786.4241086984152,330.546514932484L789.7502777489304,331.9084148227914L793.0764467994455,333.27031471309886L796.4026158499605,334.6322146034063L799.7287849004757,335.9941144937137L803.0549539509908,337.35601281992774L806.3811230015058,338.71791271023517L809.707292052021,340.0798126005426L813.0334611025361,341.44171249085L816.3596301530511,342.80361238115745L819.6857992035661,344.1655122714649L823.0119682540814,345.5274121617723L826.3381373045963,346.88931127003303L829.6643063551114,348.25121116034046L832.9904754056266,349.6131110506479L836.3166444561416,350.9750109409553L839.6428135066567,352.33691044023936L842.9689825571719,353.69880993952347L846.2951516076869,355.0607098298309L849.621320658202,356.42260932911495L852.9474897087171,357.78450907278864" style="fill: none;" fill="none"></path></g></g></g></g></g></g><g transform="translate(74, 376)" clip-path="url(#clip_1)"><clipPath id="clip_1"><rect width="902" height="24"></rect></clipPath><g><g><line x1="14.752888978915255" y1="0" x2="14.752888978915255" y2="5" style="visibility: inherit;" fill="rgb(0, 0, 0)" stroke="rgb(204, 204, 204)" stroke-width="1px"></line><line x1="81.27626998921698" y1="0" x2="81.27626998921698" y2="5" style="visibility: inherit;" fill="rgb(0, 0, 0)" stroke="rgb(204, 204, 204)" stroke-width="1px"></line><line x1="147.79965099951872" y1="0" x2="147.79965099951872" y2="5" style="visibility: inherit;" fill="rgb(0, 0, 0)" stroke="rgb(204, 204, 204)" stroke-width="1px"></line><line x1="214.32303200982045" y1="0" x2="214.32303200982045" y2="5" style="visibility: inherit;" fill="rgb(0, 0, 0)" stroke="rgb(204, 204, 204)" stroke-width="1px"></line><line x1="280.84641302012216" y1="0" x2="280.84641302012216" y2="5" style="visibility: inherit;" fill="rgb(0, 0, 0)" stroke="rgb(204, 204, 204)" stroke-width="1px"></line><line x1="347.3697940304239" y1="0" x2="347.3697940304239" y2="5" style="visibility: inherit;" fill="rgb(0, 0, 0)" stroke="rgb(204, 204, 204)" stroke-width="1px"></line><line x1="413.8931750407256" y1="0" x2="413.8931750407256" y2="5" style="visibility: inherit;" fill="rgb(0, 0, 0)" stroke="rgb(204, 204, 204)" stroke-width="1px"></line><line x1="480.4165560510274" y1="0" x2="480.4165560510274" y2="5" style="visibility: inherit;" fill="rgb(0, 0, 0)" stroke="rgb(204, 204, 204)" stroke-width="1px"></line><line x1="546.9399370613291" y1="0" x2="546.9399370613291" y2="5" style="visibility: inherit;" fill="rgb(0, 0, 0)" stroke="rgb(204, 204, 204)" stroke-width="1px"></line><line x1="613.4633180716309" y1="0" x2="613.4633180716309" y2="5" style="visibility: inherit;" fill="rgb(0, 0, 0)" stroke="rgb(204, 204, 204)" stroke-width="1px"></line><line x1="679.9866990819326" y1="0" x2="679.9866990819326" y2="5" style="visibility: inherit;" fill="rgb(0, 0, 0)" stroke="rgb(204, 204, 204)" stroke-width="1px"></line><line x1="746.5100800922344" y1="0" x2="746.5100800922344" y2="5" style="visibility: inherit;" fill="rgb(0, 0, 0)" stroke="rgb(204, 204, 204)" stroke-width="1px"></line><line x1="813.0334611025361" y1="0" x2="813.0334611025361" y2="5" style="visibility: inherit;" fill="rgb(0, 0, 0)" stroke="rgb(204, 204, 204)" stroke-width="1px"></line><line x1="879.5568421128378" y1="0" x2="879.5568421128378" y2="5" style="visibility: inherit;" fill="rgb(0, 0, 0)" stroke="rgb(204, 204, 204)" stroke-width="1px"></line></g><g transform="translate(0, 8)"><text x="14.752888978915255" y="0" dx="0em" dy="0.95em" style="text-anchor: middle; visibility: inherit; font-family: Roboto, sans-serif; font-size: 12px; font-weight: 200;" fill="rgb(33, 33, 33)" stroke="none" stroke-width="1px">0</text><text x="81.27626998921698" y="0" dx="0em" dy="0.95em" style="text-anchor: middle; visibility: inherit; font-family: Roboto, sans-serif; font-size: 12px; font-weight: 200;" fill="rgb(33, 33, 33)" stroke="none" stroke-width="1px">2k</text><text x="147.79965099951872" y="0" dx="0em" dy="0.95em" style="text-anchor: middle; visibility: inherit; font-family: Roboto, sans-serif; font-size: 12px; font-weight: 200;" fill="rgb(33, 33, 33)" stroke="none" stroke-width="1px">4k</text><text x="214.32303200982045" y="0" dx="0em" dy="0.95em" style="text-anchor: middle; visibility: inherit; font-family: Roboto, sans-serif; font-size: 12px; font-weight: 200;" fill="rgb(33, 33, 33)" stroke="none" stroke-width="1px">6k</text><text x="280.84641302012216" y="0" dx="0em" dy="0.95em" style="text-anchor: middle; visibility: inherit; font-family: Roboto, sans-serif; font-size: 12px; font-weight: 200;" fill="rgb(33, 33, 33)" stroke="none" stroke-width="1px">8k</text><text x="347.3697940304239" y="0" dx="0em" dy="0.95em" style="text-anchor: middle; visibility: inherit; font-family: Roboto, sans-serif; font-size: 12px; font-weight: 200;" fill="rgb(33, 33, 33)" stroke="none" stroke-width="1px">10k</text><text x="413.8931750407256" y="0" dx="0em" dy="0.95em" style="text-anchor: middle; visibility: inherit; font-family: Roboto, sans-serif; font-size: 12px; font-weight: 200;" fill="rgb(33, 33, 33)" stroke="none" stroke-width="1px">12k</text><text x="480.4165560510274" y="0" dx="0em" dy="0.95em" style="text-anchor: middle; visibility: inherit; font-family: Roboto, sans-serif; font-size: 12px; font-weight: 200;" fill="rgb(33, 33, 33)" stroke="none" stroke-width="1px">14k</text><text x="546.9399370613291" y="0" dx="0em" dy="0.95em" style="text-anchor: middle; visibility: inherit; font-family: Roboto, sans-serif; font-size: 12px; font-weight: 200;" fill="rgb(33, 33, 33)" stroke="none" stroke-width="1px">16k</text><text x="613.4633180716309" y="0" dx="0em" dy="0.95em" style="text-anchor: middle; visibility: inherit; font-family: Roboto, sans-serif; font-size: 12px; font-weight: 200;" fill="rgb(33, 33, 33)" stroke="none" stroke-width="1px">18k</text><text x="679.9866990819326" y="0" dx="0em" dy="0.95em" style="text-anchor: middle; visibility: inherit; font-family: Roboto, sans-serif; font-size: 12px; font-weight: 200;" fill="rgb(33, 33, 33)" stroke="none" stroke-width="1px">20k</text><text x="746.5100800922344" y="0" dx="0em" dy="0.95em" style="text-anchor: middle; visibility: inherit; font-family: Roboto, sans-serif; font-size: 12px; font-weight: 200;" fill="rgb(33, 33, 33)" stroke="none" stroke-width="1px">22k</text><text x="813.0334611025361" y="0" dx="0em" dy="0.95em" style="text-anchor: middle; visibility: inherit; font-family: Roboto, sans-serif; font-size: 12px; font-weight: 200;" fill="rgb(33, 33, 33)" stroke="none" stroke-width="1px">24k</text><text x="879.5568421128378" y="0" dx="0em" dy="0.95em" style="text-anchor: middle; visibility: inherit; font-family: Roboto, sans-serif; font-size: 12px; font-weight: 200;" fill="rgb(33, 33, 33)" stroke="none" stroke-width="1px">26k</text></g><line x1="0" y1="0" x2="902.21875" y2="0" fill="rgb(0, 0, 0)" stroke="rgb(204, 204, 204)" stroke-width="1px"></line></g></g></g></g></svg>