<svg viewBox="0 0 977 400" xmlns="http://www.w3.org/2000/svg"><g><g><g><g><g><line x1="74.78125" y1="362.2724055272435" x2="69.78125" y2="362.2724055272435" style="visibility: inherit;" fill="rgb(0, 0, 0)" stroke="rgb(204, 204, 204)" stroke-width="1px"></line><line x1="74.78125" y1="327.72543934360226" x2="69.78125" y2="327.72543934360226" style="visibility: inherit;" fill="rgb(0, 0, 0)" stroke="rgb(204, 204, 204)" stroke-width="1px"></line><line x1="74.78125" y1="293.178473159961" x2="69.78125" y2="293.178473159961" style="visibility: inherit;" fill="rgb(0, 0, 0)" stroke="rgb(204, 204, 204)" stroke-width="1px"></line><line x1="74.78125" y1="258.63150697631977" x2="69.78125" y2="258.63150697631977" style="visibility: inherit;" fill="rgb(0, 0, 0)" stroke="rgb(204, 204, 204)" stroke-width="1px"></line><line x1="74.78125" y1="224.0845407926785" x2="69.78125" y2="224.0845407926785" style="visibility: inherit;" fill="rgb(0, 0, 0)" stroke="rgb(204, 204, 204)" stroke-width="1px"></line><line x1="74.78125" y1="189.5375746090373" x2="69.78125" y2="189.5375746090373" style="visibility: inherit;" fill="rgb(0, 0, 0)" stroke="rgb(204, 204, 204)" stroke-width="1px"></line><line x1="74.78125" y1="154.990608425396" x2="69.78125" y2="154.990608425396" style="visibility: inherit;" fill="rgb(0, 0, 0)" stroke="rgb(204, 204, 204)" stroke-width="1px"></line><line x1="74.78125" y1="120.44364224175477" x2="69.78125" y2="120.44364224175477" style="visibility: inherit;" fill="rgb(0, 0, 0)" stroke="rgb(204, 204, 204)" stroke-width="1px"></line><line x1="74.78125" y1="85.89667605811348" x2="69.78125" y2="85.89667605811348" style="visibility: inherit;" fill="rgb(0, 0, 0)" stroke="rgb(204, 204, 204)" stroke-width="1px"></line><line x1="74.78125" y1="51.34970987447223" x2="69.78125" y2="51.34970987447223" style="visibility: inherit;" fill="rgb(0, 0, 0)" stroke="rgb(204, 204, 204)" stroke-width="1px"></line><line x1="74.78125" y1="16.802743690830987" x2="69.78125" y2="16.802743690830987" style="visibility: inherit;" fill="rgb(0, 0, 0)" stroke="rgb(204, 204, 204)" stroke-width="1px"></line></g><g transform="translate(64.78125, 0)"><text x="0" y="362.2724055272435" dx="0em" dy="0.3em" style="text-anchor: end; visibility: inherit; font-family: Roboto, sans-serif; font-size: 12px; font-weight: 200;" fill="rgb(33, 33, 33)" stroke="none" stroke-width="1px">0</text><text x="0" y="327.72543934360226" dx="0em" dy="0.3em" style="text-anchor: end; visibility: inherit; font-family: Roboto, sans-serif; font-size: 12px; font-weight: 200;" fill="rgb(33, 33, 33)" stroke="none" stroke-width="1px">5e-6</text><text x="0" y="293.178473159961" dx="0em" dy="0.3em" style="text-anchor: end; visibility: inherit; font-family: Roboto, sans-serif; font-size: 12px; font-weight: 200;" fill="rgb(33, 33, 33)" stroke="none" stroke-width="1px">1e-5</text><text x="0" y="258.63150697631977" dx="0em" dy="0.3em" style="text-anchor: end; visibility: inherit; font-family: Roboto, sans-serif; font-size: 12px; font-weight: 200;" fill="rgb(33, 33, 33)" stroke="none" stroke-width="1px">1.5e-5</text><text x="0" y="224.0845407926785" dx="0em" dy="0.3em" style="text-anchor: end; visibility: inherit; font-family: Roboto, sans-serif; font-size: 12px; font-weight: 200;" fill="rgb(33, 33, 33)" stroke="none" stroke-width="1px">2e-5</text><text x="0" y="189.5375746090373" dx="0em" dy="0.3em" style="text-anchor: end; visibility: inherit; font-family: Roboto, sans-serif; font-size: 12px; font-weight: 200;" fill="rgb(33, 33, 33)" stroke="none" stroke-width="1px">2.5e-5</text><text x="0" y="154.990608425396" dx="0em" dy="0.3em" style="text-anchor: end; visibility: inherit; font-family: Roboto, sans-serif; font-size: 12px; font-weight: 200;" fill="rgb(33, 33, 33)" stroke="none" stroke-width="1px">3e-5</text><text x="0" y="120.44364224175477" dx="0em" dy="0.3em" style="text-anchor: end; visibility: inherit; font-family: Roboto, sans-serif; font-size: 12px; font-weight: 200;" fill="rgb(33, 33, 33)" stroke="none" stroke-width="1px">3.5e-5</text><text x="0" y="85.89667605811348" dx="0em" dy="0.3em" style="text-anchor: end; visibility: inherit; font-family: Roboto, sans-serif; font-size: 12px; font-weight: 200;" fill="rgb(33, 33, 33)" stroke="none" stroke-width="1px">4e-5</text><text x="0" y="51.34970987447223" dx="0em" dy="0.3em" style="text-anchor: end; visibility: inherit; font-family: Roboto, sans-serif; font-size: 12px; font-weight: 200;" fill="rgb(33, 33, 33)" stroke="none" stroke-width="1px">4.5e-5</text><text x="0" y="16.802743690830987" dx="0em" dy="0.3em" style="text-anchor: end; visibility: inherit; font-family: Roboto, sans-serif; font-size: 12px; font-weight: 200;" fill="rgb(33, 33, 33)" stroke="none" stroke-width="1px">5e-5</text></g><line x1="74.78125" y1="0" x2="74.78125" y2="376" fill="rgb(0, 0, 0)" stroke="rgb(204, 204, 204)" stroke-width="1px"></line></g></g><g transform="translate(74, 0)" clip-path="url(#clip_0)"><clipPath id="clip_0"><rect width="902" height="376"></rect></clipPath><g><g><g><line x1="25.08612563808303" y1="0" x2="25.08612563808303" y2="376" fill="rgb(0, 0, 0)" stroke="rgb(66, 66, 66)" stroke-width="1px" opacity="0.25"></line><line x1="90.59092903892476" y1="0" x2="90.59092903892476" y2="376" fill="rgb(0, 0, 0)" stroke="rgb(66, 66, 66)" stroke-width="1px" opacity="0.25"></line><line x1="156.0957324397665" y1="0" x2="156.0957324397665" y2="376" fill="rgb(0, 0, 0)" stroke="rgb(66, 66, 66)" stroke-width="1px" opacity="0.25"></line><line x1="221.60053584060822" y1="0" x2="221.60053584060822" y2="376" fill="rgb(0, 0, 0)" stroke="rgb(66, 66, 66)" stroke-width="1px" opacity="0.25"></line><line x1="287.10533924144994" y1="0" x2="287.10533924144994" y2="376" fill="rgb(0, 0, 0)" stroke="rgb(66, 66, 66)" stroke-width="1px" opacity="0.25"></line><line x1="352.61014264229163" y1="0" x2="352.61014264229163" y2="376" fill="rgb(0, 0, 0)" stroke="rgb(66, 66, 66)" stroke-width="1px" opacity="0.25"></line><line x1="418.1149460431334" y1="0" x2="418.1149460431334" y2="376" fill="rgb(0, 0, 0)" stroke="rgb(66, 66, 66)" stroke-width="1px" opacity="0.25"></line><line x1="483.6197494439751" y1="0" x2="483.6197494439751" y2="376" fill="rgb(0, 0, 0)" stroke="rgb(66, 66, 66)" stroke-width="1px" opacity="0.25"></line><line x1="549.1245528448168" y1="0" x2="549.1245528448168" y2="376" fill="rgb(0, 0, 0)" stroke="rgb(66, 66, 66)" stroke-width="1px" opacity="0.25"></line><line x1="614.6293562456585" y1="0" x2="614.6293562456585" y2="376" fill="rgb(0, 0, 0)" stroke="rgb(66, 66, 66)" stroke-width="1px" opacity="0.25"></line><line x1="680.1341596465003" y1="0" x2="680.1341596465003" y2="376" fill="rgb(0, 0, 0)" stroke="rgb(66, 66, 66)" stroke-width="1px" opacity="0.25"></line><line x1="745.638963047342" y1="0" x2="745.638963047342" y2="376" fill="rgb(0, 0, 0)" stroke="rgb(66, 66, 66)" stroke-width="1px" opacity="0.25"></line><line x1="811.1437664481838" y1="0" x2="811.1437664481838" y2="376" fill="rgb(0, 0, 0)" stroke="rgb(66, 66, 66)" stroke-width="1px" opacity="0.25"></line><line x1="876.6485698490254" y1="0" x2="876.6485698490254" y2="376" fill="rgb(0, 0, 0)" stroke="rgb(66, 66, 66)" stroke-width="1px" opacity="0.25"></line></g><g><line x1="0" y1="362.2724055272435" x2="902.21875" y2="362.2724055272435" fill="rgb(0, 0, 0)" stroke="rgb(66, 66, 66)" stroke-width="1px" opacity="0.25"></line><line x1="0" y1="327.72543934360226" x2="902.21875" y2="327.72543934360226" fill="rgb(0, 0, 0)" stroke="rgb(66, 66, 66)" stroke-width="1px" opacity="0.25"></line><line x1="0" y1="293.178473159961" x2="902.21875" y2="293.178473159961" fill="rgb(0, 0, 0)" stroke="rgb(66, 66, 66)" stroke-width="1px" opacity="0.25"></line><line x1="0" y1="258.63150697631977" x2="902.21875" y2="258.63150697631977" fill="rgb(0, 0, 0)" stroke="rgb(66, 66, 66)" stroke-width="1px" opacity="0.25"></line><line x1="0" y1="224.0845407926785" x2="902.21875" y2="224.0845407926785" fill="rgb(0, 0, 0)" stroke="rgb(66, 66, 66)" stroke-width="1px" opacity="0.25"></line><line x1="0" y1="189.5375746090373" x2="902.21875" y2="189.5375746090373" fill="rgb(0, 0, 0)" stroke="rgb(66, 66, 66)" stroke-width="1px" opacity="0.25"></line><line x1="0" y1="154.990608425396" x2="902.21875" y2="154.990608425396" fill="rgb(0, 0, 0)" stroke="rgb(66, 66, 66)" stroke-width="1px" opacity="0.25"></line><line x1="0" y1="120.44364224175477" x2="902.21875" y2="120.44364224175477" fill="rgb(0, 0, 0)" stroke="rgb(66, 66, 66)" stroke-width="1px" opacity="0.25"></line><line x1="0" y1="85.89667605811348" x2="902.21875" y2="85.89667605811348" fill="rgb(0, 0, 0)" stroke="rgb(66, 66, 66)" stroke-width="1px" opacity="0.25"></line><line x1="0" y1="51.34970987447223" x2="902.21875" y2="51.34970987447223" fill="rgb(0, 0, 0)" stroke="rgb(66, 66, 66)" stroke-width="1px" opacity="0.25"></line><line x1="0" y1="16.802743690830987" x2="902.21875" y2="16.802743690830987" fill="rgb(0, 0, 0)" stroke="rgb(66, 66, 66)" stroke-width="1px" opacity="0.25"></line></g></g></g><g><g><line x1="0" y1="362.2724055272435" x2="902.21875" y2="362.2724055272435" fill="rgb(0, 0, 0)" stroke="rgb(153, 153, 153)" stroke-width="1.5px"></line></g></g><g><g><line x1="25.08612563808303" y1="0" x2="25.08612563808303" y2="376" fill="rgb(0, 0, 0)" stroke="rgb(153, 153, 153)" stroke-width="1.5px"></line></g></g><g><g><g><g><g><path stroke="rgb(255, 112, 67)" stroke-width="2px" d="M28.361365808125118,18.170665846032378L31.6366059781672,18.854977283811216L34.911846148209285,19.53950843820968L38.187086318251374,20.224271889788067L41.462326488293456,20.90926008495083L44.737566658335545,21.59447890118822L48.012806828377634,22.279923657505357L51.288046998419716,22.965598316181147L54.563287168461805,23.651499472877155L57.83852733850389,24.337630132207618L61.113767508545976,25.023987615187217L64.38900767858806,25.710574345987574L67.66424784863014,26.397388114264707L70.93948801867224,27.084430953496057L74.21472818871432,27.7717009813571L77.48996835875641,28.459199949986694L80.7652085287985,29.14692621961393L84.04044869884058,29.834881329982117L87.31568886888267,30.523063827986334L90.59092903892476,31.211475087265335L93.86616920896684,31.900113802856275L97.14140937900892,32.58898006030379L100.41664954905102,33.278075035011895L103.6918897190931,33.96739758846041L106.96712988913518,34.65694879819712L110.24237005917726,35.34672761892387L113.51761022921936,36.03673504531746L116.79285039926144,36.72697011084305L120.06809056930352,37.41743373912583L123.3433307393456,38.10812503109242L126.61857090938769,38.799044848802545L129.89381107942978,39.49019235163112L133.1690512494719,40.18156834779085L136.44429141951397,40.87317204779528L139.71953158955606,41.56500421236872L142.99477175959814,42.25706409715208L146.27001192964022,42.94935242068446L149.5452520996823,43.64186847872547L152.8204922697244,44.33461295209177L156.0957324397665,45.02758517244696L159.37097260980858,45.72078578667672L162.64621277985066,46.41421415876654L165.92145294989274,47.10787090491844L169.19669311993482,47.80175541836702L172.4719332899769,48.49586828743664L175.74717346001898,49.190208931958246L179.0224136300611,49.88477791481012L182.29765380010318,50.579574680114675L185.57289397014526,51.27459976743433L188.84813414018734,51.96985264316126L192.12337431022942,52.66533382541495L195.3986144802715,53.36104280107864L198.6738546503136,54.0569800684832L201.94909482035567,54.753145133430024L205.22433499039775,55.449538475933394L208.49957516043986,56.146159619309444L211.77481533048197,56.8430090265695L215.05005550052405,57.540086237294936L218.32529567056613,58.23739169866636L221.60053584060822,58.934924965411L224.8757760106503,59.63268646993684L228.15101618069235,60.330675781104155L231.42625635073443,61.02889331750279L234.70149652077652,61.727338661216145L237.97673669081863,62.42601221787713L241.2519768608607,63.12491358196516L244.5272170309028,63.82404314694396L247.80245720094493,64.5234005189332L251.077697370987,65.22298607994352L254.3529375410291,65.92279944704958L257.6281777110712,66.62284099146184L260.9034178811133,67.32311034058242L264.17865805115537,68.02360785541973L267.45389822119745,68.72433317312739L270.72913839123953,69.42528664506345L274.0043785612816,70.12646791760272L277.2796187313237,70.82787733295928L280.5548589013658,71.52951454624151L283.83009907140786,72.23137989098602L287.10533924144994,72.9334730305852L290.380579411492,73.63579429033052L293.6558195815341,74.33834334148132L296.9310597515762,75.04112050148377L300.20629992161827,75.74412544907753L303.48154009166035,76.44735849423587L306.75678026170243,77.15081932281937L310.0320204317445,77.85450793614537L313.30726060178665,78.55842463349629L316.58250077182873,79.26256911068164L319.8577409418708,79.96694166034146L323.1329811119129,80.67154198462289L326.408221281955,81.37637036981208L329.68346145199706,82.081426524113L332.95870162203914,82.78671072772796L336.2339417920812,83.49222269465302L339.5091819621233,84.19796269926069L342.7844221321654,84.90393046109173L346.05966230220747,85.61012624892557L349.33490247224955,86.31654992089175L352.61014264229163,87.02320147245085L355.8853828123337,87.73008089901883L359.1606229823758,88.43718819596869L362.4358631524179,89.14452335862919L365.71110332245996,89.85208638228615L368.9863434925021,90.55987726218015L372.2615836625442,91.26789599350836L375.53682383258626,91.97614257142365L378.81206400262835,92.68461699103533L382.08730417267043,93.39331924740756L385.3625443427125,94.10224933556088L388.6377845127546,94.81140725047104L391.9130246827967,95.5207929870703L395.18826485283876,96.23040654024506L398.4635050228809,96.94024790483851L401.738745192923,97.65031707564894L405.01398536296506,98.36061404743006L408.28922553300714,99.07113881489086L411.5644657030492,99.78189137269598L414.8397058730913,100.49287160349517L418.1149460431334,101.2040796157021L421.39018621317547,101.91551540380132L424.66542638321755,102.62717896223337L427.94066655325963,103.33907028539649L431.21590672330177,104.05118936764455L434.49114689334385,104.7635362032888L437.76638706338593,105.47611078659654L441.041627233428,106.18891311179159L444.3168674034701,106.90194317305414L447.5921075735122,107.6152009645203L450.86734774355426,108.32868648028285L454.14258791359634,109.04239971439084L457.4178280836384,109.75634066084864L460.6930682536805,110.47050931361761L463.9683084237226,111.18490566661468L467.2435485937647,111.89952971371227L470.51878876380675,112.61438144873952L473.79402893384884,113.32946086548111L477.0692691038909,114.04476795767775L480.344509273933,114.7603027190252L483.6197494439751,115.47606514317567L486.8949896140172,116.19205522373694L490.1702297840593,116.90827295427279L493.4454699541014,117.62471832830168L496.72071012414347,118.34139133929878L499.99595029418555,119.05829198069416L503.27119046422763,119.77542024587366L506.5464306342697,120.49277612817899L509.8216708043118,121.21035962090693L513.0969109743538,121.92817071730965L516.372151144396,122.6462094105954L519.6473913144381,123.36447569392742L522.9226314844801,124.08296956042432L526.1978716545223,124.80169100316051L529.4731118245643,125.52064001516533L532.7483519946064,126.23981658942381L536.0235921646484,126.9592207188765L539.2988323346906,127.67885239641882L542.5740725047326,128.39871161490197L545.8493126747748,129.11879836713197L549.1245528448168,129.83911264587056L552.3997930148589,130.55965444383455L555.6750331849009,131.28042375369634L558.9502733549431,132.0014205680833L562.2255135249851,132.72264487957807L565.5007536950272,133.44409668071867L568.7759938650693,134.1657759639982L572.0512340351114,134.88768272186508L575.3264742051535,135.60981694672307L578.6017143751956,136.332178630931L581.8769545452377,137.0547677668029L585.1521947152797,137.77758434660802L588.4274348853219,138.50062836257095L591.7026750553639,139.22389980687123L594.977915225406,139.9473986716437L598.2531553954481,140.67112494897842L601.5283955654902,141.39507859199924L604.8036357355322,142.1192596320689L608.0788759055744,142.84366806113525L611.3541160756164,143.5683038711018L614.6293562456585,144.29316705382735L617.9045964157006,145.018257601126L621.1798365857427,145.7435755047669L624.4550767557847,146.46912075647492L627.730316925827,147.1948933479298L631.005557095869,147.920893270767L634.2807972659111,148.647120516577L637.5560374359532,149.37357507690567L640.8312776059953,150.100256943254L644.1065177760374,150.82716610707837L647.3817579460795,151.55430255979036L650.6569981161216,152.28166629275685L653.9322382861636,153.00925729730028L657.2074784562058,153.7370755646978L660.4827186262478,154.46512108618202L663.7579587962899,155.19339385294091L667.033198966332,155.92189385611792L670.3084391363741,156.65062108681116L673.5836793064161,157.37957553607438L676.8589194764583,158.1087571949165L680.1341596465003,158.83816605430164L683.4093998165424,159.56780207065387L686.6846399865844,160.29766526968592L689.9598801566266,161.02775564222264L693.2351203266686,161.7580731790442L696.5103604967107,162.48861787088637L699.7856006667529,163.21938970843985L703.0608408367949,163.95038868235088L706.336081006837,164.68161478322102L709.6113211768791,165.41306800160723L712.8865613469212,166.1447483280217L716.1618015169632,166.8766557529321L719.4370416870054,167.60879026676122L722.7122818570474,168.34115185988753L725.9875220270895,169.07374052264433L729.2627621971316,169.80655624532085L732.5380023671737,170.53959901816117L735.8132425372157,171.27286883136503L739.0884827072579,172.00636567508747L742.3637228772999,172.7400895394385L745.638963047342,173.4740404144839L748.914203217384,174.2082182902448L752.1894433874262,174.94262315669744L755.4646835574683,175.67725500377352L758.7399237275104,176.41211382136012L762.0151638975525,177.14719958371205L765.2904040675945,177.8825122963532L768.5656442376367,178.61805194903476L771.8408844076787,179.35381853146353L775.1161245777208,180.08981203330148L778.3913647477629,180.82603244416612L781.666604917805,181.5624797536304L784.941845087847,182.29915395122248L788.2170852578892,183.03605502642617L791.4923254279312,183.77318296868043L794.7675655979733,184.51053776737996L798.0428057680153,185.24811941187448L801.3180459380575,185.98592788402755L804.5932861080995,186.7239631806047L807.8685262781416,187.46222529082135L811.1437664481838,188.20071420384826L814.4190066182258,188.93942990881175L817.694246788268,189.67837239479374L820.96948695831,190.41754165083137L824.2447271283521,191.15693766229083L827.5199672983941,191.89656042177654L830.7952074684363,192.63640991819176L834.0704476384783,193.37648614039506L837.3456878085204,194.1167890754133L840.6209279785625,194.85731871203717L843.8961681486046,195.59807504078665L847.1714083186466,196.33905804857395L850.4466484886888,197.08026772515635" style="fill: none;" fill="none"></path></g></g></g></g><g opacity="0.2"><g><g><g><path stroke="rgb(255, 112, 67)" stroke-width="2px" d="M28.361365808125118,18.170665846032378L31.6366059781672,19.538604410162208L34.911846148209285,20.906517838065874L38.187086318251374,22.274456402195703L41.462326488293456,23.64236983009937L44.737566658335545,25.0103083942292L48.012806828377634,26.378221822132865L51.288046998419716,27.746160386262694L54.563287168461805,29.11407381416636L57.83852733850389,30.48201237829619L61.113767508545976,31.849925806199856L64.38900767858806,33.217864370329686L67.66424784863014,34.58577779823335L70.93948801867224,35.95371636236318L74.21472818871432,37.32162979026685L77.48996835875641,38.68956835439668L80.7652085287985,40.05748178230034L84.04044869884058,41.42542034643017L87.31568886888267,42.79333377433384L90.59092903892476,44.16127233846367L93.86616920896684,45.529185766367334L97.14140937900892,46.897099194270965L100.41664954905102,48.26503775840083L103.6918897190931,49.63295118630446L106.96712988913518,51.00088975043428L110.24237005917726,52.368803178337956L113.51761022921936,53.73674174246778L116.79285039926144,55.10465517037145L120.06809056930352,56.472593734501274L123.3433307393456,57.84050716240495L126.61857090938769,59.20844572653477L129.89381107942978,60.57635915443844L133.1690512494719,61.944297718568265L136.44429141951397,63.31221114647194L139.71953158955606,64.68014971060177L142.99477175959814,66.04806313850543L146.27001192964022,67.41600170263526L149.5452520996823,68.78391513053893L152.8204922697244,70.15185369466876L156.0957324397665,71.51976712257242L159.37097260980858,72.88770568670225L162.64621277985066,74.25561911460592L165.92145294989274,75.62355767873575L169.19669311993482,76.99147110663941L172.4719332899769,78.35940967076924L175.74717346001898,79.72732309867291L179.0224136300611,81.09526166280274L182.29765380010318,82.4631750907064L185.57289397014526,83.83111365483623L188.84813414018734,85.1990270827399L192.12337431022942,86.56696564686973L195.3986144802715,87.93487907477339L198.6738546503136,89.30281763890322L201.94909482035567,90.67073106680685L205.22433499039775,92.03866963093672L208.49957516043986,93.40658305884034L211.77481533048197,94.77452162297017L215.05005550052405,96.14243505087384L218.32529567056613,97.51037361500367L221.60053584060822,98.87828704290733L224.8757760106503,100.24622560703716L228.15101618069235,101.61413903494083L231.42625635073443,102.98207759907066L234.70149652077652,104.34999102697432L237.97673669081863,105.71792959110415L241.2519768608607,107.08584301900783L244.5272170309028,108.45378158313765L247.80245720094493,109.82169501104131L251.077697370987,111.18963357517114L254.3529375410291,112.55754700307482L257.6281777110712,113.92548556720465L260.9034178811133,115.2933989951083L264.17865805115537,116.66133755923813L267.45389822119745,118.02925098714181L270.72913839123953,119.39718955127164L274.0043785612816,120.7651029791753L277.2796187313237,122.13304154330513L280.5548589013658,123.5009549712088L283.83009907140786,124.86889353533863L287.10533924144994,126.23680696324229L290.380579411492,127.60474552737212L293.6558195815341,128.9726589552758L296.9310597515762,130.3405975194056L300.20629992161827,131.7085109473093L303.48154009166035,133.0764495114391L306.75678026170243,134.44436293934277L310.0320204317445,135.8122763672464L313.30726060178665,137.18021493137624L316.58250077182873,138.5481283592799L319.8577409418708,139.91606692340972L323.1329811119129,141.2839803513134L326.408221281955,142.65191891544322L329.68346145199706,144.0198323433469L332.95870162203914,145.38777090747672L336.2339417920812,146.75568433538038L339.5091819621233,148.12362289951022L342.7844221321654,149.49153632741388L346.05966230220747,150.8594748915437L349.33490247224955,152.22740088756046L352.61014264229163,153.5953268835772L355.8853828123337,154.96325287959397L359.1606229823758,156.3311788756107L362.4358631524179,157.69910487162744L365.71110332245996,159.0670308676442L368.9863434925021,160.43495686366094L372.2615836625442,161.80288285967768L375.53682383258626,163.17080885569445L378.81206400262835,164.53873485171118L382.08730417267043,165.90666084772795L385.3625443427125,167.2745868437447L388.6377845127546,168.64251283976142L391.9130246827967,170.0104388357782L395.18826485283876,171.37836483179493L398.4635050228809,172.74629082781166L401.738745192923,174.11421682382843L405.01398536296506,175.48214281984517L408.28922553300714,176.85006881586193L411.5644657030492,178.21799481187867L414.8397058730913,179.58590823978233L418.1149460431334,180.9538342357991L421.39018621317547,182.32176023181583L424.66542638321755,183.68968622783257L427.94066655325963,185.05761222384933L431.21590672330177,186.42553821986607L434.49114689334385,187.79346421588284L437.76638706338593,189.16139021189957L441.041627233428,190.5293162079163L444.3168674034701,191.89724220393308L447.5921075735122,193.2651681999498L450.86734774355426,194.63309419596655L454.14258791359634,196.00102019198332L457.4178280836384,197.36894618800005L460.6930682536805,198.73687218401682L463.9683084237226,200.10479818003355L467.2435485937647,201.4727241760503L470.51878876380675,202.84065017206706L473.79402893384884,204.2085761680838L477.0692691038909,205.57650216410053L480.344509273933,206.9444281601173L483.6197494439751,208.31235415613403L486.8949896140172,209.6802801521508L490.1702297840593,211.04820614816754L493.4454699541014,212.41613214418427L496.72071012414347,213.78405814020104L499.99595029418555,215.15198413621775L503.27119046422763,216.5199101322345L506.5464306342697,217.88783612825122L509.8216708043118,219.255762124268L513.0969109743538,220.62368812028473L516.372151144396,221.99161411630146L519.6473913144381,223.35954011231823L522.9226314844801,224.72746610833497L526.1978716545223,226.09539210435173L529.4731118245643,227.46331810036847L532.7483519946064,228.8312440963852L536.0235921646484,230.19917009240197L539.2988323346906,231.5670960884187L542.5740725047326,232.93502208443545L545.8493126747748,234.3029480804522L549.1245528448168,235.67087407646895L552.3997930148589,237.03880007248566L555.6750331849009,238.4067260685024L558.9502733549431,239.77465206451916L562.2255135249851,241.1425780605359L565.5007536950272,242.51050405655266L568.7759938650693,243.8784300525694L572.0512340351114,245.24635604858614L575.3264742051535,246.6142820446029L578.6017143751956,247.98220804061964L581.8769545452377,249.3501340366364L585.1521947152797,250.71806003265314L588.4274348853219,252.08598602866988L591.7026750553639,253.45391202468664L594.977915225406,254.82183802070338L598.2531553954481,256.1897640167201L601.5283955654902,257.55768372868033L604.8036357355322,258.92560972469704L608.0788759055744,260.2935357207138L611.3541160756164,261.66146171673057L614.6293562456585,263.0293877127473L617.9045964157006,264.39731370876405L621.1798365857427,265.7652397047808L624.4550767557847,267.1331657007976L627.730316925827,268.5010916968143L631.005557095869,269.86901769283105L634.2807972659111,271.2369436888478L637.5560374359532,272.6048696848645L640.8312776059953,273.9727956808813L644.1065177760374,275.34072167689806L647.3817579460795,276.70864767291476L650.6569981161216,278.07657366893153L653.9322382861636,279.4444996649483L657.2074784562058,280.812425660965L660.4827186262478,282.18035165698177L663.7579587962899,283.54827765299854L667.033198966332,284.9162036490153L670.3084391363741,286.284129645032L673.5836793064161,287.6520556410488L676.8589194764583,289.01998163706554L680.1341596465003,290.38790763308225L683.4093998165424,291.75582734504246L686.6846399865844,293.1237533410592L689.9598801566266,294.49167933707594L693.2351203266686,295.8596053330927L696.5103604967107,297.22753132910947L699.7856006667529,298.5954573251262L703.0608408367949,299.96338332114294L706.336081006837,301.3313093171597L709.6113211768791,302.6992353131764L712.8865613469212,304.0671613091932L716.1618015169632,305.43508730520995L719.4370416870054,306.80301330122666L722.7122818570474,308.1709392972434L725.9875220270895,309.5388652932602L729.2627621971316,310.9067912892769L732.5380023671737,312.27471728529366L735.8132425372157,313.6426432813104L739.0884827072579,315.01056927732714L742.3637228772999,316.3784952733439L745.638963047342,317.74642126936067L748.914203217384,319.11434726537743L752.1894433874262,320.48227326139414L755.4646835574683,321.8501992574109L758.7399237275104,323.2181252534277L762.0151638975525,324.5860481074161L765.2904040675945,325.95397410343287L768.5656442376367,327.32190009944964L771.8408844076787,328.68982609546634L775.1161245777208,330.0577520914831L778.3913647477629,331.4256780874999L781.666604917805,332.7936040835166L784.941845087847,334.16153007953335L788.2170852578892,335.5294560755501L791.4923254279312,336.8973820715668L794.7675655979733,338.2653080675836L798.0428057680153,339.63323406360036L801.3180459380575,341.0011584886029L804.5932861080995,342.3690844846197L807.8685262781416,343.73701048063646L811.1437664481838,345.1049364766532L814.4190066182258,346.47286247266993L817.694246788268,347.84078846868664L820.96948695831,349.2087144647034L824.2447271283521,350.5766396752131L827.5199672983941,351.94456567122984L830.7952074684363,353.31249166724655L834.0704476384783,354.6804176632633L837.3456878085204,356.04834326652656L840.6209279785625,357.41626886978975L843.8961681486046,358.7841948658065L847.1714083186466,360.1521204690697L850.4466484886888,361.5200463178039" style="fill: none;" fill="none"></path></g></g></g></g></g></g><g transform="translate(74, 376)" clip-path="url(#clip_1)"><clipPath id="clip_1"><rect width="902" height="24"></rect></clipPath><g><g><line x1="25.08612563808303" y1="0" x2="25.08612563808303" y2="5" style="visibility: inherit;" fill="rgb(0, 0, 0)" stroke="rgb(204, 204, 204)" stroke-width="1px"></line><line x1="90.59092903892476" y1="0" x2="90.59092903892476" y2="5" style="visibility: inherit;" fill="rgb(0, 0, 0)" stroke="rgb(204, 204, 204)" stroke-width="1px"></line><line x1="156.0957324397665" y1="0" x2="156.0957324397665" y2="5" style="visibility: inherit;" fill="rgb(0, 0, 0)" stroke="rgb(204, 204, 204)" stroke-width="1px"></line><line x1="221.60053584060822" y1="0" x2="221.60053584060822" y2="5" style="visibility: inherit;" fill="rgb(0, 0, 0)" stroke="rgb(204, 204, 204)" stroke-width="1px"></line><line x1="287.10533924144994" y1="0" x2="287.10533924144994" y2="5" style="visibility: inherit;" fill="rgb(0, 0, 0)" stroke="rgb(204, 204, 204)" stroke-width="1px"></line><line x1="352.61014264229163" y1="0" x2="352.61014264229163" y2="5" style="visibility: inherit;" fill="rgb(0, 0, 0)" stroke="rgb(204, 204, 204)" stroke-width="1px"></line><line x1="418.1149460431334" y1="0" x2="418.1149460431334" y2="5" style="visibility: inherit;" fill="rgb(0, 0, 0)" stroke="rgb(204, 204, 204)" stroke-width="1px"></line><line x1="483.6197494439751" y1="0" x2="483.6197494439751" y2="5" style="visibility: inherit;" fill="rgb(0, 0, 0)" stroke="rgb(204, 204, 204)" stroke-width="1px"></line><line x1="549.1245528448168" y1="0" x2="549.1245528448168" y2="5" style="visibility: inherit;" fill="rgb(0, 0, 0)" stroke="rgb(204, 204, 204)" stroke-width="1px"></line><line x1="614.6293562456585" y1="0" x2="614.6293562456585" y2="5" style="visibility: inherit;" fill="rgb(0, 0, 0)" stroke="rgb(204, 204, 204)" stroke-width="1px"></line><line x1="680.1341596465003" y1="0" x2="680.1341596465003" y2="5" style="visibility: inherit;" fill="rgb(0, 0, 0)" stroke="rgb(204, 204, 204)" stroke-width="1px"></line><line x1="745.638963047342" y1="0" x2="745.638963047342" y2="5" style="visibility: inherit;" fill="rgb(0, 0, 0)" stroke="rgb(204, 204, 204)" stroke-width="1px"></line><line x1="811.1437664481838" y1="0" x2="811.1437664481838" y2="5" style="visibility: inherit;" fill="rgb(0, 0, 0)" stroke="rgb(204, 204, 204)" stroke-width="1px"></line><line x1="876.6485698490254" y1="0" x2="876.6485698490254" y2="5" style="visibility: inherit;" fill="rgb(0, 0, 0)" stroke="rgb(204, 204, 204)" stroke-width="1px"></line></g><g transform="translate(0, 8)"><text x="25.08612563808303" y="0" dx="0em" dy="0.95em" style="text-anchor: middle; visibility: inherit; font-family: Roboto, sans-serif; font-size: 12px; font-weight: 200;" fill="rgb(33, 33, 33)" stroke="none" stroke-width="1px">0</text><text x="90.59092903892476" y="0" dx="0em" dy="0.95em" style="text-anchor: middle; visibility: inherit; font-family: Roboto, sans-serif; font-size: 12px; font-weight: 200;" fill="rgb(33, 33, 33)" stroke="none" stroke-width="1px">2k</text><text x="156.0957324397665" y="0" dx="0em" dy="0.95em" style="text-anchor: middle; visibility: inherit; font-family: Roboto, sans-serif; font-size: 12px; font-weight: 200;" fill="rgb(33, 33, 33)" stroke="none" stroke-width="1px">4k</text><text x="221.60053584060822" y="0" dx="0em" dy="0.95em" style="text-anchor: middle; visibility: inherit; font-family: Roboto, sans-serif; font-size: 12px; font-weight: 200;" fill="rgb(33, 33, 33)" stroke="none" stroke-width="1px">6k</text><text x="287.10533924144994" y="0" dx="0em" dy="0.95em" style="text-anchor: middle; visibility: inherit; font-family: Roboto, sans-serif; font-size: 12px; font-weight: 200;" fill="rgb(33, 33, 33)" stroke="none" stroke-width="1px">8k</text><text x="352.61014264229163" y="0" dx="0em" dy="0.95em" style="text-anchor: middle; visibility: inherit; font-family: Roboto, sans-serif; font-size: 12px; font-weight: 200;" fill="rgb(33, 33, 33)" stroke="none" stroke-width="1px">10k</text><text x="418.1149460431334" y="0" dx="0em" dy="0.95em" style="text-anchor: middle; visibility: inherit; font-family: Roboto, sans-serif; font-size: 12px; font-weight: 200;" fill="rgb(33, 33, 33)" stroke="none" stroke-width="1px">12k</text><text x="483.6197494439751" y="0" dx="0em" dy="0.95em" style="text-anchor: middle; visibility: inherit; font-family: Roboto, sans-serif; font-size: 12px; font-weight: 200;" fill="rgb(33, 33, 33)" stroke="none" stroke-width="1px">14k</text><text x="549.1245528448168" y="0" dx="0em" dy="0.95em" style="text-anchor: middle; visibility: inherit; font-family: Roboto, sans-serif; font-size: 12px; font-weight: 200;" fill="rgb(33, 33, 33)" stroke="none" stroke-width="1px">16k</text><text x="614.6293562456585" y="0" dx="0em" dy="0.95em" style="text-anchor: middle; visibility: inherit; font-family: Roboto, sans-serif; font-size: 12px; font-weight: 200;" fill="rgb(33, 33, 33)" stroke="none" stroke-width="1px">18k</text><text x="680.1341596465003" y="0" dx="0em" dy="0.95em" style="text-anchor: middle; visibility: inherit; font-family: Roboto, sans-serif; font-size: 12px; font-weight: 200;" fill="rgb(33, 33, 33)" stroke="none" stroke-width="1px">20k</text><text x="745.638963047342" y="0" dx="0em" dy="0.95em" style="text-anchor: middle; visibility: inherit; font-family: Roboto, sans-serif; font-size: 12px; font-weight: 200;" fill="rgb(33, 33, 33)" stroke="none" stroke-width="1px">22k</text><text x="811.1437664481838" y="0" dx="0em" dy="0.95em" style="text-anchor: middle; visibility: inherit; font-family: Roboto, sans-serif; font-size: 12px; font-weight: 200;" fill="rgb(33, 33, 33)" stroke="none" stroke-width="1px">24k</text><text x="876.6485698490254" y="0" dx="0em" dy="0.95em" style="text-anchor: middle; visibility: inherit; font-family: Roboto, sans-serif; font-size: 12px; font-weight: 200;" fill="rgb(33, 33, 33)" stroke="none" stroke-width="1px">26k</text></g><line x1="0" y1="0" x2="902.21875" y2="0" fill="rgb(0, 0, 0)" stroke="rgb(204, 204, 204)" stroke-width="1px"></line></g></g></g></g></svg>