<svg viewBox="0 0 977 400" xmlns="http://www.w3.org/2000/svg"><g><g><g><g><g><line x1="53.1875" y1="359.25565099082553" x2="48.1875" y2="359.25565099082553" style="visibility: inherit;" fill="rgb(0, 0, 0)" stroke="rgb(204, 204, 204)" stroke-width="1px"></line><line x1="53.1875" y1="316.3806467386799" x2="48.1875" y2="316.3806467386799" style="visibility: inherit;" fill="rgb(0, 0, 0)" stroke="rgb(204, 204, 204)" stroke-width="1px"></line><line x1="53.1875" y1="273.5056424865342" x2="48.1875" y2="273.5056424865342" style="visibility: inherit;" fill="rgb(0, 0, 0)" stroke="rgb(204, 204, 204)" stroke-width="1px"></line><line x1="53.1875" y1="230.6306382343886" x2="48.1875" y2="230.6306382343886" style="visibility: inherit;" fill="rgb(0, 0, 0)" stroke="rgb(204, 204, 204)" stroke-width="1px"></line><line x1="53.1875" y1="187.75563398224298" x2="48.1875" y2="187.75563398224298" style="visibility: inherit;" fill="rgb(0, 0, 0)" stroke="rgb(204, 204, 204)" stroke-width="1px"></line><line x1="53.1875" y1="144.88062973009735" x2="48.1875" y2="144.88062973009735" style="visibility: inherit;" fill="rgb(0, 0, 0)" stroke="rgb(204, 204, 204)" stroke-width="1px"></line><line x1="53.1875" y1="102.00562547795167" x2="48.1875" y2="102.00562547795167" style="visibility: inherit;" fill="rgb(0, 0, 0)" stroke="rgb(204, 204, 204)" stroke-width="1px"></line><line x1="53.1875" y1="59.130621225806024" x2="48.1875" y2="59.130621225806024" style="visibility: inherit;" fill="rgb(0, 0, 0)" stroke="rgb(204, 204, 204)" stroke-width="1px"></line><line x1="53.1875" y1="16.255616973660388" x2="48.1875" y2="16.255616973660388" style="visibility: inherit;" fill="rgb(0, 0, 0)" stroke="rgb(204, 204, 204)" stroke-width="1px"></line></g><g transform="translate(43.1875, 0)"><text x="0" y="359.25565099082553" dx="0em" dy="0.3em" style="text-anchor: end; visibility: inherit; font-family: Roboto, sans-serif; font-size: 12px; font-weight: 200;" fill="rgb(33, 33, 33)" stroke="none" stroke-width="1px">0.1</text><text x="0" y="316.3806467386799" dx="0em" dy="0.3em" style="text-anchor: end; visibility: inherit; font-family: Roboto, sans-serif; font-size: 12px; font-weight: 200;" fill="rgb(33, 33, 33)" stroke="none" stroke-width="1px">0.15</text><text x="0" y="273.5056424865342" dx="0em" dy="0.3em" style="text-anchor: end; visibility: inherit; font-family: Roboto, sans-serif; font-size: 12px; font-weight: 200;" fill="rgb(33, 33, 33)" stroke="none" stroke-width="1px">0.2</text><text x="0" y="230.6306382343886" dx="0em" dy="0.3em" style="text-anchor: end; visibility: inherit; font-family: Roboto, sans-serif; font-size: 12px; font-weight: 200;" fill="rgb(33, 33, 33)" stroke="none" stroke-width="1px">0.25</text><text x="0" y="187.75563398224298" dx="0em" dy="0.3em" style="text-anchor: end; visibility: inherit; font-family: Roboto, sans-serif; font-size: 12px; font-weight: 200;" fill="rgb(33, 33, 33)" stroke="none" stroke-width="1px">0.3</text><text x="0" y="144.88062973009735" dx="0em" dy="0.3em" style="text-anchor: end; visibility: inherit; font-family: Roboto, sans-serif; font-size: 12px; font-weight: 200;" fill="rgb(33, 33, 33)" stroke="none" stroke-width="1px">0.35</text><text x="0" y="102.00562547795167" dx="0em" dy="0.3em" style="text-anchor: end; visibility: inherit; font-family: Roboto, sans-serif; font-size: 12px; font-weight: 200;" fill="rgb(33, 33, 33)" stroke="none" stroke-width="1px">0.4</text><text x="0" y="59.130621225806024" dx="0em" dy="0.3em" style="text-anchor: end; visibility: inherit; font-family: Roboto, sans-serif; font-size: 12px; font-weight: 200;" fill="rgb(33, 33, 33)" stroke="none" stroke-width="1px">0.45</text><text x="0" y="16.255616973660388" dx="0em" dy="0.3em" style="text-anchor: end; visibility: inherit; font-family: Roboto, sans-serif; font-size: 12px; font-weight: 200;" fill="rgb(33, 33, 33)" stroke="none" stroke-width="1px">0.5</text></g><line x1="53.1875" y1="0" x2="53.1875" y2="376" fill="rgb(0, 0, 0)" stroke="rgb(204, 204, 204)" stroke-width="1px"></line></g></g><g transform="translate(53, 0)" clip-path="url(#clip_0)"><clipPath id="clip_0"><rect width="923" height="376"></rect></clipPath><g><g><g><line x1="10.251515641743193" y1="0" x2="10.251515641743193" y2="376" fill="rgb(0, 0, 0)" stroke="rgb(66, 66, 66)" stroke-width="1px" opacity="0.25"></line><line x1="80.11734628355174" y1="0" x2="80.11734628355174" y2="376" fill="rgb(0, 0, 0)" stroke="rgb(66, 66, 66)" stroke-width="1px" opacity="0.25"></line><line x1="149.98317692536028" y1="0" x2="149.98317692536028" y2="376" fill="rgb(0, 0, 0)" stroke="rgb(66, 66, 66)" stroke-width="1px" opacity="0.25"></line><line x1="219.84900756716883" y1="0" x2="219.84900756716883" y2="376" fill="rgb(0, 0, 0)" stroke="rgb(66, 66, 66)" stroke-width="1px" opacity="0.25"></line><line x1="289.71483820897737" y1="0" x2="289.71483820897737" y2="376" fill="rgb(0, 0, 0)" stroke="rgb(66, 66, 66)" stroke-width="1px" opacity="0.25"></line><line x1="359.58066885078597" y1="0" x2="359.58066885078597" y2="376" fill="rgb(0, 0, 0)" stroke="rgb(66, 66, 66)" stroke-width="1px" opacity="0.25"></line><line x1="429.44649949259446" y1="0" x2="429.44649949259446" y2="376" fill="rgb(0, 0, 0)" stroke="rgb(66, 66, 66)" stroke-width="1px" opacity="0.25"></line><line x1="499.312330134403" y1="0" x2="499.312330134403" y2="376" fill="rgb(0, 0, 0)" stroke="rgb(66, 66, 66)" stroke-width="1px" opacity="0.25"></line><line x1="569.1781607762115" y1="0" x2="569.1781607762115" y2="376" fill="rgb(0, 0, 0)" stroke="rgb(66, 66, 66)" stroke-width="1px" opacity="0.25"></line><line x1="639.04399141802" y1="0" x2="639.04399141802" y2="376" fill="rgb(0, 0, 0)" stroke="rgb(66, 66, 66)" stroke-width="1px" opacity="0.25"></line><line x1="708.9098220598286" y1="0" x2="708.9098220598286" y2="376" fill="rgb(0, 0, 0)" stroke="rgb(66, 66, 66)" stroke-width="1px" opacity="0.25"></line><line x1="778.7756527016371" y1="0" x2="778.7756527016371" y2="376" fill="rgb(0, 0, 0)" stroke="rgb(66, 66, 66)" stroke-width="1px" opacity="0.25"></line><line x1="848.6414833434457" y1="0" x2="848.6414833434457" y2="376" fill="rgb(0, 0, 0)" stroke="rgb(66, 66, 66)" stroke-width="1px" opacity="0.25"></line><line x1="918.5073139852542" y1="0" x2="918.5073139852542" y2="376" fill="rgb(0, 0, 0)" stroke="rgb(66, 66, 66)" stroke-width="1px" opacity="0.25"></line></g><g><line x1="0" y1="359.25565099082553" x2="923.8125" y2="359.25565099082553" fill="rgb(0, 0, 0)" stroke="rgb(66, 66, 66)" stroke-width="1px" opacity="0.25"></line><line x1="0" y1="316.3806467386799" x2="923.8125" y2="316.3806467386799" fill="rgb(0, 0, 0)" stroke="rgb(66, 66, 66)" stroke-width="1px" opacity="0.25"></line><line x1="0" y1="273.5056424865342" x2="923.8125" y2="273.5056424865342" fill="rgb(0, 0, 0)" stroke="rgb(66, 66, 66)" stroke-width="1px" opacity="0.25"></line><line x1="0" y1="230.6306382343886" x2="923.8125" y2="230.6306382343886" fill="rgb(0, 0, 0)" stroke="rgb(66, 66, 66)" stroke-width="1px" opacity="0.25"></line><line x1="0" y1="187.75563398224298" x2="923.8125" y2="187.75563398224298" fill="rgb(0, 0, 0)" stroke="rgb(66, 66, 66)" stroke-width="1px" opacity="0.25"></line><line x1="0" y1="144.88062973009735" x2="923.8125" y2="144.88062973009735" fill="rgb(0, 0, 0)" stroke="rgb(66, 66, 66)" stroke-width="1px" opacity="0.25"></line><line x1="0" y1="102.00562547795167" x2="923.8125" y2="102.00562547795167" fill="rgb(0, 0, 0)" stroke="rgb(66, 66, 66)" stroke-width="1px" opacity="0.25"></line><line x1="0" y1="59.130621225806024" x2="923.8125" y2="59.130621225806024" fill="rgb(0, 0, 0)" stroke="rgb(66, 66, 66)" stroke-width="1px" opacity="0.25"></line><line x1="0" y1="16.255616973660388" x2="923.8125" y2="16.255616973660388" fill="rgb(0, 0, 0)" stroke="rgb(66, 66, 66)" stroke-width="1px" opacity="0.25"></line></g></g></g><g><g><line x1="0" y1="445.00565949511684" x2="923.8125" y2="445.00565949511684" fill="rgb(0, 0, 0)" stroke="rgb(153, 153, 153)" stroke-width="1.5px"></line></g></g><g><g><line x1="10.251515641743193" y1="0" x2="10.251515641743193" y2="376" fill="rgb(0, 0, 0)" stroke="rgb(153, 153, 153)" stroke-width="1.5px"></line></g></g><g><g><g><g><g><path stroke="rgb(255, 112, 67)" stroke-width="2px" d="M13.74480717383362,15.741133768816297L17.23809870592405,72.23575280553757L20.731390238014473,79.73696285243177L24.2246817701049,92.29013237069866L27.71797330219533,102.60589252330142L31.211264834285757,106.10178289884809L34.70455636637618,109.34833963917661L38.19784789846661,114.88107652182019L41.69113943055704,114.72657781170957L45.18443096264746,117.2904399641167L48.67772249473789,123.33673432807574L52.171014026828324,125.55869853084843L55.66430555891875,126.5496167225102L59.15759709100917,130.45060624476915L62.6508886230996,131.6381184479877L66.14418015519003,135.24743904537507L69.63747168728047,136.4847259867283L73.13076321937088,140.25103696178547L76.62405475146132,142.97878171554223L80.11734628355174,143.76299182585208L83.61063781564216,146.04387779275615L87.10392934773259,147.65656219549197L90.59722087982303,150.00728723581054L94.09051241191345,152.74399234515616L97.58380394400388,152.05423342134335L101.0770954760943,154.16259603094983L104.57038700818472,154.95007363639164L108.06367854027516,157.05328708598736L111.55697007236557,158.36976294274203L115.05026160445601,160.15526650561668L118.54355313654645,160.5255369551472L122.03684466863686,162.9654600397063L125.53013620072728,164.1036869042661L129.02342773281774,163.11869312822063L132.51671926490815,163.80972509281202L136.01001079699856,165.4294931687778L139.503302329089,166.5298997381792L142.99659386117943,167.57927930370866L146.48988539326984,169.3299786308699L149.98317692536028,170.8794682402536L153.47646845745072,171.68768455073752L156.96975998954113,172.20735068326394L160.46305152163157,172.780225035665L163.95634305372198,173.5042614715642L167.44963458581242,174.55256068350104L170.94292611790286,174.7374276452024L174.43621764999327,175.857143953166L177.92950918208368,176.6485645115946L181.42280071417414,177.48474714512815L184.91609224626455,178.3665578151131L188.40938377835496,178.42429325425036L191.90267531044543,179.87526265484135L195.39596684253584,180.46120595862914L198.88925837462625,181.13957276224875L202.3825499067167,181.3384171270188L205.87584143880713,181.95507343794142L209.36913297089754,182.3830201048431L212.86242450298798,182.83879383966558L216.35571603507842,183.3583994619937L219.84900756716883,183.14393468644593L223.34229909925926,183.68095352138295L226.83559063134967,184.56134370947436L230.3288821634401,185.52467290175866L233.82217369553052,186.02931143115646L237.31546522762096,187.00325755119465L240.8087567597114,188.19191286379402L244.3020482918018,188.07276601620612L247.79533982389225,188.19832039135238L251.2886313559827,188.82415005670524L254.7819228880731,189.14177434929826L258.27521442016354,189.95691057937472L261.768505952254,190.1016674183542L265.26179748434436,190.37150814446528L268.7550890164348,190.74219747887497L272.2483805485253,191.49917885349473L275.7416720806157,192.65081533490158L279.2349636127061,193.41169548971584L282.7282551447965,193.81609509269512L286.22154667688693,194.17978640884394L289.71483820897737,194.80415889055405L293.2081297410678,195.53538048233517L296.70142127315825,195.5966445578498L300.1947128052487,196.28163640094132L303.68800433733907,196.3099029479657L307.1812958694295,197.46713910891734L310.67458740151994,198.68689414060896L314.1678789336104,200.07814718021123L317.6611704657008,201.30345787459316L321.1544619977912,202.39653847820972L324.64775352988164,203.59576505481L328.1410450619721,204.32224831258173L331.63433659406246,205.15676947588938L335.12762812615296,206.1460881237987L338.6209196582434,206.971999019791L342.1142111903338,207.9195326918038L345.6075027224242,208.82203008435062L349.10079425451465,209.86352002584275L352.59408578660504,210.62023299752192L356.0873773186955,211.56624168534574L359.58066885078597,212.21861330473251L363.07396038287635,212.89820422991687L366.5672519149668,213.77747122113612L370.06054344705717,214.54507281013477L373.5538349791476,215.6588735632497L377.04712651123805,216.5837628584853L380.5404180433285,217.43749749817388L384.0337095754189,218.28455075111148L387.52700110750936,218.97273635629472L391.02029263959975,219.42834363762725L394.5135841716902,220.22782463604682L398.0068757037806,220.68166956597827L401.50016723587106,221.11365027568078L404.9934587679615,221.97675489360142L408.4867503000519,222.52559083576912L411.9800418321423,222.97335027139846L415.47333336423276,223.51041856344892L418.96662489632314,223.95756592184568L422.45991642841364,224.40097613385092L425.9532079605041,224.97520114690954L429.44649949259446,225.10477617247145L432.9397910246849,225.78497344099864L436.43308255677533,226.13311262656669L439.9263740888657,226.51779601961863L443.4196656209562,226.75295223835712L446.91295715304665,227.25276971940573L450.40624868513703,227.92998500862365L453.89954021722747,228.4506371503977L457.39283174931785,228.88181829606447L460.8861232814083,229.16395855444756L464.3794148134987,229.8636060849882L467.87270634558917,230.32219580494086L471.36599787767966,231.07255983036737L474.85928940977004,231.74348822456616L478.3525809418604,232.23147817207777L481.8458724739508,232.43667274491804L485.3391640060413,233.1147219348504L488.83245553813174,233.9194259991542L492.3257470702221,234.24168099306698L495.8190386023126,234.62269668745557L499.312330134403,234.82833858993067L502.8056216664934,234.96653709370298L506.2989131985839,235.55924608403987L509.7922047306743,235.89535805601645L513.2854962627647,236.3098759098257L516.7787877948551,236.73136638292152L520.2720793269456,237.07956091562266L523.765370859036,237.3270838113614L527.2586623911264,237.55194168556258L530.7519539232169,237.54468832541392L534.2452454553072,237.9061132443562L537.7385369873978,238.38688701903845L541.2318285194882,238.44800255396527L544.7251200515785,239.04117421844077L548.2184115836691,239.3101558339255L551.7117031157594,239.45448271469175L555.2049946478498,239.93875084737977L558.6982861799403,240.479956989405L562.1915777120307,240.729281706028L565.6848692441212,240.86526732074913L569.1781607762115,241.04302619670582L572.6714523083019,241.47966684409096L576.1647438403922,241.73038225960772L579.6580353724828,241.84466975659896L583.1513269045732,242.10488976258085L586.6446184366636,242.18444883057856L590.1379099687541,242.33029147231625L593.6312015008444,242.73965104247694L597.1244930329349,242.9235396743027L600.6177845650253,243.5043342564937L604.1110760971158,244.1111747344802L607.6043676292062,244.70490225099985L611.0976591612966,245.25753800995335L614.5909506933871,245.8992657004219L618.0842422254774,246.26579155169637L621.577533757568,246.86676263784472L625.0708252896584,247.26703386242886L628.5641168217487,247.7874637778803L632.0574083538393,248.35354445778336L635.5506998859296,248.81392031555293L639.04399141802,249.33264533941326L642.5372829501105,249.71361266506858L646.0305744822009,250.19494620229435L649.5238660142913,250.48188207365146L653.0171575463818,251.045164601313L656.5104490784722,251.57239927558882L660.0037406105625,252.004059539707L663.497032142653,252.623059434912L666.9903236747435,253.12393118395667L670.4836152068339,253.5154674078283L673.9769067389243,253.95487886903265L677.4701982710147,254.36650586222524L680.9634898031052,254.7870793368298L684.4567813351955,255.19790953916925L687.950072867286,255.69149434635182L691.4433643993765,256.189676803278L694.9366559314668,256.47713500928245L698.4299474635574,256.8441127803048L701.9232389956477,257.29278228110235L705.4165305277381,257.7131786074666L708.9098220598286,258.0016905030625L712.403113591919,258.17811627810556L715.8964051240094,258.60818234816696L719.3896966560999,258.910367064716L722.8829881881903,259.3010787781239L726.3762797202806,259.72403450762374L729.8695712523712,260.0646014067814L733.3628627844616,260.44128849893434L736.856154316552,260.6071285029933L740.3494458486425,260.9227076932457L743.8427373807328,261.1167143267483L747.3360289128233,261.17820788767244L750.8293204449137,261.3894231097227L754.3226119770042,261.6781741146067L757.8159035090946,262.03584598250643L761.3091950411849,262.36979777223667L764.8024865732755,262.5501928529898L768.2957781053658,262.85546286231306L771.7890696374562,263.0844071204741L775.2823611695468,263.44111958204894L778.7756527016371,263.8813812038488L782.2689442337276,264.1719679899688L785.762235765818,264.504270736942L789.2555272979084,264.712229209719L792.7488188299988,264.7628601981194L796.2421103620893,265.2239784044966L799.7354018941797,265.5093903990555L803.2286934262701,265.6715676279619L806.7219849583606,265.89621882390156L810.215276490451,266.1117803206288L813.7085680225414,266.36175191679575L817.2018595546318,266.6855956808044L820.6951510867223,266.9925607138318L824.1884426188127,267.0560485289882L827.6817341509031,267.38848673469795L831.1750256829936,267.6243611958617L834.6683172150839,267.8072617369907L838.1616087471743,268.05401010238353L841.6549002792649,268.1509637980833L845.1481918113552,268.4761139117093L848.6414833434457,268.63464706105526L852.1347748755361,268.64737613887786L855.6280664076265,268.6249081774269L859.121357939717,268.7353291844662L862.6146494718074,269.01665106063297L866.1079410038978,269.03138366968744L869.6012325359882,269.34391639450706L873.0945240680787,269.6421568106072L876.587815600169,269.96022353359336L880.0811071322595,270.22944827742117L883.57439866435,270.3411250767944L887.0676901964404,270.52449986051204L890.5609817285308,270.61560304503286L894.0542732606212,270.99471650455683L897.5475647927117,271.2997549152181L901.040856324802,271.62485538798774L904.5341478568926,272.0058448000763" style="fill: none;" fill="none"></path></g></g></g></g><g opacity="0.2"><g><g><g><path stroke="rgb(255, 112, 67)" stroke-width="2px" d="M13.74480717383362,15.741133768816297L17.23809870592405,128.67387722323286L20.731390238014473,94.71688681728007L24.2246817701049,129.87437210852778L27.71797330219533,143.76587863821058L31.211264834285757,123.52886628633385L34.70455636637618,128.75961590554226L38.19784789846661,153.45562751386717L41.69113943055704,113.49613712594586L45.18443096264746,140.2501326646352L48.67772249473789,183.46812742370986L52.171014026828324,149.85414285798242L55.66430555891875,138.36362609888948L59.15759709100917,180.80989605069797L62.6508886230996,148.13913921234945L66.14418015519003,188.95614420083427L69.63747168728047,156.11388444237306L73.13076321937088,203.70513977558656L76.62405475146132,191.61437557384616L80.11734628355174,158.51487421296287L83.61063781564216,191.1856310513114L87.10392934773259,181.1528763354294L90.59722087982303,201.13264708488407L94.09051241191345,214.93838937676347L97.58380394400388,135.70536917038365L101.0770954760943,206.1918937839797L104.57038700818472,175.15037635346087L108.06367854027516,213.05188281101778L111.55697007236557,194.70137702488677L115.05026160445601,211.16537624527209L118.54355313654645,171.46312745977278L122.03684466863686,237.4048885791173L125.53013620072728,199.93212664409515L129.02342773281774,131.16063123162607L132.51671926490815,186.8981347149759L136.01001079699856,221.1123922788447L139.503302329089,205.42014342121956L142.99659386117943,205.67738502364162L146.48988539326984,234.57514150824574L149.98317692536028,230.11612947405052L153.47646845745072,203.36213393536113L156.96975998954113,193.07213761705708L160.46305152163157,196.33064198821043L163.95634305372198,203.96238137800864L167.44963458581242,219.65463023563373L170.94292611790286,182.8678799810624L174.43621764999327,226.1716389779404L177.92950918208368,212.9661441287084L181.42280071417414,216.6533930223965L184.91609224626455,220.51214483619725L188.40938377835496,181.23864057323274L191.90267531044543,251.9823940115039L195.39596684253584,210.13638428008983L198.88925837462625,216.13888426205838L202.3825499067167,191.78587849395885L205.87584143880713,214.93838937676347L209.36913297089754,205.67738502364162L212.86242450298798,208.07837479423145L216.35571603507842,212.62313828848303L219.84900756716883,170.86288001712532L223.34229909925926,214.93838937676347L226.83559063134967,236.6331382163571L230.3288821634401,243.4073885610858L233.82217369553052,216.82489594250916L237.31546522762096,247.35189183494293L240.8087567597114,262.95838923251176L244.3020482918018,180.46689021047257L247.79533982389225,196.33064198821043L251.2886313559827,229.9446265539378L254.7819228880731,210.30788720020257L258.27521442016354,245.0366407466625L261.768505952254,200.01789088189852L265.26179748434436,209.10739231490766L268.7550890164348,216.82489594250916L272.2483805485253,245.46538526919724L275.7416720806157,275.82089101926533L279.2349636127061,249.06689548057597L282.7282551447965,223.7706492073506L286.22154667688693,221.4553981190701L289.71483820897737,242.20689367579092L293.2081297410678,251.72513963133483L296.70142127315825,200.3608967221239L300.1947128052487,250.1816389058145L303.68800433733907,198.56012883868755L307.1812958694295,290.65563805407396L310.67458740151994,298.0301486191971L314.1678789336104,314.6656507596951L317.6611704657008,303.3466496984618L321.1544619977912,294.42863840781837L324.64775352988164,305.66190078674225L328.1410450619721,266.8171410463125L331.63433659406246,277.707397585011L335.12762812615296,293.05664060241077L338.6209196582434,280.2798902757135L342.1142111903338,292.88515046004505L345.6075027224242,290.56989937176456L349.10079425451465,305.1473920264042L352.59408578660504,280.53714465588257L356.0873773186955,299.83089094713944L359.58066885078597,273.6771428510976L363.07396038287635,277.5358946648983L366.5672519149668,298.2016387615628L370.06054344705717,288.9406471861879L373.5538349791476,324.61264123777374L377.04712651123805,307.89140041496637L380.5404180433285,302.4891478756453L384.0337095754189,303.4324011585182L387.52700110750936,288.7691442660753L391.02029263959975,266.04539068355234L394.5135841716902,302.7463894780674L398.0068757037806,267.93189724929806L401.50016723587106,266.4741479838341L404.9934587679615,313.37939163659684L408.4867503000519,281.13739209853003L411.9800418321423,271.1903888427044L415.47333336423276,281.8233910012338L418.96662489632314,272.90539248833744L422.45991642841364,273.33413701087215L425.9532079605041,288.8548957261316L429.44649949259446,239.63438820734143L432.9397910246849,302.660650795758L436.43308255677533,265.78813630338334L439.9263740888657,270.67589286011327L443.4196656209562,253.95463925955897L446.91295715304665,285.51063989492195L450.40624868513703,307.4626431146846L453.89954021722747,290.0553906114265L457.39283174931785,280.2798902757135L460.8861232814083,263.04414069256813L464.3794148134987,314.4941478395824L467.87270634558917,286.1966387976257L471.36599787767966,323.15489197230977L474.85928940977004,314.6656507596951L478.3525809418604,292.9708891423544L481.8458724739508,258.1563969135851L485.3391640060413,318.69589271586153L488.83245553813174,336.188896679176L492.3257470702221,275.4778979567869L495.8190386023126,283.7098975669796L499.312330134403,261.50063996704785L502.8056216664934,253.01138597668609L506.2989131985839,313.4651430966532L509.7922047306743,280.3656417357699L513.2854962627647,291.5131398768905L516.7787877948551,293.22814352252345L520.2720793269456,284.052890629458L523.765370859036,270.9331472402824L527.2586623911264,268.27489031177646L530.7519539232169,236.5473867563008L534.2452454553072,287.91164244325876L537.7385369873978,305.3188949465169L541.2318285194882,247.00888599471756L544.7251200515785,322.6403959897187L548.2184115836691,277.45014320484194L551.7117031157594,260.0428907015838L555.2049946478498,309.4349011404867L558.6982861799403,318.6101412558052L562.1915777120307,276.93564722225085L565.6848692441212,260.72888960428764L569.1781607762115,267.1601468865379L572.6714523083019,306.00489384922065L576.1647438403922,278.9936439303623L579.6580353724828,258.92814727634527L583.1513269045732,281.2231435585864L586.6446184366636,254.211893639728L590.1379099687541,264.50188995803205L593.6312015008444,305.3188949465169L597.1244930329349,271.1903888427044L600.6177845650253,333.27339814824813L604.1110760971158,338.41839630740014L607.6043676292062,337.4751430245273L611.0976591612966,332.0729032629532L614.5909506933871,347.2506497491138L618.0842422254774,304.46139312370036L621.577533757568,342.79165049266555L625.0708252896584,311.49289784859815L628.5641168217487,331.72989742272784L632.0574083538393,340.1333999530332L635.5506998859296,323.8409036527606L639.04399141802,334.30240289117734L642.5372829501105,312.436151131471L646.0305744822009,329.8434036347291L649.5238660142913,298.2016387615628L653.0171575463818,345.1926466521289L656.5104490784722,340.1333999530332L660.0037406105625,324.8698956179428L663.497032142653,357.62640391634767L666.9903236747435,338.5041477674565L670.4836152068339,320.58239928160725L673.9769067389243,329.5861492545601L677.4701982710147,325.5558945206466L680.9634898031052,327.87114560892707L684.4567813351955,326.92789232605423L687.950072867286,342.277148121201L691.4433643993765,343.99215176683396L694.9366559314668,307.3768916546283L698.4299474635574,322.12590000712754L701.9232389956477,337.4751430245273L705.4165305277381,333.1876466881918L708.9098220598286,310.0351485831342L712.403113591919,290.1411420714828L715.8964051240094,336.87489558187985L719.3896966560999,314.151141999357L722.8829881881903,331.043898520024L726.3762797202806,337.73239740469637L729.8695712523712,323.15489197230977L733.3628627844616,330.52940253743293L736.856154316552,291.5988913369468L740.3494458486425,320.1536419813255L743.8427373807328,297.6871427789717L747.3360289128233,272.81964102828107L750.8293204449137,301.54589459277247L754.3226119770042,316.80939892786284L757.8159035090946,330.61515399748924L761.3091950411849,326.67065072363215L764.8024865732755,297.42990117654966L768.2957781053658,322.12590000712754L771.7890696374562,307.7198974948537L775.2823611695468,333.27339814824813L778.7756527016371,350.42340266021074L782.2689442337276,321.52565256448014L785.762235765818,330.35789961732024L789.2555272979084,306.090645309277L792.7488188299988,274.8776377363925L796.2421103620893,357.71214898753055L799.7354018941797,322.9834018299441L803.2286934262701,298.45889314173183L806.7219849583606,311.49289784859815L810.215276490451,310.0351485831342L813.7085680225414,317.4953978305666L817.2018595546318,333.1876466881918L820.6951510867223,330.27214815726387L824.1884426188127,280.1941388156572L827.6817341509031,336.4461510593451L831.1750256829936,316.80939892786284L834.6683172150839,306.090645309277L838.1616087471743,319.8964003789034L841.6549002792649,288.59764134596253L845.1481918113552,337.3036528821616L848.6414833434457,302.3176449555326L852.1347748755361,271.3618917628171L855.6280664076265,263.8158910553283L859.121357939717,292.4563931597633L862.6146494718074,329.6719007146164L866.1079410038978,272.2193935856336L869.6012325359882,337.2179014221053L873.0945240680787,334.64539595365574L876.587815600169,339.53314612151223L880.0811071322595,329.32889487439104L883.57439866435,294.9431471681565L887.0676901964404,311.06414054831635L890.5609817285308,290.82714097418665L894.0542732606212,355.39689789925006L897.5475647927117,339.4474010503294L901.040856324802,344.50664774942504L904.5341478568926,357.71214898753055" style="fill: none;" fill="none"></path></g></g></g></g></g></g><g transform="translate(53, 376)" clip-path="url(#clip_1)"><clipPath id="clip_1"><rect width="923" height="24"></rect></clipPath><g><g><line x1="10.251515641743193" y1="0" x2="10.251515641743193" y2="5" style="visibility: inherit;" fill="rgb(0, 0, 0)" stroke="rgb(204, 204, 204)" stroke-width="1px"></line><line x1="80.11734628355174" y1="0" x2="80.11734628355174" y2="5" style="visibility: inherit;" fill="rgb(0, 0, 0)" stroke="rgb(204, 204, 204)" stroke-width="1px"></line><line x1="149.98317692536028" y1="0" x2="149.98317692536028" y2="5" style="visibility: inherit;" fill="rgb(0, 0, 0)" stroke="rgb(204, 204, 204)" stroke-width="1px"></line><line x1="219.84900756716883" y1="0" x2="219.84900756716883" y2="5" style="visibility: inherit;" fill="rgb(0, 0, 0)" stroke="rgb(204, 204, 204)" stroke-width="1px"></line><line x1="289.71483820897737" y1="0" x2="289.71483820897737" y2="5" style="visibility: inherit;" fill="rgb(0, 0, 0)" stroke="rgb(204, 204, 204)" stroke-width="1px"></line><line x1="359.58066885078597" y1="0" x2="359.58066885078597" y2="5" style="visibility: inherit;" fill="rgb(0, 0, 0)" stroke="rgb(204, 204, 204)" stroke-width="1px"></line><line x1="429.44649949259446" y1="0" x2="429.44649949259446" y2="5" style="visibility: inherit;" fill="rgb(0, 0, 0)" stroke="rgb(204, 204, 204)" stroke-width="1px"></line><line x1="499.312330134403" y1="0" x2="499.312330134403" y2="5" style="visibility: inherit;" fill="rgb(0, 0, 0)" stroke="rgb(204, 204, 204)" stroke-width="1px"></line><line x1="569.1781607762115" y1="0" x2="569.1781607762115" y2="5" style="visibility: inherit;" fill="rgb(0, 0, 0)" stroke="rgb(204, 204, 204)" stroke-width="1px"></line><line x1="639.04399141802" y1="0" x2="639.04399141802" y2="5" style="visibility: inherit;" fill="rgb(0, 0, 0)" stroke="rgb(204, 204, 204)" stroke-width="1px"></line><line x1="708.9098220598286" y1="0" x2="708.9098220598286" y2="5" style="visibility: inherit;" fill="rgb(0, 0, 0)" stroke="rgb(204, 204, 204)" stroke-width="1px"></line><line x1="778.7756527016371" y1="0" x2="778.7756527016371" y2="5" style="visibility: inherit;" fill="rgb(0, 0, 0)" stroke="rgb(204, 204, 204)" stroke-width="1px"></line><line x1="848.6414833434457" y1="0" x2="848.6414833434457" y2="5" style="visibility: inherit;" fill="rgb(0, 0, 0)" stroke="rgb(204, 204, 204)" stroke-width="1px"></line><line x1="918.5073139852542" y1="0" x2="918.5073139852542" y2="5" style="visibility: inherit;" fill="rgb(0, 0, 0)" stroke="rgb(204, 204, 204)" stroke-width="1px"></line></g><g transform="translate(0, 8)"><text x="10.251515641743193" y="0" dx="0em" dy="0.95em" style="text-anchor: middle; visibility: inherit; font-family: Roboto, sans-serif; font-size: 12px; font-weight: 200;" fill="rgb(33, 33, 33)" stroke="none" stroke-width="1px">0</text><text x="80.11734628355174" y="0" dx="0em" dy="0.95em" style="text-anchor: middle; visibility: inherit; font-family: Roboto, sans-serif; font-size: 12px; font-weight: 200;" fill="rgb(33, 33, 33)" stroke="none" stroke-width="1px">2k</text><text x="149.98317692536028" y="0" dx="0em" dy="0.95em" style="text-anchor: middle; visibility: inherit; font-family: Roboto, sans-serif; font-size: 12px; font-weight: 200;" fill="rgb(33, 33, 33)" stroke="none" stroke-width="1px">4k</text><text x="219.84900756716883" y="0" dx="0em" dy="0.95em" style="text-anchor: middle; visibility: inherit; font-family: Roboto, sans-serif; font-size: 12px; font-weight: 200;" fill="rgb(33, 33, 33)" stroke="none" stroke-width="1px">6k</text><text x="289.71483820897737" y="0" dx="0em" dy="0.95em" style="text-anchor: middle; visibility: inherit; font-family: Roboto, sans-serif; font-size: 12px; font-weight: 200;" fill="rgb(33, 33, 33)" stroke="none" stroke-width="1px">8k</text><text x="359.58066885078597" y="0" dx="0em" dy="0.95em" style="text-anchor: middle; visibility: inherit; font-family: Roboto, sans-serif; font-size: 12px; font-weight: 200;" fill="rgb(33, 33, 33)" stroke="none" stroke-width="1px">10k</text><text x="429.44649949259446" y="0" dx="0em" dy="0.95em" style="text-anchor: middle; visibility: inherit; font-family: Roboto, sans-serif; font-size: 12px; font-weight: 200;" fill="rgb(33, 33, 33)" stroke="none" stroke-width="1px">12k</text><text x="499.312330134403" y="0" dx="0em" dy="0.95em" style="text-anchor: middle; visibility: inherit; font-family: Roboto, sans-serif; font-size: 12px; font-weight: 200;" fill="rgb(33, 33, 33)" stroke="none" stroke-width="1px">14k</text><text x="569.1781607762115" y="0" dx="0em" dy="0.95em" style="text-anchor: middle; visibility: inherit; font-family: Roboto, sans-serif; font-size: 12px; font-weight: 200;" fill="rgb(33, 33, 33)" stroke="none" stroke-width="1px">16k</text><text x="639.04399141802" y="0" dx="0em" dy="0.95em" style="text-anchor: middle; visibility: inherit; font-family: Roboto, sans-serif; font-size: 12px; font-weight: 200;" fill="rgb(33, 33, 33)" stroke="none" stroke-width="1px">18k</text><text x="708.9098220598286" y="0" dx="0em" dy="0.95em" style="text-anchor: middle; visibility: inherit; font-family: Roboto, sans-serif; font-size: 12px; font-weight: 200;" fill="rgb(33, 33, 33)" stroke="none" stroke-width="1px">20k</text><text x="778.7756527016371" y="0" dx="0em" dy="0.95em" style="text-anchor: middle; visibility: inherit; font-family: Roboto, sans-serif; font-size: 12px; font-weight: 200;" fill="rgb(33, 33, 33)" stroke="none" stroke-width="1px">22k</text><text x="848.6414833434457" y="0" dx="0em" dy="0.95em" style="text-anchor: middle; visibility: inherit; font-family: Roboto, sans-serif; font-size: 12px; font-weight: 200;" fill="rgb(33, 33, 33)" stroke="none" stroke-width="1px">24k</text><text x="918.5073139852542" y="0" dx="0em" dy="0.95em" style="text-anchor: middle; visibility: hidden; font-family: Roboto, sans-serif; font-size: 12px; font-weight: 200;" fill="rgb(33, 33, 33)" stroke="none" stroke-width="1px">26k</text></g><line x1="0" y1="0" x2="923.8125" y2="0" fill="rgb(0, 0, 0)" stroke="rgb(204, 204, 204)" stroke-width="1px"></line></g></g></g></g></svg>