<svg viewBox="0 0 977 400" xmlns="http://www.w3.org/2000/svg"><g><g><g><g><g><line x1="53.1875" y1="365.2771334161838" x2="48.1875" y2="365.2771334161838" style="visibility: inherit;" fill="rgb(0, 0, 0)" stroke="rgb(204, 204, 204)" stroke-width="1px"></line><line x1="53.1875" y1="330.93335429600813" x2="48.1875" y2="330.93335429600813" style="visibility: inherit;" fill="rgb(0, 0, 0)" stroke="rgb(204, 204, 204)" stroke-width="1px"></line><line x1="53.1875" y1="296.58957517583286" x2="48.1875" y2="296.58957517583286" style="visibility: inherit;" fill="rgb(0, 0, 0)" stroke="rgb(204, 204, 204)" stroke-width="1px"></line><line x1="53.1875" y1="262.2457960556572" x2="48.1875" y2="262.2457960556572" style="visibility: inherit;" fill="rgb(0, 0, 0)" stroke="rgb(204, 204, 204)" stroke-width="1px"></line><line x1="53.1875" y1="227.90201693548156" x2="48.1875" y2="227.90201693548156" style="visibility: inherit;" fill="rgb(0, 0, 0)" stroke="rgb(204, 204, 204)" stroke-width="1px"></line><line x1="53.1875" y1="193.55823781530592" x2="48.1875" y2="193.55823781530592" style="visibility: inherit;" fill="rgb(0, 0, 0)" stroke="rgb(204, 204, 204)" stroke-width="1px"></line><line x1="53.1875" y1="159.2144586951302" x2="48.1875" y2="159.2144586951302" style="visibility: inherit;" fill="rgb(0, 0, 0)" stroke="rgb(204, 204, 204)" stroke-width="1px"></line><line x1="53.1875" y1="124.87067957495455" x2="48.1875" y2="124.87067957495455" style="visibility: inherit;" fill="rgb(0, 0, 0)" stroke="rgb(204, 204, 204)" stroke-width="1px"></line><line x1="53.1875" y1="90.52690045477888" x2="48.1875" y2="90.52690045477888" style="visibility: inherit;" fill="rgb(0, 0, 0)" stroke="rgb(204, 204, 204)" stroke-width="1px"></line><line x1="53.1875" y1="56.183121334603236" x2="48.1875" y2="56.183121334603236" style="visibility: inherit;" fill="rgb(0, 0, 0)" stroke="rgb(204, 204, 204)" stroke-width="1px"></line><line x1="53.1875" y1="21.839342214427575" x2="48.1875" y2="21.839342214427575" style="visibility: inherit;" fill="rgb(0, 0, 0)" stroke="rgb(204, 204, 204)" stroke-width="1px"></line></g><g transform="translate(43.1875, 0)"><text x="0" y="365.2771334161838" dx="0em" dy="0.3em" style="text-anchor: end; visibility: inherit; font-family: Roboto, sans-serif; font-size: 12px; font-weight: 200;" fill="rgb(33, 33, 33)" stroke="none" stroke-width="1px">0.8</text><text x="0" y="330.93335429600813" dx="0em" dy="0.3em" style="text-anchor: end; visibility: inherit; font-family: Roboto, sans-serif; font-size: 12px; font-weight: 200;" fill="rgb(33, 33, 33)" stroke="none" stroke-width="1px">0.81</text><text x="0" y="296.58957517583286" dx="0em" dy="0.3em" style="text-anchor: end; visibility: inherit; font-family: Roboto, sans-serif; font-size: 12px; font-weight: 200;" fill="rgb(33, 33, 33)" stroke="none" stroke-width="1px">0.82</text><text x="0" y="262.2457960556572" dx="0em" dy="0.3em" style="text-anchor: end; visibility: inherit; font-family: Roboto, sans-serif; font-size: 12px; font-weight: 200;" fill="rgb(33, 33, 33)" stroke="none" stroke-width="1px">0.83</text><text x="0" y="227.90201693548156" dx="0em" dy="0.3em" style="text-anchor: end; visibility: inherit; font-family: Roboto, sans-serif; font-size: 12px; font-weight: 200;" fill="rgb(33, 33, 33)" stroke="none" stroke-width="1px">0.84</text><text x="0" y="193.55823781530592" dx="0em" dy="0.3em" style="text-anchor: end; visibility: inherit; font-family: Roboto, sans-serif; font-size: 12px; font-weight: 200;" fill="rgb(33, 33, 33)" stroke="none" stroke-width="1px">0.85</text><text x="0" y="159.2144586951302" dx="0em" dy="0.3em" style="text-anchor: end; visibility: inherit; font-family: Roboto, sans-serif; font-size: 12px; font-weight: 200;" fill="rgb(33, 33, 33)" stroke="none" stroke-width="1px">0.86</text><text x="0" y="124.87067957495455" dx="0em" dy="0.3em" style="text-anchor: end; visibility: inherit; font-family: Roboto, sans-serif; font-size: 12px; font-weight: 200;" fill="rgb(33, 33, 33)" stroke="none" stroke-width="1px">0.87</text><text x="0" y="90.52690045477888" dx="0em" dy="0.3em" style="text-anchor: end; visibility: inherit; font-family: Roboto, sans-serif; font-size: 12px; font-weight: 200;" fill="rgb(33, 33, 33)" stroke="none" stroke-width="1px">0.88</text><text x="0" y="56.183121334603236" dx="0em" dy="0.3em" style="text-anchor: end; visibility: inherit; font-family: Roboto, sans-serif; font-size: 12px; font-weight: 200;" fill="rgb(33, 33, 33)" stroke="none" stroke-width="1px">0.89</text><text x="0" y="21.839342214427575" dx="0em" dy="0.3em" style="text-anchor: end; visibility: inherit; font-family: Roboto, sans-serif; font-size: 12px; font-weight: 200;" fill="rgb(33, 33, 33)" stroke="none" stroke-width="1px">0.9</text></g><line x1="53.1875" y1="0" x2="53.1875" y2="376" fill="rgb(0, 0, 0)" stroke="rgb(204, 204, 204)" stroke-width="1px"></line></g></g><g transform="translate(53, 0)" clip-path="url(#clip_0)"><clipPath id="clip_0"><rect width="923" height="376"></rect></clipPath><g><g><g><line x1="34.53350509427753" y1="0" x2="34.53350509427753" y2="376" fill="rgb(0, 0, 0)" stroke="rgb(66, 66, 66)" stroke-width="1px" opacity="0.25"></line><line x1="97.98127105992769" y1="0" x2="97.98127105992769" y2="376" fill="rgb(0, 0, 0)" stroke="rgb(66, 66, 66)" stroke-width="1px" opacity="0.25"></line><line x1="161.42903702557788" y1="0" x2="161.42903702557788" y2="376" fill="rgb(0, 0, 0)" stroke="rgb(66, 66, 66)" stroke-width="1px" opacity="0.25"></line><line x1="224.87680299122806" y1="0" x2="224.87680299122806" y2="376" fill="rgb(0, 0, 0)" stroke="rgb(66, 66, 66)" stroke-width="1px" opacity="0.25"></line><line x1="288.3245689568783" y1="0" x2="288.3245689568783" y2="376" fill="rgb(0, 0, 0)" stroke="rgb(66, 66, 66)" stroke-width="1px" opacity="0.25"></line><line x1="351.7723349225285" y1="0" x2="351.7723349225285" y2="376" fill="rgb(0, 0, 0)" stroke="rgb(66, 66, 66)" stroke-width="1px" opacity="0.25"></line><line x1="415.2201008881786" y1="0" x2="415.2201008881786" y2="376" fill="rgb(0, 0, 0)" stroke="rgb(66, 66, 66)" stroke-width="1px" opacity="0.25"></line><line x1="478.66786685382885" y1="0" x2="478.66786685382885" y2="376" fill="rgb(0, 0, 0)" stroke="rgb(66, 66, 66)" stroke-width="1px" opacity="0.25"></line><line x1="542.115632819479" y1="0" x2="542.115632819479" y2="376" fill="rgb(0, 0, 0)" stroke="rgb(66, 66, 66)" stroke-width="1px" opacity="0.25"></line><line x1="605.5633987851292" y1="0" x2="605.5633987851292" y2="376" fill="rgb(0, 0, 0)" stroke="rgb(66, 66, 66)" stroke-width="1px" opacity="0.25"></line><line x1="669.0111647507794" y1="0" x2="669.0111647507794" y2="376" fill="rgb(0, 0, 0)" stroke="rgb(66, 66, 66)" stroke-width="1px" opacity="0.25"></line><line x1="732.4589307164296" y1="0" x2="732.4589307164296" y2="376" fill="rgb(0, 0, 0)" stroke="rgb(66, 66, 66)" stroke-width="1px" opacity="0.25"></line><line x1="795.9066966820798" y1="0" x2="795.9066966820798" y2="376" fill="rgb(0, 0, 0)" stroke="rgb(66, 66, 66)" stroke-width="1px" opacity="0.25"></line><line x1="859.3544626477299" y1="0" x2="859.3544626477299" y2="376" fill="rgb(0, 0, 0)" stroke="rgb(66, 66, 66)" stroke-width="1px" opacity="0.25"></line><line x1="922.8022286133801" y1="0" x2="922.8022286133801" y2="376" fill="rgb(0, 0, 0)" stroke="rgb(66, 66, 66)" stroke-width="1px" opacity="0.25"></line></g><g><line x1="0" y1="365.2771334161838" x2="923.8125" y2="365.2771334161838" fill="rgb(0, 0, 0)" stroke="rgb(66, 66, 66)" stroke-width="1px" opacity="0.25"></line><line x1="0" y1="330.93335429600813" x2="923.8125" y2="330.93335429600813" fill="rgb(0, 0, 0)" stroke="rgb(66, 66, 66)" stroke-width="1px" opacity="0.25"></line><line x1="0" y1="296.58957517583286" x2="923.8125" y2="296.58957517583286" fill="rgb(0, 0, 0)" stroke="rgb(66, 66, 66)" stroke-width="1px" opacity="0.25"></line><line x1="0" y1="262.2457960556572" x2="923.8125" y2="262.2457960556572" fill="rgb(0, 0, 0)" stroke="rgb(66, 66, 66)" stroke-width="1px" opacity="0.25"></line><line x1="0" y1="227.90201693548156" x2="923.8125" y2="227.90201693548156" fill="rgb(0, 0, 0)" stroke="rgb(66, 66, 66)" stroke-width="1px" opacity="0.25"></line><line x1="0" y1="193.55823781530592" x2="923.8125" y2="193.55823781530592" fill="rgb(0, 0, 0)" stroke="rgb(66, 66, 66)" stroke-width="1px" opacity="0.25"></line><line x1="0" y1="159.2144586951302" x2="923.8125" y2="159.2144586951302" fill="rgb(0, 0, 0)" stroke="rgb(66, 66, 66)" stroke-width="1px" opacity="0.25"></line><line x1="0" y1="124.87067957495455" x2="923.8125" y2="124.87067957495455" fill="rgb(0, 0, 0)" stroke="rgb(66, 66, 66)" stroke-width="1px" opacity="0.25"></line><line x1="0" y1="90.52690045477888" x2="923.8125" y2="90.52690045477888" fill="rgb(0, 0, 0)" stroke="rgb(66, 66, 66)" stroke-width="1px" opacity="0.25"></line><line x1="0" y1="56.183121334603236" x2="923.8125" y2="56.183121334603236" fill="rgb(0, 0, 0)" stroke="rgb(66, 66, 66)" stroke-width="1px" opacity="0.25"></line><line x1="0" y1="21.839342214427575" x2="923.8125" y2="21.839342214427575" fill="rgb(0, 0, 0)" stroke="rgb(66, 66, 66)" stroke-width="1px" opacity="0.25"></line></g></g></g><g><g><line x1="0" y1="3112.7794630302346" x2="923.8125" y2="3112.7794630302346" fill="rgb(0, 0, 0)" stroke="rgb(153, 153, 153)" stroke-width="1.5px"></line></g></g><g><g><line x1="34.53350509427753" y1="0" x2="34.53350509427753" y2="376" fill="rgb(0, 0, 0)" stroke="rgb(153, 153, 153)" stroke-width="1.5px"></line></g></g><g><g><g><g><g><path stroke="rgb(255, 112, 67)" stroke-width="2px" d="M37.705893392560036,300.6855395937021L40.87828169084255,257.34033185013993L44.050669989125055,232.3787678522735L47.22305828740757,214.96744895946918L50.395446585690074,237.67035804705262L53.56783488397258,217.27033854336992L56.74022318225509,210.03525139652504L59.912611480537606,205.10298328820838L63.08499977882011,196.87313364768804L66.25738807710262,200.17991684832495L69.42977637538512,202.52562096986375L72.60216467366763,198.87006124212903L75.77455297195014,200.65344948729205L78.94694127023266,196.80211236042877L82.11932956851516,191.87784238438135L85.29171786679767,188.06513499446604L88.46410616508018,186.5692721628733L91.6364944633627,184.79827504994293L94.8088827616452,182.37705360958043L97.98127105992769,179.0051509188919L101.1536593582102,175.57552994896318L104.32604765649272,172.81952498015886L107.49843595477522,170.82257562578178L110.67082425305773,169.15804589239266L113.84321255134024,166.98892643412495L117.01560084962277,163.60622576534828L120.18798914790526,158.8485691745934L123.36037744618778,154.57333470306557L126.53276574447028,151.69473828922696L129.7051540427528,149.54084445504526L132.8775423410353,146.107313348682L136.0499306393178,143.01339160937314L139.2223189376003,142.6536502119647L142.3947072358828,140.6664188371775L145.56709553416533,140.85290840681589L148.73948383244783,139.1364421582699L151.91187213073036,138.59650912371933L155.08426042901286,137.45154546574292L158.25664872729539,138.11492758853055L161.42903702557788,136.63682672220318L164.60142532386038,135.72081358886055L167.77381362214288,135.1355575533834L170.9462019204254,135.79342616195984L174.1185902187079,135.14108063457758L177.29097851699044,134.42826984206556L180.46336681527293,133.39620959110127L183.63575511355546,131.46492647274488L186.80814341183796,129.78212104975162L189.98053171012046,129.64982692522597L193.15292000840296,129.7649715782972L196.32530830668549,130.033946443183L199.49769660496798,128.1949719005606L202.6700849032505,128.408192131735L205.842473201533,126.51671028070639L209.0148614998155,127.78357642068184L212.18724979809804,126.69213422997227L215.35963809638054,126.42054766690826L218.53202639466303,125.9487489648185L221.70441469294553,124.87456269993828L224.87680299122806,124.9853581687045L228.04919128951056,124.49381352628708L231.2215795877931,123.62523902799066L234.39396788607561,122.78424702173349L237.56635618435809,121.90604567430772L240.7387444826406,121.86806003473352L243.9111327809231,121.39977623662799L247.08352107920564,120.58100459256157L250.2559093774881,119.60667716249506L253.42829767577064,118.66060183936581L256.60068597405314,118.26562314096135L259.7730742723357,119.03051151840654L262.9454625706182,121.19081925134486L266.11785086890075,121.33477285213776L269.2902391671832,121.03331242993976L272.46262746546574,121.44814798671922L275.63501576374824,122.4437594697881L278.80740406203074,121.81994896337287L281.97979236031324,121.31706565791849L285.15218065859574,120.41232284948411L288.3245689568783,121.11748026640764L291.4969572551608,120.74271924684903L294.6693455534433,120.57711535583203L297.8417338517258,120.26722957234763L301.01412215000835,119.37840205436132L304.1865104482908,118.51050028647676L307.3588987465733,117.51948021872866L310.53128704485584,116.50401055918884L313.70367534313834,116.58646087500875L316.87606364142084,116.25099253653804L320.04845193970334,115.1454379201256L323.2208402379859,114.33574281418412L326.3932285362684,113.85717834620577L329.5656168345509,113.61055203830303L332.7380051328334,113.3252985046095L335.9103934311159,112.22074017582464L339.08278172939845,111.18221715003904L342.2551700276809,110.25029149904015L345.42755832596345,109.84344135708982L348.59994662424594,109.11069757964424L351.7723349225285,108.72356145611376L354.94472322081094,108.54898652217405L358.11711151909344,108.01247203362635L361.289499817376,107.56682831513751L364.4618881156585,107.05005243881948L367.634276413941,106.70110753586354L370.8066647122235,106.51531584921277L373.97905301050605,106.1778237528199L377.1514413087885,106.00040252720162L380.32382960707105,105.78811966984917L383.49621790535355,106.0332068474749L386.66860620363605,105.71182351163415L389.84099450191854,105.13610827656962L393.01338280020104,104.97586549172175L396.1857710984836,104.70882530839103L399.3581593967661,104.91752516591562L402.5305476950486,104.58347760301648L405.7029359933311,104.54037209335326L408.8753242916136,104.6394724607634L412.04771258989615,104.59655096236988L415.2201008881786,105.63355304387798L418.39248918646115,105.27170061355457L421.56487748474365,104.88151123930628L424.7372657830262,104.59971660929573L427.90965408130864,104.35622909948232L431.0820423795912,104.04963691558304L434.2544306778737,104.41297616840652L437.4268189761562,104.80359345518043L440.5992072744387,104.762148163414L443.7715955727212,104.62376375114859L446.94398387100375,104.2614611809068L450.1163721692862,103.84057311805375L453.28876046756875,103.61708095750247L456.46114876585125,103.39695442759849L459.63353706413375,103.55680260945086L462.8059253624163,103.62075947859564L465.97831366069875,103.77665181545109L469.15070195898124,103.7150275242529L472.3230902572638,103.80699924066167L475.4954785555463,104.04932100883748L478.66786685382885,104.04710947923101L481.84025515211135,104.04492936974223L485.0126434503938,104.07251808964803L488.18503174867635,104.24744300705757L491.35742004695885,104.09704361312237L494.5298083452413,104.0070532445826L497.7021966435239,103.83135965462739L500.87458494180635,103.62926389205947L504.04697324008896,103.60159956348453L507.2193615383714,103.65962119409856L510.3917498366539,103.97122593158817L513.5641381349365,104.19442963597365L516.736526433219,104.44260842717043L519.9089147315013,104.46554962854793L523.081303029784,104.59851966619799L526.2536913280665,104.53784984335347L529.426079626349,104.53246893804204L532.5984679246314,104.52715671749704L535.770856222914,104.30642519844376L538.9432445211966,104.35627093185099L542.115632819479,104.32561659929985L545.2880211177614,104.37476209725813L548.4604094160441,104.58123102521068L551.6327977143266,105.25628072979119L554.8051860126089,105.37652709774967L557.9775743108916,105.78000575333301L561.149962609174,106.04992267261417L564.3223509074566,106.11183105916207L567.494739205739,106.14754447736011L570.6671275040216,106.18283426290374L573.8395158023042,106.41915656006867L577.0119041005865,106.4272941061379L580.184292398869,106.46024944515811L583.3566806971517,106.59194557694762L586.5290689954342,106.74677443718127L589.7014572937165,107.07147707750153L592.8738455919992,107.49005574333601L596.0462338902817,107.53987741076469L599.2186221885642,107.70985228816748L602.3910104868467,107.58968522086288L605.5633987851292,107.5186530317238L608.7357870834118,107.25818850112566L611.9081753816942,107.16620156154534L615.0805636799766,107.00460232574687L618.2529519782593,106.93845907600206L621.4253402765416,106.89634153184754L624.5977285748243,106.78509446211514L627.7701168731068,106.74428575121406L630.9425051713893,106.63500223507089L634.1148934696718,106.7097553899662L637.2872817679543,106.64721747657363L640.4596700662368,106.65326286067939L643.6320583645193,106.6592450815245L646.8044466628018,106.66516512092575L649.9768349610844,106.76032166776618L653.1492232593669,106.78783710204215L656.3216115576492,106.66024466316011L659.4939998559319,106.73209937233403L662.6663881542144,106.75939431341426L665.8387764524969,106.76459780781289L669.0111647507794,106.83490205554568L672.1835530490619,107.38014343529143L675.3559413473444,107.64016482823867L678.5283296456269,107.79047697390017L681.7007179439094,107.70464824136057L684.873106242192,107.3435509418054L688.0454945404745,107.34545825749402L691.2178828387569,107.41051011907552L694.3902711370395,107.51686074932647L697.562659435322,107.6221900176988L700.7350477336043,107.72651251523061L703.907436031887,107.62289113583277L707.0798243301695,107.43782213161315L710.2522126284521,107.4186612176212L713.4246009267345,107.27707361453442L716.596989225017,107.42169692483917L719.7693775232996,107.50418230808282L722.941765821582,107.50517949131894L726.1141541198645,107.60665933428244L729.2865424181471,107.82730517629918L732.4589307164296,107.86652442394082L735.631319014712,107.90538732098965L738.8037073129946,108.04276924191426L741.9760956112771,108.06074425397865L745.1484839095596,108.05894146358172L748.3208722078421,108.15484911684426L751.4932605061246,108.17205733269566L754.6656488044072,108.07280102620346L757.8380371026896,107.89718153421882L761.010425400972,107.64616414386785L764.1828136992547,107.3590186819467L767.3552019975372,107.1888886380471L770.5275902958197,107.07727055710708L773.6999785941022,106.79614884370915L776.8723668923847,106.66839192931495L780.0447551906672,106.63571449072191L783.2171434889497,106.73440418800182L786.3895317872322,106.81360027384204L789.5619200855148,107.26387532411185L792.7343083837972,107.63629124292179L795.9066966820798,107.89488720828744L799.0790849803623,108.13294432673597L802.2514732786447,108.53386214786816L805.4238615769273,108.74897733772772L808.5962498752098,108.99868607859179L811.7686381734923,109.15576034779761L814.9410264717748,109.22129114543883L818.1134147700573,109.3042764096956L821.2858030683398,109.60167382244255L824.4581913666223,109.80736836624959L827.6305796649048,109.81563755447115L830.8029679631874,109.93025001714051L833.9753562614699,110.02627585676638L837.1477445597523,110.10392685200763L840.3201328580349,110.40912286212524L843.4925211563174,110.60697016865274L846.6649094545999,110.83812423127006" style="fill: none;" fill="none"></path></g></g></g></g><g opacity="0.2"><g><g><g><path stroke="rgb(255, 112, 67)" stroke-width="2px" d="M37.705893392560036,300.6855395937021L40.87828169084255,214.03846931440364L44.050669989125055,182.53049958689755L47.22305828740757,162.83789056665904L50.395446585690074,328.255192222036L53.56783488397258,115.57583362296211L56.74022318225509,166.77641237070677L59.912611480537606,170.71493417475443L63.08499977882011,131.32992083915292L66.25738807710262,229.79255653059445L69.42977637538512,225.85403472654673L72.60216467366763,158.89936876261135L75.77455297195014,221.91551292249906L78.94694127023266,147.08380335046826L82.11932956851516,123.45287723105751L85.29171786679767,131.32992083915292L88.46410616508018,162.83789056665904L91.6364944633627,154.96084695856362L94.8088827616452,139.20675974237284L97.98127105992769,115.57583362296211L101.1536593582102,107.69879001486674L104.32604765649272,115.57583362296211L107.49843595477522,127.3913990351052L110.67082425305773,131.32992083915292L113.84321255134024,115.57583362296211L117.01560084962277,80.12934209140832L120.18798914790526,36.80560224688362L123.36037744618778,40.744124050931305L126.53276574447028,72.2522984833129L129.7051540427528,88.00618099462824L132.8775423410353,44.68264585497899L136.0499306393178,48.62116765902672L139.2223189376003,131.32992083915292L142.3947072358828,76.1908202873606L145.56709553416533,147.08380335046826L148.73948383244783,80.12934209140832L151.91187213073036,119.51435542700983L155.08426042901286,95.88322460272364L158.25664872729539,162.83789056665904L161.42903702557788,80.12934209140832L164.60142532386038,99.82174640677133L167.77381362214288,111.63731181891443L170.9462019204254,162.83789056665904L174.1185902187079,107.69879001486674L177.29097851699044,103.760268210819L180.46336681527293,88.00618099462824L183.63575511355546,44.68264585497899L186.80814341183796,52.5596894630744L189.98053171012046,123.45287723105751L193.15292000840296,135.26823793832517L196.32530830668549,143.14528154642053L199.49769660496798,36.80560224688362L202.6700849032505,139.20675974237284L205.842473201533,28.928558638788214L209.0148614998155,194.3458602941652L212.18724979809804,68.31377667926522L215.35963809638054,111.63731181891443L218.53202639466303,99.82174640677133L221.70441469294553,64.3752548752175L224.87680299122806,131.32992083915292L228.04919128951056,95.88322460272364L231.2215795877931,72.2522984833129L234.39396788607561,72.2522984833129L237.56635618435809,68.31377667926522L240.7387444826406,119.51435542700983L243.9111327809231,91.94470279867592L247.08352107920564,68.31377667926522L250.2559093774881,56.49821126712213L253.42829767577064,56.49821126712213L256.60068597405314,91.94470279867592L259.7730742723357,170.71493417475443L262.9454625706182,269.177569866196L266.11785086890075,131.32992083915292L269.2902391671832,99.82174640677133L272.46262746546574,151.02232515451595L275.63501576374824,194.3458602941652L278.80740406203074,76.1908202873606L281.97979236031324,84.06765919058056L285.15218065859574,52.5596894630744L288.3245689568783,174.65345597880213L291.4969572551608,91.94470279867592L294.6693455534433,107.69879001486674L297.8417338517258,95.88322460272364L301.01412215000835,48.62116765902672L304.1865104482908,48.62116765902672L307.3588987465733,36.80560224688362L310.53128704485584,32.8670804428359L313.70367534313834,123.45287723105751L316.87606364142084,88.00618099462824L320.04845193970334,21.051719735568295L323.2208402379859,44.68264585497899L326.3932285362684,72.2522984833129L329.5656168345509,91.94470279867592L332.7380051328334,88.00618099462824L335.9103934311159,13.174676127472885L339.08278172939845,17.113197931520567L342.2551700276809,24.99024153961598L345.42755832596345,72.2522984833129L348.59994662424594,40.744124050931305L351.7723349225285,72.2522984833129L354.94472322081094,91.94470279867592L358.11711151909344,56.49821126712213L361.289499817376,64.3752548752175L364.4618881156585,56.49821126712213L367.634276413941,72.2522984833129L370.8066647122235,88.00618099462824L373.97905301050605,72.2522984833129L377.1514413087885,88.00618099462824L380.32382960707105,84.06765919058056L383.49621790535355,131.32992083915292L386.66860620363605,72.2522984833129L389.84099450191854,44.68264585497899L393.01338280020104,88.00618099462824L396.1857710984836,76.1908202873606L399.3581593967661,127.3913990351052L402.5305476950486,68.31377667926522L405.7029359933311,99.82174640677133L408.8753242916136,115.57583362296211L412.04771258989615,99.82174640677133L415.2201008881786,221.91551292249906L418.39248918646115,64.3752548752175L421.56487748474365,60.43673307116981L424.7372657830262,72.2522984833129L427.90965408130864,76.1908202873606L431.0820423795912,68.31377667926522L434.2544306778737,147.08380335046826L437.4268189761562,151.02232515451595L440.5992072744387,99.82174640677133L443.7715955727212,88.00618099462824L446.94398387100375,60.43673307116981L450.1163721692862,52.5596894630744L453.28876046756875,76.1908202873606L456.46114876585125,76.1908202873606L459.63353706413375,123.45287723105751L462.8059253624163,111.63731181891443L465.97831366069875,123.45287723105751L469.15070195898124,95.88322460272364L472.3230902572638,115.57583362296211L475.4954785555463,135.26823793832517L478.66786685382885,103.760268210819L481.84025515211135,103.760268210819L485.0126434503938,107.69879001486674L488.18503174867635,127.3913990351052L491.35742004695885,84.06765919058056L494.5298083452413,91.94470279867592L497.7021966435239,80.12934209140832L500.87458494180635,76.1908202873606L504.04697324008896,99.82174640677133L507.2193615383714,111.63731181891443L510.3917498366539,147.08380335046826L513.5641381349365,135.26823793832517L516.736526433219,139.20675974237284L519.9089147315013,107.69879001486674L523.081303029784,123.45287723105751L526.2536913280665,95.88322460272364L529.426079626349,103.760268210819L532.5984679246314,103.760268210819L535.770856222914,72.2522984833129L538.9432445211966,111.63731181891443L542.115632819479,99.82174640677133L545.2880211177614,111.63731181891443L548.4604094160441,135.26823793832517L551.6327977143266,206.16142570630828L554.8051860126089,123.45287723105751L557.9775743108916,166.77641237070677L561.149962609174,147.08380335046826L564.3223509074566,115.57583362296211L567.494739205739,111.63731181891443L570.6671275040216,111.63731181891443L573.8395158023042,143.14528154642053L577.0119041005865,107.69879001486674L580.184292398869,111.63731181891443L583.3566806971517,127.3913990351052L586.5290689954342,131.32992083915292L589.7014572937165,158.89936876261135L592.8738455919992,174.65345597880213L596.0462338902817,115.57583362296211L599.2186221885642,135.26823793832517L602.3910104868467,88.00618099462824L605.5633987851292,95.88322460272364L608.7357870834118,64.3752548752175L611.9081753816942,91.94470279867592L615.0805636799766,80.12934209140832L618.2529519782593,95.88322460272364L621.4253402765416,99.82174640677133L624.5977285748243,88.00618099462824L627.7701168731068,99.82174640677133L630.9425051713893,88.00618099462824L634.1148934696718,119.51435542700983L637.2872817679543,95.88322460272364L640.4596700662368,107.69879001486674L643.6320583645193,107.69879001486674L646.8044466628018,107.69879001486674L649.9768349610844,123.45287723105751L653.1492232593669,111.63731181891443L656.3216115576492,84.06765919058056L659.4939998559319,119.51435542700983L662.6663881542144,111.63731181891443L665.8387764524969,107.69879001486674L669.0111647507794,119.51435542700983L672.1835530490619,206.16142570630828L675.3559413473444,154.96084695856362L678.5283296456269,135.26823793832517L681.7007179439094,91.94470279867592L684.873106242192,40.744124050931305L688.0454945404745,107.69879001486674L691.2178828387569,119.51435542700983L694.3902711370395,127.3913990351052L697.562659435322,127.3913990351052L700.7350477336043,127.3913990351052L703.907436031887,88.00618099462824L707.0798243301695,72.2522984833129L710.2522126284521,103.760268210819L713.4246009267345,80.12934209140832L716.596989225017,135.26823793832517L719.7693775232996,123.45287723105751L722.941765821582,107.69879001486674L726.1141541198645,127.3913990351052L729.2865424181471,151.02232515451595L732.4589307164296,115.57583362296211L735.631319014712,115.57583362296211L738.8037073129946,135.26823793832517L741.9760956112771,111.63731181891443L745.1484839095596,107.69879001486674L748.3208722078421,127.3913990351052L751.4932605061246,111.63731181891443L754.6656488044072,88.00618099462824L757.8380371026896,72.2522984833129L761.010425400972,56.49821126712213L764.1828136992547,48.62116765902672L767.3552019975372,72.2522984833129L770.5275902958197,84.06765919058056L773.6999785941022,48.62116765902672L776.8723668923847,80.12934209140832L780.0447551906672,99.82174640677133L783.2171434889497,127.3913990351052L786.3895317872322,123.45287723105751L789.5619200855148,202.22290390226055L792.7343083837972,186.46902139094522L795.9066966820798,162.83789056665904L799.0790849803623,158.89936876261135L802.2514732786447,194.3458602941652L805.4238615769273,154.96084695856362L808.5962498752098,162.83789056665904L811.7686381734923,143.14528154642053L814.9410264717748,123.45287723105751L818.1134147700573,127.3913990351052L821.2858030683398,174.65345597880213L824.4581913666223,154.96084695856362L827.6305796649048,111.63731181891443L830.8029679631874,135.26823793832517L833.9753562614699,131.32992083915292L837.1477445597523,127.3913990351052L840.3201328580349,178.59197778284985L843.4925211563174,154.96084695856362L846.6649094545999,162.83789056665904" style="fill: none;" fill="none"></path></g></g></g></g></g></g><g transform="translate(53, 376)" clip-path="url(#clip_1)"><clipPath id="clip_1"><rect width="923" height="24"></rect></clipPath><g><g><line x1="34.53350509427753" y1="0" x2="34.53350509427753" y2="5" style="visibility: inherit;" fill="rgb(0, 0, 0)" stroke="rgb(204, 204, 204)" stroke-width="1px"></line><line x1="97.98127105992769" y1="0" x2="97.98127105992769" y2="5" style="visibility: inherit;" fill="rgb(0, 0, 0)" stroke="rgb(204, 204, 204)" stroke-width="1px"></line><line x1="161.42903702557788" y1="0" x2="161.42903702557788" y2="5" style="visibility: inherit;" fill="rgb(0, 0, 0)" stroke="rgb(204, 204, 204)" stroke-width="1px"></line><line x1="224.87680299122806" y1="0" x2="224.87680299122806" y2="5" style="visibility: inherit;" fill="rgb(0, 0, 0)" stroke="rgb(204, 204, 204)" stroke-width="1px"></line><line x1="288.3245689568783" y1="0" x2="288.3245689568783" y2="5" style="visibility: inherit;" fill="rgb(0, 0, 0)" stroke="rgb(204, 204, 204)" stroke-width="1px"></line><line x1="351.7723349225285" y1="0" x2="351.7723349225285" y2="5" style="visibility: inherit;" fill="rgb(0, 0, 0)" stroke="rgb(204, 204, 204)" stroke-width="1px"></line><line x1="415.2201008881786" y1="0" x2="415.2201008881786" y2="5" style="visibility: inherit;" fill="rgb(0, 0, 0)" stroke="rgb(204, 204, 204)" stroke-width="1px"></line><line x1="478.66786685382885" y1="0" x2="478.66786685382885" y2="5" style="visibility: inherit;" fill="rgb(0, 0, 0)" stroke="rgb(204, 204, 204)" stroke-width="1px"></line><line x1="542.115632819479" y1="0" x2="542.115632819479" y2="5" style="visibility: inherit;" fill="rgb(0, 0, 0)" stroke="rgb(204, 204, 204)" stroke-width="1px"></line><line x1="605.5633987851292" y1="0" x2="605.5633987851292" y2="5" style="visibility: inherit;" fill="rgb(0, 0, 0)" stroke="rgb(204, 204, 204)" stroke-width="1px"></line><line x1="669.0111647507794" y1="0" x2="669.0111647507794" y2="5" style="visibility: inherit;" fill="rgb(0, 0, 0)" stroke="rgb(204, 204, 204)" stroke-width="1px"></line><line x1="732.4589307164296" y1="0" x2="732.4589307164296" y2="5" style="visibility: inherit;" fill="rgb(0, 0, 0)" stroke="rgb(204, 204, 204)" stroke-width="1px"></line><line x1="795.9066966820798" y1="0" x2="795.9066966820798" y2="5" style="visibility: inherit;" fill="rgb(0, 0, 0)" stroke="rgb(204, 204, 204)" stroke-width="1px"></line><line x1="859.3544626477299" y1="0" x2="859.3544626477299" y2="5" style="visibility: inherit;" fill="rgb(0, 0, 0)" stroke="rgb(204, 204, 204)" stroke-width="1px"></line><line x1="922.8022286133801" y1="0" x2="922.8022286133801" y2="5" style="visibility: inherit;" fill="rgb(0, 0, 0)" stroke="rgb(204, 204, 204)" stroke-width="1px"></line></g><g transform="translate(0, 8)"><text x="34.53350509427753" y="0" dx="0em" dy="0.95em" style="text-anchor: middle; visibility: inherit; font-family: Roboto, sans-serif; font-size: 12px; font-weight: 200;" fill="rgb(33, 33, 33)" stroke="none" stroke-width="1px">0</text><text x="97.98127105992769" y="0" dx="0em" dy="0.95em" style="text-anchor: middle; visibility: inherit; font-family: Roboto, sans-serif; font-size: 12px; font-weight: 200;" fill="rgb(33, 33, 33)" stroke="none" stroke-width="1px">2k</text><text x="161.42903702557788" y="0" dx="0em" dy="0.95em" style="text-anchor: middle; visibility: inherit; font-family: Roboto, sans-serif; font-size: 12px; font-weight: 200;" fill="rgb(33, 33, 33)" stroke="none" stroke-width="1px">4k</text><text x="224.87680299122806" y="0" dx="0em" dy="0.95em" style="text-anchor: middle; visibility: inherit; font-family: Roboto, sans-serif; font-size: 12px; font-weight: 200;" fill="rgb(33, 33, 33)" stroke="none" stroke-width="1px">6k</text><text x="288.3245689568783" y="0" dx="0em" dy="0.95em" style="text-anchor: middle; visibility: inherit; font-family: Roboto, sans-serif; font-size: 12px; font-weight: 200;" fill="rgb(33, 33, 33)" stroke="none" stroke-width="1px">8k</text><text x="351.7723349225285" y="0" dx="0em" dy="0.95em" style="text-anchor: middle; visibility: inherit; font-family: Roboto, sans-serif; font-size: 12px; font-weight: 200;" fill="rgb(33, 33, 33)" stroke="none" stroke-width="1px">10k</text><text x="415.2201008881786" y="0" dx="0em" dy="0.95em" style="text-anchor: middle; visibility: inherit; font-family: Roboto, sans-serif; font-size: 12px; font-weight: 200;" fill="rgb(33, 33, 33)" stroke="none" stroke-width="1px">12k</text><text x="478.66786685382885" y="0" dx="0em" dy="0.95em" style="text-anchor: middle; visibility: inherit; font-family: Roboto, sans-serif; font-size: 12px; font-weight: 200;" fill="rgb(33, 33, 33)" stroke="none" stroke-width="1px">14k</text><text x="542.115632819479" y="0" dx="0em" dy="0.95em" style="text-anchor: middle; visibility: inherit; font-family: Roboto, sans-serif; font-size: 12px; font-weight: 200;" fill="rgb(33, 33, 33)" stroke="none" stroke-width="1px">16k</text><text x="605.5633987851292" y="0" dx="0em" dy="0.95em" style="text-anchor: middle; visibility: inherit; font-family: Roboto, sans-serif; font-size: 12px; font-weight: 200;" fill="rgb(33, 33, 33)" stroke="none" stroke-width="1px">18k</text><text x="669.0111647507794" y="0" dx="0em" dy="0.95em" style="text-anchor: middle; visibility: inherit; font-family: Roboto, sans-serif; font-size: 12px; font-weight: 200;" fill="rgb(33, 33, 33)" stroke="none" stroke-width="1px">20k</text><text x="732.4589307164296" y="0" dx="0em" dy="0.95em" style="text-anchor: middle; visibility: inherit; font-family: Roboto, sans-serif; font-size: 12px; font-weight: 200;" fill="rgb(33, 33, 33)" stroke="none" stroke-width="1px">22k</text><text x="795.9066966820798" y="0" dx="0em" dy="0.95em" style="text-anchor: middle; visibility: inherit; font-family: Roboto, sans-serif; font-size: 12px; font-weight: 200;" fill="rgb(33, 33, 33)" stroke="none" stroke-width="1px">24k</text><text x="859.3544626477299" y="0" dx="0em" dy="0.95em" style="text-anchor: middle; visibility: inherit; font-family: Roboto, sans-serif; font-size: 12px; font-weight: 200;" fill="rgb(33, 33, 33)" stroke="none" stroke-width="1px">26k</text><text x="922.8022286133801" y="0" dx="0em" dy="0.95em" style="text-anchor: middle; visibility: hidden; font-family: Roboto, sans-serif; font-size: 12px; font-weight: 200;" fill="rgb(33, 33, 33)" stroke="none" stroke-width="1px">28k</text></g><line x1="0" y1="0" x2="923.8125" y2="0" fill="rgb(0, 0, 0)" stroke="rgb(204, 204, 204)" stroke-width="1px"></line></g></g></g></g></svg>