<svg viewBox="0 0 1584.5999755859375 400" xmlns="http://www.w3.org/2000/svg"><g><g><g><g><g><line x1="42.390625" y1="359.8278543341353" x2="37.390625" y2="359.8278543341353" style="visibility: inherit;" fill="rgb(0, 0, 0)" stroke="rgb(204, 204, 204)" stroke-width="1px"></line><line x1="42.390625" y1="317.26367161854273" x2="37.390625" y2="317.26367161854273" style="visibility: inherit;" fill="rgb(0, 0, 0)" stroke="rgb(204, 204, 204)" stroke-width="1px"></line><line x1="42.390625" y1="274.6994889029501" x2="37.390625" y2="274.6994889029501" style="visibility: inherit;" fill="rgb(0, 0, 0)" stroke="rgb(204, 204, 204)" stroke-width="1px"></line><line x1="42.390625" y1="232.13530618735757" x2="37.390625" y2="232.13530618735757" style="visibility: inherit;" fill="rgb(0, 0, 0)" stroke="rgb(204, 204, 204)" stroke-width="1px"></line><line x1="42.390625" y1="189.57112347176502" x2="37.390625" y2="189.57112347176502" style="visibility: inherit;" fill="rgb(0, 0, 0)" stroke="rgb(204, 204, 204)" stroke-width="1px"></line><line x1="42.390625" y1="147.00694075617244" x2="37.390625" y2="147.00694075617244" style="visibility: inherit;" fill="rgb(0, 0, 0)" stroke="rgb(204, 204, 204)" stroke-width="1px"></line><line x1="42.390625" y1="104.44275804057993" x2="37.390625" y2="104.44275804057993" style="visibility: inherit;" fill="rgb(0, 0, 0)" stroke="rgb(204, 204, 204)" stroke-width="1px"></line><line x1="42.390625" y1="61.87857532498737" x2="37.390625" y2="61.87857532498737" style="visibility: inherit;" fill="rgb(0, 0, 0)" stroke="rgb(204, 204, 204)" stroke-width="1px"></line><line x1="42.390625" y1="19.3143926093948" x2="37.390625" y2="19.3143926093948" style="visibility: inherit;" fill="rgb(0, 0, 0)" stroke="rgb(204, 204, 204)" stroke-width="1px"></line></g><g transform="translate(32.390625, 0)"><text x="0" y="359.8278543341353" dx="0em" dy="0.3em" style="text-anchor: end; visibility: inherit; font-family: Roboto, sans-serif; font-size: 12px; font-weight: 200;" fill="rgb(33, 33, 33)" stroke="none" stroke-width="1px">60</text><text x="0" y="317.26367161854273" dx="0em" dy="0.3em" style="text-anchor: end; visibility: inherit; font-family: Roboto, sans-serif; font-size: 12px; font-weight: 200;" fill="rgb(33, 33, 33)" stroke="none" stroke-width="1px">80</text><text x="0" y="274.6994889029501" dx="0em" dy="0.3em" style="text-anchor: end; visibility: inherit; font-family: Roboto, sans-serif; font-size: 12px; font-weight: 200;" fill="rgb(33, 33, 33)" stroke="none" stroke-width="1px">100</text><text x="0" y="232.13530618735757" dx="0em" dy="0.3em" style="text-anchor: end; visibility: inherit; font-family: Roboto, sans-serif; font-size: 12px; font-weight: 200;" fill="rgb(33, 33, 33)" stroke="none" stroke-width="1px">120</text><text x="0" y="189.57112347176502" dx="0em" dy="0.3em" style="text-anchor: end; visibility: inherit; font-family: Roboto, sans-serif; font-size: 12px; font-weight: 200;" fill="rgb(33, 33, 33)" stroke="none" stroke-width="1px">140</text><text x="0" y="147.00694075617244" dx="0em" dy="0.3em" style="text-anchor: end; visibility: inherit; font-family: Roboto, sans-serif; font-size: 12px; font-weight: 200;" fill="rgb(33, 33, 33)" stroke="none" stroke-width="1px">160</text><text x="0" y="104.44275804057993" dx="0em" dy="0.3em" style="text-anchor: end; visibility: inherit; font-family: Roboto, sans-serif; font-size: 12px; font-weight: 200;" fill="rgb(33, 33, 33)" stroke="none" stroke-width="1px">180</text><text x="0" y="61.87857532498737" dx="0em" dy="0.3em" style="text-anchor: end; visibility: inherit; font-family: Roboto, sans-serif; font-size: 12px; font-weight: 200;" fill="rgb(33, 33, 33)" stroke="none" stroke-width="1px">200</text><text x="0" y="19.3143926093948" dx="0em" dy="0.3em" style="text-anchor: end; visibility: inherit; font-family: Roboto, sans-serif; font-size: 12px; font-weight: 200;" fill="rgb(33, 33, 33)" stroke="none" stroke-width="1px">220</text></g><line x1="42.390625" y1="0" x2="42.390625" y2="376" fill="rgb(0, 0, 0)" stroke="rgb(204, 204, 204)" stroke-width="1px"></line></g></g><g transform="translate(42, 0)" clip-path="url(#clip_0)"><clipPath id="clip_0"><rect width="1542" height="376"></rect></clipPath><g><g><g><line x1="2.841976907562207" y1="0" x2="2.841976907562207" y2="376" fill="rgb(0, 0, 0)" stroke="rgb(66, 66, 66)" stroke-width="1px" opacity="0.25"></line><line x1="114.18218832008472" y1="0" x2="114.18218832008472" y2="376" fill="rgb(0, 0, 0)" stroke="rgb(66, 66, 66)" stroke-width="1px" opacity="0.25"></line><line x1="225.52239973260728" y1="0" x2="225.52239973260728" y2="376" fill="rgb(0, 0, 0)" stroke="rgb(66, 66, 66)" stroke-width="1px" opacity="0.25"></line><line x1="336.8626111451298" y1="0" x2="336.8626111451298" y2="376" fill="rgb(0, 0, 0)" stroke="rgb(66, 66, 66)" stroke-width="1px" opacity="0.25"></line><line x1="448.2028225576523" y1="0" x2="448.2028225576523" y2="376" fill="rgb(0, 0, 0)" stroke="rgb(66, 66, 66)" stroke-width="1px" opacity="0.25"></line><line x1="559.5430339701749" y1="0" x2="559.5430339701749" y2="376" fill="rgb(0, 0, 0)" stroke="rgb(66, 66, 66)" stroke-width="1px" opacity="0.25"></line><line x1="670.8832453826974" y1="0" x2="670.8832453826974" y2="376" fill="rgb(0, 0, 0)" stroke="rgb(66, 66, 66)" stroke-width="1px" opacity="0.25"></line><line x1="782.2234567952199" y1="0" x2="782.2234567952199" y2="376" fill="rgb(0, 0, 0)" stroke="rgb(66, 66, 66)" stroke-width="1px" opacity="0.25"></line><line x1="893.5636682077426" y1="0" x2="893.5636682077426" y2="376" fill="rgb(0, 0, 0)" stroke="rgb(66, 66, 66)" stroke-width="1px" opacity="0.25"></line><line x1="1004.9038796202651" y1="0" x2="1004.9038796202651" y2="376" fill="rgb(0, 0, 0)" stroke="rgb(66, 66, 66)" stroke-width="1px" opacity="0.25"></line><line x1="1116.2440910327878" y1="0" x2="1116.2440910327878" y2="376" fill="rgb(0, 0, 0)" stroke="rgb(66, 66, 66)" stroke-width="1px" opacity="0.25"></line><line x1="1227.5843024453102" y1="0" x2="1227.5843024453102" y2="376" fill="rgb(0, 0, 0)" stroke="rgb(66, 66, 66)" stroke-width="1px" opacity="0.25"></line><line x1="1338.9245138578326" y1="0" x2="1338.9245138578326" y2="376" fill="rgb(0, 0, 0)" stroke="rgb(66, 66, 66)" stroke-width="1px" opacity="0.25"></line><line x1="1450.2647252703553" y1="0" x2="1450.2647252703553" y2="376" fill="rgb(0, 0, 0)" stroke="rgb(66, 66, 66)" stroke-width="1px" opacity="0.25"></line></g><g><line x1="0" y1="359.8278543341353" x2="1542.209375" y2="359.8278543341353" fill="rgb(0, 0, 0)" stroke="rgb(66, 66, 66)" stroke-width="1px" opacity="0.25"></line><line x1="0" y1="317.26367161854273" x2="1542.209375" y2="317.26367161854273" fill="rgb(0, 0, 0)" stroke="rgb(66, 66, 66)" stroke-width="1px" opacity="0.25"></line><line x1="0" y1="274.6994889029501" x2="1542.209375" y2="274.6994889029501" fill="rgb(0, 0, 0)" stroke="rgb(66, 66, 66)" stroke-width="1px" opacity="0.25"></line><line x1="0" y1="232.13530618735757" x2="1542.209375" y2="232.13530618735757" fill="rgb(0, 0, 0)" stroke="rgb(66, 66, 66)" stroke-width="1px" opacity="0.25"></line><line x1="0" y1="189.57112347176502" x2="1542.209375" y2="189.57112347176502" fill="rgb(0, 0, 0)" stroke="rgb(66, 66, 66)" stroke-width="1px" opacity="0.25"></line><line x1="0" y1="147.00694075617244" x2="1542.209375" y2="147.00694075617244" fill="rgb(0, 0, 0)" stroke="rgb(66, 66, 66)" stroke-width="1px" opacity="0.25"></line><line x1="0" y1="104.44275804057993" x2="1542.209375" y2="104.44275804057993" fill="rgb(0, 0, 0)" stroke="rgb(66, 66, 66)" stroke-width="1px" opacity="0.25"></line><line x1="0" y1="61.87857532498737" x2="1542.209375" y2="61.87857532498737" fill="rgb(0, 0, 0)" stroke="rgb(66, 66, 66)" stroke-width="1px" opacity="0.25"></line><line x1="0" y1="19.3143926093948" x2="1542.209375" y2="19.3143926093948" fill="rgb(0, 0, 0)" stroke="rgb(66, 66, 66)" stroke-width="1px" opacity="0.25"></line></g></g></g><g><g><line x1="0" y1="487.52040248091294" x2="1542.209375" y2="487.52040248091294" fill="rgb(0, 0, 0)" stroke="rgb(153, 153, 153)" stroke-width="1.5px"></line></g></g><g><g><line x1="2.841976907562207" y1="0" x2="2.841976907562207" y2="376" fill="rgb(0, 0, 0)" stroke="rgb(153, 153, 153)" stroke-width="1.5px"></line></g></g><g><g><g><g><g><path stroke="rgb(255, 112, 67)" stroke-width="2px" d="M8.408987478188333,351.36609110825157L13.97599804881446,322.0768681001227L19.543008619440588,280.01289090920574L25.110019190066716,227.37751968420085L30.677029760692843,195.95881081844922L36.24404033131897,197.33371766336265L41.8110509019451,189.4517066422335L47.378061472571225,169.64634382867294L52.94507204319735,165.98213165485234L58.51208261382348,163.10656333158352L64.0790931844496,153.0272536536833L69.64610375507573,149.30147394663155L75.21311432570187,148.0222796043438L80.78012489632798,143.32759944611556L86.34713546695411,140.3670352118783L91.91414603758024,142.73223361674883L97.48115660820636,142.47348535902245L103.04816717883249,139.3042927644692L108.61517774945862,139.46493291680787L114.18218832008472,143.16366036260698L119.74919889071087,143.12321481493692L125.31620946133698,149.61246904242222L130.8832200319631,148.35462665513265L136.45023060258924,146.05498105111917L142.01724117321535,146.8664950621115L147.5842517438415,146.7035486512629L153.15126231446763,143.45712837343817L158.71827288509374,140.32389243126778L164.28528345571988,138.5279538124334L169.85229402634602,137.7198332833394L175.41930459697213,138.72993573673807L180.98631516759826,137.45635682696675L186.55332573822437,135.52729234662024L192.1203363088505,133.26710695664758L197.68734687947662,133.2110779775796L203.25435745010276,133.29351718947785L208.82136802072887,133.6754899436716L214.38837859135504,131.8105892514952L219.95538916198115,130.42923727123596L225.52239973260728,130.31376703165645L231.0894103032334,128.75990274196516L236.6564208738595,128.27085317481954L242.22343144448564,128.4899796403578L247.79044201511175,128.99969314623678L253.35745258573792,128.23377393145392L258.924463156364,132.9205688247728L264.49147372699014,133.49126709255523L270.0584842976163,134.62999799004743L275.6254948682424,135.32860318012146L281.1925054388685,134.4256411527845L286.7595160094947,132.81677216118385L292.3265265801208,132.95676125167154L297.8935371507469,133.08738635447543L303.460547721373,134.27048961226998L309.0275582919992,135.5187180255033L314.5945688626253,134.0330424286384L320.16157943325146,135.74048026218026L325.72859000387757,134.86201110961903L331.2956005745037,134.97646335588607L336.8626111451298,135.4320619890433L342.4296217157559,138.31720051026076L347.99663228638207,141.7905940327711L353.5636428570082,140.54912527275985L359.13065342763434,140.17825908810175L364.69766399826045,140.83780513721496L370.26467456888656,139.50758352310538L375.8316851395127,142.1109800471746L381.3986957101388,140.57358440251755L386.96570628076495,142.6156308264649L392.53271685139106,142.00853899258058L398.09972742201717,141.57168943838604L403.6667379926433,141.73134233502486L409.2337485632695,142.38065108109868L414.8007591338956,144.27487660643308L420.3677697045217,143.13927565579445L425.93478027514783,142.95921957590008L431.501790845774,142.47738025853812L437.0688014164001,143.0657459985632L442.6358119870262,143.01009864334145L448.2028225576523,141.8944309471763L453.76983312827844,142.10563579453833L459.3368436989046,141.23115201256314L464.9038542695307,141.74000001496557L470.4708648401568,142.04227365225972L476.03787541078293,143.53408357878516L481.60488598140915,143.92056016710595L487.17189655203526,143.23895423491948L492.7389071226614,142.73693535373994L498.3059176932875,141.86405475841272L503.8729282639136,142.54212427404627L509.43993883453976,142.46885392590016L515.0069494051659,142.5538340438478L520.573959975792,143.2581380708431L526.1409705464181,143.71285971698163L531.7079811170443,142.9582553525061L537.2749916876703,142.6768415677476L542.8420022582965,142.57669068693946L548.4090128289225,142.0517154314891L553.9760233995488,141.5104754662252L559.5430339701749,141.64315720816887L565.110044540801,141.28952084893143L570.6770551114272,141.5287279917739L576.2440656820532,141.49106442185632L581.8110762526794,140.61019969131686L587.3780868233055,140.06991778012386L592.9450973939316,139.35526057866596L598.5121079645578,138.80272677012863L604.0791185351839,138.26469449124426L609.64612910581,136.87105539312245L615.2131396764361,135.87506026681865L620.7801502470624,135.0986714330496L626.3471608176884,134.26575331499424L631.9141713883146,135.06204744984578L637.4811819589406,136.00579935321966L643.0481925295668,135.60600952471282L648.615203100193,136.71482049714874L654.182213670819,137.17328452015573L659.7492242414452,137.6500756869472L665.3162348120712,136.81753653529725L670.8832453826974,136.24174710121574L676.4502559533236,135.87778042819198L682.0172665239496,136.13164085459084L687.5842770945758,135.57262112050256L693.151287665202,134.9321745070921L698.7182982358281,135.72589570038602L704.2853088064542,136.16096344757082L709.8523193770803,135.50259554075134L715.4193299477064,136.31860097625912L720.9863405183326,135.5831697171544L726.5533510889587,135.8609495435843L732.1203616595848,134.93349001376686L737.6873722302109,135.0261596036584L743.254382800837,134.3881660223546L748.8213933714632,133.72203573214856L754.3884039420893,132.84978940458853L759.9554145127154,133.03210447307626L765.5224250833417,132.82906030666345L771.0894356539677,132.9548418890337L776.6564462245939,133.16136065325173L782.2234567952199,132.60692610604036L787.7904673658461,132.96592367336106L793.3574779364723,133.0928955467883L798.9244885070983,133.4522255805012L804.4914990777245,132.66089711407972L810.0585096483505,132.44366269591777L815.6255202189767,132.41337694135763L821.1925307896028,131.66907219444033L826.7595413602289,131.2592410425187L832.3265519308551,131.06837928226366L837.8935625014811,131.03078324764255L843.4605730721073,130.9245960903473L849.0275836427334,130.9441128716899L854.5945942133595,130.95685162491517L860.1616047839857,131.53418380372972L865.7286153546117,131.97607895596036L871.295625925238,132.02641216441742L876.8626364958642,131.54551133636403L882.4296470664902,131.06183169015293L887.9966576371164,130.8425917794218L893.5636682077426,130.46637224833322L899.1306787783686,130.60757517543283L904.6976893489948,130.23053815476294L910.2646999196209,130.24828571922166L915.831710490247,129.6853137922465L921.3987210608732,129.6215981927699L926.9657316314995,129.2496931090686L932.5327422021255,129.3031192367892L938.0997527727517,129.0233691733772L943.6667633433777,129.64522819103593L949.2337739140039,129.22922387837104L954.8007844846301,129.19626033596225L960.3677950552561,129.4046459106843L965.9348056258823,129.43279171783547L971.5018161965083,129.84194976840638L977.0688267671345,129.69887956586078L982.6358373377607,130.70121300290938L988.2028479083867,129.84206761051368L993.7698584790129,130.11611552880703L999.336869049639,130.149493620006L1004.9038796202651,130.44904745074348L1010.4708901908913,130.24981008345176L1016.0379007615173,130.05950535029444L1021.6049113321435,130.488284193324L1027.1719219027696,130.32435648039817L1032.7389324733956,129.99407539208082L1038.305943044022,131.2706472012282L1043.872953614648,130.76707704051782L1049.439964185274,130.59803449841704L1055.0069747559003,130.54682400035793L1060.5739853265263,131.17593665977674L1066.1409958971524,131.3424121013469L1071.7080064677787,132.4170646646938L1077.275017038405,131.98119370164895L1082.842027609031,131.35417764418136L1088.409038179657,131.00636615475412L1093.976048750283,130.64082919555736L1099.5430593209094,130.24293226510378L1105.1100698915354,130.53847098507214L1110.6770804621615,129.7879072149278L1116.2440910327878,129.28998872434704L1121.8111016034138,129.13574180197782L1127.3781121740399,129.36741006745777L1132.9451227446662,129.25211496198014L1138.5121333152922,128.84112202671608L1144.0791438859183,128.56688149945526L1149.6461544565443,128.77192672563916L1155.2131650271706,128.47615368394912L1160.7801755977966,128.5070014323078L1166.3471861684227,127.8881256649382L1171.914196739049,127.87671001432822L1177.481207309675,127.27978361593014L1183.048217880301,127.56793838566813L1188.6152284509271,127.12743766018158L1194.1822390215534,126.71234717002037L1199.7492495921795,126.40289996583988L1205.3162601628055,126.38284338487215L1210.8832707334318,126.43603643955433L1216.450281304058,126.34822896595641L1222.0172918746841,126.46560435193074L1227.5843024453102,126.05257482567112L1233.1513130159365,125.92326577471412L1238.7183235865625,126.8029114854364L1244.2853341571886,126.71547817418677L1249.8523447278149,126.79481410494893L1255.419355298441,126.85150239491716L1260.986365869067,126.46819949807052L1266.553376439693,126.47853535989478L1272.1203870103193,126.26267305820788L1277.6873975809453,125.98985587120094L1283.2544081515714,125.40447288170014L1288.8214187221977,124.90241840408696L1294.3884292928237,125.08806314819486L1299.9554398634498,124.80754010267417L1305.5224504340758,124.70922074817136L1311.0894610047021,124.39478916035674L1316.6564715753282,124.04814324548936L1322.2234821459542,124.55286766902503L1327.7904927165805,124.52115609674927L1333.3575032872066,124.57687914060838L1338.9245138578326,124.8638426211642L1344.491524428459,124.85754070312944L1350.058534999085,125.3283988406101L1355.6255455697112,125.43817275024155L1361.1925561403373,125.81544636742167L1366.7595667109633,125.83090854992561L1372.3265772815896,126.3033469539909L1377.8935878522157,126.54201856394572L1383.4605984228417,126.38812968456432L1389.027608993468,126.57698360836048L1394.594619564094,126.25781090013803L1400.16163013472,126.01624116503247L1405.7286407053464,126.19111834902529" style="fill: none;" fill="none"></path></g></g></g></g><g opacity="0.2"><g><g><g><path stroke="rgb(255, 112, 67)" stroke-width="2px" d="M8.408987478188333,351.36609110825157L13.97599804881446,292.81693431500673L19.543008619440588,196.0110863949634L25.110019190066716,69.78700774769676L30.677029760692843,70.59784841406764L36.24404033131897,204.18765576277372L41.8110509019451,142.32488715223616L47.378061472571225,31.562246577452743L52.94507204319735,136.80003856995376L58.51208261382348,137.3555045316772L64.0790931844496,52.78685914236679L69.64610375507573,108.56298079951314L75.21311432570187,132.77135971900643L80.78012489632798,82.72226910995305L86.34713546695411,99.22865215269869L91.91414603758024,177.92770609801047L97.48115660820636,138.3685276638587L103.04816717883249,85.9103287334713L108.61517774945862,142.32914123238731L114.18218832008472,212.7409223042755L119.74919889071087,142.32274387521343L125.31620946133698,284.3977362460554L130.8832200319631,120.99811171590545L136.45023060258924,93.79320420137942L142.01724117321535,166.10123338217846L147.5842517438415,142.68242472830022L153.15126231446763,60.180255601735944L158.71827288509374,56.90068454412608L164.28528345571988,88.964303647492L169.85229402634602,114.63261143229968L175.41930459697213,168.56782049639472L180.98631516759826,98.60083435451102L186.55332573822437,74.80532852694131L192.1203363088505,59.93553233441365L197.68734687947662,131.33906613772749L203.25435745010276,136.12753669323163L208.82136802072887,147.17505810687945L214.38837859135504,64.10469325203246L219.95538916198115,78.9489324897588L225.52239973260728,125.89936410625707L231.0894103032334,67.86309188085617L236.6564208738595,108.6353326359773L242.22343144448564,137.49809740147717L247.79044201511175,150.4418669240358L253.35745258573792,95.28083329851789L258.924463156364,339.04589342220294L264.49147372699014,159.13561553220904L270.0584842976163,186.88533757113348L275.6254948682424,168.0528170069488L281.1925054388685,91.26913829428095L286.7595160094947,54.39152415450383L292.3265265801208,139.9136355538794L297.8935371507469,139.70291245387213L303.460547721373,195.31091676031156L309.0275582919992,201.10175901067214L314.5945688626253,54.56818213940743L320.16157943325146,228.6812204218669L325.72859000387757,86.21464159680433L331.2956005745037,141.42253505177368L336.8626111451298,161.52134264965878L342.4296217157559,306.24805580602873L347.99663228638207,347.22886014718716L353.5636428570082,65.95408153149185L359.13065342763434,117.54613675354317L364.69766399826045,181.7052643244616L370.26467456888656,55.836579976236294L375.8316851395127,308.3017860652686L381.3986957101388,40.99445154163841L386.96570628076495,276.7893950804221L392.53271685139106,101.552646397115L398.09972742201717,112.05324248323596L403.6667379926433,152.66798485108092L409.2337485632695,187.46418473674126L414.8007591338956,277.55767870833415L420.3677697045217,62.180777385191924L425.93478027514783,129.95574318902842L431.501790845774,107.23285008965088L437.0688014164001,186.64697918709078L442.6358119870262,138.83673627164177L448.2028225576523,57.19226764089984L453.76983312827844,158.33539382926895L459.3368436989046,73.22618799571124L464.9038542695307,181.7797594379485L470.4708648401568,166.10548746232962L476.03787541078293,263.6647297297559L481.60488598140915,175.39724283373806L487.17189655203526,87.09997737666208L492.7389071226614,100.92908267907852L498.3059176932875,68.37173048702253L503.8729282639136,200.25259914904646L509.43993883453976,136.16585588848645L515.0069494051659,149.9417364781718L520.573959975792,205.13047033551376L526.1409705464181,184.07397512130666L531.7079811170443,75.29266425845749L537.2749916876703,117.18648837435067L542.8420022582965,133.4140830346703L548.4090128289225,93.54633765703439L553.9760233995488,91.0116203126108L559.5430339701749,154.14281923387156L565.110044540801,107.65423134187678L570.6770551114272,164.4965683700414L576.2440656820532,137.84072946006498L581.8110762526794,54.44260559021217L587.3780868233055,86.73178836327298L592.9450973939316,68.15892905778112L598.5121079645578,83.26068627717757L604.0791185351839,83.69697304687973L609.64612910581,-5.723986574096713L615.2131396764361,33.07325687847545L620.7801502470624,54.268090882331336L626.3471608176884,46.80448586352067L631.9141713883146,219.3894650504584L637.4811819589406,236.79183531038686L643.0481925295668,92.55458492560876L648.615203100193,257.10558761453615L654.182213670819,187.35991106219612L659.7492242414452,190.2670390262657L665.3162348120712,44.201670762784076L670.8832453826974,71.67685849943369L676.4502559533236,94.74238365739905L682.0172665239496,165.04778025161372L687.5842770945758,71.40232419715892L693.151287665202,60.8485358722012L698.7182982358281,228.24067957201356L704.2853088064542,187.25563738765103L709.8523193770803,57.60299745580068L715.4193299477064,233.58887016939235L720.9863405183326,47.27055119428099L726.5533510889587,169.46166443655483L732.1203616595848,21.932080753713333L737.6873722302109,146.39828255561218L743.254382800837,55.53652119305447L748.8213933714632,50.809751036689406L754.3884039420893,23.51972944524574L759.9554145127154,156.04332142293353L765.5224250833417,107.02427026666633L771.0894356539677,149.0500358150344L776.6564462245939,159.7676874105479L782.2234567952199,60.69529156507619L787.7904673658461,179.8409380536317L793.3574779364723,149.7821272877672L798.9244885070983,180.99444325248467L804.4914990777245,27.276017270940994L810.0585096483505,103.3254612338533L815.6255202189767,128.32766449911279L821.1925307896028,30.61517792456153L826.7595413602289,75.2628856973993L832.3265519308551,104.82582009755097L837.8935625014811,125.82912307292132L843.4605730721073,116.14151093019397L849.0275836427334,133.67796589962003L854.5945942133595,132.75220012137896L860.1616047839857,213.3964403342872L865.7286153546117,195.01296878025815L871.295625925238,139.24960936356533L876.8626364958642,62.12118778918121L882.4296470664902,60.82297891739987L887.9966576371164,98.81788986390357L893.5636682077426,75.19053386093509L899.1306787783686,151.47404965384467L904.6976893489948,74.19238377233559L910.2646999196209,132.9011578744585L915.831710490247,45.055084704560954L921.3987210608732,119.98931018998083L926.9657316314995,72.71115203237105L932.5327422021255,137.47042964354742L938.0997527727517,86.02096729129605L943.6667633433777,225.76131398039664L949.2337739140039,64.57926674309516L954.8007844846301,124.04568927275221L960.3677950552561,162.14061981364983L965.9348056258823,133.87800508840792L971.5018161965083,194.8065322342964L977.0688267671345,106.86251779923903L982.6358373377607,291.53148768367896L988.2028479083867,-8.733277409582993L993.7698584790129,174.54808297211238L999.336869049639,135.58908705211283L1004.9038796202651,179.51746559267127L1010.4708901908913,97.44732915565804L1016.0379007615173,98.56891251643009L1021.6049113321435,201.79767456517283L1027.1719219027696,102.92535038238326L1032.7389324733956,74.51588870719024L1038.305943044022,346.76065153940414L1043.872953614648,45.344524524311986L1049.439964185274,101.7824966208554L1055.0069747559003,121.77488726717266L1060.5739853265263,239.45847785033814L1066.1409958971524,160.1337331469143L1071.7080064677787,319.16203053058194L1077.275017038405,55.87915325164229L1082.842027609031,21.36174174840788L1088.409038179657,69.70611527703595L1093.976048750283,65.91579481013132L1099.5430593209094,59.46092636945667L1105.1100698915354,183.35461341513312L1110.6770804621615,-4.962084066411524L1116.2440910327878,39.48980612389527L1121.8111016034138,101.19085474089981L1127.3781121740399,171.52817317319534L1132.9451227446662,108.17563218849659L1138.5121333152922,53.37424694217119L1144.0791438859183,77.98699079328566L1149.6461544565443,166.75671893829588L1155.2131650271706,73.44327597899812L1160.7801755977966,134.27175105659836L1166.3471861684227,11.731575924668512L1171.914196739049,125.7248493983762L1177.481207309675,14.27480142939443L1183.048217880301,182.35224172027668L1188.6152284509271,43.02264108302409L1194.1822390215534,47.1237042443299L1199.7492495921795,66.82029018761652L1205.3162601628055,122.504867936777L1210.8832707334318,136.76386265172164L1216.450281304058,109.22908531906134L1222.0172918746841,149.44374930933054L1227.5843024453102,44.863553676075405L1233.1513130159365,100.4012844752848L1238.7183235865625,301.1254613522391L1244.2853341571886,109.3184859500245L1249.8523447278149,142.6441055330454L1255.419355298441,138.22168071390763L1260.986365869067,49.281691941167715L1266.553376439693,128.56813368628394L1272.1203870103193,82.44984561080669L1277.6873975809453,70.39992002840822L1283.2544081515714,5.659802014859243L1288.8214187221977,21.80439340138965L1294.3884292928237,163.35796868866467L1299.9554398634498,66.75644651145467L1305.5224504340758,104.28525965330373L1311.0894610047021,58.82885449111786L1316.6564715753282,51.49079354760814L1322.2234821459542,230.59661189145794L1327.7904927165805,117.83346577016574L1333.3575032872066,136.37229243444824L1338.9245138578326,185.83399524369716L1344.491524428459,123.5136369888073L1350.058534999085,226.11034339615836L1355.6255455697112,149.02022478008192L1361.1925561403373,207.15865987689943L1366.7595667109633,129.1767918868442L1372.3265772815896,228.90468952538043L1377.8935878522157,178.56188877947778L1383.4605984228417,92.7269563564669L1389.027608993468,168.03365740932134L1394.594619564094,55.94514020482685L1400.16163013472,72.6111324379771L1405.7286407053464,164.98819065560303" style="fill: none;" fill="none"></path></g></g></g></g></g><g><g opacity="0.778955"><span fill="rgb(0, 0, 0)" stroke="none" stroke-width="1px">Alt + Scroll to Zoom</span></g></g></g><g transform="translate(42, 376)" clip-path="url(#clip_1)"><clipPath id="clip_1"><rect width="1542" height="24"></rect></clipPath><g><g><line x1="2.841976907562207" y1="0" x2="2.841976907562207" y2="5" style="visibility: inherit;" fill="rgb(0, 0, 0)" stroke="rgb(204, 204, 204)" stroke-width="1px"></line><line x1="114.18218832008472" y1="0" x2="114.18218832008472" y2="5" style="visibility: inherit;" fill="rgb(0, 0, 0)" stroke="rgb(204, 204, 204)" stroke-width="1px"></line><line x1="225.52239973260728" y1="0" x2="225.52239973260728" y2="5" style="visibility: inherit;" fill="rgb(0, 0, 0)" stroke="rgb(204, 204, 204)" stroke-width="1px"></line><line x1="336.8626111451298" y1="0" x2="336.8626111451298" y2="5" style="visibility: inherit;" fill="rgb(0, 0, 0)" stroke="rgb(204, 204, 204)" stroke-width="1px"></line><line x1="448.2028225576523" y1="0" x2="448.2028225576523" y2="5" style="visibility: inherit;" fill="rgb(0, 0, 0)" stroke="rgb(204, 204, 204)" stroke-width="1px"></line><line x1="559.5430339701749" y1="0" x2="559.5430339701749" y2="5" style="visibility: inherit;" fill="rgb(0, 0, 0)" stroke="rgb(204, 204, 204)" stroke-width="1px"></line><line x1="670.8832453826974" y1="0" x2="670.8832453826974" y2="5" style="visibility: inherit;" fill="rgb(0, 0, 0)" stroke="rgb(204, 204, 204)" stroke-width="1px"></line><line x1="782.2234567952199" y1="0" x2="782.2234567952199" y2="5" style="visibility: inherit;" fill="rgb(0, 0, 0)" stroke="rgb(204, 204, 204)" stroke-width="1px"></line><line x1="893.5636682077426" y1="0" x2="893.5636682077426" y2="5" style="visibility: inherit;" fill="rgb(0, 0, 0)" stroke="rgb(204, 204, 204)" stroke-width="1px"></line><line x1="1004.9038796202651" y1="0" x2="1004.9038796202651" y2="5" style="visibility: inherit;" fill="rgb(0, 0, 0)" stroke="rgb(204, 204, 204)" stroke-width="1px"></line><line x1="1116.2440910327878" y1="0" x2="1116.2440910327878" y2="5" style="visibility: inherit;" fill="rgb(0, 0, 0)" stroke="rgb(204, 204, 204)" stroke-width="1px"></line><line x1="1227.5843024453102" y1="0" x2="1227.5843024453102" y2="5" style="visibility: inherit;" fill="rgb(0, 0, 0)" stroke="rgb(204, 204, 204)" stroke-width="1px"></line><line x1="1338.9245138578326" y1="0" x2="1338.9245138578326" y2="5" style="visibility: inherit;" fill="rgb(0, 0, 0)" stroke="rgb(204, 204, 204)" stroke-width="1px"></line><line x1="1450.2647252703553" y1="0" x2="1450.2647252703553" y2="5" style="visibility: inherit;" fill="rgb(0, 0, 0)" stroke="rgb(204, 204, 204)" stroke-width="1px"></line></g><g transform="translate(0, 8)"><text x="2.841976907562207" y="0" dx="0em" dy="0.95em" style="text-anchor: middle; visibility: inherit; font-family: Roboto, sans-serif; font-size: 12px; font-weight: 200;" fill="rgb(33, 33, 33)" stroke="none" stroke-width="1px">0</text><text x="114.18218832008472" y="0" dx="0em" dy="0.95em" style="text-anchor: middle; visibility: inherit; font-family: Roboto, sans-serif; font-size: 12px; font-weight: 200;" fill="rgb(33, 33, 33)" stroke="none" stroke-width="1px">2k</text><text x="225.52239973260728" y="0" dx="0em" dy="0.95em" style="text-anchor: middle; visibility: inherit; font-family: Roboto, sans-serif; font-size: 12px; font-weight: 200;" fill="rgb(33, 33, 33)" stroke="none" stroke-width="1px">4k</text><text x="336.8626111451298" y="0" dx="0em" dy="0.95em" style="text-anchor: middle; visibility: inherit; font-family: Roboto, sans-serif; font-size: 12px; font-weight: 200;" fill="rgb(33, 33, 33)" stroke="none" stroke-width="1px">6k</text><text x="448.2028225576523" y="0" dx="0em" dy="0.95em" style="text-anchor: middle; visibility: inherit; font-family: Roboto, sans-serif; font-size: 12px; font-weight: 200;" fill="rgb(33, 33, 33)" stroke="none" stroke-width="1px">8k</text><text x="559.5430339701749" y="0" dx="0em" dy="0.95em" style="text-anchor: middle; visibility: inherit; font-family: Roboto, sans-serif; font-size: 12px; font-weight: 200;" fill="rgb(33, 33, 33)" stroke="none" stroke-width="1px">10k</text><text x="670.8832453826974" y="0" dx="0em" dy="0.95em" style="text-anchor: middle; visibility: inherit; font-family: Roboto, sans-serif; font-size: 12px; font-weight: 200;" fill="rgb(33, 33, 33)" stroke="none" stroke-width="1px">12k</text><text x="782.2234567952199" y="0" dx="0em" dy="0.95em" style="text-anchor: middle; visibility: inherit; font-family: Roboto, sans-serif; font-size: 12px; font-weight: 200;" fill="rgb(33, 33, 33)" stroke="none" stroke-width="1px">14k</text><text x="893.5636682077426" y="0" dx="0em" dy="0.95em" style="text-anchor: middle; visibility: inherit; font-family: Roboto, sans-serif; font-size: 12px; font-weight: 200;" fill="rgb(33, 33, 33)" stroke="none" stroke-width="1px">16k</text><text x="1004.9038796202651" y="0" dx="0em" dy="0.95em" style="text-anchor: middle; visibility: inherit; font-family: Roboto, sans-serif; font-size: 12px; font-weight: 200;" fill="rgb(33, 33, 33)" stroke="none" stroke-width="1px">18k</text><text x="1116.2440910327878" y="0" dx="0em" dy="0.95em" style="text-anchor: middle; visibility: inherit; font-family: Roboto, sans-serif; font-size: 12px; font-weight: 200;" fill="rgb(33, 33, 33)" stroke="none" stroke-width="1px">20k</text><text x="1227.5843024453102" y="0" dx="0em" dy="0.95em" style="text-anchor: middle; visibility: inherit; font-family: Roboto, sans-serif; font-size: 12px; font-weight: 200;" fill="rgb(33, 33, 33)" stroke="none" stroke-width="1px">22k</text><text x="1338.9245138578326" y="0" dx="0em" dy="0.95em" style="text-anchor: middle; visibility: inherit; font-family: Roboto, sans-serif; font-size: 12px; font-weight: 200;" fill="rgb(33, 33, 33)" stroke="none" stroke-width="1px">24k</text><text x="1450.2647252703553" y="0" dx="0em" dy="0.95em" style="text-anchor: middle; visibility: inherit; font-family: Roboto, sans-serif; font-size: 12px; font-weight: 200;" fill="rgb(33, 33, 33)" stroke="none" stroke-width="1px">26k</text></g><line x1="0" y1="0" x2="1542.209375" y2="0" fill="rgb(0, 0, 0)" stroke="rgb(204, 204, 204)" stroke-width="1px"></line></g></g></g></g></svg>